<svg width="424" height="387" viewBox="0 0 424 387" fill="none" xmlns="http://www.w3.org/2000/svg">
    <path d="m308.683 168.76-1.497 128.443c-5.287 42.739-81.026 76.669-81.026 76.669s-75.75-33.898-81.07-76.669l-1.54-128.443 80.949-26.653 84.184 26.653z" fill="#EDB1B1"/>
    <path d="m298.119 176.89-1.3 115.33c-4.611 37.274-70.67 66.866-70.67 66.866s-66.06-29.592-70.659-66.866l-1.387-115.33 70.604-23.244 73.412 23.244z" fill="#7FA8FA"/>
    <path d="m293.487 184.168-1.223 105.878c-4.37 34.968-66.257 62.681-66.257 62.681s-61.93-27.746-66.245-62.681l-1.3-105.878 66.191-21.79 68.834 21.79z" stroke="#EDB1B1" stroke-width="3.283" stroke-linecap="round" stroke-linejoin="round"/>
    <path d="M260.244 48.764h-50.329l2.742-31.373h50.329l-2.742 31.373z" fill="#EBEBEB"/>
    <path d="m261.259 13.128-1.376 16.38-1.377 19.692h-48.405l2.753-36.072h48.405z" fill="#FAFAFA"/>
    <path d="m256.628 17.39 2.742 31.373h-50.317l-2.742-31.373h4.271l1.497-2.35h13.557l1.944 2.35h29.048z" fill="#EDB1B1"/>
    <path d="M338.245 55.768h-53.552v53.567h53.552V55.768z" fill="#EBEBEB"/>
    <path d="M339.599 55.768h-1.366v53.567h1.366V55.768z" fill="#7FA8FA"/>
    <path d="M333.284 60.728H289.63v43.667h43.654V60.729z" fill="#F5F5F5"/>
    <path d="M290.046 60.728h-.404v43.667h.404V60.729z" fill="#7FA8FA"/>
    <path d="M311.872 88.867c4.7 0 8.51-4.853 8.51-10.84s-3.81-10.84-8.51-10.84c-4.7 0-8.51 4.853-8.51 10.84s3.81 10.84 8.51 10.84z" fill="#EDB1B1"/>
    <path d="M307.415 94.353h8.969v-8.971h-8.969v8.971z" fill="#EDB1B1"/>
    <path d="M328.04 104.396h-32.86v-3.06a10.535 10.535 0 0 1 10.531-10.534h11.842a10.536 10.536 0 0 1 10.531 10.534v3.06h-.044zM294.361 86.169c0 1.781 3.277 3.278 3.277 3.278s3.277-1.453 3.277-3.278c0-.852-1.18-1.333-1.955-1.093a2.38 2.38 0 0 0-1.366 1.224 4.226 4.226 0 0 0-1.606-1.311 1.222 1.222 0 0 0-1.627 1.18zM323.441 78.203c0 2.35 4.25 4.25 4.25 4.25s4.249-1.9 4.249-4.25c0-1.093-1.573-1.738-2.567-1.454-.75.3-1.353.88-1.682 1.618a5.755 5.755 0 0 0-2.109-1.727 1.604 1.604 0 0 0-2.141 1.563z" fill="#EDB1B1"/>
    <path d="M176.476 109.892a12.836 12.836 0 0 1-14.603-13.443 12.842 12.842 0 0 1 8.584-11.394 12.833 12.833 0 0 1 14.476 19.844 12.86 12.86 0 0 1-8.457 4.993zm-2.6-18.686a6.015 6.015 0 0 0-5.002 4.443 6.022 6.022 0 0 0 2.191 6.322 6.02 6.02 0 0 0 9.595-5.63 6.03 6.03 0 0 0-6.784-5.136z" fill="#7FA8FA"/>
    <path d="m171.654 58.874-4.826.674 4.335 31.05 4.825-.674-4.334-31.05z" fill="#7FA8FA"/>
    <path d="m175.746 54.553-9.053 1.28.682 4.825 9.053-1.28-.682-4.825zM176.49 61.118l-8.515 1.188.673 4.827 8.515-1.188-.673-4.827zM177.731 69.867l-7.433 1.037.673 4.827 7.433-1.037-.673-4.827z" fill="#EDB1B1"/>
    <path d="M197.986 64.597c.027.326.071.65.131.973a9.966 9.966 0 0 0 3.081 5.463 9.83 9.83 0 0 0 6.631 2.656h92.3a8.132 8.132 0 0 0 7.645-4.95 8.145 8.145 0 0 0 .647-3.137 9.86 9.86 0 0 0 0-.972 10.103 10.103 0 0 0-9.832-9.048h-92.322a8.158 8.158 0 0 0-7.914 5.6 8.17 8.17 0 0 0-.367 3.415z" fill="#4883F8"/>
    <path opacity=".8" d="M197.986 64.597c.027.326.071.65.131.973a9.966 9.966 0 0 0 3.081 5.463 9.83 9.83 0 0 0 6.631 2.656h92.3a8.132 8.132 0 0 0 7.645-4.95 8.145 8.145 0 0 0 .647-3.137 9.86 9.86 0 0 0 0-.972 10.103 10.103 0 0 0-9.832-9.048h-92.322a8.158 8.158 0 0 0-7.914 5.6 8.17 8.17 0 0 0-.367 3.415z" fill="#fff"/>
    <path d="M308.421 65.537c0 .292-.022.585-.066.874a10.107 10.107 0 0 0-9.832-8.742l-98.133.219a8.252 8.252 0 0 1 5.877-2.339h92.3a10.103 10.103 0 0 1 9.832 9.048c.022.313.03.626.022.94z" fill="#4883F8"/>
    <path opacity=".5" d="M308.421 65.537c0 .292-.022.585-.066.874a10.107 10.107 0 0 0-9.832-8.742l-98.133.219a8.252 8.252 0 0 1 5.877-2.339h92.3a10.103 10.103 0 0 1 9.832 9.048c.022.313.03.626.022.94z" fill="#fff"/>
    <path d="m292.57 59.92.393 4.372 4.108-1.53.972 2.186-4.195 1.398 3.015 3.705-1.89 1.388-2.938-3.847-2.185 3.847-2.065-1.388 2.327-3.705-4.37-1.398.59-2.186 4.424 1.475-.393-4.37 2.207.054zM267.279 59.92l.393 4.371 4.108-1.53.983 2.186-4.228 1.431 3.016 3.705-1.879 1.388-2.939-3.847-2.185 3.847-2.076-1.388 2.338-3.704-4.37-1.4.59-2.185 4.425 1.475-.383-4.37 2.207.021zM242.045 59.92l.382 4.371 4.108-1.53.983 2.186-4.206 1.399 3.015 3.704-1.824 1.42-2.939-3.846-2.185 3.847-2.065-1.388 2.327-3.704-4.37-1.4.601-2.185 4.37 1.475-.382-4.37 2.185.021zM216.797 59.92l.383 4.372 4.118-1.53.973 2.186-4.206 1.398 3.026 3.705-1.89 1.388-2.939-3.847-2.185 3.847-2.064-1.388 2.326-3.705-4.369-1.398.59-2.186 4.369 1.475-.382-4.37 2.25.054z" fill="#EDB1B1"/>
    <path d="M277.975 51.266h-4.304v1.092h4.304v-1.092zM296.469 51.266h-14.037v1.092h14.037v-1.092zM219.922 242.95h-3.618v.919h3.618v-.919zM235.47 242.95h-11.801v.919h11.801v-.919z" fill="#4883F8"/>
    <path d="m257.071 227.268-2.286 26.182a4.763 4.763 0 0 1-4.648 4.272 3.851 3.851 0 0 1-3.733-2.657 3.86 3.86 0 0 1-.17-1.615l2.269-26.182a13.857 13.857 0 0 0-8.283-14.21 13.85 13.85 0 0 0-5.714-1.132h-9.33a17.09 17.09 0 0 0-16.678 15.342l-.919 10.694h-8.541l.918-10.694c1.148-13.174 12.803-23.885 25.963-23.885h9.368a21.545 21.545 0 0 1 16.279 7.026 21.57 21.57 0 0 1 5.505 16.859z" fill="#4883F8"/>
    <path d="m257.071 227.268-2.286 26.182a4.763 4.763 0 0 1-4.648 4.272 3.851 3.851 0 0 1-3.733-2.657 3.86 3.86 0 0 1-.17-1.615l2.269-26.182a13.857 13.857 0 0 0-8.283-14.21 13.85 13.85 0 0 0-5.714-1.132h-9.33a17.09 17.09 0 0 0-16.678 15.342l-.919 10.694h-8.541l.918-10.694c1.148-13.174 12.803-23.885 25.963-23.885h9.368a21.545 21.545 0 0 1 16.279 7.026 21.57 21.57 0 0 1 5.505 16.859z" fill="#E9F0FE"/>
    <path d="m257.686 252.495-4.454 51.022a6.498 6.498 0 0 1-6.355 5.834h-51.008a5.255 5.255 0 0 1-3.98-1.713 5.267 5.267 0 0 1-1.346-4.121l4.463-51.022a6.497 6.497 0 0 1 3.178-4.952 6.246 6.246 0 0 1 3.177-.919h50.999a5.506 5.506 0 0 1 2.948.836 5.29 5.29 0 0 1 2.378 5.035z" fill="#4883F8"/>
    <path d="m204.648 274.781 13.253 20.404 43.706-43.719a.438.438 0 0 0-.009-.575.44.44 0 0 0-.569-.078l-41.65 32.659-7.87-12.687-6.861 3.996z" fill="#EDB1B1"/>
    <path d="M138.535 140.182H99.011a7.482 7.482 0 0 1-7.309-6.72l-3.419-39.515a6.057 6.057 0 0 1 3.623-6.228 6.051 6.051 0 0 1 2.506-.492h39.48a7.472 7.472 0 0 1 7.265 6.72l3.452 39.493a6.043 6.043 0 0 1-1.517 4.741 6.05 6.05 0 0 1-4.557 2.001z" fill="#4883F8"/>
    <path opacity=".8" d="M138.535 140.182H99.011a7.482 7.482 0 0 1-7.309-6.72l-3.419-39.515a6.057 6.057 0 0 1 3.623-6.228 6.051 6.051 0 0 1 2.506-.492h39.48a7.472 7.472 0 0 1 7.265 6.72l3.452 39.493a6.043 6.043 0 0 1-1.517 4.741 6.05 6.05 0 0 1-4.557 2.001z" fill="#fff"/>
    <path d="M91.725 117.693s14.037-19.55 24.372-19.046c10.334.502 27.507 18.577 27.507 18.577s-25.311 13.298-51.88.469z" fill="#fff"/>
    <path d="m92.173 117.989-.885-.634c.568-.798 13.951-19.288 24.416-19.288h.426c10.444.503 27.158 18.009 27.868 18.752l-.786.754c-.175-.174-17.13-17.932-27.137-18.413h-.371c-9.941.022-23.4 18.665-23.531 18.829z" fill="#263238"/>
    <path d="M90.272 118.382c-2.12 0-4.873-.787-5.845-3.781a.546.546 0 0 1 .35-.688.528.528 0 0 1 .418.028.543.543 0 0 1 .27.322c1.256 3.868 5.954 2.939 6.15 2.895a.555.555 0 0 1 .646.64.55.55 0 0 1-.427.431 8.032 8.032 0 0 1-1.562.153zM98.608 109.989a.544.544 0 0 1-.34-.109c-.163-.131-4.041-3.125-5.024-6.174a.545.545 0 0 1 .35-.688.557.557 0 0 1 .687.349c.885 2.721 4.61 5.617 4.654 5.639a.548.548 0 0 1-.09.923.535.535 0 0 1-.237.06zM106.625 102.549a.566.566 0 0 1-.535-.558 56.885 56.885 0 0 0-2.371-6.993 67.81 67.81 0 0 1-.513-1.377.542.542 0 0 1 .371-.689.545.545 0 0 1 .677.372c0 .13.23.612.481 1.3 1.529 4.01 2.469 6.644 2.447 7.409a.523.523 0 0 1-.043.21.527.527 0 0 1-.303.291.524.524 0 0 1-.211.035zM116.097 99.193a.566.566 0 0 1-.546-.502l-.765-8.742a.546.546 0 0 1 .497-.596.55.55 0 0 1 .596.497l.765 8.808a.561.561 0 0 1-.492.59l-.055-.055zM145.243 117.781a9.172 9.172 0 0 1-1.595-.131.55.55 0 0 1-.347-.234.565.565 0 0 1-.003-.609.52.52 0 0 1 .558-.228s2.676.514 4.315-.644a3.063 3.063 0 0 0 1.245-2.186.562.562 0 0 1 .218-.362.547.547 0 0 1 .613-.029.553.553 0 0 1 .262.555 4.139 4.139 0 0 1-1.705 2.896 6.217 6.217 0 0 1-3.561.972zM135.433 109.411a.536.536 0 0 1-.404-.186.554.554 0 0 1-.162-.388.543.543 0 0 1 .162-.388s3.277-2.885 3.627-5.573a.557.557 0 0 1 .622-.459.554.554 0 0 1 .45.41c.017.07.02.142.009.213-.459 3.082-3.845 6.098-3.987 6.229a.506.506 0 0 1-.317.142zM126.202 103.062h-.098a.558.558 0 0 1-.448-.634c0-.065 1.202-7.092 1.42-8.534a.564.564 0 0 1 .218-.363.561.561 0 0 1 .41-.102.551.551 0 0 1 .465.629c-.219 1.453-1.41 8.49-1.42 8.556a.55.55 0 0 1-.547.448z" fill="#263238"/>
    <path d="M126.511 119.983c4.523-4.726 4.006-12.563-1.154-17.504-5.16-4.941-13.01-5.116-17.532-.39-4.523 4.726-4.006 12.562 1.154 17.504 5.16 4.941 13.01 5.116 17.532.39z" fill="#EDB1B1"/>
    <path opacity=".3" d="M122.303 111.028a7.2 7.2 0 0 0 0-.831 5.86 5.86 0 0 0-5.725-5.256 4.738 4.738 0 0 0-4.589 3.27 4.741 4.741 0 0 0-.207 1.986c.018.282.07.561.153.831h-7.122a11.15 11.15 0 0 1 2.844-8.743 11.142 11.142 0 0 1 8.441-3.638 13.801 13.801 0 0 1 13.469 12.381h-7.264z" fill="#000"/>
    <path opacity=".7" d="M122.291 110.198c.016.276.016.554 0 .83a4.734 4.734 0 0 1-4.818 4.426 5.845 5.845 0 0 1-5.561-4.426 3.614 3.614 0 0 1-.153-.83 4.744 4.744 0 0 1 4.796-5.257 5.856 5.856 0 0 1 5.736 5.257z" fill="#000"/>
    <path opacity=".7" d="M125.142 105.041a3.874 3.874 0 0 1-.989 3.024 3.869 3.869 0 0 1-2.922 1.259 4.776 4.776 0 0 1-4.654-4.283 3.87 3.87 0 0 1 .986-3.029 3.863 3.863 0 0 1 2.925-1.255 4.762 4.762 0 0 1 4.654 4.284z" fill="#fff"/>
    <path d="M108.22 82.343h-4.304v1.093h4.304v-1.093zM126.726 82.343h-14.038v1.093h14.038v-1.093z" fill="#4883F8"/>
</svg>
