<svg width="382" height="360" viewBox="0 0 382 360" fill="none" xmlns="http://www.w3.org/2000/svg">
    <path d="M222.108 243.781c0 4.006-2.603 8.012-7.878 11.106-10.539 6.129-27.695 6.129-38.315 0-5.305-3.064-8.008-7.08-8.008-11.106v8.012c0 4.005 2.693 8.011 8.008 11.105 10.62 6.129 27.776 6.129 38.315 0 5.275-3.074 7.898-7.09 7.878-11.105v-8.012z" fill="#4883F8"/>
    <path d="M175.927 254.888c10.619 6.129 27.776 6.129 38.315 0 5.275-3.064 7.898-7.09 7.878-11.105-.02-4.016-2.693-8.011-8.008-11.096-10.62-6.138-27.776-6.138-38.316 0-5.274 3.065-7.897 7.08-7.877 11.096.02 4.015 2.703 8.041 8.008 11.105z" fill="#4883F8"/>
    <path opacity=".1" d="M222.108 243.781c0 4.006-2.603 8.012-7.878 11.106-10.539 6.129-27.695 6.129-38.315 0-5.305-3.064-8.008-7.08-8.008-11.106v8.012c0 4.005 2.693 8.011 8.008 11.105 10.62 6.129 27.776 6.129 38.315 0 5.275-3.074 7.898-7.09 7.878-11.105v-8.012z" fill="#000"/>
    <path opacity=".3" d="M175.927 254.888c10.619 6.129 27.776 6.129 38.315 0 5.275-3.064 7.898-7.09 7.878-11.105-.02-4.016-2.693-8.011-8.008-11.096-10.62-6.138-27.776-6.138-38.316 0-5.274 3.065-7.897 7.08-7.877 11.096.02 4.015 2.703 8.041 8.008 11.105z" fill="#000"/>
    <path opacity=".2" d="M181.431 247.668c7.557 4.366 19.768 4.366 27.275 0 3.754-2.183 5.626-5.007 5.606-7.911-.021-2.904-1.912-5.718-5.696-7.901-7.557-4.366-19.768-4.366-27.275 0-3.754 2.183-5.626 5.007-5.605 7.901.02 2.894 1.911 5.708 5.695 7.911z" fill="#000"/>
    <path d="M248.211 210.359c15.722-28.886 5.057-65.044-23.82-80.763-28.878-15.718-65.034-5.045-80.756 23.84-15.722 28.885-5.058 65.044 23.82 80.763 28.878 15.718 65.033 5.045 80.756-23.84z" fill="#A5C2FB"/>
    <path d="M140.862 166.194a36.312 36.312 0 0 0 1.572 5.748c.57 1.913 1.381 4.446.49 6.229a8.5 8.5 0 0 0-.89 2.203 2.857 2.857 0 0 0 .39 2.233c.51.691 1.391 1.001 2.002 1.662 1.111 1.212.871 3.104 1.321 4.687a5.29 5.29 0 0 0 3.293 3.434c.671.241 1.652.181 1.802-.52.15-.701-.441-1.002-.921-1.392a11.648 11.648 0 0 1-2.933-3.135 1.675 1.675 0 0 1-.32-.811.609.609 0 0 1 .48-.641c.791.251 1.001 1.252 1.452 1.923a2.363 2.363 0 0 0 2.772.821c.179-.089.367-.159.561-.21.235-.025.473-.005.7.06 1.573.226 3.069.823 4.365 1.742.92.911 1.718 1.937 2.372 3.055a5.005 5.005 0 0 0 3.003 2.283 11.292 11.292 0 0 0 3.213-.331 6.716 6.716 0 0 1 3.833.741 5.879 5.879 0 0 0-1.501 5.388c.14.601.39 1.172.48 1.783.047.963.003 1.928-.13 2.884a3.011 3.011 0 0 0 1.001 2.603c.871.631 2.302.541 2.773 1.512.17.341.16.741.3 1.092a2.485 2.485 0 0 0 2.352 1.242 6.397 6.397 0 0 1 2.773.36c1.291.691 1.601 2.353 2.232 3.675.368.76.881 1.441 1.511 2.003.761.681 1.722 1.252 2.052 2.213.079.569.234 1.125.461 1.652.43.671 1.411.872 1.751 1.603.101.326.168.661.2 1.001a2.928 2.928 0 0 0 1.932 2.003c.927.28 1.895.402 2.863.36h3.003c.57 0 1.261-.06 1.511-.58a1.11 1.11 0 0 0-.651-1.352 7.86 7.86 0 0 0-1.601-.431 3.558 3.558 0 0 1-2.462-2.604 11.578 11.578 0 0 0-.221-1.181 7.708 7.708 0 0 0-.76-1.482 6.842 6.842 0 0 1-.731-4.507c.14-.801.44-1.582.511-2.403a8.797 8.797 0 0 0-.611-3.455 1.557 1.557 0 0 1-.1-.821c.138-.32.363-.594.65-.791 1.562-1.392.811-3.755.081-5.718-.281-.761.22-1.572.64-2.273.421-.701.771-1.653.24-2.273a1.896 1.896 0 0 0-1.551-.481c-.8.021-1.593.159-2.352.41-1.001.321-2.002.822-2.943.481a5.003 5.003 0 0 1-1.822-1.682 2.094 2.094 0 0 0-2.232-.811c-.33.13-.61.41-1.001.44a1.27 1.27 0 0 1-1.001-.621 2.562 2.562 0 0 0-.881-.881c-.84-.38-1.871.451-2.712.07a3.995 3.995 0 0 1-.941-.861 4.998 4.998 0 0 0-3.073-.901 3.644 3.644 0 0 1-2.862-1.673 8.273 8.273 0 0 0 .23-1.542 1.54 1.54 0 0 0-.229-.631 1.538 1.538 0 0 0-.474-.476 1.536 1.536 0 0 0-1.299-.175.773.773 0 0 0-.38.251c-.371.471.17 1.141.08 1.732-.09.591-1.001.932-1.692 1.002a2.612 2.612 0 0 1-1.181-.161 2.717 2.717 0 0 1-1.001-.891 9.414 9.414 0 0 1-1.371-2.163 3.077 3.077 0 0 1 0-2.493 1.879 1.879 0 0 1 2.122-1.002c.34.1.71.321 1.001.14.29-.18.22-.881.35-1.341.2-.721 1.231-.852 1.892-.511.604.435 1.176.914 1.711 1.432.462.268.895.583 1.292.941.29.331.51.791.94.871.431.081.901-.42.921-.911a2.716 2.716 0 0 0-.49-1.372c-1.111-2.003-2.072-4.226-1.582-6.439.15-.595.354-1.175.611-1.732a7.83 7.83 0 0 1 2.492-3.615c.479-.265.934-.57 1.361-.912a2.58 2.58 0 0 0 .581-1.662 5.99 5.99 0 0 0 3.003 0c.424-.082.81-.3 1.101-.621.174-.243.271-.532.28-.831a2.252 2.252 0 0 0-1.651-2.263c-.521-.13-1.182-.11-1.482-.561a.942.942 0 0 1 0-1.001c.206-.302.495-.538.831-.681a3.365 3.365 0 0 1 2.252-.261 2.59 2.59 0 0 1 1.732 1.422c.3.671.31 1.533.881 2.003a1.49 1.49 0 0 0 1.431.17 3.444 3.444 0 0 0 1.221-.851 2.102 2.102 0 0 0 .781-1.572 1.592 1.592 0 0 0-.751-1.101 6.906 6.906 0 0 0-1.231-.601 9.007 9.007 0 0 1-3.183-2.364c-.561-.651-1.001-1.372-1.602-2.002a5.464 5.464 0 0 0-2.662-1.643 3.718 3.718 0 0 0-3.003.521 1.715 1.715 0 0 1-.57.33c-.531.131-1.001-.37-1.402-.711-1.001-.781-3.163-1.121-3.663 0-.29.661.13 1.402.28 2.113a3.72 3.72 0 0 1-1.221 3.295 1.458 1.458 0 0 0-.33.411c-.211.54.43 1.001.7 1.512a1.25 1.25 0 0 1-1.871 1.582c-.861-.661-.621-2.143-1.432-2.854-.55-.481-1.391-.431-2.002-.771a2.951 2.951 0 0 1-1.261-2.504 5.01 5.01 0 0 1 .611-2.934 3.08 3.08 0 0 1 2.482-1.542c.511 0 1.001.13 1.542.1a1.189 1.189 0 0 0 1.181-.821 1.45 1.45 0 0 0-.05-.651 3.997 3.997 0 0 1 0-2.003 1.501 1.501 0 0 1 1.531-1.081 1.417 1.417 0 0 1 1.081 1.242 2.951 2.951 0 0 1-.38 1.702c-.101.17-.168.356-.201.551a.932.932 0 0 0 .461.791c.281.156.591.255.911.29a4.683 4.683 0 0 0 3.593-.47c.214-.146.381-.352.481-.591.075-.328.098-.666.07-1.002.05-.921.76-1.682 1.001-2.563a2.833 2.833 0 0 0-2.663-3.655c-1.221 0-2.352.751-3.573.671a1.46 1.46 0 0 1-.901-.331 3.33 3.33 0 0 1-.591-1.001c-.18-.331-.52-.661-.891-.591-.37.07-.56.431-.71.761a5.411 5.411 0 0 0-.481 1.322c-.16.901.151 1.842 0 2.744-.09.41-.41.871-.82.771a.74.74 0 0 1-.411-.311 1.78 1.78 0 0 1-.36-1.201c0-.661.41-1.412 0-1.923a1.074 1.074 0 0 0-.365-.22 1.073 1.073 0 0 0-1.167.32 3.426 3.426 0 0 0-.73 1.662 1.368 1.368 0 0 0-.751-.65.675.675 0 0 1-.31-.141.775.775 0 0 1-.13-.46 1.367 1.367 0 0 0-1.181-1.082 2.398 2.398 0 0 0-1.967.851 2.404 2.404 0 0 0-.506 2.083c.261.681 1.001 1.242.841 1.953a1.15 1.15 0 0 0-1.561 1.001 3.044 3.044 0 0 1-2.513-1.402 5.008 5.008 0 0 0-2.272-1.912c-.65-.18-1.371 0-2.002-.191a59.934 59.934 0 0 0-4.364 8.012c-.11.681-.21 1.362-.31 2.003a24.419 24.419 0 0 0-.421 6.619zM185.124 140.157a1.84 1.84 0 0 1-.65-1.442c.018-.547.071-1.092.16-1.632a6.554 6.554 0 0 0-.751-3.786 3.002 3.002 0 0 0-1.101-1.231 3.741 3.741 0 0 0-1.822-.321c-3.153 0-6.326.561-9.438.06a18.246 18.246 0 0 0-2.743-.38c-2.082 0-4.885 1.302-5.505 3.485a1.851 1.851 0 0 0 .811 2.203c1.441.921 2.172-.16 3.353-.801s2.652-.05 3.913-.461c.267-.12.551-.197.841-.23.721 0 1.151.881 1.051 1.602a9.114 9.114 0 0 1-.811 2.003 1.784 1.784 0 0 0 .231 2.003c.13.12.3.22.35.38.1.341-.33.551-.641.721a1.884 1.884 0 0 0-.82 2.323c.31.721 1.001 1.172 1.391 1.873.189.679.413 1.347.671 2.003a3.51 3.51 0 0 0 2.732 1.191 2.682 2.682 0 0 0 1.151 1.873 2.005 2.005 0 0 0 2.262-.461c.542-.62.89-1.386 1.001-2.203a10.27 10.27 0 0 1 .431-1.822 5.095 5.095 0 0 1 3.002-2.494 6.735 6.735 0 0 0 2.453-1.272 1.708 1.708 0 0 0 .476-1.873 1.728 1.728 0 0 0-.356-.58c-.451-.39-1.151-.37-1.642-.731zM241.898 168.448a2.313 2.313 0 0 0-.42-.621c-.37-.44-.891-.921-1.441-.751-.551.171-.711 1.122-.751 1.823a5.06 5.06 0 0 1-.911 2.574l-1.471-.251c-.721-1.332-.2-3.004.32-4.426l2.192-5.928a7.352 7.352 0 0 0 .501-1.893 6.838 6.838 0 0 0-.451-2.523 31.999 31.999 0 0 0 1.472-7.791 7.514 7.514 0 0 0-.111-2.003 9.001 9.001 0 0 0-.93-2.223l-1.212-2.263a2.23 2.23 0 0 0-.58-.802 2.721 2.721 0 0 0-.711-.34 6.918 6.918 0 0 1-2.902-2.163c-1.482-1.873-2.373-4.126-4.315-5.518a17.922 17.922 0 0 0-5.144-2.263 5.447 5.447 0 0 0-2.312-.391 6.685 6.685 0 0 0-2.052.762 12.418 12.418 0 0 1-5.005 1.101 1.148 1.148 0 0 0-.911.28.812.812 0 0 0 .26 1.072c.321.25.731.37 1.071.611-.32.761-1.841.511-2.172 1.262-.1.22-.08.5-.25.681a.59.59 0 0 1-.41.14c-.741 0-1.261-.721-1.582-1.392a3.243 3.243 0 0 0-1.281-1.753 1.43 1.43 0 0 0-1.361.1c-.18.121-.331.281-.511.391a2.169 2.169 0 0 1-.841.21c-.856.107-1.719.158-2.582.151a.428.428 0 0 0-.23 0 .405.405 0 0 0-.12.2c-.28.861-.481 1.746-.601 2.644a3.629 3.629 0 0 1-.68 2.052 1.103 1.103 0 0 0-.231.291.692.692 0 0 0 0 .32 1.736 1.736 0 0 0 1.001 1.282c.891.381 1.952 0 2.883.25.39.121.801.371 1.181.211a.875.875 0 0 0 .43-.922 5.731 5.731 0 0 0-.34-1.001 3.826 3.826 0 0 1 .381-2.844 1.794 1.794 0 0 0 .83 1.262c.521.21 1.141-.09 1.642.14.5.23.69 1.142 1.151 1.662.145.129.276.274.39.431a1.002 1.002 0 0 1-.08 1.001c-.204.28-.451.527-.731.731-.41.351-.81.711-1.181 1.092a3.556 3.556 0 0 1-.71.631 1.003 1.003 0 0 1-.901.15 6.117 6.117 0 0 1-.661-.381.999.999 0 0 0-1.221.351 2.537 2.537 0 0 0-1.962-.235 2.556 2.556 0 0 0-1.541 1.236c-.36.751-.36 1.743-1.001 2.223-.841.601-2.102 0-3.003.471a1.344 1.344 0 0 0-.157 2.241c.238.18.529.276.828.273.65 0 1.231-.491 1.892-.491.089.267.11.553.06.831a.421.421 0 0 1-.081.21.52.52 0 0 1-.29.161c-1.521.47-3.193.51-4.584 1.291a9.723 9.723 0 0 0-1.712 1.352 1.244 1.244 0 0 0-.53.841c.017.269.127.524.31.721l1.862 2.634c.155.255.351.481.58.671.761.551 1.812.21 2.673-.15a.92.92 0 0 0 .37-.24c.106-.218.138-.464.09-.701-.1-1.422.921-2.634 1.882-3.676a20.55 20.55 0 0 1 2.512-2.433c.215-.19.473-.324.751-.391.276-.02.553.021.811.121.933.298 1.846.655 2.732 1.071.325.141.623.338.881.581a.995.995 0 0 1 .291 1.001c-.091.351-.411.721-.201 1.002.131.128.307.2.491.2.307.065.624.065.931 0a1.139 1.139 0 0 0 .647-.6 1.14 1.14 0 0 0 .033-.882c-.44-1.001-2.082-.921-2.712-1.843-.19-.28-.22-.741.07-.901a.641.641 0 0 1 .33-.07 3.723 3.723 0 0 1 1.782.581c.142.076.273.17.39.28.128.151.232.32.31.501a11.381 11.381 0 0 0 2.583 3.455 3.338 3.338 0 0 0 1.792 1.001c.41 0 .66-.631.52-1.001-.08-.231-.25-.551 0-.671a.276.276 0 0 1 .2 0c.521.07.791.651 1.261.901.471.25 1.252 0 1.892.08a.41.41 0 0 1 .22.07.412.412 0 0 1 .1.171l.571 1.321a.998.998 0 0 0 .21.381c.138.119.303.201.481.24.62.17 1.281.16 1.871.381a4.182 4.182 0 0 1 2.142 2.573 2.55 2.55 0 0 0-1.191 2.173c.028.815.352 1.591.911 2.183a.989.989 0 0 0 .391.301c.196.055.404.055.6 0l1.431-.321a.612.612 0 0 1 .401 0 .595.595 0 0 1 .25.371c.172.557.24 1.141.2 1.722 0 .231-.066.457-.19.651a1.458 1.458 0 0 1-1.001.431c-3.663.434-7.333.788-11.01 1.061-1.001-.62-1.812-1.301-2.853-1.932a2.424 2.424 0 0 0-.771-.341 2.695 2.695 0 0 0-1.111.16c-2.282.601-4.714.191-7.006.591a2.088 2.088 0 0 0-1.001.361c-.781.651-.4 1.942-.831 2.864-.711 1.522-3.203 1.342-4.004 2.794-.35.87-.35 1.843 0 2.713.181.641.351 1.292.521 1.933-.461 1.282-1.111 2.754-1.481 4.066-.079.207-.1.432-.061.651.08.225.231.419.431.551a5.016 5.016 0 0 0 1.922.901c.366.051.724.156 1.061.31.73.401.93 1.352 1.441 2.003a3.346 3.346 0 0 0 2.282 1.152c.874.061 1.752.007 2.613-.161l4.344-.65a2.55 2.55 0 0 1 1.531.08c.341.186.617.473.791.821.67 1.232.52 2.724.73 4.116.261 1.782 1.121 3.434 1.412 5.217.29 1.782-1.482 3.715-2.112 5.387a4.34 4.34 0 0 0-.381 1.492c.039.577.185 1.14.431 1.663.59 1.462 1.181 2.934 1.761 4.396.066.213.179.408.331.571.186.148.406.248.64.29a12.49 12.49 0 0 0 2.122.331c.188.026.379-.002.551-.08.168-.119.3-.282.38-.471a34.522 34.522 0 0 1 5.816-7.881 6.318 6.318 0 0 0 1.551-2.003 6.184 6.184 0 0 0 .3-1.542c.181-1.803.361-3.595.551-5.398.19-1.802 2.312-3.394 3.503-4.897.941-1.181 2.002-2.403 2.122-3.905.12-1.502-1.001-3.164-.841-4.797l-2.412-2.003c-1.001-.871-2.132-1.862-2.312-3.204a5.534 5.534 0 0 1 .17-1.762l.661-3.305c.436.097.832.328 1.131.661l2.512 2.283c.13.1.233.231.3.381a.857.857 0 0 1 0 .53c-.32 1.142-1.171 2.233-.86 3.365.334.79.936 1.436 1.701 1.823.273.21.599.342.941.38.324-.032.632-.154.891-.35a12.525 12.525 0 0 0 3.403-3.365c.248-.323.441-.685.571-1.072.36-1.211-.261-2.573.15-3.765.18-1.051 1.011-1.812.7-2.724zM236.312 195.334a1.582 1.582 0 0 0-1.001.721 1.994 1.994 0 0 1-1.551.921l-1.532.23a1.395 1.395 0 0 0-.45.131 1.003 1.003 0 0 0-.47.801v1.001c-.1 1.642-1.692 2.784-2.212 4.336a.691.691 0 0 0-.05.351.767.767 0 0 0 .24.39c.146.206.364.349.61.401.141.002.281-.025.411-.08l1.241-.431a6.164 6.164 0 0 0 1.601-.751 3.008 3.008 0 0 0 1.181-2.003 9.848 9.848 0 0 1 .181-2.253 4.426 4.426 0 0 1 1.111-1.412c.25-.29 2.102-2.503.69-2.353z" fill="#E99D9D"/>
    <path d="M181.811 157.612a1.546 1.546 0 0 0-.4-.22 4.366 4.366 0 0 0-.611-.211 1.233 1.233 0 0 1-.67-.49 1.239 1.239 0 0 0-.411-.381 1.049 1.049 0 0 0-1.291.301 1.103 1.103 0 0 0-.11.3c-.05.207-.08.418-.09.631a.528.528 0 0 0 0 .25c.033.087.092.16.17.21.288.214.643.317 1.001.291a8.09 8.09 0 0 1 1.101 0 .543.543 0 0 1 .22.06c.061.045.118.095.17.15a.606.606 0 0 0 .541.08c.175-.062.34-.15.49-.26a.32.32 0 0 0 .12-.14.187.187 0 0 0 0-.11.898.898 0 0 0-.23-.461z" fill="#E99D9D"/>
    <g opacity=".2" fill="#fff">
        <path d="M140.864 166.193a36.205 36.205 0 0 0 1.572 5.748c.57 1.913 1.381 4.446.49 6.229a8.5 8.5 0 0 0-.89 2.203 2.85 2.85 0 0 0 .39 2.233c.51.691 1.391 1.001 2.002 1.662 1.111 1.212.871 3.104 1.321 4.687a5.29 5.29 0 0 0 3.293 3.434c.671.241 1.652.181 1.802-.52.15-.701-.441-1.002-.921-1.392a11.648 11.648 0 0 1-2.933-3.135 1.675 1.675 0 0 1-.32-.811.609.609 0 0 1 .48-.641c.791.251 1.001 1.252 1.452 1.923a2.363 2.363 0 0 0 2.772.821c.179-.089.367-.159.561-.21.235-.025.473-.005.7.06 1.573.226 3.069.823 4.365 1.742a14.92 14.92 0 0 1 2.372 3.055 5.005 5.005 0 0 0 3.003 2.283 11.292 11.292 0 0 0 3.213-.331 6.716 6.716 0 0 1 3.833.741 5.869 5.869 0 0 0-1.501 5.388c.14.601.39 1.172.48 1.783.047.963.003 1.928-.13 2.884a3.011 3.011 0 0 0 1.001 2.603c.871.631 2.302.541 2.773 1.512.17.341.16.741.3 1.092a2.485 2.485 0 0 0 2.352 1.242 6.397 6.397 0 0 1 2.773.36c1.291.691 1.601 2.353 2.232 3.675.368.76.881 1.441 1.511 2.003.761.681 1.722 1.252 2.052 2.213a6.44 6.44 0 0 0 .46 1.652c.431.671 1.412.872 1.752 1.603.101.326.168.661.2 1.001a2.928 2.928 0 0 0 1.932 2.003c.927.28 1.895.402 2.863.36h3.003c.57 0 1.261-.06 1.511-.58a1.115 1.115 0 0 0-.651-1.352 7.86 7.86 0 0 0-1.601-.431 3.558 3.558 0 0 1-2.462-2.604 11.858 11.858 0 0 0-.221-1.181 7.708 7.708 0 0 0-.76-1.482 6.842 6.842 0 0 1-.731-4.507c.14-.801.44-1.582.51-2.403a8.778 8.778 0 0 0-.61-3.455 1.557 1.557 0 0 1-.1-.821c.138-.32.363-.594.65-.791 1.562-1.392.811-3.755.081-5.718-.281-.761.22-1.572.64-2.273.42-.701.771-1.653.24-2.273a1.893 1.893 0 0 0-1.551-.481c-.8.021-1.593.159-2.352.41-1.001.321-2.002.822-2.943.481a5.003 5.003 0 0 1-1.822-1.682 2.094 2.094 0 0 0-2.232-.811c-.33.13-.61.41-1.001.44a1.27 1.27 0 0 1-1.001-.621 2.562 2.562 0 0 0-.881-.881c-.84-.38-1.871.451-2.712.07a3.995 3.995 0 0 1-.941-.861 5 5 0 0 0-3.073-.901 3.644 3.644 0 0 1-2.863-1.673 8.18 8.18 0 0 0 .231-1.542 1.54 1.54 0 0 0-.229-.631 1.538 1.538 0 0 0-.474-.476 1.536 1.536 0 0 0-1.299-.174.771.771 0 0 0-.381.25c-.37.471.171 1.141.081 1.732-.091.591-1.001.932-1.692 1.002a2.612 2.612 0 0 1-1.181-.161 2.717 2.717 0 0 1-1.001-.891 9.38 9.38 0 0 1-1.371-2.163 3.077 3.077 0 0 1 0-2.493 1.879 1.879 0 0 1 2.122-1.002c.34.1.71.321 1.001.141.29-.181.22-.882.35-1.342.2-.721 1.231-.852 1.892-.511.604.435 1.176.914 1.711 1.432.462.268.895.583 1.291.941.291.331.511.791.941.871.431.081.901-.42.921-.911a2.716 2.716 0 0 0-.49-1.372c-1.111-2.003-2.072-4.226-1.582-6.439.15-.595.354-1.175.611-1.732a7.83 7.83 0 0 1 2.492-3.615c.479-.265.934-.57 1.361-.912a2.58 2.58 0 0 0 .581-1.662 5.99 5.99 0 0 0 3.003 0c.424-.082.81-.3 1.101-.621.174-.243.271-.532.28-.831a2.252 2.252 0 0 0-1.651-2.263c-.521-.13-1.182-.11-1.482-.561a.942.942 0 0 1 0-1.001c.206-.302.495-.538.831-.681a3.365 3.365 0 0 1 2.252-.261 2.59 2.59 0 0 1 1.732 1.422c.3.671.31 1.533.88 2.003a1.498 1.498 0 0 0 1.432.17 3.444 3.444 0 0 0 1.221-.851 2.092 2.092 0 0 0 .781-1.572 1.592 1.592 0 0 0-.751-1.101 6.975 6.975 0 0 0-1.231-.601 9.007 9.007 0 0 1-3.183-2.364c-.561-.65-1.001-1.372-1.602-2.002a5.464 5.464 0 0 0-2.662-1.643 3.718 3.718 0 0 0-3.003.521 1.715 1.715 0 0 1-.57.33c-.531.131-1.001-.37-1.402-.71-1.001-.782-3.163-1.122-3.663 0-.29.66.13 1.401.28 2.112a3.72 3.72 0 0 1-1.221 3.295 1.458 1.458 0 0 0-.33.411c-.211.54.43 1.001.7 1.512a1.25 1.25 0 0 1-1.871 1.582c-.861-.661-.621-2.143-1.432-2.854-.55-.481-1.391-.431-2.002-.771a2.951 2.951 0 0 1-1.261-2.504 5.01 5.01 0 0 1 .611-2.934 3.08 3.08 0 0 1 2.482-1.542c.511 0 1.001.13 1.541.1a1.19 1.19 0 0 0 1.182-.821 1.45 1.45 0 0 0-.05-.651 3.997 3.997 0 0 1 0-2.003 1.501 1.501 0 0 1 1.531-1.081 1.417 1.417 0 0 1 1.081 1.242 2.95 2.95 0 0 1-.38 1.702c-.101.17-.168.356-.201.551a.928.928 0 0 0 .461.791c.281.156.591.255.911.29a4.665 4.665 0 0 0 3.593-.47c.214-.146.381-.352.481-.591.075-.328.098-.666.07-1.002.05-.921.76-1.682 1.001-2.563a2.833 2.833 0 0 0-2.663-3.655c-1.221 0-2.352.751-3.573.671a1.46 1.46 0 0 1-.901-.331 3.33 3.33 0 0 1-.591-1.001c-.18-.331-.52-.661-.891-.591-.37.07-.56.431-.71.761a5.37 5.37 0 0 0-.481 1.322c-.16.901.15 1.842 0 2.744-.09.41-.41.871-.82.771a.74.74 0 0 1-.411-.311 1.78 1.78 0 0 1-.36-1.201c0-.661.41-1.412 0-1.923a1.074 1.074 0 0 0-.365-.22 1.073 1.073 0 0 0-1.167.32 3.426 3.426 0 0 0-.73 1.662 1.368 1.368 0 0 0-.751-.65.675.675 0 0 1-.31-.141.775.775 0 0 1-.13-.46 1.367 1.367 0 0 0-1.181-1.082 2.398 2.398 0 0 0-1.967.851 2.404 2.404 0 0 0-.506 2.083c.26.681 1.001 1.242.841 1.953a1.154 1.154 0 0 0-1.034.106 1.136 1.136 0 0 0-.37.385c-.092.155-.146.33-.157.51a3.044 3.044 0 0 1-2.513-1.402 5.008 5.008 0 0 0-2.272-1.912c-.651-.18-1.371 0-2.002-.19a59.86 59.86 0 0 0-4.364 8.011c-.11.681-.21 1.362-.31 2.003a24.422 24.422 0 0 0-.421 6.619zM185.125 140.155a1.832 1.832 0 0 1-.65-1.442c.018-.547.071-1.092.16-1.632a6.55 6.55 0 0 0-.751-3.785 3.005 3.005 0 0 0-1.101-1.232 3.73 3.73 0 0 0-1.822-.32c-3.153 0-6.326.56-9.438.06a18.266 18.266 0 0 0-2.743-.381c-2.082 0-4.885 1.302-5.505 3.485a1.851 1.851 0 0 0 .811 2.203c1.441.921 2.172-.16 3.353-.801s2.652-.05 3.913-.461c.267-.119.551-.197.841-.23.721 0 1.151.881 1.051 1.602a9.094 9.094 0 0 1-.811 2.003 1.785 1.785 0 0 0 .231 2.003c.13.12.3.22.35.38.1.341-.33.551-.641.721a1.884 1.884 0 0 0-.82 2.324c.31.721 1.001 1.171 1.391 1.872.189.679.413 1.347.67 2.003a3.522 3.522 0 0 0 2.733 1.192 2.677 2.677 0 0 0 1.151 1.872 1.997 1.997 0 0 0 2.262-.46 4.214 4.214 0 0 0 1.001-2.203c.088-.62.232-1.23.431-1.823a5.095 5.095 0 0 1 3.002-2.493 6.765 6.765 0 0 0 2.453-1.272 1.72 1.72 0 0 0 .12-2.454c-.451-.39-1.151-.37-1.642-.731zM241.684 168.76a2.34 2.34 0 0 0-.421-.621c-.37-.441-.891-.921-1.441-.751-.551.17-.711 1.121-.751 1.822a5.054 5.054 0 0 1-.911 2.574l-1.471-.25c-.721-1.332-.2-3.004.32-4.426l2.192-5.929a7.334 7.334 0 0 0 .501-1.892 6.843 6.843 0 0 0-.451-2.524 31.999 31.999 0 0 0 1.472-7.791 7.518 7.518 0 0 0-.11-2.003 9.059 9.059 0 0 0-.931-2.223l-1.211-2.263a2.242 2.242 0 0 0-.581-.801 2.756 2.756 0 0 0-.711-.341 6.91 6.91 0 0 1-2.902-2.163c-1.482-1.872-2.373-4.125-4.314-5.517a17.94 17.94 0 0 0-5.145-2.263 5.442 5.442 0 0 0-2.312-.391 6.667 6.667 0 0 0-2.052.761 12.402 12.402 0 0 1-5.005 1.102 1.141 1.141 0 0 0-.911.28.813.813 0 0 0 .26 1.071c.321.251.731.371 1.071.611-.32.761-1.841.511-2.172 1.262-.1.22-.08.501-.25.681a.59.59 0 0 1-.41.14c-.741 0-1.261-.721-1.582-1.392a3.238 3.238 0 0 0-1.281-1.752 1.434 1.434 0 0 0-1.361.1c-.18.12-.33.28-.511.391a2.186 2.186 0 0 1-.84.21c-.857.107-1.72.157-2.583.15a.428.428 0 0 0-.23 0 .409.409 0 0 0-.12.2c-.28.862-.481 1.746-.601 2.644a3.622 3.622 0 0 1-.68 2.053 1.099 1.099 0 0 0-.231.29.696.696 0 0 0 0 .321 1.744 1.744 0 0 0 1.001 1.282c.891.38 1.952 0 2.883.25.39.12.801.37 1.181.21a.872.872 0 0 0 .431-.921 5.761 5.761 0 0 0-.341-1.001 3.825 3.825 0 0 1 .381-2.844 1.8 1.8 0 0 0 .83 1.261c.521.211 1.142-.09 1.642.14.5.231.691 1.142 1.151 1.663.145.129.276.273.39.43a1.006 1.006 0 0 1-.08 1.002c-.204.28-.451.526-.73.731-.411.35-.811.711-1.181 1.091a3.527 3.527 0 0 1-.711.631 1.001 1.001 0 0 1-.901.15 6.28 6.28 0 0 1-.661-.38.999.999 0 0 0-1.221.35 2.54 2.54 0 0 0-1.961-.234 2.55 2.55 0 0 0-1.542 1.236c-.36.751-.36 1.742-1.001 2.223-.841.601-2.102 0-3.003.471a1.338 1.338 0 0 0-.642 1.517 1.344 1.344 0 0 0 1.313.996c.65 0 1.231-.491 1.892-.491.089.268.11.554.06.832a.423.423 0 0 1-.08.21.518.518 0 0 1-.291.16c-1.521.471-3.193.511-4.584 1.292a9.713 9.713 0 0 0-1.712 1.352 1.225 1.225 0 0 0-.53.841c.017.269.127.523.31.721l1.862 2.634c.155.254.351.481.581.671.76.55 1.811.21 2.672-.151a.902.902 0 0 0 .37-.24c.107-.217.138-.464.091-.701-.101-1.422.92-2.634 1.881-3.675a20.559 20.559 0 0 1 2.513-2.433c.214-.19.472-.324.75-.391.276-.02.553.021.811.12.933.298 1.846.656 2.733 1.072.325.141.623.337.88.58a1.005 1.005 0 0 1 .291 1.002c-.09.35-.411.721-.2 1.001a.698.698 0 0 0 .49.201c.307.065.624.065.931 0a1.158 1.158 0 0 0 .752-1.038 1.146 1.146 0 0 0-.072-.445c-.44-1.001-2.081-.921-2.712-1.842-.19-.28-.22-.741.07-.901a.631.631 0 0 1 .33-.07 3.721 3.721 0 0 1 1.782.58c.142.076.273.171.39.281.128.15.232.319.311.5a11.362 11.362 0 0 0 2.582 3.455 3.343 3.343 0 0 0 1.792 1.002c.41 0 .66-.631.52-1.002-.08-.23-.25-.55 0-.671a.287.287 0 0 1 .2 0c.521.07.791.651 1.262.902.47.25 1.251 0 1.891.08a.407.407 0 0 1 .221.07.43.43 0 0 1 .1.17l.57 1.322a1 1 0 0 0 .21.38c.138.119.303.202.481.241.62.17 1.281.16 1.872.38a4.192 4.192 0 0 1 2.142 2.574 2.544 2.544 0 0 0-1.192 2.173c.028.814.352 1.591.911 2.183.103.131.238.234.391.3.196.055.404.055.6 0l1.432-.32a.61.61 0 0 1 .4 0 .591.591 0 0 1 .25.37 4.74 4.74 0 0 1 .2 1.723c0 .231-.066.456-.19.651a1.461 1.461 0 0 1-1.001.43c-3.663.434-7.333.788-11.01 1.062-1.001-.621-1.812-1.302-2.853-1.933a2.426 2.426 0 0 0-.77-.34 2.674 2.674 0 0 0-1.111.16c-2.283.601-4.715.19-7.007.591a2.077 2.077 0 0 0-1.001.36c-.781.651-.4 1.943-.831 2.864-.71 1.522-3.203 1.342-4.003 2.794a3.63 3.63 0 0 0 0 2.714c.18.641.35 1.292.52 1.933-.46 1.282-1.111 2.754-1.481 4.065-.079.208-.1.433-.06.651.079.226.231.419.43.551a4.987 4.987 0 0 0 1.922.901c.367.052.724.156 1.061.311.73.4.931 1.352 1.441 2.003a3.34 3.34 0 0 0 2.282 1.151 10 10 0 0 0 2.613-.16l4.344-.651a2.566 2.566 0 0 1 1.531.08c.341.187.617.473.791.821.671 1.232.52 2.724.731 4.116.26 1.783 1.121 3.435 1.411 5.217.29 1.783-1.481 3.716-2.112 5.388a4.31 4.31 0 0 0-.38 1.492c.038.576.184 1.14.43 1.662a805.471 805.471 0 0 1 1.762 4.396c.065.213.178.408.33.571.186.149.406.248.641.291.696.171 1.406.281 2.122.33a1 1 0 0 0 .55-.08c.168-.118.3-.281.38-.471a34.552 34.552 0 0 1 5.816-7.881 6.311 6.311 0 0 0 1.551-2.002c.165-.5.266-1.018.301-1.543.18-1.802.36-3.595.55-5.397.19-1.803 2.312-3.395 3.503-4.897.941-1.182 2.002-2.403 2.122-3.905.12-1.503-1.001-3.165-.84-4.797l-2.413-2.003c-1.001-.871-2.132-1.863-2.312-3.204a5.543 5.543 0 0 1 .17-1.763l.661-3.305a2.16 2.16 0 0 1 1.131.661l2.512 2.284c.13.1.233.231.301.38a.875.875 0 0 1 0 .531c-.321 1.141-1.171 2.233-.861 3.365a3.629 3.629 0 0 0 1.701 1.822c.273.211.599.342.941.381.324-.033.632-.154.891-.351a12.497 12.497 0 0 0 3.403-3.365c.248-.323.441-.685.571-1.071.36-1.212-.26-2.574.15-3.765.18-1.052 1.011-1.813.701-2.724zM236.314 195.335a1.582 1.582 0 0 0-1.001.721 1.994 1.994 0 0 1-1.551.921l-1.532.23a1.395 1.395 0 0 0-.45.131 1.003 1.003 0 0 0-.47.801v1.001c-.101 1.642-1.692 2.784-2.212 4.336a.703.703 0 0 0-.051.351.775.775 0 0 0 .241.39c.146.206.364.349.61.401.141.002.281-.025.411-.08l1.241-.431a6.164 6.164 0 0 0 1.601-.751 2.999 2.999 0 0 0 1.181-2.003 9.848 9.848 0 0 1 .181-2.253 4.426 4.426 0 0 1 1.111-1.412c.25-.29 2.102-2.504.69-2.353z"/>
        <path d="M181.813 157.611a1.58 1.58 0 0 0-.4-.221 4.361 4.361 0 0 0-.611-.21 1.23 1.23 0 0 1-.67-.491 1.246 1.246 0 0 0-.411-.38 1.049 1.049 0 0 0-1.291.3 1.077 1.077 0 0 0-.11.301c-.05.207-.08.418-.09.631a.528.528 0 0 0 0 .25c.032.087.092.16.17.21.288.214.643.317 1.001.291a8.09 8.09 0 0 1 1.101 0 .543.543 0 0 1 .22.06c.061.044.118.095.17.15a.619.619 0 0 0 .541.08c.175-.063.34-.15.49-.26a.317.317 0 0 0 .12-.141.187.187 0 0 0 0-.11.899.899 0 0 0-.23-.46z"/>
    </g>
    <path opacity=".22" d="M147.039 163.14a65.002 65.002 0 0 1 2.833-19.026 59.56 59.56 0 0 0 6.889 82.788 59.498 59.498 0 0 0 82.905-4.679 65.101 65.101 0 0 1-62.51-4.126 65.142 65.142 0 0 1-22.096-23.618 65.188 65.188 0 0 1-8.021-31.339z" fill="#000"/>
    <path d="M119.593 92.16c0-14.95-10.46-33.166-23.472-40.677-6.947-4.005-13.192-4.155-17.526-1.151l-5.125 3.084c4.244-2.243 10.01-1.813 16.355 1.853 13.012 7.52 23.522 25.726 23.472 40.677 0 7.4-2.613 12.607-6.806 15.081l5.805-3.525c.427-.218.839-.466 1.231-.741 3.774-2.674 6.046-7.681 6.066-14.6z" fill="#E0E0E0"/>
    <path opacity=".1" d="M119.593 92.16c0-14.95-10.46-33.166-23.472-40.677-6.947-4.005-13.192-4.155-17.526-1.151l-5.125 3.084c4.244-2.243 10.01-1.813 16.355 1.853 13.012 7.52 23.522 25.726 23.472 40.677 0 7.4-2.613 12.607-6.806 15.081l5.805-3.525c.427-.218.839-.466 1.231-.741 3.774-2.674 6.046-7.681 6.066-14.6z" fill="#000"/>
    <path d="M113.297 95.936c.05-14.951-10.46-33.157-23.472-40.677-6.346-3.666-12.111-4.096-16.355-1.853-.398.205-.783.436-1.151.691-3.784 2.624-6.096 7.65-6.116 14.62 0 14.951 10.47 33.177 23.482 40.687 6.576 3.806 12.522 4.136 16.816 1.603 4.294-2.534 6.776-7.671 6.796-15.072z" fill="#E0E0E0"/>
    <path d="M92.989 105.9c-12.292-7.1-22.261-24.374-22.221-38.504 0-5.378 1.531-9.553 4.274-11.937-.13.06-.26.1-.39.17-.298.156-.585.33-.861.521l-.13.08c-3.174 2.264-4.925 6.7-4.945 12.508 0 14.13 9.93 31.394 22.23 38.504a19.21 19.21 0 0 0 9.299 2.884 9.639 9.639 0 0 0 5.005-1.282 8.698 8.698 0 0 0 1.351-1.001 9.862 9.862 0 0 1-4.284.941 19.13 19.13 0 0 1-9.328-2.884z" fill="#E0E0E0"/>
    <path opacity=".2" d="M92.989 105.9c-12.292-7.1-22.261-24.374-22.221-38.504 0-5.378 1.531-9.553 4.274-11.937-.13.06-.26.1-.39.17-.298.156-.585.33-.861.521l-.13.08c-3.174 2.264-4.925 6.7-4.945 12.508 0 14.13 9.93 31.394 22.23 38.504a19.21 19.21 0 0 0 9.299 2.884 9.639 9.639 0 0 0 5.005-1.282 8.698 8.698 0 0 0 1.351-1.001 9.862 9.862 0 0 1-4.284.941 19.13 19.13 0 0 1-9.328-2.884z" fill="#000"/>
    <path opacity=".2" d="M88.575 57.441a19.192 19.192 0 0 0-9.31-2.894 9.936 9.936 0 0 0-4.233.912c-2.743 2.383-4.264 6.559-4.274 11.936 0 14.13 9.93 31.404 22.22 38.504a19.124 19.124 0 0 0 9.299 2.894 9.834 9.834 0 0 0 4.284-.941c2.713-2.383 4.204-6.539 4.224-11.917.04-14.13-9.929-31.394-22.21-38.494z" fill="red"/>
    <path d="m99.523 91.898-5.325-4.836a4.067 4.067 0 0 1-1.321-2.774v-.821c3.353.49 5.755-1.823 5.775-6.169 0-5.598-3.924-12.427-8.798-15.241-4.875-2.814-8.838-.551-8.848 5.007 0 4.346 2.362 9.423 5.705 12.808v.81c0 .932-.55 1.453-1.331 1.252l-5.335-1.331c-2.653-.651-4.665.71-5.185 3.525l-.06.33c4.004 8.903 10.66 17.024 18.177 21.4a19.124 19.124 0 0 0 9.298 2.894 10.12 10.12 0 0 0 3.404-.581l-1.001-6.819a16.845 16.845 0 0 0-5.155-9.454z" fill="#4883F8"/>
    <path d="M246.592 329.523c.04-14.961-10.47-33.157-23.482-40.677-6.946-4.006-13.202-4.156-17.526-1.152l-5.125 3.084c4.244-2.243 10.009-1.812 16.355 1.853 13.012 7.52 23.512 25.726 23.472 40.677 0 7.4-2.622 12.607-6.816 15.081l5.805-3.515c.424-.227.835-.478 1.231-.751 3.784-2.674 6.066-7.681 6.086-14.6z" fill="#E0E0E0"/>
    <path opacity=".1" d="M246.592 329.523c.04-14.961-10.47-33.157-23.482-40.677-6.946-4.006-13.202-4.156-17.526-1.152l-5.125 3.084c4.244-2.243 10.009-1.812 16.355 1.853 13.012 7.52 23.512 25.726 23.472 40.677 0 7.4-2.622 12.607-6.816 15.081l5.805-3.515c.424-.227.835-.478 1.231-.751 3.784-2.674 6.066-7.681 6.086-14.6z" fill="#000"/>
    <path d="M240.295 333.297c0-14.951-10.46-33.157-23.472-40.677-6.346-3.665-12.111-4.096-16.355-1.853-.402.205-.789.436-1.161.691-3.774 2.624-6.086 7.651-6.106 14.621 0 14.951 10.47 33.176 23.482 40.687 6.576 3.805 12.522 4.135 16.806 1.602 4.284-2.534 6.786-7.671 6.806-15.071z" fill="#E0E0E0"/>
    <path d="M219.977 343.262c-12.292-7.1-22.261-24.374-22.221-38.504 0-5.377 1.531-9.553 4.274-11.936l-.39.17c-.3.158-.59.332-.871.521l-.12.08c-3.173 2.263-4.925 6.699-4.945 12.507 0 14.13 9.929 31.404 22.221 38.504a19.279 19.279 0 0 0 9.299 2.884 9.733 9.733 0 0 0 5.004-1.272 9.24 9.24 0 0 0 1.351-1.001 9.834 9.834 0 0 1-4.284.941 19.129 19.129 0 0 1-9.318-2.894z" fill="#E0E0E0"/>
    <path opacity=".2" d="M219.977 343.262c-12.292-7.1-22.261-24.374-22.221-38.504 0-5.377 1.531-9.553 4.274-11.936l-.39.17c-.3.158-.59.332-.871.521l-.12.08c-3.173 2.263-4.925 6.699-4.945 12.507 0 14.13 9.929 31.404 22.221 38.504a19.279 19.279 0 0 0 9.299 2.884 9.733 9.733 0 0 0 5.004-1.272 9.24 9.24 0 0 0 1.351-1.001 9.834 9.834 0 0 1-4.284.941 19.129 19.129 0 0 1-9.318-2.894z" fill="#000"/>
    <path opacity=".2" d="M215.561 294.803a19.121 19.121 0 0 0-9.298-2.894 9.916 9.916 0 0 0-4.234.911c-2.743 2.383-4.264 6.559-4.274 11.937 0 14.13 9.929 31.404 22.221 38.504a19.143 19.143 0 0 0 9.298 2.894 9.849 9.849 0 0 0 4.284-.942c2.713-2.383 4.204-6.539 4.224-11.916.04-14.13-9.929-31.394-22.221-38.494z" fill="red"/>
    <path d="m226.522 329.262-5.335-4.837a4.012 4.012 0 0 1-1.311-2.774v-.811c3.353.481 5.755-1.833 5.765-6.179 0-5.598-3.924-12.427-8.788-15.241-4.865-2.814-8.838-.551-8.848 5.007 0 4.346 2.362 9.423 5.705 12.808v.811c0 .931-.551 1.452-1.331 1.252l-5.345-1.332c-2.643-.651-4.655.711-5.175 3.535l-.06.32c4.004 8.903 10.65 17.024 18.177 21.4a19.121 19.121 0 0 0 9.298 2.894c1.16.003 2.311-.193 3.404-.581l-1.001-6.819a16.91 16.91 0 0 0-5.155-9.453z" fill="#4883F8"/>
    <path d="M316.748 289.627c0-13.158-9.209-29.19-20.659-35.8-6.116-3.535-11.621-3.665-15.425-1.001l-4.504 2.654c3.734-2.003 8.808-1.593 14.394 1.632 11.45 6.609 20.699 22.642 20.669 35.8 0 6.509-2.312 11.096-6.006 13.279l5.105-3.095a8.982 8.982 0 0 0 1.081-.651h.05c3.273-2.323 5.275-6.729 5.295-12.818z" fill="#E0E0E0"/>
    <path opacity=".1" d="M316.748 289.627c0-13.158-9.209-29.19-20.659-35.8-6.116-3.535-11.621-3.665-15.425-1.001l-4.504 2.654c3.734-2.003 8.808-1.593 14.394 1.632 11.45 6.609 20.699 22.642 20.669 35.8 0 6.509-2.312 11.096-6.006 13.279l5.105-3.095a8.982 8.982 0 0 0 1.081-.651h.05c3.273-2.323 5.275-6.729 5.295-12.818z" fill="#000"/>
    <path d="M311.193 292.952c0-13.159-9.219-29.191-20.67-35.8-5.585-3.225-10.66-3.615-14.393-1.633a10.44 10.44 0 0 0-1.001.601c-3.323 2.313-5.355 6.74-5.375 12.868 0 13.169 9.219 29.211 20.669 35.82 5.786 3.345 11.01 3.635 14.794 1.412 3.784-2.223 5.976-6.759 5.976-13.268z" fill="#E0E0E0"/>
    <path d="M293.315 301.722c-10.82-6.249-19.588-21.46-19.558-33.888 0-4.736 1.351-8.411 3.763-10.514-.11.05-.23.09-.34.15a7.43 7.43 0 0 0-.761.46l-.11.071c-2.792 2.002-4.334 5.898-4.354 11.015 0 12.437 8.738 27.639 19.568 33.897a16.84 16.84 0 0 0 8.178 2.544 8.456 8.456 0 0 0 4.384-1.132 7.64 7.64 0 0 0 1.191-.871 8.72 8.72 0 0 1-3.773.821 16.888 16.888 0 0 1-8.188-2.553z" fill="#E0E0E0"/>
    <path opacity=".2" d="M293.315 301.722c-10.82-6.249-19.588-21.46-19.558-33.888 0-4.736 1.351-8.411 3.763-10.514-.11.05-.23.09-.34.15a7.43 7.43 0 0 0-.761.46l-.11.071c-2.792 2.002-4.334 5.898-4.354 11.015 0 12.437 8.738 27.639 19.568 33.897a16.84 16.84 0 0 0 8.178 2.544 8.456 8.456 0 0 0 4.384-1.132 7.64 7.64 0 0 0 1.191-.871 8.72 8.72 0 0 1-3.773.821 16.888 16.888 0 0 1-8.188-2.553z" fill="#000"/>
    <path opacity=".2" d="M289.441 259.063a16.895 16.895 0 0 0-8.187-2.544 8.766 8.766 0 0 0-3.734.801c-2.412 2.103-3.753 5.778-3.763 10.515 0 12.427 8.738 27.639 19.558 33.887a16.895 16.895 0 0 0 8.188 2.544 8.735 8.735 0 0 0 3.773-.821c2.392-2.103 3.704-5.758 3.714-10.495.04-12.437-8.738-27.629-19.549-33.887z" fill="red"/>
    <path d="m299.08 289.406-4.694-4.266a3.535 3.535 0 0 1-1.151-2.444v-.71c2.953.43 5.065-1.613 5.075-5.438 0-4.927-3.454-10.945-7.738-13.419-4.284-2.473-7.777-.481-7.797 4.446 0 3.826 2.082 8.292 5.005 11.266v.721c0 .821-.481 1.272-1.171 1.102l-4.675-1.152c-2.332-.571-4.103.621-4.564 3.104v.281c3.533 7.841 9.379 15.021 16.015 18.846a16.895 16.895 0 0 0 8.188 2.544 8.83 8.83 0 0 0 3.003-.511l-.891-6.008a14.873 14.873 0 0 0-4.605-8.362z" fill="#4883F8"/>
    <path d="M211.098 103.957c0-11.587-8.107-25.686-18.177-31.504-5.385-3.105-10.219-3.225-13.573-.902l-4.003 2.384c3.293-1.733 7.757-1.392 12.672 1.442 10.069 5.818 18.207 19.918 18.177 31.504 0 5.728-2.002 9.763-5.275 11.676l4.494-2.724c.33-.18.65-.37 1.001-.581 2.922-2.062 4.684-5.978 4.684-11.295z" fill="#E0E0E0"/>
    <path opacity=".1" d="M211.098 103.957c0-11.587-8.107-25.686-18.177-31.504-5.385-3.105-10.219-3.225-13.573-.902l-4.003 2.384c3.293-1.733 7.757-1.392 12.672 1.442 10.069 5.818 18.207 19.918 18.177 31.504 0 5.728-2.002 9.763-5.275 11.676l4.494-2.724c.33-.18.65-.37 1.001-.581 2.922-2.062 4.684-5.978 4.684-11.295z" fill="#000"/>
    <path d="M206.243 106.88c0-11.586-8.108-25.686-18.177-31.504-4.915-2.834-9.379-3.174-12.672-1.442a8.714 8.714 0 0 0-.891.541c-2.933 2.003-4.724 5.918-4.734 11.316 0 11.586 8.107 25.696 18.187 31.524 5.094 2.934 9.699 3.194 13.012 1.232 3.313-1.963 5.255-5.939 5.275-11.667z" fill="#E0E0E0"/>
    <path d="M190.499 114.591c-9.518-5.497-17.236-18.876-17.206-29.811 0-4.166 1.192-7.41 3.313-9.253-.1 0-.2.08-.3.14-.23.118-.454.248-.67.39l-.101.07c-2.452 1.753-3.813 5.188-3.823 9.684 0 10.945 7.687 24.324 17.206 29.822a14.872 14.872 0 0 0 7.207 2.233 7.523 7.523 0 0 0 3.853-1.002 6.504 6.504 0 0 0 1.001-.771 7.57 7.57 0 0 1-3.313.721 14.807 14.807 0 0 1-7.167-2.223z" fill="#E0E0E0"/>
    <path opacity=".2" d="M190.499 114.591c-9.518-5.497-17.236-18.876-17.206-29.811 0-4.166 1.192-7.41 3.313-9.253-.1 0-.2.08-.3.14-.23.118-.454.248-.67.39l-.101.07c-2.452 1.753-3.813 5.188-3.823 9.684 0 10.945 7.687 24.324 17.206 29.822a14.872 14.872 0 0 0 7.207 2.233 7.523 7.523 0 0 0 3.853-1.002 6.504 6.504 0 0 0 1.001-.771 7.57 7.57 0 0 1-3.313.721 14.807 14.807 0 0 1-7.167-2.223z" fill="#000"/>
    <path opacity=".2" d="M187.075 77.07a14.747 14.747 0 0 0-7.197-2.243 7.656 7.656 0 0 0-3.283.7c-2.122 1.843-3.303 5.088-3.313 9.254 0 10.935 7.687 24.314 17.206 29.812a14.821 14.821 0 0 0 7.207 2.243 7.598 7.598 0 0 0 3.313-.721c2.112-1.853 3.263-5.067 3.273-9.243.04-10.936-7.677-24.304-17.206-29.802z" fill="red"/>
    <path d="m195.574 103.757-4.124-3.746a3.187 3.187 0 0 1-1.001-2.153v-.6c2.593.38 4.455-1.422 4.465-4.787a15.028 15.028 0 0 0-6.837-11.837c-3.773-2.173-6.846-.42-6.856 3.916a15.133 15.133 0 0 0 4.424 9.914v.64c0 .712-.431 1.112-1.001 1.002l-4.144-1.001c-2.052-.501-3.603.55-4.004 2.733l-.05.25c3.113 6.9 8.258 13.209 14.073 16.574a14.814 14.814 0 0 0 7.207 2.243c.9.004 1.794-.149 2.643-.451l-.791-5.277a13.018 13.018 0 0 0-4.004-7.42z" fill="#4883F8"/>
    <path d="M306.527 207.011c0-11.587-8.107-25.686-18.187-31.505-5.375-3.114-10.219-3.224-13.573-.901l-4.003 2.384c3.283-1.733 7.747-1.402 12.662 1.442 10.079 5.818 18.217 19.917 18.186 31.504 0 5.728-2.001 9.763-5.284 11.676l4.494-2.724c.329-.169.647-.359.951-.571 2.972-2.073 4.734-5.898 4.754-11.305z" fill="#E0E0E0"/>
    <path opacity=".1" d="M306.527 207.011c0-11.587-8.107-25.686-18.187-31.505-5.375-3.114-10.219-3.224-13.573-.901l-4.003 2.384c3.283-1.733 7.747-1.402 12.662 1.442 10.079 5.818 18.217 19.917 18.186 31.504 0 5.728-2.001 9.763-5.284 11.676l4.494-2.724c.329-.169.647-.359.951-.571 2.972-2.073 4.734-5.898 4.754-11.305z" fill="#000"/>
    <path d="M301.653 209.935c0-11.586-8.108-25.686-18.187-31.504-4.915-2.844-9.379-3.175-12.662-1.442a8.14 8.14 0 0 0-.901.541c-2.923 2.002-4.714 5.928-4.724 11.325 0 11.587 8.107 25.696 18.187 31.515 5.084 2.944 9.699 3.204 13.012 1.241 3.313-1.962 5.255-5.948 5.275-11.676z" fill="#E0E0E0"/>
    <path d="M285.908 217.646c-9.519-5.498-17.236-18.876-17.206-29.822 0-4.166 1.191-7.4 3.313-9.243l-.31.13a6.568 6.568 0 0 0-.671.401l-.09.07c-2.462 1.753-3.814 5.187-3.834 9.684 0 10.945 7.698 24.314 17.216 29.821a14.836 14.836 0 0 0 7.197 2.234 7.482 7.482 0 0 0 3.864-1.002 6.98 6.98 0 0 0 1.001-.771 7.622 7.622 0 0 1-3.313.731 14.89 14.89 0 0 1-7.167-2.233z" fill="#E0E0E0"/>
    <path opacity=".2" d="M285.908 217.646c-9.519-5.498-17.236-18.876-17.206-29.822 0-4.166 1.191-7.4 3.313-9.243l-.31.13a6.568 6.568 0 0 0-.671.401l-.09.07c-2.462 1.753-3.814 5.187-3.834 9.684 0 10.945 7.698 24.314 17.216 29.821a14.836 14.836 0 0 0 7.197 2.234 7.482 7.482 0 0 0 3.864-1.002 6.98 6.98 0 0 0 1.001-.771 7.622 7.622 0 0 1-3.313.731 14.89 14.89 0 0 1-7.167-2.233z" fill="#000"/>
    <path opacity=".2" d="M282.495 180.113a14.837 14.837 0 0 0-7.207-2.233 7.61 7.61 0 0 0-3.273.701c-2.122 1.842-3.303 5.077-3.313 9.243 0 10.945 7.687 24.324 17.206 29.821a14.88 14.88 0 0 0 7.207 2.243 7.604 7.604 0 0 0 3.313-.731c2.102-1.842 3.263-5.067 3.273-9.233.03-10.935-7.687-24.314-17.206-29.811z" fill="red"/>
    <path d="m290.983 206.812-4.134-3.755a3.145 3.145 0 0 1-1.001-2.143v-.631c2.592.37 4.454-1.422 4.464-4.787a15.031 15.031 0 0 0-6.806-11.807c-3.784-2.183-6.847-.42-6.857 3.916a15.174 15.174 0 0 0 4.414 9.914v.631c0 .721-.42 1.121-1.001 1.001l-4.133-1.001c-2.052-.511-3.604.55-4.004 2.734v.25c3.113 6.9 8.248 13.208 14.073 16.573a14.89 14.89 0 0 0 7.207 2.243 7.715 7.715 0 0 0 2.632-.45l-.781-5.278a13.016 13.016 0 0 0-4.073-7.41z" fill="#4883F8"/>
    <path d="M155.376 283.017c0-11.576-8.107-25.686-18.177-31.504-5.375-3.105-10.219-3.225-13.572-.892l-4.004 2.384c3.293-1.743 7.757-1.402 12.672 1.432 10.079 5.828 18.217 19.928 18.177 31.504 0 5.728-2.002 9.764-5.275 11.686l4.494-2.724a7.916 7.916 0 0 0 1.001-.58c2.903-2.073 4.674-5.949 4.684-11.306z" fill="#E0E0E0"/>
    <path opacity=".1" d="M155.376 283.017c0-11.576-8.107-25.686-18.177-31.504-5.375-3.105-10.219-3.225-13.572-.892l-4.004 2.384c3.293-1.743 7.757-1.402 12.672 1.432 10.079 5.828 18.217 19.928 18.177 31.504 0 5.728-2.002 9.764-5.275 11.686l4.494-2.724a7.916 7.916 0 0 0 1.001-.58c2.903-2.073 4.674-5.949 4.684-11.306z" fill="#000"/>
    <path d="M150.502 285.941c0-11.577-8.097-25.676-18.177-31.504-4.914-2.834-9.378-3.175-12.671-1.432a7.14 7.14 0 0 0-.891.53c-2.923 2.003-4.715 5.929-4.735 11.326 0 11.576 8.118 25.696 18.187 31.514 5.095 2.944 9.699 3.195 13.012 1.242 3.314-1.953 5.265-5.948 5.275-11.676z" fill="#E0E0E0"/>
    <path d="M134.765 293.662c-9.529-5.498-17.246-18.877-17.216-29.822 0-4.166 1.191-7.4 3.313-9.253l-.3.14a5.69 5.69 0 0 0-.671.401l-.1.07c-2.452 1.742-3.813 5.177-3.823 9.674 0 10.945 7.687 24.324 17.206 29.821a14.797 14.797 0 0 0 7.207 2.243 7.432 7.432 0 0 0 3.853-1.001 7.076 7.076 0 0 0 1.051-.771 7.659 7.659 0 0 1-3.323.721 14.83 14.83 0 0 1-7.197-2.223z" fill="#E0E0E0"/>
    <path opacity=".2" d="M134.765 293.662c-9.529-5.498-17.246-18.877-17.216-29.822 0-4.166 1.191-7.4 3.313-9.253l-.3.14a5.69 5.69 0 0 0-.671.401l-.1.07c-2.452 1.742-3.813 5.177-3.823 9.674 0 10.945 7.687 24.324 17.206 29.821a14.797 14.797 0 0 0 7.207 2.243 7.432 7.432 0 0 0 3.853-1.001 7.076 7.076 0 0 0 1.051-.771 7.659 7.659 0 0 1-3.323.721 14.83 14.83 0 0 1-7.197-2.223z" fill="#000"/>
    <path opacity=".2" d="M131.355 256.13a14.917 14.917 0 0 0-7.207-2.244 7.808 7.808 0 0 0-3.283.701c-2.122 1.853-3.303 5.087-3.313 9.253 0 10.946 7.687 24.324 17.216 29.822a14.825 14.825 0 0 0 7.197 2.233 7.662 7.662 0 0 0 3.323-.721c2.102-1.852 3.253-5.067 3.273-9.233.03-10.945-7.687-24.314-17.206-29.811z" fill="red"/>
    <path d="m139.832 282.817-4.124-3.746a3.166 3.166 0 0 1-1.001-2.153v-.631c2.603.381 4.464-1.412 4.474-4.786a15.015 15.015 0 0 0-6.816-11.797c-3.774-2.183-6.846-.43-6.856 3.906.2 3.74 1.776 7.275 4.424 9.924v.63c0 .721-.421 1.122-1.001 1.002l-4.134-1.002c-2.002-.51-3.613.541-4.004 2.724l-.05.251c3.113 6.899 8.258 13.218 14.083 16.583a14.825 14.825 0 0 0 7.197 2.233c.9.007 1.794-.142 2.642-.441l-.79-5.287a13.023 13.023 0 0 0-4.044-7.41z" fill="#4883F8"/>
    <path d="M106.6 197.156c0-11.576-8.097-25.676-18.177-31.504-5.375-3.104-10.22-3.215-13.573-.891l-4.003 2.383c3.293-1.742 7.757-1.402 12.672 1.442 10.079 5.818 18.217 19.918 18.186 31.504 0 5.728-2.001 9.764-5.284 11.676l4.504-2.723a9.35 9.35 0 0 0 .951-.571c2.952-2.063 4.714-5.948 4.724-11.316z" fill="#E0E0E0"/>
    <path opacity=".1" d="M106.6 197.156c0-11.576-8.097-25.676-18.177-31.504-5.375-3.104-10.22-3.215-13.573-.891l-4.003 2.383c3.293-1.742 7.757-1.402 12.672 1.442 10.079 5.818 18.217 19.918 18.186 31.504 0 5.728-2.001 9.764-5.284 11.676l4.504-2.723a9.35 9.35 0 0 0 .951-.571c2.952-2.063 4.714-5.948 4.724-11.316z" fill="#000"/>
    <path d="M101.736 200.092c0-11.587-8.108-25.686-18.187-31.504-4.915-2.844-9.379-3.185-12.672-1.442-.3.16-.6.34-.89.53-2.923 2.003-4.715 5.929-4.735 11.326 0 11.586 8.118 25.696 18.187 31.514 5.095 2.944 9.709 3.195 13.012 1.242 3.303-1.953 5.265-5.938 5.285-11.666z" fill="#E0E0E0"/>
    <path d="M85.98 207.802c-9.519-5.497-17.246-18.876-17.216-29.822 0-4.165 1.191-7.4 3.323-9.242l-.31.13c-.231.12-.455.254-.67.4l-.09.07c-2.463 1.753-3.824 5.178-3.834 9.684 0 10.935 7.687 24.314 17.216 29.822a14.833 14.833 0 0 0 7.196 2.233 7.433 7.433 0 0 0 3.854-1.002 6.56 6.56 0 0 0 1.051-.771 7.665 7.665 0 0 1-3.323.731 14.846 14.846 0 0 1-7.197-2.233z" fill="#E0E0E0"/>
    <path opacity=".2" d="M85.98 207.802c-9.519-5.497-17.246-18.876-17.216-29.822 0-4.165 1.191-7.4 3.323-9.242l-.31.13c-.231.12-.455.254-.67.4l-.09.07c-2.463 1.753-3.824 5.178-3.834 9.684 0 10.935 7.687 24.314 17.216 29.822a14.833 14.833 0 0 0 7.196 2.233 7.433 7.433 0 0 0 3.854-1.002 6.56 6.56 0 0 0 1.051-.771 7.665 7.665 0 0 1-3.323.731 14.846 14.846 0 0 1-7.197-2.233z" fill="#000"/>
    <path opacity=".2" d="M82.578 170.268a14.862 14.862 0 0 0-7.207-2.233 7.577 7.577 0 0 0-3.272.701c-2.133 1.843-3.304 5.077-3.324 9.243 0 10.945 7.698 24.324 17.216 29.822a14.862 14.862 0 0 0 7.197 2.243 7.679 7.679 0 0 0 3.323-.731c2.102-1.853 3.263-5.067 3.273-9.233.03-10.936-7.687-24.314-17.206-29.812z" fill="red"/>
    <path d="m91.066 196.957-4.084-3.745a3.144 3.144 0 0 1-1-2.143v-.631c2.602.371 4.464-1.422 4.474-4.786a15.025 15.025 0 0 0-6.817-11.807c-3.773-2.183-6.836-.421-6.856 3.905a15.213 15.213 0 0 0 4.424 9.924v.631c0 .721-.42 1.122-1 1.002l-4.135-1.002c-2.052-.51-3.603.551-4.003 2.734l-.05.25c3.122 6.9 8.257 13.209 14.083 16.574a14.862 14.862 0 0 0 7.196 2.243 7.8 7.8 0 0 0 2.643-.451l-.78-5.287a13.09 13.09 0 0 0-4.095-7.411z" fill="#4883F8"/>
    <path d="M315.725 122.091c0-14.14-9.899-31.354-22.201-38.454-6.566-3.795-12.471-3.936-16.565-1.102l-4.805 2.915c4.004-2.123 9.469-1.713 15.475 1.752 12.301 7.11 22.231 24.324 22.19 38.464 0 7.01-2.472 11.917-6.446 14.26l5.486-3.325c.401-.208.789-.442 1.161-.701 3.533-2.533 5.685-7.26 5.705-13.809z" fill="#E0E0E0"/>
    <path opacity=".1" d="M315.725 122.091c0-14.14-9.899-31.354-22.201-38.454-6.566-3.795-12.471-3.936-16.565-1.102l-4.805 2.915c4.004-2.123 9.469-1.713 15.475 1.752 12.301 7.11 22.231 24.324 22.19 38.464 0 7.01-2.472 11.917-6.446 14.26l5.486-3.325c.401-.208.789-.442 1.161-.701 3.533-2.533 5.685-7.26 5.705-13.809z" fill="#000"/>
    <path d="M309.77 125.667c0-14.14-9.889-31.354-22.19-38.464-6.006-3.465-11.451-3.875-15.475-1.752-.375.197-.739.415-1.091.65-3.573 2.484-5.755 7.24-5.775 13.83-.09 14.15 9.919 31.374 22.191 38.484 6.215 3.585 11.841 3.905 15.894 1.512 4.054-2.393 6.426-7.27 6.446-14.26z" fill="#E0E0E0"/>
    <path d="M290.552 135.092c-11.621-6.72-21.02-23.033-21.02-36.411 0-5.088 1.452-9.013 4.004-11.286l-.37.16c-.28.15-.551.31-.821.49l-.11.08c-3.003 2.134-4.664 6.33-4.674 11.817 0 13.369 9.388 29.692 21.019 36.411a18.153 18.153 0 0 0 8.788 2.734 9.158 9.158 0 0 0 4.715-1.212c.451-.275.876-.59 1.271-.941-1.25.595-2.619.9-4.004.891a18.193 18.193 0 0 1-8.798-2.733z" fill="#E0E0E0"/>
    <path opacity=".2" d="M290.552 135.092c-11.621-6.72-21.02-23.033-21.02-36.411 0-5.088 1.452-9.013 4.004-11.286l-.37.16c-.28.15-.551.31-.821.49l-.11.08c-3.003 2.134-4.664 6.33-4.674 11.817 0 13.369 9.388 29.692 21.019 36.411a18.153 18.153 0 0 0 8.788 2.734 9.158 9.158 0 0 0 4.715-1.212c.451-.275.876-.59 1.271-.941-1.25.595-2.619.9-4.004.891a18.193 18.193 0 0 1-8.798-2.733z" fill="#000"/>
    <path opacity=".2" d="M286.389 89.245a18.194 18.194 0 0 0-8.799-2.733 9.342 9.342 0 0 0-4.003.86c-2.593 2.254-4.004 6.2-4.004 11.287 0 13.358 9.389 29.691 21.02 36.411a18.186 18.186 0 0 0 8.798 2.733 9.181 9.181 0 0 0 4.004-.891c2.572-2.253 4.003-6.178 4.003-11.276.02-13.358-9.398-29.661-21.019-36.39z" fill="red"/>
    <path d="m296.749 121.852-5.005-4.577a3.855 3.855 0 0 1-1.241-2.623v-.771c3.173.46 5.445-1.733 5.455-5.838 0-5.298-3.713-11.757-8.318-14.41-4.604-2.654-8.348-.521-8.368 4.766 0 4.116 2.233 8.913 5.396 12.117v.761c0 .881-.511 1.362-1.252 1.172l-5.004-1.252c-2.503-.621-4.404.671-4.895 3.335l-.06.31c3.804 8.422 10.079 16.123 17.186 20.238a18.183 18.183 0 0 0 8.798 2.734 9.529 9.529 0 0 0 3.213-.551l-.951-6.449a16.026 16.026 0 0 0-4.954-8.962zM238.914 292.901a1.004 1.004 0 0 1-.47-.12 1.005 1.005 0 0 1-.4-1.332l37.234-68.896c.047-.139.123-.266.223-.373a1.015 1.015 0 0 1 .788-.311 1.003 1.003 0 0 1 .721 1.625l-37.225 68.887a.993.993 0 0 1-.871.52zM245.581 307.222a1.004 1.004 0 0 1-.924-.782.999.999 0 0 1 .504-1.101l26.655-12.437a1 1 0 0 1 1.565.827 1.005 1.005 0 0 1-.734.965l-26.655 12.438a1.02 1.02 0 0 1-.411.09zM297.65 248.648a1 1 0 0 1-1.001-.931l-1.211-20.118a.998.998 0 0 1 .92-1.002 1.005 1.005 0 0 1 1.051.922l1.211 20.118a1 1 0 0 1-.92 1.051l-.05-.04zM287.5 172.122h-.17a1.004 1.004 0 0 1-.801-1.152l4.724-26.567a.999.999 0 0 1 .442-.526c.205-.118.444-.16.677-.118a1.003 1.003 0 0 1 .823.995l-4.724 26.607a1.005 1.005 0 0 1-.971.761zM260.003 93.472h-.05L214.43 91.47a1 1 0 0 1-.941-1.001 1.005 1.005 0 0 1 1.001-.941l45.523 2.002a.998.998 0 0 1 1.001 1.002 1.001 1.001 0 0 1-1.001 1.001l-.01-.06zM165.615 82.577a.993.993 0 0 1-.24 0l-44.421-10.815a1.001 1.001 0 0 1 .47-1.923l44.422 10.815a1.01 1.01 0 0 1 .885 1.117 1.007 1.007 0 0 1-1.116.886v-.08zM84.28 157.111h-.13a1.004 1.004 0 0 1-.85-1.122l5.475-39.285a1.01 1.01 0 0 1 1.513-.731 1.004 1.004 0 0 1 .466.618c.033.128.04.262.022.394l-5.465 39.285a1 1 0 0 1-1.03.841zM114.007 250.722a1.005 1.005 0 0 1-.871-.511l-18.147-33.476a1.003 1.003 0 0 1 1.155-1.318c.235.051.442.185.587.376l18.187 33.467a1.005 1.005 0 0 1-.387 1.327.993.993 0 0 1-.484.135h-.04zM189.388 303.997a.998.998 0 0 1-.33-.05l-31.59-11.105a.999.999 0 0 1-.019-1.744c.205-.119.446-.161.68-.119l31.589 11.106a.997.997 0 0 1 .266 1.654.996.996 0 0 1-.596.258zM196.715 287.853a1.004 1.004 0 0 1-.7-.291l-85.911-85.54a1.001 1.001 0 0 1 0-1.402 1.005 1.005 0 0 1 1.392 0l85.91 85.54a1.001 1.001 0 0 1-.691 1.693zM99.784 170.359a.997.997 0 0 1-.78-.391 1 1 0 0 1 .18-1.382l72.578-55.698a1.007 1.007 0 0 1 .778-.307.994.994 0 0 1 .74.392 1.001 1.001 0 0 1-.317 1.488l-72.578 55.688a1.005 1.005 0 0 1-.6.21zM269.543 172.122a.998.998 0 0 1-.771-.37l-54.531-68.947a1.001 1.001 0 0 1 1.552-1.232l54.521 68.947a1.003 1.003 0 0 1-.161 1.392.991.991 0 0 1-.61.21z" fill="#4883F8"/>
    <g opacity=".5" fill="#fff">
        <path d="M238.914 292.9a1.004 1.004 0 0 1-.47-.12 1.005 1.005 0 0 1-.4-1.332l37.234-68.896c.047-.139.123-.266.223-.373a1.015 1.015 0 0 1 .788-.311 1.003 1.003 0 0 1 .721 1.625l-37.225 68.886a.994.994 0 0 1-.871.521zM245.58 307.22a1.004 1.004 0 0 1-.924-.782.999.999 0 0 1 .504-1.101l26.655-12.437a1 1 0 0 1 1.565.827 1.005 1.005 0 0 1-.734.965l-26.655 12.438a1.004 1.004 0 0 1-.411.09zM297.649 248.647a1 1 0 0 1-1.001-.931l-1.211-20.118a.998.998 0 0 1 .92-1.002 1.005 1.005 0 0 1 1.051.922l1.211 20.118a1 1 0 0 1-.92 1.051l-.05-.04zM287.5 172.12h-.17a1.004 1.004 0 0 1-.801-1.151l4.724-26.568c.081-.222.237-.408.442-.526.205-.118.444-.16.677-.118a1.003 1.003 0 0 1 .823.995l-4.724 26.607a1.005 1.005 0 0 1-.971.761zM260.004 93.471h-.05l-45.523-2.002a1 1 0 0 1-.941-1.002 1.006 1.006 0 0 1 1.001-.941l45.523 2.003a.998.998 0 0 1 1.001 1.001 1.001 1.001 0 0 1-1.001 1.001l-.01-.06zM165.616 82.576c-.079.01-.16.01-.24 0L120.955 71.76a1 1 0 0 1 .47-1.923l44.422 10.815a1.01 1.01 0 0 1 .885 1.117 1.007 1.007 0 0 1-1.116.886v-.08zM84.28 157.109h-.13a1 1 0 0 1-.852-1.122l5.476-39.285a1.01 1.01 0 0 1 1.513-.731 1.005 1.005 0 0 1 .488 1.012l-5.465 39.285a1 1 0 0 1-1.03.841zM114.007 250.72a1.005 1.005 0 0 1-.871-.511l-18.147-33.476a1.003 1.003 0 0 1 1.155-1.318c.235.051.442.185.587.376l18.187 33.467a1.004 1.004 0 0 1-.871 1.462h-.04zM189.387 303.995a.998.998 0 0 1-.33-.05l-31.59-11.106a1.001 1.001 0 0 1 .661-1.862l31.589 11.105a.999.999 0 0 1 .578 1.085.998.998 0 0 1-.908.828zM196.715 287.854a1.004 1.004 0 0 1-.7-.291l-85.911-85.54a1.001 1.001 0 0 1 0-1.402 1.005 1.005 0 0 1 1.392 0l85.91 85.54a1.001 1.001 0 0 1-.691 1.693zM99.785 170.359a.997.997 0 0 1-.78-.391 1 1 0 0 1 .18-1.382l72.578-55.698a1.007 1.007 0 0 1 .778-.307.998.998 0 0 1 .921.78 1.001 1.001 0 0 1-.498 1.1l-72.578 55.688a1.005 1.005 0 0 1-.6.21zM269.543 172.121a.998.998 0 0 1-.771-.37l-54.531-68.947a1.001 1.001 0 0 1 1.552-1.232l54.521 68.947a1.003 1.003 0 0 1-.161 1.392.991.991 0 0 1-.61.21z"/>
    </g>
    <path d="M215.023 27.611a5.321 5.321 0 0 0-1.932-2.003l-26.455-15.13c-2.322-1.333-7.807.47-7.807 4.195v15.271a5.17 5.17 0 0 0 2.603 4.487l20.419 11.676-3.524-2.003 1.692 4.807a.279.279 0 0 0 .35.17c.3-.15 1.632-.871 2.392-1.372h.05l.061-.06.42-.67 4.594 2.623a5.105 5.105 0 0 0 7.808-4.196V30.165a5.262 5.262 0 0 0-.671-2.554z" fill="#4883F8"/>
    <path opacity=".2" d="m202.872 47.6-.06.06h-.05c-.76.5-2.092 1.221-2.392 1.372a.269.269 0 0 0 .16-.12l1.642-2.654-.32-.18 1.441.82-.421.701z" fill="#fff"/>
    <path opacity=".4" d="M209.878 30.535a5.136 5.136 0 0 0-1.381-1.732 3.902 3.902 0 0 0-.631-.43L181.411 13.14a1.716 1.716 0 0 0-1.721 0 1.719 1.719 0 0 0-.861 1.492c0-3.725 5.485-5.528 7.807-4.196l26.465 15.221a5.321 5.321 0 0 1 1.932 2.003l-5.155 2.874z" fill="#fff"/>
    <path opacity=".2" d="M210.47 48.06V32.85a4.167 4.167 0 0 0-.05-.611 5.03 5.03 0 0 0-.54-1.702l5.144-2.924c.434.774.665 1.646.671 2.533v15.211a5.11 5.11 0 0 1-5.27 4.97 5.101 5.101 0 0 1-2.537-.774 1.716 1.716 0 0 0 1.721 0 1.722 1.722 0 0 0 .861-1.492z" fill="#fff"/>
    <path d="M187.978 26.48a4.007 4.007 0 0 1 1.922 3.295c0 1.282-.841 1.713-1.932 1.082a4.07 4.07 0 0 1-1.892-3.315c0-1.312.811-1.692 1.902-1.062zM194.083 30.046a3.997 3.997 0 0 1 1.922 3.285c0 1.291-.851 1.722-1.942 1.091a4.09 4.09 0 0 1-1.921-3.315c0-1.311.84-1.692 1.941-1.061zM200.159 33.61a4.008 4.008 0 0 1 1.932 3.284c0 1.282-.841 1.722-1.932 1.092a4.082 4.082 0 0 1-1.922-3.315c-.01-1.312.851-1.693 1.922-1.062z" fill="#fff"/>
    <path d="M314.706 227.541a3.832 3.832 0 0 0-1.432-1.452l-19.728-11.326c-1.732-1.001-5.816.35-5.816 3.134v11.386a3.866 3.866 0 0 0 1.942 3.345l15.215 8.702-2.623-1.502 1.261 3.575c.008.026.021.05.039.071a.191.191 0 0 0 .063.05.216.216 0 0 0 .078.021.18.18 0 0 0 .08-.012 34.59 34.59 0 0 0 1.782-1.001h.05l.31-.501 3.424 2.003a3.808 3.808 0 0 0 3.817.121 3.81 3.81 0 0 0 1.998-3.255v-11.457a3.847 3.847 0 0 0-.46-1.902z" fill="#4883F8"/>
    <path opacity=".2" d="M305.66 242.462h-.05a18.55 18.55 0 0 1-1.783 1.001.171.171 0 0 0 .07-.032.165.165 0 0 0 .05-.058l1.222-2.003-.24-.14 1.081.611-.35.621z" fill="#fff"/>
    <path opacity=".4" d="M310.884 229.725a3.907 3.907 0 0 0-1.001-1.291 5.405 5.405 0 0 0-.46-.321l-19.729-11.316a1.287 1.287 0 0 0-1.282.001 1.276 1.276 0 0 0-.64 1.111c0-2.784 4.084-4.126 5.816-3.134l19.728 11.325a3.84 3.84 0 0 1 1.432 1.452l-3.864 2.173z" fill="#fff"/>
    <path opacity=".2" d="M311.315 242.794v-11.346c.01-.15.01-.301 0-.451a3.95 3.95 0 0 0-.401-1.272l3.824-2.183a3.85 3.85 0 0 1 .46 1.903v11.336a3.8 3.8 0 0 1-1.998 3.256 3.81 3.81 0 0 1-3.817-.122 1.279 1.279 0 0 0 1.932-1.121z" fill="#fff"/>
    <path d="M294.548 226.699a3.01 3.01 0 0 1 1.431 2.454c0 1.001-.63 1.282-1.441.811a3.068 3.068 0 0 1-1.432-2.474c0-.981.631-1.261 1.442-.791zM299.092 229.354a3.01 3.01 0 0 1 1.431 2.453c0 1.002-.631 1.282-1.441.811a2.996 2.996 0 0 1-1.432-2.473c0-.981.631-1.262 1.442-.791zM303.635 232.018a2.99 2.99 0 0 1 1.021 1.043c.25.426.391.907.41 1.401 0 1.001-.63 1.281-1.441.811a3.008 3.008 0 0 1-1.432-2.474c-.01-.971.621-1.251 1.442-.781z" fill="#fff"/>
    <path d="M101.287 142.322a4.371 4.371 0 0 0-1.652-1.682l-22.78-13.038c-2.003-1.142-6.727.41-6.727 3.625v13.098a4.455 4.455 0 0 0 2.242 3.866l17.576 10.014-3.002-1.743 1.461 4.136a.23.23 0 0 0 .3.15c.26-.13 1.412-.751 2.062-1.181l.06-.051.35-.58 4.004 2.263a4.4 4.4 0 0 0 4.41.138 4.394 4.394 0 0 0 2.307-3.763v-13.028a4.424 4.424 0 0 0-.611-2.224z" fill="#4883F8"/>
    <path opacity=".2" d="m90.837 159.578-.06.05c-.65.43-1.802 1.051-2.062 1.181a.198.198 0 0 0 .14-.1l1.411-2.283-.28-.16 1.241.711-.39.601z" fill="#fff"/>
    <path opacity=".4" d="M96.864 144.876a4.486 4.486 0 0 0-1.181-1.492 3.962 3.962 0 0 0-.541-.37l-22.781-13.079a1.478 1.478 0 0 0-1.485.002 1.486 1.486 0 0 0-.737 1.29c0-3.214 4.724-4.767 6.726-3.625l22.781 13.078a4.366 4.366 0 0 1 1.652 1.683l-4.434 2.513z" fill="#fff"/>
    <path opacity=".2" d="M97.373 159.967v-13.098c.01-.174.01-.347 0-.521a4.454 4.454 0 0 0-.471-1.472l4.424-2.513c.38.665.58 1.417.581 2.183v13.088a4.402 4.402 0 0 1-2.307 3.763 4.395 4.395 0 0 1-4.41-.138 1.484 1.484 0 0 0 1.45-.038 1.5 1.5 0 0 0 .733-1.254z" fill="#fff"/>
    <path d="M77.975 141.391a3.397 3.397 0 0 1 1.652 2.824c0 1.112-.721 1.482-1.662.942a3.492 3.492 0 0 1-1.651-2.854c.03-1.132.75-1.453 1.661-.912zM83.25 144.456a3.438 3.438 0 0 1 1.662 2.834c0 1.101-.73 1.482-1.672.931a3.471 3.471 0 0 1-1.651-2.854c0-1.132.72-1.452 1.661-.911zM88.496 147.528a3.436 3.436 0 0 1 1.661 2.824c0 1.102-.73 1.482-1.671.942a3.52 3.52 0 0 1-1.652-2.854c0-1.112.73-1.462 1.662-.912z" fill="#fff"/>
    <path d="m212.102 239.036 24.023 13.789a4.699 4.699 0 0 1 1.742 1.773c.398.699.608 1.489.61 2.293v17.485a4.637 4.637 0 0 1-4.782 4.516 4.633 4.633 0 0 1-2.305-.701l-4.173-2.383-.371.61a.196.196 0 0 1-.07.061h-.05c-.691.46-1.892 1.101-2.162 1.241a.248.248 0 0 1-.32-.15l-1.532-4.366-15.384-8.712a4.676 4.676 0 0 1-2.362-4.066v-17.574c0-3.395 4.984-5.018 7.136-3.816z" fill="#4883F8"/>
    <path opacity=".2" d="M226.795 276.418a.2.2 0 0 1-.07.06h-.05c-.691.461-1.892 1.102-2.162 1.242a.208.208 0 0 0 .087-.032.205.205 0 0 0 .063-.068l1.491-2.413-.29-.171 1.301.751-.37.631z" fill="#fff"/>
    <path opacity=".4" d="M233.121 257.243a4.759 4.759 0 0 0-1.252-1.572 4.594 4.594 0 0 0-.56-.39l-24.022-13.79a1.575 1.575 0 0 0-1.561.011 1.579 1.579 0 0 0-.782 1.351c0-3.385 5.005-5.007 7.087-3.815l24.022 13.789a4.699 4.699 0 0 1 1.742 1.773l-4.674 2.643z" fill="#fff"/>
    <path opacity=".2" d="M233.68 276.84v-17.495a3.367 3.367 0 0 0 0-.55 4.772 4.772 0 0 0-.49-1.553l4.664-2.643c.398.698.609 1.489.611 2.293v17.484a4.639 4.639 0 0 1-7.087 3.816 1.56 1.56 0 0 0 2.302-1.352z" fill="#fff"/>
    <path d="M215.354 250.003a3.004 3.004 0 0 0-2.923-.29c-1.611.911-1.621 3.915 0 6.689l.931 1.632 5.805 10.064 5.846-3.334.941-.541c1.621-.921 1.631-3.916 0-6.699a8.44 8.44 0 0 0-2.843-3.045 2.924 2.924 0 0 0-2.913-.3l-1.001.541-.94-1.623a8.402 8.402 0 0 0-2.903-3.094z" fill="#fff"/>
    <path d="m101.588 20.291 19.428 11.166a3.73 3.73 0 0 1 1.412 1.432c.318.566.487 1.203.49 1.853v14.16a3.762 3.762 0 0 1-1.971 3.21 3.75 3.75 0 0 1-3.764-.116l-3.374-1.933-.31.49c-.56.371-1.541.902-1.761 1.002a.21.21 0 0 1-.261-.12l-1.241-3.535-12.411-7.09a3.814 3.814 0 0 1-1.912-3.304v-14.13c-.06-2.734 3.974-4.066 5.675-3.085z" fill="#4883F8"/>
    <path opacity=".2" d="M113.519 50.553c-.56.37-1.542.901-1.762 1.001a.155.155 0 0 0 .069-.025.156.156 0 0 0 .051-.055l1.132-1.882-.241-.14 1.062.61-.311.491z" fill="#fff"/>
    <path opacity=".4" d="M118.673 35.033a3.934 3.934 0 0 0-1.001-1.272 3.755 3.755 0 0 0-.46-.32L97.743 22.285a1.261 1.261 0 0 0-1.891 1.092c0-2.734 4.003-4.066 5.735-3.084l19.428 11.165a3.72 3.72 0 0 1 1.411 1.432l-3.753 2.143z" fill="#fff"/>
    <path opacity=".2" d="M119.094 50.894v-14.16c.01-.15.01-.3 0-.45a3.88 3.88 0 0 0-.39-1.252l3.773-2.143c.319.566.487 1.203.491 1.852v14.16a3.762 3.762 0 0 1-1.971 3.211 3.752 3.752 0 0 1-3.765-.116 1.264 1.264 0 0 0 1.695-.481c.108-.19.166-.403.167-.62z" fill="#fff"/>
    <path d="M104.26 29.165a2.364 2.364 0 0 0-2.363-.24c-1.311.74-1.321 3.164 0 5.417l.761 1.322 4.704 8.141 4.735-2.694.761-.44c1.311-.741 1.321-3.175 0-5.418a6.667 6.667 0 0 0-2.363-2.483 2.358 2.358 0 0 0-2.362-.24l-.761.43-.76-1.312a6.732 6.732 0 0 0-2.352-2.483z" fill="#fff"/>
    <path d="m290.255 48.6 19.518 11.206a3.77 3.77 0 0 1 1.421 1.402c.319.57.487 1.21.491 1.863v14.21a3.77 3.77 0 0 1-1.977 3.224 3.761 3.761 0 0 1-3.779-.12l-3.383-1.943-.31.501a.1.1 0 0 1-.05 0c-.561.37-1.542.891-1.762 1.002a.199.199 0 0 1-.26-.13l-1.241-3.536-12.462-7.12a3.818 3.818 0 0 1-1.922-3.314v-14.14c-.04-2.754 4.004-4.086 5.716-3.104z" fill="#4883F8"/>
    <path opacity=".2" d="M302.236 78.984a.1.1 0 0 1-.05 0c-.56.37-1.542.89-1.762 1.001a.203.203 0 0 0 .12-.08l1.212-2.003-.241-.14 1.072.61-.351.612z" fill="#fff"/>
    <path opacity=".4" d="M307.4 63.402a3.8 3.8 0 0 0-1.001-1.282 3.756 3.756 0 0 0-.46-.32L286.42 50.603a1.267 1.267 0 0 0-1.267.003 1.267 1.267 0 0 0-.634 1.098c0-2.754 4.003-4.085 5.755-3.104l19.518 11.206a3.764 3.764 0 0 1 1.401 1.401l-3.793 2.194z" fill="#fff"/>
    <path opacity=".2" d="M307.831 79.314v-14.2c.011-.15.011-.3 0-.45a3.868 3.868 0 0 0-.4-1.263l3.764-2.193c.318.57.487 1.21.49 1.863v14.21a3.77 3.77 0 0 1-1.976 3.224 3.764 3.764 0 0 1-3.779-.12 1.271 1.271 0 0 0 1.901-1.071z" fill="#fff"/>
    <path d="M300.464 66.656a1.189 1.189 0 0 1 .541.921v5.307c0 .34-.24.481-.531.31l-2.652-1.531a1.185 1.185 0 0 1-.541-.922v-5.307c0-.34.24-.48.531-.31l2.652 1.532zm-1.651 4.866c.31.18.56 0 .56-.32a1.238 1.238 0 0 0-.56-1.001c-.311-.18-.561 0-.561.32a1.227 1.227 0 0 0 .561 1.001z" fill="#4883F8"/>
    <path d="M300.464 66.656a1.189 1.189 0 0 1 .541.921v5.307c0 .34-.24.481-.531.31l-2.652-1.531a1.185 1.185 0 0 1-.541-.922v-5.307c0-.34.24-.48.531-.31l2.652 1.532zm-1.651 4.866c.31.18.56 0 .56-.32a1.238 1.238 0 0 0-.56-1.001c-.311-.18-.561 0-.561.32a1.227 1.227 0 0 0 .561 1.001z" fill="#fff" opacity=".5"/>
    <path d="M295.109 57.713c-1.161-.67-2.082-.08-2.002 1.292l.07 2.203-3.003-1.813c-1.061-.6-1.281.802-.57 1.793-.721.21-.511 1.442.14 2.223-.601.27-.07 1.653.661 2.233-.481.19-.071 1.683.78 2.163l3.003 1.753 1.912 1.111c.65.38 1.181.07 1.191-.68v-4.407l-1.211-2.944a11.878 11.878 0 0 1-1.001-4.446l.03-.48z" fill="#fff"/>
    <path d="m133.168 227.761 13.192 7.571c.424.23.771.578 1.001 1.001.216.386.329.82.331 1.262v9.604a2.54 2.54 0 0 1-1.336 2.172 2.537 2.537 0 0 1-2.548-.08l-2.292-1.311-.21.34c-.381.25-1.001.611-1.191.691a.136.136 0 0 1-.103-.011.143.143 0 0 1-.068-.079l-.84-2.393-8.428-4.817a2.577 2.577 0 0 1-1.291-2.233v-9.634c-.101-1.852 2.642-2.744 3.783-2.083z" fill="#4883F8"/>
    <path opacity=".2" d="M141.265 248.29c-.381.251-1.001.611-1.192.691a.144.144 0 0 0 .09-.06l.811-1.332-.16-.09.721.411-.27.38z" fill="#fff"/>
    <path opacity=".4" d="M144.758 237.755a2.492 2.492 0 0 0-1.001-1.071l-13.193-7.571a.854.854 0 0 0-1.169.312.861.861 0 0 0-.112.429c0-1.862 2.733-2.754 3.884-2.093l13.192 7.571c.424.23.771.578 1.001 1.001l-2.602 1.422z" fill="#fff"/>
    <path opacity=".2" d="M145.037 248.52v-9.603a1.794 1.794 0 0 0 0-.311 2.63 2.63 0 0 0-.271-.851l2.563-1.452c.215.386.329.82.33 1.262v9.603a2.547 2.547 0 0 1-3.884 2.093.852.852 0 0 0 1.262-.741z" fill="#fff"/>
    <path d="M140.034 239.958a.813.813 0 0 1 .36.631v3.585c0 .23-.16.32-.36.2l-1.792-1.001a.782.782 0 0 1-.36-.621v-3.585c0-.23.16-.33.36-.21l1.792 1.001zm-1.121 3.295c.21.12.38 0 .38-.221a.827.827 0 0 0-.38-.651c-.21-.12-.381 0-.381.211.009.132.048.26.113.375a.872.872 0 0 0 .268.286z" fill="#4883F8"/>
    <path d="M140.035 239.958a.813.813 0 0 1 .36.631v3.585c0 .23-.16.32-.36.2l-1.792-1.001a.79.79 0 0 1-.36-.621v-3.585c0-.23.16-.331.36-.21l1.792 1.001zm-1.121 3.295c.21.12.38 0 .38-.221a.823.823 0 0 0-.38-.651c-.21-.12-.381 0-.381.211.009.132.048.26.113.375a.872.872 0 0 0 .268.286z" fill="#fff" opacity=".5"/>
    <path d="M136.45 233.909c-.78-.451-1.401 0-1.361.881l.08 1.472-2.092-1.212c-.71-.41-.86.541-.38 1.212-.49.14-.35 1.002.09 1.502-.4.181 0 1.122.45 1.512-.32.131 0 1.132.531 1.462l2.002 1.182 1.301.751c.44.26.801.05.801-.461v-3.004l-.821-2.003a7.96 7.96 0 0 1-.651-3.004l.05-.29z" fill="#fff"/>
</svg>
