<svg width="32" height="32" viewBox="0 0 32 32" fill="none" xmlns="http://www.w3.org/2000/svg">
<path d="M26.6654 25.3337V21.3337H9.33203C7.12289 21.3337 5.33203 23.1245 5.33203 25.3337M11.732 29.3337H22.3987C23.8922 29.3337 24.6389 29.3337 25.2093 29.043C25.7111 28.7873 26.1191 28.3794 26.3747 27.8776C26.6654 27.3072 26.6654 26.5605 26.6654 25.067V6.93366C26.6654 5.44019 26.6654 4.69345 26.3747 4.12302C26.1191 3.62125 25.7111 3.2133 25.2093 2.95764C24.6389 2.66699 23.8922 2.66699 22.3987 2.66699H11.732C9.49182 2.66699 8.37172 2.66699 7.51607 3.10297C6.76342 3.48646 6.1515 4.09838 5.76801 4.85103C5.33203 5.70668 5.33203 6.82678 5.33203 9.06699V22.9337C5.33203 25.1739 5.33203 26.294 5.76801 27.1496C6.1515 27.9023 6.76342 28.5142 7.51607 28.8977C8.37172 29.3337 9.49182 29.3337 11.732 29.3337Z" stroke="#B30000" stroke-width="2.2" stroke-linecap="round" stroke-linejoin="round"/>
</svg>
