<svg width="56" height="56" viewBox="0 0 56 56" fill="none" xmlns="http://www.w3.org/2000/svg">
<path d="M52.5112 40.5311C52.5112 46.9203 45.7816 52.0992 37.4788 52.0992C29.1828 52.0992 22.4531 46.9202 22.4531 40.5311C22.4531 34.1421 29.1828 28.9712 37.4788 28.9712C45.7816 28.9712 52.5112 34.1421 52.5112 40.5311Z" fill="white"/>
<path opacity="0.3" d="M53.9568 37.4685V43.6023C53.9568 45.0292 52.8001 46.186 51.3731 46.186H23.5916C22.1647 46.186 21.0078 45.0293 21.0078 43.6023V37.4685C21.0078 36.0416 22.1646 34.8848 23.5916 34.8848H51.3731C52.8001 34.8848 53.9568 36.0416 53.9568 37.4685ZM2.04297 7.61145V15.0121C2.04297 17.0595 3.70273 18.7193 5.75012 18.7193H19.5076L23.0483 24.1495C23.6335 25.0469 25.0276 24.6326 25.0276 23.5612V7.61145C25.0276 5.56406 23.3678 3.9043 21.3204 3.9043H5.75012C3.70273 3.90419 2.04297 5.56395 2.04297 7.61145Z" fill="#FF0000"/>
<path d="M51.3743 34.0475H50.9904C48.3321 30.6791 43.6754 28.3759 38.3173 28.1566V23.5556C38.3173 23.0929 37.9428 22.7183 37.48 22.7183C37.0173 22.7183 36.6427 23.0928 36.6427 23.5556V28.1573C31.2893 28.3769 26.6394 30.6801 23.9829 34.0475H23.5923C21.7059 34.0475 20.1719 35.5815 20.1719 37.4679V43.6023C20.1719 45.4887 21.7059 47.0227 23.5923 47.0227H24.0112C30.2188 54.899 44.7432 54.9066 50.9574 47.0227H51.3743C53.2607 47.0227 54.7946 45.4887 54.7946 43.6023V37.4679C54.7946 35.5815 53.2607 34.0475 51.3743 34.0475ZM48.7439 34.0475H26.23C31.9389 28.397 43.0279 28.3948 48.7439 34.0475ZM26.2245 47.0228H48.7405C43.0422 52.6765 31.9123 52.6722 26.2245 47.0228ZM53.12 43.6023C53.12 44.5647 52.3367 45.3481 51.3743 45.3481H23.5921C22.6297 45.3481 21.8464 44.5647 21.8464 43.6023V37.4679C21.8464 36.5055 22.6297 35.7222 23.5921 35.7222H51.3742C52.3365 35.7222 53.1199 36.5055 53.1199 37.4679L53.12 43.6023Z" fill="#B30000"/>
<path d="M45.9457 37.9727C45.6186 37.6457 45.0887 37.6457 44.7617 37.9727C44.4347 38.2998 44.4347 38.8297 44.7617 39.1567L45.5507 39.9457C45.8778 40.2728 46.4077 40.2729 46.7347 39.9457C47.0617 39.6187 47.0617 39.0888 46.7347 38.7618L45.9457 37.9727ZM42.7844 38.1116C42.4574 37.7846 41.9275 37.7846 41.6004 38.1116C41.2734 38.4387 41.2734 38.9686 41.6004 39.2956L45.4117 43.1069C45.7387 43.4339 46.2687 43.434 46.5957 43.1069C46.9227 42.7799 46.9227 42.2499 46.5957 41.9229L42.7844 38.1116ZM25.8663 23.5608V7.61165C25.8663 5.10543 23.8277 3.06689 21.3223 3.06689H5.75178C3.24633 3.06689 1.2078 5.10543 1.2078 7.61165L1.20703 15.0118C1.20703 17.5181 3.24556 19.5566 5.75178 19.5566H19.0557L22.3486 24.6075C23.3921 26.2045 25.8663 25.4575 25.8663 23.5608ZM19.5095 17.8818H5.75178C4.16956 17.8818 2.88167 16.594 2.88167 15.0117L2.88244 7.61154C2.88244 6.02932 4.16945 4.74143 5.75178 4.74143H21.3223C22.9045 4.74143 24.1916 6.02932 24.1916 7.61154V23.5607C24.1916 23.803 23.8843 23.8963 23.7517 23.6924L20.2112 18.262C20.0565 18.025 19.7925 17.8818 19.5095 17.8818Z" fill="#B30000"/>
<path d="M19.4901 8.56445H8.36862C7.90586 8.56445 7.53125 8.93895 7.53125 9.40183C7.53125 9.86459 7.90575 10.2392 8.36862 10.2392H19.4901C19.9529 10.2392 20.3275 9.8647 20.3275 9.40183C20.3275 8.93895 19.953 8.56445 19.4901 8.56445ZM14.4506 12.5613H8.36862C7.90586 12.5613 7.53125 12.9358 7.53125 13.3987C7.53125 13.8616 7.90575 14.2361 8.36862 14.2361H14.4506C14.9134 14.2361 15.288 13.8616 15.288 13.3987C15.288 12.9358 14.9135 12.5613 14.4506 12.5613Z" fill="#B30000"/>
</svg>
