<svg width="460" height="460" viewBox="0 0 460 460" fill="none" xmlns="http://www.w3.org/2000/svg">
    <path opacity=".8" d="M422.656 224.713c-4.481 40.398-21.785 87.354-56.359 108.928-52.24 32.605-47.862 82.754-149.813 104.549a197.32 197.32 0 0 1-45.203 4.554 164.285 164.285 0 0 1-22.191-1.932c-64.76-10.12-108.401-58.07-124.393-116.003-21.051-76.185 20.983-126.04 48.847-156.105 27.865-30.066 48.269-123.685 148.337-145.958a191.245 191.245 0 0 1 46.455-4.701c35.61.92 74.44 13.386 101.312 39.385 2.02 1.95 3.986 3.971 5.897 6.063 37.346 40.848 53.216 106.158 47.111 161.22z" fill="#A5C2FB"/>
    <path opacity=".76" d="M422.656 224.713c-4.481 40.398-21.785 87.354-56.359 108.928-52.24 32.605-47.862 82.754-149.813 104.549a197.32 197.32 0 0 1-45.203 4.554 164.285 164.285 0 0 1-22.191-1.932c-64.76-10.12-108.401-58.07-124.393-116.003-21.051-76.185 20.983-126.04 48.847-156.105 27.865-30.066 48.269-123.685 148.337-145.958a191.245 191.245 0 0 1 46.455-4.701c35.61.92 74.44 13.386 101.312 39.385 2.02 1.95 3.986 3.971 5.897 6.063 37.346 40.848 53.216 106.158 47.111 161.22z" fill="#fff"/>
    <path d="M26.209 419.128h414.58" stroke="#263238" stroke-width=".92" stroke-miterlimit="10"/>
    <path d="M356.258 283.133s-2.254 6.219-7.066 7.066c-4.812.846-13.276-8.473-7.912-13.285 5.364-4.812 12.724 2.834 14.978 6.219zM363.609 252.617s-7.066 17.241-4.241 25.714c2.824 8.474 20.35 14.72 25.438 3.68 5.087-11.04-6.219-26.56-10.461-29.955-4.241-3.395-9.319-2.263-10.736.561zM404.871 259.959s-12.153 11.04-13.57 22.08c-1.417 11.04 6.79 14.978 15.263 13.57 8.473-1.408 12.714-22.89 10.175-32.78-2.539-9.89-11.868-2.87-11.868-2.87zM407.138 321.001s-13.57.57-14.131 7.066c-.562 6.495 5.934 7.921 12.429 2.263s7.351-9.044 1.702-9.329z" fill="#A5C2FB" stroke="#263238" stroke-width=".69" stroke-linecap="round" stroke-linejoin="round"/>
    <path d="M393.225 329.621s10.69-4.858 15.502-5.778" stroke="#263238" stroke-width=".69" stroke-miterlimit="10"/>
    <path d="M410.147 363.532s-9.963-9.2-14.968-5.032c-5.005 4.167-1.426 9.779 7.158 10.405 8.583.626 11.601-1.159 7.81-5.373z" fill="#A5C2FB" stroke="#263238" stroke-width=".69" stroke-linecap="round" stroke-linejoin="round"/>
    <path d="M394.242 359.724s11.04 4.13 14.996 6.946" stroke="#263238" stroke-width=".69" stroke-miterlimit="10"/>
    <path d="M357.591 360.818s13.736-12.714 20.645-6.946c6.909 5.769 1.969 13.497-9.881 14.352-11.849.856-15.98-1.6-10.764-7.406z" fill="#A5C2FB" stroke="#263238" stroke-width=".69" stroke-linecap="round" stroke-linejoin="round"/>
    <path d="M379.531 355.593s-15.18 5.704-20.681 9.586" stroke="#263238" stroke-width=".69" stroke-miterlimit="10"/>
    <path d="M373.501 334.57s-1.408 6.781-6.495 9.329c-5.088 2.549-14.132-2.833-9.329-11.04 4.802-8.206 13.285-1.656 15.824 1.711zM361.631 313.374s-2.54-5.649-12.439-1.978c-9.899 3.67-13.846 9.328-7.627 11.306 6.22 1.978 20.066-9.328 20.066-9.328z" fill="#A5C2FB" stroke="#263238" stroke-width=".69" stroke-linecap="round" stroke-linejoin="round"/>
    <path d="M359.734 313.117s-10.478 1.131-16.136 5.952" stroke="#263238" stroke-width=".69" stroke-miterlimit="10"/>
    <path d="M389.895 245.552s1.692 3.956 5.087 3.109c3.395-.846 4.232-5.934 9.605-4.526 5.373 1.407 9.89 7.636 9.89 4.802 0-2.833-6.78-10.166-14.407-10.166s-9.899 3.101-10.175 6.781z" fill="#A5C2FB" stroke="#263238" stroke-width=".69" stroke-linecap="round" stroke-linejoin="round"/>
    <path d="M361.627 313.374s12.172-2.337 17.232 11.178c.506 1.35.933 2.73 1.278 4.13" stroke="#263238" stroke-width=".69" stroke-miterlimit="10"/>
    <path d="M412.414 300.282s2.548-5.649 12.438-1.978c9.89 3.671 13.846 9.329 7.627 11.307-6.219 1.978-20.065-9.329-20.065-9.329z" fill="#A5C2FB" stroke="#263238" stroke-width=".69" stroke-linecap="round" stroke-linejoin="round"/>
    <path d="M414.678 300.66s10.193-.571 15.005 5.382M412.416 300.283a15.636 15.636 0 0 0-8.418 1.15M368.117 290.144c-5.962-6.09-11.859-7.01-11.859-7.01s-8.703-2.3-12.098.819M369.334 258.836l-.533-2.355M383.083 383.782s1.269-48.678 0-63.48c-1.27-14.803-7.158-32.062-7.158-32.062l-6.017-26.901M408.211 269.287l1.086-2.327M386.051 383.726s.423-44.399 2.107-57.04c1.683-12.641 8.445-32.513 8.445-32.513l10.369-22.208" stroke="#263238" stroke-width=".69" stroke-miterlimit="10"/>
    <path d="M393.222 329.622s-2.953 25.447-4.646 54.16M378.863 383.726s.847-40.59-.837-46.083c-1.683-5.492-4.526-3.073-4.526-3.073s-7.811.92-10.645 5.447M380.803 331.848c2.208 12.383.175 51.916.175 51.916" stroke="#263238" stroke-width=".69" stroke-miterlimit="10"/>
    <path d="M401.592 302.757a17.615 17.615 0 0 0-6.44 8.704c-5.069 13.514-4.489 72.321-4.489 72.321M369.59 291.754a39.99 39.99 0 0 1 7.167 12.954c6.752 19.421 9.292 69.727 8.022 79.019M386.75 309.933c-.414 24.518-.699 73.793-.699 73.793M386.801 306.888c.276-16.211.607-32.081.92-40.609.846-21.961 2.162-20.728 2.162-20.728s1.564-4.931 10.341-4.37" stroke="#263238" stroke-width=".69" stroke-miterlimit="10"/>
    <path d="M375.981 325.399s-7.066-6.303-4.232-9.403c2.833-3.1 20.341-5.363 25.428-1.343 5.088 4.02-6.219 9.715-10.451 10.948-4.232 1.233-9.329.828-10.745-.202z" fill="#A5C2FB" stroke="#263238" stroke-width=".69" stroke-linecap="round" stroke-linejoin="round"/>
    <path d="M382.506 320.237a13.241 13.241 0 0 0-.156 1.886M384.94 312.886a31.481 31.481 0 0 0-1.84 4.674" stroke="#263238" stroke-width=".69" stroke-miterlimit="10"/>
    <path d="M375.981 366.596s-7.066-6.302-4.232-9.403c2.833-3.1 20.341-5.372 25.428-1.343 5.088 4.03-6.219 9.706-10.451 10.948-4.232 1.242-9.329.828-10.745-.202z" fill="#A5C2FB" stroke="#263238" stroke-width=".69" stroke-linecap="round" stroke-linejoin="round"/>
    <path d="M384.944 354.075s-2.594 5.179-2.594 9.2" stroke="#263238" stroke-width=".69" stroke-miterlimit="10"/>
    <path d="M381.243 349.171s-4.793-4.278-2.88-6.385c1.914-2.106 13.8-3.68 17.269-.92 3.468 2.76-4.223 6.597-7.094 7.434-2.87.837-6.338.57-7.295-.129z" fill="#A5C2FB" stroke="#263238" stroke-width=".69" stroke-linecap="round" stroke-linejoin="round"/>
    <path d="M387.326 340.67s-1.758 3.515-1.758 6.275" stroke="#263238" stroke-width=".69" stroke-miterlimit="10"/>
    <path d="M393.74 376.716h-19.127v42.412h19.127v-42.412z" fill="#263238" stroke="#263238" stroke-width=".69" stroke-linecap="round" stroke-linejoin="round"/>
    <path d="M331.674 158.844H315.67a2 2 0 0 1-2-2v-64.88a2 2 0 0 1 2-2h7.472a2 2 0 0 1 2 2v.364a1.556 1.556 0 0 0 3.101 0v-.364a2 2 0 0 1 2-2h9.257a2 2 0 0 1 2 2v.364a1.544 1.544 0 0 0 2.591 1.015c.286-.264.461-.627.491-1.015v-.364a2 2 0 0 1 2-2h9.257a2 2 0 0 1 2 2v.364a1.545 1.545 0 0 0 3.091 0v-.364a2 2 0 0 1 2-2h9.276a2 2 0 0 1 2 2v.364a1.544 1.544 0 0 0 2.591 1.015c.286-.264.461-.627.491-1.015v-.364a2 2 0 0 1 2-2h9.257a2 2 0 0 1 2 2v.364a1.556 1.556 0 0 0 3.101 0v-.364a2 2 0 0 1 2-2h7.472a2 2 0 0 1 2 2v12.72M405.1 111.4v45.444a2 2 0 0 1-2 2h-63.274" stroke="#5283E4" stroke-width="2" stroke-miterlimit="10" stroke-linecap="round"/>
    <path d="M332.983 108.778h-8.157a1 1 0 0 0-1 1v8.157a1 1 0 0 0 1 1h8.157a1 1 0 0 0 1-1v-8.157a1 1 0 0 0-1-1zM348.225 108.778h-8.157a1 1 0 0 0-1 1v8.157a1 1 0 0 0 1 1h8.157a1 1 0 0 0 1-1v-8.157a1 1 0 0 0-1-1zM363.465 108.778h-8.156a1 1 0 0 0-1 1v8.157a1 1 0 0 0 1 1h8.156a1 1 0 0 0 1-1v-8.157a1 1 0 0 0-1-1zM378.698 108.778h-8.157a1 1 0 0 0-1 1v8.157a1 1 0 0 0 1 1h8.157a1 1 0 0 0 1-1v-8.157a1 1 0 0 0-1-1zM393.934 108.778h-8.157a1 1 0 0 0-1 1v8.157a1 1 0 0 0 1 1h8.157a1 1 0 0 0 1-1v-8.157a1 1 0 0 0-1-1zM332.983 125.467h-8.157a1 1 0 0 0-1 1v8.157a1 1 0 0 0 1 1h8.157a1 1 0 0 0 1-1v-8.157a1 1 0 0 0-1-1zM348.225 125.467h-8.157a1 1 0 0 0-1 1v8.157a1 1 0 0 0 1 1h8.157a1 1 0 0 0 1-1v-8.157a1 1 0 0 0-1-1zM363.465 125.467h-8.156a1 1 0 0 0-1 1v8.157a1 1 0 0 0 1 1h8.156a1 1 0 0 0 1-1v-8.157a1 1 0 0 0-1-1zM378.698 125.467h-8.157a1 1 0 0 0-1 1v8.157a1 1 0 0 0 1 1h8.157a1 1 0 0 0 1-1v-8.157a1 1 0 0 0-1-1zM393.934 125.467h-8.157a1 1 0 0 0-1 1v8.157a1 1 0 0 0 1 1h8.157a1 1 0 0 0 1-1v-8.157a1 1 0 0 0-1-1zM332.983 142.156h-8.157a1 1 0 0 0-1 1v8.156a1 1 0 0 0 1 1h8.157a1 1 0 0 0 1-1v-8.156a1 1 0 0 0-1-1zM348.225 142.156h-8.157a1 1 0 0 0-1 1v8.156a1 1 0 0 0 1 1h8.157a1 1 0 0 0 1-1v-8.156a1 1 0 0 0-1-1zM363.465 142.156h-8.156a1 1 0 0 0-1 1v8.156a1 1 0 0 0 1 1h8.156a1 1 0 0 0 1-1v-8.156a1 1 0 0 0-1-1zM378.698 142.156h-8.157a1 1 0 0 0-1 1v8.156a1 1 0 0 0 1 1h8.157a1 1 0 0 0 1-1v-8.156a1 1 0 0 0-1-1zM393.934 142.156h-8.157a1 1 0 0 0-1 1v8.156a1 1 0 0 0 1 1h8.157a1 1 0 0 0 1-1v-8.156a1 1 0 0 0-1-1zM328.208 83.441v8.842a1.556 1.556 0 0 1-2.607 1.021 1.561 1.561 0 0 1-.494-1.021V83.44a1.557 1.557 0 0 1 3.101 0zM344.579 83.44v8.842a1.549 1.549 0 0 1-1.541 1.427 1.545 1.545 0 0 1-1.541-1.427v-8.841a1.536 1.536 0 0 1 .407-1.17 1.54 1.54 0 0 1 1.134-.495 1.549 1.549 0 0 1 1.46 1.038c.07.201.097.415.081.627zM360.927 83.44v8.842a1.545 1.545 0 0 1-3.091 0V83.44a1.545 1.545 0 0 1 3.091 0zM377.266 83.44v8.842a1.544 1.544 0 0 1-2.591 1.015 1.549 1.549 0 0 1-.491-1.015v-8.841a1.554 1.554 0 0 1 .922-1.535 1.549 1.549 0 0 1 1.754.366 1.555 1.555 0 0 1 .406 1.169zM393.628 83.441v8.842a1.556 1.556 0 0 1-3.101 0V83.44a1.556 1.556 0 0 1 3.101 0z" stroke="#5283E4" stroke-width="2" stroke-miterlimit="10"/>
    <path d="M178.535 295.737H50.885v4.334h127.65v-4.334z" fill="#263238" stroke="#263238" stroke-width=".92" stroke-miterlimit="10"/>
    <path d="M56.864 298.709h-2.659v120.41h2.659v-120.41z" fill="#263238" stroke="#263238" stroke-width=".92" stroke-miterlimit="10"/>
    <path d="m84.795 324.865 86.443 57.187M171.238 324.865l-86.443 57.187" stroke="#263238" stroke-width="2.76" stroke-miterlimit="10"/>
    <path d="M85.676 298.709h-2.658v120.41h2.658v-120.41zM144.19 298.709h-2.659v120.41h2.659v-120.41zM173.012 298.709h-2.658v120.41h2.658v-120.41z" fill="#263238" stroke="#263238" stroke-width=".92" stroke-miterlimit="10"/>
    <path d="m55.53 324.865 86.452 57.187M141.982 324.865l-86.453 57.187M173.025 382.052H85.689M142.865 382.052H55.529" stroke="#263238" stroke-width="2.76" stroke-miterlimit="10"/>
    <path d="M86.688 218.964s2.207 15.64 2.207 16.642c0 1.003-1.84 9.2-1.002 15.438.837 6.238 4.213 32.117 4.213 33.313 0 1.196-.671 3.055-2.125 6.698-1.453 3.643-1.334 7.268-.846 8.602.487 1.334 2.539 1.334 4.728 0 2.19-1.334 4.361-3.147 4.6-7.029.24-3.882-.607-7.636-.726-9.458-.12-1.821 2.18-26.413 3.275-31.51 1.095-5.096.975-18.188.975-18.188l1.619-13.956-16.918-.552z" fill="#FFEAD1" stroke="#263238" stroke-width=".92" stroke-miterlimit="10"/>
    <path d="M93.869 299.639c2.18-1.334 4.36-3.147 4.6-7.029a30.573 30.573 0 0 0-.175-5.097c-.534 1.546-1.454 4.03-2.594 4.315-1.49.368-5.714-.791-5.714-.791-1.453 3.68-1.334 7.268-.846 8.602.487 1.334 2.511 1.334 4.729 0z" fill="#263238" stroke="#263238" stroke-width=".92" stroke-miterlimit="10"/>
    <path d="M137.65 212.745s4.453 14.821 4.453 15.382c0 .561 5.52 49.247 6.983 51.842 1.463 2.594 7.783 12.779 9.448 13.524 1.666.745 3.524 1.84 2.043 2.594-1.481.755-6.863 1.298-8.897 1.114-2.033-.184-7.599-5.373-9.632-6.118-2.033-.746-5.189-1.298-4.6-3.68.589-2.383 2.76-5.521 2.962-8.152.203-2.631-5.317-22.199-7.534-30.535-2.218-8.335-3.524-17.047-3.524-17.047l-6.854-12.227 15.152-6.697z" fill="#FFEAD1" stroke="#263238" stroke-width=".92" stroke-miterlimit="10"/>
    <path d="M158.504 293.484c-.745-.332-2.401-2.53-4.14-5.097l-3.082 1.95s-6.302-2.76-8.713-5.75a65.388 65.388 0 0 0-2.76-3.211c-.745 2.061-2.051 4.223-2.456 5.99-.552 2.41 2.594 2.971 4.6 3.68 2.006.708 7.59 5.934 9.632 6.118 2.043.184 7.406-.368 8.897-1.114 1.49-.745-.313-1.812-1.978-2.566z" fill="#263238" stroke="#263238" stroke-width=".92" stroke-miterlimit="10"/>
    <path d="m156.133 119.244 11.96 11.832 32.007-2.273.322 4.471s-33.571 10.249-34.849 10.249c-1.279 0-17.913-17.112-17.913-17.112l8.473-7.167z" fill="#FFEAD1" stroke="#263238" stroke-width=".92" stroke-miterlimit="10"/>
    <path d="M95.056 148.823s-9.761 9.375-14.37 19.596a38.501 38.501 0 0 0-2.006 25.87c1.6 6.44 6.21 27.462 6.21 27.462s24.26 1.003 35.088-.598a71.056 71.056 0 0 0 19.256-5.814s-6.817-27.867-9.025-35.291c-2.208-7.425-4.214-13.23-4.214-13.23l.801-10.23-31.74-7.765z" fill="#263238" stroke="#263238" stroke-width=".92" stroke-miterlimit="10"/>
    <path d="m125.429 95.26-3.836 8.796s-8.63 4.314-12.144 6.237a14.592 14.592 0 0 0-7.038 8.151c-1.279 3.524-4.159 22.55-4.315 23.001-.157.45-3.202 5.437-3.045 7.359.156 1.923 7.203 11.353 16.79 12.31 9.586.957 13.229-1.656 13.551-2.134.322-.479 6.275-8.731 7.719-9.375a91.777 91.777 0 0 0 8.786-5.75c1.445-1.123 5.759-14.72 5.759-14.72l8.474-9.918s-1.758-3.036-7.995-7.829c-6.238-4.793-22.706-16.128-22.706-16.128z" fill="#A5C2FB" stroke="#263238" stroke-width=".92" stroke-miterlimit="10"/>
    <path d="m121.594 104.056-4.25 2.143c1.168 1.711 4.738 7.268 5.52 12.724.966 6.559.966 7.838.966 7.838l15.824-.156a51.716 51.716 0 0 0-.755-21.915c-6.559-4.664-13.478-9.43-13.478-9.43l-3.827 8.796z" fill="#FFEAD1" stroke="#263238" stroke-width=".92" stroke-miterlimit="10"/>
    <path d="M148.872 75.315a14.232 14.232 0 0 0-8.464-3.174c-3.928 0-13.846 2.76-17.774 6.063-3.929 3.303-5.52 10.12-6.127 15.318-.608 5.198-1.307 6.072.92 8.528 2.226 2.456 5.52 3.321 6.559 3.606 1.04.286 1.021-2.76 1.748-3.753.727-.994 3.064-4.048 3.064-4.048s3.68-3.321 5.676-3.321c1.997 0 12.098-2.457 13.267-3.322a1.627 1.627 0 0 1 2.18.286l.874 5.345s3.938.432 5.52-.58c1.582-1.012 2.916-4.913 2.622-7.222-.819-6.467-4.526-14.306-10.065-13.726z" fill="#263238" stroke="#263238" stroke-width=".92" stroke-miterlimit="10"/>
    <path d="M126.233 103.899c.644 2.714 3.202 8.151 3.524 9.586.322 1.435 2.557 3.045 4.793 2.567 2.236-.478 8.952-3.358 10.874-5.603 1.923-2.245 3.036-6.44 3.358-7.995.322-1.554 3.193-5.115 3.515-7.028.322-1.914-1.601-9.918-1.601-9.918a79.263 79.263 0 0 1-11.206 5.437 16.144 16.144 0 0 1-8.951.644s0 1.592-.92 1.436c-.92-.157 0-.92-1.914-1.758-1.913-.837-3.68 1.28-3.836 3.358-.157 2.08.92 4.472 1.913 5.115" fill="#FFEAD1"/>
    <path d="M126.233 103.899c.644 2.714 3.202 8.151 3.524 9.586.322 1.435 2.557 3.045 4.793 2.567 2.236-.478 8.952-3.358 10.874-5.603 1.923-2.245 3.036-6.44 3.358-7.995.322-1.554 3.193-5.115 3.515-7.028.322-1.914-1.601-9.918-1.601-9.918a79.263 79.263 0 0 1-11.206 5.437 16.144 16.144 0 0 1-8.951.644s0 1.592-.92 1.436c-.92-.157 0-.92-1.914-1.758-1.913-.837-3.68 1.28-3.836 3.358-.157 2.08.92 4.472 1.913 5.115" stroke="#263238" stroke-width=".92" stroke-miterlimit="10"/>
    <path d="M139.271 100.219c-.359.856-1.076 1.371-1.601 1.15-.524-.221-.671-1.095-.322-1.95.35-.856 1.077-1.37 1.601-1.15.524.22.672 1.095.322 1.95zM147.025 101.654c-.359.865-1.077 1.38-1.61 1.16-.534-.221-.672-1.095-.313-1.951.359-.855 1.067-1.37 1.601-1.15.533.221.671 1.086.322 1.941z" fill="#263238"/>
    <path d="M136.305 96.06a5.518 5.518 0 0 1 5.593.323M146.535 97.662a2.531 2.531 0 0 1 3.358 1.435M143.978 101.498a10.976 10.976 0 0 0-1.278 2.76c-.157.92.8 2.76-.801 3.349-1.601.589-3.514-.478-3.514-.92M138.567 109.971a5.203 5.203 0 0 1-4.159-4.315" stroke="#263238" stroke-width=".92" stroke-miterlimit="10"/>
    <path d="M217.377 68.507h-50.591a7.958 7.958 0 0 0-7.958 7.958v52.541a7.958 7.958 0 0 0 7.958 7.958h50.591a7.958 7.958 0 0 0 7.958-7.958V76.465a7.958 7.958 0 0 0-7.958-7.958z" fill="#9BF" stroke="#263238" stroke-width=".92" stroke-miterlimit="10"/>
    <path d="M232.932 68.507h-50.591a7.958 7.958 0 0 0-7.958 7.958v52.541a7.958 7.958 0 0 0 7.958 7.958h50.591a7.958 7.958 0 0 0 7.958-7.958V76.465a7.958 7.958 0 0 0-7.958-7.958z" fill="#fff" stroke="#263238" stroke-width=".92" stroke-miterlimit="10"/>
    <path d="M105.453 131.398s20.305 26.22 22.227 26.68c1.923.46 44.289-13.267 45.08-13.589.792-.322 11.51-4.158 11.96-4.48.451-.322 6.238-1.914 6.716-2.392.479-.478-1.922-.8-1.922-.8H176.44s3.202-2.558 4.324-3.524c1.123-.966.792-3.68-.322-2.87a791.652 791.652 0 0 0-4.314 3.192s-5.125 1.444-5.916 2.558a69.09 69.09 0 0 0-3.045 6.237l-33.249 2.76-15.189-19.826-13.276 6.054z" fill="#FFEAD1" stroke="#263238" stroke-width=".92" stroke-miterlimit="10"/>
    <path d="M105.77 113.164s-3.68.635-3.515 8.28a60.508 60.508 0 0 0 1.436 12.631l17.59-6.716s-2.88-7.985-4.802-10.064" fill="#A5C2FB"/>
    <path d="M105.77 113.164s-3.68.635-3.515 8.28a60.508 60.508 0 0 0 1.436 12.631l17.59-6.716s-2.88-7.985-4.802-10.064" stroke="#263238" stroke-width=".92" stroke-miterlimit="10"/>
    <path d="M195.664 131.564V72.868h15.3c2.392-.01 4.78.184 7.139.58a16.376 16.376 0 0 1 5.98 2.207 11.094 11.094 0 0 1 4.103 4.6 18.153 18.153 0 0 1 1.463 7.977 15.105 15.105 0 0 1-1.049 5.989 9.42 9.42 0 0 1-2.972 3.873 10.777 10.777 0 0 1-4.6 1.96 11.67 11.67 0 0 1 5.732 2.217 10.875 10.875 0 0 1 3.514 4.747 19.174 19.174 0 0 1 1.196 7.176 22.974 22.974 0 0 1-1.196 7.866 13.519 13.519 0 0 1-3.44 5.41 13.983 13.983 0 0 1-5.52 3.109 25.645 25.645 0 0 1-7.581 1.021l-18.069-.036zm12.981-35.246h2.53a8.999 8.999 0 0 0 4.499-.92 4.6 4.6 0 0 0 2.07-2.65c.389-1.366.572-2.783.543-4.204a8.116 8.116 0 0 0-.837-3.882 5.375 5.375 0 0 0-2.466-2.355 9.245 9.245 0 0 0-4.094-.8h-2.245v14.811zm0 26.184h2.76c2.852 0 4.824-.727 5.916-2.181 1.085-1.444 1.628-3.579 1.628-6.385.06-1.791-.186-3.58-.727-5.29a5.157 5.157 0 0 0-2.373-2.842 9.41 9.41 0 0 0-4.499-.92h-2.677l-.028 17.618z" fill="#FC7D7F" stroke="#263238" stroke-width=".92" stroke-miterlimit="10"/>
    <path d="M226.304 350.671h-50.6a7.958 7.958 0 0 0-7.958 7.958v52.542a7.958 7.958 0 0 0 7.958 7.958h50.6a7.958 7.958 0 0 0 7.958-7.958v-52.542a7.958 7.958 0 0 0-7.958-7.958z" fill="#FFD1D2" stroke="#263238" stroke-width=".92" stroke-miterlimit="10"/>
    <path d="M241.863 350.671h-50.6a7.958 7.958 0 0 0-7.958 7.958v52.542a7.958 7.958 0 0 0 7.958 7.958h50.6a7.958 7.958 0 0 0 7.958-7.958v-52.542a7.958 7.958 0 0 0-7.958-7.958z" fill="#fff" stroke="#263238" stroke-width=".92" stroke-miterlimit="10"/>
    <path d="M226.304 282.6h-50.6a7.958 7.958 0 0 0-7.958 7.958v52.541a7.958 7.958 0 0 0 7.958 7.958h50.6a7.958 7.958 0 0 0 7.958-7.958v-52.541a7.958 7.958 0 0 0-7.958-7.958z" fill="#FFD1D2" stroke="#263238" stroke-width=".92" stroke-miterlimit="10"/>
    <path d="M241.863 282.6h-50.6a7.958 7.958 0 0 0-7.958 7.958V343.1a7.958 7.958 0 0 0 7.958 7.958h50.6a7.958 7.958 0 0 0 7.958-7.958v-52.542a7.958 7.958 0 0 0-7.958-7.958z" fill="#FC7D7F"/>
    <path d="M226.304 214.538h-50.6a7.958 7.958 0 0 0-7.958 7.958v52.542a7.958 7.958 0 0 0 7.958 7.958h50.6a7.958 7.958 0 0 0 7.958-7.958v-52.542a7.958 7.958 0 0 0-7.958-7.958z" fill="#FFD1D2" stroke="#263238" stroke-width=".92" stroke-miterlimit="10"/>
    <path d="M241.863 214.538h-50.6a7.958 7.958 0 0 0-7.958 7.958v52.542a7.958 7.958 0 0 0 7.958 7.958h50.6a7.958 7.958 0 0 0 7.958-7.958v-52.542a7.958 7.958 0 0 0-7.958-7.958z" fill="#A5C2FB" stroke="#263238" stroke-width=".92" stroke-miterlimit="10"/>
    <path d="M199.018 415.061v-58.742h14.867c5.115 0 9.102.641 11.96 1.923a11.31 11.31 0 0 1 6.017 6.026 27.403 27.403 0 0 1 1.738 10.617v21.316a28.275 28.275 0 0 1-1.738 10.773 11.429 11.429 0 0 1-5.98 6.128c-2.828 1.306-6.781 1.959-11.859 1.959h-15.005zm12.981-8.997h2.015a7.964 7.964 0 0 0 4.278-.865 3.837 3.837 0 0 0 1.637-2.613 24.77 24.77 0 0 0 .322-4.352v-25.631a17.886 17.886 0 0 0-.395-4.204 3.472 3.472 0 0 0-1.702-2.319 9.08 9.08 0 0 0-4.214-.726h-1.95l.009 40.71z" fill="#FC7D7F"/>
    <path d="m198.422 279.417 11.095-58.733h14.794l10.948 58.733h-11.96l-1.923-12.393h-8.63l-2.033 12.393h-12.291zm15.447-20.157h6.237l-3.119-22.918-3.118 22.918z" fill="#fff"/>
    <path d="M201.252 346.172v-58.733h9.136l12.033 28.281v-28.281h10.737v58.733h-8.777l-12.043-30.452v30.452h-11.086z" fill="#fff" stroke="#263238" stroke-width=".92" stroke-miterlimit="10"/>
    <path d="M271.393 241.908s-15.456-28.382-16.091-29.017c-.635-.634-4.315-1.14-4.941-1.021-.625.12-7.231 1.021-7.231 1.021s-8.234-.92-8.611.12c-.377 1.04 5.446 3.551 6.716 4.057 1.27.506 10.893 2.033 10.893 2.033l9.513 30.029 9.752-7.222z" fill="#FFEAD1" stroke="#263238" stroke-width=".92" stroke-miterlimit="10"/>
    <path d="m284.376 286.188.616 20.553s1.049 65.384 3.68 71.567c2.631 6.182 6.799 25.962 6.799 25.962s-1.546 0-1.242 2.162c.197 1.526.302 3.062.313 4.6 0 0-2.935 3.091-4.95 5.253s-6.642 3.091-5.097 4.793c1.546 1.702 5.87 2.006 10.047 1.84 4.177-.165 7.884-3.56 9.43-4.176 1.545-.617 6.026-1.077 6.642-2.475.617-1.399-.92-7.259-.92-7.259s-.156-4.48-.156-5.253c0-.773-.92-1.702-1.077-2.76-.156-1.058-2.162-31.216-2.631-33.691-.469-2.474.791-39.431.791-39.431s8.326 41.75 9.725 46.23a28128.65 28128.65 0 0 0 9.733 30.912s-1.242 2.631-.772 3.551c.469.92 2.934 4.95 2.934 4.95a76.997 76.997 0 0 1 3.248 7.415c.92 2.76 4.324 9.274 7.112 7.268a9.508 9.508 0 0 0 3.394-8.813c-.616-2.466-4.48-9.118-4.6-9.578-.119-.46-.772-4.333-1.076-7.111-.304-2.779-.469-1.389-.773-4.021-.303-2.631-2.631-35.079-2.631-35.079l-2.282-56.571c.728-3.667.83-7.431.304-11.132a74.849 74.849 0 0 0-2.162-9.421l-44.399-.285z" fill="#263238" stroke="#263238" stroke-width=".92" stroke-miterlimit="10"/>
    <path d="M307.85 220.997s-14.95-1.012-17.103-.635c-2.153.377-5.704 4.057-5.704 4.057l-9.596 20.028-3.293-3.302-10.774 10.773a20.744 20.744 0 0 0 4.223 7.709c3.045 3.294 5.704 6.201 6.587 5.695.884-.506 11.786-8.878 11.786-8.878v23.865s-2.282 5.318-1.647 6.339c.728.8 1.64 1.41 2.659 1.775 0 0 16.348 4.306 26.864 3.414 10.515-.893 18.63-3.165 19.016-4.048.386-.884-.764-6.716-.764-7.103 0-.386 4.435-28.888 4.435-28.888.294.295 7.443-15.493 2.539-23.193-2.686-4.204-13.561-5.198-13.561-5.198l-15.667-2.41z" fill="#A5C2FB" stroke="#263238" stroke-width=".92" stroke-miterlimit="10"/>
    <path d="m301.751 227.888.561 7.056-8.547 39.983 4.352 8.427 7.7-9.006-.874-38.769 5.52-5.373-4.793-5.805-3.919 3.487z" fill="#263238" stroke="#263238" stroke-width=".92" stroke-miterlimit="10"/>
    <path d="m275.447 244.448 5.538 6.523M279.681 247.484s3.045 3.487 3.045 4.066" stroke="#263238" stroke-width=".92" stroke-miterlimit="10"/>
    <path d="m299.783 224.797-1.528 5.704 4.692-1.39-3.164-4.314zM307.639 228.347l4.058 8.621 11.785-13.561-1.141-4.186-1.904-1.012-15.079 1.527-5.575 5.06 4.94 6.21 2.916-2.659z" fill="#A5C2FB" stroke="#263238" stroke-width=".92" stroke-miterlimit="10"/>
    <path d="M310.426 179.403s-4.434 2.76-6.339 5.576c-1.904 2.815-1.775 5.961-2.024 7.36-.248 1.398-3.422 8.234-3.68 10.267-.257 2.033.764 10.644 2.034 12.668 1.269 2.024 5.069 2.411 5.069 2.411s-1.27 13.303-.764 13.303 14.067-8.869 14.95-10.258c.883-1.389 2.033-6.21 2.282-6.597.248-.386 4.811-2.355 6.716-4.176a6.625 6.625 0 0 0 2.033-5.962s3.165-6.836 1.647-13.8-4.941-8.869-10.645-10.902c-5.704-2.033-8.335-.626-11.279.11z" fill="#FFEAD1" stroke="#263238" stroke-width=".92" stroke-miterlimit="10"/>
    <path d="M332.347 190.205c-1.518-6.974-4.94-8.869-10.644-10.902-5.704-2.033-8.363-.635-11.279.129 0 0-.755.478-1.776 1.223 1.334-.119 6.017-.368 9.881 1.564 4.6 2.282 7.231 7.728 6.09 8.998-1.141 1.269-2.539 2.659-1.904 3.551a19.151 19.151 0 0 1 1.775 5.446c-.128.378-2.539 4.058-2.152 4.6.386.543 2.152 1.27 2.53.635.377-.635 1.14-2.281 3.045-2.281a4.072 4.072 0 0 1 2.76.92s3.192-6.91 1.674-13.883z" fill="#263238" stroke="#263238" stroke-width=".92" stroke-miterlimit="10"/>
    <path d="M306.242 194.372c-.294.993-.92 1.665-1.481 1.509-.561-.157-.699-1.086-.396-2.08.304-.993.966-1.665 1.482-1.508.515.156.699 1.085.395 2.079zM314.29 197.334c-.304.985-.966 1.665-1.482 1.509-.515-.156-.699-1.086-.404-2.079.294-.994.966-1.665 1.49-1.509.524.156.681 1.086.396 2.079z" fill="#263238"/>
    <path d="M303.958 189.569a3.997 3.997 0 0 1 4.6 1.518M312.33 193.121s3.68-.257 5.069 3.036M308.524 192.735c.066.759.066 1.522 0 2.281-.128.387-6.21 5.833-5.823 6.44.386.607 3.542 1.27 3.928 1.141M303.25 206.176s4.811 2.281 6.964 2.024a5.638 5.638 0 0 0 3.422-1.776" stroke="#263238" stroke-width=".92" stroke-miterlimit="10"/>
    <path d="M305.486 217.703c.975.021 1.95-.062 2.907-.248.515-.258 4.186-1.399 4.186-1.399s-3.551 3.929-4.692 4.941a12.86 12.86 0 0 1-2.907 1.775l.506-5.069z" fill="#263238" stroke="#263238" stroke-width=".92" stroke-miterlimit="10"/>
    <path d="m263.031 147.515-50.496-3.248a7.96 7.96 0 0 0-8.453 7.431l-3.372 52.433a7.958 7.958 0 0 0 7.431 8.452l50.496 3.248a7.958 7.958 0 0 0 8.452-7.431l3.372-52.433a7.957 7.957 0 0 0-7.43-8.452z" fill="#FFD1D2" stroke="#263238" stroke-width=".92" stroke-miterlimit="10"/>
    <path d="m278.558 148.518-50.486-3.247a7.958 7.958 0 0 0-8.452 7.431l-3.373 52.433a7.958 7.958 0 0 0 7.431 8.452l50.487 3.247a7.958 7.958 0 0 0 8.452-7.431l3.372-52.432a7.958 7.958 0 0 0-7.431-8.453z" fill="#FC7D7F"/>
    <path d="m300.878 234.29-20.314-21.905a42.086 42.086 0 0 0-3.137-4.379c-.746-.653-3.598-.837-4.186-.488-.589.35-5.097-.598-5.888-.726a1.145 1.145 0 0 0-1.208.615 1.138 1.138 0 0 0 .233 1.335 3.623 3.623 0 0 0 2.833 1.481 16.42 16.42 0 0 1 3.018.414s-4.453 2.641-5.29 3.027c-.838.386-9.992 1.73-10.746 2.622-.754.892 1.113 1.362 1.886 1.362.94.147 1.851.436 2.705.855.414.184 3.027 2.079 5.428 1.84 2.401-.239 10.506-.92 10.506-.92l17.075 23.322 7.085-8.455z" fill="#FFEAD1" stroke="#263238" stroke-width=".92" stroke-miterlimit="10"/>
    <path d="M328.552 226.452a10.228 10.228 0 0 0-3.809 3.542c-1.141 2.153-15.382 10.801-15.382 10.801l-7.029-5.861-8.28 8.998s10.819 13.736 13.101 14.619c2.281.883 4.6.92 5.446.257.846-.662 23.524-14.361 23.524-14.361" fill="#A5C2FB"/>
    <path d="M328.552 226.452a10.228 10.228 0 0 0-3.809 3.542c-1.141 2.153-15.382 10.801-15.382 10.801l-7.029-5.861-8.28 8.998s10.819 13.736 13.101 14.619c2.281.883 4.6.92 5.446.257.846-.662 23.524-14.361 23.524-14.361" stroke="#263238" stroke-width=".92" stroke-miterlimit="10"/>
    <path d="M309.359 240.795s3.873 2.907 4.508 3.413M312.91 241.752s4.949 2.76 4.82 4.177" stroke="#263238" stroke-width=".92" stroke-miterlimit="10"/>
    <path d="m300.665 232.911-9.503 9.255 4.563 5.069 10.138-10.644-5.198-3.68zM270.635 239.627s-12.42 9.633-12.301 10.396c.12.764 3.552 6.965 3.552 6.965s12.162-11.657 12.548-12.163c.387-.506 1.012-.635.129-1.775-.883-1.141-1.269-4.941-3.928-3.423z" fill="#A5C2FB" stroke="#263238" stroke-width=".92" stroke-miterlimit="10"/>
    <path d="m283.939 259.526.874-23.211" stroke="#263238" stroke-width=".92" stroke-miterlimit="10"/>
    <path d="m229.714 208.614 3.331-58.65 16.146.92c3.474.132 6.911.767 10.203 1.886a12.48 12.48 0 0 1 6.504 5.05c1.49 2.337 2.119 5.557 1.886 9.66a32.033 32.033 0 0 1-.92 6.44 12.093 12.093 0 0 1-2.41 4.766 11.88 11.88 0 0 1-4.646 3.183l6.44 28.842-13.396-.764-4.949-26.68-3.68-.211-1.491 26.275-13.018-.717zm14.877-33.001 3.615.212a7.968 7.968 0 0 0 4.324-.736 5.185 5.185 0 0 0 2.3-2.705c.524-1.416.817-2.907.865-4.416a10.629 10.629 0 0 0-1.039-5.943c-.841-1.454-2.491-2.248-4.95-2.383l-4.195-.239-.92 16.21z" fill="#fff" stroke="#263238" stroke-width=".92" stroke-miterlimit="10"/>
</svg>
