<svg width="48" height="48" viewBox="0 0 48 48" fill="none" xmlns="http://www.w3.org/2000/svg">
<path d="M19.9994 26.6667C19.9994 26.6667 21.7494 28.6667 24.6661 28.6667C27.5828 28.6667 29.3328 26.6667 29.3328 26.6667M28.3328 20H28.3461M20.9994 20H21.0128M24.6661 34.6667C30.9253 34.6667 35.9994 29.5926 35.9994 23.3333C35.9994 17.0741 30.9253 12 24.6661 12C18.4069 12 13.3328 17.0741 13.3328 23.3333C13.3328 24.6 13.5405 25.8181 13.9239 26.9555C14.0682 27.3835 14.1403 27.5975 14.1533 27.7619C14.1662 27.9243 14.1565 28.0381 14.1163 28.1959C14.0756 28.3558 13.9858 28.522 13.8062 28.8544L11.6253 32.8911C11.3143 33.4669 11.1587 33.7548 11.1935 33.977C11.2238 34.1706 11.3377 34.341 11.505 34.443C11.697 34.5601 12.0225 34.5265 12.6735 34.4592L19.5015 33.7534C19.7083 33.732 19.8117 33.7213 19.9059 33.7249C19.9986 33.7284 20.064 33.7372 20.1544 33.758C20.2463 33.7792 20.3618 33.8237 20.593 33.9127C21.857 34.3997 23.2304 34.6667 24.6661 34.6667ZM28.9994 20C28.9994 20.3682 28.7009 20.6667 28.3328 20.6667C27.9646 20.6667 27.6661 20.3682 27.6661 20C27.6661 19.6318 27.9646 19.3333 28.3328 19.3333C28.7009 19.3333 28.9994 19.6318 28.9994 20ZM21.6661 20C21.6661 20.3682 21.3676 20.6667 20.9994 20.6667C20.6312 20.6667 20.3328 20.3682 20.3328 20C20.3328 19.6318 20.6312 19.3333 20.9994 19.3333C21.3676 19.3333 21.6661 19.6318 21.6661 20Z" stroke="#B30000" stroke-width="2.66667" stroke-linecap="round" stroke-linejoin="round"/>
</svg>
