<svg width="456" height="380" viewBox="0 0 456 380" fill="none" xmlns="http://www.w3.org/2000/svg">
<path opacity="0.1" d="M446 365.03C446 368.335 348.291 371 227.5 371C106.709 371 9 368.335 9 365.03C9 361.726 106.709 359 227.5 359C348.291 359 446 361.726 446 365.03Z" fill="#DBE4F0"/>
<path d="M221 14.6926V343.881C221 344.56 220.866 345.233 220.604 345.859C220.343 346.486 219.96 347.053 219.478 347.53C218.996 348.006 218.425 348.381 217.797 348.634C217.169 348.886 216.498 349.01 215.822 348.999H41.64C40.7381 349.008 39.8537 348.749 39.0979 348.255C38.342 347.761 37.7483 347.053 37.3913 346.222C37.1341 345.616 37.0019 344.965 37.003 344.307V14.3025C36.9616 13.2039 37.356 12.1338 38.0997 11.3271C38.8433 10.5204 39.8754 10.0431 40.9691 10H87.092C87.736 10.0123 88.3618 10.2167 88.8899 10.5871C89.418 10.9576 89.8245 11.4773 90.0577 12.0803L91.9761 16.8084C92.1253 17.1856 92.345 17.5306 92.6234 17.8249C92.6648 17.8883 92.7165 17.9442 92.7764 17.9904L92.9765 18.1677C93.0755 18.2519 93.1819 18.327 93.2942 18.3922C93.5079 18.5339 93.7422 18.6416 93.9886 18.7114C94.2947 18.8207 94.6171 18.8767 94.9419 18.8769H163.143C163.783 18.873 164.407 18.6775 164.936 18.3153C165.464 17.9531 165.873 17.4407 166.109 16.8438L168.028 12.1158C168.259 11.5106 168.665 10.9883 169.193 10.6157C169.721 10.243 170.348 10.0369 170.993 10.0236H216.445C217.657 10.0631 218.807 10.5706 219.655 11.4403C220.504 12.3101 220.985 13.475 221 14.6926Z" fill="url(#paint0_linear_314_3363)"/>
<path opacity="0.5" d="M221 32H37V322H221V32Z" fill="white"/>
<path opacity="0.5" d="M221 286H37V322H221V286Z" fill="white"/>
<path opacity="0.5" d="M221 32H37V62H221V32Z" fill="white"/>
<path d="M43 47.0339C42.9977 48.3564 43.2565 49.6662 43.7616 50.8874C44.2667 52.1085 45.0079 53.2166 45.9422 54.1475L46.0707 54.2649C47.4099 55.5721 49.0897 56.4714 50.916 56.8591H51.1261C51.4768 56.9299 51.8317 56.9769 52.1886 57C52.4455 57 52.714 57 52.9825 57H53.216H53.7881C53.9917 56.9881 54.1944 56.9646 54.3953 56.9296C54.6404 56.9296 54.8973 56.8591 55.1425 56.8004H55.2476C56.6359 56.4782 57.9384 55.8575 59.0654 54.981H59.1355L59.3807 54.7697C60.6773 53.6912 61.6817 52.3006 62.3005 50.7273C62.9193 49.1539 63.1325 47.4488 62.9203 45.7704C62.708 44.092 62.0771 42.4948 61.0863 41.1272C60.0955 39.7597 58.7769 38.6661 57.2531 37.9482C55.7293 37.2304 54.0497 36.9114 52.3704 37.0211C50.6911 37.1308 49.0667 37.6655 47.648 38.5756C46.2294 39.4856 45.0626 40.7415 44.2561 42.2265C43.4496 43.7114 43.0296 45.3772 43.035 47.0692L43 47.0339Z" fill="#407BFF"/>
<path d="M47.4668 44.7918C47.4668 44.7918 46.2141 49.57 47.8128 50.9796C49.4116 52.3892 58.3834 52.4011 59.672 50.6212C60.9605 48.8414 58.0374 43 58.0374 43L47.4668 44.7918Z" fill="#263238"/>
<path d="M46 54.0128C47.3398 55.4404 49.0203 56.4227 50.8473 56.8461H51.0575C51.4083 56.9234 51.7634 56.9748 52.1204 57C52.3774 57 52.646 57 52.9146 57H53.1482H53.7206C53.9242 56.987 54.127 56.9613 54.3279 56.9231C54.5732 56.9231 54.8302 56.8461 55.0755 56.782V56.859L55.1806 56.7564C56.5695 56.4045 57.8725 55.7266 59 54.7692C58.9416 54.5897 58.8832 54.3974 58.8131 54.2179H58.743H58.6613C58.4393 54.141 57.9721 53.9744 57.3297 53.7949H57.2597C56.8859 53.6923 56.4537 53.5769 55.9748 53.4744L55.0404 53.2821H54.9003C54.6199 53.2821 54.3279 53.1795 54.0242 53.141H53.6972C53.2417 53.0769 52.7628 53.0385 52.2722 53H51.77H51.1042C50.8239 53 50.5553 53 50.2749 53L49.6092 53.1026L48.4411 53.3205C47.5067 53.5256 46.6658 53.7821 46 54.0128Z" fill="#407BFF"/>
<path opacity="0.6" d="M46 54.0128C47.3398 55.4404 49.0203 56.4227 50.8473 56.8461H51.0575C51.4083 56.9234 51.7634 56.9748 52.1204 57C52.3774 57 52.646 57 52.9146 57H53.1482H53.7206C53.9242 56.987 54.127 56.9613 54.3279 56.9231C54.5732 56.9231 54.8302 56.8461 55.0755 56.782V56.859L55.1806 56.7564C56.5695 56.4045 57.8725 55.7266 59 54.7692C58.9416 54.5897 58.8832 54.3974 58.8131 54.2179H58.743H58.6613C58.4393 54.141 57.9721 53.9744 57.3297 53.7949H57.2597C56.8859 53.6923 56.4537 53.5769 55.9748 53.4744L55.0404 53.2821H54.9003C54.6199 53.2821 54.3279 53.1795 54.0242 53.141H53.6972C53.2417 53.0769 52.7628 53.0385 52.2722 53H51.77H51.1042C50.8239 53 50.5553 53 50.2749 53L49.6092 53.1026L48.4411 53.3205C47.5067 53.5256 46.6658 53.7821 46 54.0128Z" fill="white"/>
<path d="M57.99 44.9141C57.99 44.9141 58.529 37.58 51.7016 39.2463C43.1253 41.3774 48.1082 51.1373 52.3004 49.8904C53.5668 49.4891 54.7288 48.838 55.7096 47.9802C56.6904 47.1223 57.4676 46.0773 57.99 44.9141Z" fill="#263238"/>
<path opacity="0.2" d="M50 53.5583L51.4794 56.5713L51.6086 56.8285H51.82C52.1726 56.9023 52.5296 56.9515 52.8885 56.9755L53.6869 55.8609C53.7691 56.2161 53.8395 56.5958 53.9217 57H54.4971C54.4384 56.3141 54.3914 55.8854 54.3914 55.8854L55.1076 56.9265C55.3542 56.9265 55.6125 56.853 55.8591 56.7918L56 53.5093L55.6947 53.3746C55.3831 53.243 55.0609 53.1405 54.7319 53.0684H54.5206C53.8463 52.9772 53.1635 52.9772 52.4892 53.0684L51.8787 53.1541C51.5449 53.1949 51.215 53.2645 50.8924 53.3623C50.6066 53.4282 50.3244 53.51 50.047 53.6073L50 53.5583Z" fill="black"/>
<path d="M52.9319 54L50 53.145C51.801 51.868 50.8901 49 50.8901 49L53.7906 50.0822C53.6606 50.5001 53.5591 50.9268 53.4869 51.3593C53.1832 53.2316 54 53.3831 54 53.3831L52.9319 54Z" fill="#B97964"/>
<path opacity="0.2" d="M54 50.3535C53.8655 50.8922 53.7606 51.4424 53.6859 52C52.6187 51.2884 51.6981 50.2601 51 49L54 50.3535Z" fill="black"/>
<path d="M53.47 41.015C56.3913 40.8341 57.443 42.2924 57.8519 45.1978C58.3544 48.8266 57.7 51.4719 53.9842 50.9293C48.9362 50.2171 48.5974 41.3541 53.47 41.015Z" fill="#B97964"/>
<path d="M56 45C56.2823 45.5493 56.618 46.0568 57 46.512C56.916 46.6746 56.7956 46.806 56.6525 46.8915C56.5094 46.9769 56.3492 47.0131 56.1899 46.9958L56 45Z" fill="#A24E3F"/>
<path d="M55 45.473C55 45.7429 54.8408 45.9859 54.5622 45.9994C54.2836 46.0129 54.0449 45.8104 54.0051 45.527C53.9653 45.2436 54.1643 45.0141 54.4428 45.0006C54.7214 44.9871 54.9602 45.1896 55 45.473Z" fill="#263238"/>
<path d="M54 44.2481L55 44C55 44 54.5581 44.4726 54 44.2481Z" fill="#263238"/>
<path d="M58 44.473C58 44.7564 57.837 44.9859 57.5722 44.9994C57.3073 45.0129 57.0221 44.8104 57.0017 44.527C56.9813 44.2435 57.1443 44.0141 57.4296 44.0006C57.7148 43.9871 57.9593 44.2031 58 44.473Z" fill="#263238"/>
<path d="M57 44.2599L58 44C58 44 57.6136 44.4608 57 44.2599Z" fill="#263238"/>
<path d="M54 43.0053C53.8118 42.9783 53.6235 43.0541 53.45 43.2267C53.2765 43.3993 53.1224 43.6641 53 44" stroke="#263238" stroke-width="0.834146" stroke-linecap="round" stroke-linejoin="round"/>
<path d="M56 43.0683C56.1662 43.0032 56.3429 42.9843 56.5163 43.013C56.6898 43.0417 56.8553 43.1173 57 43.2338" stroke="#263238" stroke-width="0.834146" stroke-linecap="round" stroke-linejoin="round"/>
<path d="M50.5126 46.5308C51.2005 45.1292 51.5185 43.5745 51.4362 42.0149C51.4362 42.0149 57.3056 39.1543 57.9983 45.2649C57.9983 45.2649 58.2413 39.7873 52.9916 40.0064C47.7419 40.2255 48.2766 47.8942 51.1202 50C50.7459 49.5144 50.4949 48.9448 50.3891 48.3405C50.2833 47.7362 50.3256 47.1151 50.5126 46.5308Z" fill="#263238"/>
<path d="M50.9695 45.9399C50.9253 45.6586 50.7604 45.4039 50.5099 45.2297C50.2594 45.0554 49.9429 44.9754 49.6275 45.0066C48.7735 45.1357 48.5184 46.7441 50.6479 46.9923C50.9141 47.0518 51.0693 46.7738 50.9695 45.9399Z" fill="#B97964"/>
<path d="M57 47.6357C56.8764 48.0812 56.7748 48.537 56.6959 49H56.5088C55.6434 48.9225 55.2691 48.5194 55.1054 48.0853C55.0323 47.8715 55.0002 47.6372 55.0118 47.4031C54.9961 47.2696 54.9961 47.1336 55.0118 47C55.5218 47.3604 56.0841 47.5719 56.6608 47.6202L57 47.6357Z" fill="#263238"/>
<path d="M57 47.604L56.8904 47.9967C56.2215 48.0297 55.5616 47.8172 55.0139 47.3926C54.9954 47.2625 54.9954 47.1301 55.0139 47C55.6277 47.3595 56.3058 47.5657 57 47.604Z" fill="white"/>
<path d="M56 49C55.3833 48.9153 55.1167 48.4746 55 48C55.2339 48.0322 55.4629 48.1529 55.675 48.3559C55.8105 48.5054 55.923 48.7283 56 49Z" fill="#DE5753"/>
<path d="M54.0764 41.0811C54.0764 41.0811 53.1871 45.8609 50.1041 45.9978C47.0212 46.1347 51.3729 39.8719 51.3729 39.8719C51.3729 39.8719 56.2819 37.7387 58.9261 40.1457C61.5703 42.5527 58.4992 44.7087 58.4992 44.7087C58.4992 44.7087 58.4518 41.0469 54.0764 41.0811Z" fill="#263238"/>
<path d="M53.9313 41C53.9313 41 54.5622 44.5714 52 46" stroke="#263238" stroke-width="0.579268" stroke-linecap="round" stroke-linejoin="round"/>
<path d="M50.0034 46.0158C50.0034 46.0344 50.0109 46.0522 50.0244 46.0653C50.0379 46.0784 50.0562 46.0858 50.0753 46.0858H50.351H50.7705L52.9761 45.8877C53.0363 46.2003 53.2071 46.4826 53.4588 46.6857C53.7105 46.8888 54.0274 47 54.3546 47C54.6817 47 54.9986 46.8888 55.2503 46.6857C55.5021 46.4826 55.6728 46.2003 55.733 45.8877C55.739 45.814 55.739 45.74 55.733 45.6663C55.8409 45.5265 55.9368 45.4449 56.0327 45.4449C56.1129 45.4584 56.1854 45.4998 56.2365 45.5614C56.2816 45.7854 56.3828 45.9952 56.5313 46.172C56.6798 46.3488 56.8708 46.4873 57.0876 46.5752L57.3992 46.6567C57.5882 46.7021 57.7856 46.7021 57.9746 46.6567C58.2018 46.598 58.4087 46.4814 58.5739 46.3188C58.8007 46.1186 58.9454 45.8455 58.9815 45.5498C59.0119 45.3709 59.0048 45.188 58.9604 45.0119C58.916 44.8359 58.8354 44.6704 58.7233 44.5255C58.6112 44.3806 58.4701 44.2594 58.3085 44.169C58.1468 44.0787 57.968 44.0212 57.7828 44H57.4591C57.1423 44.0238 56.8433 44.1524 56.6121 44.3645C56.3809 44.5765 56.2314 44.8591 56.1885 45.1652C56.1826 45.235 56.1826 45.3052 56.1885 45.375C56.1333 45.3633 56.076 45.3633 56.0207 45.375C55.9564 45.3788 55.8935 45.3953 55.8358 45.4233C55.7781 45.4513 55.7269 45.4904 55.6851 45.5381C55.6435 45.2433 55.5038 44.9699 55.2874 44.7595C55.0709 44.5491 54.7897 44.4133 54.4864 44.3729H54.3426C54.1468 44.3538 53.9492 44.3818 53.7672 44.4544C53.5425 44.542 53.3449 44.6845 53.1936 44.8683C53.0424 45.0521 52.9427 45.2708 52.9042 45.5031C52.8916 45.5999 52.8916 45.6977 52.9042 45.7944L50.9983 45.9459H50.6027H50.0154C50.0154 45.9459 49.9914 45.9692 50.0034 46.0158ZM56.4283 45.0487C56.469 44.7687 56.613 44.5127 56.8336 44.3283C57.0541 44.144 57.3361 44.0438 57.627 44.0466H57.8667C58.0261 44.0678 58.1794 44.12 58.3176 44.2C58.4558 44.28 58.576 44.3862 58.6711 44.5124C58.7661 44.6385 58.8341 44.7819 58.871 44.9341C58.9078 45.0863 58.9128 45.2442 58.8856 45.3983C58.8466 45.6178 58.7468 45.8227 58.5968 45.9911C58.4468 46.1595 58.2524 46.2849 58.0345 46.3538C57.8565 46.3886 57.6731 46.3886 57.4951 46.3538H57.2554C56.9785 46.2703 56.7421 46.092 56.59 45.8521C56.4379 45.6121 56.3805 45.3267 56.4283 45.0487ZM53.1679 45.4099C53.2171 45.1009 53.3907 44.8235 53.6503 44.6389C53.91 44.4542 54.2345 44.3774 54.5524 44.4253C54.8703 44.4732 55.1556 44.6419 55.3455 44.8943C55.5355 45.1467 55.6145 45.4621 55.5652 45.7712C55.516 46.0802 55.3424 46.3575 55.0828 46.5422C54.8231 46.7268 54.4987 46.8037 54.1808 46.7558C53.8628 46.7079 53.5775 46.5392 53.3876 46.2868C53.1976 46.0344 53.1186 45.719 53.1679 45.4099Z" fill="#263238"/>
<g opacity="0.8">
<path d="M50.0034 46.0158C50.0034 46.0344 50.0109 46.0522 50.0244 46.0653C50.0379 46.0784 50.0562 46.0858 50.0753 46.0858H50.351H50.7705L52.9761 45.8877C53.0363 46.2003 53.2071 46.4826 53.4588 46.6857C53.7105 46.8888 54.0274 47 54.3546 47C54.6817 47 54.9986 46.8888 55.2503 46.6857C55.5021 46.4826 55.6728 46.2003 55.733 45.8877C55.739 45.814 55.739 45.74 55.733 45.6663C55.8409 45.5265 55.9368 45.4449 56.0327 45.4449C56.1129 45.4584 56.1854 45.4998 56.2365 45.5614C56.2816 45.7854 56.3828 45.9952 56.5313 46.172C56.6798 46.3488 56.8708 46.4873 57.0876 46.5752L57.3992 46.6567C57.5882 46.7021 57.7856 46.7021 57.9746 46.6567C58.2018 46.598 58.4087 46.4814 58.5739 46.3188C58.8007 46.1186 58.9454 45.8455 58.9815 45.5498C59.0119 45.3709 59.0048 45.188 58.9604 45.0119C58.916 44.8359 58.8354 44.6704 58.7233 44.5255C58.6112 44.3806 58.4701 44.2594 58.3085 44.169C58.1468 44.0787 57.968 44.0212 57.7828 44H57.4591C57.1423 44.0238 56.8433 44.1524 56.6121 44.3645C56.3809 44.5765 56.2314 44.8591 56.1885 45.1652C56.1826 45.235 56.1826 45.3052 56.1885 45.375C56.1333 45.3633 56.076 45.3633 56.0207 45.375C55.9564 45.3788 55.8935 45.3953 55.8358 45.4233C55.7781 45.4513 55.7269 45.4904 55.6851 45.5381C55.6435 45.2433 55.5038 44.9699 55.2874 44.7595C55.0709 44.5491 54.7897 44.4133 54.4864 44.3729H54.3426C54.1468 44.3538 53.9492 44.3818 53.7672 44.4544C53.5425 44.542 53.3449 44.6845 53.1936 44.8683C53.0424 45.0521 52.9427 45.2708 52.9042 45.5031C52.8916 45.5999 52.8916 45.6977 52.9042 45.7944L50.9983 45.9459H50.6027H50.0154C50.0154 45.9459 49.9914 45.9692 50.0034 46.0158ZM56.4283 45.0487C56.469 44.7687 56.613 44.5127 56.8336 44.3283C57.0541 44.144 57.3361 44.0438 57.627 44.0466H57.8667C58.0261 44.0678 58.1794 44.12 58.3176 44.2C58.4558 44.28 58.576 44.3862 58.6711 44.5124C58.7661 44.6385 58.8341 44.7819 58.871 44.9341C58.9078 45.0863 58.9128 45.2442 58.8856 45.3983C58.8466 45.6178 58.7468 45.8227 58.5968 45.9911C58.4468 46.1595 58.2524 46.2849 58.0345 46.3538C57.8565 46.3886 57.6731 46.3886 57.4951 46.3538H57.2554C56.9785 46.2703 56.7421 46.092 56.59 45.8521C56.4379 45.6121 56.3805 45.3267 56.4283 45.0487ZM53.1679 45.4099C53.2171 45.1009 53.3907 44.8235 53.6503 44.6389C53.91 44.4542 54.2345 44.3774 54.5524 44.4253C54.8703 44.4732 55.1556 44.6419 55.3455 44.8943C55.5355 45.1467 55.6145 45.4621 55.5652 45.7712C55.516 46.0802 55.3424 46.3575 55.0828 46.5422C54.8231 46.7268 54.4987 46.8037 54.1808 46.7558C53.8628 46.7079 53.5775 46.5392 53.3876 46.2868C53.1976 46.0344 53.1186 45.719 53.1679 45.4099Z" fill="white"/>
</g>
<path d="M51.7636 52L54 54.2513L53.1054 57L50 53.4921L51.7636 52Z" fill="#407BFF"/>
<path d="M54.381 53L54 54.6552L55.2381 57L56 53.953L54.381 53Z" fill="#407BFF"/>
<path d="M56 57C57.3437 56.6881 58.6042 56.0872 59.6949 55.2386H59.7627L60 55.0341L59.5141 54.7955C58.6287 54.4242 57.7035 54.1573 56.7571 54C56.7549 54.0265 56.7549 54.0531 56.7571 54.0795C56.8439 54.5925 56.8213 55.1181 56.6908 55.6216C56.5603 56.1251 56.3248 56.595 56 57Z" fill="#263238"/>
<path d="M46 53.6348L46.1239 53.7372C47.4156 54.8774 49.0358 55.6618 50.7973 56H51C50.8835 55.9268 50.7742 55.8446 50.6734 55.7543C50.527 55.6416 50.3806 55.5085 50.2342 55.3754C50.0878 55.2423 49.8851 55.0375 49.7275 54.8635C49.5698 54.6894 49.6261 54.7406 49.5698 54.6894L49.2883 54.3515L49.0293 54.0136C48.9505 53.9113 48.8716 53.8089 48.8153 53.7167C48.759 53.6246 48.5113 53.2867 48.4324 53.1536C48.3985 53.1044 48.3684 53.0531 48.3423 53C48.3423 53 47.1712 53.2764 46 53.6348Z" fill="#263238"/>
<path opacity="0.1" d="M46 53.6348L46.1239 53.7372C47.4156 54.8774 49.0358 55.6618 50.7973 56H51C50.8835 55.9268 50.7742 55.8446 50.6734 55.7543C50.527 55.6416 50.3806 55.5085 50.2342 55.3754C50.0878 55.2423 49.8851 55.0375 49.7275 54.8635C49.5698 54.6894 49.6261 54.7406 49.5698 54.6894L49.2883 54.3515L49.0293 54.0136C48.9505 53.9113 48.8716 53.8089 48.8153 53.7167C48.759 53.6246 48.5113 53.2867 48.4324 53.1536C48.3985 53.1044 48.3684 53.0531 48.3423 53C48.3423 53 47.1712 53.2764 46 53.6348Z" fill="white"/>
<path opacity="0.6" d="M51.7636 52L54 54.2513L53.1054 57L50 53.4921L51.7636 52Z" fill="white"/>
<path opacity="0.6" d="M54.381 53L54 54.6552L55.2381 57L56 53.953L54.381 53Z" fill="white"/>
<g opacity="0.1">
<path d="M56 56C57.3437 55.6881 58.6042 55.0872 59.6949 54.2386H59.7627L60 54.0341L59.5141 53.7955C58.6287 53.4242 57.7035 53.1573 56.7571 53C56.7549 53.0265 56.7549 53.0531 56.7571 53.0795C56.8439 53.5925 56.8213 54.1181 56.6908 54.6216C56.5603 55.1251 56.3248 55.595 56 56Z" fill="white"/>
<path d="M46 53.6348L46.1239 53.7372C47.4156 54.8774 49.0358 55.6618 50.7973 56H51C50.8835 55.9268 50.7742 55.8446 50.6734 55.7543C50.527 55.6416 50.3806 55.5085 50.2342 55.3754C50.0878 55.2423 49.8851 55.0375 49.7275 54.8635C49.5698 54.6894 49.6261 54.7406 49.5698 54.6894L49.2883 54.3515L49.0293 54.0136C48.9505 53.9113 48.8716 53.8089 48.8153 53.7167C48.759 53.6246 48.5113 53.2867 48.4324 53.1536C48.3985 53.1044 48.3684 53.0531 48.3423 53C48.3423 53 47.1712 53.2764 46 53.6348Z" fill="white"/>
</g>
<path opacity="0.2" d="M105.728 50H70.2725C69.6698 50 69.0918 49.7366 68.6656 49.2678C68.2395 48.7989 68 48.1631 68 47.5C67.9985 47.1712 68.0562 46.8454 68.1698 46.5413C68.2834 46.2372 68.4508 45.9609 68.6621 45.7284C68.8734 45.4959 69.1246 45.3118 69.401 45.1868C69.6774 45.0618 69.9736 44.9983 70.2725 45H105.728C106.026 44.9983 106.323 45.0618 106.599 45.1868C106.875 45.3118 107.127 45.4959 107.338 45.7284C107.549 45.9609 107.717 46.2372 107.83 46.5413C107.944 46.8454 108.002 47.1712 108 47.5C108 48.1631 107.761 48.7989 107.334 49.2678C106.908 49.7366 106.33 50 105.728 50Z" fill="black"/>
<g opacity="0.2">
<path d="M171 44H163V50H171V44Z" fill="black"/>
<path d="M173 50L171 49.0209V45.9791L173 45V50Z" fill="black"/>
</g>
<g opacity="0.2">
<path d="M192.037 42.4479L193.289 43.2834L190.886 45.6777L190.197 45.0916C189.976 44.9098 189.695 44.8156 189.409 44.8271C189.123 44.8386 188.85 44.955 188.645 45.1539L186.417 47.3736C186.226 47.5862 186.12 47.8615 186.12 48.1467C186.12 48.432 186.226 48.7073 186.417 48.9199L187.005 49.6057L184.602 52L183.763 50.753C183.407 50.2388 183.243 49.6164 183.3 48.9943C183.357 48.3723 183.632 47.7899 184.076 47.3487L188.732 42.7098C189.174 42.303 189.74 42.0559 190.339 42.0084C190.939 41.9609 191.537 42.1157 192.037 42.4479Z" fill="black"/>
<path d="M190.45 45.8177L193.289 43L193.999 43.7044L191.16 46.5222L190.45 45.8177Z" fill="black"/>
<path d="M184.45 51.8175L187.289 49L187.999 49.7044L185.16 52.5219L184.45 51.8175Z" fill="black"/>
</g>
<g opacity="0.2">
<path d="M214.439 43.0064H206.407C206.293 43.0254 206.19 43.0854 206.115 43.1759C206.041 43.2663 206 43.3812 206 43.5C206 43.6188 206.041 43.7337 206.115 43.8241C206.19 43.9145 206.293 43.9746 206.407 43.9936H214.439C214.508 44.0052 214.579 44.001 214.646 43.9815C214.714 43.9621 214.776 43.9277 214.83 43.8807C214.883 43.8338 214.926 43.7754 214.955 43.7097C214.985 43.644 215 43.5724 215 43.5C215 43.4276 214.985 43.356 214.955 43.2903C214.926 43.2246 214.883 43.1662 214.83 43.1193C214.776 43.0723 214.714 43.0379 214.646 43.0184C214.579 42.999 214.508 42.9949 214.439 43.0064Z" fill="black"/>
<path d="M214.515 45H206.472C206.346 45.0034 206.226 45.0582 206.138 45.1528C206.049 45.2474 206 45.3743 206 45.5064C206 45.6373 206.05 45.7628 206.138 45.8553C206.227 45.9478 206.347 45.9998 206.472 45.9998H214.515C214.578 46.0016 214.641 45.9901 214.7 45.9661C214.759 45.942 214.812 45.906 214.857 45.86C214.902 45.814 214.938 45.759 214.963 45.6983C214.987 45.6375 215 45.5723 215 45.5064C215 45.3721 214.949 45.2433 214.858 45.1483C214.767 45.0534 214.644 45 214.515 45Z" fill="black"/>
<path d="M214.527 48H206.473C206.411 48 206.349 48.0129 206.292 48.0381C206.235 48.0632 206.183 48.1 206.139 48.1464C206.095 48.1929 206.06 48.248 206.036 48.3087C206.012 48.3693 206 48.4343 206 48.5C206 48.5657 206.012 48.6307 206.036 48.6913C206.06 48.752 206.095 48.8071 206.139 48.8536C206.183 48.9 206.235 48.9368 206.292 48.962C206.349 48.9871 206.411 49 206.473 49H214.527C214.589 49 214.651 48.9871 214.708 48.962C214.765 48.9368 214.818 48.9 214.861 48.8536C214.905 48.8071 214.94 48.752 214.964 48.6913C214.988 48.6307 215 48.5657 215 48.5C215 48.4343 214.988 48.3693 214.964 48.3087C214.94 48.248 214.905 48.1929 214.861 48.1464C214.818 48.1 214.765 48.0632 214.708 48.0381C214.651 48.0129 214.589 48 214.527 48Z" fill="black"/>
<path d="M214.527 50H206.473C206.348 50 206.227 50.0527 206.139 50.1464C206.05 50.2402 206 50.3674 206 50.5C206 50.6326 206.05 50.7598 206.139 50.8536C206.227 50.9473 206.348 51 206.473 51H214.527C214.652 51 214.773 50.9473 214.861 50.8536C214.95 50.7598 215 50.6326 215 50.5C215 50.3674 214.95 50.2402 214.861 50.1464C214.773 50.0527 214.652 50 214.527 50Z" fill="black"/>
</g>
<path opacity="0.6" d="M59 24H61V21H59V24Z" fill="white"/>
<path opacity="0.6" d="M55 24H57V20H55V24Z" fill="white"/>
<path opacity="0.6" d="M51 24H53V19H51V24Z" fill="white"/>
<path opacity="0.6" d="M47 24H49V18H47V24Z" fill="white"/>
<path opacity="0.6" d="M199 20H198V23H199V20Z" fill="white"/>
<path opacity="0.6" d="M200 24H211V18H200V24Z" fill="white"/>
<path d="M80.3112 313H203.689C208.831 313 213 308.747 213 303.5C213 298.253 208.831 294 203.689 294H80.3112C75.1688 294 71 298.253 71 303.5C71 308.747 75.1688 313 80.3112 313Z" fill="white"/>
<rect opacity="0.3" x="89" y="343" width="80" height="3" rx="1.5" fill="#810202"/>
<path d="M131.45 101.078L77.6692 101.467L72 105V77.9132C72 77.0569 72.1683 76.2091 72.4952 75.4182C72.8221 74.6273 73.3013 73.9088 73.9053 73.3039C74.5092 72.699 75.2262 72.2195 76.015 71.8929C76.8039 71.5663 77.6492 71.399 78.5026 71.4006L131.45 71.0002C132.308 70.994 133.159 71.1581 133.953 71.4832C134.748 71.8083 135.47 72.2879 136.079 72.8944C136.688 73.5008 137.171 74.2222 137.501 75.0168C137.83 75.8115 138 76.6638 138 77.5246V94.5657C137.998 95.4255 137.828 96.2765 137.497 97.0698C137.167 97.8631 136.683 98.583 136.075 99.1882C135.466 99.7935 134.744 100.272 133.951 100.596C133.157 100.921 132.307 101.085 131.45 101.078Z" fill="#4883F8"/>
<path d="M80 80H128" stroke="white" stroke-width="1.15854" stroke-linecap="round" stroke-linejoin="round"/>
<path d="M80 86H128" stroke="white" stroke-width="1.15854" stroke-linecap="round" stroke-linejoin="round"/>
<path d="M80 92H110" stroke="white" stroke-width="1.15854" stroke-linecap="round" stroke-linejoin="round"/>
<path d="M54.6623 313C59.6328 313 63.6793 308.97 63.7003 304C63.7213 299.029 59.7088 295 54.7383 295C49.7677 295 45.7213 299.029 45.7003 304C45.6793 308.97 49.6917 313 54.6623 313Z" fill="#407BFF"/>
<g opacity="0.05">
<path d="M114 18.8916L64.7373 205.19L64.1875 207.28L63.2984 210.634L62.7369 212.724L37 310V192.272L85.2215 10H86.7891C87.4293 10.0123 88.0514 10.2165 88.5763 10.5866C89.1012 10.9566 89.5053 11.4758 89.7372 12.0783L91.6323 16.8015C91.8666 17.4004 92.2719 17.9155 92.7968 18.2814C93.3217 18.6472 93.9425 18.8473 94.5804 18.8562L114 18.8916Z" fill="white"/>
<path d="M130.976 19L81.7541 204.239L81.4601 205.35L78.7673 215.499L78.4734 216.61L43.3027 349H41.2449C40.3439 349.009 39.4603 348.75 38.7051 348.256C37.9499 347.762 37.3567 347.055 37 346.223L71.4298 216.61L71.7356 215.499L74.4283 205.35L74.7223 204.239L123.945 19.0118H131L130.976 19Z" fill="white"/>
</g>
<path d="M47 81.0339C46.9977 82.3564 47.2565 83.6662 47.7616 84.8874C48.2667 86.1085 49.0079 87.2166 49.9422 88.1475L50.0707 88.2649C51.4099 89.5721 53.0897 90.4714 54.916 90.8591H55.1261C55.4768 90.9299 55.8317 90.9769 56.1886 91C56.4455 91 56.714 91 56.9825 91H57.216H57.7881C57.9917 90.9881 58.1944 90.9646 58.3953 90.9296C58.6404 90.9296 58.8973 90.8591 59.1425 90.8004H59.2476C60.6359 90.4782 61.9384 89.8575 63.0654 88.981H63.1355L63.3807 88.7697C64.6773 87.6912 65.6817 86.3006 66.3005 84.7273C66.9193 83.1539 67.1325 81.4488 66.9203 79.7704C66.708 78.092 66.0771 76.4948 65.0863 75.1272C64.0955 73.7597 62.7769 72.6661 61.2531 71.9482C59.7293 71.2304 58.0497 70.9114 56.3704 71.0211C54.6911 71.1308 53.0667 71.6655 51.648 72.5756C50.2294 73.4856 49.0626 74.7415 48.2561 76.2265C47.4496 77.7114 47.0296 79.3772 47.035 81.0692L47 81.0339Z" fill="#407BFF"/>
<path d="M50.4668 79.7918C50.4668 79.7918 49.2141 84.57 50.8128 85.9796C52.4116 87.3892 61.3834 87.4011 62.672 85.6212C63.9605 83.8414 61.0374 78 61.0374 78L50.4668 79.7918Z" fill="#263238"/>
<path d="M50 89.0128C51.3398 90.4404 53.0203 91.4227 54.8473 91.8461H55.0575C55.4083 91.9234 55.7634 91.9748 56.1204 92C56.3774 92 56.646 92 56.9146 92H57.1482H57.7206C57.9242 91.987 58.127 91.9613 58.3279 91.9231C58.5732 91.9231 58.8302 91.8461 59.0755 91.782V91.859L59.1806 91.7564C60.5695 91.4045 61.8725 90.7266 63 89.7692C62.9416 89.5897 62.8832 89.3974 62.8131 89.2179H62.743H62.6613C62.4393 89.141 61.9721 88.9744 61.3297 88.7949H61.2597C60.8859 88.6923 60.4537 88.5769 59.9748 88.4744L59.0404 88.2821H58.9003C58.6199 88.2821 58.3279 88.1795 58.0242 88.141H57.6972C57.2417 88.0769 56.7628 88.0385 56.2722 88H55.77H55.1042C54.8239 88 54.5553 88 54.2749 88L53.6092 88.1026L52.4411 88.3205C51.5067 88.5256 50.6658 88.7821 50 89.0128Z" fill="#407BFF"/>
<path opacity="0.6" d="M50 89.0128C51.3398 90.4404 53.0203 91.4227 54.8473 91.8461H55.0575C55.4083 91.9234 55.7634 91.9748 56.1204 92C56.3774 92 56.646 92 56.9146 92H57.1482H57.7206C57.9242 91.987 58.127 91.9613 58.3279 91.9231C58.5732 91.9231 58.8302 91.8461 59.0755 91.782V91.859L59.1806 91.7564C60.5695 91.4045 61.8725 90.7266 63 89.7692C62.9416 89.5897 62.8832 89.3974 62.8131 89.2179H62.743H62.6613C62.4393 89.141 61.9721 88.9744 61.3297 88.7949H61.2597C60.8859 88.6923 60.4537 88.5769 59.9748 88.4744L59.0404 88.2821H58.9003C58.6199 88.2821 58.3279 88.1795 58.0242 88.141H57.6972C57.2417 88.0769 56.7628 88.0385 56.2722 88H55.77H55.1042C54.8239 88 54.5553 88 54.2749 88L53.6092 88.1026L52.4411 88.3205C51.5067 88.5256 50.6658 88.7821 50 89.0128Z" fill="white"/>
<path d="M61.99 78.9141C61.99 78.9141 62.529 71.58 55.7016 73.2463C47.1253 75.3774 52.1082 85.1373 56.3004 83.8904C57.5668 83.4891 58.7288 82.838 59.7096 81.9802C60.6904 81.1223 61.4676 80.0773 61.99 78.9141Z" fill="#263238"/>
<path opacity="0.2" d="M53 88.5583L54.4794 91.5713L54.6086 91.8285H54.82C55.1726 91.9023 55.5296 91.9515 55.8885 91.9755L56.6869 90.8609C56.7691 91.2161 56.8395 91.5958 56.9217 92H57.4971C57.4384 91.3141 57.3914 90.8854 57.3914 90.8854L58.1076 91.9265C58.3542 91.9265 58.6125 91.853 58.8591 91.7918L59 88.5093L58.6947 88.3746C58.3831 88.243 58.0609 88.1405 57.7319 88.0684H57.5206C56.8463 87.9772 56.1635 87.9772 55.4892 88.0684L54.8787 88.1541C54.5449 88.1949 54.215 88.2645 53.8924 88.3623C53.6066 88.4282 53.3244 88.51 53.047 88.6073L53 88.5583Z" fill="black"/>
<path d="M56.9319 88L54 87.145C55.801 85.868 54.8901 83 54.8901 83L57.7906 84.0822C57.6606 84.5001 57.5591 84.9268 57.4869 85.3593C57.1832 87.2316 58 87.3831 58 87.3831L56.9319 88Z" fill="#B97964"/>
<path opacity="0.2" d="M58 84.3535C57.8655 84.8922 57.7606 85.4424 57.6859 86C56.6187 85.2884 55.6981 84.2601 55 83L58 84.3535Z" fill="black"/>
<path d="M57.47 75.015C60.3913 74.8341 61.443 76.2924 61.8519 79.1978C62.3544 82.8266 61.7 85.4719 57.9842 84.9293C52.9362 84.2171 52.5974 75.3541 57.47 75.015Z" fill="#B97964"/>
<path d="M60 79C60.2823 79.5493 60.618 80.0568 61 80.512C60.916 80.6746 60.7956 80.806 60.6525 80.8915C60.5094 80.9769 60.3492 81.0131 60.1899 80.9958L60 79Z" fill="#A24E3F"/>
<path d="M58 79.473C58 79.7429 57.8408 79.9859 57.5622 79.9994C57.2836 80.0129 57.0449 79.8104 57.0051 79.527C56.9653 79.2436 57.1643 79.0141 57.4428 79.0006C57.7214 78.9871 57.9602 79.1896 58 79.473Z" fill="#263238"/>
<path d="M58 79.2481L59 79C59 79 58.5581 79.4726 58 79.2481Z" fill="#263238"/>
<path d="M61 79.473C61 79.7564 60.837 79.9859 60.5722 79.9994C60.3073 80.0129 60.0221 79.8104 60.0017 79.527C59.9813 79.2435 60.1443 79.0141 60.4296 79.0006C60.7148 78.9871 60.9593 79.2031 61 79.473Z" fill="#263238"/>
<path d="M61 78.2599L62 78C62 78 61.6136 78.4608 61 78.2599Z" fill="#263238"/>
<path d="M58 77.0053C57.8118 76.9783 57.6235 77.0541 57.45 77.2267C57.2765 77.3993 57.1224 77.6641 57 78" stroke="#263238" stroke-width="0.834146" stroke-linecap="round" stroke-linejoin="round"/>
<path d="M60 77.0683C60.1662 77.0032 60.3429 76.9843 60.5163 77.013C60.6898 77.0417 60.8553 77.1173 61 77.2338" stroke="#263238" stroke-width="0.834146" stroke-linecap="round" stroke-linejoin="round"/>
<path d="M54.5126 80.5308C55.2005 79.1292 55.5185 77.5745 55.4362 76.0149C55.4362 76.0149 61.3056 73.1543 61.9983 79.2649C61.9983 79.2649 62.2413 73.7873 56.9916 74.0064C51.7419 74.2255 52.2766 81.8942 55.1202 84C54.7459 83.5144 54.4949 82.9448 54.3891 82.3405C54.2833 81.7362 54.3256 81.1151 54.5126 80.5308Z" fill="#263238"/>
<path d="M54.9695 80.9399C54.9253 80.6586 54.7604 80.4039 54.5099 80.2297C54.2594 80.0554 53.9429 79.9754 53.6275 80.0066C52.7735 80.1357 52.5184 81.7441 54.6479 81.9923C54.9141 82.0518 55.0693 81.7738 54.9695 80.9399Z" fill="#B97964"/>
<path d="M60 82.6357C59.8764 83.0812 59.7748 83.537 59.6959 84H59.5088C58.6434 83.9225 58.2691 83.5194 58.1054 83.0853C58.0323 82.8715 58.0002 82.6372 58.0118 82.4031C57.9961 82.2696 57.9961 82.1336 58.0118 82C58.5218 82.3604 59.0841 82.5719 59.6608 82.6202L60 82.6357Z" fill="#263238"/>
<path d="M60 82.604L59.8904 82.9967C59.2215 83.0297 58.5616 82.8172 58.0139 82.3926C57.9954 82.2625 57.9954 82.1301 58.0139 82C58.6277 82.3595 59.3058 82.5657 60 82.604Z" fill="white"/>
<path d="M59 83C58.3833 82.9153 58.1167 82.4746 58 82C58.2339 82.0322 58.4629 82.1529 58.675 82.3559C58.8105 82.5054 58.923 82.7283 59 83Z" fill="#DE5753"/>
<path d="M57.0764 75.0811C57.0764 75.0811 56.1871 79.8609 53.1041 79.9978C50.0212 80.1347 54.3729 73.8719 54.3729 73.8719C54.3729 73.8719 59.2819 71.7387 61.9261 74.1457C64.5703 76.5527 61.4992 78.7087 61.4992 78.7087C61.4992 78.7087 61.4518 75.0469 57.0764 75.0811Z" fill="#263238"/>
<path d="M56.9313 75C56.9313 75 57.5622 78.5714 55 80" stroke="#263238" stroke-width="0.579268" stroke-linecap="round" stroke-linejoin="round"/>
<path d="M54.0034 80.0158C54.0034 80.0344 54.0109 80.0522 54.0244 80.0653C54.0379 80.0784 54.0562 80.0858 54.0753 80.0858H54.351H54.7705L56.9761 79.8877C57.0363 80.2003 57.2071 80.4826 57.4588 80.6857C57.7105 80.8888 58.0274 81 58.3546 81C58.6817 81 58.9986 80.8888 59.2503 80.6857C59.5021 80.4826 59.6728 80.2003 59.733 79.8877C59.739 79.814 59.739 79.74 59.733 79.6663C59.8409 79.5265 59.9368 79.4449 60.0327 79.4449C60.1129 79.4584 60.1854 79.4998 60.2365 79.5614C60.2816 79.7854 60.3828 79.9952 60.5313 80.172C60.6798 80.3488 60.8708 80.4873 61.0876 80.5752L61.3992 80.6567C61.5882 80.7021 61.7856 80.7021 61.9746 80.6567C62.2018 80.598 62.4087 80.4814 62.5739 80.3188C62.8007 80.1186 62.9454 79.8455 62.9815 79.5498C63.0119 79.3709 63.0048 79.188 62.9604 79.0119C62.916 78.8359 62.8354 78.6704 62.7233 78.5255C62.6112 78.3806 62.4701 78.2594 62.3085 78.169C62.1468 78.0787 61.968 78.0212 61.7828 78H61.4591C61.1423 78.0238 60.8433 78.1524 60.6121 78.3645C60.3809 78.5765 60.2314 78.8591 60.1885 79.1652C60.1826 79.235 60.1826 79.3052 60.1885 79.375C60.1333 79.3633 60.076 79.3633 60.0207 79.375C59.9564 79.3788 59.8935 79.3953 59.8358 79.4233C59.7781 79.4513 59.7269 79.4904 59.6851 79.5381C59.6435 79.2433 59.5038 78.9699 59.2874 78.7595C59.0709 78.5491 58.7897 78.4133 58.4864 78.3729H58.3426C58.1468 78.3538 57.9492 78.3818 57.7672 78.4544C57.5425 78.542 57.3449 78.6845 57.1936 78.8683C57.0424 79.0521 56.9427 79.2708 56.9042 79.5031C56.8916 79.5999 56.8916 79.6977 56.9042 79.7944L54.9983 79.9459H54.6027H54.0154C54.0154 79.9459 53.9914 79.9692 54.0034 80.0158ZM60.4283 79.0487C60.469 78.7687 60.613 78.5127 60.8336 78.3283C61.0541 78.144 61.3361 78.0438 61.627 78.0466H61.8667C62.0261 78.0678 62.1794 78.12 62.3176 78.2C62.4558 78.28 62.576 78.3862 62.6711 78.5124C62.7661 78.6385 62.8341 78.7819 62.871 78.9341C62.9078 79.0863 62.9128 79.2442 62.8856 79.3983C62.8466 79.6178 62.7468 79.8227 62.5968 79.9911C62.4468 80.1595 62.2524 80.2849 62.0345 80.3538C61.8565 80.3886 61.6731 80.3886 61.4951 80.3538H61.2554C60.9785 80.2703 60.7421 80.092 60.59 79.8521C60.4379 79.6121 60.3805 79.3267 60.4283 79.0487ZM57.1679 79.4099C57.1923 79.2569 57.2474 79.1101 57.3302 78.9778C57.413 78.8455 57.5218 78.7303 57.6503 78.6389C57.7789 78.5475 57.9247 78.4815 58.0795 78.4449C58.2343 78.4082 58.3949 78.4016 58.5524 78.4253C58.7098 78.449 58.8608 78.5027 58.9969 78.5831C59.133 78.6636 59.2515 78.7693 59.3455 78.8943C59.4396 79.0193 59.5074 79.161 59.5451 79.3115C59.5828 79.4619 59.5896 79.6181 59.5652 79.7712C59.516 80.0802 59.3424 80.3575 59.0828 80.5422C58.8231 80.7268 58.4987 80.8037 58.1808 80.7558C57.8628 80.7079 57.5775 80.5392 57.3876 80.2868C57.1976 80.0344 57.1186 79.719 57.1679 79.4099Z" fill="#263238"/>
<g opacity="0.8">
<path d="M54.0034 80.0158C54.0034 80.0344 54.0109 80.0522 54.0244 80.0653C54.0379 80.0784 54.0562 80.0858 54.0753 80.0858H54.351H54.7705L56.9761 79.8877C57.0363 80.2003 57.2071 80.4826 57.4588 80.6857C57.7105 80.8888 58.0274 81 58.3546 81C58.6817 81 58.9986 80.8888 59.2503 80.6857C59.5021 80.4826 59.6728 80.2003 59.733 79.8877C59.739 79.814 59.739 79.74 59.733 79.6663C59.8409 79.5265 59.9368 79.4449 60.0327 79.4449C60.1129 79.4584 60.1854 79.4998 60.2365 79.5614C60.2816 79.7854 60.3828 79.9952 60.5313 80.172C60.6798 80.3488 60.8708 80.4873 61.0876 80.5752L61.3992 80.6567C61.5882 80.7021 61.7856 80.7021 61.9746 80.6567C62.2018 80.598 62.4087 80.4814 62.5739 80.3188C62.8007 80.1186 62.9454 79.8455 62.9815 79.5498C63.0119 79.3709 63.0048 79.188 62.9604 79.0119C62.916 78.8359 62.8354 78.6704 62.7233 78.5255C62.6112 78.3806 62.4701 78.2594 62.3085 78.169C62.1468 78.0787 61.968 78.0212 61.7828 78H61.4591C61.1423 78.0238 60.8433 78.1524 60.6121 78.3645C60.3809 78.5765 60.2314 78.8591 60.1885 79.1652C60.1826 79.235 60.1826 79.3052 60.1885 79.375C60.1333 79.3633 60.076 79.3633 60.0207 79.375C59.9564 79.3788 59.8935 79.3953 59.8358 79.4233C59.7781 79.4513 59.7269 79.4904 59.6851 79.5381C59.6435 79.2433 59.5038 78.9699 59.2874 78.7595C59.0709 78.5491 58.7897 78.4133 58.4864 78.3729H58.3426C58.1468 78.3538 57.9492 78.3818 57.7672 78.4544C57.5425 78.542 57.3449 78.6845 57.1936 78.8683C57.0424 79.0521 56.9427 79.2708 56.9042 79.5031C56.8916 79.5999 56.8916 79.6977 56.9042 79.7944L54.9983 79.9459H54.6027H54.0154C54.0154 79.9459 53.9914 79.9692 54.0034 80.0158ZM60.4283 79.0487C60.469 78.7687 60.613 78.5127 60.8336 78.3283C61.0541 78.144 61.3361 78.0438 61.627 78.0466H61.8667C62.0261 78.0678 62.1794 78.12 62.3176 78.2C62.4558 78.28 62.576 78.3862 62.6711 78.5124C62.7661 78.6385 62.8341 78.7819 62.871 78.9341C62.9078 79.0863 62.9128 79.2442 62.8856 79.3983C62.8466 79.6178 62.7468 79.8227 62.5968 79.9911C62.4468 80.1595 62.2524 80.2849 62.0345 80.3538C61.8565 80.3886 61.6731 80.3886 61.4951 80.3538H61.2554C60.9785 80.2703 60.7421 80.092 60.59 79.8521C60.4379 79.6121 60.3805 79.3267 60.4283 79.0487ZM57.1679 79.4099C57.1923 79.2569 57.2474 79.1101 57.3302 78.9778C57.413 78.8455 57.5218 78.7303 57.6503 78.6389C57.7789 78.5475 57.9247 78.4815 58.0795 78.4449C58.2343 78.4082 58.3949 78.4016 58.5524 78.4253C58.7098 78.449 58.8608 78.5027 58.9969 78.5831C59.133 78.6636 59.2515 78.7693 59.3455 78.8943C59.4396 79.0193 59.5074 79.161 59.5451 79.3115C59.5828 79.4619 59.5896 79.6181 59.5652 79.7712C59.516 80.0802 59.3424 80.3575 59.0828 80.5422C58.8231 80.7268 58.4987 80.8037 58.1808 80.7558C57.8628 80.7079 57.5775 80.5392 57.3876 80.2868C57.1976 80.0344 57.1186 79.719 57.1679 79.4099Z" fill="white"/>
</g>
<path d="M54.7636 87L57 89.2513L56.1054 92L53 88.4921L54.7636 87Z" fill="#407BFF"/>
<path d="M57.381 87L57 88.6552L58.2381 91L59 87.953L57.381 87Z" fill="#407BFF"/>
<path d="M59 91C60.3437 90.6881 61.6042 90.0872 62.6949 89.2386H62.7627L63 89.0341L62.5141 88.7955C61.6287 88.4242 60.7035 88.1573 59.7571 88C59.7549 88.0265 59.7549 88.0531 59.7571 88.0795C59.8439 88.5925 59.8213 89.1181 59.6908 89.6216C59.5603 90.1251 59.3248 90.595 59 91Z" fill="#263238"/>
<path d="M50 88.6348L50.1239 88.7372C51.4156 89.8774 53.0358 90.6618 54.7973 91H55C54.8835 90.9268 54.7742 90.8446 54.6734 90.7543C54.527 90.6416 54.3806 90.5085 54.2342 90.3754C54.0878 90.2423 53.8851 90.0375 53.7275 89.8635C53.5698 89.6894 53.6261 89.7406 53.5698 89.6894L53.2883 89.3515L53.0293 89.0136C52.9505 88.9113 52.8716 88.8089 52.8153 88.7167C52.759 88.6246 52.5113 88.2867 52.4324 88.1536C52.3985 88.1044 52.3684 88.0531 52.3423 88C52.3423 88 51.1712 88.2764 50 88.6348Z" fill="#263238"/>
<path opacity="0.1" d="M50 88.6348L50.1239 88.7372C51.4156 89.8774 53.0358 90.6618 54.7973 91H55C54.8835 90.9268 54.7742 90.8446 54.6734 90.7543C54.527 90.6416 54.3806 90.5085 54.2342 90.3754C54.0878 90.2423 53.8851 90.0375 53.7275 89.8635C53.5698 89.6894 53.6261 89.7406 53.5698 89.6894L53.2883 89.3515L53.0293 89.0136C52.9505 88.9113 52.8716 88.8089 52.8153 88.7167C52.759 88.6246 52.5113 88.2867 52.4324 88.1536C52.3985 88.1044 52.3684 88.0531 52.3423 88C52.3423 88 51.1712 88.2764 50 88.6348Z" fill="white"/>
<path opacity="0.6" d="M54.7636 87L57 89.2513L56.1054 92L53 88.4921L54.7636 87Z" fill="white"/>
<path opacity="0.6" d="M57.381 87L57 88.6552L58.2381 91L59 87.953L57.381 87Z" fill="white"/>
<g opacity="0.1">
<path d="M60 91C61.3437 90.6881 62.6042 90.0872 63.6949 89.2386H63.7627L64 89.0341L63.5141 88.7955C62.6287 88.4242 61.7035 88.1573 60.7571 88C60.7549 88.0265 60.7549 88.0531 60.7571 88.0795C60.8439 88.5925 60.8213 89.1181 60.6908 89.6216C60.5603 90.1251 60.3248 90.595 60 91Z" fill="white"/>
<path d="M50 88.6348L50.1239 88.7372C51.4156 89.8774 53.0358 90.6618 54.7973 91H55C54.8835 90.9268 54.7742 90.8446 54.6734 90.7543C54.527 90.6416 54.3806 90.5085 54.2342 90.3754C54.0878 90.2423 53.8851 90.0375 53.7275 89.8635C53.5698 89.6894 53.6261 89.7406 53.5698 89.6894L53.2883 89.3515L53.0293 89.0136C52.9505 88.9113 52.8716 88.8089 52.8153 88.7167C52.759 88.6246 52.5113 88.2867 52.4324 88.1536C52.3985 88.1044 52.3684 88.0531 52.3423 88C52.3423 88 51.1712 88.2764 50 88.6348Z" fill="white"/>
</g>
<path d="M213 120.065C213.003 121.536 212.683 122.989 212.063 124.32C211.442 125.652 210.536 126.83 209.409 127.769L209.164 127.98H209.094L209 128.051C207.894 128.894 206.622 129.49 205.269 129.8H205.164C204.918 129.8 204.661 129.894 204.415 129.93C204.214 129.965 204.011 129.988 203.807 130H203.234H203C202.731 130 202.462 130 202.205 130C201.847 129.977 201.492 129.93 201.14 129.859H200.93C199.395 129.539 197.96 128.854 196.743 127.863C196.507 127.683 196.284 127.487 196.076 127.276L195.947 127.158C194.781 125.993 193.918 124.556 193.437 122.976C192.956 121.396 192.87 119.721 193.188 118.1C193.506 116.479 194.218 114.962 195.26 113.683C196.302 112.404 197.642 111.403 199.162 110.769C200.682 110.135 202.334 109.887 203.972 110.047C205.609 110.208 207.183 110.772 208.551 111.689C209.92 112.606 211.042 113.849 211.818 115.306C212.594 116.763 213 118.39 213 120.042V120.065Z" fill="white"/>
<path d="M207 124H201V127H207V124Z" fill="#263238"/>
<path opacity="0.3" d="M207 124H201V127H207V124Z" fill="white"/>
<path opacity="0.2" d="M207 125H201V125.154H207V125Z" fill="black"/>
<path opacity="0.2" d="M207 126H201V126.154H207V126Z" fill="black"/>
<path opacity="0.2" d="M207 126H201V126.154H207V126Z" fill="black"/>
<path opacity="0.2" d="M207 124V124.802C205.085 125.52 203.057 125.925 201 126V124H207Z" fill="black"/>
<path d="M208.875 115H199.137C198.57 115 198.027 115.232 197.626 115.644C197.225 116.057 197 116.616 197 117.2V122.813C197.003 123.394 197.23 123.95 197.63 124.36C198.03 124.77 198.572 125 199.137 125H208.875C209.438 124.997 209.976 124.765 210.374 124.356C210.772 123.946 210.997 123.392 211 122.813V117.2C211 116.618 210.777 116.061 210.378 115.648C209.98 115.236 209.44 115.003 208.875 115Z" fill="#FF6B6B"/>
<path opacity="0.2" d="M208.859 115H205C205.569 115.003 206.114 115.236 206.515 115.648C206.916 116.061 207.141 116.618 207.141 117.2V122.813C207.141 123.393 206.916 123.949 206.514 124.359C206.113 124.77 205.568 125 205 125H208.859C209.427 125 209.971 124.77 210.373 124.359C210.774 123.949 211 123.393 211 122.813V117.2C211 116.618 210.775 116.061 210.374 115.648C209.972 115.236 209.428 115.003 208.859 115Z" fill="black"/>
<path d="M204.754 116H199.246C198.558 116 198 116.598 198 117.335V122.665C198 123.402 198.558 124 199.246 124H204.754C205.442 124 206 123.402 206 122.665V117.335C206 116.598 205.442 116 204.754 116Z" fill="#263238"/>
<path d="M210.153 118.999C210.134 119.001 210.114 118.999 210.096 118.992C210.077 118.985 210.06 118.975 210.046 118.961C210.031 118.947 210.02 118.93 210.012 118.911C210.004 118.892 210 118.872 210 118.852V112.148C210.003 112.108 210.02 112.07 210.049 112.042C210.077 112.015 210.115 112 210.153 112C210.19 112.003 210.224 112.019 210.25 112.046C210.276 112.074 210.292 112.11 210.295 112.148V118.852C210.295 118.891 210.28 118.928 210.253 118.956C210.227 118.984 210.191 118.999 210.153 118.999Z" fill="#263238"/>
<path d="M212 120C212.002 120.321 211.925 120.638 211.772 120.933C211.669 121.142 211.519 121.333 211.329 121.494C211.161 121.654 210.955 121.781 210.724 121.868C210.492 121.956 210.241 122 209.988 122C209.43 121.914 208.925 121.667 208.562 121.301C208.199 120.936 208 120.475 208 120C208 119.525 208.199 119.064 208.562 118.699C208.925 118.333 209.43 118.086 209.988 118C210.242 118.002 210.493 118.05 210.724 118.139C210.955 118.228 211.162 118.357 211.329 118.517C211.51 118.682 211.656 118.872 211.758 119.079C211.916 119.368 211.998 119.682 212 120Z" fill="#FF6B6B"/>
<g opacity="0.4">
<path d="M210.208 120.833C209.915 120.772 209.652 120.606 209.464 120.364C209.275 120.122 209.171 119.818 209.171 119.505C209.171 119.192 209.275 118.888 209.464 118.646C209.652 118.404 209.915 118.238 210.208 118.177C210.366 118.183 210.52 118.229 210.658 118.31C210.796 118.392 210.913 118.507 211 118.646C210.924 118.454 210.817 118.278 210.683 118.125C210.537 118.042 210.374 117.999 210.208 118C209.87 118.059 209.564 118.243 209.342 118.517C209.121 118.792 209 119.14 209 119.5C209 119.86 209.121 120.208 209.342 120.483C209.564 120.757 209.87 120.941 210.208 121C210.369 121.002 210.529 120.963 210.673 120.885C210.813 120.736 210.924 120.559 211 120.365C210.913 120.503 210.796 120.619 210.658 120.7C210.52 120.782 210.366 120.827 210.208 120.833Z" fill="black"/>
</g>
<path d="M204 118.5C204 118.779 203.776 119 203.5 119C203.224 119 203 118.779 203 118.5C203 118.221 203.224 118 203.5 118C203.776 118 204 118.221 204 118.5Z" fill="white"/>
<path d="M200.5 119C200.776 119 201 118.776 201 118.5C201 118.224 200.776 118 200.5 118C200.224 118 200 118.224 200 118.5C200 118.776 200.224 119 200.5 119Z" fill="white"/>
<path opacity="0.4" d="M202 121.734C202.394 122.131 202.755 122.554 203.082 123L203.356 122.873C204.588 122.316 204.958 121.684 204.999 121.139C205.007 120.878 204.951 120.618 204.835 120.38C204.77 120.244 204.687 120.117 204.588 120C203.993 120.659 203.25 121.19 202.411 121.557C202.278 121.625 202.141 121.684 202 121.734Z" fill="white"/>
<path d="M202 121.618L202.271 122C203.232 121.447 203.842 120.908 204 120.395C203.947 120.254 203.878 120.121 203.797 120C203.305 120.685 202.692 121.237 202 121.618Z" fill="white"/>
<path d="M203 123C203.75 122.358 203.975 121.628 204 121C203.717 121.259 203.46 121.599 203.242 122.007C203.106 122.288 203.022 122.634 203 123Z" fill="#FF6B6B"/>
<path d="M209 127.872C207.918 128.792 206.672 129.443 205.347 129.782H205.244C205.004 129.782 204.752 129.885 204.511 129.923C204.314 129.961 204.116 129.987 203.916 130H203.355H203.126C202.863 130 202.599 130 202.347 130C201.997 129.975 201.649 129.923 201.305 129.846H201.099C199.593 129.482 198.187 128.716 197 127.615C197.463 127.216 198.03 127 198.615 127H207.168C207.857 127.008 208.516 127.322 209 127.872Z" fill="#FF6B6B"/>
<path d="M100.53 146.455H178.319L184 150V116.535C184.002 115.676 183.834 114.826 183.507 114.032C183.18 113.239 182.7 112.518 182.094 111.911C181.489 111.303 180.77 110.822 179.978 110.494C179.187 110.166 178.339 109.998 177.482 110H100.53C99.6727 109.998 98.8239 110.166 98.0317 110.494C97.2396 110.822 96.5197 111.303 95.9132 111.91C95.3067 112.517 94.8255 113.238 94.4973 114.031C94.169 114.825 94 115.676 94 116.535V139.92C94.0031 141.654 94.6924 143.317 95.9166 144.542C97.1408 145.767 98.7999 146.455 100.53 146.455Z" fill="#FF6B6B"/>
<path d="M104 119H176" stroke="white" stroke-width="1.15854" stroke-linecap="round" stroke-linejoin="round"/>
<path d="M104 125H176" stroke="white" stroke-width="1.15854" stroke-linecap="round" stroke-linejoin="round"/>
<path d="M104 131H176" stroke="white" stroke-width="1.15854" stroke-linecap="round" stroke-linejoin="round"/>
<path d="M104 137H141" stroke="white" stroke-width="1.15854" stroke-linecap="round" stroke-linejoin="round"/>
<path d="M165.543 203.448H77.6597L72 207V167.548C72 166.687 72.168 165.834 72.4944 165.039C72.8208 164.244 73.2991 163.522 73.9021 162.914C74.505 162.305 75.2208 161.823 76.0083 161.495C76.7958 161.167 77.6397 160.998 78.4917 161H165.52C166.371 160.998 167.215 161.167 168.002 161.495C168.789 161.824 169.503 162.306 170.106 162.914C170.708 163.523 171.185 164.245 171.51 165.04C171.835 165.835 172.002 166.687 172 167.548V196.9C172 198.633 171.321 200.294 170.11 201.522C168.9 202.749 167.258 203.442 165.543 203.448Z" fill="#4883F8"/>
<path d="M80 170H164" stroke="white" stroke-width="1.15854" stroke-linecap="round" stroke-linejoin="round"/>
<path d="M80 176H164" stroke="white" stroke-width="1.15854" stroke-linecap="round" stroke-linejoin="round"/>
<path d="M80 182H164" stroke="white" stroke-width="1.15854" stroke-linecap="round" stroke-linejoin="round"/>
<path d="M80 194H117" stroke="white" stroke-width="1.15854" stroke-linecap="round" stroke-linejoin="round"/>
<path d="M80 188H164" stroke="white" stroke-width="1.15854" stroke-linecap="round" stroke-linejoin="round"/>
<path d="M47 171.034C46.9977 172.356 47.2565 173.666 47.7616 174.887C48.2667 176.108 49.0079 177.217 49.9422 178.148L50.0707 178.265C51.4099 179.572 53.0897 180.471 54.916 180.859H55.1261C55.4768 180.93 55.8317 180.977 56.1886 181C56.4455 181 56.714 181 56.9825 181H57.216H57.7881C57.9917 180.988 58.1944 180.965 58.3953 180.93C58.6404 180.93 58.8973 180.859 59.1425 180.8H59.2476C60.6359 180.478 61.9384 179.858 63.0654 178.981H63.1355L63.3807 178.77C64.6773 177.691 65.6817 176.301 66.3005 174.727C66.9193 173.154 67.1325 171.449 66.9203 169.77C66.708 168.092 66.0771 166.495 65.0863 165.127C64.0955 163.76 62.7769 162.666 61.2531 161.948C59.7293 161.23 58.0497 160.911 56.3704 161.021C54.6911 161.131 53.0667 161.666 51.648 162.576C50.2294 163.486 49.0626 164.741 48.2561 166.226C47.4496 167.711 47.0296 169.377 47.035 171.069L47 171.034Z" fill="#407BFF"/>
<path d="M50.4668 168.792C50.4668 168.792 49.2141 173.57 50.8128 174.98C52.4116 176.389 61.3834 176.401 62.672 174.621C63.9605 172.841 61.0374 167 61.0374 167L50.4668 168.792Z" fill="#263238"/>
<path d="M50 179.013C51.3398 180.44 53.0203 181.423 54.8473 181.846H55.0575C55.4083 181.923 55.7634 181.975 56.1204 182C56.3774 182 56.646 182 56.9146 182H57.1482H57.7206C57.9242 181.987 58.127 181.961 58.3279 181.923C58.5732 181.923 58.8302 181.846 59.0755 181.782V181.859L59.1806 181.756C60.5695 181.405 61.8725 180.727 63 179.769C62.9416 179.59 62.8832 179.397 62.8131 179.218H62.743H62.6613C62.4393 179.141 61.9721 178.974 61.3297 178.795H61.2597C60.8859 178.692 60.4537 178.577 59.9748 178.474L59.0404 178.282H58.9003C58.6199 178.282 58.3279 178.179 58.0242 178.141H57.6972C57.2417 178.077 56.7628 178.038 56.2722 178H55.77H55.1042C54.8239 178 54.5553 178 54.2749 178L53.6092 178.103L52.4411 178.321C51.5067 178.526 50.6658 178.782 50 179.013Z" fill="#407BFF"/>
<path opacity="0.6" d="M50 179.013C51.3398 180.44 53.0203 181.423 54.8473 181.846H55.0575C55.4083 181.923 55.7634 181.975 56.1204 182C56.3774 182 56.646 182 56.9146 182H57.1482H57.7206C57.9242 181.987 58.127 181.961 58.3279 181.923C58.5732 181.923 58.8302 181.846 59.0755 181.782V181.859L59.1806 181.756C60.5695 181.405 61.8725 180.727 63 179.769C62.9416 179.59 62.8832 179.397 62.8131 179.218H62.743H62.6613C62.4393 179.141 61.9721 178.974 61.3297 178.795H61.2597C60.8859 178.692 60.4537 178.577 59.9748 178.474L59.0404 178.282H58.9003C58.6199 178.282 58.3279 178.179 58.0242 178.141H57.6972C57.2417 178.077 56.7628 178.038 56.2722 178H55.77H55.1042C54.8239 178 54.5553 178 54.2749 178L53.6092 178.103L52.4411 178.321C51.5067 178.526 50.6658 178.782 50 179.013Z" fill="white"/>
<path d="M61.99 168.914C61.99 168.914 62.529 161.58 55.7016 163.246C47.1253 165.377 52.1082 175.137 56.3004 173.89C57.5668 173.489 58.7288 172.838 59.7096 171.98C60.6904 171.122 61.4676 170.077 61.99 168.914Z" fill="#263238"/>
<path opacity="0.2" d="M53 177.558L54.4794 180.571L54.6086 180.829H54.82C55.1726 180.902 55.5296 180.951 55.8885 180.976L56.6869 179.861C56.7691 180.216 56.8395 180.596 56.9217 181H57.4971C57.4384 180.314 57.3914 179.885 57.3914 179.885L58.1076 180.927C58.3542 180.927 58.6125 180.853 58.8591 180.792L59 177.509L58.6947 177.375C58.3831 177.243 58.0609 177.141 57.7319 177.068H57.5206C56.8463 176.977 56.1635 176.977 55.4892 177.068L54.8787 177.154C54.5449 177.195 54.215 177.264 53.8924 177.362C53.6066 177.428 53.3244 177.51 53.047 177.607L53 177.558Z" fill="black"/>
<path d="M56.9319 178L54 177.145C55.801 175.868 54.8901 173 54.8901 173L57.7906 174.082C57.6606 174.5 57.5591 174.927 57.4869 175.359C57.1832 177.232 58 177.383 58 177.383L56.9319 178Z" fill="#B97964"/>
<path opacity="0.2" d="M58 174.353C57.8655 174.892 57.7606 175.442 57.6859 176C56.6187 175.288 55.6981 174.26 55 173L58 174.353Z" fill="black"/>
<path d="M57.47 165.015C60.3913 164.834 61.443 166.292 61.8519 169.198C62.3544 172.827 61.7 175.472 57.9842 174.929C52.9362 174.217 52.5974 165.354 57.47 165.015Z" fill="#B97964"/>
<path d="M60 169C60.2823 169.549 60.618 170.057 61 170.512C60.916 170.675 60.7956 170.806 60.6525 170.891C60.5094 170.977 60.3492 171.013 60.1899 170.996L60 169Z" fill="#A24E3F"/>
<path d="M58 169.473C58 169.743 57.8408 169.986 57.5622 169.999C57.2836 170.013 57.0449 169.81 57.0051 169.527C56.9653 169.244 57.1643 169.014 57.4428 169.001C57.7214 168.987 57.9602 169.19 58 169.473Z" fill="#263238"/>
<path d="M58 168.248L59 168C59 168 58.5581 168.461 58 168.248Z" fill="#263238"/>
<path d="M61 168.473C61 168.756 60.837 168.986 60.5722 168.999C60.3073 169.013 60.0221 168.81 60.0017 168.527C59.9813 168.244 60.1443 168.014 60.4296 168.001C60.7148 167.987 60.9593 168.203 61 168.473Z" fill="#263238"/>
<path d="M61 168.26L62 168C62 168 61.6136 168.461 61 168.26Z" fill="#263238"/>
<path d="M58 167.005C57.8118 166.978 57.6235 167.054 57.45 167.227C57.2765 167.399 57.1224 167.664 57 168" stroke="#263238" stroke-width="0.834146" stroke-linecap="round" stroke-linejoin="round"/>
<path d="M60 167.068C60.1662 167.003 60.3429 166.984 60.5163 167.013C60.6898 167.042 60.8553 167.117 61 167.234" stroke="#263238" stroke-width="0.834146" stroke-linecap="round" stroke-linejoin="round"/>
<path d="M54.5126 170.531C55.2005 169.129 55.5185 167.574 55.4362 166.015C55.4362 166.015 61.3056 163.154 61.9983 169.265C61.9983 169.265 62.2413 163.787 56.9916 164.006C51.7419 164.226 52.2766 171.894 55.1202 174C54.7459 173.514 54.4949 172.945 54.3891 172.341C54.2833 171.736 54.3256 171.115 54.5126 170.531Z" fill="#263238"/>
<path d="M54.9695 170.94C54.9253 170.659 54.7604 170.404 54.5099 170.23C54.2594 170.055 53.9429 169.975 53.6275 170.007C52.7735 170.136 52.5184 171.744 54.6479 171.992C54.9141 172.052 55.0693 171.774 54.9695 170.94Z" fill="#B97964"/>
<path d="M60 171.636C59.8764 172.081 59.7748 172.537 59.6959 173H59.5088C58.6434 172.922 58.2691 172.519 58.1054 172.085C58.0323 171.872 58.0002 171.637 58.0118 171.403C57.9961 171.27 57.9961 171.134 58.0118 171C58.5218 171.36 59.0841 171.572 59.6608 171.62L60 171.636Z" fill="#263238"/>
<path d="M60 171.604L59.8904 171.997C59.2215 172.03 58.5616 171.817 58.0139 171.393C57.9954 171.263 57.9954 171.13 58.0139 171C58.6277 171.359 59.3058 171.566 60 171.604Z" fill="white"/>
<path d="M59 173C58.3833 172.915 58.1167 172.475 58 172C58.2339 172.032 58.4629 172.153 58.675 172.356C58.8105 172.505 58.923 172.728 59 173Z" fill="#DE5753"/>
<path d="M57.0764 165.081C57.0764 165.081 56.1871 169.861 53.1041 169.998C50.0212 170.135 54.3729 163.872 54.3729 163.872C54.3729 163.872 59.2819 161.739 61.9261 164.146C64.5703 166.553 61.4992 168.709 61.4992 168.709C61.4992 168.709 61.4518 165.047 57.0764 165.081Z" fill="#263238"/>
<path d="M56.9313 165C56.9313 165 57.5622 168.571 55 170" stroke="#263238" stroke-width="0.579268" stroke-linecap="round" stroke-linejoin="round"/>
<path d="M54.0016 170.029C54.0016 170.038 54.0034 170.047 54.007 170.056C54.0106 170.064 54.0159 170.072 54.0226 170.078C54.0292 170.084 54.0371 170.089 54.0458 170.093C54.0545 170.096 54.0638 170.098 54.0732 170.098H54.3479H54.7658L56.9631 169.904C57.0196 170.181 57.165 170.434 57.379 170.628C57.593 170.822 57.865 170.947 58.1572 170.987C58.526 171.036 58.9 170.944 59.1976 170.73C59.4952 170.516 59.6922 170.199 59.7454 169.847C59.7514 169.775 59.7514 169.703 59.7454 169.63C59.8529 169.494 59.9484 169.414 60.044 169.414C60.1239 169.427 60.196 169.468 60.247 169.528C60.2919 169.747 60.3927 169.952 60.5406 170.125C60.6885 170.298 60.8789 170.434 61.0948 170.52L61.4053 170.6C61.5935 170.644 61.7902 170.644 61.9785 170.6C62.2048 170.542 62.4109 170.428 62.5755 170.269C62.8015 170.073 62.9456 169.806 62.9815 169.516C63.0119 169.341 63.0048 169.162 62.9606 168.99C62.9163 168.818 62.836 168.656 62.7244 168.514C62.6127 168.372 62.4721 168.254 62.3111 168.165C62.15 168.077 61.9719 168.021 61.7874 168H61.465C61.1493 168.023 60.8515 168.149 60.6212 168.357C60.3909 168.564 60.2419 168.841 60.1992 169.14C60.1933 169.208 60.1933 169.277 60.1992 169.345C60.1441 169.334 60.0871 169.334 60.032 169.345C59.9679 169.349 59.9052 169.365 59.8478 169.393C59.7903 169.42 59.7393 169.458 59.6976 169.505C59.6562 169.217 59.517 168.949 59.3014 168.743C59.0858 168.537 58.8056 168.404 58.5035 168.365H58.3602C58.1652 168.346 57.9683 168.374 57.787 168.445C57.5631 168.53 57.3663 168.67 57.2156 168.85C57.0649 169.029 56.9656 169.243 56.9272 169.471C56.9148 169.565 56.9148 169.661 56.9272 169.756L55.0285 169.904H54.6345H54.0494C54.0494 169.904 53.9896 169.984 54.0016 170.029ZM60.4022 169.083C60.4427 168.809 60.5862 168.559 60.806 168.378C61.0257 168.198 61.3066 168.1 61.5963 168.103H61.8352C61.9939 168.123 62.1467 168.174 62.2844 168.253C62.422 168.331 62.5418 168.435 62.6365 168.558C62.7312 168.682 62.7989 168.822 62.8356 168.971C62.8724 169.12 62.8773 169.274 62.8502 169.425C62.8114 169.64 62.7119 169.841 62.5625 170.005C62.4131 170.17 62.2194 170.293 62.0024 170.36C61.825 170.394 61.6423 170.394 61.465 170.36H61.2262C60.9503 170.278 60.7148 170.104 60.5633 169.869C60.4118 169.634 60.3546 169.355 60.4022 169.083ZM57.1541 169.437C57.2032 169.134 57.3761 168.863 57.6348 168.682C57.8934 168.501 58.2167 168.426 58.5334 168.473C58.8501 168.52 59.1343 168.685 59.3235 168.932C59.5128 169.179 59.5915 169.488 59.5424 169.79C59.5181 169.94 59.4631 170.083 59.3807 170.213C59.2982 170.342 59.1899 170.455 59.0618 170.545C58.9337 170.634 58.7884 170.698 58.6342 170.734C58.4801 170.77 58.32 170.777 58.1632 170.753C58.0064 170.73 57.8559 170.678 57.7203 170.599C57.5847 170.52 57.4667 170.417 57.373 170.295C57.2793 170.172 57.2118 170.034 57.1742 169.886C57.1366 169.739 57.1298 169.586 57.1541 169.437Z" fill="#263238"/>
<g opacity="0.8">
<path d="M54.0016 170.029C54.0016 170.038 54.0034 170.047 54.007 170.056C54.0106 170.064 54.0159 170.072 54.0226 170.078C54.0292 170.084 54.0371 170.089 54.0458 170.093C54.0545 170.096 54.0638 170.098 54.0732 170.098H54.3479H54.7658L56.9631 169.904C57.0196 170.181 57.165 170.434 57.379 170.628C57.593 170.822 57.865 170.947 58.1572 170.987C58.526 171.036 58.9 170.944 59.1976 170.73C59.4952 170.516 59.6922 170.199 59.7454 169.847C59.7514 169.775 59.7514 169.703 59.7454 169.63C59.8529 169.494 59.9484 169.414 60.044 169.414C60.1239 169.427 60.196 169.468 60.247 169.528C60.2919 169.747 60.3927 169.952 60.5406 170.125C60.6885 170.298 60.8789 170.434 61.0948 170.52L61.4053 170.6C61.5935 170.644 61.7902 170.644 61.9785 170.6C62.2048 170.542 62.4109 170.428 62.5755 170.269C62.8015 170.073 62.9456 169.806 62.9815 169.516C63.0119 169.341 63.0048 169.162 62.9606 168.99C62.9163 168.818 62.836 168.656 62.7244 168.514C62.6127 168.372 62.4721 168.254 62.3111 168.165C62.15 168.077 61.9719 168.021 61.7874 168H61.465C61.1493 168.023 60.8515 168.149 60.6212 168.357C60.3909 168.564 60.2419 168.841 60.1992 169.14C60.1933 169.208 60.1933 169.277 60.1992 169.345C60.1441 169.334 60.0871 169.334 60.032 169.345C59.9679 169.349 59.9052 169.365 59.8478 169.393C59.7903 169.42 59.7393 169.458 59.6976 169.505C59.6562 169.217 59.517 168.949 59.3014 168.743C59.0858 168.537 58.8056 168.404 58.5035 168.365H58.3602C58.1652 168.346 57.9683 168.374 57.787 168.445C57.5631 168.53 57.3663 168.67 57.2156 168.85C57.0649 169.029 56.9656 169.243 56.9272 169.471C56.9148 169.565 56.9148 169.661 56.9272 169.756L55.0285 169.904H54.6345H54.0494C54.0494 169.904 53.9896 169.984 54.0016 170.029ZM60.4022 169.083C60.4427 168.809 60.5862 168.559 60.806 168.378C61.0257 168.198 61.3066 168.1 61.5963 168.103H61.8352C61.9939 168.123 62.1467 168.174 62.2844 168.253C62.422 168.331 62.5418 168.435 62.6365 168.558C62.7312 168.682 62.7989 168.822 62.8356 168.971C62.8724 169.12 62.8773 169.274 62.8502 169.425C62.8114 169.64 62.7119 169.841 62.5625 170.005C62.4131 170.17 62.2194 170.293 62.0024 170.36C61.825 170.394 61.6423 170.394 61.465 170.36H61.2262C60.9503 170.278 60.7148 170.104 60.5633 169.869C60.4118 169.634 60.3546 169.355 60.4022 169.083ZM57.1541 169.437C57.2032 169.134 57.3761 168.863 57.6348 168.682C57.8934 168.501 58.2167 168.426 58.5334 168.473C58.8501 168.52 59.1343 168.685 59.3235 168.932C59.5128 169.179 59.5915 169.488 59.5424 169.79C59.5181 169.94 59.4631 170.083 59.3807 170.213C59.2982 170.342 59.1899 170.455 59.0618 170.545C58.9337 170.634 58.7884 170.698 58.6342 170.734C58.4801 170.77 58.32 170.777 58.1632 170.753C58.0064 170.73 57.8559 170.678 57.7203 170.599C57.5847 170.52 57.4667 170.417 57.373 170.295C57.2793 170.172 57.2118 170.034 57.1742 169.886C57.1366 169.739 57.1298 169.586 57.1541 169.437Z" fill="white"/>
</g>
<path d="M54.7636 177L57 179.251L56.1054 182L53 178.492L54.7636 177Z" fill="#407BFF"/>
<path d="M57.381 177L57 178.655L58.2381 181L59 177.953L57.381 177Z" fill="#407BFF"/>
<path d="M59 181C60.3437 180.688 61.6042 180.087 62.6949 179.239H62.7627L63 179.034L62.5141 178.795C61.6287 178.424 60.7035 178.157 59.7571 178C59.7549 178.026 59.7549 178.053 59.7571 178.08C59.8439 178.592 59.8213 179.118 59.6908 179.622C59.5603 180.125 59.3248 180.595 59 181Z" fill="#263238"/>
<path d="M50 178.635L50.1239 178.737C51.4156 179.877 53.0358 180.662 54.7973 181H55C54.8835 180.927 54.7742 180.845 54.6734 180.754C54.527 180.642 54.3806 180.509 54.2342 180.375C54.0878 180.242 53.8851 180.038 53.7275 179.863C53.5698 179.689 53.6261 179.741 53.5698 179.689L53.2883 179.352L53.0293 179.014C52.9505 178.911 52.8716 178.809 52.8153 178.717C52.759 178.625 52.5113 178.287 52.4324 178.154C52.3985 178.104 52.3684 178.053 52.3423 178C52.3423 178 51.1712 178.276 50 178.635Z" fill="#263238"/>
<path opacity="0.1" d="M50 178.635L50.1239 178.737C51.4156 179.877 53.0358 180.662 54.7973 181H55C54.8835 180.927 54.7742 180.845 54.6734 180.754C54.527 180.642 54.3806 180.509 54.2342 180.375C54.0878 180.242 53.8851 180.038 53.7275 179.863C53.5698 179.689 53.6261 179.741 53.5698 179.689L53.2883 179.352L53.0293 179.014C52.9505 178.911 52.8716 178.809 52.8153 178.717C52.759 178.625 52.5113 178.287 52.4324 178.154C52.3985 178.104 52.3684 178.053 52.3423 178C52.3423 178 51.1712 178.276 50 178.635Z" fill="white"/>
<path opacity="0.6" d="M54.7636 177L57 179.251L56.1054 182L53 178.492L54.7636 177Z" fill="white"/>
<path opacity="0.6" d="M57.381 177L57 178.655L58.2381 181L59 177.953L57.381 177Z" fill="white"/>
<g opacity="0.1">
<path d="M60 181C61.3437 180.688 62.6042 180.087 63.6949 179.239H63.7627L64 179.034L63.5141 178.795C62.6287 178.424 61.7035 178.157 60.7571 178C60.7549 178.026 60.7549 178.053 60.7571 178.08C60.8439 178.592 60.8213 179.118 60.6908 179.622C60.5603 180.125 60.3248 180.595 60 181Z" fill="white"/>
<path d="M50 178.635L50.1239 178.737C51.4156 179.877 53.0358 180.662 54.7973 181H55C54.8835 180.927 54.7742 180.845 54.6734 180.754C54.527 180.642 54.3806 180.509 54.2342 180.375C54.0878 180.242 53.8851 180.038 53.7275 179.863C53.5698 179.689 53.6261 179.741 53.5698 179.689L53.2883 179.352L53.0293 179.014C52.9505 178.911 52.8716 178.809 52.8153 178.717C52.759 178.625 52.5113 178.287 52.4324 178.154C52.3985 178.104 52.3684 178.053 52.3423 178C52.3423 178 51.1712 178.276 50 178.635Z" fill="white"/>
</g>
<path d="M213 227.065C213.003 228.536 212.683 229.989 212.063 231.32C211.442 232.652 210.536 233.83 209.409 234.769L209.164 234.98H209.094L209 235.051C207.894 235.894 206.622 236.49 205.269 236.8H205.164C204.918 236.8 204.661 236.894 204.415 236.93C204.214 236.965 204.011 236.988 203.807 237H203.234H203C202.731 237 202.462 237 202.205 237C201.847 236.977 201.492 236.93 201.14 236.859H200.93C199.395 236.539 197.96 235.854 196.743 234.863C196.507 234.683 196.284 234.487 196.076 234.276L195.947 234.158C194.781 232.993 193.918 231.556 193.437 229.976C192.956 228.396 192.87 226.721 193.188 225.1C193.506 223.479 194.218 221.962 195.26 220.683C196.302 219.404 197.642 218.403 199.162 217.769C200.682 217.135 202.334 216.887 203.972 217.047C205.609 217.208 207.183 217.772 208.551 218.689C209.92 219.606 211.042 220.849 211.818 222.306C212.594 223.763 213 225.39 213 227.042V227.065Z" fill="white"/>
<path d="M207 231H201V234H207V231Z" fill="#263238"/>
<path opacity="0.3" d="M207 231H201V234H207V231Z" fill="white"/>
<path opacity="0.2" d="M207 232H201V232.154H207V232Z" fill="black"/>
<path opacity="0.2" d="M207 233H201V233.154H207V233Z" fill="black"/>
<path opacity="0.2" d="M207 233H201V233.154H207V233Z" fill="black"/>
<path opacity="0.2" d="M207 231V231.802C205.085 232.52 203.057 232.925 201 233V231H207Z" fill="black"/>
<path d="M208.875 222H199.137C198.57 222 198.027 222.232 197.626 222.644C197.225 223.057 197 223.616 197 224.2V229.813C197.003 230.394 197.23 230.95 197.63 231.36C198.03 231.77 198.572 232 199.137 232H208.875C209.438 231.997 209.976 231.765 210.374 231.356C210.772 230.946 210.997 230.392 211 229.813V224.2C211 223.618 210.777 223.061 210.378 222.648C209.98 222.236 209.44 222.003 208.875 222Z" fill="#FF6B6B"/>
<path opacity="0.2" d="M208.859 222H205C205.569 222.003 206.114 222.236 206.515 222.648C206.916 223.061 207.141 223.618 207.141 224.2V229.813C207.141 230.393 206.916 230.949 206.514 231.359C206.113 231.77 205.568 232 205 232H208.859C209.427 232 209.971 231.77 210.373 231.359C210.774 230.949 211 230.393 211 229.813V224.2C211 223.618 210.775 223.061 210.374 222.648C209.972 222.236 209.428 222.003 208.859 222Z" fill="black"/>
<path d="M204.754 223H199.246C198.558 223 198 223.598 198 224.335V229.665C198 230.402 198.558 231 199.246 231H204.754C205.442 231 206 230.402 206 229.665V224.335C206 223.598 205.442 223 204.754 223Z" fill="#263238"/>
<path d="M210.153 225.999C210.134 226.001 210.114 225.999 210.096 225.992C210.077 225.985 210.06 225.975 210.046 225.961C210.031 225.947 210.02 225.93 210.012 225.911C210.004 225.892 210 225.872 210 225.852V219.148C210.003 219.108 210.02 219.07 210.049 219.042C210.077 219.015 210.115 219 210.153 219C210.19 219.003 210.224 219.019 210.25 219.046C210.276 219.074 210.292 219.11 210.295 219.148V225.852C210.295 225.891 210.28 225.928 210.253 225.956C210.227 225.984 210.191 225.999 210.153 225.999Z" fill="#263238"/>
<path d="M212 227C212.002 227.321 211.925 227.638 211.772 227.933C211.669 228.142 211.519 228.333 211.329 228.494C211.161 228.654 210.955 228.781 210.724 228.868C210.492 228.956 210.241 229 209.988 229C209.43 228.914 208.925 228.667 208.562 228.301C208.199 227.936 208 227.475 208 227C208 226.525 208.199 226.064 208.562 225.699C208.925 225.333 209.43 225.086 209.988 225C210.242 225.002 210.493 225.05 210.724 225.139C210.955 225.228 211.162 225.357 211.329 225.517C211.51 225.682 211.656 225.872 211.758 226.079C211.916 226.368 211.998 226.682 212 227Z" fill="#FF6B6B"/>
<g opacity="0.4">
<path d="M210.208 227.833C209.915 227.772 209.652 227.606 209.464 227.364C209.275 227.122 209.171 226.818 209.171 226.505C209.171 226.192 209.275 225.888 209.464 225.646C209.652 225.404 209.915 225.238 210.208 225.177C210.366 225.183 210.52 225.229 210.658 225.31C210.796 225.392 210.913 225.507 211 225.646C210.924 225.454 210.817 225.278 210.683 225.125C210.537 225.042 210.374 224.999 210.208 225C209.87 225.059 209.564 225.243 209.342 225.517C209.121 225.792 209 226.14 209 226.5C209 226.86 209.121 227.208 209.342 227.483C209.564 227.757 209.87 227.941 210.208 228C210.369 228.002 210.529 227.963 210.673 227.885C210.813 227.736 210.924 227.559 211 227.365C210.913 227.503 210.796 227.619 210.658 227.7C210.52 227.782 210.366 227.827 210.208 227.833Z" fill="black"/>
</g>
<path d="M204 225.5C204 225.779 203.776 226 203.5 226C203.224 226 203 225.779 203 225.5C203 225.221 203.224 225 203.5 225C203.776 225 204 225.221 204 225.5Z" fill="white"/>
<path d="M200.5 226C200.776 226 201 225.776 201 225.5C201 225.224 200.776 225 200.5 225C200.224 225 200 225.224 200 225.5C200 225.776 200.224 226 200.5 226Z" fill="white"/>
<path opacity="0.4" d="M202 228.734C202.394 229.131 202.755 229.554 203.082 230L203.356 229.873C204.588 229.316 204.958 228.684 204.999 228.139C205.007 227.878 204.951 227.618 204.835 227.38C204.77 227.244 204.687 227.117 204.588 227C203.993 227.659 203.25 228.19 202.411 228.557C202.278 228.625 202.141 228.684 202 228.734Z" fill="white"/>
<path d="M202 228.618L202.271 229C203.232 228.447 203.842 227.908 204 227.395C203.947 227.254 203.878 227.121 203.797 227C203.305 227.685 202.692 228.237 202 228.618Z" fill="white"/>
<path d="M203 230C203.75 229.358 203.975 228.628 204 228C203.717 228.259 203.46 228.599 203.242 229.007C203.106 229.288 203.022 229.634 203 230Z" fill="#FF6B6B"/>
<path d="M209 234.872C207.918 235.792 206.672 236.443 205.347 236.782H205.244C205.004 236.782 204.752 236.885 204.511 236.923C204.314 236.961 204.116 236.987 203.916 237H203.355H203.126C202.863 237 202.599 237 202.347 237C201.997 236.975 201.649 236.923 201.305 236.846H201.099C199.593 236.482 198.187 235.716 197 234.615C197.463 234.216 198.03 234 198.615 234H207.168C207.857 234.008 208.516 234.322 209 234.872Z" fill="#FF6B6B"/>
<path d="M78.5067 265.442H178.339L184 269V223.558C184.002 222.696 183.835 221.843 183.509 221.046C183.183 220.25 182.705 219.527 182.101 218.917C181.498 218.308 180.781 217.825 179.992 217.496C179.204 217.167 178.358 216.998 177.505 217H78.5067C77.6528 216.998 76.8069 217.167 76.0176 217.496C75.2282 217.825 74.5108 218.307 73.9065 218.917C73.3021 219.526 72.8226 220.249 72.4955 221.046C72.1684 221.842 72 222.696 72 223.558V258.885C72.0031 260.625 72.69 262.293 73.9099 263.522C75.1298 264.752 76.783 265.442 78.5067 265.442Z" fill="#FF6B6B"/>
<path d="M80 225H176" stroke="white" stroke-width="1.15854" stroke-linecap="round" stroke-linejoin="round"/>
<path d="M80 231H176" stroke="white" stroke-width="1.15854" stroke-linecap="round" stroke-linejoin="round"/>
<path d="M80 237H176" stroke="white" stroke-width="1.15854" stroke-linecap="round" stroke-linejoin="round"/>
<path d="M80 249H176" stroke="white" stroke-width="1.15854" stroke-linecap="round" stroke-linejoin="round"/>
<path d="M80 255H118" stroke="white" stroke-width="1.15854" stroke-linecap="round" stroke-linejoin="round"/>
<path d="M80 243H176" stroke="white" stroke-width="1.15854" stroke-linecap="round" stroke-linejoin="round"/>
<path d="M306 218H295.984C295.984 218 282.739 240.756 271.245 239.456C262.151 238.384 257.244 221.671 257.244 221.671L251 222.029C251 222.029 254.228 243.7 269.341 247.491C289.728 252.569 306 218 306 218Z" fill="#263238"/>
<path opacity="0.2" d="M306 218.155C304.488 221.228 302.791 224.206 300.918 227.071L300.375 227.916C299.299 229.547 298.07 231.273 296.735 232.999L296.109 233.797C294.765 235.491 293.333 237.113 291.819 238.654L291.098 239.368C289.523 240.91 287.832 242.327 286.04 243.606L285.201 244.177C283.747 245.116 282.208 245.913 280.604 246.558L279.658 246.903C277.477 247.709 275.161 248.077 272.839 247.987C272.504 247.984 272.168 247.965 271.835 247.927C270.989 247.853 270.152 247.71 269.329 247.498C267.744 247.102 266.22 246.485 264.803 245.665C264.503 245.507 264.211 245.332 263.929 245.141C262.285 244.068 260.797 242.77 259.509 241.285C259.284 241.035 259.06 240.773 258.847 240.511C257.61 238.972 256.522 237.318 255.597 235.57C255.432 235.273 255.266 234.963 255.124 234.654C253.164 230.678 251.775 226.441 251 222.071L257.24 221.714C258.151 224.631 259.339 227.453 260.785 230.142C260.935 230.444 261.1 230.741 261.281 231.035C262.014 232.287 262.84 233.481 263.751 234.606C263.964 234.88 264.189 235.142 264.413 235.392C265.122 236.201 265.914 236.931 266.777 237.57C267.051 237.78 267.34 237.971 267.639 238.142C268.716 238.822 269.925 239.261 271.185 239.427H271.539C271.874 239.445 272.209 239.445 272.544 239.427C273.642 239.375 274.726 239.154 275.758 238.773C276.077 238.666 276.385 238.535 276.692 238.404C277.754 237.936 278.771 237.37 279.729 236.713C280.013 236.535 280.284 236.344 280.556 236.142C281.831 235.2 283.043 234.174 284.184 233.071C284.433 232.844 284.681 232.606 284.917 232.356C286.217 231.071 287.446 229.69 288.581 228.321L289.231 227.535C290.471 226 291.594 224.5 292.54 223.154L293.119 222.333C294.868 219.786 295.908 218 295.908 218L306 218.155Z" fill="white"/>
<path d="M257.964 224.709L252.209 228C252.209 228 247.607 218.235 249.425 209.652L259.677 207C260.437 212.961 259.851 219.023 257.964 224.709Z" fill="#FF6B6B"/>
<path opacity="0.2" d="M301 226.222L300.478 227L293 222.757L293.556 222L301 226.222Z" fill="black"/>
<path opacity="0.2" d="M297 232.221L296.382 233L289 227.767L289.641 227L297 232.221Z" fill="black"/>
<path opacity="0.2" d="M292 238.273L291.24 239L284 232.727C284.262 232.497 284.523 232.254 284.773 232L292 238.273Z" fill="black"/>
<path opacity="0.2" d="M286 243.42L285.196 244L280 236.58C280.272 236.399 280.532 236.205 280.792 236L286 243.42Z" fill="black"/>
<path opacity="0.2" d="M281 245.671L280.015 246L276 238.351C276.333 238.249 276.653 238.125 276.973 238L281 245.671Z" fill="black"/>
<path opacity="0.2" d="M273 247C272.732 246.998 272.464 246.979 272.198 246.944L272 239C272.267 239.017 272.535 239.017 272.802 239L273 247Z" fill="black"/>
<path opacity="0.2" d="M268 237.568L264.934 245C264.613 244.842 264.301 244.668 264 244.479L267.079 237C267.372 237.208 267.68 237.398 268 237.568Z" fill="black"/>
<path opacity="0.2" d="M265 234.829L259.71 241C259.469 240.736 259.228 240.46 259 240.183L264.29 234C264.518 234.289 264.759 234.566 265 234.829Z" fill="black"/>
<path opacity="0.2" d="M261 230.866L255.459 235C255.298 234.726 255.138 234.441 255 234.156L260.518 230C260.671 230.307 260.832 230.596 261 230.866Z" fill="black"/>
<path d="M276.985 216.293C277.016 216.509 276.999 216.73 276.936 216.939C276.873 217.148 276.765 217.341 276.62 217.503C276.475 217.666 276.296 217.794 276.097 217.88C275.897 217.966 275.681 218.006 275.464 217.999H258.662C258.196 217.989 257.749 217.812 257.402 217.499C257.055 217.186 256.83 216.758 256.769 216.293L253.019 182.928C252.985 182.701 252.997 182.469 253.056 182.246C253.114 182.024 253.217 181.816 253.359 181.635C253.5 181.454 253.677 181.305 253.878 181.196C254.079 181.086 254.301 181.02 254.528 181H271.33C271.817 181.058 272.271 181.28 272.617 181.63C272.962 181.98 273.18 182.438 273.235 182.928L276.985 216.293Z" fill="#263238"/>
<path opacity="0.5" d="M272.031 182.706L275.959 216.396C276.011 216.593 276.014 216.799 275.968 216.997C275.922 217.196 275.828 217.381 275.694 217.537C275.561 217.693 275.391 217.816 275.199 217.896C275.007 217.976 274.798 218.011 274.589 217.997H259.851C258.867 217.997 257.053 217.46 256.945 216.513L253.005 182.706C252.897 181.76 254.59 181 255.575 181H270.349C270.798 181.029 271.219 181.22 271.53 181.536C271.841 181.851 272.02 182.269 272.031 182.706Z" fill="white"/>
<path d="M274 360C289.464 360 302 343.882 302 324C302 304.118 289.464 288 274 288C258.536 288 246 304.118 246 324C246 343.882 258.536 360 274 360Z" fill="#263238"/>
<path opacity="0.2" d="M280.5 349C291.27 349 300 337.807 300 324C300 310.193 291.27 299 280.5 299C269.73 299 261 310.193 261 324C261 337.807 269.73 349 280.5 349Z" fill="black"/>
<path d="M380 306.086L358.256 329L288.76 325.809L273 308.603L282.718 286.151C282.991 285.51 283.446 284.965 284.026 284.582C284.606 284.2 285.286 283.997 285.98 284H303.449C303.941 284.004 304.426 284.112 304.875 284.315C305.323 284.519 305.724 284.814 306.052 285.182L307.1 286.363L311.953 291.575C312.281 291.943 312.682 292.238 313.13 292.441C313.578 292.645 314.064 292.752 314.556 292.757H328.008C328.688 292.761 329.354 292.568 329.928 292.201L341.601 284.709C342.171 284.345 342.833 284.152 343.509 284.154H367.467C368.145 284.15 368.81 284.341 369.382 284.706C369.954 285.071 370.41 285.593 370.695 286.21L380 306.086Z" fill="#FF6B6B"/>
<path opacity="0.2" d="M335 308.419L346.669 288.754C346.987 288.219 347.438 287.777 347.977 287.469C348.517 287.162 349.127 287 349.748 287H366.576C367.284 286.993 367.977 287.199 368.566 287.591C369.155 287.984 369.612 288.545 369.879 289.201L377 306.23L367.387 323L342.439 322.07L335 307.489" fill="black"/>
<path opacity="0.2" d="M342 284L331.876 301.039C331.522 301.636 331.019 302.131 330.418 302.475C329.817 302.818 329.137 302.999 328.446 303H284.471C284.065 303 283.664 302.899 283.306 302.706C282.948 302.514 282.642 302.235 282.416 301.896C282.191 301.556 282.052 301.166 282.012 300.76C281.972 300.353 282.033 299.943 282.188 299.566L287.156 287.6C287.392 287.042 287.785 286.566 288.287 286.23C288.79 285.894 289.379 285.714 289.983 285.711H307.322L312.195 290.951C312.524 291.321 312.927 291.618 313.377 291.823C313.827 292.027 314.314 292.135 314.809 292.139H328.351C329.034 292.144 329.703 291.95 330.279 291.581L342 284Z" fill="black"/>
<path d="M360.742 345H287.892C286.334 345 284.794 344.663 283.38 344.014C281.967 343.364 280.713 342.417 279.707 341.238L267.512 326.925C265.883 325.019 264.993 322.6 265 320.102V310.253C265 309.693 265.111 309.139 265.328 308.623C265.544 308.106 265.862 307.637 266.262 307.242C266.661 306.846 267.136 306.533 267.658 306.32C268.181 306.107 268.74 305.998 269.305 306H360.707C361.846 306 362.938 306.448 363.743 307.246C364.548 308.043 365 309.125 365 310.253V340.747C365 341.869 364.553 342.946 363.755 343.742C362.958 344.539 361.875 344.991 360.742 345Z" fill="#263238"/>
<path opacity="0.3" d="M365 310.253V340.747C365 341.875 364.548 342.957 363.743 343.754C362.938 344.552 361.847 345 360.709 345H287.884C286.326 345 284.787 344.663 283.374 344.014C281.961 343.364 280.708 342.417 279.702 341.238L267.511 326.925C265.883 325.019 264.993 322.6 265 320.102V310.253C265 309.694 265.111 309.14 265.328 308.623C265.544 308.106 265.861 307.637 266.261 307.242C266.661 306.847 267.135 306.534 267.657 306.321C268.179 306.107 268.739 305.999 269.303 306H360.673C361.24 305.996 361.802 306.102 362.326 306.314C362.851 306.525 363.328 306.838 363.731 307.233C364.133 307.629 364.452 308.099 364.67 308.617C364.888 309.136 365 309.692 365 310.253Z" fill="white"/>
<path opacity="0.2" d="M365 310.253V340.747C365 341.875 364.554 342.957 363.76 343.754C362.967 344.552 361.89 345 360.767 345H350.57C349.033 345 347.515 344.663 346.122 344.014C344.728 343.364 343.492 342.417 342.5 341.238L330.477 326.925C328.871 325.019 327.993 322.6 328 320.102V310.253C328 309.694 328.11 309.14 328.323 308.623C328.537 308.106 328.85 307.637 329.244 307.242C329.638 306.847 330.106 306.534 330.621 306.321C331.136 306.107 331.687 305.999 332.244 306H360.733C361.291 305.996 361.845 306.102 362.363 306.314C362.881 306.525 363.351 306.838 363.748 307.233C364.145 307.629 364.46 308.099 364.674 308.617C364.889 309.136 365 309.692 365 310.253Z" fill="black"/>
<path d="M300.711 345.483L289.463 330.628C288.402 329.308 287.088 328.218 285.599 327.423C284.11 326.629 282.478 326.147 280.8 326.006C280.096 325.963 279.398 326.153 278.81 326.548L277.702 327.378C276.701 328.125 276.737 329.593 278.024 331.291L289.165 346.001C289.403 346.312 289.708 346.564 290.057 346.737C290.406 346.911 290.79 347.001 291.179 347H302.475C302.873 347 303.256 346.843 303.541 346.562C303.826 346.28 303.991 345.898 304 345.495H300.711V345.483Z" fill="#263238"/>
<path opacity="0.2" d="M279.645 327C276.89 327 276.171 328.972 278.04 331.399L289.238 346.008C289.477 346.317 289.784 346.567 290.135 346.739C290.486 346.911 290.871 347 291.263 347H301C300.678 347.002 300.361 346.929 300.072 346.788C299.783 346.647 299.531 346.442 299.335 346.187L287.957 331.399C286.937 330.148 285.676 329.113 284.248 328.357C282.82 327.602 281.255 327.14 279.645 327Z" fill="white"/>
<path d="M317.711 345.483L306.463 330.628C305.403 329.307 304.089 328.216 302.6 327.421C301.111 326.627 299.478 326.145 297.8 326.006C297.096 325.963 296.398 326.153 295.81 326.548L294.702 327.378C293.701 328.125 293.737 329.593 295.024 331.291L306.165 346.001C306.403 346.311 306.708 346.563 307.057 346.736C307.406 346.909 307.79 347 308.179 347H319.475C319.873 347 320.256 346.843 320.541 346.562C320.826 346.28 320.991 345.898 321 345.495H317.711V345.483Z" fill="#263238"/>
<path opacity="0.2" d="M296.636 327C293.885 327 293.179 328.972 295.033 331.399L306.217 346.008C306.456 346.316 306.763 346.566 307.113 346.738C307.464 346.91 307.849 347 308.239 347H318C317.679 347.002 317.362 346.929 317.073 346.788C316.785 346.647 316.533 346.442 316.337 346.187L304.985 331.399C303.96 330.144 302.692 329.108 301.258 328.352C299.824 327.596 298.252 327.136 296.636 327Z" fill="white"/>
<path d="M334.711 345.483L323.463 330.628C322.403 329.306 321.089 328.215 319.6 327.421C318.111 326.626 316.478 326.145 314.8 326.006C314.097 325.964 313.398 326.154 312.81 326.547L311.702 327.378C310.701 328.124 310.737 329.593 312.024 331.29L323.165 346.001C323.403 346.311 323.708 346.563 324.057 346.736C324.406 346.909 324.79 347 325.179 347H336.475C336.873 347 337.256 346.843 337.541 346.562C337.826 346.28 337.991 345.898 338 345.495H334.711V345.483Z" fill="#263238"/>
<path opacity="0.2" d="M313.636 327C310.885 327 310.179 328.972 312.033 331.399L323.217 346.008C323.456 346.316 323.763 346.566 324.113 346.738C324.464 346.91 324.849 347 325.239 347H335C334.679 347 334.363 346.927 334.074 346.786C333.786 346.645 333.534 346.44 333.337 346.187L321.985 331.399C320.961 330.143 319.693 329.106 318.259 328.35C316.824 327.594 315.252 327.135 313.636 327Z" fill="white"/>
<path d="M375 360C390.464 360 403 343.882 403 324C403 304.118 390.464 288 375 288C359.536 288 347 304.118 347 324C347 343.882 359.536 360 375 360Z" fill="#263238"/>
<path d="M381.5 349C392.27 349 401 337.807 401 324C401 310.193 392.27 299 381.5 299C370.73 299 362 310.193 362 324C362 337.807 370.73 349 381.5 349Z" fill="#FF6B6B"/>
<path opacity="0.2" d="M399 335.008C395.985 343.844 389.22 350 381.35 350C370.662 350 362 338.64 362 324.625C362 314.753 366.296 306.203 372.571 302C371.434 305.342 370.859 308.857 370.872 312.395C370.872 326.399 379.534 337.771 390.222 337.771C393.35 337.756 396.405 336.795 399 335.008Z" fill="black"/>
<path d="M303 269V293.701C303 294.003 303.059 294.302 303.173 294.581C303.287 294.86 303.455 295.113 303.666 295.327C303.877 295.54 304.127 295.709 304.403 295.825C304.679 295.941 304.974 296 305.272 296H331.158C331.484 295.998 331.806 295.925 332.102 295.787C332.398 295.649 332.661 295.448 332.874 295.198L341.407 285.212C341.797 284.757 342.278 284.392 342.82 284.142C343.361 283.892 343.949 283.763 344.544 283.763H348V269H303Z" fill="#263238"/>
<path opacity="0.3" d="M348 269V283.763H344.52C343.676 283.753 342.848 284.008 342.153 284.494C341.853 284.693 341.582 284.935 341.348 285.212L338.484 288.565L337.608 289.582L334.14 293.653L333.253 294.683L332.815 295.198C332.602 295.448 332.338 295.649 332.042 295.787C331.746 295.925 331.424 295.998 331.098 296H305.272C304.841 295.999 304.419 295.875 304.055 295.642C303.69 295.409 303.398 295.077 303.213 294.683C303.074 294.375 303.002 294.04 303 293.701V269H348Z" fill="white"/>
<path opacity="0.2" d="M348 273H303V274H348V273Z" fill="black"/>
<path opacity="0.2" d="M348 278H303V279H348V278Z" fill="black"/>
<path opacity="0.2" d="M348 283V283.282H344.52C343.676 283.272 342.848 283.523 342.153 284H303V283H348Z" fill="black"/>
<path opacity="0.2" d="M338 288L337.138 289H303V288H338Z" fill="black"/>
<path opacity="0.2" d="M334 293L333.118 294H303.212C303.074 293.701 303.002 293.376 303 293.047L334 293Z" fill="black"/>
<path opacity="0.2" d="M348 269V274.188C340.954 275.891 320.503 280.489 303 281V269H348Z" fill="black"/>
<path d="M342 195H308V214H342V195Z" fill="#263238"/>
<path opacity="0.3" d="M342 195H308V214H342V195Z" fill="white"/>
<path opacity="0.2" d="M342 201H308V202H342V201Z" fill="black"/>
<path opacity="0.2" d="M342 205H308V206H342V205Z" fill="black"/>
<path opacity="0.2" d="M342 210H308V211H342V210Z" fill="black"/>
<path opacity="0.2" d="M342 195V199.82C333.345 202.944 319.029 207.375 308 206.975V195H342Z" fill="black"/>
<path d="M356.916 141H297.084C293.614 141 290.286 142.386 287.832 144.853C285.378 147.32 284 150.666 284 154.155V187.857C284.003 191.344 285.383 194.687 287.836 197.151C290.29 199.616 293.616 201 297.084 201H356.916C360.384 201 363.71 199.616 366.164 197.151C368.617 194.687 369.997 191.344 370 187.857V154.155C370 150.666 368.622 147.32 366.168 144.853C363.714 142.386 360.386 141 356.916 141Z" fill="#FF6B6B"/>
<path opacity="0.2" d="M370 154.145V187.855C370 189.582 369.658 191.292 368.993 192.888C368.329 194.484 367.355 195.933 366.127 197.154C364.899 198.375 363.441 199.343 361.837 200.003C360.234 200.663 358.515 201.002 356.779 201H333C334.736 201.002 336.455 200.663 338.059 200.003C339.663 199.343 341.12 198.375 342.348 197.154C343.576 195.933 344.55 194.484 345.214 192.888C345.879 191.292 346.221 189.582 346.221 187.855V154.145C346.221 152.418 345.879 150.708 345.214 149.112C344.55 147.516 343.576 146.067 342.348 144.846C341.12 143.625 339.663 142.657 338.059 141.997C336.455 141.337 334.736 140.998 333 141H356.779C358.515 140.998 360.234 141.337 361.837 141.997C363.441 142.657 364.899 143.625 366.127 144.846C367.355 146.067 368.329 147.516 368.993 149.112C369.658 150.708 370 152.418 370 154.145Z" fill="black"/>
<path d="M332.934 146H297.066C292.611 146 289 149.573 289 153.98V186.02C289 190.427 292.611 194 297.066 194H332.934C337.389 194 341 190.427 341 186.02V153.98C341 149.573 337.389 146 332.934 146Z" fill="#263238"/>
<path d="M362 163V124" stroke="#263238" stroke-width="1.15854" stroke-miterlimit="10"/>
<path d="M372 171.03C372 173.097 371.585 175.142 370.782 177.035C370.221 178.386 369.436 179.626 368.463 180.697C367.587 181.717 366.517 182.536 365.319 183.105C364.121 183.673 362.823 183.978 361.506 184C355.708 184 351 178.176 351 170.97C351 163.764 355.65 158 361.448 158C362.777 158.022 364.088 158.329 365.297 158.902C366.507 159.474 367.589 160.3 368.475 161.327C369.445 162.401 370.23 163.64 370.794 164.989C371.594 166.895 372.005 168.952 372 171.03Z" fill="#FF9696"/>
<g opacity="0.4">
<path d="M366.061 179.805C361.749 179.805 358.251 175.633 358.251 170.494C358.251 165.355 361.749 161.195 366.061 161.195C367.248 161.225 368.41 161.541 369.445 162.113C370.48 162.686 371.357 163.499 372 164.482C371.409 163.139 370.587 161.906 369.571 160.837C368.472 160.288 367.257 160.002 366.024 160C361.045 160 357 164.709 357 170.494C357 176.279 361.045 181 366.024 181C367.244 181.002 368.447 180.719 369.534 180.175C370.554 179.109 371.376 177.875 371.964 176.53C371.323 177.505 370.451 178.313 369.422 178.884C368.394 179.454 367.241 179.77 366.061 179.805Z" fill="black"/>
</g>
<path d="M326 163C326 165.214 325.111 167 324.006 167C322.9 167 322 165.214 322 163C322 160.786 322.9 159 324.006 159C325.111 159 326 160.786 326 163Z" fill="white"/>
<path d="M304 163C304 165.214 303.1 167 301.994 167C300.889 167 300 165.214 300 163C300 160.786 300.889 159 301.994 159C303.1 159 304 160.786 304 163Z" fill="white"/>
<path opacity="0.4" d="M313 180.926C315.091 183.145 317.016 185.509 318.761 188L320.223 187.316C326.799 184.133 328.787 180.526 328.991 177.484C329.057 175.995 328.762 174.511 328.128 173.157C327.793 172.381 327.35 171.655 326.811 171C324.355 174.737 318.426 178.156 315.228 179.865C313.874 180.537 313 180.926 313 180.926Z" fill="white"/>
<path d="M315 179.952L316.762 182C323.003 178.952 326.974 176.048 328 173.179C327.662 172.395 327.215 171.662 326.672 171C324.198 174.762 318.247 178.214 315 179.952Z" fill="white"/>
<path d="M320 187C326.75 183.763 328.791 180.094 329 177C326.455 178.276 324.162 179.981 322.225 182.036C320.968 183.422 320.189 185.158 320 187Z" fill="#FF6B6B"/>
<path d="M367 224.523V259.477C367 261.123 366.675 262.752 366.042 264.272C365.41 265.792 364.483 267.173 363.315 268.336C362.146 269.499 360.759 270.421 359.233 271.05C357.707 271.679 356.071 272.002 354.42 272H298.568C296.918 272 295.284 271.676 293.759 271.047C292.234 270.417 290.848 269.495 289.681 268.332C288.514 267.169 287.588 265.789 286.957 264.269C286.325 262.75 286 261.122 286 259.477V224.523C286 221.202 287.324 218.016 289.681 215.668C292.038 213.319 295.235 212 298.568 212H354.42C356.071 211.998 357.707 212.321 359.233 212.95C360.759 213.579 362.146 214.501 363.315 215.664C364.483 216.827 365.41 218.208 366.042 219.728C366.675 221.248 367 222.877 367 224.523Z" fill="#FF6B6B"/>
<path opacity="0.2" d="M367 224.523V259.477C367 261.123 366.67 262.752 366.029 264.272C365.388 265.792 364.449 267.173 363.265 268.336C362.081 269.499 360.675 270.421 359.128 271.05C357.582 271.679 355.924 272.002 354.25 272H347.738C346.065 272 344.409 271.676 342.863 271.047C341.318 270.417 339.914 269.495 338.731 268.332C337.548 267.169 336.61 265.789 335.97 264.269C335.33 262.75 335 261.122 335 259.477V224.523C335 221.202 336.342 218.016 338.731 215.668C341.12 213.319 344.36 212 347.738 212H354.25C355.924 211.998 357.582 212.321 359.128 212.95C360.675 213.579 362.081 214.501 363.265 215.664C364.449 216.827 365.388 218.208 366.029 219.728C366.67 221.248 367 222.877 367 224.523Z" fill="black"/>
<path d="M279 220V210.126L275 203L275.468 213.778L279 220Z" fill="#263238"/>
<path d="M250 209.525L251.325 207.404L253.488 206.302V203.862L257.499 200L260.137 203.744L258.885 204.786L257.317 204.123L257.013 205.864H259.031L261 211.468L259.785 212.38L260.307 215.128L257.305 217L254.181 215.815L254.971 213.932C254.971 213.932 250 214.37 250 209.525Z" fill="#263238"/>
<path d="M351.669 220.144C352.513 220.15 353.345 220.36 354.095 220.756C354.846 221.152 355.494 221.723 355.988 222.423C356.481 223.123 356.806 223.931 356.936 224.783C357.066 225.635 356.997 226.507 356.735 227.327C353.616 236.784 344.491 252 318.033 252C288.842 252 272 225.303 272 225.303L278.697 220C278.697 220 293.415 242.231 317.751 242.231C337.853 242.231 344.503 230.044 346.59 223.759C346.962 222.691 347.651 221.769 348.562 221.12C349.472 220.472 350.559 220.131 351.669 220.144Z" fill="#263238"/>
<path opacity="0.3" d="M356.691 227.308C356.271 228.581 355.782 229.829 355.225 231.046C355.096 231.358 354.955 231.669 354.791 231.981C353.809 234.02 352.63 235.954 351.273 237.755C351.079 238.034 350.872 238.302 350.651 238.558C348.706 240.992 346.427 243.127 343.885 244.896L343.052 245.471C340.533 247.111 337.828 248.43 334.996 249.4L334.034 249.724C331.091 250.647 328.067 251.281 325.005 251.617L324.008 251.724C322.12 251.904 320.127 252 318.027 252C317.031 252 316.057 252 315.096 251.916L314.087 251.832C311.457 251.612 308.849 251.172 306.289 250.514L305.304 250.263C302.343 249.427 299.459 248.329 296.685 246.98L295.794 246.525C293.026 245.114 290.374 243.475 287.866 241.625C287.585 241.433 287.315 241.23 287.045 241.026C284.605 239.192 282.289 237.191 280.115 235.036L279.4 234.317C276.657 231.562 274.179 228.545 272 225.307L278.696 220C280.619 222.734 282.795 225.274 285.193 227.584L285.92 228.291C287.766 230.055 289.724 231.692 291.783 233.191C292.053 233.394 292.322 233.598 292.604 233.79C294.806 235.345 297.123 236.723 299.534 237.911L300.449 238.354C302.672 239.378 304.975 240.211 307.333 240.846C307.649 240.942 307.978 241.026 308.306 241.098C310.413 241.618 312.559 241.963 314.721 242.128L315.729 242.2C316.397 242.2 317.078 242.2 317.769 242.2C319.509 242.202 321.248 242.102 322.976 241.9C323.316 241.9 323.656 241.817 323.985 241.757C326.282 241.455 328.542 240.909 330.728 240.127L331.677 239.768C333.586 238.992 335.403 237.999 337.095 236.809C337.377 236.605 337.646 236.413 337.904 236.198C339.586 234.905 341.095 233.395 342.396 231.705C342.618 231.429 342.818 231.154 343.005 230.878C343.967 229.531 344.803 228.095 345.503 226.589C345.644 226.266 345.785 225.954 345.914 225.643C346.195 224.972 346.43 224.325 346.629 223.738C347.123 222.404 348.107 221.32 349.372 220.716C350.637 220.113 352.082 220.037 353.401 220.505C354.719 220.973 355.807 221.949 356.432 223.224C357.057 224.499 357.171 225.973 356.749 227.332L356.691 227.308Z" fill="white"/>
<path d="M273 206.204C273 206.204 266.402 201.77 265.823 202.009C264.226 203.308 262.702 204.697 261.258 206.168L262.275 207.81L259.97 210.399L260.679 211.514L259 214.57L263.091 220H268.01L273 206.204Z" fill="#263238"/>
<path d="M273.397 226L280 220.886C280 220.886 274.876 206.712 273.397 206.041C271.918 205.37 263 213.157 263 214.383C263 215.61 270.038 224.068 273.397 226Z" fill="#FF6B6B"/>
<path opacity="0.2" d="M356 231.115C355.869 231.41 355.725 231.705 355.558 232L346 226.896C346.143 226.59 346.287 226.295 346.418 226L356 231.115Z" fill="black"/>
<path opacity="0.2" d="M352 238.164C351.805 238.454 351.596 238.733 351.373 239L343 231.861C343.225 231.574 343.426 231.287 343.615 231L352 238.164Z" fill="black"/>
<path opacity="0.2" d="M345 244.442L344.148 245L338 236.593C338.288 236.395 338.564 236.209 338.828 236L345 244.442Z" fill="black"/>
<path opacity="0.2" d="M335 249.675L334.109 250L331 240.361L331.88 240L335 249.675Z" fill="black"/>
<path opacity="0.2" d="M325 251.892L324.029 252L323 242.145C323.331 242.145 323.663 242.06 323.983 242L325 251.892Z" fill="black"/>
<path opacity="0.2" d="M317 242.073L316.246 252L315 251.915L315.754 242L317 242.073Z" fill="black"/>
<path opacity="0.2" d="M309 241.26L306.992 251L306 250.74L308.02 241C308.339 241.099 308.669 241.185 309 241.26Z" fill="black"/>
<path opacity="0.2" d="M301 238.439L296.972 247L296 246.549L300.054 238L301 238.439Z" fill="black"/>
<path opacity="0.2" d="M293 233.567L287.894 241C287.587 240.819 287.294 240.626 287 240.433L292.106 233C292.413 233.193 292.694 233.385 293 233.567Z" fill="black"/>
<path opacity="0.2" d="M287 227.664L280.768 234L280 233.325L286.219 227L287 227.664Z" fill="black"/>
<defs>
<linearGradient id="paint0_linear_314_3363" x1="129" y1="10" x2="129" y2="349" gradientUnits="userSpaceOnUse">
<stop stop-color="#407BFF"/>
<stop offset="1" stop-color="#FF9696"/>
</linearGradient>
</defs>
</svg>
