<svg width="120" height="120" viewBox="0 0 120 120" fill="none" xmlns="http://www.w3.org/2000/svg">
<g filter="url(#filter0_d_2477_3)">
<path d="M44.5159 56.405C44.3613 55.4036 44.2811 54.3776 44.2811 53.333C44.2811 42.2872 53.2472 33.333 64.3074 33.333C75.3676 33.333 84.3335 42.2872 84.3335 53.333C84.3335 55.8281 83.876 58.2167 83.0402 60.4192C82.8665 60.8767 82.7798 61.1055 82.7403 61.284C82.7013 61.461 82.6862 61.5855 82.6821 61.7666C82.6778 61.9494 82.7024 62.151 82.7516 62.5537L83.7529 70.7293C83.8612 71.6143 83.9155 72.0568 83.7691 72.3785C83.6408 72.6603 83.4128 72.8842 83.1295 73.0067C82.8063 73.1465 82.3674 73.0818 81.4897 72.9525L73.5682 71.7853C73.1547 71.7243 72.9478 71.6938 72.7595 71.6949C72.5731 71.696 72.4442 71.7097 72.2618 71.7483C72.0776 71.7873 71.842 71.876 71.3712 72.0532C69.1744 72.8805 66.7939 73.3329 64.3074 73.3329C63.2674 73.3329 62.2458 73.2538 61.2487 73.1012M48.3388 83.333C55.7122 83.333 61.6896 77.1768 61.6896 69.5829C61.6896 61.989 55.7122 55.833 48.3388 55.833C40.9653 55.833 34.988 61.989 34.988 69.5829C34.988 71.1095 35.2295 72.5778 35.6753 73.9498C35.8639 74.5297 35.9581 74.8198 35.989 75.0178C36.0213 75.2246 36.0269 75.3408 36.015 75.5497C36.0034 75.75 35.9536 75.9763 35.854 76.4287L34.3335 83.333L41.7814 82.3104C42.188 82.2547 42.3911 82.2268 42.5687 82.2279C42.7556 82.2292 42.8548 82.2393 43.0381 82.2761C43.2121 82.3109 43.4709 82.4028 43.9884 82.5864C45.3521 83.0703 46.8157 83.333 48.3388 83.333Z" stroke="#B30000" stroke-width="4.93" stroke-linecap="round" stroke-linejoin="round"/>
</g>
<defs>
<filter id="filter0_d_2477_3" x="0.868652" y="0.868042" width="118.93" height="118.93" filterUnits="userSpaceOnUse" color-interpolation-filters="sRGB">
<feFlood flood-opacity="0" result="BackgroundImageFix"/>
<feColorMatrix in="SourceAlpha" type="matrix" values="0 0 0 0 0 0 0 0 0 0 0 0 0 0 0 0 0 0 127 0" result="hardAlpha"/>
<feOffset dx="1" dy="2"/>
<feGaussianBlur stdDeviation="16"/>
<feComposite in2="hardAlpha" operator="out"/>
<feColorMatrix type="matrix" values="0 0 0 0 0.814532 0 0 0 0 0.878375 0 0 0 0 0.956406 0 0 0 0.8 0"/>
<feBlend mode="normal" in2="BackgroundImageFix" result="effect1_dropShadow_2477_3"/>
<feBlend mode="normal" in="SourceGraphic" in2="effect1_dropShadow_2477_3" result="shape"/>
</filter>
</defs>
</svg>
