<svg width="48" height="48" viewBox="0 0 48 48" fill="none" xmlns="http://www.w3.org/2000/svg">
<path fill-rule="evenodd" clip-rule="evenodd" d="M41.3613 5H6.64469C5.73625 5 5 5.78117 5 6.74503V30L5.93813 29.5879V6.74503C5.93813 6.32924 6.25875 5.98906 6.65063 5.98906H41.3613C41.7531 5.98906 42.0737 6.32924 42.0737 6.74503V29.5879L43 30V6.74503C43 5.78117 42.2638 5 41.3613 5Z" fill="#B30000"/>
<path d="M5.93813 29.5879V6.74503C5.93813 6.32924 6.25875 5.98906 6.65063 5.98906H41.3613C41.7531 5.98906 42.0737 6.32924 42.0737 6.74503V29.5879M5.93813 29.5879H42.0737M5.93813 29.5879L5 30V6.74503C5 5.78117 5.73625 5 6.64469 5H41.3613C42.2638 5 43 5.78117 43 6.74503V30L42.0737 29.5879M24 31.2069C27.9467 31.2069 20.0558 31.2069 24 31.2069Z" stroke="#B30000" stroke-width="0.3"/>
<path opacity="0.4" d="M34.622 15.5962H33.0029C32.7736 14.5932 32.3868 13.6475 31.8423 12.7807L32.9814 11.6344C33.0745 11.5484 33.1247 11.4266 33.1247 11.3048C33.1247 11.1758 33.0745 11.0612 32.9886 10.9681L30.696 8.68265C30.524 8.50354 30.216 8.50354 30.044 8.68265L28.8977 9.82894C28.0237 9.28445 27.078 8.89042 26.0821 8.66116V7.04918C26.0821 6.79126 25.8672 6.5835 25.6164 6.5835H22.3782C22.1202 6.5835 21.9196 6.79843 21.9196 7.04918V8.66116C20.9166 8.89758 19.9709 9.28445 19.0969 9.82894L17.9578 8.68265C17.7787 8.50354 17.4778 8.50354 17.2986 8.68265L15.0132 10.9681C14.8269 11.1543 14.8269 11.4409 15.0132 11.6272L16.1595 12.7735C15.615 13.6404 15.221 14.5861 14.9917 15.5891H13.3797C13.1218 15.5891 12.9141 15.7968 12.9141 16.0476V19.2859C12.9141 19.5438 13.129 19.7516 13.3797 19.7516H14.9917C15.221 20.7546 15.615 21.6931 16.1595 22.5672L15.0132 23.7134C14.8269 23.8926 14.8269 24.1863 15.0132 24.3654L17.2986 26.658C17.4778 26.8299 17.7787 26.8299 17.9578 26.658L19.0969 25.5117C19.9709 26.0562 20.9238 26.4502 21.9196 26.6795V28.2915C21.9196 28.5494 22.1274 28.75 22.3782 28.75H25.6164C25.8744 28.75 26.0821 28.5422 26.0821 28.2915V26.6938C27.0851 26.4574 28.0237 26.0705 28.8977 25.526L30.044 26.6723C30.216 26.8443 30.524 26.8443 30.696 26.6723L32.9886 24.3797C33.0745 24.2938 33.1247 24.1791 33.1247 24.0502C33.1247 23.9284 33.0745 23.8066 32.9886 23.7206L31.8423 22.5743C32.3868 21.7003 32.7808 20.7546 33.0029 19.7587H34.622C34.8799 19.7587 35.0805 19.5438 35.0805 19.293V16.0548C35.0877 15.7968 34.8799 15.5962 34.622 15.5962ZM27.5795 18.9133L25.6523 16.9861C25.1006 16.4345 24.1979 16.4345 23.6463 16.9861L23.2021 17.4232C23.0803 17.5521 22.8725 17.5521 22.7579 17.4303C22.6289 17.3014 22.6289 17.0936 22.7579 16.979L24.3125 15.4171H26.2612L27.1568 16.3127C27.2213 16.3772 27.3072 16.413 27.4004 16.413H30.13C30.216 16.8142 30.2589 17.244 30.2589 17.6739C30.2589 18.0966 30.216 18.5121 30.1372 18.9133H27.5795ZM26.3544 19.859L24.6779 18.1826C24.5418 18.0464 24.3197 18.0464 24.1836 18.1826C24.0475 18.3187 24.0475 18.5408 24.1836 18.6769L25.509 20.0023H24.2337L23.374 19.1426C23.2379 19.0065 23.0158 19.0065 22.8797 19.1426C22.7435 19.2787 22.7435 19.5008 22.8797 19.6369L23.245 20.0023H21.848L21.0098 19.1569C20.9453 19.0924 20.8522 19.0566 20.759 19.0566H17.8861C17.7858 18.6124 17.7285 18.1468 17.7285 17.6739C17.7285 17.2655 17.7715 16.8572 17.8503 16.4703H20.8092C20.9023 16.4703 20.9883 16.4273 21.0599 16.3628L22.0056 15.4171H23.3167L22.2492 16.4846C21.8552 16.8787 21.8552 17.5306 22.2492 17.9247C22.6361 18.3115 23.3024 18.3115 23.6892 17.9247L24.1334 17.4805C24.4128 17.2011 24.8714 17.2011 25.1508 17.4805L26.9419 19.2716L26.3544 19.859ZM27.5365 15.7109L26.6409 14.8153C26.5765 14.7509 26.4833 14.715 26.3902 14.715H21.848C21.7549 14.715 21.6689 14.7509 21.6044 14.8153L20.6516 15.761H18.0151C18.8246 13.2392 21.196 11.4123 23.9758 11.4123C26.7412 11.4123 29.0983 13.2248 29.9151 15.7109H27.5365ZM20.6157 19.7516L21.454 20.597C21.5184 20.6614 21.6116 20.7044 21.7047 20.7044H26.3544C26.3974 20.7044 26.4403 20.6973 26.4833 20.6758C26.4977 20.6686 26.5048 20.6614 26.512 20.6543C26.5406 20.6399 26.5765 20.6256 26.598 20.597H26.6051L27.5866 19.6083H29.9437C29.1341 22.123 26.7771 23.9284 23.9973 23.9284C21.282 23.9284 18.9536 22.1803 18.101 19.7444H20.6157V19.7516Z" fill="#FF0000"/>
<path d="M41.3613 5H6.64469C5.73625 5 5 5.78117 5 6.74503V33.563C5 34.5269 5.73625 35.308 6.64469 35.308H20.4731V38.3886C18.4366 38.628 16.8453 40.4675 16.8453 42.6913C16.8453 42.8614 16.9759 43 17.1363 43H31.0359C31.1962 43 31.3269 42.8614 31.3269 42.6913C31.3269 40.4675 29.7356 38.628 27.6991 38.3886V35.308H41.3613C42.2638 35.308 43 34.5269 43 33.563V6.74503C43 5.78117 42.2638 5 41.3613 5ZM21.4053 38.3508V35.308H26.7609V38.3508H21.4053ZM25.1578 32.4353C25.1578 33.1094 24.6413 33.6638 24 33.6638C23.3647 33.6638 22.8422 33.1094 22.8422 32.4353C22.8422 31.755 23.3647 31.2069 24 31.2069C24.6413 31.2069 25.1578 31.755 25.1578 32.4353ZM5.93813 29.5879V6.74503C5.93813 6.32924 6.25875 5.98906 6.65063 5.98906H41.3613C41.7531 5.98906 42.0737 6.32924 42.0737 6.74503V29.5879H5.93813Z" fill="#B30000"/>
</svg>
