<svg width="48" height="49" viewBox="0 0 48 49" fill="none" xmlns="http://www.w3.org/2000/svg">
    <path d="m19.815 27.23-1.163 1.118 3.833 3.232 3.465-.315 3.57-2.49-4.545-2.925-5.16 1.38zM12.135 16.07a3.473 3.473 0 1 0 0-6.945 3.473 3.473 0 0 0 0 6.945zM38.46 15.056a3.473 3.473 0 1 0-4.91-4.91 3.473 3.473 0 0 0 4.91 4.91zM12.135 39.755a3.473 3.473 0 1 0 0-6.945 3.473 3.473 0 0 0 0 6.945zM39.206 37.613a3.472 3.472 0 1 0-6.416-2.658 3.472 3.472 0 0 0 6.416 2.658z" fill="#F9B0B3"/>
    <path d="m33.45 32.578-3-3c.07-.075.131-.158.18-.248a8.138 8.138 0 0 0 1.5-3.682h.63a3.435 3.435 0 1 0 0-2.25h-.63a8.116 8.116 0 0 0-1.5-3.713l3.12-3.112a4.32 4.32 0 0 0 5.115-.75 4.388 4.388 0 0 0 0-6.166c-3.69-3.592-9.473 1.02-6.75 5.4l-3 3a8.078 8.078 0 0 0-3.96-1.687v-.645a3.435 3.435 0 1 0-2.25 0v.63a8.182 8.182 0 0 0-3.84 1.59l-3.038-3.037c2.513-4.388-3.24-8.79-6.847-5.25-3.608 3.54.877 9.36 5.25 6.847l3.038 3.038a8.181 8.181 0 0 0-1.59 3.84h-.653a3.436 3.436 0 1 0 0 2.25h.63a8.137 8.137 0 0 0 1.5 3.682c.03.058.066.113.105.165l-3 3a4.358 4.358 0 0 0-5.25.683 4.357 4.357 0 1 0 6.848.907l3.037-3a8.183 8.183 0 0 0 3.84 1.59v.63a3.435 3.435 0 1 0 2.25 0v-.63a8.116 8.116 0 0 0 3.75-1.5l2.992 3.09c-2.325 4.388 3.39 8.587 6.923 5.115 3.608-3.72-1.028-9.473-5.4-6.788zM24 30.5a6 6 0 0 1-4.185-1.71 6 6 0 0 1 8.37 0A6 6 0 0 1 24 30.5zm0-12a5.999 5.999 0 0 1 5.475 8.392 8.055 8.055 0 0 0-4.103-1.972 3.083 3.083 0 1 0-2.744 0 8.055 8.055 0 0 0-4.103 1.972A6 6 0 0 1 24 18.5zm0 4.5a.84.84 0 1 1 0-1.68.84.84 0 0 1 0 1.68zm12 .285a1.193 1.193 0 1 1-1.178 1.215A1.184 1.184 0 0 1 36 23.308v-.023zM34.275 11.24a2.121 2.121 0 1 1 3 3 2.121 2.121 0 0 1-3-3zM24 11.3a1.193 1.193 0 0 1 0 2.377 1.193 1.193 0 0 1 0-2.377zm-13.26 2.925a2.107 2.107 0 1 1 2.312.462 2.115 2.115 0 0 1-2.312-.462zM12 25.692a1.192 1.192 0 1 1 1.178-1.192A1.185 1.185 0 0 1 12 25.692zm1.725 12.068a2.108 2.108 0 1 1 0-3 2.123 2.123 0 0 1 0 3zM24 37.7a1.193 1.193 0 0 1 0-2.378 1.193 1.193 0 0 1 0 2.378zm13.26.06a2.122 2.122 0 1 1-3-3 2.122 2.122 0 0 1 3 3z" fill="#004498"/>
</svg>
