<svg width="56" height="56" viewBox="0 0 56 56" fill="none" xmlns="http://www.w3.org/2000/svg">
<path opacity="0.3" d="M35.0001 44.3335H25.6667V47.8335H35.0001V44.3335Z" fill="#FF0000"/>
<path d="M21.3328 16.9997V24.9997C21.3336 25.7067 21.6148 26.3845 22.1147 26.8844C22.6146 27.3843 23.2924 27.6655 23.9994 27.6663H31.9994C32.7064 27.6655 33.3842 27.3843 33.8842 26.8844C34.3841 26.3845 34.6653 25.7067 34.6661 24.9997V16.9997C34.6653 16.2927 34.3841 15.6149 33.8842 15.1149C33.3842 14.615 32.7064 14.3338 31.9994 14.333H23.9994C23.2924 14.3338 22.6146 14.615 22.1147 15.1149C21.6148 15.6149 21.3336 16.2927 21.3328 16.9997ZM33.3328 16.9997V24.9997C33.3324 25.3532 33.1918 25.6921 32.9418 25.9421C32.6919 26.192 32.3529 26.3326 31.9994 26.333H23.9994C23.6459 26.3326 23.307 26.192 23.057 25.9421C22.8071 25.6921 22.6665 25.3532 22.6661 24.9997V16.9997C22.6665 16.6462 22.8071 16.3072 23.057 16.0573C23.307 15.8073 23.6459 15.6667 23.9994 15.6663H31.9994C32.3529 15.6667 32.6919 15.8073 32.9418 16.0573C33.1918 16.3072 33.3324 16.6462 33.3328 16.9997Z" fill="#B30000"/>
<path d="M21.3328 16.9997V24.9997C21.3336 25.7067 21.6148 26.3845 22.1147 26.8844C22.6146 27.3843 23.2924 27.6655 23.9994 27.6663H31.9994C32.7064 27.6655 33.3842 27.3843 33.8842 26.8844C34.3841 26.3845 34.6653 25.7067 34.6661 24.9997V16.9997C34.6653 16.2927 34.3841 15.6149 33.8842 15.1149C33.3842 14.615 32.7064 14.3338 31.9994 14.333H23.9994C23.2924 14.3338 22.6146 14.615 22.1147 15.1149C21.6148 15.6149 21.3336 16.2927 21.3328 16.9997ZM33.3328 16.9997V24.9997C33.3324 25.3532 33.1918 25.6921 32.9418 25.9421C32.6919 26.192 32.3529 26.3326 31.9994 26.333H23.9994C23.6459 26.3326 23.307 26.192 23.057 25.9421C22.8071 25.6921 22.6665 25.3532 22.6661 24.9997V16.9997C22.6665 16.6462 22.8071 16.3072 23.057 16.0573C23.307 15.8073 23.6459 15.6667 23.9994 15.6663H31.9994C32.3529 15.6667 32.6919 15.8073 32.9418 16.0573C33.1918 16.3072 33.3324 16.6462 33.3328 16.9997Z" stroke="white"/>
<path opacity="0.3" d="M27.4796 24.4351C27.6332 24.584 27.8388 24.6671 28.0527 24.6666H28.0595C28.2755 24.6655 28.4824 24.5792 28.635 24.4263L31.2317 21.8375C31.4784 21.5934 31.6734 21.3022 31.8052 20.9812C31.9369 20.6602 32.0027 20.316 31.9986 19.969C31.9959 19.6173 31.9225 19.2698 31.7826 18.9471C31.6428 18.6244 31.4394 18.3332 31.1847 18.0907C30.8193 17.7432 30.3652 17.503 29.8722 17.3967C29.3793 17.2903 28.8666 17.3219 28.3904 17.4879C28.12 17.5835 27.8252 17.5853 27.5537 17.4931C27.0762 17.3291 26.5626 17.3013 26.0702 17.4127C25.5779 17.5242 25.1262 17.7704 24.7659 18.1239C24.5192 18.368 24.3241 18.6593 24.1924 18.9803C24.0606 19.3014 23.9948 19.6457 23.999 19.9927C24.0017 20.3443 24.0752 20.6917 24.215 21.0143C24.3548 21.3369 24.5582 21.628 24.8129 21.8703L27.4796 24.4351ZM25.7073 19.0679C25.9634 18.8166 26.3085 18.6767 26.6673 18.6786C26.8218 18.6786 26.9752 18.7041 27.1214 18.7541C27.6771 18.9435 28.2805 18.9403 28.8343 18.745C29.0772 18.6603 29.3389 18.644 29.5904 18.6981C29.842 18.7522 30.0739 18.8745 30.2605 19.0516C30.3869 19.1715 30.4879 19.3155 30.5575 19.4752C30.627 19.6348 30.6638 19.8069 30.6655 19.981C30.6673 20.1505 30.6351 20.3186 30.5706 20.4754C30.5061 20.6321 30.4108 20.7743 30.2903 20.8935L28.0466 23.1304L25.7371 20.9094C25.6107 20.7896 25.5097 20.6457 25.4402 20.4861C25.3706 20.3264 25.3339 20.1545 25.3321 19.9804C25.3303 19.8109 25.3625 19.6428 25.427 19.486C25.4914 19.3293 25.5868 19.1871 25.7073 19.0679Z" fill="#FF0000"/>
<path d="M46.6672 15H38.6672C37.9602 15.0008 37.2824 15.282 36.7825 15.7819C36.2826 16.2819 36.0014 16.9597 36.0006 17.6667V24.3333C36.0014 25.0403 36.2826 25.7181 36.7825 26.2181C37.2824 26.718 37.9602 26.9992 38.6672 27H46.6672C47.3742 26.9992 48.052 26.718 48.552 26.2181C49.0519 25.7181 49.3331 25.0403 49.3339 24.3333V17.6667C49.3331 16.9597 49.0519 16.2819 48.552 15.7819C48.052 15.282 47.3742 15.0008 46.6672 15ZM48.0006 24.3333C48.0002 24.6868 47.8596 25.0258 47.6096 25.2757C47.3597 25.5257 47.0207 25.6663 46.6672 25.6667H38.6672C38.3137 25.6663 37.9748 25.5257 37.7248 25.2757C37.4749 25.0258 37.3343 24.6868 37.3339 24.3333V17.6667C37.3343 17.3132 37.4749 16.9742 37.7248 16.7243C37.9748 16.4743 38.3137 16.3337 38.6672 16.3333H46.6672C47.0207 16.3337 47.3597 16.4743 47.6096 16.7243C47.8596 16.9742 48.0002 17.3132 48.0006 17.6667V24.3333ZM9.3339 27H17.3339C18.0409 26.9992 18.7187 26.718 19.2186 26.2181C19.7185 25.7181 19.9998 25.0403 20.0006 24.3333V17.6667C19.9998 16.9597 19.7185 16.2819 19.2186 15.7819C18.7187 15.282 18.0409 15.0008 17.3339 15H9.3339C8.62691 15.0008 7.9491 15.282 7.44918 15.7819C6.94926 16.2819 6.66805 16.9597 6.66724 17.6667V24.3333C6.66805 25.0403 6.94926 25.7181 7.44918 26.2181C7.9491 26.718 8.62691 26.9992 9.3339 27ZM8.00057 17.6667C8.00095 17.3132 8.14154 16.9742 8.39151 16.7243C8.64148 16.4743 8.9804 16.3337 9.3339 16.3333H17.3339C17.6874 16.3337 18.0263 16.4743 18.2763 16.7243C18.5263 16.9742 18.6669 17.3132 18.6672 17.6667V24.3333C18.6669 24.6868 18.5263 25.0258 18.2763 25.2757C18.0263 25.5257 17.6874 25.6663 17.3339 25.6667H9.3339C8.9804 25.6663 8.64148 25.5257 8.39151 25.2757C8.14154 25.0258 8.00095 24.6868 8.00057 24.3333V17.6667Z" fill="#B30000"/>
<path d="M46.6672 15H38.6672C37.9602 15.0008 37.2824 15.282 36.7825 15.7819C36.2826 16.2819 36.0014 16.9597 36.0006 17.6667V24.3333C36.0014 25.0403 36.2826 25.7181 36.7825 26.2181C37.2824 26.718 37.9602 26.9992 38.6672 27H46.6672C47.3742 26.9992 48.052 26.718 48.552 26.2181C49.0519 25.7181 49.3331 25.0403 49.3339 24.3333V17.6667C49.3331 16.9597 49.0519 16.2819 48.552 15.7819C48.052 15.282 47.3742 15.0008 46.6672 15ZM48.0006 24.3333C48.0002 24.6868 47.8596 25.0258 47.6096 25.2757C47.3597 25.5257 47.0207 25.6663 46.6672 25.6667H38.6672C38.3137 25.6663 37.9748 25.5257 37.7248 25.2757C37.4749 25.0258 37.3343 24.6868 37.3339 24.3333V17.6667C37.3343 17.3132 37.4749 16.9742 37.7248 16.7243C37.9748 16.4743 38.3137 16.3337 38.6672 16.3333H46.6672C47.0207 16.3337 47.3597 16.4743 47.6096 16.7243C47.8596 16.9742 48.0002 17.3132 48.0006 17.6667V24.3333ZM9.3339 27H17.3339C18.0409 26.9992 18.7187 26.718 19.2186 26.2181C19.7185 25.7181 19.9998 25.0403 20.0006 24.3333V17.6667C19.9998 16.9597 19.7185 16.2819 19.2186 15.7819C18.7187 15.282 18.0409 15.0008 17.3339 15H9.3339C8.62691 15.0008 7.9491 15.282 7.44918 15.7819C6.94926 16.2819 6.66805 16.9597 6.66724 17.6667V24.3333C6.66805 25.0403 6.94926 25.7181 7.44918 26.2181C7.9491 26.718 8.62691 26.9992 9.3339 27ZM8.00057 17.6667C8.00095 17.3132 8.14154 16.9742 8.39151 16.7243C8.64148 16.4743 8.9804 16.3337 9.3339 16.3333H17.3339C17.6874 16.3337 18.0263 16.4743 18.2763 16.7243C18.5263 16.9742 18.6669 17.3132 18.6672 17.6667V24.3333C18.6669 24.6868 18.5263 25.0258 18.2763 25.2757C18.0263 25.5257 17.6874 25.6663 17.3339 25.6667H9.3339C8.9804 25.6663 8.64148 25.5257 8.39151 25.2757C8.14154 25.0258 8.00095 24.6868 8.00057 24.3333V17.6667Z" stroke="white"/>
<path opacity="0.3" d="M42.6693 17.667C42.01 17.667 41.3655 17.8625 40.8174 18.2288C40.2692 18.595 39.842 19.1156 39.5897 19.7247C39.3374 20.3338 39.2714 21.004 39.4 21.6506C39.5286 22.2972 39.8461 22.8912 40.3122 23.3573C40.7784 23.8235 41.3724 24.141 42.019 24.2696C42.6656 24.3982 43.3358 24.3322 43.9449 24.0799C44.554 23.8276 45.0746 23.4004 45.4408 22.8522C45.8071 22.3041 46.0026 21.6596 46.0026 21.0003C46.0016 20.1166 45.6501 19.2693 45.0252 18.6444C44.4003 18.0195 43.553 17.668 42.6693 17.667ZM42.6693 23.0003C42.2737 23.0003 41.887 22.883 41.5581 22.6633C41.2292 22.4435 40.9729 22.1311 40.8215 21.7657C40.6701 21.4002 40.6305 20.9981 40.7077 20.6101C40.7849 20.2222 40.9754 19.8658 41.2551 19.5861C41.5348 19.3064 41.8911 19.1159 42.2791 19.0388C42.6671 18.9616 43.0692 19.0012 43.4346 19.1526C43.8001 19.3039 44.1124 19.5603 44.3322 19.8892C44.552 20.2181 44.6693 20.6048 44.6693 21.0003C44.6687 21.5306 44.4578 22.039 44.0828 22.4139C43.7079 22.7888 43.1995 22.9997 42.6693 23.0003ZM12.8646 23.805C12.9265 23.8669 12.9999 23.9161 13.0808 23.9496C13.1617 23.9831 13.2484 24.0003 13.3359 24.0003C13.4235 24.0003 13.5102 23.9831 13.591 23.9496C13.6719 23.9161 13.7454 23.8669 13.8073 23.805L16.1406 21.4717C16.2025 21.4098 16.2517 21.3363 16.2852 21.2554C16.3187 21.1746 16.3359 21.0879 16.3359 21.0003C16.3359 20.9128 16.3187 20.8261 16.2852 20.7452C16.2517 20.6643 16.2025 20.5909 16.1406 20.529L13.8073 18.1956C13.7454 18.1337 13.6719 18.0846 13.591 18.0511C13.5102 18.0176 13.4235 18.0003 13.3359 18.0003C13.2484 18.0003 13.1617 18.0176 13.0808 18.0511C13 18.0846 12.9265 18.1337 12.8646 18.1956L10.5313 20.529C10.4693 20.5909 10.4202 20.6643 10.3867 20.7452C10.3532 20.8261 10.3359 20.9128 10.3359 21.0003C10.3359 21.0879 10.3532 21.1746 10.3867 21.2554C10.4202 21.3363 10.4693 21.4098 10.5313 21.4717L12.8646 23.805ZM13.3359 19.6097L14.7264 21.0003L13.3359 22.391L11.9455 21.0003L13.3359 19.6097Z" fill="#FF0000"/>
<path d="M50.2396 46.9997H35.5554C35.5902 46.9167 35.6188 46.8312 35.6409 46.7439C35.9983 45.2049 36.2207 43.6376 36.3055 42.06C36.3213 42.003 36.3325 37.7097 36.3325 37.7097C36.3507 37.2456 36.1844 36.7933 35.8701 36.4514C35.5558 36.1095 35.119 35.9059 34.6551 35.8851C34.4708 35.8855 34.2878 35.9153 34.1129 35.9734C34.0493 35.5758 33.8456 35.2141 33.5386 34.9535C33.2316 34.693 32.8416 34.5508 32.4389 34.5528C32.2205 34.5532 32.004 34.5933 31.7999 34.6713C31.6719 34.3757 31.4611 34.1233 31.193 33.9447C30.9249 33.7661 30.6108 33.6687 30.2887 33.6644C30.1165 33.6655 29.9454 33.6919 29.7809 33.7426V31.5446C29.7809 30.4564 29.0725 29.6664 28.0965 29.6664C27.8583 29.6571 27.6207 29.6962 27.3981 29.7813C27.1754 29.8663 26.9723 29.9956 26.801 30.1614C26.6297 30.3271 26.4937 30.5258 26.4014 30.7456C26.309 30.9653 26.2621 31.2015 26.2635 31.4398V38.5998C25.873 38.0448 25.3369 37.6084 24.7143 37.3386C24.4868 37.2545 24.2446 37.2174 24.0023 37.2295C23.76 37.2415 23.5227 37.3026 23.3047 37.4089C23.124 37.4772 22.9586 37.5806 22.8179 37.7129C22.6773 37.8453 22.5641 38.0042 22.485 38.1804C22.2016 38.8047 22.3151 39.6289 22.8224 40.6306C22.9253 40.8345 24.603 44.4693 25.7686 46.9997H5.75871C5.66387 46.9873 5.56747 46.9953 5.47596 47.0231C5.38445 47.051 5.29994 47.098 5.22805 47.1611C5.15617 47.2242 5.09858 47.3019 5.05913 47.389C5.01968 47.4762 4.99927 47.5707 4.99927 47.6664C4.99927 47.762 5.01968 47.8566 5.05913 47.9437C5.09858 48.0308 5.15617 48.1085 5.22805 48.1716C5.29994 48.2347 5.38445 48.2818 5.47596 48.3096C5.56747 48.3374 5.66387 48.3454 5.75871 48.333H50.2396C50.3344 48.3454 50.4308 48.3374 50.5223 48.3096C50.6138 48.2818 50.6984 48.2347 50.7702 48.1716C50.8421 48.1085 50.8997 48.0308 50.9392 47.9437C50.9786 47.8566 50.999 47.762 50.999 47.6664C50.999 47.5707 50.9786 47.4762 50.9392 47.389C50.8997 47.3019 50.8421 47.2242 50.7702 47.1611C50.6984 47.098 50.6138 47.051 50.5223 47.0231C50.4308 46.9953 50.3344 46.9873 50.2396 46.9997ZM28.2804 46.9997C27.6326 46.9997 27.2936 46.9613 27.0608 46.6182C26.6808 45.793 24.1559 40.3125 24.012 40.0284C23.589 39.1931 23.6595 38.8396 23.691 38.751C23.7005 38.7197 23.7191 38.6919 23.7446 38.6713C23.7854 38.6659 23.7956 38.6597 23.82 38.6449C23.831 38.6382 23.8449 38.6298 23.8658 38.6189C23.9269 38.5847 23.9948 38.5649 24.0646 38.5607C24.1344 38.5566 24.2042 38.5684 24.2688 38.5951C24.9878 38.849 25.8133 40.2237 26.1647 41.0306C26.2391 41.1757 26.3582 41.293 26.5044 41.3653C26.6505 41.4375 26.816 41.4609 26.9765 41.4319C27.1369 41.403 27.2839 41.3232 27.3955 41.2044C27.5072 41.0857 27.5778 40.9341 27.5968 40.7722V31.4398C27.5968 31.1602 27.7789 30.9997 28.0965 30.9997C28.4134 30.9997 28.4475 31.3809 28.4475 31.5446V40.7722C28.4475 40.949 28.5178 41.1186 28.6428 41.2436C28.7678 41.3686 28.9374 41.4388 29.1142 41.4388C29.291 41.4388 29.4606 41.3686 29.5856 41.2436C29.7106 41.1186 29.7809 40.949 29.7809 40.7722V35.4157C29.7809 35.2243 30.0561 34.9977 30.2887 34.9977C30.3886 35.0099 30.48 35.0602 30.5439 35.138C30.6077 35.2159 30.6391 35.3153 30.6315 35.4157V40.7722C30.6315 40.949 30.7017 41.1185 30.8267 41.2436C30.9518 41.3686 31.1213 41.4388 31.2981 41.4388C31.475 41.4388 31.6445 41.3686 31.7696 41.2436C31.8946 41.1185 31.9648 40.949 31.9648 40.7722L31.9664 36.3526C31.9674 36.2281 32.0177 36.1091 32.1062 36.0216C32.1948 35.9342 32.3145 35.8854 32.4389 35.8861C32.8045 35.8861 32.8151 36.3047 32.8151 36.3526V40.738C32.8151 40.9148 32.8853 41.0844 33.0103 41.2094C33.1354 41.3344 33.3049 41.4046 33.4817 41.4046C33.6586 41.4046 33.8281 41.3344 33.9531 41.2094C34.0782 41.0844 34.1484 40.9148 34.1484 40.738V37.7096C34.165 37.5826 34.2242 37.4649 34.3161 37.3758C34.4081 37.2866 34.5276 37.2311 34.6551 37.2184C34.8178 37.2184 34.9991 37.4203 34.9991 37.7096V41.058C34.9746 42.8717 34.7542 44.6774 34.3418 46.4437C34.2879 46.5997 34.1887 46.7359 34.0567 46.835C33.9248 46.9341 33.7663 46.9915 33.6015 46.9997L28.2804 46.9997Z" fill="#B30000"/>
<path d="M50.2396 46.9997H35.5554C35.5902 46.9167 35.6188 46.8312 35.6409 46.7439C35.9983 45.2049 36.2207 43.6376 36.3055 42.06C36.3213 42.003 36.3325 37.7097 36.3325 37.7097C36.3507 37.2456 36.1844 36.7933 35.8701 36.4514C35.5558 36.1095 35.119 35.9059 34.6551 35.8851C34.4708 35.8855 34.2878 35.9153 34.1129 35.9734C34.0493 35.5758 33.8456 35.2141 33.5386 34.9535C33.2316 34.693 32.8416 34.5508 32.4389 34.5528C32.2205 34.5532 32.004 34.5933 31.7999 34.6713C31.6719 34.3757 31.4611 34.1233 31.193 33.9447C30.9249 33.7661 30.6108 33.6687 30.2887 33.6644C30.1165 33.6655 29.9454 33.6919 29.7809 33.7426V31.5446C29.7809 30.4564 29.0725 29.6664 28.0965 29.6664C27.8583 29.6571 27.6207 29.6962 27.3981 29.7813C27.1754 29.8663 26.9723 29.9956 26.801 30.1614C26.6297 30.3271 26.4937 30.5258 26.4014 30.7456C26.309 30.9653 26.2621 31.2015 26.2635 31.4398V38.5998C25.873 38.0448 25.3369 37.6084 24.7143 37.3386C24.4868 37.2545 24.2446 37.2174 24.0023 37.2295C23.76 37.2415 23.5227 37.3026 23.3047 37.4089C23.124 37.4772 22.9586 37.5806 22.8179 37.7129C22.6773 37.8453 22.5641 38.0042 22.485 38.1804C22.2016 38.8047 22.3151 39.6289 22.8224 40.6306C22.9253 40.8345 24.603 44.4693 25.7686 46.9997H5.75871C5.66387 46.9873 5.56747 46.9953 5.47596 47.0231C5.38445 47.051 5.29994 47.098 5.22805 47.1611C5.15617 47.2242 5.09858 47.3019 5.05913 47.389C5.01968 47.4762 4.99927 47.5707 4.99927 47.6664C4.99927 47.762 5.01968 47.8566 5.05913 47.9437C5.09858 48.0308 5.15617 48.1085 5.22805 48.1716C5.29994 48.2347 5.38445 48.2818 5.47596 48.3096C5.56747 48.3374 5.66387 48.3454 5.75871 48.333H50.2396C50.3344 48.3454 50.4308 48.3374 50.5223 48.3096C50.6138 48.2818 50.6984 48.2347 50.7702 48.1716C50.8421 48.1085 50.8997 48.0308 50.9392 47.9437C50.9786 47.8566 50.999 47.762 50.999 47.6664C50.999 47.5707 50.9786 47.4762 50.9392 47.389C50.8997 47.3019 50.8421 47.2242 50.7702 47.1611C50.6984 47.098 50.6138 47.051 50.5223 47.0231C50.4308 46.9953 50.3344 46.9873 50.2396 46.9997ZM28.2804 46.9997C27.6326 46.9997 27.2936 46.9613 27.0608 46.6182C26.6808 45.793 24.1559 40.3125 24.012 40.0284C23.589 39.1931 23.6595 38.8396 23.691 38.751C23.7005 38.7197 23.7191 38.6919 23.7446 38.6713C23.7854 38.6659 23.7956 38.6597 23.82 38.6449C23.831 38.6382 23.8449 38.6298 23.8658 38.6189C23.9269 38.5847 23.9948 38.5649 24.0646 38.5607C24.1344 38.5566 24.2042 38.5684 24.2688 38.5951C24.9878 38.849 25.8133 40.2237 26.1647 41.0306C26.2391 41.1757 26.3582 41.293 26.5044 41.3653C26.6505 41.4375 26.816 41.4609 26.9765 41.4319C27.1369 41.403 27.2839 41.3232 27.3955 41.2044C27.5072 41.0857 27.5778 40.9341 27.5968 40.7722V31.4398C27.5968 31.1602 27.7789 30.9997 28.0965 30.9997C28.4134 30.9997 28.4475 31.3809 28.4475 31.5446V40.7722C28.4475 40.949 28.5178 41.1186 28.6428 41.2436C28.7678 41.3686 28.9374 41.4388 29.1142 41.4388C29.291 41.4388 29.4606 41.3686 29.5856 41.2436C29.7106 41.1186 29.7809 40.949 29.7809 40.7722V35.4157C29.7809 35.2243 30.0561 34.9977 30.2887 34.9977C30.3886 35.0099 30.48 35.0602 30.5439 35.138C30.6077 35.2159 30.6391 35.3153 30.6315 35.4157V40.7722C30.6315 40.949 30.7017 41.1185 30.8267 41.2436C30.9518 41.3686 31.1213 41.4388 31.2981 41.4388C31.475 41.4388 31.6445 41.3686 31.7696 41.2436C31.8946 41.1185 31.9648 40.949 31.9648 40.7722L31.9664 36.3526C31.9674 36.2281 32.0177 36.1091 32.1062 36.0216C32.1948 35.9342 32.3145 35.8854 32.4389 35.8861C32.8045 35.8861 32.8151 36.3047 32.8151 36.3526V40.738C32.8151 40.9148 32.8853 41.0844 33.0103 41.2094C33.1354 41.3344 33.3049 41.4046 33.4817 41.4046C33.6586 41.4046 33.8281 41.3344 33.9531 41.2094C34.0782 41.0844 34.1484 40.9148 34.1484 40.738V37.7096C34.165 37.5826 34.2242 37.4649 34.3161 37.3758C34.4081 37.2866 34.5276 37.2311 34.6551 37.2184C34.8178 37.2184 34.9991 37.4203 34.9991 37.7096V41.058C34.9746 42.8717 34.7542 44.6774 34.3418 46.4437C34.2879 46.5997 34.1887 46.7359 34.0567 46.835C33.9248 46.9341 33.7663 46.9915 33.6015 46.9997L28.2804 46.9997Z" stroke="white"/>
</svg>
