<svg width="56" height="56" viewBox="0 0 56 56" fill="none" xmlns="http://www.w3.org/2000/svg">
<path d="M45.5287 40.1526V29.927C45.5287 27.0598 42.2471 25.615 40.1191 27.1718C39.1671 24.9542 36.2999 24.5734 34.7319 25.9622C33.7127 24.3382 31.5399 24.0022 30.1175 24.8422V23.655C32.2455 22.5238 33.6679 20.4406 33.9479 18.0662H36.5351C36.9159 19.4998 38.2151 20.575 39.7719 20.575C41.6199 20.575 43.1319 19.0742 43.1319 17.2262C43.1319 15.3782 41.6199 13.8662 39.7719 13.8662C38.2151 13.8662 36.9159 14.9414 36.5351 16.3862H33.9479C33.8023 15.031 33.2759 13.7542 32.4247 12.6902L34.2503 10.8534C34.7543 11.1558 35.3255 11.335 35.9415 11.335C37.8007 11.335 39.3015 9.82301 39.3015 7.97501C39.3015 6.12701 37.8007 4.62621 35.9415 4.62621C34.0935 4.62621 32.5927 6.12701 32.5927 7.97501C32.5927 8.60221 32.7719 9.17341 33.0631 9.67741L31.2375 11.503C30.1735 10.6518 28.9079 10.1254 27.5415 9.96861V6.79901C28.9863 6.42941 30.0615 5.13021 30.0615 3.57341C30.0615 1.72541 28.5495 0.224609 26.7015 0.224609C24.8535 0.224609 23.3415 1.72541 23.3415 3.57341C23.3415 5.13021 24.4167 6.44061 25.8615 6.81021V9.96861C24.5063 10.1254 23.2407 10.6518 22.1655 11.503L20.5639 9.89021C21.3927 8.70301 21.3479 7.20221 20.5639 6.07101C18.8727 3.64061 15.0423 4.43581 14.5047 7.37021C14.3479 8.25501 14.5383 9.15101 15.0535 9.89021C16.0167 11.279 17.8311 11.7046 19.2871 10.9878L20.9783 12.6902C20.1383 13.7542 19.6119 15.031 19.4551 16.3862H17.1255C16.8567 15.0758 15.8263 13.9894 14.4263 13.7318C12.6119 13.3958 10.8647 14.5942 10.5287 16.4198C10.1927 18.2454 11.4023 19.9926 13.2167 20.3174C14.8855 20.631 16.4983 19.6454 17.0135 18.0662H19.4663C19.7351 20.4406 21.1687 22.5238 23.2967 23.655V29.6694C22.8487 29.1542 22.1991 28.6614 21.2247 28.2358C19.4887 27.4742 17.4391 27.7766 15.9607 29.0422C14.9527 29.8934 14.8183 31.3606 15.6471 32.3798C17.0023 34.0374 19.4439 37.3526 20.4631 40.8806C21.3143 43.8262 23.1623 45.9654 24.5735 47.2422C24.7639 47.4214 24.9655 47.5894 25.1671 47.735C24.5847 47.903 24.1479 48.4182 24.1479 49.0566V54.3878C24.1479 55.1494 24.7751 55.7766 25.5367 55.7766H42.6951C43.4679 55.7766 44.0839 55.1494 44.0839 54.3878V49.0566C44.0839 48.2838 43.4679 47.6678 42.6951 47.6678H42.2359C44.6999 45.8086 45.5287 43.2326 45.5287 40.1526ZM39.7719 15.5462C40.7015 15.5462 41.4519 16.2966 41.4519 17.2262C41.4519 18.1446 40.7015 18.895 39.7719 18.895C38.8423 18.895 38.1031 18.1446 38.1031 17.2262C38.1031 16.2966 38.8423 15.5462 39.7719 15.5462ZM35.9415 6.30621C36.8711 6.30621 37.6215 7.05661 37.6215 7.97501C37.6215 8.90461 36.8711 9.65501 35.9415 9.65501C35.0119 9.65501 34.2727 8.88221 34.2727 7.97501C34.2727 7.05661 35.0231 6.30621 35.9415 6.30621ZM18.7607 9.35261C17.9991 9.87901 16.9575 9.69981 16.4311 8.92701C16.1735 8.55741 16.0727 8.12061 16.1623 7.67261C16.4311 6.21661 18.3351 5.80221 19.1863 7.03421C19.7127 7.79581 19.5335 8.82621 18.7607 9.35261ZM15.4791 17.327C15.3223 18.2342 14.4375 18.839 13.5191 18.671C12.6343 18.503 12.0183 17.6406 12.1863 16.7222C12.3319 15.9046 13.0487 15.3558 13.8215 15.3558C14.8743 15.3558 15.6695 16.3078 15.4791 17.327ZM25.0215 3.57341C25.0215 2.65501 25.7719 1.90461 26.7015 1.90461C27.6311 1.90461 28.3815 2.65501 28.3815 3.57341C28.3815 4.49181 27.6311 5.24221 26.7015 5.24221C25.7719 5.24221 25.0215 4.49181 25.0215 3.57341ZM21.0791 17.2262C21.0791 15.7254 21.6615 14.3142 22.7255 13.2502C23.7895 12.1862 25.2007 11.6038 26.7015 11.6038C28.2135 11.6038 29.6247 12.1862 30.6775 13.2502C31.7415 14.3142 32.3239 15.7254 32.3239 17.2262C32.3239 18.9958 31.4951 20.631 30.1175 21.6838V19.0406C30.1175 17.3158 28.7511 15.7366 26.8807 15.647C25.2679 15.5686 23.7335 16.711 23.3751 18.4582C23.3191 18.6934 23.2967 18.9398 23.2967 19.1862V21.6838C21.9191 20.6422 21.0791 18.9958 21.0791 17.2262ZM42.4039 49.3478V54.0966H25.8279V49.3478H42.4039ZM37.2519 47.6566H30.0503C28.4151 47.6566 26.8695 47.0742 25.7047 46.0102C24.4615 44.8678 22.8151 42.975 22.0759 40.4102C20.9671 36.591 18.3911 33.0742 16.9463 31.3158C16.6999 31.0134 16.7447 30.5766 17.0807 30.2854C18.0439 29.4678 19.4103 29.2662 20.5527 29.7702C22.1879 30.4982 22.4343 31.2262 22.8039 32.335C22.9495 32.7718 23.1175 33.2758 23.3975 33.791C23.5767 34.1382 23.9687 34.3062 24.3383 34.2166C24.7191 34.127 24.9767 33.791 24.9767 33.399V19.1862C24.9767 18.2118 25.7383 17.3046 26.7799 17.327H26.7911C27.7655 17.3718 28.4375 18.1894 28.4375 19.0518V27.7878C28.4375 27.8102 28.4375 27.8102 28.4375 27.8102V32.9174C28.4375 33.3878 28.8183 33.7574 29.2775 33.7574C29.7479 33.7574 30.1175 33.3878 30.1175 32.9174V27.7878C30.1175 26.8358 30.8903 26.0518 31.8423 26.0518C32.8279 26.0518 33.5783 26.8358 33.5783 27.7878V32.9174C33.5783 33.3878 33.9479 33.7574 34.4183 33.7574C34.8775 33.7574 35.2583 33.3878 35.2583 32.9174V28.5158C35.2583 27.5638 36.0311 26.791 36.9831 26.791C37.9463 26.791 38.7191 27.5638 38.7191 28.5158C38.7191 28.8742 38.7191 32.9174 38.7191 32.9174C38.7191 33.3878 39.0887 33.7574 39.5591 33.7574C40.0183 33.7574 40.3991 33.3878 40.3991 32.9174V29.927C40.3991 28.975 41.1719 28.2022 42.1239 28.2022C43.0983 28.2022 43.8487 28.9862 43.8487 29.927V40.1526C43.8487 45.215 40.7127 47.6566 37.2519 47.6566Z" fill="#B30000"/>
<path opacity="0.3" d="M42.4022 49.3462H25.8262V54.095H42.4022V49.3462Z" fill="#FF0000"/>
<path opacity="0.3" d="M15.4794 17.3263C15.3226 18.2335 14.4378 18.8383 13.5194 18.6703C12.6346 18.5023 12.0186 17.6399 12.1866 16.7215C12.3322 15.9039 13.049 15.3551 13.8218 15.3551C14.8746 15.3551 15.6698 16.3071 15.4794 17.3263ZM18.761 9.35195C17.9994 9.87835 16.9578 9.69915 16.4314 8.92635C16.1738 8.55675 16.073 8.11995 16.1626 7.67195C16.4314 6.21595 18.3354 5.80155 19.1866 7.03355C19.713 7.79515 19.5338 8.82555 18.761 9.35195Z" fill="#FF0000"/>
<path opacity="0.3" d="M26.6995 5.24141C27.6274 5.24141 28.3795 4.49426 28.3795 3.57261C28.3795 2.65096 27.6274 1.90381 26.6995 1.90381C25.7717 1.90381 25.0195 2.65096 25.0195 3.57261C25.0195 4.49426 25.7717 5.24141 26.6995 5.24141Z" fill="#FF0000"/>
<path opacity="0.3" d="M37.6244 7.97446C37.6244 8.90406 36.874 9.65446 35.9444 9.65446C35.0148 9.65446 34.2756 8.88166 34.2756 7.97446C34.2756 7.05606 35.026 6.30566 35.9444 6.30566C36.874 6.30566 37.6244 7.05606 37.6244 7.97446ZM41.4548 17.2257C41.4548 18.1441 40.7044 18.8945 39.7748 18.8945C38.8452 18.8945 38.106 18.1441 38.106 17.2257C38.106 16.2961 38.8452 15.5457 39.7748 15.5457C40.7044 15.5457 41.4548 16.2961 41.4548 17.2257ZM32.3268 17.2257C32.3268 18.9953 31.498 20.6305 30.1204 21.6833V19.0401C30.1204 17.3153 28.754 15.7361 26.8836 15.6465C25.2708 15.5681 23.7364 16.7105 23.378 18.4577C23.322 18.6929 23.2996 18.9393 23.2996 19.1857V21.6833C21.922 20.6417 21.082 18.9953 21.082 17.2257C21.082 15.7249 21.6644 14.3137 22.7284 13.2497C23.7924 12.1857 25.2036 11.6033 26.7044 11.6033C28.2164 11.6033 29.6276 12.1857 30.6804 13.2497C31.7444 14.3137 32.3268 15.7249 32.3268 17.2257Z" fill="#FF0000"/>
</svg>
