<svg width="56" height="56" viewBox="0 0 56 56" fill="none" xmlns="http://www.w3.org/2000/svg">
<path opacity="0.1" d="M55.3339 6.85334V34.5615H49.7869V6.85334C49.7869 5.59225 48.7728 4.57812 47.5117 4.57812H53.0587C54.3197 4.57812 55.3339 5.59225 55.3339 6.85334ZM55.3339 34.5615V40.0996C55.3339 41.3607 54.3198 42.3748 53.0587 42.3748H47.5117C48.7728 42.3748 49.7869 41.3607 49.7869 40.0996V34.5615H55.3339Z" fill="black"/>
<path d="M55.3319 6.85334V34.5615H0.65625V6.85334C0.65625 5.59225 1.67923 4.57812 2.94033 4.57812H53.0567C54.3177 4.57812 55.3319 5.59225 55.3319 6.85334Z" fill="#FEFDFE"/>
<path opacity="0.3" d="M0.664062 34.5664V40.0996C0.664062 41.3577 1.68409 42.3777 2.94223 42.3777H53.0616C54.3197 42.3777 55.3398 41.3577 55.3398 40.0996V34.5664H0.664062Z" fill="#FF0000"/>
<path d="M34.0737 42.377H21.9297V47.8876H34.0737V42.377Z" fill="#FEFDFE"/>
<path opacity="0.3" d="M37.8808 47.8877H18.1153C16.1618 47.8877 14.5781 49.4713 14.5781 51.4249H41.418C41.418 49.4713 39.8343 47.8877 37.8808 47.8877Z" fill="#FF0000"/>
<path d="M53.0592 3.91309H2.93923C1.31852 3.91309 0 5.2316 0 6.85232C0 19.3003 0 28.0436 0 40.0988C0 41.7197 1.31852 43.0381 2.93923 43.0381H21.2655V47.226H18.1161C15.8012 47.226 13.9177 49.1095 13.9177 51.4253C13.9177 51.7905 14.214 52.0866 14.5791 52.0866H41.4192C41.7843 52.0866 42.0806 51.7904 42.0806 51.4253C42.0806 49.1095 40.1972 47.226 37.8823 47.226H34.7329V43.0381H53.0592C54.68 43.0381 55.9985 41.7195 55.9985 40.0988C55.9985 28.2259 55.9985 19.4097 55.9985 6.85232C55.9985 5.23149 54.68 3.91309 53.0592 3.91309ZM37.8824 48.5489C39.2405 48.5489 40.3816 49.4953 40.6813 50.7639H15.3172C15.6169 49.4953 16.758 48.5489 18.1161 48.5489H21.927H34.0715H37.8824ZM22.5883 47.2261V43.0382H33.4101V47.2261H22.5883ZM54.6757 40.0988C54.6757 40.9901 53.9505 41.7153 53.0592 41.7153H34.0715H21.927H2.93923C2.04794 41.7153 1.32278 40.9901 1.32278 40.0988V35.227H54.6757V40.0988ZM54.6757 33.9043H1.32278V6.85232C1.32278 5.96102 2.04794 5.23587 2.93923 5.23587H53.0592C53.9505 5.23587 54.6757 5.96102 54.6757 6.85232V33.9043Z" fill="#B30000"/>
<path d="M24.0906 39.1457C24.0915 39.1457 24.0915 39.1457 24.0924 39.1457L25.0372 39.1431C25.4023 39.1422 25.6977 38.8451 25.6968 38.4799C25.6959 38.1147 25.3997 37.8203 25.0354 37.8203C25.0345 37.8203 25.0345 37.8203 25.0337 37.8203L24.0889 37.8229C23.7238 37.8238 23.4284 38.1208 23.4293 38.486C23.4301 38.8512 23.7263 39.1457 24.0906 39.1457ZM27.5268 39.1344C27.5276 39.1344 27.5276 39.1344 27.5285 39.1344L28.4724 39.1318C28.8375 39.1309 29.1329 38.8339 29.1321 38.4686C29.1312 38.1034 28.835 37.809 28.4707 37.809C28.4698 37.809 28.4698 37.809 28.4689 37.809L27.525 37.8116C27.1599 37.8125 26.8645 38.1096 26.8654 38.4748C26.8663 38.84 27.1625 39.1344 27.5268 39.1344ZM30.9621 39.1233C30.963 39.1233 30.9639 39.1233 30.9648 39.1233L31.9095 39.1198C32.2746 39.118 32.57 38.8209 32.5683 38.4557C32.5665 38.0914 32.2712 37.797 31.9069 37.797C31.906 37.797 31.9052 37.797 31.9043 37.797L30.9595 37.8004C30.5943 37.8021 30.299 38.0992 30.3007 38.4644C30.3024 38.8287 30.5978 39.1233 30.9621 39.1233ZM20.5115 15.3042C20.8765 15.3042 21.1728 15.0079 21.1728 14.6428C21.1728 14.2776 20.8765 13.9814 20.5115 13.9814H15.5872C15.222 13.9814 14.9258 14.2777 14.9258 14.6428V24.4924C14.9258 24.8575 15.2221 25.1538 15.5872 25.1538C15.9523 25.1538 16.2486 24.8575 16.2486 24.4924V19.6077H20.5115C20.8765 19.6077 21.1728 19.3114 21.1728 18.9463C21.1728 18.5811 20.8765 18.2849 20.5115 18.2849H16.2486V15.3043H20.5115V15.3042ZM26.6113 14.4189C26.5166 14.1562 26.2676 13.9814 25.9886 13.9814C25.7096 13.9814 25.4607 14.1562 25.366 14.4189L21.8265 24.2685C21.7033 24.6121 21.8816 24.991 22.2253 25.1151C22.5705 25.2373 22.9478 25.0591 23.0718 24.7163L24.0821 21.9045H27.8951L28.9054 24.7163C29.0028 24.9858 29.2569 25.1538 29.5281 25.1538C29.6022 25.1538 29.678 25.1417 29.752 25.1151C30.0957 24.991 30.2739 24.6121 30.1508 24.2685L26.6113 14.4189ZM24.5575 20.5817L25.9886 16.5987L27.4198 20.5817H24.5575ZM41.2811 22.2138C41.708 21.4223 41.9509 20.5168 41.9509 19.5552C41.9509 16.4815 39.4508 13.9816 36.3773 13.9816C33.3045 13.9816 30.8045 16.4816 30.8045 19.5552C30.8045 22.6426 33.3046 25.1539 36.3773 25.1539C38.0186 25.1539 39.4917 24.4334 40.5126 23.2959L41.5118 24.1454C41.6358 24.2513 41.7882 24.3031 41.9398 24.3031C42.1267 24.3031 42.3126 24.2239 42.4435 24.0696C42.6803 23.7915 42.6468 23.3747 42.3677 23.1379L41.2811 22.2138ZM40.2358 21.325L39.1184 20.375C38.842 20.139 38.4235 20.1726 38.1867 20.4508C37.9499 20.7289 37.9835 21.1457 38.2625 21.3825L39.4993 22.4341C38.7216 23.2866 37.6157 23.8309 36.3773 23.8309C34.0339 23.8309 32.1273 21.913 32.1273 19.5551C32.1273 17.211 34.034 15.3042 36.3773 15.3042C38.7214 15.3042 40.6281 17.211 40.6281 19.5551C40.6281 20.188 40.4822 20.784 40.2358 21.325Z" fill="#B30000"/>
</svg>
