<svg width="164" height="165" viewBox="0 0 164 165" fill="none" xmlns="http://www.w3.org/2000/svg">
<g filter="url(#filter0_d_2477_3)">
<path d="M55.6983 80.4771C55.3891 78.4742 55.2287 76.4222 55.2287 74.3331C55.2287 52.2415 73.1609 34.333 95.2813 34.333C117.402 34.333 135.333 52.2415 135.333 74.3331C135.333 79.3232 134.418 84.1003 132.747 88.5054C132.4 89.4204 132.226 89.8779 132.147 90.2349C132.069 90.5889 132.039 90.8379 132.031 91.2002C132.022 91.5658 132.071 91.9689 132.17 92.7744L134.172 109.126C134.389 110.896 134.498 111.781 134.205 112.424C133.948 112.988 133.492 113.435 132.926 113.68C132.279 113.96 131.401 113.831 129.646 113.572L113.803 111.238C112.976 111.116 112.562 111.055 112.185 111.057C111.813 111.059 111.555 111.086 111.19 111.164C110.822 111.242 110.35 111.419 109.409 111.773C105.015 113.428 100.254 114.333 95.2813 114.333C93.2012 114.333 91.1581 114.175 89.1638 113.869M63.3441 134.333C78.091 134.333 90.0457 122.021 90.0457 106.833C90.0457 91.6449 78.091 79.333 63.3441 79.333C48.5972 79.333 36.6425 91.6449 36.6425 106.833C36.6425 109.886 37.1256 112.823 38.0171 115.567C38.3943 116.726 38.5826 117.307 38.6446 117.703C38.7091 118.116 38.7203 118.349 38.6964 118.766C38.6733 119.167 38.5737 119.62 38.3745 120.524L35.3335 134.333L50.2292 132.288C51.0425 132.176 51.4487 132.121 51.8038 132.123C52.1776 132.125 52.3761 132.146 52.7428 132.219C53.0908 132.289 53.6082 132.473 54.6434 132.84C57.3707 133.808 60.2979 134.333 63.3441 134.333Z" stroke="#B30000" stroke-width="7.93" stroke-linecap="round" stroke-linejoin="round"/>
</g>
<defs>
<filter id="filter0_d_2477_3" x="0.368652" y="0.368042" width="171.93" height="171.93" filterUnits="userSpaceOnUse" color-interpolation-filters="sRGB">
<feFlood flood-opacity="0" result="BackgroundImageFix"/>
<feColorMatrix in="SourceAlpha" type="matrix" values="0 0 0 0 0 0 0 0 0 0 0 0 0 0 0 0 0 0 127 0" result="hardAlpha"/>
<feOffset dx="1" dy="2"/>
<feGaussianBlur stdDeviation="16"/>
<feComposite in2="hardAlpha" operator="out"/>
<feColorMatrix type="matrix" values="0 0 0 0 0.814532 0 0 0 0 0.878375 0 0 0 0 0.956406 0 0 0 0.8 0"/>
<feBlend mode="normal" in2="BackgroundImageFix" result="effect1_dropShadow_2477_3"/>
<feBlend mode="normal" in="SourceGraphic" in2="effect1_dropShadow_2477_3" result="shape"/>
</filter>
</defs>
</svg>
