<svg width="48" height="48" viewBox="0 0 48 48" fill="none" xmlns="http://www.w3.org/2000/svg">
<g clip-path="url(#clip0_283_6544)">
<path opacity="0.3" fill-rule="evenodd" clip-rule="evenodd" d="M9.6239 11.5721C9.63052 11.4279 9.57965 11.287 9.48246 11.1803C9.38527 11.0736 9.24972 11.0098 9.10555 11.003C8.96149 10.9965 8.82073 11.0474 8.7142 11.1446C8.60767 11.2418 8.54409 11.3773 8.53743 11.5214C8.53078 11.6653 8.58154 11.806 8.67855 11.9125C8.77557 12.0191 8.9109 12.0827 9.05483 12.0896C9.35362 12.1034 9.61002 11.8712 9.6239 11.5721ZM40.0334 12.4482C40.0334 12.1486 39.7878 11.9046 39.4885 11.9046C39.1896 11.9046 38.9446 12.1491 38.9446 12.4482C38.9446 12.7471 39.1896 12.9921 39.4885 12.9921C39.7878 12.9921 40.0334 12.7476 40.0334 12.4482ZM7.42312 9.22673C7.64146 8.74936 8.22308 8.52801 8.7044 8.74064L11.4091 9.93557C11.8993 10.1521 12.1236 10.7326 11.907 11.2227L5.69718 25.2727C5.59208 25.5105 5.39783 25.6925 5.15558 25.7862C5.03639 25.8327 4.9092 25.8552 4.78128 25.8524C4.65337 25.8497 4.52726 25.8217 4.41018 25.7701L1.70549 24.5747C1.21537 24.3581 0.990178 23.7783 1.20787 23.2884C2.24605 20.9484 3.27665 18.6047 4.31118 16.2631C5.02021 14.6583 5.72933 13.0535 6.43883 11.4489C6.67377 10.9176 6.90862 10.3864 7.14383 9.85532C7.21049 9.70485 7.27705 9.55439 7.3439 9.40401C7.36883 9.34776 7.39471 9.28251 7.42312 9.22673ZM36.6805 11.9942C36.4861 11.4928 36.7364 10.9259 37.2378 10.7316L39.9942 9.66323C40.1065 9.61932 40.2259 9.59662 40.3464 9.59629C40.7482 9.59629 41.1107 9.84342 41.2564 10.2191L46.8095 24.5425C46.8555 24.6618 46.8775 24.7891 46.8742 24.917C46.871 25.0449 46.8425 25.1708 46.7904 25.2877C46.6856 25.5252 46.4946 25.7107 46.2522 25.8046L43.4949 26.8735C43.3756 26.9195 43.2483 26.9416 43.1205 26.9384C42.9926 26.9352 42.8666 26.9069 42.7497 26.8549C42.6324 26.8036 42.5264 26.7296 42.4378 26.6371C42.3493 26.5447 42.2799 26.4356 42.2336 26.3162L36.6805 11.9942ZM40.8742 24.8851L36.8047 14.3889L35.0299 15.3388C33.6628 16.0501 32.3002 15.487 30.9857 14.9495C29.9629 14.5313 28.9729 14.1376 27.8533 14.081C26.3925 14.0071 25.0974 14.5383 23.909 15.353C23.2296 15.8187 22.6003 16.3677 22.0214 16.9525C20.5641 18.4248 18.8611 19.6813 17.0928 20.7537L16.7013 20.9911L17.0111 21.3282C17.7452 22.1265 18.6168 22.6759 19.7098 22.7959C21.183 22.9576 22.7592 22.285 24.0994 21.7426C25.3463 21.238 26.8402 20.6079 28.2085 20.7082C28.742 20.7473 29.2378 20.8949 29.7029 21.1601L37.0359 25.3395C37.2972 25.4884 37.5296 25.6829 37.7222 25.9138L37.8993 26.1261L40.8742 24.8851ZM25.4517 34.6278C25.5928 35.0894 25.5475 35.5815 25.3198 36.0074L24.029 38.4211C23.8018 38.8459 23.4193 39.1562 22.9585 39.2961C22.4976 39.436 22.007 39.3902 21.582 39.1632C20.9313 38.8155 20.5603 38.11 20.6376 37.3771L20.645 37.3064L22.4102 33.9138L22.452 33.8725C23.0099 33.3208 23.8852 33.1894 24.5782 33.5598C25.0021 33.7864 25.3114 34.1684 25.4517 34.6278ZM19.9494 37.0063L19.9688 36.9808L21.7464 33.5645L21.7568 33.5118C21.9089 32.7433 21.5319 31.929 20.8388 31.5595C20.1465 31.1904 19.2714 31.3211 18.7137 31.8716L18.6712 31.9135L16.7135 35.7048L16.7081 35.782C16.6585 36.4892 17.0319 37.1726 17.658 37.5075C18.4357 37.9235 19.4156 37.7077 19.9494 37.0063ZM16.0212 35.4106C15.5489 36.2898 14.4518 36.6323 13.5694 36.1599C13.1441 35.9323 12.8339 35.5505 12.6941 35.089C12.5544 34.6281 12.6002 34.1372 12.827 33.7123L12.8294 33.7078L15.0627 29.786L15.1198 29.7408C15.6839 29.2941 16.4639 29.2206 17.0995 29.5598C17.7925 29.9296 18.1701 30.7446 18.0173 31.5133L18.007 31.5652L16.0212 35.4106ZM12.5504 32.5813L12.6079 32.5364L14.4297 29.3845L14.4381 29.365C14.8131 28.5041 14.4641 27.4899 13.6343 27.0477C12.7545 26.5788 11.6567 26.9103 11.1863 27.79L9.84018 30.3072C9.61302 30.7319 9.56699 31.2223 9.70677 31.6829C9.84674 32.1442 10.1565 32.5273 10.582 32.7544C11.2131 33.0914 11.9873 33.0209 12.5504 32.5813Z" fill="#FF2B2B"/>
<path fill-rule="evenodd" clip-rule="evenodd" d="M40.4093 12.4483C40.4093 12.9547 39.9957 13.3673 39.4894 13.3673C38.9839 13.3673 38.5705 12.9547 38.5705 12.4483C38.5705 11.942 38.9839 11.5298 39.4894 11.5298C39.9958 11.5298 40.4093 11.942 40.4093 12.4483ZM46.4484 25.1363C46.4808 25.0646 46.4985 24.9872 46.5007 24.9085C46.5028 24.8299 46.4892 24.7516 46.4607 24.6782L40.9077 10.3548C40.8638 10.2419 40.7868 10.1449 40.6868 10.0765C40.5868 10.0081 40.4685 9.97142 40.3474 9.97135C40.2732 9.97133 40.1997 9.98542 40.1307 10.0129L37.3743 11.0813C37.0652 11.2003 36.9113 11.5493 37.0312 11.8588L42.5843 26.1808C42.6125 26.2544 42.6552 26.3217 42.7098 26.3786C42.7644 26.4354 42.8299 26.4808 42.9023 26.512C42.9741 26.5442 43.0515 26.5619 43.1302 26.5639C43.2088 26.566 43.2871 26.5524 43.3604 26.5239L46.1177 25.4551C46.1913 25.4267 46.2585 25.3839 46.3153 25.3291C46.372 25.2744 46.4173 25.2088 46.4484 25.1363ZM38.0111 25.6736C37.7897 25.4084 37.5226 25.1849 37.2225 25.0138L29.8895 20.8343C28.0012 19.7579 25.9462 20.5907 23.9596 21.3951C21.4761 22.3998 19.3122 23.2759 17.2882 21.0744C19.2535 19.8826 20.9335 18.586 22.2889 17.2164C22.9014 16.5978 23.517 16.0746 24.122 15.6624C26.9664 13.71 28.9378 14.5166 30.8448 15.2967C32.2444 15.8685 33.691 16.4588 35.2078 15.6695L36.6093 14.9195L40.3935 24.6799L38.0111 25.6736ZM37.0293 28.1832C36.8524 28.5056 36.5579 28.7392 36.1997 28.8413C35.8499 28.9417 35.4855 28.9013 35.1742 28.7272C35.1732 28.7272 35.1732 28.7272 35.1732 28.7263C33.7029 27.9029 31.8733 26.8782 30.1323 25.8819C29.7732 25.6763 29.3146 25.8006 29.1094 26.1605C28.9033 26.5192 29.028 26.9777 29.3867 27.1838C31.1336 28.1832 32.9661 29.2101 34.4392 30.0348C35.1008 30.4072 35.3467 31.2434 34.9858 31.8997C34.8102 32.218 34.5197 32.4498 34.1664 32.552C33.813 32.6542 33.4434 32.6148 33.1249 32.4397L26.4911 28.7072C26.1311 28.502 25.6734 28.6284 25.4691 28.9884C25.2648 29.3484 25.3903 29.807 25.7503 30.0113L31.1711 33.0769C31.8327 33.4501 32.0777 34.2855 31.7177 34.9418C31.5413 35.2624 31.2481 35.495 30.8925 35.5972C30.541 35.6984 30.1735 35.6582 29.8595 35.4835L26.0324 33.3436C25.7822 33.0232 25.4676 32.7587 25.1091 32.5671C24.7599 32.3798 24.3763 32.2655 23.9816 32.2311C23.5869 32.1966 23.1894 32.2428 22.8131 32.3667C22.7071 31.9845 22.5245 31.6279 22.2764 31.3185C22.0282 31.0092 21.7197 30.7536 21.3696 30.5673C21.0204 30.3802 20.6369 30.2659 20.2422 30.2312C19.8476 30.1966 19.45 30.2423 19.0736 30.3656C18.9674 29.9838 18.7847 29.6275 18.5366 29.3184C18.2886 29.0093 17.9803 28.7539 17.6306 28.5675C17.0368 28.2509 16.3524 28.148 15.6918 28.276C15.5755 27.362 15.0311 26.5173 14.1648 26.0552C12.9928 25.4289 11.5809 25.6828 10.6919 26.585C10.527 25.7523 10.2453 24.7435 9.2043 24.3393C9.07868 24.2906 8.69749 24.1283 7.64149 23.6578L11.8546 14.1256L13.589 14.926C15.017 15.7136 16.5696 15.3798 18.0715 15.0574C19.5649 14.7368 20.9889 14.4321 22.3819 15.0984C21.9936 15.4182 21.6067 15.7729 21.2232 16.1607C19.8452 17.5538 18.0967 18.8721 16.0266 20.0807C15.9029 20.1526 15.7961 20.2502 15.7133 20.3669C15.6305 20.4837 15.5737 20.6168 15.5468 20.7573C15.4911 21.0416 15.5627 21.3348 15.74 21.5626C18.5645 25.1973 21.868 23.8596 24.5222 22.7854C26.3296 22.0531 27.8906 21.422 29.1458 22.1375L36.4793 26.3166C37.1408 26.6948 37.3885 27.5318 37.0293 28.1832ZM28.2131 37.8508C28.5721 37.1985 28.3369 36.3715 27.6899 35.9944L26.6476 35.4098C26.6146 35.8047 26.5007 36.1885 26.3128 36.5375L25.5637 37.938L26.3646 38.3984C26.667 38.5718 27.0244 38.6142 27.3706 38.5165C27.7284 38.416 28.0362 38.1732 28.2131 37.8508ZM22.8506 38.9374C23.2181 38.8259 23.5201 38.5801 23.6992 38.2444L24.99 35.8307C25.17 35.4951 25.2067 35.1068 25.094 34.7375C24.9817 34.37 24.7362 34.0688 24.4023 33.8906C23.8526 33.5965 23.157 33.7035 22.7165 34.1392L21.0113 37.4165C20.9502 37.9962 21.2417 38.5556 21.7595 38.8325C22.0953 39.0117 22.4822 39.0493 22.8506 38.9374ZM17.8357 37.1768C18.4556 37.5085 19.2282 37.336 19.6519 36.7793L21.3898 33.4391C21.5111 32.8267 21.2147 32.1846 20.6633 31.8905C20.114 31.5977 19.4184 31.7038 18.9779 32.1385L17.083 35.8082C17.0437 36.3698 17.3365 36.9098 17.8357 37.1768ZM13.7473 35.8294C14.4434 36.2018 15.315 35.9347 15.6918 35.2332L17.6504 31.4402C17.772 30.8281 17.4757 30.1847 16.9239 29.8906C16.4184 29.6204 15.7997 29.6814 15.3535 30.0348L13.1587 33.8888C12.9795 34.2245 12.942 34.6118 13.0539 34.9803C13.1653 35.3487 13.4116 35.6494 13.7473 35.8294ZM10.7596 32.4238C11.2616 32.6918 11.8753 32.6334 12.3206 32.2858L14.0953 29.2154C14.3925 28.533 14.117 27.7295 13.459 27.3788C12.7612 27.0069 11.8904 27.2701 11.5181 27.967L10.1719 30.4842C9.9919 30.8198 9.95524 31.2068 10.0666 31.5743C10.1786 31.9426 10.424 32.2447 10.7596 32.4238ZM5.35511 25.1213L11.5649 11.0712C11.6981 10.7683 11.5614 10.4132 11.2585 10.2788L8.55377 9.08382C8.25658 8.95247 7.89265 9.0931 7.76177 9.39029C7.75774 9.39779 1.55158 23.4408 1.55158 23.4408C1.41761 23.7424 1.55552 24.0979 1.85805 24.2319L4.56274 25.4273C4.70824 25.4918 4.87136 25.4945 5.02136 25.4365C5.17202 25.3782 5.29061 25.2668 5.35511 25.1213ZM47.8595 24.1364L42.3064 9.813C41.8876 8.7331 40.6689 8.19488 39.5885 8.61413L36.8317 9.6825C35.7513 10.1018 35.2145 11.3205 35.6323 12.4004L36.0626 13.5113L34.5086 14.3431C33.6581 14.7853 32.7776 14.4655 31.4129 13.9079C29.5422 13.1428 27.011 12.1107 23.7186 14.1366C21.6374 12.7586 19.498 13.2172 17.756 13.5908C16.4041 13.8818 15.237 14.1322 14.2977 13.6032C14.28 13.5939 14.2624 13.5842 14.2434 13.5758L12.4612 12.7538L12.9366 11.6765C13.4045 10.6173 12.9233 9.3751 11.8637 8.90635L9.15902 7.71104C8.64733 7.485 8.07733 7.47225 7.55327 7.67522C7.02921 7.87819 6.61577 8.27185 6.38974 8.78344L0.178801 22.834C-0.288636 23.8931 0.192114 25.1354 1.25168 25.6042C1.25168 25.6042 3.95543 26.7986 3.95636 26.7995C4.43355 27.0104 5.06721 27.0277 5.56296 26.8362C6.08749 26.6328 6.50046 26.2388 6.72649 25.7271L7.03511 25.0297C7.9368 25.4317 8.46002 25.6598 8.66158 25.7381C9.01136 25.8743 9.12368 26.3533 9.26833 27.1258C9.34661 27.5495 9.42846 27.9837 9.5974 28.3782L8.84908 29.776C8.48074 30.465 8.40283 31.2584 8.63065 32.0093C8.85836 32.7611 9.36386 33.378 10.0519 33.7464C10.505 33.9887 11.0141 34.1071 11.5276 34.0896C11.4555 34.5324 11.4865 34.986 11.6183 35.4149C11.846 36.1672 12.3506 36.784 13.0396 37.1525C13.948 37.638 15.001 37.5938 15.8447 37.1268C16.1101 37.7129 16.5611 38.1953 17.1281 38.4995C17.9426 38.9355 18.8868 38.9466 19.6881 38.5981C19.9379 39.2657 20.4227 39.8194 21.0515 40.1552C21.4744 40.3821 21.9469 40.5009 22.4268 40.501C22.7134 40.501 23.0026 40.459 23.2856 40.3728C23.9229 40.1796 24.4629 39.7868 24.837 39.2504L25.6171 39.6988C26.038 39.9412 26.5152 40.0688 27.0009 40.0689C27.2587 40.0689 27.5183 40.0323 27.7752 39.961C28.5187 39.7528 29.1572 39.2468 29.5273 38.5738C29.7787 38.1181 29.9 37.6021 29.8781 37.0822C30.3442 37.1878 30.8324 37.1759 31.3069 37.0388C32.0494 36.8253 32.6615 36.3366 33.032 35.6644C33.2976 35.1809 33.4164 34.6303 33.3738 34.0803C33.7732 34.1374 34.1848 34.1095 34.5842 33.9932C35.3223 33.7783 35.9317 33.2918 36.3 32.6223C36.702 31.8913 36.7471 31.0551 36.4942 30.3152C36.5336 30.3059 36.5729 30.2953 36.6122 30.2843C37.3573 30.0706 37.9725 29.582 38.3435 28.9063C38.6681 28.3173 38.7579 27.6575 38.6464 27.0339L40.9349 26.0787L41.1852 26.7234C41.3877 27.2449 41.7813 27.6575 42.2961 27.8843C42.5636 28.003 42.8529 28.0646 43.1456 28.0652C43.4011 28.0652 43.6572 28.0175 43.9031 27.9228L46.6599 26.8539C47.1813 26.6514 47.5939 26.2569 47.8207 25.7422C48.0479 25.2283 48.0621 24.6574 47.8595 24.1364ZM9.9994 11.5895C9.97596 12.0958 9.54565 12.4876 9.03846 12.4643C8.53211 12.4408 8.14033 12.0113 8.16377 11.5042C8.18721 10.9973 8.61658 10.6051 9.12386 10.6285C9.63105 10.652 10.0228 11.0823 9.9994 11.5895Z" fill="#B30000"/>
</g>
<defs>
<clipPath id="clip0_283_6544">
<rect width="48" height="48" fill="white"/>
</clipPath>
</defs>
</svg>
