<svg width="733" height="547" viewBox="0 0 733 547" fill="none" xmlns="http://www.w3.org/2000/svg">
<g clip-path="url(#clip0_313_3207)">
<g filter="url(#filter0_d_313_3207)">
<circle cx="409" cy="258" r="204" fill="white"/>
</g>
<circle cx="409" cy="258" r="204" fill="white"/>
<circle opacity="0.5" cx="409" cy="258" r="180.5" stroke="#CCE0FF" stroke-dasharray="4 4"/>
<circle opacity="0.5" cx="409.5" cy="258.5" r="268" stroke="#CCE0FF" stroke-dasharray="4 4"/>
<circle opacity="0.5" cx="409" cy="258" r="333.5" stroke="#CCE0FF"/>
<circle opacity="0.5" cx="409" cy="256" r="408.5" stroke="#CCE0FF" stroke-dasharray="4 4"/>
<g filter="url(#filter1_d_313_3207)">
<rect x="320" y="231" width="54" height="54" rx="4" fill="white"/>
</g>
<path d="M357.932 249.001L334.999 255.667L333.799 252.467C333.399 251.001 334.199 249.534 335.532 249.134L353.532 243.801C354.999 243.401 356.465 244.201 356.865 245.534L357.932 249.001Z" stroke="#FF9494" stroke-width="1.5" stroke-linecap="round" stroke-linejoin="round"/>
<path d="M339.266 248.066L343.399 253.266" stroke="#FF9494" stroke-width="1.5" stroke-linecap="round" stroke-linejoin="round"/>
<path d="M347.535 245.533L351.668 250.867" stroke="#FF9494" stroke-width="1.5" stroke-linecap="round" stroke-linejoin="round"/>
<path d="M335 255.667H359V266.334C359 267.041 358.719 267.719 358.219 268.219C357.719 268.719 357.041 269 356.333 269H337.667C336.959 269 336.281 268.719 335.781 268.219C335.281 267.719 335 267.041 335 266.334V255.667Z" stroke="#FF9494" stroke-width="1.5" stroke-linecap="round" stroke-linejoin="round"/>
<g filter="url(#filter2_d_313_3207)">
<rect x="388" y="232" width="50" height="50" rx="4" fill="white"/>
</g>
<path d="M413.001 270.334C420.365 270.334 426.335 264.364 426.335 257C426.335 249.637 420.365 243.667 413.001 243.667C405.638 243.667 399.668 249.637 399.668 257C399.668 264.364 405.638 270.334 413.001 270.334Z" stroke="#FF9494" stroke-width="1.5" stroke-linecap="round" stroke-linejoin="round"/>
<path d="M409 257L411.667 259.666L417 254.333" stroke="#FF9494" stroke-width="1.5" stroke-linecap="round" stroke-linejoin="round"/>
<g filter="url(#filter3_d_313_3207)">
<rect x="318" y="169" width="50" height="50" rx="4" fill="white"/>
</g>
<g filter="url(#filter4_d_313_3207)">
<rect x="452" y="234" width="46" height="46" rx="4" fill="white"/>
</g>
<path d="M485.668 246.333H464.335C462.862 246.333 461.668 247.527 461.668 249V265C461.668 266.472 462.862 267.666 464.335 267.666H485.668C487.141 267.666 488.335 266.472 488.335 265V249C488.335 247.527 487.141 246.333 485.668 246.333Z" stroke="#FF9494" stroke-width="1.5" stroke-linecap="round" stroke-linejoin="round"/>
<path d="M488.335 250.333L476.375 257.933C475.963 258.191 475.487 258.328 475.001 258.328C474.516 258.328 474.04 258.191 473.628 257.933L461.668 250.333" stroke="#FF9494" stroke-width="1.5" stroke-linecap="round" stroke-linejoin="round"/>
<rect opacity="0.5" x="512.5" y="239.5" width="35" height="35" rx="7.5" stroke="#408BFE"/>
<g filter="url(#filter5_d_313_3207)">
<rect x="384" y="171" width="46" height="46" rx="4" fill="white"/>
</g>
<path d="M402 192V204" stroke="#FF9494" stroke-width="1.5" stroke-linecap="round" stroke-linejoin="round"/>
<path d="M410 187.88L409 192H414.83C415.14 192 415.447 192.072 415.724 192.211C416.002 192.35 416.244 192.552 416.43 192.8C416.616 193.048 416.742 193.337 416.798 193.642C416.853 193.948 416.837 194.262 416.75 194.56L414.42 202.56C414.299 202.975 414.046 203.34 413.7 203.6C413.354 203.86 412.933 204 412.5 204H399C398.47 204 397.961 203.789 397.586 203.414C397.211 203.039 397 202.53 397 202V194C397 193.47 397.211 192.961 397.586 192.586C397.961 192.211 398.47 192 399 192H401.76C402.132 192 402.497 191.896 402.813 191.7C403.129 191.504 403.384 191.223 403.55 190.89L407 184C407.472 184.006 407.936 184.118 408.358 184.329C408.78 184.539 409.149 184.842 409.437 185.215C409.726 185.588 409.926 186.022 410.024 186.483C410.121 186.945 410.113 187.422 410 187.88Z" stroke="#FF9494" stroke-width="1.5" stroke-linecap="round" stroke-linejoin="round"/>
<rect opacity="0.5" x="388.875" y="116.652" width="33.9842" height="33.9842" rx="7.5" stroke="#408BFE"/>
<rect opacity="0.5" x="394.457" y="69" width="21.2947" height="21.2947" rx="4" fill="#CCE0FF"/>
<g filter="url(#filter6_d_313_3207)">
<rect x="449" y="177" width="34" height="34" rx="6" fill="white"/>
</g>
<g filter="url(#filter7_d_313_3207)">
<rect x="449" y="177" width="34" height="34" rx="4" fill="white"/>
</g>
<path d="M473 185H459C457.895 185 457 185.895 457 187V201C457 202.105 457.895 203 459 203H473C474.105 203 475 202.105 475 201V187C475 185.895 474.105 185 473 185Z" stroke="#FF9494" stroke-width="1.5" stroke-linecap="round" stroke-linejoin="round"/>
<path d="M463 193C464.105 193 465 192.105 465 191C465 189.895 464.105 189 463 189C461.895 189 461 189.895 461 191C461 192.105 461.895 193 463 193Z" stroke="#FF9494" stroke-width="1.5" stroke-linecap="round" stroke-linejoin="round"/>
<path d="M475 197L471.914 193.914C471.539 193.539 471.03 193.328 470.5 193.328C469.97 193.328 469.461 193.539 469.086 193.914L460 203" stroke="#FF9494" stroke-width="1.5" stroke-linecap="round" stroke-linejoin="round"/>
<rect opacity="0.5" x="456.82" y="125.279" width="19.7737" height="19.7737" rx="2" fill="#CCE0FF"/>
<rect x="341.219" y="125.279" width="16.7316" height="16.7316" rx="4.50816" fill="#FF9494" fill-opacity="0.5"/>
<rect opacity="0.5" x="277.336" y="309.326" width="16.7316" height="16.7316" rx="2" fill="#CCE0FF"/>
<rect x="341.219" y="370.168" width="16.7316" height="16.7316" rx="4.50816" fill="#FF9494" fill-opacity="0.5"/>
<rect opacity="0.5" x="395.977" y="427.969" width="19.7737" height="19.7737" rx="2" fill="#FF9494" fill-opacity="0.5"/>
<rect opacity="0.5" x="277.336" y="189.163" width="16.7316" height="16.7316" rx="2" fill="#FF9494" fill-opacity="0.5"/>
<rect opacity="0.5" x="350.348" y="81.168" width="9.12632" height="9.12632" rx="2" fill="#CCE0FF"/>
<rect opacity="0.5" x="286.461" y="160.264" width="9.12632" height="9.12632" rx="2" fill="#FF9494" fill-opacity="0.5"/>
<rect opacity="0.5" x="348.828" y="418.842" width="9.12632" height="9.12632" rx="2" fill="#FF9494" fill-opacity="0.5"/>
<rect opacity="0.5" x="453.781" y="423.405" width="9.12632" height="9.12632" rx="2" fill="#FF9494" fill-opacity="0.5"/>
<rect opacity="0.5" x="450.734" y="81.168" width="9.12632" height="9.12632" rx="2" fill="#CCE0FF"/>
<rect opacity="0.5" x="510.059" y="145.053" width="9.12632" height="9.12632" rx="2" fill="#CCE0FF"/>
<rect opacity="0.5" x="508.539" y="358" width="12.1684" height="12.1684" rx="2" fill="#FF9494" fill-opacity="0.5"/>
<rect x="507.184" y="308" width="24" height="24" rx="4.50816" fill="#FF9494" fill-opacity="0.5"/>
<rect opacity="0.5" x="456.82" y="370.168" width="21.2947" height="21.2947" rx="4" fill="#FF9494" fill-opacity="0.5"/>
<rect opacity="0.5" x="509.5" y="183.5" width="22" height="22" rx="7.5" stroke="#408BFE"/>
<rect opacity="0.5" x="270.5" y="240.5" width="35" height="35" rx="7.5" stroke="#408BFE"/>
<g filter="url(#filter8_d_313_3207)">
<rect x="448" y="300" width="40" height="40" rx="4" fill="white"/>
</g>
<path d="M462 316C462 314.409 462.632 312.883 463.757 311.757C464.883 310.632 466.409 310 468 310C469.591 310 471.117 310.632 472.243 311.757C473.368 312.883 474 314.409 474 316C474 323 477 325 477 325H459C459 325 462 323 462 316Z" stroke="#FF9494" stroke-width="1.5" stroke-linecap="round" stroke-linejoin="round"/>
<path d="M466.301 329C466.468 329.304 466.714 329.558 467.013 329.735C467.312 329.912 467.653 330.005 468.001 330.005C468.348 330.005 468.689 329.912 468.988 329.735C469.287 329.558 469.533 329.304 469.701 329" stroke="#FF9494" stroke-width="1.5" stroke-linecap="round" stroke-linejoin="round"/>
<path d="M460 310C458.8 311.7 458 313.7 458 316" stroke="#FF9494" stroke-width="1.5" stroke-linecap="round" stroke-linejoin="round"/>
<path d="M478 316C478 313.7 477.2 311.7 476 310" stroke="#FF9494" stroke-width="1.5" stroke-linecap="round" stroke-linejoin="round"/>
<path opacity="0.5" d="M398 364.5H415C419.142 364.5 422.5 367.858 422.5 372V389C422.5 393.142 419.142 396.5 415 396.5H398C393.858 396.5 390.5 393.142 390.5 389V372C390.5 367.858 393.858 364.5 398 364.5Z" stroke="#408BFE"/>
<g filter="url(#filter9_d_313_3207)">
<rect x="384" y="297" width="46" height="46" rx="4" fill="white"/>
</g>
<path d="M419 324C419 324.707 418.719 325.386 418.219 325.886C417.719 326.386 417.041 326.667 416.333 326.667H400.333L395 332V310.667C395 309.959 395.281 309.281 395.781 308.781C396.281 308.281 396.959 308 397.667 308H416.333C417.041 308 417.719 308.281 418.219 308.781C418.719 309.281 419 309.959 419 310.667V324Z" stroke="#FF9494" stroke-width="1.5" stroke-linecap="round" stroke-linejoin="round"/>
<path d="M408.332 314.667H400.332" stroke="#FF9494" stroke-width="1.5" stroke-linecap="round" stroke-linejoin="round"/>
<path d="M413.665 320H400.332" stroke="#FF9494" stroke-width="1.5" stroke-linecap="round" stroke-linejoin="round"/>
<g filter="url(#filter10_d_313_3207)">
<rect x="317" y="294" width="51" height="51" rx="4" fill="white"/>
</g>
<path d="M356.334 326.559V330.559C356.335 330.931 356.259 331.298 356.111 331.639C355.962 331.979 355.744 332.284 355.47 332.535C355.196 332.786 354.873 332.977 354.522 333.096C354.17 333.215 353.797 333.26 353.427 333.226C349.324 332.78 345.383 331.378 341.921 329.133C338.699 327.086 335.968 324.354 333.921 321.133C331.667 317.654 330.265 313.694 329.827 309.573C329.794 309.204 329.838 308.832 329.956 308.482C330.074 308.131 330.264 307.808 330.514 307.535C330.763 307.262 331.067 307.043 331.406 306.894C331.744 306.744 332.11 306.666 332.481 306.666H336.481C337.128 306.66 337.755 306.889 338.246 307.311C338.736 307.733 339.057 308.319 339.147 308.959C339.316 310.24 339.629 311.496 340.081 312.706C340.26 313.183 340.299 313.702 340.192 314.201C340.086 314.699 339.839 315.157 339.481 315.519L337.787 317.213C339.685 320.551 342.449 323.315 345.787 325.213L347.481 323.519C347.843 323.161 348.301 322.914 348.799 322.808C349.298 322.701 349.817 322.74 350.294 322.919C351.504 323.371 352.76 323.684 354.041 323.853C354.688 323.944 355.28 324.27 355.703 324.769C356.125 325.269 356.35 325.906 356.334 326.559Z" stroke="#FF9494" stroke-width="1.5" stroke-linecap="round" stroke-linejoin="round"/>
<path d="M345.734 306.667C348.452 306.953 350.991 308.159 352.93 310.084C354.87 312.009 356.094 314.538 356.401 317.254" stroke="#FF9494" stroke-width="1.5" stroke-linecap="round" stroke-linejoin="round"/>
<path d="M345.734 312C347.046 312.259 348.249 312.905 349.188 313.856C350.127 314.807 350.759 316.019 351.001 317.333" stroke="#FF9494" stroke-width="1.5" stroke-linecap="round" stroke-linejoin="round"/>
<path d="M343.001 188.666V183.333H337.668" stroke="#FF9494" stroke-width="1.5" stroke-linecap="round" stroke-linejoin="round"/>
<path d="M350.999 188.667H334.999C333.526 188.667 332.332 189.861 332.332 191.334V202C332.332 203.473 333.526 204.667 334.999 204.667H350.999C352.471 204.667 353.665 203.473 353.665 202V191.334C353.665 189.861 352.471 188.667 350.999 188.667Z" stroke="#FF9494" stroke-width="1.5" stroke-linecap="round" stroke-linejoin="round"/>
<path d="M329.668 196.667H332.335" stroke="#FF9494" stroke-width="1.5" stroke-linecap="round" stroke-linejoin="round"/>
<path d="M353.668 196.667H356.335" stroke="#FF9494" stroke-width="1.5" stroke-linecap="round" stroke-linejoin="round"/>
<path d="M347 195.333V198" stroke="#FF9494" stroke-width="1.5" stroke-linecap="round" stroke-linejoin="round"/>
<path d="M339 195.333V198" stroke="#FF9494" stroke-width="1.5" stroke-linecap="round" stroke-linejoin="round"/>
</g>
<defs>
<filter id="filter0_d_313_3207" x="165" y="15" width="488" height="488" filterUnits="userSpaceOnUse" color-interpolation-filters="sRGB">
<feFlood flood-opacity="0" result="BackgroundImageFix"/>
<feColorMatrix in="SourceAlpha" type="matrix" values="0 0 0 0 0 0 0 0 0 0 0 0 0 0 0 0 0 0 127 0" result="hardAlpha"/>
<feMorphology radius="20" operator="dilate" in="SourceAlpha" result="effect1_dropShadow_313_3207"/>
<feOffset dy="1"/>
<feGaussianBlur stdDeviation="10"/>
<feComposite in2="hardAlpha" operator="out"/>
<feColorMatrix type="matrix" values="0 0 0 0 0.929984 0 0 0 0 0.961307 0 0 0 0 1 0 0 0 0.5 0"/>
<feBlend mode="normal" in2="BackgroundImageFix" result="effect1_dropShadow_313_3207"/>
<feBlend mode="normal" in="SourceGraphic" in2="effect1_dropShadow_313_3207" result="shape"/>
</filter>
<filter id="filter1_d_313_3207" x="314" y="226" width="66" height="66" filterUnits="userSpaceOnUse" color-interpolation-filters="sRGB">
<feFlood flood-opacity="0" result="BackgroundImageFix"/>
<feColorMatrix in="SourceAlpha" type="matrix" values="0 0 0 0 0 0 0 0 0 0 0 0 0 0 0 0 0 0 127 0" result="hardAlpha"/>
<feMorphology radius="2" operator="dilate" in="SourceAlpha" result="effect1_dropShadow_313_3207"/>
<feOffset dy="1"/>
<feGaussianBlur stdDeviation="2"/>
<feComposite in2="hardAlpha" operator="out"/>
<feColorMatrix type="matrix" values="0 0 0 0 0.8 0 0 0 0 0.878431 0 0 0 0 1 0 0 0 0.3 0"/>
<feBlend mode="normal" in2="BackgroundImageFix" result="effect1_dropShadow_313_3207"/>
<feBlend mode="normal" in="SourceGraphic" in2="effect1_dropShadow_313_3207" result="shape"/>
</filter>
<filter id="filter2_d_313_3207" x="382" y="227" width="62" height="62" filterUnits="userSpaceOnUse" color-interpolation-filters="sRGB">
<feFlood flood-opacity="0" result="BackgroundImageFix"/>
<feColorMatrix in="SourceAlpha" type="matrix" values="0 0 0 0 0 0 0 0 0 0 0 0 0 0 0 0 0 0 127 0" result="hardAlpha"/>
<feMorphology radius="2" operator="dilate" in="SourceAlpha" result="effect1_dropShadow_313_3207"/>
<feOffset dy="1"/>
<feGaussianBlur stdDeviation="2"/>
<feComposite in2="hardAlpha" operator="out"/>
<feColorMatrix type="matrix" values="0 0 0 0 0.8 0 0 0 0 0.878431 0 0 0 0 1 0 0 0 0.3 0"/>
<feBlend mode="normal" in2="BackgroundImageFix" result="effect1_dropShadow_313_3207"/>
<feBlend mode="normal" in="SourceGraphic" in2="effect1_dropShadow_313_3207" result="shape"/>
</filter>
<filter id="filter3_d_313_3207" x="312" y="164" width="62" height="62" filterUnits="userSpaceOnUse" color-interpolation-filters="sRGB">
<feFlood flood-opacity="0" result="BackgroundImageFix"/>
<feColorMatrix in="SourceAlpha" type="matrix" values="0 0 0 0 0 0 0 0 0 0 0 0 0 0 0 0 0 0 127 0" result="hardAlpha"/>
<feMorphology radius="2" operator="dilate" in="SourceAlpha" result="effect1_dropShadow_313_3207"/>
<feOffset dy="1"/>
<feGaussianBlur stdDeviation="2"/>
<feComposite in2="hardAlpha" operator="out"/>
<feColorMatrix type="matrix" values="0 0 0 0 0.8 0 0 0 0 0.878431 0 0 0 0 1 0 0 0 0.3 0"/>
<feBlend mode="normal" in2="BackgroundImageFix" result="effect1_dropShadow_313_3207"/>
<feBlend mode="normal" in="SourceGraphic" in2="effect1_dropShadow_313_3207" result="shape"/>
</filter>
<filter id="filter4_d_313_3207" x="446" y="229" width="58" height="58" filterUnits="userSpaceOnUse" color-interpolation-filters="sRGB">
<feFlood flood-opacity="0" result="BackgroundImageFix"/>
<feColorMatrix in="SourceAlpha" type="matrix" values="0 0 0 0 0 0 0 0 0 0 0 0 0 0 0 0 0 0 127 0" result="hardAlpha"/>
<feMorphology radius="2" operator="dilate" in="SourceAlpha" result="effect1_dropShadow_313_3207"/>
<feOffset dy="1"/>
<feGaussianBlur stdDeviation="2"/>
<feComposite in2="hardAlpha" operator="out"/>
<feColorMatrix type="matrix" values="0 0 0 0 0.8 0 0 0 0 0.878431 0 0 0 0 1 0 0 0 0.3 0"/>
<feBlend mode="normal" in2="BackgroundImageFix" result="effect1_dropShadow_313_3207"/>
<feBlend mode="normal" in="SourceGraphic" in2="effect1_dropShadow_313_3207" result="shape"/>
</filter>
<filter id="filter5_d_313_3207" x="378" y="166" width="58" height="58" filterUnits="userSpaceOnUse" color-interpolation-filters="sRGB">
<feFlood flood-opacity="0" result="BackgroundImageFix"/>
<feColorMatrix in="SourceAlpha" type="matrix" values="0 0 0 0 0 0 0 0 0 0 0 0 0 0 0 0 0 0 127 0" result="hardAlpha"/>
<feMorphology radius="2" operator="dilate" in="SourceAlpha" result="effect1_dropShadow_313_3207"/>
<feOffset dy="1"/>
<feGaussianBlur stdDeviation="2"/>
<feComposite in2="hardAlpha" operator="out"/>
<feColorMatrix type="matrix" values="0 0 0 0 0.8 0 0 0 0 0.878431 0 0 0 0 1 0 0 0 0.3 0"/>
<feBlend mode="normal" in2="BackgroundImageFix" result="effect1_dropShadow_313_3207"/>
<feBlend mode="normal" in="SourceGraphic" in2="effect1_dropShadow_313_3207" result="shape"/>
</filter>
<filter id="filter6_d_313_3207" x="445" y="174" width="42" height="42" filterUnits="userSpaceOnUse" color-interpolation-filters="sRGB">
<feFlood flood-opacity="0" result="BackgroundImageFix"/>
<feColorMatrix in="SourceAlpha" type="matrix" values="0 0 0 0 0 0 0 0 0 0 0 0 0 0 0 0 0 0 127 0" result="hardAlpha"/>
<feOffset dy="1"/>
<feGaussianBlur stdDeviation="2"/>
<feComposite in2="hardAlpha" operator="out"/>
<feColorMatrix type="matrix" values="0 0 0 0 0.976471 0 0 0 0 0.956863 0 0 0 0 0.952941 0 0 0 1 0"/>
<feBlend mode="normal" in2="BackgroundImageFix" result="effect1_dropShadow_313_3207"/>
<feBlend mode="normal" in="SourceGraphic" in2="effect1_dropShadow_313_3207" result="shape"/>
</filter>
<filter id="filter7_d_313_3207" x="443" y="172" width="46" height="46" filterUnits="userSpaceOnUse" color-interpolation-filters="sRGB">
<feFlood flood-opacity="0" result="BackgroundImageFix"/>
<feColorMatrix in="SourceAlpha" type="matrix" values="0 0 0 0 0 0 0 0 0 0 0 0 0 0 0 0 0 0 127 0" result="hardAlpha"/>
<feMorphology radius="2" operator="dilate" in="SourceAlpha" result="effect1_dropShadow_313_3207"/>
<feOffset dy="1"/>
<feGaussianBlur stdDeviation="2"/>
<feComposite in2="hardAlpha" operator="out"/>
<feColorMatrix type="matrix" values="0 0 0 0 0.8 0 0 0 0 0.878431 0 0 0 0 1 0 0 0 0.3 0"/>
<feBlend mode="normal" in2="BackgroundImageFix" result="effect1_dropShadow_313_3207"/>
<feBlend mode="normal" in="SourceGraphic" in2="effect1_dropShadow_313_3207" result="shape"/>
</filter>
<filter id="filter8_d_313_3207" x="442" y="295" width="52" height="52" filterUnits="userSpaceOnUse" color-interpolation-filters="sRGB">
<feFlood flood-opacity="0" result="BackgroundImageFix"/>
<feColorMatrix in="SourceAlpha" type="matrix" values="0 0 0 0 0 0 0 0 0 0 0 0 0 0 0 0 0 0 127 0" result="hardAlpha"/>
<feMorphology radius="2" operator="dilate" in="SourceAlpha" result="effect1_dropShadow_313_3207"/>
<feOffset dy="1"/>
<feGaussianBlur stdDeviation="2"/>
<feComposite in2="hardAlpha" operator="out"/>
<feColorMatrix type="matrix" values="0 0 0 0 0.8 0 0 0 0 0.878431 0 0 0 0 1 0 0 0 0.3 0"/>
<feBlend mode="normal" in2="BackgroundImageFix" result="effect1_dropShadow_313_3207"/>
<feBlend mode="normal" in="SourceGraphic" in2="effect1_dropShadow_313_3207" result="shape"/>
</filter>
<filter id="filter9_d_313_3207" x="378" y="292" width="58" height="58" filterUnits="userSpaceOnUse" color-interpolation-filters="sRGB">
<feFlood flood-opacity="0" result="BackgroundImageFix"/>
<feColorMatrix in="SourceAlpha" type="matrix" values="0 0 0 0 0 0 0 0 0 0 0 0 0 0 0 0 0 0 127 0" result="hardAlpha"/>
<feMorphology radius="2" operator="dilate" in="SourceAlpha" result="effect1_dropShadow_313_3207"/>
<feOffset dy="1"/>
<feGaussianBlur stdDeviation="2"/>
<feComposite in2="hardAlpha" operator="out"/>
<feColorMatrix type="matrix" values="0 0 0 0 0.8 0 0 0 0 0.878431 0 0 0 0 1 0 0 0 0.3 0"/>
<feBlend mode="normal" in2="BackgroundImageFix" result="effect1_dropShadow_313_3207"/>
<feBlend mode="normal" in="SourceGraphic" in2="effect1_dropShadow_313_3207" result="shape"/>
</filter>
<filter id="filter10_d_313_3207" x="311" y="289" width="63" height="63" filterUnits="userSpaceOnUse" color-interpolation-filters="sRGB">
<feFlood flood-opacity="0" result="BackgroundImageFix"/>
<feColorMatrix in="SourceAlpha" type="matrix" values="0 0 0 0 0 0 0 0 0 0 0 0 0 0 0 0 0 0 127 0" result="hardAlpha"/>
<feMorphology radius="2" operator="dilate" in="SourceAlpha" result="effect1_dropShadow_313_3207"/>
<feOffset dy="1"/>
<feGaussianBlur stdDeviation="2"/>
<feComposite in2="hardAlpha" operator="out"/>
<feColorMatrix type="matrix" values="0 0 0 0 0.8 0 0 0 0 0.878431 0 0 0 0 1 0 0 0 0.3 0"/>
<feBlend mode="normal" in2="BackgroundImageFix" result="effect1_dropShadow_313_3207"/>
<feBlend mode="normal" in="SourceGraphic" in2="effect1_dropShadow_313_3207" result="shape"/>
</filter>
<clipPath id="clip0_313_3207">
<rect width="733" height="547" fill="white"/>
</clipPath>
</defs>
</svg>
