<svg width="56" height="56" viewBox="0 0 56 56" fill="none" xmlns="http://www.w3.org/2000/svg">
<path opacity="0.3" d="M40.5988 24.5C40.5988 16.7685 34.9567 10.5 27.9987 10.5C21.0407 10.5 15.3988 16.7685 15.3988 24.5C15.473 28.6804 14.7545 32.8371 13.2812 36.75H42.7162C41.243 32.8371 40.5245 28.6804 40.5988 24.5ZM23.0707 43.75C22.7793 44.5435 22.6837 45.3956 22.7921 46.2339C22.9006 47.0723 23.2099 47.872 23.6937 48.5652C24.1775 49.2584 24.8216 49.8244 25.5711 50.2153C26.3206 50.6062 27.1534 50.8103 27.9987 50.8103C28.8441 50.8103 29.6769 50.6062 30.4264 50.2153C31.1759 49.8244 31.82 49.2584 32.3038 48.5652C32.7876 47.872 33.0969 47.0723 33.2054 46.2339C33.3138 45.3956 33.2182 44.5435 32.9268 43.75H23.0707Z" fill="#FF0000"/>
<path d="M39.1804 9.5742L39.1805 9.57421C40.4396 9.78064 41.6453 10.8548 42.5185 12.071C42.959 12.6844 43.3233 13.3453 43.5747 13.9731C43.8247 14.5975 43.9685 15.2028 43.954 15.702C43.9461 16.11 44.0994 16.5047 44.3807 16.8004C44.6621 17.0963 45.049 17.2692 45.4573 17.2814C45.8655 17.2937 46.262 17.1443 46.5607 16.8658C46.8592 16.5875 47.0359 16.2028 47.0525 15.7951C47.1037 14.0459 46.2727 11.8872 44.9073 10.0759C43.542 8.26476 41.6713 6.83923 39.6811 6.51271L39.1804 9.5742ZM39.1804 9.5742C38.7744 9.5078 38.4114 9.28285 38.1713 8.94883M39.1804 9.5742L38.1713 8.94883M12.2524 15.6971C12.1964 13.8526 14.4976 10.1583 16.8584 9.77158L16.3255 6.51269C16.5265 6.47983 16.732 6.48688 16.9302 6.53342C17.1285 6.57998 17.3157 6.66513 17.4811 6.78403C17.6465 6.90293 17.7869 7.05323 17.8942 7.22637C18.0015 7.39951 18.0736 7.59209 18.1065 7.79311C18.1394 7.99413 18.1323 8.19966 18.0858 8.39796C18.0392 8.59626 17.9541 8.78344 17.8352 8.94883C17.7163 9.11422 17.566 9.25457 17.3928 9.36188C17.2197 9.46918 17.0271 9.54132 16.8261 9.5742L16.826 9.57421C15.566 9.78063 14.3599 10.8548 13.4866 12.071C13.0462 12.6844 12.6819 13.3453 12.4308 13.9732C12.1808 14.5979 12.0373 15.2035 12.0524 15.703M12.2524 15.6971L12.0524 15.703M12.2524 15.6971L12.0525 15.7031C12.0525 15.7031 12.0524 15.703 12.0524 15.703M12.2524 15.6971C12.2661 16.1612 12.0948 16.6135 11.7763 16.9514C11.4578 17.2893 11.0181 17.4868 10.554 17.5005C10.0899 17.5141 9.6393 17.3429 9.30143 17.0244C8.96356 16.7059 8.76605 16.2662 8.75236 15.8021L12.0524 15.703M12.0524 15.703C12.0646 16.1143 11.9128 16.5151 11.6308 16.8142C11.3487 17.1135 10.9592 17.2884 10.5481 17.3005C10.137 17.3127 9.73789 17.161 9.43862 16.8789C9.13934 16.5967 8.9644 16.2073 8.95227 15.7962C8.90065 14.0459 9.73169 11.8867 11.0976 10.0753C12.4631 8.26437 14.3343 6.83923 16.3254 6.51271L12.0524 15.703ZM41.7296 38.2996L41.7825 38.4181C41.8442 38.5563 41.8996 38.6994 41.9527 38.8368C41.9613 38.859 41.9699 38.8811 41.9783 38.9029C42.0402 39.0622 42.1008 39.2133 42.1706 39.3549L41.7296 38.2996ZM41.7296 38.2996H41.5999M41.7296 38.2996H41.5999M41.5999 38.2996H14.4049H14.2761M41.5999 38.2996H14.2761M14.2761 38.2996L14.2228 38.4168M14.2761 38.2996L14.2228 38.4168M14.2228 38.4168C14.1577 38.56 14.1004 38.7087 14.0455 38.851M14.2228 38.4168L14.0455 38.851M38.1713 8.94883C37.9312 8.61481 37.8336 8.19909 37.9 7.79311M38.1713 8.94883L37.9 7.79311M37.9 7.79311C37.9664 7.38713 38.1913 7.02415 38.5254 6.78403M37.9 7.79311L38.5254 6.78403M38.5254 6.78403C38.8593 6.54393 39.275 6.44632 39.681 6.51269L38.5254 6.78403ZM14.0455 38.851C14.0388 38.8683 14.0322 38.8855 14.0256 38.9026M14.0455 38.851L14.0256 38.9026M14.0256 38.9026C13.9638 39.0624 13.9038 39.2137 13.8341 39.3549L14.0256 38.9026ZM44.9447 37.9713L44.9447 37.9714L44.9466 37.9754C45.3257 38.7458 45.5033 39.5998 45.4629 40.4575C45.4225 41.3153 45.1653 42.1488 44.7156 42.8802C44.2658 43.6116 43.6379 44.2172 42.8907 44.6403C42.1438 45.0632 41.302 45.29 40.4437 45.2996H35.0024H34.8024V45.4996C34.8024 47.303 34.0859 49.0327 32.8107 50.3079C31.5354 51.5831 29.8058 52.2996 28.0024 52.2996C26.1989 52.2996 24.4693 51.5831 23.194 50.3079C21.9188 49.0327 21.2024 47.303 21.2024 45.4996V45.2996H21.0024H15.561C14.7028 45.29 13.8609 45.0632 13.114 44.6403C12.3668 44.2172 11.739 43.6116 11.2892 42.8802C10.8394 42.1488 10.5823 41.3153 10.5419 40.4575C10.5014 39.5998 10.679 38.7458 11.0581 37.9754L11.0581 37.9754L11.06 37.9713C13.0187 33.755 13.9744 29.1423 13.8523 24.4948C13.7878 21.4544 14.6142 18.4615 16.2296 15.8849C17.8451 13.3081 20.1792 11.2603 22.9442 9.99366L23.0889 9.92733L23.0567 9.77138C22.9051 9.03705 22.9188 8.27816 23.0971 7.54982C23.2753 6.82148 23.6134 6.14196 24.087 5.5606C24.5605 4.97924 25.1576 4.51064 25.8349 4.18881C26.5121 3.86698 27.2525 3.7 28.0024 3.7C28.7522 3.7 29.4926 3.86698 30.1699 4.18881C30.8471 4.51064 31.4442 4.97924 31.9177 5.5606C32.3913 6.14196 32.7295 6.82148 32.9077 7.54982C33.0859 8.27816 33.0996 9.03705 32.948 9.77138L32.9158 9.92733L33.0606 9.99366C35.8256 11.2603 38.1596 13.3081 39.7751 15.8849C41.3906 18.4616 42.217 21.4547 42.1524 24.4953C42.0304 29.1427 42.9861 33.7551 44.9447 37.9713ZM26.088 8.88769L26.1046 9.09974L26.3152 9.07013C27.4345 8.91277 28.5702 8.91277 29.6895 9.07013L29.9001 9.09974L29.9167 8.88769C29.9374 8.6237 29.9033 8.35828 29.8164 8.10812C29.7296 7.85795 29.592 7.62845 29.4122 7.43404C29.2324 7.23962 29.0143 7.08449 28.7717 6.9784C28.5291 6.8723 28.2672 6.81753 28.0024 6.81753C27.7376 6.81753 27.4756 6.8723 27.233 6.9784C26.9904 7.08449 26.7723 7.23962 26.5925 7.43404C26.4127 7.62845 26.2751 7.85795 26.1883 8.10812C26.1015 8.35828 26.0673 8.6237 26.088 8.88769ZM15.5025 34.9438L15.4282 35.1996H15.6946H40.3084H40.5747L40.5004 34.9438C39.5156 31.5512 39.0278 28.0336 39.0524 24.501V24.4996C39.0524 17.6576 34.1182 12.0496 28.0024 12.0496C21.8865 12.0496 16.9524 17.6576 16.9524 24.4996L16.9524 24.5009C16.9764 28.0337 16.488 31.5512 15.5025 34.9438ZM31.7024 45.4996V45.2996H31.5024H24.5024H24.3024V45.4996C24.3024 46.4809 24.6922 47.422 25.3861 48.1159C26.08 48.8098 27.0211 49.1996 28.0024 49.1996C28.9837 49.1996 29.9248 48.8098 30.6187 48.1159C31.3125 47.422 31.7024 46.4809 31.7024 45.4996Z" fill="#B30000" stroke="white" stroke-width="0.4"/>
</svg>
