<svg width="430" height="430" viewBox="0 0 430 430" fill="none" xmlns="http://www.w3.org/2000/svg">
<path d="M248.56 342.753C248.658 343.58 248.799 344.354 248.95 345.043C250.346 351.519 255.525 356.286 261.497 358.82C267.469 361.353 273.686 361.833 279.96 362.371C281.045 362.462 282.369 362.455 282.915 361.464C283.673 360.151 282.058 358.761 281.612 357.315C286.027 357.25 290.086 359.816 294.457 359.962C296.448 360.01 298.421 359.573 300.206 358.689C301.991 357.805 303.535 356.501 304.703 354.888C305.43 353.934 305.91 352.816 306.1 351.631C306.573 347.984 303.322 345.127 300.382 342.933C309.223 340.746 318.291 336.287 322.171 328.074C323.49 325.268 324.071 321.749 322.336 319.166C320.6 316.583 317.037 315.806 313.99 316.399C310.943 316.992 308.254 318.706 305.571 320.254C305.167 320.478 304.717 320.714 304.284 320.582C303.852 320.376 303.509 320.02 303.32 319.581C301.508 316.654 297.696 315.38 294.289 315.896C290.886 316.584 287.787 318.331 285.437 320.885C285.727 318.91 283.685 317.13 281.707 317.138C280.708 317.208 279.735 317.49 278.854 317.966C277.973 318.442 277.204 319.101 276.598 319.899C275.286 321.402 274.313 323.178 273.021 324.693C268.538 329.945 261.03 331.294 254.147 331.357C248.338 331.414 247.922 337.929 248.56 342.753Z" fill="#004498"/>
<path opacity="0.3" d="M248.56 342.753C248.658 343.58 248.799 344.354 248.95 345.043C250.346 351.519 255.525 356.286 261.497 358.82C267.469 361.353 273.686 361.833 279.96 362.371C281.045 362.462 282.369 362.455 282.915 361.464C283.673 360.151 282.058 358.761 281.612 357.315C286.027 357.25 290.086 359.816 294.457 359.962C296.448 360.01 298.421 359.573 300.206 358.689C301.991 357.805 303.535 356.501 304.703 354.888C305.43 353.934 305.91 352.816 306.1 351.631C306.573 347.984 303.322 345.127 300.382 342.933C309.223 340.746 318.291 336.287 322.171 328.074C323.49 325.268 324.071 321.749 322.336 319.166C320.6 316.583 317.037 315.806 313.99 316.399C310.943 316.992 308.254 318.706 305.571 320.254C305.167 320.478 304.717 320.714 304.284 320.582C303.852 320.376 303.509 320.02 303.32 319.581C301.508 316.654 297.696 315.38 294.289 315.896C290.886 316.584 287.787 318.331 285.437 320.885C285.727 318.91 283.685 317.13 281.707 317.138C280.708 317.208 279.735 317.49 278.854 317.966C277.973 318.442 277.204 319.101 276.598 319.899C275.286 321.402 274.313 323.178 273.021 324.693C268.538 329.945 261.03 331.294 254.147 331.357C248.338 331.414 247.922 337.929 248.56 342.753Z" fill="black"/>
<path d="M317.395 319.895C317.395 319.895 306.482 336.329 258.009 339.651" stroke="white" stroke-width="1.05263" stroke-miterlimit="10" stroke-linecap="round"/>
<path d="M289.294 350.709C289.294 350.709 282.547 350.106 272.208 338.231" stroke="white" stroke-width="1.05263" stroke-miterlimit="10" stroke-linecap="round"/>
<path d="M294.154 321.921C294.154 321.921 285.376 328.299 282.779 336.26" stroke="white" stroke-width="1.05263" stroke-miterlimit="10" stroke-linecap="round"/>
<path d="M240.256 366.914C241.164 372.25 243.456 377.254 246.903 381.427C252.752 388.723 258.712 388.245 258.712 388.245C258.712 388.245 261.855 379.384 259.599 374.057C262.927 378.781 265.435 384.032 267.017 389.59C267.017 389.59 271.14 393.447 278.585 388.586C278.585 388.586 279.599 382.507 273.195 372.891C273.195 372.891 279.394 376.208 284.969 384.68C285.327 385.396 295.134 379.272 299.298 376.11C303.463 372.949 301.895 371.612 299.651 368.122C297.407 364.631 287.777 354.968 284.439 354.909C281.102 354.851 275.1 359.566 275.1 359.566C276.776 357.034 278.76 354.721 281.009 352.681C278.601 350.264 275.801 348.273 272.729 346.79C268.354 344.93 267.084 346.745 264.891 349.163C262.658 351.589 260.785 354.323 259.329 357.281C259.329 357.281 258.833 353.205 265.422 345.798C265.422 345.798 257.421 345.556 252.607 347.219C247.792 348.882 240.41 358.026 240.256 366.914Z" fill="#004498"/>
<path d="M239.908 367.289C239.983 367.35 240.071 367.391 240.166 367.409C240.26 367.427 240.358 367.421 240.45 367.392C258.611 363.23 288.993 366.28 297.64 371.535C297.76 371.604 297.902 371.622 298.035 371.587C298.169 371.551 298.282 371.464 298.351 371.344C298.42 371.225 298.439 371.082 298.403 370.949C298.368 370.816 298.28 370.702 298.161 370.633C289.366 365.294 258.694 361.501 240.047 366.415C239.982 366.439 239.922 366.476 239.872 366.524C239.822 366.572 239.782 366.63 239.755 366.694C239.728 366.757 239.714 366.826 239.715 366.896C239.715 366.965 239.73 367.034 239.758 367.097C239.79 367.173 239.842 367.239 239.908 367.289Z" fill="white"/>
<path d="M142.366 289.778C142.57 279.444 141.023 267.052 131.263 249.918C121.503 232.785 122.613 222.986 130.281 219.391C137.95 215.795 154.369 227.98 156.653 251.158C158.858 273.547 149.138 293.166 149.138 293.166L142.366 289.778Z" fill="#004498"/>
<path opacity="0.3" d="M142.366 289.778C142.57 279.444 141.023 267.052 131.263 249.918C121.503 232.785 122.613 222.986 130.281 219.391C137.95 215.795 154.369 227.98 156.653 251.158C158.858 273.547 149.138 293.166 149.138 293.166L142.366 289.778Z" fill="black"/>
<path d="M133.677 224.487C133.677 224.487 146.309 233.975 149.592 254.202C152.439 271.722 146.594 291.893 146.594 291.893" stroke="white" stroke-width="0.909573" stroke-miterlimit="10" stroke-linecap="round"/>
<path d="M138.943 308.382C128.153 310.188 113.113 306.026 112.099 293.275C111.878 290.535 112.329 287.581 111.003 285.169C110.18 283.896 109.143 282.776 107.937 281.857C105.374 279.856 103.268 277.331 101.761 274.45C100.428 271.485 100.398 267.757 102.407 265.206C103.852 263.427 106.068 262.237 106.782 259.892C107.495 257.547 107.221 254.605 108.046 252.089C109.55 247.222 116.076 242.052 120.487 247.107C121.888 248.959 122.793 251.137 123.119 253.435C124.252 258.872 127.588 258.028 132.092 259.687C133.637 260.306 134.921 261.439 135.728 262.895C136.534 264.351 136.814 266.041 136.52 267.679C136.18 269.286 135.273 270.88 135.658 272.408C136.124 274.611 138.592 275.631 140.593 276.669C142.944 277.91 145.013 279.624 146.668 281.704C148.323 283.784 149.529 286.185 150.21 288.754C151.447 293.57 150.729 298.679 148.211 302.967C146.316 306.001 142.275 307.431 138.943 308.382Z" fill="#004498"/>
<path d="M142.845 307.055L142.787 307.021C111.51 287.37 112.915 252.392 114.166 247.757C114.21 247.609 114.311 247.485 114.447 247.411C114.582 247.338 114.742 247.321 114.89 247.365C115.038 247.409 115.162 247.509 115.236 247.645C115.309 247.781 115.326 247.94 115.282 248.088C113.999 252.574 112.719 286.814 143.402 306.136C143.532 306.211 143.627 306.334 143.666 306.479C143.705 306.624 143.685 306.778 143.61 306.908C143.534 307.038 143.411 307.133 143.266 307.172C143.121 307.211 142.967 307.191 142.837 307.115L142.845 307.055Z" fill="white"/>
<path d="M113.112 276.445C111.033 275.423 109.041 274.234 107.156 272.888C107.034 272.799 106.953 272.665 106.93 272.516C106.907 272.367 106.945 272.214 107.034 272.093C107.123 271.971 107.257 271.89 107.406 271.867C107.556 271.844 107.708 271.881 107.83 271.971C111.293 274.428 115.131 276.309 119.196 277.54C119.34 277.578 119.464 277.671 119.542 277.798C119.619 277.926 119.644 278.078 119.611 278.224C119.572 278.368 119.478 278.49 119.349 278.565C119.221 278.64 119.067 278.661 118.923 278.624C116.917 278.098 114.97 277.368 113.112 276.445Z" fill="white"/>
<path d="M121.478 284.293L121.39 284.242C121.275 284.147 121.201 284.01 121.184 283.862C121.168 283.713 121.209 283.564 121.301 283.446C124.516 279.464 127.03 274.963 128.736 270.138C128.779 269.995 128.877 269.875 129.009 269.804C129.14 269.733 129.294 269.717 129.438 269.759C129.508 269.78 129.573 269.815 129.63 269.862C129.686 269.908 129.733 269.966 129.767 270.03C129.802 270.095 129.823 270.166 129.829 270.239C129.836 270.312 129.828 270.386 129.806 270.456C128.082 275.43 125.499 280.064 122.176 284.147C122.097 284.252 121.983 284.324 121.854 284.351C121.726 284.377 121.592 284.357 121.478 284.293Z" fill="white"/>
<path d="M160.688 34.0433L267.961 95.9746C269.101 96.7185 270.049 97.7213 270.727 98.9013C271.406 100.081 271.796 101.405 271.865 102.764V344.696C271.865 347.174 270.111 348.192 267.961 346.959L160.688 285.028C159.551 284.282 158.605 283.278 157.929 282.098C157.253 280.919 156.864 279.596 156.795 278.238V36.2952C156.795 33.8057 158.538 32.7986 160.688 34.0433ZM162.408 255.923C162.408 258.051 163.901 259.409 165.802 260.45L263.231 316.791C265.076 317.855 266.626 316.995 266.626 314.856V125.339C266.555 124.175 266.211 123.043 265.621 122.036C265.031 121.03 264.213 120.176 263.231 119.545L165.689 63.2381C163.845 62.1065 162.294 63.0344 162.294 65.1617L162.408 255.923Z" fill="#455A64"/>
<path d="M268.448 347.151C269.613 347.642 270.871 347.876 272.135 347.835C273.399 347.794 274.639 347.479 275.77 346.913L280.205 344.333C281.348 343.592 282.298 342.59 282.976 341.409C283.655 340.229 284.043 338.904 284.109 337.543V95.6345C284.086 94.6299 283.859 93.6406 283.442 92.7263C283.305 92.4046 283.15 92.091 282.978 91.7871L270.7 98.8708C270.963 99.3318 271.19 99.8122 271.379 100.308C271.675 101.078 271.836 101.893 271.854 102.718V344.65C271.866 346.947 270.372 347.977 268.448 347.151Z" fill="#37474F"/>
<path d="M213.442 294.679C210.048 292.722 207.286 294.317 207.286 298.244C207.4 300.38 208.017 302.459 209.087 304.311C210.157 306.163 211.649 307.737 213.442 308.903C216.837 310.872 219.609 309.277 219.609 305.35C219.496 303.211 218.878 301.129 217.806 299.275C216.734 297.42 215.239 295.845 213.442 294.679Z" stroke="#E6E6E6" stroke-width="1.05263" stroke-miterlimit="10"/>
<path d="M214.324 70.2199C212.886 69.3938 211.71 70.0615 211.71 71.7362C211.761 72.6425 212.024 73.5241 212.478 74.3102C212.932 75.0963 213.564 75.765 214.324 76.2625C215.772 77.0999 216.938 76.4209 216.938 74.7575C216.89 73.8488 216.628 72.9643 216.174 72.1758C215.719 71.3874 215.086 70.7172 214.324 70.2199Z" fill="black"/>
<path d="M224.418 86.13L204.23 74.4747C203.031 73.7731 202.046 74.271 202.046 75.6063C202.097 76.3397 202.322 77.0505 202.702 77.6801C203.081 78.3097 203.605 78.84 204.23 79.2273L224.418 90.86C225.628 91.5502 226.602 91.0637 226.602 89.7284C226.544 88.9996 226.317 88.2943 225.938 87.6694C225.558 87.0444 225.038 86.5172 224.418 86.13Z" fill="black"/>
<path d="M162.409 255.731C162.409 257.858 163.902 259.216 165.803 260.257L263.232 316.587C265.077 317.651 266.627 316.791 266.627 314.652V125.147C266.557 123.98 266.213 122.847 265.623 121.838C265.034 120.83 264.214 119.974 263.232 119.342L165.69 63.0454C163.846 61.9139 162.295 62.8418 162.295 64.9691L162.409 255.731Z" fill="white"/>
<path d="M156.863 35.6611C157.146 33.6356 158.764 32.9001 160.722 34.0316L267.973 95.9743C269.123 96.6923 270.07 97.6937 270.722 98.8824L283 91.7987C282.346 90.6106 281.394 89.6125 280.239 88.9019L172.965 26.9593C171.757 26.346 170.422 26.0264 169.067 26.0264C167.712 26.0264 166.377 26.346 165.169 26.9593L160.642 29.528C159.614 30.2243 158.745 31.1312 158.094 32.1885C157.442 33.2458 157.023 34.4295 156.863 35.6611Z" fill="#37474F"/>
<path d="M261.217 127.568V126.187C261.225 126.059 261.205 125.931 261.158 125.812C261.111 125.693 261.039 125.585 260.945 125.497H260.877C260.73 125.407 260.606 125.588 260.606 125.882V127.274C260.597 127.403 260.616 127.534 260.663 127.655C260.71 127.776 260.783 127.886 260.877 127.975H260.945C261.092 128.043 261.217 127.873 261.217 127.568Z" fill="#6B93C3"/>
<path d="M260.006 126.878V124.468C260.014 124.34 259.994 124.211 259.947 124.092C259.9 123.973 259.828 123.865 259.734 123.777H259.667C259.519 123.687 259.406 123.868 259.406 124.162V126.572C259.396 126.699 259.415 126.827 259.46 126.946C259.505 127.066 259.575 127.174 259.667 127.263H259.734C259.836 127.319 260.006 127.172 260.006 126.878Z" fill="#6B93C3"/>
<path d="M258.796 126.188V122.793C258.806 122.666 258.788 122.538 258.743 122.419C258.698 122.299 258.627 122.192 258.536 122.103H258.457C258.31 122.012 258.197 122.193 258.197 122.487V125.882C258.187 126.011 258.205 126.14 258.25 126.261C258.295 126.382 258.365 126.492 258.457 126.584H258.536C258.706 126.651 258.796 126.482 258.796 126.188Z" fill="#6B93C3"/>
<path d="M257.574 125.474V119.579C257.583 119.452 257.565 119.324 257.52 119.205C257.475 119.085 257.405 118.978 257.313 118.889H257.234C257.087 118.809 256.974 118.979 256.974 119.285V125.169C256.965 125.299 256.984 125.429 257.031 125.55C257.078 125.671 257.151 125.781 257.245 125.87H257.313C257.472 125.95 257.574 125.78 257.574 125.474Z" fill="#6B93C3"/>
<path d="M254.326 123.993C254.326 123.993 254.326 123.913 254.326 123.812V122.952L255.673 123.732C255.752 123.732 255.786 123.732 255.786 123.619V123.302C255.793 123.246 255.793 123.189 255.786 123.133C255.786 123.133 255.786 123.031 255.786 122.963L254.349 119.036L254.281 118.889C254.255 118.851 254.22 118.82 254.179 118.799L253.998 118.686C253.998 118.686 253.896 118.686 253.874 118.686C253.855 118.748 253.855 118.815 253.874 118.878V121.899L253.58 121.729C253.58 121.729 253.478 121.729 253.455 121.729C253.439 121.793 253.439 121.859 253.455 121.922V122.126C253.44 122.196 253.44 122.27 253.455 122.341C253.48 122.398 253.524 122.446 253.58 122.476L253.874 122.646V123.517C253.855 123.588 253.855 123.662 253.874 123.732C253.884 123.762 253.901 123.79 253.922 123.813C253.944 123.836 253.97 123.855 253.998 123.868L254.225 123.993C254.225 123.993 254.293 124.027 254.326 123.993ZM254.326 122.159V120.009L255.311 122.725L254.326 122.159Z" fill="#6B93C3"/>
<path d="M252.707 122.543C253.035 122.016 253.178 121.395 253.114 120.778C253.139 120.003 253 119.232 252.707 118.515C252.495 117.95 252.095 117.474 251.575 117.168C251.409 117.065 251.225 116.996 251.032 116.965C250.89 116.929 250.74 116.949 250.613 117.021C250.607 117.034 250.604 117.047 250.604 117.061C250.604 117.075 250.607 117.088 250.613 117.1C250.609 117.134 250.609 117.168 250.613 117.202L250.738 117.644C250.738 117.644 250.738 117.734 250.794 117.745C250.851 117.757 250.794 117.745 250.851 117.745C250.966 117.709 251.088 117.699 251.208 117.716C251.327 117.734 251.441 117.779 251.541 117.847C251.893 118.066 252.16 118.397 252.299 118.786C252.507 119.308 252.603 119.867 252.582 120.427C252.631 120.89 252.536 121.356 252.311 121.763C252.13 121.978 251.892 122 251.575 121.763C251.457 121.691 251.343 121.612 251.236 121.525C251.14 121.435 251.052 121.337 250.975 121.231V119.828L251.541 120.144C251.598 120.144 251.632 120.144 251.654 120.144C251.672 120.081 251.672 120.015 251.654 119.952V119.76C251.669 119.685 251.669 119.608 251.654 119.533C251.629 119.482 251.59 119.438 251.541 119.409L250.636 118.888C250.576 118.888 250.53 118.888 250.5 118.888C250.483 118.963 250.483 119.04 250.5 119.115V121.118C250.493 121.178 250.493 121.238 250.5 121.299C250.509 121.347 250.528 121.394 250.557 121.434C250.812 121.873 251.179 122.236 251.62 122.487C252.073 122.871 252.446 122.849 252.707 122.543Z" fill="#6B93C3"/>
<path d="M166.504 68.0922C166.662 67.8659 166.855 67.798 167.047 67.9112L171.098 70.2535C171.316 70.4643 171.485 70.7207 171.593 71.0043C171.7 71.288 171.744 71.5919 171.72 71.8943V74.927C171.738 75.264 171.655 75.5987 171.483 75.8888C171.432 75.9761 171.358 76.0469 171.268 76.0925C171.219 76.1192 171.165 76.1333 171.109 76.1333C171.054 76.1333 170.999 76.1192 170.951 76.0925L166.9 73.7614C166.682 73.5502 166.514 73.2938 166.406 73.0102C166.299 72.7267 166.255 72.423 166.277 72.1207V69.0541C166.26 68.7185 166.339 68.385 166.504 68.0922ZM171.336 75.5041C171.404 75.3635 171.436 75.2076 171.426 75.0514V72.0188C171.44 71.7895 171.405 71.5599 171.323 71.3453C171.241 71.1306 171.114 70.9359 170.951 70.7741L166.9 68.477C166.874 68.4631 166.845 68.4558 166.815 68.4558C166.785 68.4558 166.756 68.4631 166.73 68.477C166.704 68.4691 166.677 68.4691 166.651 68.477C166.591 68.616 166.564 68.767 166.572 68.9183V71.9509C166.556 72.1804 166.591 72.4104 166.673 72.6253C166.755 72.8401 166.883 73.0347 167.047 73.1956L171.098 75.538C171.204 75.5984 171.283 75.5871 171.336 75.5041Z" fill="#6B93C3"/>
<path d="M168.777 70.0615V73.6486L170.961 74.916H171.029V72.0984C171.039 71.9278 171.013 71.7571 170.952 71.5972C170.892 71.4374 170.799 71.292 170.679 71.1705L168.777 70.0615Z" fill="#6B93C3"/>
<path d="M166.074 68.9518C165.927 68.8726 165.803 69.3026 165.803 69.9249V70.4907C165.758 70.9457 165.853 71.4033 166.074 71.8034L166.346 71.9844V69.1215L166.074 68.9518Z" fill="#6B93C3"/>
<path d="M244.968 117.633C244.962 117.951 245.029 118.267 245.165 118.555C245.3 118.844 245.5 119.097 245.749 119.296C246.19 119.545 246.541 119.206 246.541 118.538C246.546 118.218 246.477 117.902 246.34 117.613C246.202 117.325 246 117.072 245.749 116.875C245.319 116.626 244.968 116.965 244.968 117.633Z" fill="#6B93C3"/>
<path d="M245.749 114.872C246.67 115.534 247.321 116.506 247.582 117.61C247.65 117.848 247.582 118.085 247.491 118.165C247.344 118.255 247.129 118.063 247.039 117.757C246.852 116.976 246.395 116.287 245.749 115.811C245.64 115.733 245.515 115.683 245.383 115.664C245.251 115.645 245.117 115.659 244.991 115.703C244.865 115.748 244.752 115.822 244.662 115.919C244.571 116.017 244.505 116.135 244.47 116.264C244.379 116.479 244.153 116.411 244.006 116.15C243.95 116.052 243.914 115.943 243.901 115.83C243.887 115.718 243.896 115.603 243.927 115.494C243.97 115.306 244.06 115.132 244.189 114.989C244.318 114.845 244.482 114.737 244.664 114.675C244.847 114.613 245.042 114.598 245.232 114.632C245.422 114.667 245.6 114.749 245.749 114.872Z" fill="#6B93C3"/>
<path d="M245.749 112.959C247.112 113.932 248.102 115.341 248.555 116.953C248.646 117.214 248.623 117.474 248.487 117.553C248.351 117.644 248.136 117.463 248.035 117.168C247.677 115.851 246.878 114.697 245.771 113.898C245.588 113.768 245.378 113.681 245.157 113.642C244.936 113.603 244.709 113.614 244.492 113.673C244.276 113.733 244.075 113.84 243.905 113.986C243.735 114.133 243.599 114.315 243.508 114.521C243.406 114.702 243.203 114.645 243.056 114.385C242.997 114.283 242.96 114.17 242.948 114.053C242.937 113.936 242.95 113.817 242.988 113.706C243.102 113.459 243.27 113.239 243.478 113.064C243.687 112.888 243.931 112.76 244.194 112.689C244.457 112.618 244.733 112.605 245.001 112.652C245.27 112.698 245.525 112.803 245.749 112.959Z" fill="#6B93C3"/>
<path d="M218.524 103.182C218.514 103.234 218.514 103.288 218.524 103.34C218.538 103.389 218.571 103.429 218.614 103.454L218.818 103.578C218.832 103.586 218.848 103.59 218.863 103.59C218.879 103.59 218.895 103.586 218.909 103.578C218.923 103.538 218.923 103.494 218.909 103.454V99.3234L219.701 100.704C219.701 100.704 219.769 100.794 219.803 100.806C219.816 100.814 219.832 100.818 219.848 100.818C219.864 100.818 219.879 100.814 219.893 100.806L220.006 100.636C220.024 100.592 220.024 100.544 220.006 100.5C220.017 100.444 220.017 100.387 220.006 100.33L218.965 98.4973C218.944 98.4627 218.918 98.432 218.886 98.4068H218.807L218.603 98.2937C218.591 98.2825 218.575 98.2764 218.558 98.2764C218.541 98.2764 218.525 98.2825 218.513 98.2937C218.5 98.3341 218.5 98.3777 218.513 98.4181L218.524 103.182Z" fill="#6B93C3"/>
<path d="M217.379 99.1767C217.365 99.1648 217.347 99.1582 217.328 99.1582C217.309 99.1582 217.291 99.1648 217.277 99.1767C217.262 99.2169 217.262 99.261 217.277 99.3012V99.7991C217.266 99.8552 217.266 99.9128 217.277 99.9688C217.277 99.9688 217.334 100.059 217.379 100.082L217.707 100.263C217.719 100.274 217.736 100.28 217.752 100.28C217.769 100.28 217.785 100.274 217.798 100.263C217.811 100.223 217.811 100.179 217.798 100.139V99.6407C217.808 99.5846 217.808 99.527 217.798 99.471C217.78 99.4247 217.748 99.3852 217.707 99.3578L217.379 99.1767ZM217.379 101.813C217.365 101.801 217.347 101.795 217.328 101.795C217.309 101.795 217.291 101.801 217.277 101.813C217.262 101.854 217.262 101.898 217.277 101.938V102.424C217.266 102.48 217.266 102.538 217.277 102.594C217.298 102.642 217.334 102.681 217.379 102.707L217.707 102.9C217.719 102.911 217.736 102.917 217.752 102.917C217.769 102.917 217.785 102.911 217.798 102.9C217.812 102.859 217.812 102.815 217.798 102.775V102.277C217.808 102.221 217.808 102.164 217.798 102.108C217.777 102.063 217.746 102.024 217.707 101.994L217.379 101.813Z" fill="#6B93C3"/>
<path d="M214.981 101.292C214.994 101.303 215.01 101.31 215.026 101.31C215.043 101.31 215.059 101.303 215.072 101.292C215.086 101.252 215.086 101.208 215.072 101.168V100.161L216.611 101.043C216.611 101.043 216.611 101.043 216.701 101.043C216.714 101.007 216.714 100.967 216.701 100.93V100.659C216.705 100.556 216.681 100.455 216.633 100.364L215.094 96.3587C215.071 96.2951 215.041 96.2344 215.004 96.1776C214.982 96.1335 214.946 96.0977 214.902 96.0758L214.71 95.9626C214.697 95.9515 214.681 95.9453 214.664 95.9453C214.648 95.9453 214.632 95.9515 214.619 95.9626C214.609 95.9818 214.604 96.0032 214.604 96.0248C214.604 96.0465 214.609 96.0678 214.619 96.0871V99.2215L214.2 98.9839C214.188 98.9728 214.172 98.9666 214.155 98.9666C214.138 98.9666 214.122 98.9728 214.11 98.9839C214.097 99.0244 214.097 99.0679 214.11 99.1084V99.38C214.099 99.436 214.099 99.4936 214.11 99.5497C214.131 99.5941 214.162 99.633 214.2 99.6629L214.619 99.9005V100.93C214.604 100.986 214.604 101.044 214.619 101.1C214.637 101.146 214.668 101.186 214.71 101.213L214.981 101.292ZM215.106 99.4592V97.3431L216.169 100.07L215.106 99.4592Z" fill="#6B93C3"/>
<path d="M213.284 99.0865L213.216 99.2789C213.187 99.3405 213.14 99.3917 213.081 99.426C213.007 99.4494 212.928 99.4494 212.854 99.426C212.719 99.3979 212.589 99.3482 212.469 99.2789C212.37 99.2105 212.275 99.1348 212.187 99.0526C212.092 98.959 212.012 98.8523 211.949 98.7357C211.878 98.6158 211.825 98.4862 211.791 98.351C211.744 98.2008 211.721 98.0443 211.723 97.887C211.72 97.7603 211.74 97.6341 211.779 97.5136C211.779 97.4231 211.87 97.3552 211.938 97.3326C212.015 97.3096 212.098 97.3096 212.175 97.3326C212.278 97.3615 212.377 97.4033 212.469 97.457L212.877 97.6947C212.882 97.7017 212.889 97.7074 212.897 97.7113C212.905 97.7153 212.913 97.7173 212.922 97.7173C212.931 97.7173 212.94 97.7153 212.947 97.7113C212.955 97.7074 212.962 97.7017 212.967 97.6947C212.976 97.6772 212.981 97.6578 212.981 97.6381C212.981 97.6184 212.976 97.599 212.967 97.5815V97.3099C212.973 97.2648 212.973 97.2193 212.967 97.1742V97.0384L212.085 95.0807L213.488 95.8842C213.502 95.8961 213.52 95.9027 213.539 95.9027C213.557 95.9027 213.575 95.8961 213.59 95.8842C213.603 95.8437 213.603 95.8002 213.59 95.7597V95.4881C213.6 95.432 213.6 95.3744 213.59 95.3184C213.568 95.2709 213.533 95.2314 213.488 95.2052L211.576 94.0736C211.56 94.0657 211.542 94.0615 211.525 94.0615C211.507 94.0615 211.489 94.0657 211.474 94.0736C211.459 94.1138 211.459 94.1579 211.474 94.1981V94.5036C211.468 94.5487 211.468 94.5943 211.474 94.6394C211.491 94.6978 211.514 94.7546 211.542 94.8091L212.311 96.7668C212.176 96.6891 212.025 96.6426 211.87 96.631C211.807 96.624 211.744 96.6294 211.684 96.6469C211.624 96.6643 211.568 96.6936 211.519 96.7328C211.411 96.8298 211.332 96.9553 211.293 97.0949C211.238 97.2862 211.211 97.4844 211.213 97.6834C211.213 97.9321 211.247 98.1796 211.315 98.4189C211.369 98.6492 211.457 98.8704 211.576 99.0752C211.677 99.2736 211.807 99.4564 211.96 99.6184C212.092 99.7719 212.249 99.902 212.424 100.003C212.596 100.113 212.789 100.186 212.99 100.218C213.129 100.238 213.27 100.206 213.386 100.128C213.493 100.063 213.573 99.963 213.612 99.8447C213.662 99.7028 213.689 99.5538 213.692 99.4034C213.702 99.3587 213.702 99.3123 213.692 99.2676C213.678 99.2316 213.654 99.2002 213.624 99.177L213.397 99.0413C213.385 99.0301 213.369 99.024 213.352 99.024C213.335 99.024 213.319 99.0301 213.307 99.0413C213.296 99.0546 213.289 99.07 213.284 99.0865Z" fill="#6B93C3"/>
<path d="M233.585 163.971V139.766C233.605 139.426 233.704 139.095 233.875 138.8C234.046 138.505 234.284 138.255 234.57 138.069L234.83 137.922C235.135 137.766 235.472 137.685 235.815 137.685C236.157 137.685 236.494 137.766 236.799 137.922L257.812 150.064C258.099 150.249 258.337 150.499 258.508 150.794C258.679 151.089 258.778 151.42 258.797 151.761V175.977C258.78 176.318 258.682 176.65 258.511 176.945C258.34 177.24 258.1 177.49 257.812 177.674L257.552 177.833C257.247 177.989 256.91 178.07 256.568 178.07C256.225 178.07 255.888 177.989 255.583 177.833L234.57 165.691C234.281 165.503 234.041 165.249 233.87 164.95C233.699 164.65 233.601 164.315 233.585 163.971Z" fill="#B30000"/>
<path d="M234.569 139.144L255.582 151.285C255.868 151.471 256.106 151.722 256.277 152.017C256.448 152.312 256.547 152.643 256.566 152.983V177.244C256.566 177.866 256.125 178.127 255.582 177.81L234.569 165.668C234.283 165.482 234.045 165.232 233.874 164.937C233.703 164.642 233.603 164.311 233.584 163.97V139.766C233.584 139.087 234.025 138.838 234.569 139.144Z" fill="#B30000"/>
<path opacity="0.7" d="M233.607 139.529C233.675 139.042 234.082 138.861 234.569 139.144L255.582 151.286C255.87 151.468 256.111 151.717 256.284 152.01L258.547 150.732C258.387 150.432 258.149 150.181 257.857 150.007L236.843 137.854C236.536 137.706 236.2 137.629 235.859 137.629C235.518 137.629 235.181 137.706 234.874 137.854L234.614 138.013C234.347 138.179 234.12 138.4 233.946 138.662C233.772 138.923 233.657 139.219 233.607 139.529Z" fill="white"/>
<path opacity="0.2" d="M255.81 177.912C256.089 178.017 256.388 178.062 256.686 178.044C256.984 178.027 257.275 177.947 257.541 177.81L257.812 177.663C258.098 177.477 258.336 177.227 258.507 176.932C258.678 176.637 258.777 176.306 258.797 175.966V151.705C258.785 151.36 258.684 151.025 258.503 150.731L256.24 152.01C256.412 152.306 256.509 152.641 256.522 152.983V177.244C256.568 177.787 256.251 178.048 255.81 177.912Z" fill="black"/>
<path d="M245.126 154.929C246.207 155.704 247.091 156.722 247.706 157.902C248.322 159.081 248.651 160.389 248.668 161.719C248.668 164.321 247.072 165.521 245.126 164.389C244.045 163.614 243.161 162.596 242.546 161.417C241.931 160.237 241.601 158.93 241.584 157.6C241.539 154.997 243.123 153.798 245.126 154.929Z" fill="white"/>
<path d="M251.814 155.45L250.219 154.533V155.337L251.814 156.253V155.45Z" fill="white"/>
<path d="M237.693 148.819L240.715 150.561C241.28 150.89 241.744 150.561 241.744 149.769C241.744 148.977 242.208 148.638 242.785 148.989L247.312 151.636C247.63 151.86 247.89 152.157 248.071 152.501C248.252 152.845 248.349 153.228 248.353 153.617C248.359 154.004 248.456 154.384 248.635 154.728C248.813 155.072 249.069 155.369 249.383 155.597L252.404 157.34C252.718 157.566 252.975 157.863 253.154 158.207C253.333 158.551 253.429 158.932 253.434 159.32V170.817C253.434 171.586 252.97 171.948 252.404 171.609L237.693 163.077C237.379 162.85 237.122 162.553 236.943 162.209C236.764 161.865 236.668 161.484 236.664 161.096V149.543C236.664 148.819 237.128 148.423 237.693 148.819ZM245.128 165.521C247.549 166.924 249.53 165.43 249.53 162.194C249.53 158.958 247.549 155.178 245.128 153.775C242.706 152.372 240.715 153.866 240.715 157.102C240.715 160.338 242.65 164.118 245.128 165.521ZM240.601 153.458C240.918 153.639 241.167 153.458 241.167 153.028C241.173 152.808 241.124 152.589 241.026 152.392C240.927 152.195 240.781 152.025 240.601 151.897C240.296 151.716 240.036 151.897 240.036 152.327C240.025 152.541 240.064 152.755 240.151 152.951C240.237 153.148 240.368 153.321 240.534 153.458H240.601Z" fill="white"/>
<path d="M233.585 238.214V213.987C233.605 213.647 233.704 213.316 233.875 213.021C234.046 212.726 234.284 212.475 234.57 212.29L234.83 212.143C235.135 211.987 235.472 211.905 235.815 211.905C236.157 211.905 236.494 211.987 236.799 212.143L257.812 224.284C258.1 224.468 258.34 224.718 258.511 225.013C258.682 225.309 258.78 225.641 258.797 225.982V250.231C258.778 250.572 258.679 250.903 258.508 251.198C258.337 251.493 258.099 251.744 257.812 251.929L257.552 252.087C257.245 252.236 256.909 252.313 256.568 252.313C256.227 252.313 255.89 252.236 255.583 252.087L234.57 239.945C234.28 239.756 234.039 239.5 233.867 239.199C233.696 238.898 233.599 238.56 233.585 238.214Z" fill="#B30000"/>
<path d="M234.569 213.421L255.582 225.563C255.868 225.749 256.106 225.999 256.277 226.294C256.448 226.589 256.547 226.92 256.566 227.26V251.521C256.566 252.144 256.125 252.393 255.582 252.087L234.569 239.945C234.283 239.759 234.045 239.509 233.874 239.214C233.703 238.919 233.603 238.588 233.584 238.248V213.987C233.584 213.319 234.025 213.115 234.569 213.421Z" fill="#37474F"/>
<path d="M233.607 213.805C233.675 213.319 234.082 213.138 234.569 213.421L255.582 225.563C255.87 225.745 256.111 225.993 256.284 226.287L258.547 225.008C258.387 224.708 258.149 224.458 257.857 224.284L236.798 212.187C236.491 212.039 236.154 211.962 235.813 211.962C235.473 211.962 235.136 212.039 234.829 212.187L234.569 212.346C234.317 212.51 234.102 212.725 233.936 212.976C233.771 213.227 233.659 213.509 233.607 213.805Z" fill="#293C45"/>
<path d="M255.81 252.177C256.089 252.282 256.388 252.327 256.686 252.309C256.984 252.292 257.275 252.212 257.541 252.075L257.812 251.928C258.098 251.742 258.336 251.492 258.507 251.197C258.678 250.902 258.777 250.571 258.797 250.231V225.981C258.785 225.637 258.684 225.301 258.503 225.008L256.24 226.287C256.412 226.583 256.509 226.917 256.522 227.26V251.509C256.568 252.053 256.251 252.313 255.81 252.177Z" fill="#293C45"/>
<path d="M236.526 230.179C236.567 230.167 236.61 230.167 236.651 230.179L238.292 230.089C238.327 230.09 238.362 230.084 238.395 230.072C238.428 230.06 238.458 230.041 238.483 230.016C238.508 229.992 238.529 229.963 238.542 229.931C238.556 229.898 238.563 229.863 238.563 229.828C238.563 229.568 238.563 229.308 238.563 229.059C238.54 228.788 238.54 228.515 238.563 228.244C238.556 228.067 238.493 227.896 238.382 227.757L236.549 225.551C236.495 225.49 236.457 225.417 236.439 225.338C236.421 225.259 236.424 225.176 236.447 225.098L237.307 223.175C237.303 223.156 237.303 223.137 237.307 223.118C237.358 223.105 237.412 223.107 237.462 223.123C237.511 223.139 237.556 223.169 237.59 223.209L239.536 224.985C239.59 225.043 239.661 225.083 239.738 225.097C239.816 225.111 239.896 225.1 239.966 225.064C240.214 224.853 240.498 224.688 240.804 224.578C240.869 224.551 240.924 224.503 240.958 224.441C240.993 224.38 241.007 224.308 240.996 224.238L240.396 221.5C240.386 221.464 240.389 221.425 240.403 221.39C240.417 221.355 240.443 221.326 240.476 221.307C240.535 221.295 240.597 221.295 240.657 221.307L242.569 221.5C242.657 221.512 242.742 221.545 242.814 221.596C242.887 221.647 242.947 221.715 242.988 221.794L244.017 224.566C244.109 224.744 244.256 224.887 244.436 224.974C244.83 225.17 245.209 225.397 245.568 225.653C245.737 225.766 245.907 225.766 245.986 225.653L246.96 224.159C247.027 224.057 247.186 224.08 247.31 224.159L249.404 226.422C249.464 226.483 249.51 226.555 249.54 226.636C249.569 226.716 249.581 226.801 249.574 226.886L248.985 228.855C248.959 229.021 248.996 229.19 249.087 229.33C249.441 229.871 249.766 230.43 250.06 231.005C250.161 231.173 250.323 231.295 250.513 231.345L252.301 231.775C252.389 231.798 252.472 231.84 252.542 231.899C252.613 231.957 252.669 232.031 252.708 232.114L253.613 235.158C253.613 235.294 253.613 235.418 253.387 235.43L251.746 235.52C251.711 235.519 251.676 235.524 251.643 235.537C251.61 235.549 251.58 235.568 251.555 235.592C251.529 235.617 251.509 235.646 251.495 235.678C251.482 235.71 251.475 235.745 251.475 235.78C251.526 236.307 251.526 236.838 251.475 237.365C251.479 237.543 251.542 237.714 251.656 237.851L253.477 240.058C253.534 240.119 253.574 240.194 253.593 240.275C253.613 240.356 253.612 240.441 253.591 240.522L252.731 242.434C252.735 242.453 252.735 242.472 252.731 242.491H252.651C252.57 242.484 252.493 242.448 252.436 242.389L250.49 240.612C250.437 240.554 250.366 240.515 250.288 240.5C250.211 240.486 250.131 240.498 250.06 240.533C249.813 240.744 249.529 240.909 249.223 241.02C249.156 241.045 249.1 241.093 249.065 241.155C249.03 241.217 249.018 241.289 249.03 241.359L249.63 244.097C249.642 244.132 249.64 244.17 249.625 244.203C249.611 244.237 249.584 244.264 249.551 244.279C249.491 244.291 249.43 244.291 249.37 244.279L247.457 244.086C247.369 244.074 247.285 244.041 247.212 243.99C247.139 243.939 247.08 243.871 247.039 243.792L246.009 241.02C245.918 240.842 245.771 240.699 245.59 240.612C245.38 240.52 245.176 240.414 244.979 240.295L244.414 239.933C244.255 239.82 244.074 239.82 244.006 239.933L243.022 241.427C242.968 241.446 242.909 241.447 242.854 241.431C242.799 241.415 242.751 241.382 242.716 241.336L240.623 239.073C240.561 239.014 240.514 238.941 240.487 238.861C240.459 238.78 240.452 238.694 240.464 238.609L241.041 236.64C241.067 236.475 241.031 236.306 240.94 236.165C240.585 235.627 240.263 235.068 239.978 234.49C239.87 234.324 239.705 234.203 239.514 234.151L237.726 233.721C237.637 233.699 237.553 233.658 237.483 233.599C237.412 233.54 237.356 233.465 237.319 233.381L236.413 230.349C236.418 230.314 236.43 230.28 236.45 230.25C236.469 230.221 236.496 230.197 236.526 230.179ZM246.088 237.602H246.201H246.258H246.428H246.812C247.198 237.604 247.575 237.489 247.894 237.273C248.213 237.057 248.459 236.75 248.6 236.391C248.74 236.071 248.831 235.732 248.872 235.384C248.884 235.2 248.884 235.014 248.872 234.83C248.757 232.798 247.918 230.876 246.507 229.41C246.079 228.968 245.591 228.587 245.059 228.278C244.905 228.19 244.746 228.11 244.583 228.04C244.159 227.841 243.694 227.74 243.225 227.746H242.999C242.668 227.797 242.356 227.934 242.094 228.142C241.833 228.35 241.629 228.623 241.505 228.934C240.691 230.722 241.619 233.857 243.576 235.916C244.238 236.704 245.109 237.288 246.088 237.602Z" fill="white"/>
<path d="M245.681 235.668H246.122C246.363 235.684 246.603 235.622 246.807 235.492C247.011 235.362 247.167 235.17 247.254 234.944C247.337 234.753 247.39 234.551 247.412 234.344C247.412 234.231 247.412 234.118 247.412 234.005C247.339 232.787 246.834 231.635 245.986 230.757C245.738 230.48 245.447 230.244 245.126 230.055L244.832 229.908C244.58 229.781 244.3 229.719 244.017 229.727H243.882C243.684 229.755 243.497 229.835 243.34 229.958C243.183 230.081 243.062 230.243 242.988 230.429C242.501 231.504 243.056 233.382 244.232 234.616C244.607 235.095 245.109 235.459 245.681 235.668Z" fill="white"/>
<path d="M169.232 126.832V102.571C169.25 102.232 169.349 101.902 169.52 101.609C169.692 101.316 169.93 101.068 170.216 100.885L170.477 100.726C170.781 100.571 171.119 100.489 171.461 100.489C171.803 100.489 172.141 100.571 172.445 100.726L193.47 112.868C193.753 113.057 193.987 113.308 194.156 113.603C194.325 113.897 194.423 114.227 194.443 114.566V138.815C194.427 139.156 194.329 139.488 194.157 139.784C193.986 140.079 193.747 140.329 193.459 140.513L193.199 140.671C192.896 140.827 192.56 140.908 192.22 140.908C191.879 140.908 191.544 140.827 191.241 140.671L170.216 128.529C169.931 128.344 169.693 128.093 169.521 127.798C169.35 127.503 169.251 127.172 169.232 126.832Z" fill="#B30000"/>
<path d="M170.217 102.005L191.242 114.147C191.524 114.336 191.759 114.587 191.928 114.881C192.097 115.176 192.195 115.506 192.215 115.845V140.106C192.215 140.728 191.774 140.988 191.242 140.671L170.217 128.53C169.931 128.344 169.693 128.093 169.522 127.798C169.351 127.503 169.252 127.173 169.232 126.832V102.571C169.232 101.949 169.674 101.7 170.217 102.005Z" fill="#B30000"/>
<path opacity="0.45" d="M170.217 102.005L191.242 114.147C191.524 114.336 191.759 114.587 191.928 114.881C192.097 115.176 192.195 115.506 192.215 115.845V140.106C192.215 140.728 191.774 140.988 191.242 140.671L170.217 128.53C169.931 128.344 169.693 128.093 169.522 127.798C169.351 127.503 169.252 127.173 169.232 126.832V102.571C169.232 101.949 169.674 101.7 170.217 102.005Z" fill="black"/>
<path opacity="0.35" d="M169.253 102.424C169.321 101.938 169.729 101.757 170.215 102.04L191.229 114.182C191.517 114.364 191.757 114.612 191.93 114.906L194.193 113.627C194.034 113.327 193.795 113.077 193.503 112.903L172.49 100.75C172.183 100.601 171.846 100.524 171.505 100.524C171.164 100.524 170.828 100.601 170.521 100.75L170.26 100.908C169.994 101.074 169.766 101.295 169.592 101.557C169.419 101.819 169.303 102.114 169.253 102.424Z" fill="black"/>
<path opacity="0.55" d="M191.456 140.773C191.736 140.878 192.034 140.923 192.332 140.906C192.631 140.888 192.922 140.808 193.187 140.671L193.459 140.524C193.745 140.338 193.983 140.088 194.154 139.793C194.325 139.498 194.424 139.167 194.443 138.827V114.566C194.432 114.221 194.33 113.886 194.149 113.593L191.886 114.871C192.059 115.168 192.156 115.502 192.169 115.845V140.106C192.214 140.649 191.943 140.898 191.456 140.773Z" fill="black"/>
<path d="M188.66 120.371L181.135 124.762C180.886 124.898 180.558 124.705 180.32 124.287L172.795 111.217V123.087C172.789 123.36 172.846 123.631 172.961 123.879C173.077 124.126 173.249 124.343 173.463 124.513L187.981 132.898C188.355 133.113 188.66 132.819 188.66 132.253V120.371Z" fill="white"/>
<path d="M181.124 122.997L188.66 118.878L172.818 109.712L180.354 122.533C180.558 122.94 180.886 123.132 181.124 122.997Z" fill="white"/>
<path d="M201.413 145.424V121.129C201.431 120.79 201.528 120.459 201.697 120.164C201.866 119.869 202.102 119.618 202.387 119.432L202.658 119.273C202.964 119.127 203.298 119.051 203.637 119.051C203.976 119.051 204.31 119.127 204.616 119.273L225.641 131.415C225.926 131.601 226.164 131.852 226.335 132.146C226.506 132.441 226.606 132.772 226.625 133.113V157.374C226.608 157.713 226.511 158.044 226.342 158.339C226.172 158.634 225.936 158.885 225.652 159.071L225.38 159.229C225.075 159.376 224.74 159.452 224.401 159.452C224.063 159.452 223.728 159.376 223.423 159.229L202.398 147.088C202.116 146.906 201.88 146.661 201.709 146.372C201.538 146.083 201.437 145.759 201.413 145.424Z" fill="#B30000"/>
<path d="M202.385 120.529L223.41 132.671C223.696 132.857 223.934 133.107 224.105 133.402C224.276 133.697 224.375 134.028 224.395 134.368V158.663C224.395 159.286 223.953 159.535 223.41 159.229L202.385 147.087C202.101 146.901 201.865 146.65 201.696 146.355C201.527 146.06 201.429 145.73 201.412 145.39V121.129C201.412 120.529 201.842 120.246 202.385 120.529Z" fill="#B30000"/>
<path opacity="0.5" d="M202.385 120.529L223.41 132.671C223.696 132.857 223.934 133.107 224.105 133.402C224.276 133.697 224.375 134.028 224.395 134.368V158.663C224.395 159.286 223.953 159.535 223.41 159.229L202.385 147.087C202.101 146.901 201.865 146.65 201.696 146.355C201.527 146.06 201.429 145.73 201.412 145.39V121.129C201.412 120.529 201.842 120.246 202.385 120.529Z" fill="white"/>
<path opacity="0.8" d="M201.435 120.948C201.503 120.461 201.91 120.28 202.397 120.563L223.41 132.705C223.698 132.887 223.939 133.136 224.112 133.429L226.375 132.151C226.216 131.851 225.977 131.6 225.685 131.426L204.671 119.273C204.364 119.125 204.028 119.048 203.687 119.048C203.346 119.048 203.009 119.125 202.702 119.273L202.442 119.432C202.176 119.598 201.948 119.819 201.774 120.08C201.6 120.342 201.485 120.638 201.435 120.948Z" fill="white"/>
<path opacity="0.6" d="M223.626 159.32C223.906 159.424 224.204 159.47 224.502 159.452C224.801 159.435 225.092 159.355 225.357 159.218L225.629 159.071C225.915 158.885 226.153 158.634 226.324 158.339C226.495 158.045 226.594 157.714 226.613 157.373V133.124C226.602 132.779 226.5 132.444 226.319 132.15L224.056 133.429C224.228 133.725 224.326 134.06 224.339 134.402V158.652C224.395 159.195 224.079 159.455 223.626 159.32Z" fill="white"/>
<path d="M209.605 144.293C208.063 141.77 207.213 138.886 207.138 135.931C207.138 131.031 210.092 128.756 213.735 130.861C217.379 132.966 220.344 138.658 220.344 143.557C220.344 148.457 217.379 150.732 213.735 148.627C213.09 148.248 212.494 147.792 211.959 147.269C211.551 147.959 210.397 149.295 208.1 147.427C208.1 147.394 209.345 146.782 209.605 144.293Z" fill="#F8F9FC"/>
<path d="M233.585 201.109V176.848C233.605 176.508 233.704 176.177 233.875 175.882C234.046 175.587 234.284 175.337 234.57 175.151L234.83 175.004C235.135 174.848 235.472 174.767 235.815 174.767C236.157 174.767 236.494 174.848 236.799 175.004L257.812 187.146C258.099 187.331 258.337 187.581 258.508 187.876C258.679 188.171 258.778 188.503 258.797 188.843V213.093C258.778 213.433 258.679 213.765 258.508 214.06C258.337 214.355 258.099 214.605 257.812 214.79L257.552 214.949C257.245 215.097 256.909 215.174 256.568 215.174C256.227 215.174 255.89 215.097 255.583 214.949L234.57 202.807C234.284 202.621 234.046 202.37 233.875 202.076C233.704 201.781 233.605 201.45 233.585 201.109Z" fill="#B30000"/>
<path d="M234.569 176.283L255.582 188.425C255.868 188.61 256.106 188.861 256.277 189.156C256.448 189.451 256.547 189.782 256.566 190.122V214.383C256.566 215.005 256.125 215.254 255.582 214.949L234.569 202.807C234.283 202.621 234.045 202.371 233.874 202.076C233.703 201.781 233.603 201.45 233.584 201.11V176.848C233.584 176.226 234.025 175.977 234.569 176.283Z" fill="#B30000"/>
<path opacity="0.5" d="M234.569 176.283L255.582 188.425C255.868 188.61 256.106 188.861 256.277 189.156C256.448 189.451 256.547 189.782 256.566 190.122V214.383C256.566 215.005 256.125 215.254 255.582 214.949L234.569 202.807C234.283 202.621 234.045 202.371 233.874 202.076C233.703 201.781 233.603 201.45 233.584 201.11V176.848C233.584 176.226 234.025 175.977 234.569 176.283Z" fill="white"/>
<path opacity="0.8" d="M233.607 176.668C233.675 176.181 234.082 176 234.569 176.283L255.582 188.425C255.87 188.607 256.111 188.855 256.284 189.149L258.547 187.87C258.387 187.57 258.149 187.32 257.857 187.146L236.843 174.993C236.536 174.845 236.2 174.768 235.859 174.768C235.518 174.768 235.181 174.845 234.874 174.993L234.614 175.151C234.347 175.317 234.12 175.539 233.946 175.8C233.772 176.062 233.657 176.358 233.607 176.668Z" fill="white"/>
<path opacity="0.6" d="M255.81 215.051C256.089 215.156 256.388 215.201 256.686 215.183C256.984 215.166 257.275 215.086 257.541 214.949L257.812 214.802C258.098 214.616 258.336 214.365 258.507 214.07C258.678 213.776 258.777 213.445 258.797 213.104V188.843C258.785 188.499 258.684 188.163 258.503 187.87L256.24 189.149C256.412 189.445 256.509 189.779 256.522 190.122V214.383C256.568 214.926 256.251 215.186 255.81 215.051Z" fill="white"/>
<path d="M241.733 198.382C240.499 195.636 239.87 192.657 239.889 189.646C239.285 188.717 238.78 187.727 238.384 186.693C238.898 187.303 239.478 187.853 240.115 188.334C239.475 187.434 239.024 186.414 238.791 185.335C239.342 186.104 239.984 186.803 240.703 187.417C241.029 187.169 241.426 187.035 241.835 187.035C242.244 187.035 242.641 187.169 242.967 187.417C244.006 188.163 244.826 189.173 245.344 190.343C245.861 191.513 246.056 192.8 245.909 194.071C248.421 195.361 250.65 195.044 252.144 193.46C252.936 195.723 252.551 197.884 251.205 198.303C251.618 198.543 252.098 198.646 252.574 198.597C252.574 200.475 251.612 201.652 250.152 201.2C250.544 201.579 251.01 201.872 251.521 202.06C251.473 202.363 251.346 202.648 251.154 202.887C250.963 203.127 250.712 203.312 250.427 203.426C250.142 203.54 249.833 203.579 249.529 203.537C249.225 203.496 248.937 203.377 248.692 203.191C249.732 205.038 251.312 206.522 253.219 207.446C252.427 207.622 251.609 207.636 250.811 207.489C250.014 207.341 249.255 207.034 248.579 206.586C245.508 204.62 243.133 201.738 241.79 198.348" fill="white"/>
<path d="M201.413 182.529V158.268C201.431 157.928 201.528 157.598 201.697 157.303C201.866 157.008 202.102 156.757 202.387 156.57L202.658 156.412C202.964 156.266 203.298 156.189 203.637 156.189C203.976 156.189 204.31 156.266 204.616 156.412L225.641 168.554C225.926 168.74 226.164 168.99 226.335 169.285C226.506 169.58 226.606 169.911 226.625 170.251V194.512C226.608 194.852 226.511 195.182 226.342 195.477C226.172 195.772 225.936 196.023 225.652 196.21L225.38 196.368C225.075 196.515 224.74 196.591 224.401 196.591C224.063 196.591 223.728 196.515 223.423 196.368L202.398 184.226C202.112 184.041 201.873 183.791 201.702 183.496C201.531 183.201 201.432 182.869 201.413 182.529Z" fill="#B30000"/>
<path d="M202.385 157.702L223.41 169.844C223.696 170.029 223.934 170.28 224.105 170.575C224.276 170.87 224.375 171.201 224.395 171.541V195.802C224.395 196.424 223.953 196.673 223.41 196.368L202.385 184.226C202.101 184.039 201.865 183.789 201.696 183.494C201.527 183.199 201.429 182.868 201.412 182.529V158.267C201.412 157.645 201.842 157.385 202.385 157.702Z" fill="#B30000"/>
<path opacity="0.7" d="M201.437 158.087C201.505 157.6 201.912 157.419 202.399 157.702L223.412 169.844C223.7 170.026 223.941 170.274 224.114 170.568L226.377 169.289C226.218 168.989 225.979 168.739 225.687 168.565L204.673 156.412C204.366 156.264 204.03 156.187 203.689 156.187C203.348 156.187 203.011 156.264 202.704 156.412L202.444 156.57C202.178 156.736 201.95 156.958 201.776 157.219C201.602 157.481 201.487 157.777 201.437 158.087Z" fill="white"/>
<path opacity="0.2" d="M223.626 196.458C223.906 196.563 224.204 196.608 224.502 196.591C224.801 196.573 225.092 196.493 225.357 196.356L225.629 196.209C225.915 196.024 226.153 195.773 226.324 195.478C226.495 195.183 226.594 194.852 226.613 194.512V170.319C226.602 169.974 226.5 169.639 226.319 169.346L224.056 170.624C224.228 170.921 224.326 171.255 224.339 171.598V195.847C224.395 196.345 224.079 196.594 223.626 196.458Z" fill="black"/>
<path d="M212.9 169.391C211.033 168.26 210.806 168.192 210.071 167.807C209.675 167.577 209.236 167.43 208.781 167.377C208.489 167.354 208.2 167.439 207.966 167.615C207.716 167.81 207.534 168.079 207.446 168.384C207.288 168.901 207.207 169.439 207.208 169.98C207.208 170.942 207.208 171.236 207.208 173.725C207.208 176.215 207.208 176.509 207.208 177.516C207.222 178.145 207.302 178.771 207.446 179.383C207.563 179.863 207.738 180.326 207.966 180.764C208.185 181.176 208.459 181.557 208.781 181.895C209.158 182.313 209.592 182.675 210.071 182.97C210.806 183.446 211.033 183.581 212.9 184.656C214.767 185.731 214.993 185.856 215.729 186.229C216.125 186.468 216.57 186.614 217.03 186.659C217.317 186.689 217.604 186.608 217.833 186.433C218.082 186.236 218.263 185.967 218.354 185.664C218.511 185.146 218.591 184.609 218.592 184.068C218.592 183.106 218.592 182.812 218.592 180.322C218.592 177.833 218.592 177.527 218.592 176.532C218.577 175.899 218.497 175.27 218.354 174.653C218.123 173.714 217.669 172.845 217.03 172.118C216.647 171.706 216.209 171.348 215.729 171.055C214.993 170.58 214.767 170.444 212.9 169.369M212.9 167.683C214.801 168.814 215.038 168.927 215.785 169.403C216.414 169.793 216.986 170.269 217.483 170.817C217.972 171.355 218.387 171.957 218.716 172.605C219.076 173.277 219.35 173.992 219.531 174.732C219.724 175.533 219.83 176.353 219.848 177.177C219.848 178.195 219.848 178.512 219.848 181.047C219.848 183.581 219.848 183.898 219.848 184.871C219.848 185.574 219.741 186.272 219.531 186.942C219.379 187.393 219.095 187.787 218.716 188.074C218.366 188.346 217.925 188.476 217.483 188.436C216.884 188.38 216.305 188.195 215.785 187.893C215.038 187.508 214.801 187.372 212.9 186.275C210.999 185.177 210.761 185.03 210.014 184.555C208.763 183.774 207.75 182.667 207.083 181.352C206.725 180.683 206.451 179.973 206.269 179.236C206.075 178.431 205.969 177.608 205.952 176.781C205.952 175.774 205.952 175.445 205.952 172.911C205.952 170.376 205.952 170.07 205.952 169.097C205.952 168.391 206.059 167.689 206.269 167.015C206.41 166.544 206.695 166.129 207.083 165.827C207.433 165.553 207.876 165.427 208.317 165.476C208.915 165.532 209.495 165.717 210.014 166.019C210.761 166.404 210.999 166.528 212.9 167.626" fill="white"/>
<path d="M212.899 172.243C213.992 173.028 214.886 174.058 215.509 175.251C216.132 176.444 216.467 177.766 216.486 179.112C216.486 181.748 214.879 182.97 212.899 181.816C211.806 181.033 210.913 180.005 210.29 178.814C209.667 177.623 209.332 176.303 209.312 174.959C209.312 172.311 210.919 171.1 212.899 172.243ZM212.899 180.164C214.189 180.911 215.23 180.164 215.23 178.399C215.219 177.526 215.002 176.669 214.597 175.896C214.192 175.123 213.61 174.457 212.899 173.952C211.609 173.205 210.568 173.952 210.568 175.705C210.58 176.579 210.798 177.438 211.203 178.212C211.607 178.987 212.189 179.655 212.899 180.164Z" fill="white"/>
<path d="M208.327 169.413C208.332 169.728 208.41 170.037 208.555 170.316C208.7 170.595 208.909 170.836 209.165 171.02C209.629 171.28 210.002 171.02 210.002 170.387C209.998 170.072 209.92 169.763 209.774 169.484C209.629 169.205 209.42 168.963 209.165 168.78C208.701 168.508 208.327 168.78 208.327 169.413Z" fill="white"/>
<path d="M169.232 163.971V139.766C169.251 139.426 169.35 139.095 169.521 138.8C169.693 138.505 169.931 138.255 170.216 138.069L170.477 137.922C170.781 137.766 171.119 137.685 171.461 137.685C171.803 137.685 172.141 137.766 172.445 137.922L193.47 150.064C193.754 150.251 193.99 150.502 194.159 150.797C194.328 151.091 194.425 151.422 194.443 151.761V175.977C194.427 176.318 194.329 176.65 194.157 176.945C193.986 177.24 193.747 177.49 193.459 177.674L193.199 177.833C192.896 177.988 192.56 178.07 192.22 178.07C191.879 178.07 191.544 177.988 191.241 177.833L170.216 165.691C169.928 165.503 169.688 165.249 169.516 164.95C169.345 164.65 169.248 164.315 169.232 163.971Z" fill="#B30000"/>
<path d="M170.217 139.144L191.242 151.285C191.524 151.474 191.759 151.725 191.928 152.02C192.097 152.314 192.195 152.644 192.215 152.983V177.244C192.215 177.866 191.774 178.127 191.242 177.81L170.217 165.668C169.931 165.482 169.693 165.232 169.522 164.937C169.351 164.642 169.252 164.311 169.232 163.97V139.766C169.232 139.087 169.674 138.838 170.217 139.144Z" fill="#37474F"/>
<path d="M169.255 139.529C169.323 139.042 169.731 138.861 170.217 139.144L191.231 151.286C191.519 151.468 191.759 151.717 191.932 152.01L194.195 150.732C194.036 150.432 193.797 150.181 193.505 150.007L172.492 137.854C172.185 137.706 171.848 137.629 171.507 137.629C171.166 137.629 170.83 137.706 170.523 137.854L170.262 138.013C169.996 138.179 169.768 138.4 169.594 138.662C169.421 138.923 169.305 139.219 169.255 139.529Z" fill="#293C45"/>
<path d="M191.456 177.912C191.736 178.017 192.034 178.062 192.332 178.044C192.631 178.027 192.922 177.947 193.187 177.81L193.459 177.663C193.745 177.477 193.983 177.227 194.154 176.932C194.325 176.637 194.424 176.306 194.443 175.966V151.705C194.432 151.36 194.33 151.025 194.149 150.731L191.886 152.01C192.059 152.306 192.156 152.641 192.169 152.983V177.244C192.214 177.787 191.943 178.048 191.456 177.912Z" fill="#293C45"/>
<path d="M185.298 174.382L181.904 172.402V160.95L179.493 159.569L179.233 155.586L181.881 157.114V154.93C181.881 154.025 181.745 153.595 181.089 153.21L179.233 152.146V148.163L181.609 149.532C182.782 150.152 183.753 151.093 184.409 152.246C185.064 153.398 185.377 154.714 185.31 156.039V159.094L187.098 160.124V164.005L185.31 162.975L185.298 174.382Z" fill="white"/>
<path d="M201.413 219.656V195.407C201.431 195.067 201.528 194.736 201.697 194.441C201.866 194.146 202.102 193.896 202.387 193.709L202.658 193.551C202.964 193.404 203.298 193.328 203.637 193.328C203.976 193.328 204.31 193.404 204.616 193.551L225.641 205.693C225.926 205.878 226.164 206.129 226.335 206.424C226.506 206.719 226.606 207.05 226.625 207.39V231.651C226.608 231.991 226.511 232.321 226.342 232.616C226.172 232.911 225.936 233.162 225.652 233.348L225.38 233.495C225.078 233.651 224.742 233.733 224.401 233.733C224.061 233.733 223.725 233.651 223.423 233.495L202.398 221.354C202.11 221.171 201.87 220.921 201.698 220.625C201.527 220.33 201.429 219.997 201.413 219.656Z" fill="#B30000"/>
<path d="M202.385 194.84L223.41 206.982C223.696 207.168 223.934 207.419 224.105 207.713C224.276 208.008 224.375 208.339 224.395 208.68V232.929C224.395 233.563 223.953 233.812 223.41 233.495L202.385 221.353C202.099 221.169 201.861 220.918 201.692 220.623C201.523 220.328 201.427 219.996 201.412 219.656V195.406C201.412 194.784 201.842 194.524 202.385 194.84Z" fill="#B30000"/>
<path opacity="0.45" d="M202.385 194.84L223.41 206.982C223.696 207.168 223.934 207.419 224.105 207.713C224.276 208.008 224.375 208.339 224.395 208.68V232.929C224.395 233.563 223.953 233.812 223.41 233.495L202.385 221.353C202.099 221.169 201.861 220.918 201.692 220.623C201.523 220.328 201.427 219.996 201.412 219.656V195.406C201.412 194.784 201.842 194.524 202.385 194.84Z" fill="black"/>
<path opacity="0.35" d="M201.437 195.214C201.505 194.727 201.912 194.546 202.399 194.829L223.412 206.982C223.7 207.165 223.941 207.413 224.114 207.707L226.377 206.428C226.218 206.128 225.979 205.877 225.687 205.704L204.673 193.551C204.366 193.402 204.03 193.325 203.689 193.325C203.348 193.325 203.011 193.402 202.704 193.551L202.444 193.709C202.179 193.874 201.952 194.093 201.778 194.353C201.604 194.612 201.488 194.906 201.437 195.214Z" fill="black"/>
<path opacity="0.55" d="M223.626 233.597C223.906 233.702 224.204 233.747 224.502 233.729C224.801 233.712 225.092 233.632 225.357 233.495L225.629 233.348C225.915 233.162 226.153 232.912 226.324 232.617C226.495 232.322 226.594 231.991 226.613 231.651V207.401C226.602 207.056 226.5 206.721 226.319 206.428L224.056 207.706C224.228 208.003 224.326 208.337 224.339 208.68V232.929C224.395 233.472 224.079 233.687 223.626 233.597Z" fill="black"/>
<path d="M217.572 208.012V221.24C217.97 221.36 218.35 221.531 218.704 221.75C219.413 222.209 220.003 222.831 220.426 223.562C220.849 224.294 221.092 225.115 221.137 225.959C221.137 227.509 220.005 228.132 218.704 227.362C217.919 226.86 217.25 226.197 216.74 225.417C216.231 224.636 215.894 223.757 215.75 222.836V210.717L207.954 206.27V215.798C208.35 215.922 208.73 216.093 209.085 216.307C209.728 216.735 210.249 217.323 210.596 218.014C210.943 218.704 211.105 219.473 211.066 220.245C211.066 221.795 209.934 222.417 208.633 221.636C207.928 221.175 207.34 220.555 206.918 219.826C206.496 219.097 206.25 218.279 206.2 217.438V201.528L217.572 208.012Z" fill="white"/>
<path d="M233.585 275.386V251.125C233.605 250.784 233.704 250.453 233.875 250.159C234.046 249.864 234.284 249.613 234.57 249.427L234.83 249.28C235.135 249.124 235.472 249.043 235.815 249.043C236.157 249.043 236.494 249.124 236.799 249.28L257.812 261.422C258.1 261.606 258.34 261.856 258.511 262.151C258.682 262.446 258.78 262.778 258.797 263.119V287.369C258.777 287.709 258.678 288.04 258.507 288.335C258.336 288.63 258.098 288.881 257.812 289.067L257.552 289.225C257.245 289.373 256.909 289.45 256.568 289.45C256.227 289.45 255.89 289.373 255.583 289.225L234.57 277.083C234.284 276.897 234.046 276.647 233.875 276.352C233.704 276.057 233.605 275.726 233.585 275.386Z" fill="#B30000"/>
<path d="M234.569 250.559L255.582 262.701C255.868 262.887 256.106 263.137 256.277 263.432C256.448 263.727 256.547 264.058 256.566 264.398V288.659C256.566 289.282 256.125 289.531 255.582 289.225L234.569 277.083C234.283 276.897 234.045 276.647 233.874 276.352C233.703 276.057 233.603 275.726 233.584 275.386V251.125C233.584 250.502 234.025 250.254 234.569 250.559Z" fill="#B30000"/>
<path opacity="0.7" d="M233.607 250.944C233.675 250.457 234.082 250.276 234.569 250.559L255.582 262.701C255.87 262.884 256.111 263.132 256.284 263.425L258.547 262.147C258.387 261.847 258.149 261.596 257.857 261.422L236.843 249.269C236.536 249.121 236.2 249.044 235.859 249.044C235.518 249.044 235.181 249.121 234.874 249.269L234.614 249.428C234.347 249.594 234.12 249.815 233.946 250.077C233.772 250.338 233.657 250.634 233.607 250.944Z" fill="white"/>
<path opacity="0.2" d="M255.81 289.316C256.089 289.421 256.388 289.466 256.686 289.449C256.984 289.431 257.275 289.351 257.541 289.214L257.812 289.067C258.098 288.881 258.336 288.631 258.507 288.336C258.678 288.041 258.777 287.71 258.797 287.37V263.109C258.785 262.764 258.684 262.429 258.503 262.136L256.24 263.414C256.412 263.711 256.509 264.045 256.522 264.388V288.637C256.568 289.192 256.251 289.452 255.81 289.316Z" fill="black"/>
<path d="M253.771 266.006V283.817C253.771 284.439 253.33 284.688 252.787 284.383L237.364 275.477C237.078 275.291 236.84 275.041 236.669 274.746C236.498 274.451 236.399 274.12 236.379 273.78V255.969C236.379 255.346 236.82 255.097 237.364 255.403L252.787 264.308C253.073 264.494 253.311 264.745 253.482 265.04C253.653 265.334 253.752 265.665 253.771 266.006ZM237.454 270.758L241.245 268.552L243.406 271.392L241.731 273.293L247.389 269.491L252.776 278.023V265.496L237.533 256.693L237.454 270.758Z" fill="white"/>
<path d="M241.099 262.101C240.42 261.705 239.865 262.033 239.865 262.814C239.888 263.242 240.012 263.659 240.226 264.031C240.44 264.403 240.739 264.718 241.099 264.953C241.778 265.349 242.332 265.032 242.332 264.24C242.307 263.812 242.183 263.396 241.969 263.024C241.755 262.653 241.457 262.337 241.099 262.101Z" fill="white"/>
<path d="M201.413 256.794V232.556C201.431 232.216 201.528 231.886 201.697 231.591C201.866 231.296 202.102 231.045 202.387 230.859L202.658 230.7C202.964 230.554 203.298 230.478 203.637 230.478C203.976 230.478 204.31 230.554 204.616 230.7L225.641 242.842C225.926 243.028 226.164 243.278 226.335 243.573C226.506 243.868 226.606 244.199 226.625 244.539V268.766C226.608 269.106 226.511 269.437 226.342 269.732C226.172 270.026 225.936 270.277 225.652 270.464L225.38 270.611C225.078 270.767 224.742 270.848 224.401 270.848C224.061 270.848 223.725 270.767 223.423 270.611L202.398 258.469C202.113 258.288 201.875 258.042 201.703 257.751C201.532 257.459 201.433 257.132 201.413 256.794Z" fill="#B30000"/>
<path opacity="0.5" d="M202.385 231.979L223.41 244.121C223.696 244.306 223.934 244.557 224.105 244.852C224.276 245.147 224.375 245.478 224.395 245.818V270.068C224.395 270.701 223.953 270.95 223.41 270.633L202.385 258.492C202.099 258.307 201.861 258.057 201.692 257.761C201.523 257.466 201.427 257.134 201.412 256.794V232.556C201.412 231.922 201.842 231.662 202.385 231.979Z" fill="white"/>
<path opacity="0.8" d="M201.435 232.363C201.503 231.876 201.91 231.695 202.397 231.978L223.41 244.12C223.698 244.302 223.939 244.551 224.112 244.844L226.375 243.566C226.216 243.266 225.977 243.015 225.685 242.841L204.671 230.688C204.364 230.54 204.028 230.463 203.687 230.463C203.346 230.463 203.009 230.54 202.702 230.688L202.442 230.847C202.176 231.013 201.948 231.234 201.774 231.495C201.6 231.757 201.485 232.053 201.435 232.363Z" fill="white"/>
<path opacity="0.6" d="M223.626 270.736C223.906 270.84 224.204 270.886 224.502 270.868C224.801 270.851 225.092 270.771 225.357 270.634L225.629 270.487C225.915 270.301 226.153 270.05 226.324 269.755C226.495 269.461 226.594 269.13 226.613 268.789V244.54C226.602 244.195 226.5 243.86 226.319 243.566L224.056 244.845C224.228 245.141 224.326 245.476 224.339 245.818V270.068C224.395 270.611 224.079 270.871 223.626 270.736Z" fill="white"/>
<path d="M213.057 241.982C211.077 240.85 209.47 241.755 209.47 244.041C209.537 245.286 209.897 246.497 210.52 247.577C211.144 248.656 212.013 249.573 213.057 250.254C215.038 251.385 216.645 250.469 216.645 248.183C216.576 246.94 216.215 245.731 215.592 244.654C214.969 243.576 214.1 242.661 213.057 241.982Z" fill="#F8F9FC"/>
<path d="M205.996 254.192C205.996 250.446 208.632 248.771 211.88 250.65L213.917 251.781C215.628 252.898 217.053 254.401 218.075 256.171C219.097 257.94 219.688 259.925 219.801 261.966V262.973C219.801 262.973 218.409 263.889 212.898 260.63C207.387 257.371 205.996 254.972 205.996 254.972V254.192Z" fill="#F8F9FC"/>
<path d="M169.231 238.214V213.987C169.25 213.646 169.349 213.315 169.52 213.02C169.691 212.726 169.929 212.475 170.215 212.289L170.441 212.187C170.746 212.031 171.084 211.95 171.426 211.95C171.768 211.95 172.106 212.031 172.41 212.187L193.435 224.329C193.719 224.516 193.956 224.767 194.125 225.062C194.294 225.356 194.391 225.687 194.408 226.027V250.276C194.39 250.617 194.291 250.948 194.12 251.243C193.949 251.538 193.71 251.789 193.424 251.974L193.163 252.132C192.858 252.279 192.523 252.355 192.185 252.355C191.846 252.355 191.511 252.279 191.206 252.132L170.181 239.99C169.891 239.793 169.653 239.528 169.487 239.219C169.322 238.909 169.234 238.565 169.231 238.214Z" fill="#B30000"/>
<path d="M170.215 213.421L191.24 225.563C191.522 225.751 191.757 226.003 191.926 226.297C192.095 226.592 192.193 226.921 192.213 227.26V251.521C192.213 252.144 191.772 252.393 191.24 252.087L170.215 239.945C169.929 239.759 169.691 239.509 169.52 239.214C169.349 238.919 169.25 238.588 169.231 238.248V213.987C169.231 213.319 169.672 213.115 170.215 213.421Z" fill="#37474F"/>
<path d="M169.253 213.805C169.321 213.319 169.729 213.138 170.215 213.421L191.229 225.563C191.517 225.745 191.757 225.993 191.93 226.287L194.193 225.008C194.034 224.708 193.795 224.458 193.503 224.284L172.444 212.187C172.137 212.039 171.801 211.962 171.46 211.962C171.119 211.962 170.782 212.039 170.475 212.187L170.215 212.346C169.963 212.51 169.748 212.725 169.583 212.976C169.417 213.227 169.305 213.509 169.253 213.805Z" fill="#293C45"/>
<path d="M191.456 252.177C191.736 252.282 192.034 252.327 192.332 252.309C192.631 252.292 192.922 252.212 193.187 252.075L193.459 251.928C193.745 251.742 193.983 251.492 194.154 251.197C194.325 250.902 194.424 250.571 194.443 250.231V225.981C194.432 225.637 194.33 225.301 194.149 225.008L191.886 226.287C192.059 226.583 192.156 226.917 192.169 227.26V251.509C192.214 252.053 191.943 252.313 191.456 252.177Z" fill="#293C45"/>
<path d="M175.478 222.372L185.979 228.437C186.931 229.058 187.724 229.893 188.296 230.875C188.868 231.858 189.202 232.96 189.271 234.095V241.145C189.271 243.238 187.789 244.098 185.979 243.046L175.478 236.98C174.523 236.361 173.726 235.527 173.153 234.544C172.579 233.562 172.243 232.458 172.173 231.322V224.295C172.173 222.202 173.656 221.342 175.478 222.372ZM177.741 231.368L183.399 237.886C183.693 238.236 183.93 238.146 183.93 237.682V231.571C183.932 231.462 183.912 231.353 183.871 231.252C183.83 231.15 183.769 231.058 183.692 230.98C183.616 230.902 183.524 230.84 183.423 230.798C183.322 230.756 183.214 230.734 183.104 230.734H178.035C177.537 230.757 177.413 231.04 177.707 231.424L177.741 231.368Z" fill="white"/>
<path d="M169.232 201.109V176.848C169.251 176.508 169.35 176.177 169.521 175.882C169.693 175.587 169.931 175.337 170.216 175.151L170.477 175.004C170.781 174.848 171.119 174.767 171.461 174.767C171.803 174.767 172.141 174.848 172.445 175.004L193.47 187.146C193.754 187.333 193.99 187.584 194.159 187.879C194.328 188.173 194.425 188.504 194.443 188.843V213.093C194.425 213.433 194.326 213.765 194.155 214.06C193.984 214.355 193.745 214.605 193.459 214.79L193.199 214.949C192.893 215.095 192.559 215.171 192.22 215.171C191.881 215.171 191.547 215.095 191.241 214.949L170.216 202.807C169.931 202.621 169.693 202.37 169.521 202.076C169.35 201.781 169.251 201.45 169.232 201.109Z" fill="#B30000"/>
<path d="M170.215 176.283L191.24 188.425C191.522 188.613 191.757 188.864 191.926 189.159C192.095 189.453 192.193 189.783 192.213 190.122V214.383C192.213 215.005 191.772 215.254 191.24 214.949L170.215 202.807C169.929 202.621 169.691 202.371 169.52 202.076C169.349 201.781 169.25 201.45 169.231 201.11V176.848C169.231 176.226 169.672 175.977 170.215 176.283Z" fill="#B30000"/>
<path opacity="0.7" d="M169.255 176.668C169.323 176.181 169.731 176 170.217 176.283L191.231 188.425C191.519 188.607 191.759 188.855 191.932 189.149L194.195 187.87C194.036 187.57 193.797 187.32 193.505 187.146L172.492 174.993C172.185 174.845 171.848 174.768 171.507 174.768C171.166 174.768 170.83 174.845 170.523 174.993L170.262 175.151C169.996 175.317 169.768 175.539 169.594 175.8C169.421 176.062 169.305 176.358 169.255 176.668Z" fill="#8F0000"/>
<path opacity="0.2" d="M191.456 215.051C191.736 215.156 192.034 215.201 192.332 215.183C192.631 215.166 192.922 215.086 193.187 214.949L193.459 214.802C193.745 214.616 193.983 214.365 194.154 214.07C194.325 213.776 194.424 213.445 194.443 213.104V188.843C194.432 188.499 194.33 188.163 194.149 187.87L191.886 189.149C192.059 189.445 192.156 189.779 192.169 190.122V214.383C192.214 214.926 191.943 215.186 191.456 215.051Z" fill="black"/>
<path d="M180.094 187.485L178.555 190.778C178.536 190.826 178.508 190.87 178.472 190.907C178.436 190.943 178.393 190.972 178.345 190.991C178.297 191.01 178.246 191.019 178.194 191.018C178.143 191.016 178.092 191.004 178.046 190.982L174.583 189.646C174.029 189.443 173.814 190.212 174.21 190.959L176.71 195.666C176.867 195.941 176.935 196.257 176.903 196.572L176.314 200.838C176.224 201.505 176.801 202.399 177.288 202.343L180.388 201.958C180.513 201.963 180.636 201.999 180.744 202.062C180.853 202.125 180.944 202.214 181.01 202.32L184.111 206.281C184.609 206.914 185.186 206.688 185.084 205.896L184.496 200.951C184.468 200.831 184.472 200.705 184.505 200.587C184.539 200.468 184.602 200.36 184.688 200.272L187.2 198.461C187.596 198.178 187.37 197.149 186.827 196.719L183.364 194.048C183.12 193.844 182.943 193.573 182.855 193.267L181.305 188.187C181.056 187.372 180.343 186.965 180.094 187.485Z" fill="white"/>
<path d="M313.689 67.8549L328.535 33.2059C329.52 30.9428 331.523 29.2907 333.005 29.5735L366.092 35.9104C366.94 36.1764 367.699 36.6691 368.288 37.3352C368.876 38.0013 369.271 38.8155 369.43 39.6899L370.302 44.103C370.551 46.6294 370.162 49.1779 369.17 51.5149L354.324 86.1525C353.339 88.4157 351.336 90.0678 349.798 89.7962L316.71 83.4593C315.864 83.19 315.107 82.6963 314.519 82.0308C313.931 81.3652 313.535 80.5528 313.372 79.6799L312.501 75.2667C312.264 72.7354 312.673 70.1855 313.689 67.8549Z" fill="#B30000"/>
<path opacity="0.5" d="M314.604 72.4834L347.68 78.8315C349.174 79.1031 351.177 77.4736 352.206 75.1879L367.007 40.5502C367.992 38.2871 367.573 36.1823 366.091 35.9108L333.003 29.5739C331.521 29.291 329.518 30.9205 328.534 33.2063L313.687 67.8552C312.703 70.141 313.11 72.2118 314.604 72.4834Z" fill="white"/>
<path opacity="0.6" d="M316.764 83.4601L349.852 89.797C350.294 89.8351 350.738 89.778 351.156 89.6297C351.574 89.4813 351.955 89.2451 352.273 88.937L350.112 77.9607C349.791 78.2699 349.409 78.5075 348.989 78.6577C348.57 78.8079 348.123 78.8673 347.679 78.832L314.603 72.4951C313.189 72.2236 312.747 70.3451 313.539 68.2178C312.656 70.4561 312.318 72.8728 312.555 75.2675L313.426 79.6807C313.587 80.5545 313.982 81.3681 314.57 82.0341C315.159 82.7 315.917 83.193 316.764 83.4601Z" fill="white"/>
<path opacity="0.8" d="M352.275 88.9362C352.681 88.611 353.039 88.2301 353.339 87.8047L353.554 87.5104C353.74 87.2461 353.911 86.9702 354.063 86.6844C354.153 86.5033 354.244 86.3223 354.323 86.1412L369.181 51.5036C370.171 49.1663 370.56 46.6181 370.312 44.0918L369.43 39.6786C369.277 38.8653 368.924 38.1029 368.403 37.4607C367.881 36.8184 367.207 36.3167 366.442 36.001C367.642 36.5102 367.913 38.4226 367.008 40.5273L352.162 75.1762C351.704 76.2438 351.002 77.1893 350.114 77.9373L352.275 88.9362Z" fill="white"/>
<path d="M331.272 43.1979C331.961 43.8651 332.782 44.3815 333.682 44.7143C332.927 43.5497 332.633 42.146 332.856 40.7764C333.504 41.6837 334.362 42.4212 335.357 42.9264C335.93 42.4102 336.608 42.0245 337.344 41.7959C338.081 41.5673 338.858 41.5013 339.623 41.6024C342.282 42.1229 343.402 45.3932 342.112 48.9124C341.933 49.4084 341.713 49.889 341.456 50.3495C345.563 50.8701 350.056 49.0256 353.903 45.6308C353.973 46.7866 353.795 47.9438 353.383 49.0256C352.632 51.0904 351.156 52.8118 349.23 53.8687C350.073 53.9835 350.932 53.858 351.708 53.5066C351.703 53.5328 351.703 53.5597 351.708 53.5858C350.576 56.675 347.962 58.9269 345.541 59.074C345.886 59.2999 346.269 59.4609 346.672 59.5493C346.986 59.6064 347.305 59.6292 347.623 59.6172C346.073 62.0274 343.617 63.5211 341.49 63.159C341.959 64.154 342.655 65.0253 343.522 65.7032C344.388 66.3811 345.401 66.8467 346.48 67.0629C346.855 67.1284 347.232 67.1738 347.612 67.1987C345.027 68.5887 342.055 69.0859 339.159 68.6132C330.265 66.8706 328.975 56.1658 332.064 47.7808C332.166 47.5093 332.267 47.2377 332.381 46.9661C331.734 45.8013 331.323 44.5211 331.17 43.1979H331.272Z" fill="white"/>
<path d="M352.626 310.375L364.734 275.953C365.605 273.497 367.676 271.528 369.373 271.551L402.596 272.038C403.519 272.119 404.399 272.466 405.13 273.036C405.861 273.606 406.411 274.376 406.715 275.251L408.141 279.529C408.672 282.067 408.492 284.702 407.62 287.144L395.535 321.567C394.664 324.022 392.593 326.003 390.896 325.969L357.661 325.493C356.739 325.404 355.861 325.053 355.131 324.481C354.402 323.91 353.85 323.142 353.542 322.268L352.128 317.991C351.589 315.455 351.761 312.82 352.626 310.375Z" fill="#B30000"/>
<path d="M354.131 314.868L387.365 315.355C389.052 315.355 391.134 313.408 392.005 310.953L404.09 276.519C404.962 274.063 404.294 272.06 402.597 271.992L369.373 271.506C367.676 271.506 365.605 273.452 364.734 275.908L352.626 310.376C351.777 312.831 352.445 314.845 354.131 314.868Z" fill="#B30000"/>
<path opacity="0.2" d="M357.662 325.493L390.896 325.98C391.901 325.898 392.838 325.442 393.521 324.701L389.968 314.03C389.287 314.774 388.348 315.231 387.343 315.309L354.109 314.822C352.502 314.822 351.845 312.989 352.502 310.715C351.728 313.047 351.591 315.543 352.106 317.946L353.52 322.234C353.825 323.118 354.377 323.895 355.112 324.473C355.846 325.051 356.731 325.405 357.662 325.493Z" fill="black"/>
<path opacity="0.7" d="M393.521 324.701C393.952 324.321 394.332 323.888 394.652 323.411L394.867 323.083C395.049 322.788 395.212 322.482 395.354 322.166C395.433 321.974 395.512 321.782 395.58 321.578L407.688 287.144C408.556 284.701 408.732 282.065 408.197 279.528L406.771 275.251C406.487 274.439 405.993 273.717 405.339 273.159C404.685 272.6 403.895 272.225 403.049 272.071C404.452 272.388 404.95 274.255 404.18 276.53L392.004 310.952C391.567 312.119 390.871 313.172 389.968 314.03L393.521 324.701Z" fill="white"/>
<path d="M379.331 288.989C382.624 288.989 384.514 291.727 382.896 296.581C381.277 301.436 377.77 303.371 374.477 303.314C371.184 303.258 369.339 301.311 370.957 296.525C372.576 291.738 376.038 288.955 379.331 288.989Z" fill="white"/>
<path d="M392.773 282.833L390.103 282.799L389.594 284.293L392.276 284.326L392.773 282.833Z" fill="white"/>
<path d="M368.072 285.322H373.153C374.126 285.322 375.291 284.19 375.767 282.764C376.242 281.339 377.407 280.196 378.369 280.207L386.098 280.286C387.06 280.286 387.456 281.418 386.981 282.878C386.505 284.337 386.901 285.458 387.875 285.469H392.955C393.917 285.469 394.313 286.601 393.838 288.06L387.829 305.6C387.354 307.014 386.188 308.157 385.227 308.157L360.332 307.908C359.37 307.908 358.974 306.777 359.449 305.317L365.458 287.789C365.945 286.453 367.11 285.311 368.072 285.322ZM373.888 304.83C377.985 304.83 382.341 302.624 384.355 296.592C386.37 290.561 384.14 286.872 380.044 286.838C375.948 286.804 371.512 290.414 369.498 296.445C367.483 302.477 369.792 304.796 373.888 304.83ZM370.957 291.059C371.478 291.059 372.089 290.437 372.383 289.656C372.677 288.875 372.383 288.253 371.897 288.241C371.41 288.23 370.765 288.864 370.471 289.645C370.177 290.425 370.426 291.059 370.957 291.059Z" fill="white"/>
<path d="M36.0661 146.421L73.1253 158.473C74.1156 158.835 75.0147 159.41 75.7595 160.157C76.5043 160.903 77.0767 161.804 77.4366 162.795L87.0776 197.58C87.5642 199.345 87.1682 201.45 86.1724 202.265L83.7621 204.256C82.7776 205.082 80.4466 205.241 78.5568 204.63L41.4411 192.578C40.4518 192.214 39.5538 191.638 38.8093 190.892C38.0648 190.146 37.4917 189.246 37.1297 188.256L27.4887 153.471C27.0021 151.706 27.4095 149.601 28.394 148.786L30.8042 146.795C31.8453 145.969 34.1763 145.81 36.0661 146.421Z" fill="#004498"/>
<path opacity="0.5" d="M33.5209 148.514L43.1507 183.299C43.5113 184.289 44.0841 185.187 44.8289 185.932C45.5736 186.677 46.4724 187.25 47.462 187.61L84.5438 199.673C86.4336 200.284 87.5651 199.345 87.0786 197.58L77.4375 162.795C77.0776 161.804 76.5052 160.903 75.7605 160.156C75.0157 159.41 74.1166 158.835 73.1262 158.472L36.0444 146.421C34.1773 145.81 33.0457 146.749 33.5209 148.514Z" fill="white"/>
<path opacity="0.8" d="M27.5446 153.47L37.1856 188.255C37.5037 189.241 38.0639 190.132 38.8151 190.846L44.8125 185.89C44.0568 185.177 43.4926 184.286 43.1717 183.299L33.5193 148.514C33.0667 146.839 34.0512 145.9 35.7825 146.341C33.9606 145.821 31.8106 146.024 30.8714 146.794L28.4612 148.774C27.4541 149.589 27.058 151.694 27.5446 153.47Z" fill="white"/>
<path opacity="0.6" d="M38.8169 190.846C39.1626 191.205 39.5415 191.531 39.9485 191.819L40.2314 192C40.4745 192.15 40.7279 192.282 40.9896 192.396C41.1367 192.453 41.2951 192.521 41.4535 192.566L78.5353 204.64C80.4251 205.251 82.7562 205.081 83.7519 204.266L86.1509 202.264C86.6519 201.687 87.0046 200.998 87.1781 200.254C87.3517 199.511 87.3409 198.736 87.1467 197.998C87.3617 199.491 86.264 200.261 84.5214 199.672L47.4395 187.621C46.4283 187.256 45.5146 186.664 44.769 185.89L38.8169 190.846Z" fill="white"/>
<path d="M56.5137 160.136C53.0171 159.073 50.9803 160.906 51.9874 164.233C52.6842 166.066 53.7734 167.725 55.1788 169.093C56.5843 170.462 58.2719 171.506 60.1235 172.154C63.6314 173.285 65.6569 171.395 64.6498 168.057C63.9503 166.225 62.8601 164.568 61.4551 163.2C60.05 161.832 58.3638 160.786 56.5137 160.136Z" fill="#004498"/>
<path d="M51.1505 180.096C49.5097 174.63 52.78 171.405 58.5284 173.159L62.1155 174.291C67.8639 175.977 73.8613 181.861 75.5021 187.293L75.9434 188.764C75.9434 188.764 74.2347 190.518 64.4465 187.428C54.6584 184.339 51.5239 181.329 51.5239 181.329L51.1505 180.096Z" fill="#004498"/>
<path d="M56.5027 42.8585L87.3269 34.6432C88.3218 34.519 89.3319 34.6443 90.2663 35.0078C91.2007 35.3713 92.0299 35.9615 92.6793 36.7253L115.526 62.6725C116.878 64.1539 117.677 66.0564 117.789 68.0588L117.472 71.4535C117.324 72.2373 116.958 72.9633 116.415 73.5479C115.873 74.1325 115.176 74.5519 114.406 74.7577L83.5814 82.973C82.5914 83.0963 81.5863 82.9739 80.6548 82.6167C79.7233 82.2595 78.8941 81.6784 78.2404 80.9248L55.4051 54.989C54.0565 53.5055 53.2576 51.6043 53.142 49.6027L53.4588 46.208C53.5971 45.4188 53.9566 44.6851 54.4954 44.0921C55.0343 43.4992 55.7303 43.0714 56.5027 42.8585Z" fill="#B30000"/>
<path d="M56.1517 46.4579L79.0209 72.405C80.4127 73.9779 82.8117 74.9058 84.3733 74.4871L115.197 66.2718C116.77 65.8532 116.917 64.235 115.526 62.6734L92.6791 36.7263C92.0297 35.9625 91.2004 35.3722 90.266 35.0088C89.3317 34.6453 88.3215 34.52 87.3267 34.6442L56.5025 42.8595C54.9296 43.2782 54.7938 44.8963 56.1517 46.4579Z" fill="#455A64"/>
<path d="M55.4048 54.9779L78.24 80.925C78.9582 81.7187 79.8539 82.3313 80.854 82.7129L81.6348 74.2034C80.6347 73.8218 79.739 73.2092 79.0208 72.4155L56.1516 46.4571C54.839 44.9747 54.8956 43.4471 56.2535 42.9492C55.5355 43.1812 54.893 43.6018 54.3933 44.1672C53.8937 44.7326 53.5551 45.4218 53.4132 46.1629L53.0963 49.5576C53.2113 51.5781 54.0277 53.495 55.4048 54.9779Z" fill="#263238"/>
<path d="M80.8551 82.7011C81.2822 82.8782 81.7314 82.9962 82.1904 83.0519H82.4846C82.7214 83.0804 82.9607 83.0804 83.1975 83.0519C83.3316 83.0373 83.4642 83.0108 83.5936 82.9727L114.429 74.78C115.2 74.5724 115.897 74.1527 116.441 73.5686C116.985 72.9844 117.354 72.2594 117.507 71.4758L117.812 68.0811C117.723 66.2464 117.031 64.4924 115.844 63.0908C116.885 64.5279 116.647 65.9085 115.199 66.3045L84.3744 74.5198C83.4531 74.7085 82.496 74.6057 81.6359 74.2256L80.8551 82.7011Z" fill="#37474F"/>
<path d="M85.1881 60.7829L89.4315 59.6514L98.801 70.6164L105.059 68.9529L95.757 58.0332L98.7557 57.2524L94.9649 52.7261L91.9775 53.5069L89.0241 50.1122C86.9081 47.6566 82.4157 44.1261 77.2444 45.4727L72.6049 46.7061L77.0294 51.8661L80.4241 50.9835C80.9176 50.9017 81.4242 50.9651 81.8822 51.166C82.3403 51.3669 82.7301 51.6966 83.0041 52.1151L85.6973 55.2269L80.8994 56.483L85.1881 60.7829Z" fill="white"/>
<path d="M20.0772 324L27.9983 287.099C28.4396 285.04 30.0691 283.06 31.6307 282.663L62.3078 274.991C63.0792 274.801 63.8889 274.834 64.6423 275.086C65.3957 275.339 66.0617 275.8 66.5625 276.417L68.4975 279.291C69.3655 281.117 69.5889 283.184 69.1312 285.153L61.2101 322.054C60.7688 324.113 59.1394 326.093 57.5778 326.49L26.9007 334.162C26.1294 334.356 25.3184 334.326 24.5642 334.073C23.8099 333.82 23.1441 333.356 22.6459 332.736L20.7109 329.862C19.8429 328.036 19.6196 325.969 20.0772 324Z" fill="#004498"/>
<path opacity="0.45" d="M22.1023 327.02L52.7567 319.337C54.3183 318.952 55.9478 316.961 56.3891 314.901L64.3102 278.012C64.7515 275.952 63.8462 274.617 62.2847 274.99L31.6075 282.662C30.0459 283.058 28.4165 285.039 27.9752 287.098L20.0541 323.999C19.6354 326.058 20.5407 327.405 22.1023 327.02Z" fill="black"/>
<path opacity="0.55" d="M26.8996 334.172L57.5767 326.478C58.4792 326.195 59.2707 325.637 59.8398 324.882L55.0419 317.73C54.4817 318.495 53.687 319.055 52.7788 319.326L22.1017 327.009C20.6193 327.372 19.7254 326.183 20.0196 324.305C19.6431 326.179 19.8853 328.125 20.7098 329.85L22.6335 332.735C23.1374 333.352 23.805 333.814 24.5596 334.068C25.3142 334.322 26.1253 334.358 26.8996 334.172Z" fill="black"/>
<path opacity="0.35" d="M59.8066 324.894C60.127 324.52 60.3971 324.105 60.61 323.661C60.6658 323.566 60.7149 323.468 60.7571 323.366C60.8842 323.104 60.9901 322.831 61.074 322.552C61.074 322.393 61.1645 322.224 61.1984 322.054L69.1195 285.153C69.5772 283.184 69.3538 281.117 68.4858 279.291L66.5508 276.417C66.0943 275.844 65.4926 275.402 64.8081 275.14C64.1236 274.877 63.3813 274.803 62.6582 274.924C63.9934 274.822 64.7176 276.112 64.3216 278.013L56.4005 314.914C56.1617 315.954 55.681 316.923 54.9974 317.743L59.8066 324.894Z" fill="black"/>
<path d="M53.096 285.955L48.5697 304.615C49.1985 304.298 49.8635 304.058 50.55 303.902C52.7226 303.438 53.9447 305.407 53.2432 308.315C52.5416 311.223 50.2445 313.973 48.0718 314.414C45.8992 314.856 43.851 313.056 44.5413 310.148L48.6037 293.571L35.964 296.366L33.0558 308.021C33.6821 307.696 34.3476 307.452 35.036 307.297C37.2087 306.833 37.6953 308.926 37.0163 311.823C36.3374 314.72 34.0176 317.481 31.845 317.922C29.6724 318.364 28.4503 316.406 29.1405 313.509L34.7984 289.904L53.096 285.955Z" fill="white"/>
<path d="M367.404 216.353L348.167 185.8C346.945 183.865 346.662 181.093 347.556 179.633L364.925 150.823C365.365 150.099 366.005 149.518 366.769 149.15C367.532 148.783 368.385 148.645 369.225 148.752L372.858 149.567C374.352 149.895 376.558 151.728 377.78 153.675L395.795 183.797C397.017 185.732 397.3 188.505 396.417 189.976L379.059 218.831C378.619 219.555 377.979 220.136 377.216 220.504C376.453 220.871 375.599 221.01 374.759 220.902L372.326 220.461C370.832 220.11 368.637 218.288 367.404 216.353Z" fill="#2B64AA"/>
<path opacity="0.45" d="M371.228 217.201L388.576 188.334C389.458 186.863 389.187 184.102 387.964 182.167L368.728 151.614C367.494 149.679 365.786 149.351 364.903 150.777L347.556 179.643C346.662 181.103 346.945 183.876 348.167 185.811L367.404 216.363C368.637 218.287 370.346 218.672 371.228 217.201Z" fill="black"/>
<path opacity="0.55" d="M379.07 218.842L396.417 189.976C396.878 189.077 397.045 188.055 396.892 187.056L389.051 185.427C389.205 186.422 389.039 187.441 388.575 188.335L371.228 217.201C370.391 218.593 368.807 218.333 367.607 216.647C368.735 218.387 370.388 219.723 372.326 220.46L374.759 220.902C375.599 221.011 376.454 220.875 377.219 220.51C377.984 220.144 378.627 219.565 379.07 218.842Z" fill="black"/>
<path opacity="0.35" d="M396.893 187.056C396.842 186.526 396.735 186.002 396.576 185.494L396.451 185.155C396.347 184.86 396.223 184.572 396.078 184.295C395.993 184.127 395.898 183.965 395.795 183.808L377.78 153.663C376.636 151.789 374.906 150.345 372.858 149.555L369.225 148.752C368.452 148.643 367.664 148.747 366.945 149.055C366.227 149.362 365.607 149.86 365.152 150.495C366.08 149.363 367.607 149.884 368.75 151.626L387.987 182.179C388.612 183.163 388.999 184.278 389.119 185.438L396.893 187.056Z" fill="black"/>
<path d="M365.254 163.995C365.457 163.967 365.664 164 365.849 164.088C366.034 164.177 366.189 164.317 366.295 164.493L380.802 187.554C380.889 187.686 380.94 187.838 380.949 187.996L365.673 186.502L365.254 163.995Z" fill="white"/>
<path d="M353.871 181.568L363.761 165.624L364.191 188.346L380.135 189.806L370.505 205.727C370.4 205.872 370.262 205.99 370.103 206.071C369.944 206.153 369.767 206.195 369.588 206.195C369.41 206.195 369.233 206.153 369.074 206.071C368.915 205.99 368.777 205.872 368.672 205.727L353.871 182.767C353.75 182.591 353.686 182.382 353.686 182.168C353.686 181.954 353.75 181.745 353.871 181.568Z" fill="white"/>
</svg>
