<svg width="56" height="56" viewBox="0 0 56 56" fill="none" xmlns="http://www.w3.org/2000/svg">
<path opacity="0.3" d="M46.5251 2.97461L6.5 4.0001C5.57174 4.0001 4.65638 3.84362 4 4.5C3.34362 5.15638 3 6.57184 3 7.5001V12.7501H52.5L51 6.5C51 5.57174 49.6564 4.65611 49 3.99974C48.3436 3.34336 47.4534 2.97461 46.5251 2.97461Z" fill="#FF0000"/>
<path opacity="0.3" d="M50 53L8 52.7501C7.07174 52.7501 5.65638 51.6564 5 51C4.34362 50.3436 3 48.9283 3 48V44.0001H52.5L52 51.5002C52 52.1177 50.799 53 50 53Z" fill="#FF0000"/>
<path d="M50.804 53.1636H10.8988C6.41566 53.1636 2.78125 49.528 2.78125 45.0444V5.13998C2.78125 4.09014 3.63116 3.24023 4.681 3.24023H44.5854C49.0679 3.24023 52.7038 6.87533 52.7038 11.3586V51.263C52.7038 52.313 51.8528 53.1636 50.804 53.1636Z" stroke="#B30000" stroke-width="2"/>
<path d="M23.4116 34.6595L23.4465 34.6825C24.7293 35.5273 26.2693 36.0182 27.9221 36.0182C32.4095 36.0182 36.0605 32.3948 36.0605 27.9446C36.0605 27.7337 36.051 27.5217 36.0336 27.3139L36.0336 27.3135C35.7073 23.1565 32.1973 19.8701 27.923 19.8701C23.7015 19.8701 20.2234 23.0769 19.8253 27.1612C19.8253 27.1612 19.8253 27.1612 19.8253 27.1612L23.4116 34.6595ZM23.4116 34.6595L23.3718 34.6722M23.4116 34.6595L23.3718 34.6722M23.3718 34.6722L20.3754 35.6251L23.3718 34.6722ZM18.0627 27.5137L18.0627 27.5143L18.0624 27.52C18.0573 27.6605 18.0521 27.8011 18.0521 27.9454C18.0521 29.7805 18.5614 31.4993 19.448 32.9688L17.6945 38.1364L17.6389 38.3004L17.8038 38.2479L23.1853 36.5381C24.5911 37.303 26.2055 37.7384 27.9221 37.7384C33.3755 37.7384 37.7938 33.3547 37.7938 27.9454C37.7938 27.8744 37.7908 27.8055 37.7878 27.7378C37.7872 27.7235 37.7865 27.7092 37.7859 27.6949C37.654 22.4026 33.2889 18.1498 27.9221 18.1498C22.6177 18.1498 18.2905 22.305 18.0627 27.5137Z" fill="#B30000" stroke="#B30000" stroke-width="0.175"/>
<path d="M32.4431 29.8247L32.4433 29.8248C32.49 29.8483 32.5354 29.8703 32.578 29.891C32.6399 29.921 32.6961 29.9483 32.7425 29.9734C32.8213 30.0162 32.894 30.0638 32.9383 30.1315L32.9405 30.1348L32.9404 30.1349C32.9663 30.1787 32.9783 30.2451 32.9836 30.3137C32.9893 30.387 32.9885 30.4781 32.9795 30.5822C32.9615 30.7906 32.9102 31.0561 32.8084 31.3419L32.8082 31.3425C32.6969 31.6479 32.3812 31.9339 32.0529 32.1447C31.7235 32.3562 31.3555 32.5087 31.1159 32.5302L31.1159 32.5302C31.0467 32.5364 30.9937 32.5491 30.933 32.5637C30.9026 32.571 30.8703 32.5788 30.8331 32.5864C30.7253 32.6085 30.599 32.623 30.4096 32.6049C30.0364 32.5691 29.4165 32.4066 28.1958 31.9304L28.1957 31.9304C25.9062 31.0352 24.4011 28.8087 24.1076 28.3746C24.0853 28.3416 24.07 28.3189 24.0619 28.308C23.9689 28.1864 23.4388 27.4858 23.1919 26.6293L23.1918 26.629C23.1159 26.3628 23.0651 26.0815 23.0651 25.7957C23.0651 24.6641 23.63 24.0679 23.8818 23.8021C23.8985 23.7844 23.9138 23.7683 23.9275 23.7535L23.9917 23.8129M32.4431 29.8247L25.7881 26.927M32.4431 29.8247C32.3226 29.7644 31.9668 29.5907 31.6136 29.4221C31.2633 29.2549 30.9076 29.089 30.7914 29.0472M32.4431 29.8247L27.0755 28.9948M23.9917 23.8129L23.9272 23.7538C24.1653 23.4938 24.4503 23.4262 24.6305 23.4262C24.7139 23.4262 24.7964 23.4309 24.8735 23.4355L24.8808 23.4359C24.9561 23.4404 25.0255 23.4445 25.0898 23.4445C25.1038 23.4445 25.119 23.4436 25.1387 23.4423L25.1397 23.4422C25.1589 23.441 25.1817 23.4396 25.2057 23.4396C25.2547 23.4396 25.312 23.4455 25.3729 23.4717C25.4958 23.5247 25.6078 23.6491 25.7113 23.8973C25.7813 24.0639 25.8847 24.3135 25.9922 24.5729C26.1936 25.0591 26.4095 25.5802 26.4473 25.6566C26.5133 25.786 26.5658 25.9586 26.4674 26.1535C26.4587 26.1708 26.4503 26.1878 26.4421 26.2044C26.3998 26.2899 26.3621 26.3664 26.3097 26.4446L26.3076 26.4476L26.3076 26.4476C26.304 26.4524 26.3004 26.4575 26.2967 26.4626C26.2742 26.4935 26.2481 26.5295 26.2152 26.5665C26.177 26.6106 26.136 26.6601 26.0942 26.7106C26.0108 26.8112 25.9242 26.9159 25.8495 26.9894M23.9917 23.8129C24.2105 23.574 24.4703 23.5137 24.6305 23.5137C24.7139 23.5137 24.7969 23.5186 24.8768 23.5234C24.9511 23.5278 25.0228 23.532 25.0898 23.532C25.1067 23.532 25.1244 23.5309 25.1428 23.5297C25.2786 23.521 25.4549 23.5096 25.6306 23.931L24.1317 28.2553C24.0407 28.1363 23.5183 27.4459 23.276 26.605C23.2016 26.3443 23.1526 26.0713 23.1526 25.7957C23.1526 24.6992 23.6968 24.1246 23.9459 23.8616C23.9626 23.844 23.9779 23.8278 23.9917 23.8129ZM25.8495 26.9894L25.7881 26.927M25.8495 26.9894C25.8495 26.9894 25.8495 26.9894 25.8495 26.9894L25.7881 26.927M25.8495 26.9894C25.7878 27.0502 25.7417 27.099 25.7207 27.1549C25.7029 27.2025 25.6996 27.2671 25.7585 27.3684M25.7881 26.927C25.6691 27.0443 25.544 27.1738 25.6831 27.4127M25.7585 27.3684C25.7585 27.3683 25.7584 27.3682 25.7584 27.3681L25.6831 27.4127M25.7585 27.3684C25.8974 27.6027 26.3747 28.3725 27.0755 28.9948M25.7585 27.3684C25.7586 27.3685 25.7586 27.3685 25.7587 27.3686L25.6831 27.4127M25.6831 27.4127L27.0755 28.9948M27.0755 28.9948C27.0755 28.9948 27.0754 28.9948 27.0754 28.9947L27.0175 29.0603L27.0756 28.9949C27.0755 28.9949 27.0755 28.9948 27.0755 28.9948ZM27.0755 28.9948C27.8271 29.6588 28.476 29.9401 28.8164 30.0877C28.8855 30.1176 28.942 30.1421 28.9839 30.1631M28.9839 30.1631C28.9838 30.1631 28.9837 30.163 28.9835 30.1629L28.9451 30.2415L28.9843 30.1633C28.9842 30.1633 28.984 30.1632 28.9839 30.1631ZM28.9839 30.1631C29.099 30.2194 29.1753 30.2354 29.2323 30.2284C29.2855 30.2219 29.3367 30.1934 29.3979 30.1229L29.3991 30.1216L29.3991 30.1216C29.5409 29.9649 29.9963 29.4327 30.1516 29.2006L30.1517 29.2006C30.2412 29.067 30.3415 28.997 30.4617 28.9833C30.5723 28.9707 30.6855 29.0087 30.7914 29.0472M30.7914 29.0472C30.7914 29.0471 30.7913 29.0471 30.7912 29.0471L30.7616 29.1294L30.7914 29.0472Z" fill="#B30000" stroke="#B30000" stroke-width="0.175"/>
<path d="M43.75 8.99712C43.75 9.61689 43.1929 10.1192 42.5055 10.1192H14.3695C13.6821 10.1192 13.125 9.61689 13.125 8.99712C13.125 8.37735 13.6821 7.875 14.3695 7.875H42.5046C43.192 7.875 43.75 8.37735 43.75 8.99712ZM43.75 47.8779C43.75 48.4977 43.1929 49 42.5055 49H14.3695C13.6821 49 13.125 48.4977 13.125 47.8779C13.125 47.2581 13.6821 46.7565 14.3695 46.7565H42.5046C43.192 46.7565 43.75 47.2589 43.75 47.8779Z" fill="#B30000"/>
</svg>
