<svg width="377" height="377" viewBox="0 0 377 377" fill="none" xmlns="http://www.w3.org/2000/svg">
    <path d="M326.901 343.49h-33.12v.25h33.12v-.25zM178.44 343.62h-8.69v.25h8.69v-.25zM292.77 334.21h-61.44v.25h61.44v-.25zM102.141 340.11h-12.69v.25h12.69v-.25zM80.55 340.11H43.72v.25h36.83v-.25z" fill="#EBEBEB"/>
    <path d="M282.631 320.11h9.99V212.62h-9.99v107.49z" fill="#C6D9FF"/>
    <path opacity=".4" d="M79.061 327.27h209.73v-7.16H79.061v7.16z" fill="#80A3E7"/>
    <path d="M282.64 212.62H75.23v107.49h207.41V212.62z" fill="#E5EEFE"/>
    <path d="M284.991 212.62h10.32v-6.78h-10.32v6.78z" fill="#5976AF"/>
    <path d="M284.991 205.84H72.541v6.78h212.45v-6.78z" fill="#80A3E7"/>
    <path opacity=".4" d="M267.751 259H90.111a8.001 8.001 0 0 1-8-8v-23a8 8 0 0 1 8-8h177.64a8 8 0 0 1 8 8v23a8 8 0 0 1-8 8zm-177.64-37a6 6 0 0 0-6 6v23a6.003 6.003 0 0 0 6 6h177.64a6 6 0 0 0 6-6v-23a6 6 0 0 0-6-6H90.111zM267.751 307.19H90.111a8.001 8.001 0 0 1-8-8v-23a8 8 0 0 1 8-8h177.64a8 8 0 0 1 8 8v23a8 8 0 0 1-8 8zm-177.64-37.08a6 6 0 0 0-6 6v23a6.003 6.003 0 0 0 6 6h177.64a6 6 0 0 0 6-6v-23a6 6 0 0 0-6-6H90.111z" fill="#80A3E7"/>
    <path d="M227.381 243h-96.9a2.601 2.601 0 0 1-2.6-2.59v-1.9a2.602 2.602 0 0 1 2.6-2.59h96.9a2.601 2.601 0 0 1 2.6 2.59v1.9a2.602 2.602 0 0 1-2.6 2.59zm-96.9-5a.611.611 0 0 0-.6.59v1.9a.608.608 0 0 0 .6.59h96.9a.604.604 0 0 0 .421-.172.605.605 0 0 0 .179-.418v-1.9a.605.605 0 0 0-.179-.418.604.604 0 0 0-.421-.172h-96.9zM227.381 291.19h-96.9a2.601 2.601 0 0 1-2.6-2.59v-1.9a2.602 2.602 0 0 1 2.6-2.59h96.9a2.601 2.601 0 0 1 2.6 2.59v1.9a2.602 2.602 0 0 1-2.6 2.59zm-96.9-5.08a.607.607 0 0 0-.6.59v1.9a.608.608 0 0 0 .6.59h96.9a.604.604 0 0 0 .421-.172.605.605 0 0 0 .179-.418v-1.9a.605.605 0 0 0-.179-.418.604.604 0 0 0-.421-.172h-96.9z" fill="#fff"/>
    <path d="m251.791 112.752-.381 5.888.998.065.381-5.888-.998-.065zM253.308 88.84l-1.247 19.349.997.065 1.248-19.35-.998-.064z" fill="#7FA8FA"/>
    <path d="M241.44 60.74H123.89A12.14 12.14 0 0 0 112 71.93l-15.19 234.5a10.398 10.398 0 0 0 6.274 10.36 10.4 10.4 0 0 0 4.196.84h117.53a12.16 12.16 0 0 0 11.92-11.2l15.18-234.5a10.396 10.396 0 0 0-2.772-7.9 10.396 10.396 0 0 0-7.698-3.29z" fill="#E08491"/>
    <path opacity=".7" d="M237.71 60.74H123.89A12.14 12.14 0 0 0 112 71.93l-15.19 234.5a10.398 10.398 0 0 0 6.274 10.36 10.4 10.4 0 0 0 4.196.84h113.8a12.16 12.16 0 0 0 11.92-11.2l15.18-234.5a10.396 10.396 0 0 0-2.772-7.9 10.396 10.396 0 0 0-7.698-3.29z" fill="#FAB0B3"/>
    <path d="M228.109 300.3H102.91a3.41 3.41 0 0 1-2.5-1.078 3.42 3.42 0 0 1-.92-2.562l13.739-212.2a3.422 3.422 0 0 1 3.41-3.2H241.85a3.43 3.43 0 0 1 3.419 3.65l-13.74 212.19a3.416 3.416 0 0 1-3.42 3.2zM200.289 74.32h-45.51a1.688 1.688 0 0 1-1.7-1.82 2.001 2.001 0 0 1 1.93-1.81h45.51a1.681 1.681 0 0 1 1.7 1.81 2 2 0 0 1-1.93 1.82zM164.77 309.21a4.747 4.747 0 0 1-4.69 4.46 4.192 4.192 0 0 1-3.086-1.31 4.21 4.21 0 0 1-1.144-3.15 4.75 4.75 0 0 1 4.69-4.45 4.186 4.186 0 0 1 3.985 2.757 4.19 4.19 0 0 1 .245 1.693z" fill="#fff"/>
    <path opacity=".2" d="M214.47 140H107.56l-6.8 104.9h113.71a11.22 11.22 0 0 0 11.2-11.19v-82.48a11.224 11.224 0 0 0-11.2-11.23z" fill="#7FA8FA"/>
    <path d="M204.511 130.71H73.491c-6.186 0-11.2 5.014-11.2 11.2v82.51c0 6.186 5.014 11.2 11.2 11.2h131.02c6.186 0 11.2-5.014 11.2-11.2v-82.51c0-6.186-5.014-11.2-11.2-11.2zM58.71 129.5a.999.999 0 0 1-.7-.29l-1.8-1.79a1.004 1.004 0 1 1 1.42-1.42l1.79 1.8a1.001 1.001 0 0 1 0 1.41 1 1 0 0 1-.71.29zM56 135.78h-2.53a.998.998 0 0 1-1-1 1 1 0 0 1 1-1H56a.998.998 0 0 1 1 1 1 1 0 0 1-1 1zM65.081 126.8a.997.997 0 0 1-1-.93l-.18-2.53a.998.998 0 1 1 1.99-.14l.19 2.53a.998.998 0 0 1-.93 1.07h-.07z" fill="#7FA8FA"/>
    <path d="m150.191 224.83 40.23 40.22v-40.22h-40.23z" fill="#7FA8FA"/>
    <path d="m161.22 207.21-2-8.49a15.36 15.36 0 0 1 0-6.78l2.78-12.09a23.707 23.707 0 0 0-12.54-26.31 6.63 6.63 0 0 0 .23-.68 5.71 5.71 0 0 0-.752-4.315 5.72 5.72 0 0 0-9.514-.227 5.724 5.724 0 0 0-.904 2.042 4.462 4.462 0 0 0-.09.71 23.722 23.722 0 0 0-22.57 18.44l-2.71 12.1a15.246 15.246 0 0 1-2.9 6.11l-5.39 6.85a5.067 5.067 0 0 0-.786 4.821 5.067 5.067 0 0 0 3.656 3.239l47.5 10.64a5.059 5.059 0 0 0 4.659-1.386 5.052 5.052 0 0 0 1.331-4.674zM125.35 209.83a2.247 2.247 0 0 0-2.042.574 2.255 2.255 0 0 0-.658 2.016 8.21 8.21 0 0 0 14.83 3.32 2.242 2.242 0 0 0 .264-2.099 2.249 2.249 0 0 0-1.594-1.391l-10.8-2.42zM88.87 193a1.48 1.48 0 0 1-1.25-.67 32.08 32.08 0 0 1 8.87-44.49 1.5 1.5 0 1 1 1.66 2.5 29.09 29.09 0 0 0-8 40.33 1.5 1.5 0 0 1-.41 2.08c-.257.17-.56.257-.87.25z" fill="#fff"/>
    <path d="M95.22 188.74a1.503 1.503 0 0 1-1.24-.67 24.45 24.45 0 0 1 6.75-33.89c.164-.11.348-.186.542-.224a1.502 1.502 0 0 1 1.128 2.724 21.429 21.429 0 0 0-5.93 29.72 1.5 1.5 0 0 1-.41 2.08c-.249.166-.54.257-.84.26z" fill="#fff"/>
    <path d="M101.581 184.49a1.472 1.472 0 0 1-1.24-.66 16.781 16.781 0 0 1 4.66-23.29 1.502 1.502 0 0 1 2.038.439 1.5 1.5 0 0 1-.368 2.051 13.79 13.79 0 0 0-3.81 19.13 1.512 1.512 0 0 1-.41 2.08c-.258.17-.561.257-.87.25zM175.35 214.09a1.502 1.502 0 0 1-1.454-1.144 1.508 1.508 0 0 1 .091-.975c.139-.305.376-.556.673-.711a29.091 29.091 0 0 0 12.5-39.18 1.488 1.488 0 0 1-.164-1.187 1.488 1.488 0 0 1 1.347-1.092 1.505 1.505 0 0 1 1.477.909 32.09 32.09 0 0 1 2.043 24.473 32.087 32.087 0 0 1-6.066 10.952A32.091 32.091 0 0 1 176 213.93a1.577 1.577 0 0 1-.65.16z" fill="#fff"/>
    <path d="M171.84 207.3a1.502 1.502 0 0 1-1.454-1.144 1.508 1.508 0 0 1 .091-.975c.139-.305.376-.556.673-.711a21.422 21.422 0 0 0 11.529-20.843 21.43 21.43 0 0 0-2.319-8.037 1.502 1.502 0 1 1 2.67-1.38 24.423 24.423 0 0 1-3.042 26.98 24.416 24.416 0 0 1-7.458 5.94 1.43 1.43 0 0 1-.69.17z" fill="#fff"/>
    <path d="M168.331 200.51a1.51 1.51 0 0 1-.69-2.84 13.772 13.772 0 0 0 5.93-18.57 1.502 1.502 0 1 1 2.67-1.38 16.812 16.812 0 0 1-7.24 22.62 1.533 1.533 0 0 1-.67.17z" fill="#fff"/>
    <path d="M263.779 332.52c-7.4-17.46-10.39-38-1.92-37.15 8.69.84 7.67 31.8 9.08 35.2-2.71 2.33-7.16 1.95-7.16 1.95z" fill="#B5CAF2"/>
    <path d="M266.179 299.39c-1.82 6.66-3.75 16.95-5.22 25.67.84 2.5 1.79 5 2.82 7.46 0 0 4.44.38 7.17-1.95-1.12-2.68-.72-22.52-4.77-31.18z" fill="#263238"/>
    <path d="M266.219 329.32c-2.32-37.1 4-71.49 20.64-69.94 14.28 1.34-6.54 63.8-6.14 71-6.54 2.54-14.5-1.06-14.5-1.06z" fill="#B5CAF2"/>
    <path d="M277 329.08c2.61-26.67 16.68-57.79 22.72-47.39 7.67 13.2-12 44.64-12.53 49.81-4.92 1.06-10.19-2.42-10.19-2.42z" fill="#B5CAF2"/>
    <path d="M274.455 268.797c-.047.273-.306.46-.573.385-1.38-.388-2.13-1.372-2.032-2.712.12-1.68 1.5-3.35 2.78-3.37.573 0 1.504.273 1.848 2.135a.479.479 0 0 1-.423.555.538.538 0 0 1-.58-.443c-.155-.792-.446-1.247-.815-1.247-.68 0-1.72 1.24-1.8 2.44-.059.851.337 1.383 1.189 1.646.266.082.453.337.406.611zM292.33 276a3.795 3.795 0 0 1-1.604-.504c-.232-.136-.282-.44-.135-.666a.55.55 0 0 1 .722-.169c.713.378 1.254.443 1.487.159.42-.54.13-2.12-.74-2.95-.588-.563-1.261-.618-2.002-.145-.249.159-.585.141-.777-.084-.172-.201-.173-.504.035-.668a2.619 2.619 0 0 1 2.552-.387c.329.127.63.318.882.564 1.22 1.16 1.63 3.28.83 4.29a1.477 1.477 0 0 1-1.25.56zM267.82 291.1a2.494 2.494 0 0 1-1.689-.504 2.496 2.496 0 0 1-.931-1.496c-.4-1.63.4-3.64 1.62-4.06.526-.175 1.504-.206 2.407 1.468a.48.48 0 0 1-.235.661.544.544 0 0 1-.691-.243c-.398-.705-.835-1.061-1.161-.936-.64.22-1.25 1.71-1 2.87.193.839.765 1.213 1.617 1.206.289-.002.558.187.6.473.041.271-.135.531-.408.553a5.58 5.58 0 0 1-.129.008zM257.17 311.81a2.421 2.421 0 0 1-2.29-1.49c-.7-1.53-.29-3.66.82-4.3.49-.277 1.449-.486 2.649.998a.475.475 0 0 1-.11.688.535.535 0 0 1-.711-.111c-.526-.629-1.008-.89-1.328-.705-.59.34-.91 1.92-.41 3 .348.755.961 1.042 1.829.868.276-.055.567.079.659.345.09.26-.042.548-.311.611-.26.06-.528.093-.797.096z" fill="#658CD8"/>
    <path d="M274.889 281.62a.523.523 0 0 1-.29-.09 2.945 2.945 0 0 1-1.34-1.568 2.934 2.934 0 0 1 .02-2.062 3.367 3.367 0 0 1 3.49-2c.62.11 2.07.66 2.17 3.32a.498.498 0 0 1-.5.5.5.5 0 0 1-.5-.5c-.06-1.39-.53-2.23-1.35-2.38a2.395 2.395 0 0 0-2.39 1.43c-.36.85 0 1.71 1 2.42a.497.497 0 0 1 .19.562.499.499 0 0 1-.48.348l-.02.02zM286.74 308.61a.48.48 0 0 1-.48-.4.48.48 0 0 1 .201-.514.49.49 0 0 1 .179-.076c1.36-.28 2.11-.89 2.13-1.72a2.413 2.413 0 0 0-1.81-2.12c-.9-.22-1.7.27-2.23 1.37a.515.515 0 0 1-.118.156.513.513 0 0 1-.363.124.5.5 0 0 1-.419-.72 2.998 2.998 0 0 1 3.36-1.91 3.396 3.396 0 0 1 2.58 3.11c0 .63-.32 2.15-2.92 2.69l-.11.01z" fill="#fff"/>
    <path d="M300.8 300.18c-.514 0-1.177-.267-1.919-1.224a.476.476 0 0 1 .123-.685.534.534 0 0 1 .712.124c.509.634.977.901 1.304.725.6-.32 1-1.9.47-3-.324-.758-.937-1.059-1.816-.903-.272.048-.553-.089-.639-.352-.086-.262.057-.548.328-.604 1.397-.285 2.517.265 3.047 1.469.67 1.54.22 3.66-.91 4.27a1.386 1.386 0 0 1-.7.18z" fill="#658CD8"/>
    <path d="M297.82 338.87a22.234 22.234 0 0 0-5.39-14.54 1.45 1.45 0 0 0 1.24-1.42 1.481 1.481 0 0 0-1.48-1.47h-33.48a1.459 1.459 0 0 0-.22 2.9 22.317 22.317 0 0 0-1.033 27.833A22.311 22.311 0 0 0 265 358.65a1.623 1.623 0 0 0-.832 1.826 1.623 1.623 0 0 0 1.582 1.234h19.39a1.63 1.63 0 0 0 1.62-1.62 1.64 1.64 0 0 0-.87-1.44 22.368 22.368 0 0 0 11.93-19.78z" fill="#263238"/>
</svg>
