<svg width="252" height="156" viewBox="0 0 252 156" fill="none" xmlns="http://www.w3.org/2000/svg">
<g clip-path="url(#clip0_405_759)">
<path d="M145.526 1.50427C147.07 2.90405 147.346 5.097 147.346 5.097C147.346 5.097 145.122 5.02377 143.577 3.62398C142.031 2.2242 141.756 0.03125 141.756 0.03125C141.756 0.03125 143.981 0.104487 145.526 1.50427Z" fill="#FFA728"/>
<path d="M134.667 53.0907C133.338 54.7862 133.257 56.7939 133.275 56.7939C133.275 56.8188 136.064 56.0422 137.319 54.1685C138.57 52.3224 137.961 50.4085 137.981 50.4141C137.972 50.4376 135.994 51.4118 134.667 53.0907Z" fill="#FFA728"/>
<path d="M136.624 58.9618C134.171 58.5473 133.256 56.7039 133.258 56.7205C133.286 56.7302 135.914 55.9757 138.178 56.2396C140.466 56.516 141.809 57.9296 141.809 57.9434C141.843 57.9517 139.104 59.386 136.624 58.9618Z" fill="#FFA728"/>
<path d="M139.517 50.9754C138.958 52.1616 138.76 53.4845 138.948 54.781C138.948 54.8072 141.401 53.5954 142.228 51.5765C143.062 49.5826 142.114 47.8332 142.131 47.8359C142.148 47.8387 140.428 49.1321 139.517 50.9754Z" fill="#FFA728"/>
<path d="M142.514 56.3143C141.833 56.3233 141.159 56.1844 140.538 55.9073C139.916 55.6302 139.364 55.2216 138.918 54.71C138.944 54.71 141.249 53.5506 143.447 53.4263C145.671 53.3102 147.222 54.4488 147.223 54.464C147.252 54.4668 144.921 56.3129 142.514 56.3143Z" fill="#FFA728"/>
<path d="M143.701 48.1063C143.395 49.3572 143.461 50.6694 143.889 51.8842C143.889 51.9104 145.994 50.3241 146.415 48.2279C146.84 46.1552 145.611 44.6172 145.627 44.6172C145.642 44.6172 144.223 46.1676 143.701 48.1063Z" fill="#FFA728"/>
<path d="M147.579 52.7708C146.925 52.8916 146.252 52.8696 145.608 52.7061C144.963 52.5427 144.362 52.2418 143.846 51.8243C143.871 51.8243 145.838 50.3125 147.93 49.8165C149.212 49.5205 150.556 49.6471 151.759 50.1771C151.788 50.1744 149.88 52.3618 147.579 52.7708Z" fill="#FFA728"/>
<path d="M147.196 44.6174C147.131 45.887 147.435 47.1485 148.073 48.2502C148.073 48.2751 149.815 46.3778 149.85 44.2664C149.893 42.1757 148.428 40.8934 148.443 40.8906C148.442 40.91 147.345 42.6455 147.196 44.6174Z" fill="#FFA728"/>
<path d="M151.797 48.4714C151.185 48.7007 150.529 48.7947 149.877 48.747C149.224 48.6993 148.59 48.5109 148.018 48.1951C148.04 48.1951 149.658 46.3877 151.602 45.5447C153.547 44.7018 155.386 45.2173 155.392 45.2311C155.418 45.2228 153.946 47.681 151.797 48.4714Z" fill="#FFA728"/>
<path d="M149.968 40.6117C150.126 41.8592 150.644 43.0343 151.461 43.9944C151.468 44.0179 152.823 41.8719 152.495 39.8047C152.167 37.7375 150.528 36.7647 150.542 36.7578C150.546 36.7758 149.769 38.6647 149.968 40.6117Z" fill="#FFA728"/>
<path d="M155.13 43.5666C154.574 43.8959 153.952 44.1012 153.308 44.1683C152.664 44.2353 152.013 44.1625 151.4 43.9549C151.42 43.9466 152.675 41.9112 154.432 40.7477C155.512 40.0421 156.792 39.7028 158.082 39.7804C158.106 39.7652 157.086 42.4211 155.13 43.5666Z" fill="#FFA728"/>
<path d="M151.99 36.2202C152.356 37.409 153.063 38.4656 154.025 39.2602C154.036 39.2823 154.998 36.9471 154.328 34.9766C153.658 33.0061 151.891 32.3484 151.904 32.3359C151.911 32.3594 151.466 34.352 151.99 36.2202Z" fill="#FFA728"/>
<path d="M157.543 38.1953C157.057 38.6154 156.485 38.9255 155.866 39.1042C155.248 39.2829 154.598 39.3259 153.961 39.2303C153.978 39.2207 154.857 37.0125 156.384 35.5602C157.91 34.1079 159.786 33.9504 159.796 33.9614C159.817 33.9476 159.262 36.7348 157.543 38.1953Z" fill="#FFA728"/>
<path d="M153.233 31.5514C153.786 32.654 154.657 33.568 155.735 34.1768C155.747 34.1976 156.291 31.7379 155.318 29.9195C154.345 28.101 152.488 27.7583 152.5 27.75C152.509 27.7652 152.407 29.8103 153.233 31.5514Z" fill="#FFA728"/>
<path d="M159.002 32.5082C158.599 33.0071 158.092 33.4135 157.516 33.6997C156.941 33.9859 156.309 34.1451 155.666 34.1664C155.681 34.1526 156.175 31.8325 157.424 30.1301C158.674 28.4277 160.482 27.9358 160.498 27.9455C160.517 27.9233 160.445 30.7685 159.002 32.5082Z" fill="#FFA728"/>
<path d="M153.664 26.7341C154.389 27.7236 155.398 28.4717 156.559 28.8801C156.576 28.8994 156.698 26.3762 155.426 24.7526C154.154 23.129 152.283 23.1151 152.293 23.1055C152.307 23.1151 152.561 25.163 153.664 26.7341Z" fill="#FFA728"/>
<path d="M159.471 26.6461C159.164 27.2085 158.737 27.6983 158.222 28.0822C157.706 28.4661 157.114 28.7351 156.484 28.8708C156.498 28.857 156.59 26.4803 157.523 24.572C158.455 22.6637 160.139 21.8512 160.151 21.8595C160.167 21.8401 160.592 24.6729 159.471 26.6461Z" fill="#FFA728"/>
<path d="M153.257 21.8836C154.135 22.7318 155.253 23.293 156.461 23.492C156.482 23.5072 156.167 20.984 154.628 19.5939C153.089 18.2038 151.254 18.5175 151.27 18.5092C151.281 18.5175 151.903 20.5211 153.257 21.8836Z" fill="#FFA728"/>
<path d="M158.927 20.7612C158.727 21.3718 158.397 21.9324 157.96 22.4051C157.523 22.8779 156.989 23.2517 156.393 23.5014C156.403 23.4848 156.083 21.1136 156.652 19.0464C157.22 16.9792 158.717 15.8682 158.737 15.8751C158.745 15.853 159.677 18.6028 158.927 20.7612Z" fill="#FFA728"/>
<path d="M151.982 17.1209C152.991 17.811 154.191 18.1726 155.416 18.1559C155.439 18.1684 154.671 15.7087 152.893 14.5853C152.375 14.2622 151.794 14.0509 151.189 13.9652C150.584 13.8795 149.967 13.9213 149.379 14.0878C149.4 14.0948 150.406 15.9989 151.982 17.1209Z" fill="#FFA728"/>
<path d="M157.326 14.9914C157.246 15.6326 157.029 16.2492 156.687 16.799C156.346 17.3489 155.89 17.8193 155.349 18.1779C155.356 18.1586 154.613 15.8509 154.77 13.6787C154.927 11.5065 156.175 10.1288 156.192 10.133C156.204 10.1095 157.665 12.7045 157.326 14.9914Z" fill="#FFA728"/>
<path d="M149.808 12.5763C150.924 13.0946 152.177 13.248 153.386 13.0144C153.414 13.024 152.175 10.6902 150.189 9.86383C149.621 9.62562 149.007 9.51148 148.391 9.52912C147.774 9.54676 147.169 9.69577 146.615 9.96608C146.635 9.96608 148.034 11.7155 149.808 12.5763Z" fill="#FFA728"/>
<path d="M154.632 9.49414C154.771 11.8308 153.305 13.0385 153.324 13.0399C153.344 13.0413 152.147 10.829 151.848 8.61806C151.549 6.40715 152.482 4.7918 152.501 4.79318C152.51 4.76693 154.503 7.13813 154.632 9.49414Z" fill="#FFA728"/>
<path d="M146.706 8.34585C147.904 8.68349 149.18 8.62431 150.341 8.17727C150.372 8.17727 148.651 6.03821 146.477 5.53247C145.87 5.38119 145.237 5.36569 144.624 5.48708C144.011 5.60847 143.432 5.86373 142.93 6.23443C142.957 6.23858 144.764 7.78483 146.706 8.34585Z" fill="#FFA728"/>
<path d="M150.819 4.41102C151.471 6.75044 150.263 8.22069 150.288 8.22069C150.313 8.22069 148.657 6.19633 147.854 3.99509C147.05 1.79385 147.605 0.000246258 147.626 0.000246258C147.633 -0.0260083 150.178 2.05087 150.819 4.41102Z" fill="#FFA728"/>
<path d="M125.416 57.4066L125.455 56.9783C129.028 57.2999 132.629 56.8999 136.043 55.8023C139.419 54.7201 142.559 53.01 145.293 50.7628C151.06 46.0536 154.779 39.3324 155.764 31.8319C156.572 25.6952 156.157 20.2246 154.533 15.5776C152.788 10.5864 149.683 6.68002 145.301 3.97027L145.529 3.60547C149.998 6.36911 153.165 10.3529 154.943 15.4394C156.588 20.1528 157.01 25.6869 156.194 31.8913C155.193 39.4913 151.42 46.3134 145.568 51.0986C142.789 53.3795 139.6 55.1146 136.169 56.2113C132.703 57.3269 129.045 57.7335 125.416 57.4066Z" fill="#FFA728"/>
<path d="M106.475 1.50427C104.93 2.90405 104.652 5.097 104.652 5.097C104.652 5.097 106.876 5.02377 108.422 3.62398C109.968 2.2242 110.244 0.03125 110.244 0.03125C110.244 0.03125 108.019 0.104487 106.475 1.50427Z" fill="#FFA728"/>
<path d="M117.332 53.0907C118.661 54.7862 118.745 56.7939 118.724 56.7939C118.724 56.8188 115.934 56.0422 114.68 54.1685C113.429 52.3224 114.037 50.4085 114.018 50.4141C114.025 50.4376 116.005 51.4118 117.332 53.0907Z" fill="#FFA728"/>
<path d="M115.374 58.9618C117.826 58.5473 118.741 56.7039 118.741 56.7205C118.712 56.7302 116.085 55.9757 113.82 56.2396C111.533 56.516 110.19 57.9296 110.19 57.9434C110.156 57.9517 112.895 59.386 115.374 58.9618Z" fill="#FFA728"/>
<path d="M112.489 50.9754C113.048 52.1616 113.246 53.4845 113.058 54.781C113.058 54.8072 110.604 53.5954 109.777 51.5765C108.943 49.5826 109.891 47.8332 109.873 47.8359C109.872 47.8539 111.569 49.1321 112.489 50.9754Z" fill="#FFA728"/>
<path d="M109.487 56.3143C110.168 56.323 110.842 56.184 111.463 55.9069C112.084 55.6298 112.637 55.2214 113.083 54.71C113.055 54.71 110.752 53.5506 108.554 53.4263C106.33 53.3102 104.779 54.4488 104.778 54.464C104.747 54.4668 107.078 56.3129 109.487 56.3143Z" fill="#FFA728"/>
<path d="M108.299 48.1063C108.605 49.3572 108.54 50.6694 108.111 51.8842C108.111 51.9104 106.007 50.3241 105.586 48.2279C105.16 46.1552 106.389 44.6172 106.372 44.6172C106.356 44.6172 107.778 46.1676 108.299 48.1063Z" fill="#FFA728"/>
<path d="M104.426 52.7709C105.08 52.8918 105.753 52.8697 106.398 52.7063C107.043 52.5428 107.644 52.2419 108.16 51.8244C108.135 51.8244 106.168 50.3127 104.076 49.8166C102.794 49.5204 101.45 49.647 100.247 50.1773C100.21 50.1745 102.119 52.3619 104.426 52.7709Z" fill="#FFA728"/>
<path d="M104.803 44.6174C104.87 45.8869 104.566 47.1485 103.928 48.2502C103.928 48.2751 102.187 46.3778 102.151 44.2664C102.11 42.1757 103.573 40.8934 103.559 40.8906C103.558 40.91 104.653 42.6455 104.803 44.6174Z" fill="#FFA728"/>
<path d="M100.202 48.4714C100.814 48.7006 101.47 48.7946 102.122 48.7468C102.775 48.6991 103.409 48.5108 103.981 48.1951C103.958 48.1951 102.341 46.3877 100.397 45.5447C98.452 44.7018 96.613 45.2173 96.6074 45.2311C96.6019 45.2449 98.053 47.681 100.202 48.4714Z" fill="#FFA728"/>
<path d="M102.031 40.6117C101.872 41.8595 101.353 43.0346 100.535 43.9944C100.535 44.0179 99.1732 41.8719 99.4998 39.8047C99.8265 37.7375 101.468 36.7647 101.454 36.7578C101.453 36.7758 102.231 38.6647 102.031 40.6117Z" fill="#FFA728"/>
<path d="M96.8707 43.5666C97.427 43.8959 98.0486 44.1012 98.6925 44.1683C99.3364 44.2353 99.9873 44.1625 100.6 43.9549C100.579 43.9466 99.3255 41.9112 97.5685 40.7477C96.4887 40.0421 95.2082 39.7028 93.9184 39.7804C93.8947 39.7652 94.915 42.4211 96.8707 43.5666Z" fill="#FFA728"/>
<path d="M100.009 36.2202C99.6427 37.409 98.9354 38.4656 97.9737 39.2602C97.9625 39.2823 97.0007 36.9471 97.6706 34.9766C98.3406 33.0061 100.107 32.3484 100.095 32.3359C100.086 32.3594 100.534 34.352 100.009 36.2202Z" fill="#FFA728"/>
<path d="M94.457 38.1953C94.9431 38.6154 95.5151 38.9255 96.1336 39.1042C96.752 39.2829 97.4022 39.3259 98.039 39.2303C98.0209 39.2207 97.1411 37.0125 95.6162 35.5602C94.0914 34.1079 92.2121 33.9504 92.2038 33.9614C92.1815 33.9476 92.7361 36.7348 94.457 38.1953Z" fill="#FFA728"/>
<path d="M98.7669 31.5514C98.2139 32.6543 97.3428 33.5683 96.2649 34.1768C96.2524 34.1976 95.7019 31.7379 96.6819 29.9195C97.6619 28.101 99.512 27.7583 99.5008 27.75C99.4911 27.7652 99.594 29.8103 98.7669 31.5514Z" fill="#FFA728"/>
<path d="M92.9982 32.5059C93.4013 33.0049 93.9081 33.4114 94.4839 33.6975C95.0597 33.9837 95.6909 34.1429 96.3343 34.1641C96.3176 34.1503 95.8255 31.8302 94.5745 30.1278C93.3235 28.4254 91.5123 27.928 91.4998 27.9376C91.4831 27.9211 91.5568 30.7662 92.9982 32.5059Z" fill="#FFA728"/>
<path d="M98.3344 26.7357C97.6099 27.7253 96.601 28.4734 95.4404 28.8817C95.4237 28.9011 95.3014 26.3779 96.5732 24.7542C97.8451 23.1306 99.716 23.1112 99.7008 23.1016C99.6924 23.1168 99.4367 25.1646 98.3344 26.7357Z" fill="#FFA728"/>
<path d="M92.5259 26.6461C92.8338 27.2085 93.26 27.6983 93.7755 28.0822C94.2909 28.4661 94.8836 28.7351 95.513 28.8708C95.4991 28.857 95.4074 26.4803 94.4747 24.572C93.542 22.6637 91.8587 21.8512 91.8448 21.8595C91.8281 21.8401 91.4083 24.6729 92.5259 26.6461Z" fill="#FFA728"/>
<path d="M98.741 21.8824C97.8612 22.732 96.7406 23.2933 95.5301 23.4908C95.5107 23.506 95.8248 20.9828 97.3649 19.5927C98.9051 18.2026 100.738 18.519 100.73 18.5079C100.718 18.5162 100.094 20.5199 98.741 21.8824Z" fill="#FFA728"/>
<path d="M93.072 20.7612C93.2726 21.3718 93.6029 21.9324 94.0403 22.4051C94.4777 22.8778 95.0121 23.2517 95.6073 23.5014C95.5976 23.4848 95.9173 21.1136 95.3488 19.0464C94.7803 16.9792 93.2832 15.8682 93.2638 15.8751C93.2541 15.853 92.3241 18.6028 93.072 20.7612Z" fill="#FFA728"/>
<path d="M100.017 17.1198C99.0077 17.8098 97.8076 18.1714 96.5826 18.1548C96.5589 18.1672 97.329 15.7076 99.1068 14.5842C99.6251 14.2624 100.206 14.0525 100.811 13.9679C101.416 13.8834 102.032 13.9263 102.619 14.0936C102.599 14.0936 101.594 15.9978 100.017 17.1198Z" fill="#FFA728"/>
<path d="M94.6743 14.9914C94.7537 15.6327 94.9713 16.2494 95.3125 16.7993C95.6536 17.3493 96.1102 17.8195 96.6509 18.1779C96.6426 18.1586 97.3876 15.8509 97.2306 13.6787C97.0735 11.5065 95.8239 10.1288 95.8086 10.133C95.7961 10.1095 94.3421 12.7045 94.6743 14.9914Z" fill="#FFA728"/>
<path d="M102.19 12.5724C101.075 13.0907 99.8225 13.2441 98.6137 13.0105C98.5859 13.0201 99.823 10.6862 101.811 9.85992C102.379 9.62171 102.992 9.50757 103.609 9.52521C104.225 9.54285 104.831 9.69186 105.384 9.96218C105.364 9.96218 103.964 11.7116 102.19 12.5724Z" fill="#FFA728"/>
<path d="M97.3667 9.49414C97.2277 11.8308 98.6942 13.0385 98.6747 13.0399C98.6553 13.0413 99.852 10.829 100.151 8.61806C100.45 6.40715 99.5157 4.7918 99.4976 4.79318C99.4879 4.76693 97.496 7.13813 97.3667 9.49414Z" fill="#FFA728"/>
<path d="M105.293 8.34585C104.096 8.68349 102.82 8.62431 101.659 8.17727C101.628 8.17727 103.349 6.03821 105.523 5.53247C106.13 5.38119 106.762 5.36569 107.376 5.48708C107.989 5.60847 108.568 5.86373 109.07 6.23443C109.042 6.23858 107.235 7.78483 105.293 8.34585Z" fill="#FFA728"/>
<path d="M101.182 4.41102C100.53 6.75044 101.738 8.22069 101.713 8.22069C101.688 8.22069 103.343 6.19633 104.149 3.99509C104.955 1.79385 104.394 0.000246258 104.374 0.000246258C104.368 -0.0260083 101.821 2.05087 101.182 4.41102Z" fill="#FFA728"/>
<path d="M126.584 57.4066L126.545 56.9783C122.974 57.2989 119.375 56.899 115.964 55.8023C112.585 54.7205 109.443 53.0104 106.707 50.7628C100.941 46.0536 97.2225 39.3324 96.237 31.8319C95.4294 25.6952 95.8436 20.2246 97.4686 15.5776C99.2116 10.5864 102.318 6.68002 106.7 3.97027L106.47 3.60547C101.996 6.37325 98.8294 10.3626 97.0516 15.4421C95.4058 20.1555 94.9846 25.6897 95.8005 31.8941C96.8014 39.4941 100.574 46.3162 106.426 51.1014C109.204 53.382 112.394 55.117 115.824 56.2141C119.293 57.3295 122.953 57.7351 126.584 57.4066Z" fill="#FFA728"/>
<path d="M125.871 55.2148L122.598 57.6082L125.871 60.0001L129.143 57.6082L125.871 55.2148Z" fill="#FFA728"/>
</g>
<path d="M39.6432 89V76.4H41.9832V87.02H48.5712V89H39.6432ZM54.4347 89.126C53.4507 89.126 52.5747 88.916 51.8067 88.496C51.0387 88.064 50.4327 87.476 49.9887 86.732C49.5447 85.988 49.3227 85.142 49.3227 84.194C49.3227 83.234 49.5447 82.388 49.9887 81.656C50.4327 80.912 51.0387 80.33 51.8067 79.91C52.5747 79.49 53.4507 79.28 54.4347 79.28C55.4307 79.28 56.3127 79.49 57.0807 79.91C57.8607 80.33 58.4667 80.906 58.8987 81.638C59.3427 82.37 59.5647 83.222 59.5647 84.194C59.5647 85.142 59.3427 85.988 58.8987 86.732C58.4667 87.476 57.8607 88.064 57.0807 88.496C56.3127 88.916 55.4307 89.126 54.4347 89.126ZM54.4347 87.2C54.9867 87.2 55.4787 87.08 55.9107 86.84C56.3427 86.6 56.6787 86.252 56.9187 85.796C57.1707 85.34 57.2967 84.806 57.2967 84.194C57.2967 83.57 57.1707 83.036 56.9187 82.592C56.6787 82.136 56.3427 81.788 55.9107 81.548C55.4787 81.308 54.9927 81.188 54.4527 81.188C53.9007 81.188 53.4087 81.308 52.9767 81.548C52.5567 81.788 52.2207 82.136 51.9687 82.592C51.7167 83.036 51.5907 83.57 51.5907 84.194C51.5907 84.806 51.7167 85.34 51.9687 85.796C52.2207 86.252 52.5567 86.6 52.9767 86.84C53.4087 87.08 53.8947 87.2 54.4347 87.2ZM61.7162 89V79.388H63.8582V82.034L63.6062 81.26C63.8942 80.612 64.3442 80.12 64.9562 79.784C65.5802 79.448 66.3542 79.28 67.2782 79.28V81.422C67.1822 81.398 67.0922 81.386 67.0082 81.386C66.9242 81.374 66.8402 81.368 66.7562 81.368C65.9042 81.368 65.2262 81.62 64.7222 82.124C64.2182 82.616 63.9662 83.354 63.9662 84.338V89H61.7162ZM73.617 89.126C72.549 89.126 71.613 88.916 70.809 88.496C70.017 88.064 69.399 87.476 68.955 86.732C68.523 85.988 68.307 85.142 68.307 84.194C68.307 83.234 68.517 82.388 68.937 81.656C69.369 80.912 69.957 80.33 70.701 79.91C71.457 79.49 72.315 79.28 73.275 79.28C74.211 79.28 75.045 79.484 75.777 79.892C76.509 80.3 77.085 80.876 77.505 81.62C77.925 82.364 78.135 83.24 78.135 84.248C78.135 84.344 78.129 84.452 78.117 84.572C78.117 84.692 78.111 84.806 78.099 84.914H70.089V83.42H76.911L76.029 83.888C76.041 83.336 75.927 82.85 75.687 82.43C75.447 82.01 75.117 81.68 74.697 81.44C74.289 81.2 73.815 81.08 73.275 81.08C72.723 81.08 72.237 81.2 71.817 81.44C71.409 81.68 71.085 82.016 70.845 82.448C70.617 82.868 70.503 83.366 70.503 83.942V84.302C70.503 84.878 70.635 85.388 70.899 85.832C71.163 86.276 71.535 86.618 72.015 86.858C72.495 87.098 73.047 87.218 73.671 87.218C74.211 87.218 74.697 87.134 75.129 86.966C75.561 86.798 75.945 86.534 76.281 86.174L77.487 87.56C77.055 88.064 76.509 88.454 75.849 88.73C75.201 88.994 74.457 89.126 73.617 89.126ZM92.4283 79.28C93.1963 79.28 93.8743 79.43 94.4623 79.73C95.0623 80.03 95.5303 80.492 95.8663 81.116C96.2023 81.728 96.3703 82.52 96.3703 83.492V89H94.1203V83.78C94.1203 82.928 93.9343 82.292 93.5623 81.872C93.1903 81.452 92.6563 81.242 91.9603 81.242C91.4683 81.242 91.0303 81.35 90.6463 81.566C90.2743 81.782 89.9803 82.1 89.7643 82.52C89.5603 82.94 89.4583 83.474 89.4583 84.122V89H87.2083V83.78C87.2083 82.928 87.0223 82.292 86.6503 81.872C86.2783 81.452 85.7443 81.242 85.0483 81.242C84.5563 81.242 84.1183 81.35 83.7343 81.566C83.3623 81.782 83.0683 82.1 82.8523 82.52C82.6483 82.94 82.5463 83.474 82.5463 84.122V89H80.2963V79.388H82.4383V81.944L82.0603 81.188C82.3843 80.564 82.8523 80.09 83.4643 79.766C84.0883 79.442 84.7963 79.28 85.5883 79.28C86.4883 79.28 87.2683 79.502 87.9283 79.946C88.6003 80.39 89.0443 81.062 89.2603 81.962L88.3783 81.656C88.6903 80.936 89.2063 80.36 89.9263 79.928C90.6463 79.496 91.4803 79.28 92.4283 79.28ZM104.22 89V79.388H106.47V89H104.22ZM105.354 77.804C104.934 77.804 104.586 77.672 104.31 77.408C104.046 77.144 103.914 76.826 103.914 76.454C103.914 76.07 104.046 75.752 104.31 75.5C104.586 75.236 104.934 75.104 105.354 75.104C105.774 75.104 106.116 75.23 106.38 75.482C106.656 75.722 106.794 76.028 106.794 76.4C106.794 76.796 106.662 77.132 106.398 77.408C106.134 77.672 105.786 77.804 105.354 77.804ZM114.751 89.126C113.971 89.126 113.257 88.946 112.609 88.586C111.973 88.226 111.463 87.686 111.079 86.966C110.707 86.234 110.521 85.31 110.521 84.194C110.521 83.066 110.701 82.142 111.061 81.422C111.433 80.702 111.937 80.168 112.573 79.82C113.209 79.46 113.935 79.28 114.751 79.28C115.699 79.28 116.533 79.484 117.253 79.892C117.985 80.3 118.561 80.87 118.981 81.602C119.413 82.334 119.629 83.198 119.629 84.194C119.629 85.19 119.413 86.06 118.981 86.804C118.561 87.536 117.985 88.106 117.253 88.514C116.533 88.922 115.699 89.126 114.751 89.126ZM109.423 92.492V79.388H111.565V81.656L111.493 84.212L111.673 86.768V92.492H109.423ZM114.499 87.2C115.039 87.2 115.519 87.08 115.939 86.84C116.371 86.6 116.713 86.252 116.965 85.796C117.217 85.34 117.343 84.806 117.343 84.194C117.343 83.57 117.217 83.036 116.965 82.592C116.713 82.136 116.371 81.788 115.939 81.548C115.519 81.308 115.039 81.188 114.499 81.188C113.959 81.188 113.473 81.308 113.041 81.548C112.609 81.788 112.267 82.136 112.015 82.592C111.763 83.036 111.637 83.57 111.637 84.194C111.637 84.806 111.763 85.34 112.015 85.796C112.267 86.252 112.609 86.6 113.041 86.84C113.473 87.08 113.959 87.2 114.499 87.2ZM124.733 89.126C123.929 89.126 123.155 89.024 122.411 88.82C121.679 88.604 121.097 88.346 120.665 88.046L121.529 86.336C121.961 86.612 122.477 86.84 123.077 87.02C123.677 87.2 124.277 87.29 124.877 87.29C125.585 87.29 126.095 87.194 126.407 87.002C126.731 86.81 126.893 86.552 126.893 86.228C126.893 85.964 126.785 85.766 126.569 85.634C126.353 85.49 126.071 85.382 125.723 85.31C125.375 85.238 124.985 85.172 124.553 85.112C124.133 85.052 123.707 84.974 123.275 84.878C122.855 84.77 122.471 84.62 122.123 84.428C121.775 84.224 121.493 83.954 121.277 83.618C121.061 83.282 120.953 82.838 120.953 82.286C120.953 81.674 121.127 81.146 121.475 80.702C121.823 80.246 122.309 79.898 122.933 79.658C123.569 79.406 124.319 79.28 125.183 79.28C125.831 79.28 126.485 79.352 127.145 79.496C127.805 79.64 128.351 79.844 128.783 80.108L127.919 81.818C127.463 81.542 127.001 81.356 126.533 81.26C126.077 81.152 125.621 81.098 125.165 81.098C124.481 81.098 123.971 81.2 123.635 81.404C123.311 81.608 123.149 81.866 123.149 82.178C123.149 82.466 123.257 82.682 123.473 82.826C123.689 82.97 123.971 83.084 124.319 83.168C124.667 83.252 125.051 83.324 125.471 83.384C125.903 83.432 126.329 83.51 126.749 83.618C127.169 83.726 127.553 83.876 127.901 84.068C128.261 84.248 128.549 84.506 128.765 84.842C128.981 85.178 129.089 85.616 129.089 86.156C129.089 86.756 128.909 87.278 128.549 87.722C128.201 88.166 127.703 88.514 127.055 88.766C126.407 89.006 125.633 89.126 124.733 89.126ZM135.095 89.126C134.279 89.126 133.559 88.976 132.935 88.676C132.311 88.364 131.825 87.896 131.477 87.272C131.129 86.636 130.955 85.838 130.955 84.878V79.388H133.205V84.572C133.205 85.436 133.397 86.084 133.781 86.516C134.177 86.936 134.735 87.146 135.455 87.146C135.983 87.146 136.439 87.038 136.823 86.822C137.219 86.606 137.525 86.282 137.741 85.85C137.969 85.418 138.083 84.884 138.083 84.248V79.388H140.333V89H138.191V86.408L138.569 87.2C138.245 87.824 137.771 88.304 137.147 88.64C136.523 88.964 135.839 89.126 135.095 89.126ZM155.411 79.28C156.179 79.28 156.857 79.43 157.445 79.73C158.045 80.03 158.513 80.492 158.849 81.116C159.185 81.728 159.353 82.52 159.353 83.492V89H157.103V83.78C157.103 82.928 156.917 82.292 156.545 81.872C156.173 81.452 155.639 81.242 154.943 81.242C154.451 81.242 154.013 81.35 153.629 81.566C153.257 81.782 152.963 82.1 152.747 82.52C152.543 82.94 152.441 83.474 152.441 84.122V89H150.191V83.78C150.191 82.928 150.005 82.292 149.633 81.872C149.261 81.452 148.727 81.242 148.031 81.242C147.539 81.242 147.101 81.35 146.717 81.566C146.345 81.782 146.051 82.1 145.835 82.52C145.631 82.94 145.529 83.474 145.529 84.122V89H143.279V79.388H145.421V81.944L145.043 81.188C145.367 80.564 145.835 80.09 146.447 79.766C147.071 79.442 147.779 79.28 148.571 79.28C149.471 79.28 150.251 79.502 150.911 79.946C151.583 80.39 152.027 81.062 152.243 81.962L151.361 81.656C151.673 80.936 152.189 80.36 152.909 79.928C153.629 79.496 154.463 79.28 155.411 79.28ZM171.271 89.126C170.347 89.126 169.513 88.922 168.769 88.514C168.037 88.094 167.461 87.518 167.041 86.786C166.621 86.054 166.411 85.19 166.411 84.194C166.411 83.198 166.621 82.334 167.041 81.602C167.461 80.87 168.037 80.3 168.769 79.892C169.513 79.484 170.347 79.28 171.271 79.28C172.075 79.28 172.795 79.46 173.431 79.82C174.067 80.168 174.571 80.702 174.943 81.422C175.315 82.142 175.501 83.066 175.501 84.194C175.501 85.31 175.321 86.234 174.961 86.966C174.601 87.686 174.103 88.226 173.467 88.586C172.831 88.946 172.099 89.126 171.271 89.126ZM171.541 87.2C172.081 87.2 172.561 87.08 172.981 86.84C173.413 86.6 173.755 86.252 174.007 85.796C174.271 85.34 174.403 84.806 174.403 84.194C174.403 83.57 174.271 83.036 174.007 82.592C173.755 82.136 173.413 81.788 172.981 81.548C172.561 81.308 172.081 81.188 171.541 81.188C171.001 81.188 170.515 81.308 170.083 81.548C169.663 81.788 169.321 82.136 169.057 82.592C168.805 83.036 168.679 83.57 168.679 84.194C168.679 84.806 168.805 85.34 169.057 85.796C169.321 86.252 169.663 86.6 170.083 86.84C170.515 87.08 171.001 87.2 171.541 87.2ZM174.457 89V86.732L174.547 84.176L174.367 81.62V75.644H176.599V89H174.457ZM183.88 89.126C182.896 89.126 182.02 88.916 181.252 88.496C180.484 88.064 179.878 87.476 179.434 86.732C178.99 85.988 178.768 85.142 178.768 84.194C178.768 83.234 178.99 82.388 179.434 81.656C179.878 80.912 180.484 80.33 181.252 79.91C182.02 79.49 182.896 79.28 183.88 79.28C184.876 79.28 185.758 79.49 186.526 79.91C187.306 80.33 187.912 80.906 188.344 81.638C188.788 82.37 189.01 83.222 189.01 84.194C189.01 85.142 188.788 85.988 188.344 86.732C187.912 87.476 187.306 88.064 186.526 88.496C185.758 88.916 184.876 89.126 183.88 89.126ZM183.88 87.2C184.432 87.2 184.924 87.08 185.356 86.84C185.788 86.6 186.124 86.252 186.364 85.796C186.616 85.34 186.742 84.806 186.742 84.194C186.742 83.57 186.616 83.036 186.364 82.592C186.124 82.136 185.788 81.788 185.356 81.548C184.924 81.308 184.438 81.188 183.898 81.188C183.346 81.188 182.854 81.308 182.422 81.548C182.002 81.788 181.666 82.136 181.414 82.592C181.162 83.036 181.036 83.57 181.036 84.194C181.036 84.806 181.162 85.34 181.414 85.796C181.666 86.252 182.002 86.6 182.422 86.84C182.854 87.08 183.34 87.2 183.88 87.2ZM191.162 89V75.644H193.412V89H191.162ZM200.685 89.126C199.701 89.126 198.825 88.916 198.057 88.496C197.289 88.064 196.683 87.476 196.239 86.732C195.795 85.988 195.573 85.142 195.573 84.194C195.573 83.234 195.795 82.388 196.239 81.656C196.683 80.912 197.289 80.33 198.057 79.91C198.825 79.49 199.701 79.28 200.685 79.28C201.681 79.28 202.563 79.49 203.331 79.91C204.111 80.33 204.717 80.906 205.149 81.638C205.593 82.37 205.815 83.222 205.815 84.194C205.815 85.142 205.593 85.988 205.149 86.732C204.717 87.476 204.111 88.064 203.331 88.496C202.563 88.916 201.681 89.126 200.685 89.126ZM200.685 87.2C201.237 87.2 201.729 87.08 202.161 86.84C202.593 86.6 202.929 86.252 203.169 85.796C203.421 85.34 203.547 84.806 203.547 84.194C203.547 83.57 203.421 83.036 203.169 82.592C202.929 82.136 202.593 81.788 202.161 81.548C201.729 81.308 201.243 81.188 200.703 81.188C200.151 81.188 199.659 81.308 199.227 81.548C198.807 81.788 198.471 82.136 198.219 82.592C197.967 83.036 197.841 83.57 197.841 84.194C197.841 84.806 197.967 85.34 198.219 85.796C198.471 86.252 198.807 86.6 199.227 86.84C199.659 87.08 200.145 87.2 200.685 87.2ZM207.966 89V79.388H210.108V82.034L209.856 81.26C210.144 80.612 210.594 80.12 211.206 79.784C211.83 79.448 212.604 79.28 213.528 79.28V81.422C213.432 81.398 213.342 81.386 213.258 81.386C213.174 81.374 213.09 81.368 213.006 81.368C212.154 81.368 211.476 81.62 210.972 82.124C210.468 82.616 210.216 83.354 210.216 84.338V89H207.966ZM92.5476 116.126C91.7436 116.126 90.9696 116.024 90.2256 115.82C89.4936 115.604 88.9116 115.346 88.4796 115.046L89.3436 113.336C89.7756 113.612 90.2916 113.84 90.8916 114.02C91.4916 114.2 92.0916 114.29 92.6916 114.29C93.3996 114.29 93.9096 114.194 94.2216 114.002C94.5456 113.81 94.7076 113.552 94.7076 113.228C94.7076 112.964 94.5996 112.766 94.3836 112.634C94.1676 112.49 93.8856 112.382 93.5376 112.31C93.1896 112.238 92.7996 112.172 92.3676 112.112C91.9476 112.052 91.5216 111.974 91.0896 111.878C90.6696 111.77 90.2856 111.62 89.9376 111.428C89.5896 111.224 89.3076 110.954 89.0916 110.618C88.8756 110.282 88.7676 109.838 88.7676 109.286C88.7676 108.674 88.9416 108.146 89.2896 107.702C89.6376 107.246 90.1236 106.898 90.7476 106.658C91.3836 106.406 92.1336 106.28 92.9976 106.28C93.6456 106.28 94.2996 106.352 94.9596 106.496C95.6196 106.64 96.1656 106.844 96.5976 107.108L95.7336 108.818C95.2776 108.542 94.8156 108.356 94.3476 108.26C93.8916 108.152 93.4356 108.098 92.9796 108.098C92.2956 108.098 91.7856 108.2 91.4496 108.404C91.1256 108.608 90.9636 108.866 90.9636 109.178C90.9636 109.466 91.0716 109.682 91.2876 109.826C91.5036 109.97 91.7856 110.084 92.1336 110.168C92.4816 110.252 92.8656 110.324 93.2856 110.384C93.7176 110.432 94.1436 110.51 94.5636 110.618C94.9836 110.726 95.3676 110.876 95.7156 111.068C96.0756 111.248 96.3636 111.506 96.5796 111.842C96.7956 112.178 96.9036 112.616 96.9036 113.156C96.9036 113.756 96.7236 114.278 96.3636 114.722C96.0156 115.166 95.5176 115.514 94.8696 115.766C94.2216 116.006 93.4476 116.126 92.5476 116.126ZM98.8412 116V106.388H101.091V116H98.8412ZM99.9752 104.804C99.5552 104.804 99.2072 104.672 98.9312 104.408C98.6672 104.144 98.5352 103.826 98.5352 103.454C98.5352 103.07 98.6672 102.752 98.9312 102.5C99.2072 102.236 99.5552 102.104 99.9752 102.104C100.395 102.104 100.737 102.23 101.001 102.482C101.277 102.722 101.415 103.028 101.415 103.4C101.415 103.796 101.283 104.132 101.019 104.408C100.755 104.672 100.407 104.804 99.9752 104.804ZM107.662 116.126C106.606 116.126 105.79 115.856 105.214 115.316C104.638 114.764 104.35 113.954 104.35 112.886V104.264H106.6V112.832C106.6 113.288 106.714 113.642 106.942 113.894C107.182 114.146 107.512 114.272 107.932 114.272C108.436 114.272 108.856 114.14 109.192 113.876L109.822 115.478C109.558 115.694 109.234 115.856 108.85 115.964C108.466 116.072 108.07 116.126 107.662 116.126ZM102.766 108.26V106.46H109.174V108.26H102.766ZM122.57 116V114.056L122.444 113.642V110.24C122.444 109.58 122.246 109.07 121.85 108.71C121.454 108.338 120.854 108.152 120.05 108.152C119.51 108.152 118.976 108.236 118.448 108.404C117.932 108.572 117.494 108.806 117.134 109.106L116.252 107.468C116.768 107.072 117.38 106.778 118.088 106.586C118.808 106.382 119.552 106.28 120.32 106.28C121.712 106.28 122.786 106.616 123.542 107.288C124.31 107.948 124.694 108.974 124.694 110.366V116H122.57ZM119.546 116.126C118.826 116.126 118.196 116.006 117.656 115.766C117.116 115.514 116.696 115.172 116.396 114.74C116.108 114.296 115.964 113.798 115.964 113.246C115.964 112.706 116.09 112.22 116.342 111.788C116.606 111.356 117.032 111.014 117.62 110.762C118.208 110.51 118.988 110.384 119.96 110.384H122.75V111.878H120.122C119.354 111.878 118.838 112.004 118.574 112.256C118.31 112.496 118.178 112.796 118.178 113.156C118.178 113.564 118.34 113.888 118.664 114.128C118.988 114.368 119.438 114.488 120.014 114.488C120.566 114.488 121.058 114.362 121.49 114.11C121.934 113.858 122.252 113.486 122.444 112.994L122.822 114.344C122.606 114.908 122.216 115.346 121.652 115.658C121.1 115.97 120.398 116.126 119.546 116.126ZM139.713 106.28C140.481 106.28 141.159 106.43 141.747 106.73C142.347 107.03 142.815 107.492 143.151 108.116C143.487 108.728 143.655 109.52 143.655 110.492V116H141.405V110.78C141.405 109.928 141.219 109.292 140.847 108.872C140.475 108.452 139.941 108.242 139.245 108.242C138.753 108.242 138.315 108.35 137.931 108.566C137.559 108.782 137.265 109.1 137.049 109.52C136.845 109.94 136.743 110.474 136.743 111.122V116H134.493V110.78C134.493 109.928 134.307 109.292 133.935 108.872C133.563 108.452 133.029 108.242 132.333 108.242C131.841 108.242 131.403 108.35 131.019 108.566C130.647 108.782 130.353 109.1 130.137 109.52C129.933 109.94 129.831 110.474 129.831 111.122V116H127.581V106.388H129.723V108.944L129.345 108.188C129.669 107.564 130.137 107.09 130.749 106.766C131.373 106.442 132.081 106.28 132.873 106.28C133.773 106.28 134.553 106.502 135.213 106.946C135.885 107.39 136.329 108.062 136.545 108.962L135.663 108.656C135.975 107.936 136.491 107.36 137.211 106.928C137.931 106.496 138.765 106.28 139.713 106.28ZM151.066 116.126C149.998 116.126 149.062 115.916 148.258 115.496C147.466 115.064 146.848 114.476 146.404 113.732C145.972 112.988 145.756 112.142 145.756 111.194C145.756 110.234 145.966 109.388 146.386 108.656C146.818 107.912 147.406 107.33 148.15 106.91C148.906 106.49 149.764 106.28 150.724 106.28C151.66 106.28 152.494 106.484 153.226 106.892C153.958 107.3 154.534 107.876 154.954 108.62C155.374 109.364 155.584 110.24 155.584 111.248C155.584 111.344 155.578 111.452 155.566 111.572C155.566 111.692 155.56 111.806 155.548 111.914H147.538V110.42H154.36L153.478 110.888C153.49 110.336 153.376 109.85 153.136 109.43C152.896 109.01 152.566 108.68 152.146 108.44C151.738 108.2 151.264 108.08 150.724 108.08C150.172 108.08 149.686 108.2 149.266 108.44C148.858 108.68 148.534 109.016 148.294 109.448C148.066 109.868 147.952 110.366 147.952 110.942V111.302C147.952 111.878 148.084 112.388 148.348 112.832C148.612 113.276 148.984 113.618 149.464 113.858C149.944 114.098 150.496 114.218 151.12 114.218C151.66 114.218 152.146 114.134 152.578 113.966C153.01 113.798 153.394 113.534 153.73 113.174L154.936 114.56C154.504 115.064 153.958 115.454 153.298 115.73C152.65 115.994 151.906 116.126 151.066 116.126ZM161.364 116.126C160.308 116.126 159.492 115.856 158.916 115.316C158.34 114.764 158.052 113.954 158.052 112.886V104.264H160.302V112.832C160.302 113.288 160.416 113.642 160.644 113.894C160.884 114.146 161.214 114.272 161.634 114.272C162.138 114.272 162.558 114.14 162.894 113.876L163.524 115.478C163.26 115.694 162.936 115.856 162.552 115.964C162.168 116.072 161.772 116.126 161.364 116.126ZM156.468 108.26V106.46H162.876V108.26H156.468Z" fill="#001F47"/>
<path d="M60.8729 150.096C60.0409 150.096 59.2409 149.963 58.4729 149.696C57.7156 149.419 57.1289 149.067 56.7129 148.64L57.1769 147.728C57.5716 148.112 58.0996 148.437 58.7609 148.704C59.4329 148.96 60.1369 149.088 60.8729 149.088C61.5769 149.088 62.1476 149.003 62.5849 148.832C63.0329 148.651 63.3583 148.411 63.5609 148.112C63.7743 147.813 63.8809 147.483 63.8809 147.12C63.8809 146.683 63.7529 146.331 63.4969 146.064C63.2516 145.797 62.9263 145.589 62.5209 145.44C62.1156 145.28 61.6676 145.141 61.1769 145.024C60.6863 144.907 60.1956 144.784 59.7049 144.656C59.2143 144.517 58.7609 144.336 58.3449 144.112C57.9396 143.888 57.6089 143.595 57.3529 143.232C57.1076 142.859 56.9849 142.373 56.9849 141.776C56.9849 141.221 57.1289 140.715 57.4169 140.256C57.7156 139.787 58.1689 139.413 58.7769 139.136C59.3849 138.848 60.1636 138.704 61.1129 138.704C61.7423 138.704 62.3663 138.795 62.9849 138.976C63.6036 139.147 64.1369 139.387 64.5849 139.696L64.1849 140.64C63.7049 140.32 63.1929 140.085 62.6489 139.936C62.1156 139.787 61.5983 139.712 61.0969 139.712C60.4249 139.712 59.8703 139.803 59.4329 139.984C58.9956 140.165 58.6703 140.411 58.4569 140.72C58.2543 141.019 58.1529 141.36 58.1529 141.744C58.1529 142.181 58.2756 142.533 58.5209 142.8C58.7769 143.067 59.1076 143.275 59.5129 143.424C59.9289 143.573 60.3823 143.707 60.8729 143.824C61.3636 143.941 61.8489 144.069 62.3289 144.208C62.8196 144.347 63.2676 144.528 63.6729 144.752C64.0889 144.965 64.4196 145.253 64.6649 145.616C64.9209 145.979 65.0489 146.453 65.0489 147.04C65.0489 147.584 64.8996 148.091 64.6009 148.56C64.3023 149.019 63.8436 149.392 63.2249 149.68C62.6169 149.957 61.8329 150.096 60.8729 150.096ZM67.3887 150V141.6H68.5247V150H67.3887ZM67.9647 139.744C67.73 139.744 67.5327 139.664 67.3727 139.504C67.2127 139.344 67.1327 139.152 67.1327 138.928C67.1327 138.704 67.2127 138.517 67.3727 138.368C67.5327 138.208 67.73 138.128 67.9647 138.128C68.1994 138.128 68.3967 138.203 68.5567 138.352C68.7167 138.501 68.7967 138.688 68.7967 138.912C68.7967 139.147 68.7167 139.344 68.5567 139.504C68.4074 139.664 68.21 139.744 67.9647 139.744ZM71.6856 150V138.128H72.8216V150H71.6856ZM75.9824 150V141.6H77.1184V150H75.9824ZM76.5584 139.744C76.3238 139.744 76.1264 139.664 75.9664 139.504C75.8064 139.344 75.7264 139.152 75.7264 138.928C75.7264 138.704 75.8064 138.517 75.9664 138.368C76.1264 138.208 76.3238 138.128 76.5584 138.128C76.7931 138.128 76.9904 138.203 77.1504 138.352C77.3104 138.501 77.3904 138.688 77.3904 138.912C77.3904 139.147 77.3104 139.344 77.1504 139.504C77.0011 139.664 76.8038 139.744 76.5584 139.744ZM83.7673 150.08C82.9353 150.08 82.1886 149.899 81.5273 149.536C80.8766 149.163 80.3646 148.656 79.9913 148.016C79.618 147.365 79.4313 146.624 79.4313 145.792C79.4313 144.949 79.618 144.208 79.9913 143.568C80.3646 142.928 80.8766 142.427 81.5273 142.064C82.1886 141.701 82.9353 141.52 83.7673 141.52C84.482 141.52 85.1273 141.659 85.7033 141.936C86.2793 142.213 86.7326 142.629 87.0633 143.184L86.2153 143.76C85.9273 143.333 85.57 143.019 85.1433 142.816C84.7166 142.613 84.2526 142.512 83.7513 142.512C83.154 142.512 82.6153 142.651 82.1353 142.928C81.6553 143.195 81.2766 143.573 80.9993 144.064C80.722 144.555 80.5833 145.131 80.5833 145.792C80.5833 146.453 80.722 147.029 80.9993 147.52C81.2766 148.011 81.6553 148.395 82.1353 148.672C82.6153 148.939 83.154 149.072 83.7513 149.072C84.2526 149.072 84.7166 148.971 85.1433 148.768C85.57 148.565 85.9273 148.256 86.2153 147.84L87.0633 148.416C86.7326 148.96 86.2793 149.376 85.7033 149.664C85.1273 149.941 84.482 150.08 83.7673 150.08ZM92.5783 150.08C91.7676 150.08 91.037 149.899 90.3863 149.536C89.7463 149.163 89.2396 148.656 88.8663 148.016C88.493 147.365 88.3063 146.624 88.3063 145.792C88.3063 144.949 88.493 144.208 88.8663 143.568C89.2396 142.928 89.7463 142.427 90.3863 142.064C91.0263 141.701 91.757 141.52 92.5783 141.52C93.4103 141.52 94.1463 141.701 94.7863 142.064C95.437 142.427 95.9436 142.928 96.3063 143.568C96.6796 144.208 96.8663 144.949 96.8663 145.792C96.8663 146.624 96.6796 147.365 96.3063 148.016C95.9436 148.656 95.437 149.163 94.7863 149.536C94.1356 149.899 93.3996 150.08 92.5783 150.08ZM92.5783 149.072C93.1863 149.072 93.725 148.939 94.1943 148.672C94.6636 148.395 95.0316 148.011 95.2983 147.52C95.5756 147.019 95.7143 146.443 95.7143 145.792C95.7143 145.131 95.5756 144.555 95.2983 144.064C95.0316 143.573 94.6636 143.195 94.1943 142.928C93.725 142.651 93.1916 142.512 92.5943 142.512C91.997 142.512 91.4636 142.651 90.9943 142.928C90.525 143.195 90.1516 143.573 89.8743 144.064C89.597 144.555 89.4583 145.131 89.4583 145.792C89.4583 146.443 89.597 147.019 89.8743 147.52C90.1516 148.011 90.525 148.395 90.9943 148.672C91.4636 148.939 91.9916 149.072 92.5783 149.072ZM103.474 141.52C104.156 141.52 104.754 141.653 105.266 141.92C105.788 142.176 106.194 142.571 106.482 143.104C106.78 143.637 106.93 144.309 106.93 145.12V150H105.794V145.232C105.794 144.347 105.57 143.68 105.122 143.232C104.684 142.773 104.066 142.544 103.266 142.544C102.668 142.544 102.146 142.667 101.698 142.912C101.26 143.147 100.919 143.493 100.674 143.952C100.439 144.4 100.322 144.944 100.322 145.584V150H99.1856V141.6H100.274V143.904L100.098 143.472C100.364 142.864 100.791 142.389 101.378 142.048C101.964 141.696 102.663 141.52 103.474 141.52ZM114.426 150V138.8H115.61V150H114.426ZM123.302 141.52C123.984 141.52 124.582 141.653 125.094 141.92C125.616 142.176 126.022 142.571 126.31 143.104C126.608 143.637 126.758 144.309 126.758 145.12V150H125.622V145.232C125.622 144.347 125.398 143.68 124.95 143.232C124.512 142.773 123.894 142.544 123.094 142.544C122.496 142.544 121.974 142.667 121.526 142.912C121.088 143.147 120.747 143.493 120.502 143.952C120.267 144.4 120.15 144.944 120.15 145.584V150H119.014V141.6H120.102V143.904L119.926 143.472C120.192 142.864 120.619 142.389 121.206 142.048C121.792 141.696 122.491 141.52 123.302 141.52ZM133.17 150.08C132.37 150.08 131.65 149.899 131.01 149.536C130.381 149.173 129.885 148.672 129.522 148.032C129.16 147.381 128.978 146.635 128.978 145.792C128.978 144.939 129.16 144.192 129.522 143.552C129.885 142.912 130.381 142.416 131.01 142.064C131.65 141.701 132.37 141.52 133.17 141.52C133.906 141.52 134.562 141.685 135.138 142.016C135.725 142.347 136.189 142.832 136.53 143.472C136.882 144.101 137.058 144.875 137.058 145.792C137.058 146.699 136.888 147.472 136.546 148.112C136.205 148.752 135.741 149.243 135.154 149.584C134.578 149.915 133.917 150.08 133.17 150.08ZM133.25 149.072C133.848 149.072 134.381 148.939 134.85 148.672C135.33 148.395 135.704 148.011 135.97 147.52C136.248 147.019 136.386 146.443 136.386 145.792C136.386 145.131 136.248 144.555 135.97 144.064C135.704 143.573 135.33 143.195 134.85 142.928C134.381 142.651 133.848 142.512 133.25 142.512C132.664 142.512 132.136 142.651 131.666 142.928C131.197 143.195 130.824 143.573 130.546 144.064C130.269 144.555 130.13 145.131 130.13 145.792C130.13 146.443 130.269 147.019 130.546 147.52C130.824 148.011 131.197 148.395 131.666 148.672C132.136 148.939 132.664 149.072 133.25 149.072ZM136.418 150V147.472L136.53 145.776L136.37 144.08V138.128H137.506V150H136.418ZM140.67 150V141.6H141.806V150H140.67ZM141.246 139.744C141.011 139.744 140.814 139.664 140.654 139.504C140.494 139.344 140.414 139.152 140.414 138.928C140.414 138.704 140.494 138.517 140.654 138.368C140.814 138.208 141.011 138.128 141.246 138.128C141.481 138.128 141.678 138.203 141.838 138.352C141.998 138.501 142.078 138.688 142.078 138.912C142.078 139.147 141.998 139.344 141.838 139.504C141.689 139.664 141.491 139.744 141.246 139.744ZM150.231 150V148.144L150.183 147.84V144.736C150.183 144.021 149.98 143.472 149.575 143.088C149.18 142.704 148.588 142.512 147.799 142.512C147.255 142.512 146.737 142.603 146.247 142.784C145.756 142.965 145.34 143.205 144.999 143.504L144.487 142.656C144.913 142.293 145.425 142.016 146.023 141.824C146.62 141.621 147.249 141.52 147.911 141.52C148.999 141.52 149.836 141.792 150.423 142.336C151.02 142.869 151.319 143.685 151.319 144.784V150H150.231ZM147.335 150.08C146.705 150.08 146.156 149.979 145.687 149.776C145.228 149.563 144.876 149.275 144.631 148.912C144.385 148.539 144.263 148.112 144.263 147.632C144.263 147.195 144.364 146.8 144.567 146.448C144.78 146.085 145.121 145.797 145.591 145.584C146.071 145.36 146.711 145.248 147.511 145.248H150.407V146.096H147.543C146.732 146.096 146.167 146.24 145.847 146.528C145.537 146.816 145.383 147.173 145.383 147.6C145.383 148.08 145.569 148.464 145.943 148.752C146.316 149.04 146.839 149.184 147.511 149.184C148.151 149.184 148.7 149.04 149.159 148.752C149.628 148.453 149.969 148.027 150.183 147.472L150.439 148.256C150.225 148.811 149.852 149.253 149.319 149.584C148.796 149.915 148.135 150.08 147.335 150.08ZM153.716 152.336L154.42 149.376L154.548 150.064C154.303 150.064 154.095 149.984 153.924 149.824C153.764 149.664 153.684 149.456 153.684 149.2C153.684 148.944 153.764 148.736 153.924 148.576C154.095 148.416 154.298 148.336 154.532 148.336C154.778 148.336 154.975 148.421 155.124 148.592C155.284 148.763 155.364 148.965 155.364 149.2C155.364 149.285 155.359 149.371 155.348 149.456C155.338 149.541 155.316 149.637 155.284 149.744C155.252 149.851 155.21 149.979 155.156 150.128L154.484 152.336H153.716ZM161.022 150V149.184L165.678 144.624C166.105 144.208 166.425 143.845 166.638 143.536C166.852 143.216 166.996 142.917 167.07 142.64C167.145 142.363 167.182 142.101 167.182 141.856C167.182 141.205 166.958 140.693 166.51 140.32C166.073 139.947 165.422 139.76 164.558 139.76C163.897 139.76 163.31 139.861 162.798 140.064C162.297 140.267 161.865 140.581 161.502 141.008L160.686 140.304C161.124 139.792 161.684 139.397 162.366 139.12C163.049 138.843 163.812 138.704 164.654 138.704C165.412 138.704 166.068 138.827 166.622 139.072C167.177 139.307 167.604 139.653 167.902 140.112C168.212 140.571 168.366 141.109 168.366 141.728C168.366 142.091 168.313 142.448 168.206 142.8C168.11 143.152 167.929 143.525 167.662 143.92C167.406 144.304 167.028 144.741 166.526 145.232L162.254 149.424L161.934 148.976H168.878V150H161.022ZM174.757 150.096C173.893 150.096 173.125 149.872 172.453 149.424C171.781 148.965 171.253 148.315 170.869 147.472C170.485 146.619 170.293 145.595 170.293 144.4C170.293 143.205 170.485 142.187 170.869 141.344C171.253 140.491 171.781 139.84 172.453 139.392C173.125 138.933 173.893 138.704 174.757 138.704C175.621 138.704 176.389 138.933 177.061 139.392C177.733 139.84 178.261 140.491 178.645 141.344C179.04 142.187 179.237 143.205 179.237 144.4C179.237 145.595 179.04 146.619 178.645 147.472C178.261 148.315 177.733 148.965 177.061 149.424C176.389 149.872 175.621 150.096 174.757 150.096ZM174.757 149.04C175.418 149.04 175.994 148.864 176.485 148.512C176.976 148.149 177.36 147.627 177.637 146.944C177.914 146.251 178.053 145.403 178.053 144.4C178.053 143.397 177.914 142.555 177.637 141.872C177.36 141.179 176.976 140.656 176.485 140.304C175.994 139.941 175.418 139.76 174.757 139.76C174.117 139.76 173.546 139.941 173.045 140.304C172.544 140.656 172.154 141.179 171.877 141.872C171.6 142.555 171.461 143.397 171.461 144.4C171.461 145.403 171.6 146.251 171.877 146.944C172.154 147.627 172.544 148.149 173.045 148.512C173.546 148.864 174.117 149.04 174.757 149.04ZM182.839 150V139.28L183.351 139.824H180.199V138.8H183.991V150H182.839ZM190.924 150.096C190.028 150.096 189.255 149.968 188.604 149.712C187.964 149.456 187.468 149.088 187.116 148.608C186.775 148.117 186.604 147.541 186.604 146.88C186.604 146.24 186.769 145.696 187.1 145.248C187.441 144.789 187.932 144.437 188.572 144.192C189.223 143.947 190.007 143.824 190.924 143.824C191.831 143.824 192.609 143.947 193.26 144.192C193.911 144.437 194.407 144.789 194.748 145.248C195.1 145.696 195.276 146.24 195.276 146.88C195.276 147.541 195.1 148.117 194.748 148.608C194.396 149.088 193.895 149.456 193.244 149.712C192.593 149.968 191.82 150.096 190.924 150.096ZM190.924 149.12C191.916 149.12 192.689 148.917 193.244 148.512C193.809 148.107 194.092 147.557 194.092 146.864C194.092 146.171 193.809 145.627 193.244 145.232C192.689 144.827 191.916 144.624 190.924 144.624C189.932 144.624 189.159 144.827 188.604 145.232C188.049 145.627 187.772 146.171 187.772 146.864C187.772 147.557 188.049 148.107 188.604 148.512C189.159 148.917 189.932 149.12 190.924 149.12ZM190.924 144.48C190.092 144.48 189.383 144.368 188.796 144.144C188.22 143.92 187.777 143.6 187.468 143.184C187.159 142.757 187.004 142.251 187.004 141.664C187.004 141.045 187.164 140.517 187.484 140.08C187.815 139.632 188.273 139.291 188.86 139.056C189.447 138.821 190.135 138.704 190.924 138.704C191.713 138.704 192.401 138.821 192.988 139.056C193.585 139.291 194.049 139.632 194.38 140.08C194.711 140.517 194.876 141.045 194.876 141.664C194.876 142.251 194.721 142.757 194.412 143.184C194.103 143.6 193.649 143.92 193.052 144.144C192.465 144.368 191.756 144.48 190.924 144.48ZM190.924 143.712C191.799 143.712 192.481 143.531 192.972 143.168C193.463 142.805 193.708 142.32 193.708 141.712C193.708 141.072 193.452 140.576 192.94 140.224C192.439 139.861 191.767 139.68 190.924 139.68C190.081 139.68 189.409 139.861 188.908 140.224C188.407 140.576 188.156 141.067 188.156 141.696C188.156 142.315 188.396 142.805 188.876 143.168C189.367 143.531 190.049 143.712 190.924 143.712Z" fill="#001F47"/>
<defs>
<clipPath id="clip0_405_759">
<rect width="69" height="60" fill="white" transform="translate(91.5)"/>
</clipPath>
</defs>
</svg>
