<svg width="56" height="56" viewBox="0 0 56 56" fill="none" xmlns="http://www.w3.org/2000/svg">
    <path d="M52.512 40.531c0 6.39-6.73 11.568-15.033 11.568-8.296 0-15.025-5.179-15.025-11.568 0-6.389 6.73-11.56 15.025-11.56 8.303 0 15.033 5.171 15.033 11.56z" fill="#fff"/>
    <path opacity=".3" d="M53.957 37.468v6.134a2.584 2.584 0 0 1-2.584 2.584h-27.78a2.584 2.584 0 0 1-2.585-2.584V37.47a2.584 2.584 0 0 1 2.584-2.584h27.782a2.584 2.584 0 0 1 2.583 2.584zM2.043 7.611v7.401a3.707 3.707 0 0 0 3.708 3.707h13.757l3.54 5.43c.586.898 1.98.484 1.98-.588V7.611a3.707 3.707 0 0 0-3.707-3.707H5.75a3.707 3.707 0 0 0-3.708 3.707z" fill="red"/>
    <path d="M51.374 33.948h-.336c-2.668-3.354-7.299-5.644-12.621-5.887v-4.505a.937.937 0 1 0-1.875 0v4.506c-5.317.243-9.942 2.533-12.608 5.886h-.342a3.524 3.524 0 0 0-3.52 3.52v6.135a3.524 3.524 0 0 0 3.52 3.52h.37c3.13 3.943 8.33 5.91 13.52 5.91 5.189.001 10.39-1.964 13.523-5.91h.369a3.524 3.524 0 0 0 3.52-3.52v-6.135a3.524 3.524 0 0 0-3.52-3.52zm-13.89-4.039c4.094 0 8.182 1.349 11.013 4.039h-22.02c2.826-2.69 6.913-4.039 11.007-4.039zm-.006 21.253c-4.1 0-8.19-1.35-11.008-4.039h22.024c-2.823 2.69-6.916 4.04-11.016 4.039zm15.541-7.56c0 .908-.738 1.646-1.645 1.646H23.592a1.648 1.648 0 0 1-1.646-1.645v-6.135c0-.907.738-1.646 1.646-1.646h27.782c.907 0 1.645.739 1.645 1.646v6.135z" fill="#004498" stroke="#004498" stroke-width=".2"/>
    <path d="M22.263 24.662c1.099 1.681 3.702.894 3.702-1.101V7.61a4.65 4.65 0 0 0-4.644-4.644H5.75a4.65 4.65 0 0 0-4.645 4.645v7.4a4.65 4.65 0 0 0 4.644 4.645H19l3.263 5.005zM2.981 7.612a2.773 2.773 0 0 1 2.77-2.77h15.57a2.773 2.773 0 0 1 2.77 2.77V23.56a.138.138 0 0 1-.257.077l-3.54-5.43a.938.938 0 0 0-.786-.426H5.75a2.774 2.774 0 0 1-2.77-2.77l.001-7.4zm43.034 30.29a.937.937 0 1 0-1.325 1.325l.788.79a.937.937 0 1 0 1.326-1.326l-.79-.789zm-3.161.139a.937.937 0 0 0-1.326 1.325l3.812 3.812a.937.937 0 1 0 1.325-1.326l-3.811-3.811z" fill="#004498" stroke="#004498" stroke-width=".2"/>
    <path d="M19.492 8.464H8.371a.937.937 0 1 0 0 1.875h11.121a.937.937 0 1 0 0-1.875zm-5.04 3.997H8.372a.937.937 0 1 0 0 1.875h6.082a.937.937 0 1 0 0-1.875z" fill="#004498" stroke="#004498" stroke-width=".2"/>
</svg>
