<svg width="48" height="48" viewBox="0 0 48 48" fill="none" xmlns="http://www.w3.org/2000/svg">
    <path d="M7.845 21.84a2.34 2.34 0 0 1 .686 1.657c0 .647-.262 1.234-.686 1.658a2.343 2.343 0 1 1 0-3.315z" fill="#fff"/>
    <path d="M4.336 24.81a2.34 2.34 0 0 1 2.344-2.344 2.338 2.338 0 0 1 1.848.903 2.34 2.34 0 0 0-2.34-2.215 2.34 2.34 0 0 0-1.848 3.785 2.332 2.332 0 0 1-.004-.129zM24 38.966l-3.314 3.315L24 45.596l3.315-3.315L24 38.966z" fill="#fff"/>
    <path d="m21.576 43.172 3.315-3.315-.89-.89-3.316 3.314 3.316 3.315-2.425-2.424z" fill="#fff"/>
    <path opacity=".3" d="M26.344 31.466H17.906v-4.562a3.875 3.875 0 0 1 3.875-3.875h4.438a3.876 3.876 0 0 1 3.875 3.875v4.562h-3.75zM24 20.216a3.281 3.281 0 1 0 0-6.562 3.281 3.281 0 0 0 0 6.562z" fill="red"/>
    <path d="M26.344 2.404h-4.688V7.09h4.688V2.404z" fill="#fff"/>
    <path d="M22.664 3.458h3.68V2.404h-4.688V7.09h1.008V3.458z" fill="#fff"/>
    <path d="M38.531 23.029h-1.875v1.875h1.875v-1.875z" fill="#004498"/>
    <path d="M38.531 23.029h-1.875v1.875h1.875v-1.875z" stroke="#fff"/>
    <path d="M35.719 23.029h-1.875v1.875h1.875v-1.875z" fill="#004498"/>
    <path d="M35.719 23.029h-1.875v1.875h1.875v-1.875z" stroke="#fff"/>
    <path d="M25.406 34.279h-1.875v1.875h1.875v-1.875z" fill="#004498"/>
    <path d="M25.406 34.279h-1.875v1.875h1.875v-1.875z" stroke="#fff"/>
    <path d="M25.406 8.966h-1.875v1.875h1.875V8.966z" fill="#004498"/>
    <path d="M25.406 8.966h-1.875v1.875h1.875V8.966z" stroke="#fff"/>
    <path d="M15.094 23.029h-1.875v1.875h1.875v-1.875z" fill="#004498"/>
    <path d="M15.094 23.029h-1.875v1.875h1.875v-1.875z" stroke="#fff"/>
    <path d="M12.281 23.029h-1.875v1.875h1.875v-1.875z" fill="#004498"/>
    <path d="M12.281 23.029h-1.875v1.875h1.875v-1.875z" stroke="#fff"/>
    <path d="M39.926 18.54a.669.669 0 0 0 .837.44.669.669 0 0 0 .44-.837l-.19.059.19-.06A18.003 18.003 0 0 0 29.355 6.296M39.926 18.54l.191-.06m-.19.06.19-.06m-.19.06a16.666 16.666 0 0 0-10.97-10.968.669.669 0 1 1 .398-1.277M40.117 18.48a16.866 16.866 0 0 0-11.1-11.099.469.469 0 0 1-.308-.587M40.117 18.48 28.71 6.794m.646-.499-.06.191m.06-.19v-.001l-.06.191m0 0a.469.469 0 0 0-.586.308m.587-.308-.587.308M6.797 18.142a18.067 18.067 0 0 1 4.537-7.45 18.066 18.066 0 0 1 7.506-4.455L6.797 18.142zm0 0a.669.669 0 0 0 .44.838l.06-.191m-.5-.647L19.672 6.686m0 0a.669.669 0 0 1-.45.832A16.645 16.645 0 0 0 8.075 18.54a.67.67 0 0 1-.838.44l.06-.191M19.672 6.686a.669.669 0 0 0-.832-.45l.832.45zM7.296 18.789a.47.47 0 0 0 .587-.308l-.587.308zm37.278 1.842c.288.231.335.652.104.94l-3.75 4.688a.668.668 0 0 1-.94.104l4.586-5.732zm0 0a.669.669 0 0 0-.94.105l-3.75 4.688a.668.668 0 0 0 .105.94l4.585-5.733zM23.527 46.07l-3.315-3.315a.668.668 0 0 1 0-.946l3.315 4.26zm0 0a.668.668 0 0 0 .473.196m-.473-.196.473.196m0 0c.177 0 .347-.07.473-.196l-.473.196zm4.958-6.842a.669.669 0 0 0 .397 1.278 18.007 18.007 0 0 0 11.848-11.849.669.669 0 0 0-1.277-.397 16.67 16.67 0 0 1-10.968 10.968zm-17.624-3.119.131-.133 7.375 4.588a.67.67 0 0 0 .832-.45.669.669 0 0 0-.45-.831l-.057.191.058-.191a16.644 16.644 0 0 1-11.15-11.023l-.19.06.19-.06a.669.669 0 0 0-1.277.397 18.07 18.07 0 0 0 4.538 7.452zM4.057 21.367a2.998 2.998 0 0 0-.882 2.13 3.016 3.016 0 0 0 3.013 3.013c.804 0 1.561-.314 2.13-.882a2.994 2.994 0 0 0 .882-2.13c0-.804-.313-1.56-.882-2.13v-.001a2.995 2.995 0 0 0-2.13-.882c-.805 0-1.562.314-2.131.882zm17.6-13.607h4.687c.37 0 .668-.3.668-.669V2.404c0-.37-.299-.67-.668-.67h-4.688c-.37 0-.668.3-.668.67V7.09c0 .37.299.669.668.669zm4.018-4.688v3.35h-3.35v-3.35h3.35zM4.512 23.497c0-.447.175-.867.491-1.184.316-.317.736-.49 1.184-.49.449 0 .869.173 1.185.49.317.317.49.737.49 1.184 0 .448-.173.869-.49 1.185a1.677 1.677 0 0 1-2.86-1.185zm19.015 14.996-3.315 3.315 4.26-3.315a.668.668 0 0 0-.945 0zm4.26 3.315-3.314-3.315v7.576l3.315-3.315a.668.668 0 0 0 0-.946zM24 44.65l-2.37-2.369 2.37-2.37 2.37 2.37-2.37 2.37z" fill="#004498" stroke="#004498" stroke-width=".4"/>
    <path d="M43.634 26.259a.667.667 0 0 0 .94.104.669.669 0 0 0 .104-.94l-3.75-4.687a.669.669 0 1 0-1.044.836l3.75 4.687zm-25.728 5.876h12.188c.37 0 .668-.3.668-.669v-4.562a4.549 4.549 0 0 0-4.543-4.544h-4.438a4.549 4.549 0 0 0-4.543 4.544v4.562c0 .37.299.669.668.669zm11.519-5.23v3.892h-10.85v-3.893a3.21 3.21 0 0 1 3.206-3.207h4.438a3.21 3.21 0 0 1 3.206 3.207zm-9.375-9.97a3.954 3.954 0 0 0 3.95 3.95 3.954 3.954 0 0 0 3.95-3.95 3.954 3.954 0 0 0-3.95-3.95 3.954 3.954 0 0 0-3.95 3.95zm1.337 0A2.616 2.616 0 0 1 24 14.322a2.616 2.616 0 0 1 2.613 2.613A2.616 2.616 0 0 1 24 19.547a2.616 2.616 0 0 1-2.613-2.612z" fill="#004498" stroke="#004498" stroke-width=".4"/>
    <path d="M26.344 31.935a.469.469 0 0 1-.469-.469v-2.812a.469.469 0 1 1 .938 0v2.812c0 .259-.21.469-.47.469zm-4.688 0a.469.469 0 0 1-.468-.469v-2.812a.469.469 0 1 1 .937 0v2.812c0 .259-.21.469-.469.469z" fill="#004498"/>
    <path d="M26.344 31.935a.469.469 0 0 1-.469-.469v-2.812a.469.469 0 1 1 .938 0v2.812c0 .259-.21.469-.47.469zm-4.688 0a.469.469 0 0 1-.468-.469v-2.812a.469.469 0 1 1 .937 0v2.812c0 .259-.21.469-.469.469z" stroke="#fff"/>
</svg>
