<svg width="32" height="32" viewBox="0 0 32 32" fill="none" xmlns="http://www.w3.org/2000/svg">
<path d="M5.3335 6.13333C5.3335 5.3866 5.3335 5.01323 5.47882 4.72801C5.60665 4.47713 5.81063 4.27316 6.06151 4.14532C6.34672 4 6.72009 4 7.46683 4H15.2002C15.9469 4 16.3203 4 16.6055 4.14532C16.8564 4.27316 17.0603 4.47713 17.1882 4.72801C17.3335 5.01323 17.3335 5.3866 17.3335 6.13333V15.2C17.3335 15.9467 17.3335 16.3201 17.1882 16.6053C17.0603 16.8562 16.8564 17.0602 16.6055 17.188C16.3203 17.3333 15.9469 17.3333 15.2002 17.3333H5.3335V6.13333Z" fill="#FF9696"/>
<path d="M17.3335 6.66667H25.8668C26.6136 6.66667 26.9869 6.66667 27.2721 6.81199C27.523 6.93982 27.727 7.1438 27.8548 7.39468C28.0002 7.6799 28.0002 8.05326 28.0002 8.8V17.8667C28.0002 18.6134 28.0002 18.9868 27.8548 19.272C27.727 19.5229 27.523 19.7268 27.2721 19.8547C26.9869 20 26.6136 20 25.8668 20H19.4668C18.7201 20 18.3467 20 18.0615 19.8547C17.8106 19.7268 17.6067 19.5229 17.4788 19.272C17.3335 18.9868 17.3335 18.6134 17.3335 17.8667V6.66667Z" fill="#FF9696"/>
<path d="M5.3335 28L5.3335 5.33333M5.3335 17.3333H15.2002C15.9469 17.3333 16.3203 17.3333 16.6055 17.188C16.8564 17.0602 17.0603 16.8562 17.1882 16.6053C17.3335 16.3201 17.3335 15.9467 17.3335 15.2V6.13333C17.3335 5.3866 17.3335 5.01323 17.1882 4.72801C17.0603 4.47713 16.8564 4.27316 16.6055 4.14532C16.3203 4 15.9469 4 15.2002 4H7.46683C6.72009 4 6.34672 4 6.06151 4.14532C5.81063 4.27316 5.60665 4.47713 5.47882 4.72801C5.3335 5.01323 5.3335 5.3866 5.3335 6.13333V17.3333ZM17.3335 6.66667H25.8668C26.6136 6.66667 26.9869 6.66667 27.2721 6.81199C27.523 6.93982 27.727 7.1438 27.8548 7.39468C28.0002 7.6799 28.0002 8.05326 28.0002 8.8V17.8667C28.0002 18.6134 28.0002 18.9868 27.8548 19.272C27.727 19.5229 27.523 19.7268 27.2721 19.8547C26.9869 20 26.6136 20 25.8668 20H19.4668C18.7201 20 18.3467 20 18.0615 19.8547C17.8106 19.7268 17.6067 19.5229 17.4788 19.272C17.3335 18.9868 17.3335 18.6134 17.3335 17.8667V6.66667Z" stroke="#B30000" stroke-width="2" stroke-linecap="round" stroke-linejoin="round"/>
</svg>
