<svg width="456" height="380" viewBox="0 0 456 380" fill="none" xmlns="http://www.w3.org/2000/svg">
    <path opacity=".1" d="M446 365.03c0 3.305-97.709 5.97-218.5 5.97S9 368.335 9 365.03c0-3.304 97.709-6.03 218.5-6.03s218.5 2.726 218.5 6.03z" fill="#DBE4F0"/>
    <path d="M221 14.693V343.88a5.125 5.125 0 0 1-3.203 4.753 5.08 5.08 0 0 1-1.975.365H41.64a4.563 4.563 0 0 1-2.542-.744 4.595 4.595 0 0 1-1.707-2.033 4.88 4.88 0 0 1-.388-1.915V14.302a4.159 4.159 0 0 1 1.097-2.975A4.124 4.124 0 0 1 40.97 10h46.122c.644.012 1.27.217 1.798.587s.934.89 1.168 1.493l1.918 4.728c.15.378.369.723.647 1.017.042.063.093.12.153.165l.2.178c.1.084.206.159.318.224.214.142.448.25.695.32.306.109.628.165.953.165h68.201a3.208 3.208 0 0 0 2.966-2.033l1.919-4.728a3.258 3.258 0 0 1 1.165-1.5 3.237 3.237 0 0 1 1.8-.592h45.452a4.697 4.697 0 0 1 3.21 1.416A4.739 4.739 0 0 1 221 14.693z" fill="#407BFF"/>
    <path opacity=".5" d="M221 32H37v290h184V32z" fill="#fff"/>
    <path opacity=".5" d="M221 286H37v36h184v-36zM221 32H37v30h184V32z" fill="#fff"/>
    <path d="M43 47.034a10.037 10.037 0 0 0 .762 3.853 9.994 9.994 0 0 0 2.18 3.26l.129.118a9.872 9.872 0 0 0 4.845 2.594h.21c.35.07.706.118 1.063.141H53.788a5.36 5.36 0 0 0 .607-.07c.245 0 .502-.07.747-.13h.106a9.844 9.844 0 0 0 3.817-1.819h.07l.246-.211a10.035 10.035 0 0 0 2.92-4.043 10.088 10.088 0 0 0-1.215-9.6 9.995 9.995 0 0 0-3.833-3.179 9.936 9.936 0 0 0-9.605.628 10.015 10.015 0 0 0-3.392 3.65 10.08 10.08 0 0 0-1.221 4.843L43 47.034z" fill="#407BFF"/>
    <path d="M47.467 44.792s-1.253 4.778.346 6.188c1.599 1.41 10.57 1.421 11.859-.359C60.961 48.841 58.037 43 58.037 43l-10.57 1.792z" fill="#263238"/>
    <path d="M46 54.013c1.34 1.427 3.02 2.41 4.847 2.833h.21c.351.077.706.129 1.063.154h1.601c.203-.013.406-.039.607-.077.245 0 .502-.077.747-.141v.077l.106-.103A9.516 9.516 0 0 0 59 54.77c-.058-.18-.117-.372-.187-.551H58.661c-.222-.077-.689-.244-1.331-.423h-.07a22.823 22.823 0 0 0-1.285-.32l-.935-.193h-.14c-.28 0-.572-.102-.876-.141h-.327A23.623 23.623 0 0 0 52.272 53H50.274l-.665.103-1.168.218c-.934.205-1.775.461-2.441.692z" fill="#407BFF"/>
    <path opacity=".6" d="M46 54.013c1.34 1.427 3.02 2.41 4.847 2.833h.21c.351.077.706.129 1.063.154h1.601c.203-.013.406-.039.607-.077.245 0 .502-.077.747-.141v.077l.106-.103A9.516 9.516 0 0 0 59 54.77c-.058-.18-.117-.372-.187-.551H58.661c-.222-.077-.689-.244-1.331-.423h-.07a22.823 22.823 0 0 0-1.285-.32l-.935-.193h-.14c-.28 0-.572-.102-.876-.141h-.327A23.623 23.623 0 0 0 52.272 53H50.274l-.665.103-1.168.218c-.934.205-1.775.461-2.441.692z" fill="#fff"/>
    <path d="M57.99 44.914s.539-7.334-6.288-5.668c-8.577 2.131-3.594 11.891.598 10.644a9.565 9.565 0 0 0 3.41-1.91 8.952 8.952 0 0 0 2.28-3.066z" fill="#263238"/>
    <path opacity=".2" d="m50 53.558 1.48 3.013.129.258h.211c.353.073.71.123 1.069.146l.798-1.114c.082.355.153.735.235 1.139h.575a52.08 52.08 0 0 0-.106-1.115l.717 1.041c.246 0 .505-.073.751-.134L56 53.509l-.305-.134a5.502 5.502 0 0 0-.963-.307h-.211a7.575 7.575 0 0 0-2.032 0l-.61.086c-.334.04-.664.11-.987.208a7.953 7.953 0 0 0-.845.245L50 53.558z" fill="#000"/>
    <path d="M52.932 54 50 53.145c1.801-1.277.89-4.145.89-4.145l2.9 1.082c-.13.418-.23.845-.303 1.277-.304 1.873.513 2.024.513 2.024L52.932 54z" fill="#B97964"/>
    <path opacity=".2" d="M54 50.353c-.135.54-.24 1.09-.314 1.647-1.067-.712-1.988-1.74-2.686-3l3 1.353z" fill="#000"/>
    <path d="M53.47 41.015c2.921-.18 3.973 1.277 4.382 4.183.502 3.629-.152 6.274-3.868 5.731-5.048-.712-5.387-9.575-.514-9.914z" fill="#B97964"/>
    <path d="M56 45c.282.55.618 1.057 1 1.512a.94.94 0 0 1-.347.38.742.742 0 0 1-.463.104L56 45z" fill="#A24E3F"/>
    <path d="M55 45.473c0 .27-.16.513-.438.526a.538.538 0 0 1-.557-.472.453.453 0 0 1 .438-.526.538.538 0 0 1 .557.472zM54 44.248 55 44s-.442.473-1 .248zM58 44.473c0 .283-.163.513-.428.526-.265.014-.55-.189-.57-.472-.02-.284.142-.513.428-.526a.559.559 0 0 1 .57.472z" fill="#263238"/>
    <path d="m57 44.26 1-.26s-.386.46-1 .26z" fill="#263238"/>
    <path d="M54 43.005c-.188-.027-.377.05-.55.222-.174.172-.328.437-.45.773M56 43.068a.973.973 0 0 1 .516-.055c.174.029.34.104.484.22" stroke="#263238" stroke-width=".834" stroke-linecap="round" stroke-linejoin="round"/>
    <path d="M50.513 46.53a9.155 9.155 0 0 0 .923-4.515s5.87-2.86 6.562 3.25c0 0 .243-5.478-5.006-5.259-5.25.22-4.715 7.888-1.872 9.994a3.789 3.789 0 0 1-.607-3.47z" fill="#263238"/>
    <path d="M50.97 45.94a1.074 1.074 0 0 0-.46-.71 1.324 1.324 0 0 0-.883-.223c-.854.129-1.109 1.737 1.02 1.985.267.06.422-.218.322-1.052z" fill="#B97964"/>
    <path d="M57 47.636c-.124.445-.225.901-.304 1.364h-.187c-.866-.078-1.24-.48-1.404-.915a1.84 1.84 0 0 1-.093-.682 1.73 1.73 0 0 1 0-.403c.51.36 1.072.572 1.649.62l.339.016z" fill="#263238"/>
    <path d="m57 47.604-.11.393a2.829 2.829 0 0 1-1.876-.604 1.396 1.396 0 0 1 0-.393c.614.36 1.292.566 1.986.604z" fill="#fff"/>
    <path d="M56 49c-.617-.085-.883-.525-1-1 .234.032.463.153.675.356.136.15.248.372.325.644z" fill="#DE5753"/>
    <path d="M54.076 41.081s-.889 4.78-3.972 4.917c-3.083.137 1.269-6.126 1.269-6.126s4.909-2.133 7.553.274-.427 4.563-.427 4.563-.047-3.662-4.423-3.628z" fill="#263238"/>
    <path d="M53.931 41s.631 3.571-1.931 5" stroke="#263238" stroke-width=".579" stroke-linecap="round" stroke-linejoin="round"/>
    <path d="M50.003 46.016c0 .018.008.036.021.05.014.012.032.02.051.02h.696l2.205-.198c.06.312.231.595.483.798.252.203.568.314.896.314.327 0 .644-.111.895-.314.252-.203.423-.486.483-.798a1.364 1.364 0 0 0 0-.222c.108-.14.204-.221.3-.221.08.013.152.055.203.116.046.224.147.434.295.611.149.177.34.315.557.403l.311.082c.19.045.387.045.576 0 .227-.059.434-.176.599-.338.227-.2.371-.474.407-.77a1.304 1.304 0 0 0-.258-1.023 1.369 1.369 0 0 0-.414-.357 1.406 1.406 0 0 0-.526-.169h-.324a1.41 1.41 0 0 0-.847.364 1.34 1.34 0 0 0-.424.801c-.005.07-.005.14 0 .21a.405.405 0 0 0-.167 0 .49.49 0 0 0-.336.163 1.35 1.35 0 0 0-.398-.778 1.418 1.418 0 0 0-.8-.387h-.144a1.231 1.231 0 0 0-.576.081c-.225.088-.422.23-.573.414-.152.184-.251.403-.29.635a1.127 1.127 0 0 0 0 .291l-1.906.152h-.983s-.024.023-.012.07zm6.425-.967c.041-.28.185-.536.406-.72a1.22 1.22 0 0 1 .793-.282h.24a1.222 1.222 0 0 1 .804.465 1.152 1.152 0 0 1 .215.886 1.21 1.21 0 0 1-.29.593c-.15.169-.344.294-.561.363a1.407 1.407 0 0 1-.54 0h-.24a1.195 1.195 0 0 1-.665-.502 1.138 1.138 0 0 1-.162-.803zm-3.26.36c.05-.308.223-.585.482-.77a1.24 1.24 0 0 1 1.696.255c.19.253.269.568.22.877-.05.31-.224.587-.483.771a1.24 1.24 0 0 1-1.695-.255 1.154 1.154 0 0 1-.22-.877z" fill="#263238"/>
    <path d="M50.003 46.016c0 .018.008.036.021.05.014.012.032.02.051.02h.696l2.205-.198c.06.312.231.595.483.798.252.203.568.314.896.314.327 0 .644-.111.895-.314.252-.203.423-.486.483-.798a1.364 1.364 0 0 0 0-.222c.108-.14.204-.221.3-.221.08.013.152.055.203.116.046.224.147.434.295.611.149.177.34.315.557.403l.311.082c.19.045.387.045.576 0 .227-.059.434-.176.599-.338.227-.2.371-.474.407-.77a1.304 1.304 0 0 0-.258-1.023 1.369 1.369 0 0 0-.414-.357 1.406 1.406 0 0 0-.526-.169h-.324a1.41 1.41 0 0 0-.847.364 1.34 1.34 0 0 0-.424.801c-.005.07-.005.14 0 .21a.405.405 0 0 0-.167 0 .49.49 0 0 0-.336.163 1.35 1.35 0 0 0-.398-.778 1.418 1.418 0 0 0-.8-.387h-.144a1.231 1.231 0 0 0-.576.081c-.225.088-.422.23-.573.414-.152.184-.251.403-.29.635a1.127 1.127 0 0 0 0 .291l-1.906.152h-.983s-.024.023-.012.07zm6.425-.967c.041-.28.185-.536.406-.72a1.22 1.22 0 0 1 .793-.282h.24a1.222 1.222 0 0 1 .804.465 1.152 1.152 0 0 1 .215.886 1.21 1.21 0 0 1-.29.593c-.15.169-.344.294-.561.363a1.407 1.407 0 0 1-.54 0h-.24a1.195 1.195 0 0 1-.665-.502 1.138 1.138 0 0 1-.162-.803zm-3.26.36c.05-.308.223-.585.482-.77a1.24 1.24 0 0 1 1.696.255c.19.253.269.568.22.877-.05.31-.224.587-.483.771a1.24 1.24 0 0 1-1.695-.255 1.154 1.154 0 0 1-.22-.877z" fill="#fff" opacity=".8"/>
    <path d="M51.764 52 54 54.251 53.105 57 50 53.492 51.764 52zM54.381 53 54 54.655 55.238 57 56 53.953 54.381 53z" fill="#407BFF"/>
    <path d="M56 57a9.524 9.524 0 0 0 3.695-1.761h.068l.237-.205-.486-.239A12.376 12.376 0 0 0 56.757 54a.48.48 0 0 0 0 .08A3.692 3.692 0 0 1 56 57zM46 53.635l.124.102c1.292 1.14 2.912 1.925 4.673 2.263H51a2.414 2.414 0 0 1-.327-.246 8.3 8.3 0 0 1-.946-.89c-.157-.175-.1-.123-.157-.175l-.282-.337-.259-.338c-.079-.103-.157-.205-.214-.297-.056-.092-.304-.43-.383-.563-.034-.05-.064-.1-.09-.154 0 0-1.17.276-2.342.635z" fill="#263238"/>
    <path opacity=".1" d="m46 53.635.124.102c1.292 1.14 2.912 1.925 4.673 2.263H51a2.414 2.414 0 0 1-.327-.246 8.3 8.3 0 0 1-.946-.89c-.157-.175-.1-.123-.157-.175l-.282-.337-.259-.338c-.079-.103-.157-.205-.214-.297-.056-.092-.304-.43-.383-.563-.034-.05-.064-.1-.09-.154 0 0-1.17.276-2.342.635z" fill="#fff"/>
    <path opacity=".6" d="M51.764 52 54 54.251 53.105 57 50 53.492 51.764 52zM54.381 53 54 54.655 55.238 57 56 53.953 54.381 53z" fill="#fff"/>
    <g opacity=".1" fill="#fff">
        <path d="M56 56a9.524 9.524 0 0 0 3.695-1.761h.068l.237-.205-.486-.239A12.376 12.376 0 0 0 56.757 53a.48.48 0 0 0 0 .08A3.692 3.692 0 0 1 56 56zM46 53.635l.124.102c1.292 1.14 2.912 1.925 4.673 2.263H51a2.414 2.414 0 0 1-.327-.246 8.3 8.3 0 0 1-.946-.89c-.157-.175-.1-.123-.157-.175l-.282-.337-.259-.338c-.079-.103-.157-.205-.214-.297-.056-.092-.304-.43-.383-.563-.034-.05-.064-.1-.09-.154 0 0-1.17.276-2.342.635z"/>
    </g>
    <path opacity=".2" d="M105.728 50H70.272c-.602 0-1.18-.263-1.606-.732A2.633 2.633 0 0 1 68 47.5a2.708 2.708 0 0 1 .17-.959c.113-.304.28-.58.492-.813.211-.232.463-.416.739-.541.276-.125.573-.189.871-.187h35.456c.298-.002.595.062.871.187s.528.309.739.541c.211.233.379.51.492.813.114.304.172.63.17.959 0 .663-.239 1.299-.666 1.768a2.172 2.172 0 0 1-1.606.732z" fill="#000"/>
    <g opacity=".2" fill="#000">
        <path d="M171 44h-8v6h8v-6zM173 50l-2-.98v-3.04l2-.98v5z"/>
    </g>
    <g opacity=".2" fill="#000">
        <path d="m192.037 42.448 1.252.835-2.403 2.395-.689-.586a1.168 1.168 0 0 0-1.552.062l-2.228 2.22a1.157 1.157 0 0 0 0 1.546l.588.686L184.602 52l-.839-1.247a2.663 2.663 0 0 1 .313-3.404l4.656-4.64a2.687 2.687 0 0 1 3.305-.261z"/>
        <path d="M190.452 45.818 193.291 43l.71.704-2.839 2.818-.71-.704zM184.45 51.818 187.289 49l.71.704-2.839 2.818-.71-.704z"/>
    </g>
    <g opacity=".2" fill="#000">
        <path d="M214.439 43.006h-8.032a.482.482 0 0 0-.292.17.512.512 0 0 0 0 .648c.075.09.178.15.292.17h8.032a.466.466 0 0 0 .391-.113.505.505 0 0 0 .125-.59.497.497 0 0 0-.309-.273.469.469 0 0 0-.207-.012zM214.515 45h-8.043a.474.474 0 0 0-.334.153.516.516 0 0 0 0 .702.464.464 0 0 0 .334.145h8.043a.457.457 0 0 0 .342-.14.507.507 0 0 0 .143-.354.518.518 0 0 0-.142-.358.475.475 0 0 0-.343-.148zM214.527 48h-8.054a.449.449 0 0 0-.334.146.507.507 0 0 0-.139.354.52.52 0 0 0 .139.354.45.45 0 0 0 .334.146h8.054a.45.45 0 0 0 .334-.146.507.507 0 0 0 .139-.354.52.52 0 0 0-.139-.354.465.465 0 0 0-.334-.146zM214.527 50h-8.054a.46.46 0 0 0-.334.146.514.514 0 0 0-.139.354c0 .133.05.26.139.354a.46.46 0 0 0 .334.146h8.054a.46.46 0 0 0 .334-.146.514.514 0 0 0 .139-.354c0-.133-.05-.26-.139-.354a.46.46 0 0 0-.334-.146z"/>
    </g>
    <path opacity=".6" d="M59 24h2v-3h-2v3zM55 24h2v-4h-2v4zM51 24h2v-5h-2v5zM47 24h2v-6h-2v6zM199 20h-1v3h1v-3zM200 24h11v-6h-11v6z" fill="#fff"/>
    <path d="M80.311 313H203.69c5.142 0 9.311-4.253 9.311-9.5s-4.169-9.5-9.311-9.5H80.311C75.17 294 71 298.253 71 303.5s4.169 9.5 9.311 9.5z" fill="#fff"/>
    <path opacity=".2" d="m131.45 101.078-53.78.389L72 105V77.913a6.532 6.532 0 0 1 1.905-4.61 6.49 6.49 0 0 1 4.598-1.902l52.947-.4a6.483 6.483 0 0 1 4.629 1.893 6.528 6.528 0 0 1 1.921 4.63v17.042a6.541 6.541 0 0 1-1.925 4.622 6.502 6.502 0 0 1-4.625 1.89z" fill="#000"/>
    <path d="M80 80h48M80 86h48M80 92h30" stroke="#fff" stroke-width="1.159" stroke-linecap="round" stroke-linejoin="round"/>
    <path d="M61.051 310.377c3.508-3.522 3.508-9.232 0-12.754a8.953 8.953 0 0 0-12.7 0c-3.508 3.522-3.508 9.232 0 12.754a8.953 8.953 0 0 0 12.7 0z" fill="#407BFF"/>
    <g opacity=".05" fill="#fff">
        <path d="M114 18.892 64.737 205.19l-.55 2.09-.889 3.354-.561 2.09L37 310V192.272L85.222 10h1.567c.64.012 1.262.216 1.787.587.525.37.93.889 1.161 1.491l1.895 4.724c.235.598.64 1.114 1.165 1.48a3.197 3.197 0 0 0 1.783.574l19.42.036zM130.976 19 81.754 204.239l-.294 1.111-2.693 10.149-.294 1.111L43.303 349h-2.058a4.556 4.556 0 0 1-2.54-.744A4.59 4.59 0 0 1 37 346.223L71.43 216.61l.306-1.111 2.692-10.149.294-1.111 49.223-185.227H131l-.024-.012z"/>
    </g>
    <path d="M47 81.034a10.037 10.037 0 0 0 .762 3.853 9.994 9.994 0 0 0 2.18 3.26l.129.118a9.872 9.872 0 0 0 4.845 2.594h.21c.35.07.706.118 1.063.141H57.788a5.36 5.36 0 0 0 .607-.07c.245 0 .502-.07.747-.13h.106a9.844 9.844 0 0 0 3.817-1.819h.07l.246-.211a10.035 10.035 0 0 0 2.92-4.043 10.088 10.088 0 0 0-1.215-9.6 9.995 9.995 0 0 0-3.833-3.179 9.936 9.936 0 0 0-9.605.628 10.015 10.015 0 0 0-3.392 3.65 10.08 10.08 0 0 0-1.221 4.843L47 81.034z" fill="#407BFF"/>
    <path d="M50.467 79.792s-1.253 4.778.346 6.188c1.599 1.41 10.57 1.421 11.859-.359C63.961 83.841 61.037 78 61.037 78l-10.57 1.792z" fill="#263238"/>
    <path d="M50 89.013c1.34 1.427 3.02 2.41 4.847 2.833h.21c.351.077.706.129 1.063.154h1.601c.203-.013.406-.039.607-.077.245 0 .502-.077.747-.141v.077l.106-.103A9.516 9.516 0 0 0 63 89.77c-.058-.18-.117-.372-.187-.551H62.661c-.222-.077-.689-.244-1.331-.423h-.07a22.823 22.823 0 0 0-1.285-.32l-.935-.193h-.14c-.28 0-.572-.102-.876-.141h-.327A23.623 23.623 0 0 0 56.272 88H54.274l-.665.103-1.168.218c-.934.205-1.775.461-2.441.692z" fill="#407BFF"/>
    <path opacity=".6" d="M50 89.013c1.34 1.427 3.02 2.41 4.847 2.833h.21c.351.077.706.129 1.063.154h1.601c.203-.013.406-.039.607-.077.245 0 .502-.077.747-.141v.077l.106-.103A9.516 9.516 0 0 0 63 89.77c-.058-.18-.117-.372-.187-.551H62.661c-.222-.077-.689-.244-1.331-.423h-.07a22.823 22.823 0 0 0-1.285-.32l-.935-.193h-.14c-.28 0-.572-.102-.876-.141h-.327A23.623 23.623 0 0 0 56.272 88H54.274l-.665.103-1.168.218c-.934.205-1.775.461-2.441.692z" fill="#fff"/>
    <path d="M61.99 78.914s.539-7.334-6.288-5.668c-8.577 2.131-3.594 11.891.598 10.644a9.565 9.565 0 0 0 3.41-1.91 8.952 8.952 0 0 0 2.28-3.066z" fill="#263238"/>
    <path opacity=".2" d="m53 88.558 1.48 3.013.129.258h.211c.353.073.71.123 1.069.147l.798-1.115c.082.355.153.735.235 1.139h.575a52.08 52.08 0 0 0-.106-1.115l.717 1.041c.246 0 .505-.073.751-.134L59 88.509l-.305-.134a5.502 5.502 0 0 0-.963-.307h-.211a7.575 7.575 0 0 0-2.032 0l-.61.086c-.334.04-.664.11-.987.208a7.953 7.953 0 0 0-.845.245L53 88.558z" fill="#000"/>
    <path d="M56.932 88 54 87.145c1.801-1.277.89-4.145.89-4.145l2.9 1.082c-.13.418-.23.845-.303 1.277-.304 1.873.513 2.024.513 2.024L56.932 88z" fill="#B97964"/>
    <path opacity=".2" d="M58 84.353c-.135.54-.24 1.09-.314 1.647-1.067-.712-1.988-1.74-2.686-3l3 1.353z" fill="#000"/>
    <path d="M57.47 75.015c2.921-.18 3.973 1.277 4.382 4.183.502 3.629-.152 6.274-3.868 5.731-5.048-.712-5.387-9.575-.514-9.914z" fill="#B97964"/>
    <path d="M60 79c.282.55.618 1.057 1 1.512a.94.94 0 0 1-.347.38.742.742 0 0 1-.463.104L60 79z" fill="#A24E3F"/>
    <path d="M58 79.473c0 .27-.16.513-.438.526a.538.538 0 0 1-.557-.472.453.453 0 0 1 .438-.526.538.538 0 0 1 .557.472zM58 79.248 59 79s-.442.473-1 .248zM61 79.473c0 .283-.163.513-.428.526-.265.014-.55-.189-.57-.472-.02-.284.142-.513.428-.526a.559.559 0 0 1 .57.472zM61 78.26l1-.26s-.386.46-1 .26z" fill="#263238"/>
    <path d="M58 77.005c-.188-.027-.377.05-.55.222-.174.172-.328.437-.45.773M60 77.068a.973.973 0 0 1 .516-.055c.174.029.34.104.484.22" stroke="#263238" stroke-width=".834" stroke-linecap="round" stroke-linejoin="round"/>
    <path d="M54.513 80.53a9.155 9.155 0 0 0 .923-4.515s5.87-2.86 6.562 3.25c0 0 .243-5.478-5.006-5.259-5.25.22-4.715 7.888-1.872 9.994a3.789 3.789 0 0 1-.607-3.47z" fill="#263238"/>
    <path d="M54.97 80.94a1.074 1.074 0 0 0-.46-.71 1.324 1.324 0 0 0-.883-.223c-.854.129-1.109 1.737 1.02 1.985.267.06.422-.218.322-1.052z" fill="#B97964"/>
    <path d="M60 82.636c-.124.445-.225.901-.304 1.364h-.187c-.866-.078-1.24-.48-1.404-.915a1.84 1.84 0 0 1-.093-.682 1.73 1.73 0 0 1 0-.403c.51.36 1.072.572 1.649.62l.339.016z" fill="#263238"/>
    <path d="m60 82.604-.11.393a2.829 2.829 0 0 1-1.876-.604 1.396 1.396 0 0 1 0-.393c.614.36 1.292.566 1.986.604z" fill="#fff"/>
    <path d="M59 83c-.617-.085-.883-.525-1-1 .234.032.463.153.675.356.136.15.248.372.325.644z" fill="#DE5753"/>
    <path d="M57.076 75.081s-.889 4.78-3.972 4.917c-3.083.137 1.269-6.126 1.269-6.126s4.909-2.133 7.553.274-.427 4.563-.427 4.563-.047-3.662-4.423-3.628z" fill="#263238"/>
    <path d="M56.931 75s.631 3.571-1.931 5" stroke="#263238" stroke-width=".579" stroke-linecap="round" stroke-linejoin="round"/>
    <path d="M54.003 80.016c0 .018.008.036.021.05.014.012.032.02.051.02h.696l2.205-.198c.06.312.231.595.483.798.252.203.568.314.896.314.327 0 .644-.111.895-.314.252-.203.423-.486.483-.798a1.364 1.364 0 0 0 0-.222c.108-.14.204-.221.3-.221.08.013.152.055.203.116.046.224.147.434.295.611.149.177.34.315.557.403l.311.082c.19.045.387.045.576 0 .227-.059.434-.176.599-.338.227-.2.371-.474.407-.77a1.304 1.304 0 0 0-.258-1.024 1.369 1.369 0 0 0-.414-.356 1.406 1.406 0 0 0-.526-.169h-.324a1.41 1.41 0 0 0-.847.365 1.34 1.34 0 0 0-.424.8c-.005.07-.005.14 0 .21a.405.405 0 0 0-.167 0 .49.49 0 0 0-.336.163 1.35 1.35 0 0 0-.398-.778 1.418 1.418 0 0 0-.8-.387h-.144a1.231 1.231 0 0 0-.576.081c-.225.088-.422.23-.573.414-.152.184-.251.403-.29.635a1.127 1.127 0 0 0 0 .291l-1.906.152h-.983s-.024.023-.012.07zm6.425-.967c.041-.28.185-.536.406-.72a1.22 1.22 0 0 1 .793-.282h.24a1.222 1.222 0 0 1 .804.465 1.152 1.152 0 0 1 .215.886 1.21 1.21 0 0 1-.29.593c-.15.168-.344.294-.561.363a1.407 1.407 0 0 1-.54 0h-.24a1.195 1.195 0 0 1-.665-.502 1.138 1.138 0 0 1-.162-.803zm-3.26.36c.024-.152.08-.299.162-.431.083-.132.192-.248.32-.34a1.23 1.23 0 0 1 .902-.213c.158.024.309.078.445.158a1.2 1.2 0 0 1 .349.311 1.164 1.164 0 0 1 .22.877c-.05.31-.224.587-.483.771a1.24 1.24 0 0 1-1.695-.255 1.154 1.154 0 0 1-.22-.877z" fill="#263238"/>
    <path d="M54.003 80.016c0 .018.008.036.021.05.014.012.032.02.051.02h.696l2.205-.198c.06.312.231.595.483.798.252.203.568.314.896.314.327 0 .644-.111.895-.314.252-.203.423-.486.483-.798a1.364 1.364 0 0 0 0-.222c.108-.14.204-.221.3-.221.08.013.152.055.203.116.046.224.147.434.295.611.149.177.34.315.557.403l.311.082c.19.045.387.045.576 0 .227-.059.434-.176.599-.338.227-.2.371-.474.407-.77a1.304 1.304 0 0 0-.258-1.024 1.369 1.369 0 0 0-.414-.356 1.406 1.406 0 0 0-.526-.169h-.324a1.41 1.41 0 0 0-.847.365 1.34 1.34 0 0 0-.424.8c-.005.07-.005.14 0 .21a.405.405 0 0 0-.167 0 .49.49 0 0 0-.336.163 1.35 1.35 0 0 0-.398-.778 1.418 1.418 0 0 0-.8-.387h-.144a1.231 1.231 0 0 0-.576.081c-.225.088-.422.23-.573.414-.152.184-.251.403-.29.635a1.127 1.127 0 0 0 0 .291l-1.906.152h-.983s-.024.023-.012.07zm6.425-.967c.041-.28.185-.536.406-.72a1.22 1.22 0 0 1 .793-.282h.24a1.222 1.222 0 0 1 .804.465 1.152 1.152 0 0 1 .215.886 1.21 1.21 0 0 1-.29.593c-.15.168-.344.294-.561.363a1.407 1.407 0 0 1-.54 0h-.24a1.195 1.195 0 0 1-.665-.502 1.138 1.138 0 0 1-.162-.803zm-3.26.36c.024-.152.08-.299.162-.431.083-.132.192-.248.32-.34a1.23 1.23 0 0 1 .902-.213c.158.024.309.078.445.158a1.2 1.2 0 0 1 .349.311 1.164 1.164 0 0 1 .22.877c-.05.31-.224.587-.483.771a1.24 1.24 0 0 1-1.695-.255 1.154 1.154 0 0 1-.22-.877z" fill="#fff" opacity=".8"/>
    <path d="M54.764 87 57 89.251 56.105 92 53 88.492 54.764 87zM57.381 87 57 88.655 58.238 91 59 87.953 57.381 87z" fill="#407BFF"/>
    <path d="M59 91a9.524 9.524 0 0 0 3.695-1.761h.068l.237-.205-.486-.239A12.376 12.376 0 0 0 59.757 88a.48.48 0 0 0 0 .08A3.692 3.692 0 0 1 59 91zM50 88.635l.124.102c1.292 1.14 2.912 1.925 4.673 2.263H55a2.414 2.414 0 0 1-.327-.246 8.3 8.3 0 0 1-.946-.89c-.157-.175-.1-.123-.157-.175l-.282-.337-.259-.338c-.079-.103-.157-.205-.214-.297-.056-.092-.304-.43-.383-.563-.034-.05-.064-.1-.09-.154 0 0-1.17.276-2.342.635z" fill="#263238"/>
    <path opacity=".1" d="m50 88.635.124.102c1.292 1.14 2.912 1.925 4.673 2.263H55a2.414 2.414 0 0 1-.327-.246 8.3 8.3 0 0 1-.946-.89c-.157-.175-.1-.123-.157-.175l-.282-.337-.259-.338c-.079-.103-.157-.205-.214-.297-.056-.092-.304-.43-.383-.563-.034-.05-.064-.1-.09-.154 0 0-1.17.276-2.342.635z" fill="#fff"/>
    <path opacity=".6" d="M54.764 87 57 89.251 56.105 92 53 88.492 54.764 87zM57.381 87 57 88.655 58.238 91 59 87.953 57.381 87z" fill="#fff"/>
    <g opacity=".1" fill="#fff">
        <path d="M60 91a9.524 9.524 0 0 0 3.695-1.761h.068l.237-.205-.486-.239A12.376 12.376 0 0 0 60.757 88a.48.48 0 0 0 0 .08A3.692 3.692 0 0 1 60 91zM50 88.635l.124.102c1.292 1.14 2.912 1.925 4.673 2.263H55a2.414 2.414 0 0 1-.327-.246 8.3 8.3 0 0 1-.946-.89c-.157-.175-.1-.123-.157-.175l-.282-.337-.259-.338c-.079-.103-.157-.205-.214-.297-.056-.092-.304-.43-.383-.563-.034-.05-.064-.1-.09-.154 0 0-1.17.276-2.342.635z"/>
    </g>
    <path d="M213 120.065a10.03 10.03 0 0 1-.937 4.255 9.974 9.974 0 0 1-2.654 3.449l-.245.211h-.07l-.094.071a9.745 9.745 0 0 1-3.731 1.749h-.105c-.246 0-.503.094-.749.13a5.388 5.388 0 0 1-.608.07H202.205a7.962 7.962 0 0 1-1.065-.141h-.21a9.798 9.798 0 0 1-4.187-1.996 6.308 6.308 0 0 1-.667-.587l-.129-.118a10.051 10.051 0 0 1-2.51-4.182 10.06 10.06 0 0 1 1.823-9.293 9.974 9.974 0 0 1 8.712-3.636 9.98 9.98 0 0 1 4.579 1.642 10.024 10.024 0 0 1 3.267 3.617 10.076 10.076 0 0 1 1.182 4.736v.023z" fill="#fff"/>
    <path d="M206 125h-6v3h6v-3z" fill="#263238"/>
    <path opacity=".3" d="M206 125h-6v3h6v-3z" fill="#fff"/>
    <path opacity=".2" d="M206 126h-6v.154h6V126zM206 127h-6v.154h6V127z" fill="#000"/>
    <path opacity=".2" d="M206 127h-6v.154h6V127zM206 125v.802a19.077 19.077 0 0 1-6 1.198v-2h6z" fill="#000"/>
    <path d="M207.875 116h-9.738c-.567 0-1.11.232-1.511.644A2.233 2.233 0 0 0 196 118.2v5.613c.003.581.23 1.137.63 1.547.4.41.942.64 1.507.64h9.738a2.107 2.107 0 0 0 1.499-.644c.398-.41.623-.964.626-1.543V118.2c0-.582-.223-1.139-.622-1.552a2.104 2.104 0 0 0-1.503-.648z" fill="#407BFF"/>
    <path opacity=".2" d="M207.859 116H204a2.13 2.13 0 0 1 1.515.648c.401.413.626.97.626 1.552v5.613c0 .58-.225 1.136-.627 1.546A2.114 2.114 0 0 1 204 126h3.859c.568 0 1.112-.23 1.514-.641.401-.41.627-.966.627-1.546V118.2c0-.582-.225-1.139-.626-1.552a2.132 2.132 0 0 0-1.515-.648z" fill="#000"/>
    <path d="M203.754 117h-5.508c-.688 0-1.246.598-1.246 1.335v5.33c0 .737.558 1.335 1.246 1.335h5.508c.688 0 1.246-.598 1.246-1.335v-5.33c0-.737-.558-1.335-1.246-1.335zM209.153 119.999a.136.136 0 0 1-.107-.038.152.152 0 0 1-.046-.109v-6.704a.164.164 0 0 1 .049-.106.151.151 0 0 1 .104-.042.15.15 0 0 1 .097.046.17.17 0 0 1 .045.102v6.704a.15.15 0 0 1-.042.104.135.135 0 0 1-.1.043z" fill="#263238"/>
    <path d="M211 121c.002.321-.075.638-.228.933-.103.209-.253.4-.443.561-.168.16-.374.287-.605.374a2.08 2.08 0 0 1-.736.132 2.555 2.555 0 0 1-1.426-.699c-.363-.365-.562-.826-.562-1.301s.199-.936.562-1.301a2.555 2.555 0 0 1 1.426-.699 2.1 2.1 0 0 1 .736.139c.231.089.438.218.605.378.181.165.327.355.429.562.158.289.24.603.242.921z" fill="#407BFF"/>
    <path d="M209.208 121.833a1.272 1.272 0 0 1-.744-.469 1.398 1.398 0 0 1-.293-.859c0-.313.104-.617.293-.859.188-.242.451-.408.744-.469a.96.96 0 0 1 .45.133c.138.082.255.197.342.336a1.789 1.789 0 0 0-.317-.521.948.948 0 0 0-.475-.125 1.435 1.435 0 0 0-.866.517 1.57 1.57 0 0 0-.342.983c0 .36.121.708.342.983.222.274.528.458.866.517a.951.951 0 0 0 .465-.115c.14-.149.251-.326.327-.52a1.014 1.014 0 0 1-.342.335.95.95 0 0 1-.45.133z" fill="#000" opacity=".4"/>
    <path d="M203 119.5c0 .279-.224.5-.5.5a.498.498 0 0 1-.5-.5c0-.279.224-.5.5-.5s.5.221.5.5zM199.5 120a.5.5 0 1 0 0-1 .5.5 0 0 0 0 1z" fill="#fff"/>
    <path opacity=".4" d="M201 122.734c.394.397.755.82 1.082 1.266l.274-.127c1.232-.557 1.602-1.189 1.643-1.734a1.618 1.618 0 0 0-.164-.759 1.77 1.77 0 0 0-.247-.38 6.364 6.364 0 0 1-2.177 1.557c-.133.068-.27.127-.411.177z" fill="#fff"/>
    <path d="m201 122.618.271.382c.961-.553 1.571-1.092 1.729-1.605a1.937 1.937 0 0 0-.203-.395 5.484 5.484 0 0 1-1.797 1.618z" fill="#fff"/>
    <path d="M202 124c.75-.642.975-1.372 1-2a3.76 3.76 0 0 0-.758 1.007A2.68 2.68 0 0 0 202 124zM208 128.872a9.144 9.144 0 0 1-3.653 1.91h-.103c-.24 0-.492.103-.733.141a4.77 4.77 0 0 1-.595.077h-1.569a7.079 7.079 0 0 1-1.042-.154h-.206c-1.506-.364-2.912-1.13-4.099-2.231a2.469 2.469 0 0 1 1.615-.615h8.553c.689.008 1.348.322 1.832.872z" fill="#407BFF"/>
    <path d="M100.53 146.455h77.789L184 150v-33.465a6.532 6.532 0 0 0-1.906-4.624 6.484 6.484 0 0 0-4.612-1.911H100.53a6.522 6.522 0 0 0-6.033 4.031 6.554 6.554 0 0 0-.497 2.504v23.385a6.556 6.556 0 0 0 1.917 4.622 6.522 6.522 0 0 0 4.613 1.913z" fill="#4883F8"/>
    <path d="M104 119h72M104 125h72M104 131h72M104 137h37" stroke="#fff" stroke-width="1.159" stroke-linecap="round" stroke-linejoin="round"/>
    <path opacity=".2" d="M165.543 203.448H77.66L72 207v-39.452c0-.861.168-1.714.494-2.509a6.55 6.55 0 0 1 1.408-2.125 6.458 6.458 0 0 1 4.59-1.914h87.028a6.415 6.415 0 0 1 2.482.495 6.486 6.486 0 0 1 3.508 3.545c.325.795.492 1.647.49 2.508V196.9a6.58 6.58 0 0 1-1.89 4.622 6.445 6.445 0 0 1-4.567 1.926z" fill="#000"/>
    <path d="M80 170h84M80 176h84M80 182h84M80 194h37M80 188h84" stroke="#fff" stroke-width="1.159" stroke-linecap="round" stroke-linejoin="round"/>
    <path d="M47 171.034a10.036 10.036 0 0 0 2.942 7.114l.129.117a9.875 9.875 0 0 0 4.845 2.594h.21c.35.071.706.118 1.063.141H57.788c.204-.012.406-.035.607-.07.245 0 .502-.071.747-.13h.106a9.833 9.833 0 0 0 3.817-1.819h.07l.246-.211a10.035 10.035 0 0 0 2.92-4.043 10.087 10.087 0 0 0-1.215-9.6 10 10 0 0 0-3.833-3.179 9.93 9.93 0 0 0-9.605.628 10.012 10.012 0 0 0-3.392 3.65 10.081 10.081 0 0 0-1.221 4.843l-.035-.035z" fill="#407BFF"/>
    <path d="M50.467 168.792s-1.253 4.778.346 6.188c1.599 1.409 10.57 1.421 11.859-.359 1.289-1.78-1.635-7.621-1.635-7.621l-10.57 1.792z" fill="#263238"/>
    <path d="M50 179.013c1.34 1.427 3.02 2.41 4.847 2.833h.21c.351.077.706.129 1.063.154h1.601c.203-.013.406-.039.607-.077.245 0 .502-.077.747-.141v.077l.106-.103A9.497 9.497 0 0 0 63 179.769c-.058-.179-.117-.372-.187-.551H62.661c-.222-.077-.689-.244-1.331-.423h-.07a22.88 22.88 0 0 0-1.285-.321l-.935-.192h-.14c-.28 0-.572-.103-.876-.141h-.327a23.303 23.303 0 0 0-1.425-.141H54.274l-.665.103-1.168.218c-.934.205-1.775.461-2.441.692z" fill="#407BFF"/>
    <path opacity=".6" d="M50 179.013c1.34 1.427 3.02 2.41 4.847 2.833h.21c.351.077.706.129 1.063.154h1.601c.203-.013.406-.039.607-.077.245 0 .502-.077.747-.141v.077l.106-.103A9.497 9.497 0 0 0 63 179.769c-.058-.179-.117-.372-.187-.551H62.661c-.222-.077-.689-.244-1.331-.423h-.07a22.88 22.88 0 0 0-1.285-.321l-.935-.192h-.14c-.28 0-.572-.103-.876-.141h-.327a23.303 23.303 0 0 0-1.425-.141H54.274l-.665.103-1.168.218c-.934.205-1.775.461-2.441.692z" fill="#fff"/>
    <path d="M61.99 168.914s.539-7.334-6.288-5.668c-8.577 2.131-3.594 11.891.598 10.644a9.557 9.557 0 0 0 3.41-1.91 8.954 8.954 0 0 0 2.28-3.066z" fill="#263238"/>
    <path opacity=".2" d="m53 177.558 1.48 3.013.129.258h.211c.353.073.71.122 1.069.147l.798-1.115c.082.355.153.735.235 1.139h.575c-.059-.686-.106-1.115-.106-1.115l.717 1.042c.246 0 .505-.074.751-.135l.141-3.283-.305-.134a5.547 5.547 0 0 0-.963-.307h-.211a7.592 7.592 0 0 0-2.032 0l-.61.086c-.334.041-.664.11-.987.208a8.048 8.048 0 0 0-.845.245l-.047-.049z" fill="#000"/>
    <path d="M56.932 178 54 177.145c1.801-1.277.89-4.145.89-4.145l2.9 1.082c-.13.418-.23.845-.303 1.277-.304 1.873.513 2.024.513 2.024l-1.068.617z" fill="#B97964"/>
    <path opacity=".2" d="M58 174.353c-.135.539-.24 1.089-.314 1.647-1.067-.712-1.988-1.74-2.686-3l3 1.353z" fill="#000"/>
    <path d="M57.47 165.015c2.921-.181 3.973 1.277 4.382 4.183.502 3.629-.152 6.274-3.868 5.731-5.048-.712-5.387-9.575-.514-9.914z" fill="#B97964"/>
    <path d="M60 169a8.138 8.138 0 0 0 1 1.512.933.933 0 0 1-.347.379.74.74 0 0 1-.463.105L60 169z" fill="#A24E3F"/>
    <path d="M58 169.473c0 .27-.16.513-.438.526a.538.538 0 0 1-.557-.472.452.452 0 0 1 .438-.526.538.538 0 0 1 .557.472zM58 168.248l1-.248s-.442.461-1 .248zM61 168.473c0 .283-.163.513-.428.526-.265.014-.55-.189-.57-.472-.02-.283.142-.513.428-.526a.558.558 0 0 1 .57.472zM61 168.26l1-.26s-.386.461-1 .26z" fill="#263238"/>
    <path d="M58 167.005c-.188-.027-.377.049-.55.222-.174.172-.328.437-.45.773M60 167.068a.971.971 0 0 1 .516-.055c.174.029.34.104.484.221" stroke="#263238" stroke-width=".834" stroke-linecap="round" stroke-linejoin="round"/>
    <path d="M54.513 170.531a9.158 9.158 0 0 0 .923-4.516s5.87-2.861 6.562 3.25c0 0 .243-5.478-5.006-5.259-5.25.22-4.715 7.888-1.872 9.994a3.79 3.79 0 0 1-.607-3.469z" fill="#263238"/>
    <path d="M54.97 170.94a1.074 1.074 0 0 0-.46-.71 1.315 1.315 0 0 0-.883-.223c-.854.129-1.109 1.737 1.02 1.985.267.06.422-.218.322-1.052z" fill="#B97964"/>
    <path d="M60 171.636a13.7 13.7 0 0 0-.304 1.364h-.187c-.866-.078-1.24-.481-1.404-.915a1.837 1.837 0 0 1-.093-.682 1.73 1.73 0 0 1 0-.403c.51.36 1.072.572 1.649.62l.339.016z" fill="#263238"/>
    <path d="m60 171.604-.11.393a2.832 2.832 0 0 1-1.876-.604 1.398 1.398 0 0 1 0-.393 4.408 4.408 0 0 0 1.986.604z" fill="#fff"/>
    <path d="M59 173c-.617-.085-.883-.525-1-1 .234.032.463.153.675.356.136.149.248.372.325.644z" fill="#DE5753"/>
    <path d="M57.076 165.081s-.889 4.78-3.972 4.917c-3.083.137 1.269-6.126 1.269-6.126s4.909-2.133 7.553.274-.427 4.563-.427 4.563-.047-3.662-4.423-3.628z" fill="#263238"/>
    <path d="M56.931 165s.631 3.571-1.931 5" stroke="#263238" stroke-width=".579" stroke-linecap="round" stroke-linejoin="round"/>
    <path d="M54.002 170.029c0 .009.001.018.005.027a.066.066 0 0 0 .016.022.09.09 0 0 0 .023.015.085.085 0 0 0 .027.005H54.766l2.197-.194c.057.277.202.53.416.724a1.456 1.456 0 0 0 1.819.102c.297-.214.494-.531.547-.883a1.31 1.31 0 0 0 0-.217c.108-.136.203-.216.299-.216.08.013.152.054.203.114.045.219.146.424.294.597s.338.309.554.395l.31.08c.188.044.385.044.573 0 .227-.058.433-.172.597-.331a1.19 1.19 0 0 0 .406-.753c.03-.175.024-.354-.02-.526a1.292 1.292 0 0 0-.237-.476 1.363 1.363 0 0 0-.413-.349 1.43 1.43 0 0 0-.524-.165h-.322a1.412 1.412 0 0 0-.844.357c-.23.207-.38.484-.422.783a1.19 1.19 0 0 0 0 .205.428.428 0 0 0-.167 0 .49.49 0 0 0-.334.16 1.314 1.314 0 0 0-.397-.762 1.418 1.418 0 0 0-.797-.378h-.144a1.244 1.244 0 0 0-.573.08c-.224.085-.42.225-.571.405-.151.179-.25.393-.289.621-.012.094-.012.19 0 .285l-1.898.148h-.98s-.06.08-.047.125zm6.4-.946c.04-.274.184-.524.404-.705.22-.18.5-.278.79-.275h.24a1.206 1.206 0 0 1 .8.455 1.088 1.088 0 0 1 .214.867 1.17 1.17 0 0 1-.288.58c-.149.165-.343.288-.56.355-.177.034-.36.034-.537 0h-.239a1.188 1.188 0 0 1-.663-.491 1.098 1.098 0 0 1-.16-.786zm-3.248.354c.05-.303.222-.574.48-.755a1.25 1.25 0 0 1 1.69.25 1.114 1.114 0 0 1 .057 1.281 1.19 1.19 0 0 1-.747.521 1.244 1.244 0 0 1-1.261-.439 1.134 1.134 0 0 1-.199-.409 1.099 1.099 0 0 1-.02-.449z" fill="#263238"/>
    <path d="M54.002 170.029c0 .009.001.018.005.027a.066.066 0 0 0 .016.022.09.09 0 0 0 .023.015.085.085 0 0 0 .027.005H54.766l2.197-.194c.057.277.202.53.416.724a1.456 1.456 0 0 0 1.819.102c.297-.214.494-.531.547-.883a1.31 1.31 0 0 0 0-.217c.108-.136.203-.216.299-.216.08.013.152.054.203.114.045.219.146.424.294.597s.338.309.554.395l.31.08c.188.044.385.044.573 0 .227-.058.433-.172.597-.331a1.19 1.19 0 0 0 .406-.753c.03-.175.024-.354-.02-.526a1.292 1.292 0 0 0-.237-.476 1.363 1.363 0 0 0-.413-.349 1.43 1.43 0 0 0-.524-.165h-.322a1.412 1.412 0 0 0-.844.357c-.23.207-.38.484-.422.783a1.19 1.19 0 0 0 0 .205.428.428 0 0 0-.167 0 .49.49 0 0 0-.334.16 1.314 1.314 0 0 0-.397-.762 1.418 1.418 0 0 0-.797-.378h-.144a1.244 1.244 0 0 0-.573.08c-.224.085-.42.225-.571.405-.151.179-.25.393-.289.621-.012.094-.012.19 0 .285l-1.898.148h-.98s-.06.08-.047.125zm6.4-.946c.04-.274.184-.524.404-.705.22-.18.5-.278.79-.275h.24a1.206 1.206 0 0 1 .8.455 1.088 1.088 0 0 1 .214.867 1.17 1.17 0 0 1-.288.58c-.149.165-.343.288-.56.355-.177.034-.36.034-.537 0h-.239a1.188 1.188 0 0 1-.663-.491 1.098 1.098 0 0 1-.16-.786zm-3.248.354c.05-.303.222-.574.48-.755a1.25 1.25 0 0 1 1.69.25 1.114 1.114 0 0 1 .057 1.281 1.19 1.19 0 0 1-.747.521 1.244 1.244 0 0 1-1.261-.439 1.134 1.134 0 0 1-.199-.409 1.099 1.099 0 0 1-.02-.449z" fill="#fff" opacity=".8"/>
    <path d="M54.764 177 57 179.251 56.105 182 53 178.492 54.764 177zM57.381 177 57 178.655 58.238 181l.762-3.047-1.619-.953z" fill="#407BFF"/>
    <path d="M59 181a9.533 9.533 0 0 0 3.695-1.761h.068l.237-.205-.486-.239a12.375 12.375 0 0 0-2.757-.795.486.486 0 0 0 0 .08A3.693 3.693 0 0 1 59 181zM50 178.635l.124.102c1.292 1.14 2.912 1.925 4.673 2.263H55a2.344 2.344 0 0 1-.327-.246 6.736 6.736 0 0 1-.439-.379 8.006 8.006 0 0 1-.507-.512c-.157-.174-.1-.122-.157-.174l-.282-.337-.259-.338c-.079-.103-.157-.205-.214-.297-.056-.092-.304-.43-.383-.563a1.288 1.288 0 0 1-.09-.154s-1.17.276-2.342.635z" fill="#263238"/>
    <path opacity=".1" d="m50 178.635.124.102c1.292 1.14 2.912 1.925 4.673 2.263H55a2.344 2.344 0 0 1-.327-.246 6.736 6.736 0 0 1-.439-.379 8.006 8.006 0 0 1-.507-.512c-.157-.174-.1-.122-.157-.174l-.282-.337-.259-.338c-.079-.103-.157-.205-.214-.297-.056-.092-.304-.43-.383-.563a1.288 1.288 0 0 1-.09-.154s-1.17.276-2.342.635z" fill="#fff"/>
    <path opacity=".6" d="M54.764 177 57 179.251 56.105 182 53 178.492 54.764 177zM57.381 177 57 178.655 58.238 181l.762-3.047-1.619-.953z" fill="#fff"/>
    <g opacity=".1" fill="#fff">
        <path d="M60 181a9.533 9.533 0 0 0 3.695-1.761h.068l.237-.205-.486-.239a12.375 12.375 0 0 0-2.757-.795.486.486 0 0 0 0 .08A3.693 3.693 0 0 1 60 181zM50 178.635l.124.102c1.292 1.14 2.912 1.925 4.673 2.263H55a2.344 2.344 0 0 1-.327-.246 6.736 6.736 0 0 1-.439-.379 8.006 8.006 0 0 1-.507-.512c-.157-.174-.1-.122-.157-.174l-.282-.337-.259-.338c-.079-.103-.157-.205-.214-.297-.056-.092-.304-.43-.383-.563a1.288 1.288 0 0 1-.09-.154s-1.17.276-2.342.635z"/>
    </g>
    <path d="M213 227.065a10.03 10.03 0 0 1-.937 4.255 9.974 9.974 0 0 1-2.654 3.449l-.245.211h-.07l-.094.071a9.745 9.745 0 0 1-3.731 1.749h-.105c-.246.059-.503.094-.749.13a5.388 5.388 0 0 1-.608.07H202.205a7.962 7.962 0 0 1-1.065-.141h-.21a9.798 9.798 0 0 1-4.187-1.996 6.308 6.308 0 0 1-.667-.587l-.129-.118a10.051 10.051 0 0 1-2.51-4.182 10.06 10.06 0 0 1 1.823-9.293 9.974 9.974 0 0 1 8.712-3.636 9.98 9.98 0 0 1 4.579 1.642 10.024 10.024 0 0 1 3.267 3.617 10.076 10.076 0 0 1 1.182 4.736v.023z" fill="#fff"/>
    <path d="M206 231h-6v3h6v-3z" fill="#263238"/>
    <path opacity=".3" d="M206 231h-6v3h6v-3z" fill="#fff"/>
    <path opacity=".2" d="M206 232h-6v.154h6V232zM206 233h-6v.154h6V233zM206 234h-6v.154h6V234z" fill="#000"/>
    <path opacity=".2" d="M206 231v.802a19.077 19.077 0 0 1-6 1.198v-2h6z" fill="#000"/>
    <path d="M207.875 222h-9.738c-.567 0-1.11.232-1.511.644A2.233 2.233 0 0 0 196 224.2v5.612c.003.582.23 1.138.63 1.548.4.41.942.64 1.507.64h9.738a2.107 2.107 0 0 0 1.499-.644c.398-.41.623-.964.626-1.544V224.2c0-.582-.223-1.139-.622-1.552a2.104 2.104 0 0 0-1.503-.648z" fill="#407BFF"/>
    <path opacity=".2" d="M207.859 222H204a2.13 2.13 0 0 1 1.515.648c.401.413.626.97.626 1.552v5.612c0 .581-.225 1.137-.627 1.547A2.114 2.114 0 0 1 204 232h3.859c.568 0 1.112-.23 1.514-.641.401-.41.627-.966.627-1.547V224.2c0-.582-.225-1.139-.626-1.552a2.132 2.132 0 0 0-1.515-.648z" fill="#000"/>
    <path d="M203.754 223h-5.508c-.688 0-1.246.598-1.246 1.335v5.33c0 .737.558 1.335 1.246 1.335h5.508c.688 0 1.246-.598 1.246-1.335v-5.33c0-.737-.558-1.335-1.246-1.335zM209.153 225.999a.136.136 0 0 1-.107-.038.152.152 0 0 1-.046-.109v-6.704a.164.164 0 0 1 .049-.106.151.151 0 0 1 .104-.042.15.15 0 0 1 .097.046.17.17 0 0 1 .045.102v6.704a.15.15 0 0 1-.042.104.135.135 0 0 1-.1.043z" fill="#263238"/>
    <path d="M211 227c.002.321-.075.638-.228.933-.103.209-.253.4-.443.561-.168.16-.374.287-.605.374a2.08 2.08 0 0 1-.736.132 2.555 2.555 0 0 1-1.426-.699c-.363-.365-.562-.826-.562-1.301s.199-.936.562-1.301a2.555 2.555 0 0 1 1.426-.699 2.1 2.1 0 0 1 .736.139c.231.089.438.218.605.378.181.165.327.355.429.562.158.289.24.603.242.921z" fill="#407BFF"/>
    <path d="M209.208 228.833a1.272 1.272 0 0 1-.744-.469 1.398 1.398 0 0 1-.293-.859c0-.313.104-.617.293-.859.188-.242.451-.408.744-.469a.96.96 0 0 1 .45.133c.138.082.255.197.342.336a1.789 1.789 0 0 0-.317-.521.948.948 0 0 0-.475-.125 1.435 1.435 0 0 0-.866.517 1.57 1.57 0 0 0-.342.983c0 .36.121.708.342.983.222.274.528.458.866.517a.951.951 0 0 0 .465-.115c.14-.149.251-.326.327-.521a1.008 1.008 0 0 1-.342.336.95.95 0 0 1-.45.133z" fill="#000" opacity=".4"/>
    <path d="M203 225.5c0 .279-.224.5-.5.5a.498.498 0 0 1-.5-.5c0-.279.224-.5.5-.5s.5.221.5.5zM199.5 226a.5.5 0 1 0 0-1 .5.5 0 0 0 0 1z" fill="#fff"/>
    <path opacity=".4" d="M201 228.734c.394.397.755.82 1.082 1.266l.274-.127c1.232-.557 1.602-1.189 1.643-1.734a1.618 1.618 0 0 0-.164-.759 1.77 1.77 0 0 0-.247-.38 6.364 6.364 0 0 1-2.177 1.557c-.133.068-.27.127-.411.177z" fill="#fff"/>
    <path d="m201 228.618.271.382c.961-.553 1.571-1.092 1.729-1.605a1.937 1.937 0 0 0-.203-.395 5.484 5.484 0 0 1-1.797 1.618z" fill="#fff"/>
    <path d="M202 230c.75-.642.975-1.372 1-2a3.76 3.76 0 0 0-.758 1.007A2.68 2.68 0 0 0 202 230zM208 234.872a9.144 9.144 0 0 1-3.653 1.91h-.103c-.24.064-.492.103-.733.141a4.77 4.77 0 0 1-.595.077h-1.569a7.079 7.079 0 0 1-1.042-.154h-.206c-1.506-.364-2.912-1.13-4.099-2.231a2.469 2.469 0 0 1 1.615-.615h8.553c.689.008 1.348.322 1.832.872zM78.507 265.442h99.832L184 269v-45.442a6.593 6.593 0 0 0-.491-2.512 6.555 6.555 0 0 0-1.408-2.129 6.476 6.476 0 0 0-2.109-1.421 6.418 6.418 0 0 0-2.487-.496H78.507a6.479 6.479 0 0 0-4.6 1.917 6.554 6.554 0 0 0-1.411 2.129 6.611 6.611 0 0 0-.496 2.512v35.327a6.6 6.6 0 0 0 1.91 4.637 6.473 6.473 0 0 0 4.597 1.92z" fill="#407BFF"/>
    <path d="M80 225h96M80 231h96M80 237h96M80 249h96M80 255h38M80 243h96" stroke="#fff" stroke-width="1.159" stroke-linecap="round" stroke-linejoin="round"/>
    <path d="M306 218h-10.016s-13.245 22.756-24.739 21.456c-9.094-1.072-14.001-17.785-14.001-17.785l-6.244.358s3.228 21.671 18.341 25.462C289.728 252.569 306 218 306 218z" fill="#263238"/>
    <path opacity=".2" d="M306 218.155a84.343 84.343 0 0 1-5.082 8.916l-.543.845a83.88 83.88 0 0 1-3.64 5.083l-.626.798a61.25 61.25 0 0 1-4.29 4.857l-.721.714a42.634 42.634 0 0 1-5.058 4.238l-.839.571a27.13 27.13 0 0 1-4.597 2.381l-.946.345a17.69 17.69 0 0 1-6.819 1.084 9.625 9.625 0 0 1-1.004-.06 15.428 15.428 0 0 1-2.506-.429 17.514 17.514 0 0 1-4.526-1.833 9.223 9.223 0 0 1-.874-.524 21.165 21.165 0 0 1-4.42-3.856 20.44 20.44 0 0 1-.662-.774 31.117 31.117 0 0 1-3.25-4.941 13.66 13.66 0 0 1-.473-.916A47.037 47.037 0 0 1 251 222.071l6.24-.357a48.026 48.026 0 0 0 3.545 8.428c.15.302.315.599.496.893a28.784 28.784 0 0 0 2.47 3.571c.213.274.438.536.662.786a15.058 15.058 0 0 0 2.364 2.178c.274.21.563.401.862.572a8.793 8.793 0 0 0 3.546 1.285h.354a10.75 10.75 0 0 0 4.219-.654c.319-.107.627-.238.934-.369a18.71 18.71 0 0 0 3.037-1.691c.284-.178.555-.369.827-.571a35.994 35.994 0 0 0 3.628-3.071c.249-.227.497-.465.733-.715a55.467 55.467 0 0 0 3.664-4.035l.65-.786a83.107 83.107 0 0 0 3.309-4.381l.579-.821c1.749-2.547 2.789-4.333 2.789-4.333l10.092.155z" fill="#fff"/>
    <path d="M257.964 224.709 252.209 228s-4.602-9.765-2.784-18.348L259.677 207a40.148 40.148 0 0 1-1.713 17.709z" fill="#F9AFB3"/>
    <path opacity=".2" d="m301 226.222-.522.778-7.478-4.243.556-.757 7.444 4.222zM297 232.221l-.618.779-7.382-5.233.641-.767 7.359 5.221zM292 238.273l-.76.727-7.24-6.273c.262-.23.523-.473.773-.727l7.227 6.273zM286 243.42l-.804.58-5.196-7.42c.272-.181.532-.375.792-.58l5.208 7.42zM281 245.671l-.985.329-4.015-7.649c.333-.102.653-.226.973-.351l4.027 7.671zM273 247a6.523 6.523 0 0 1-.802-.056L272 239c.267.017.535.017.802 0l.198 8zM268 237.568 264.934 245a10.363 10.363 0 0 1-.934-.521l3.079-7.479c.293.208.601.398.921.568zM265 234.829 259.71 241c-.241-.264-.482-.54-.71-.817l5.29-6.183c.228.289.469.566.71.829zM261 230.866 255.459 235a12.089 12.089 0 0 1-.459-.844l5.518-4.156c.153.307.314.596.482.866z" fill="#000"/>
    <path d="M276.985 216.293a1.502 1.502 0 0 1-.888 1.587 1.48 1.48 0 0 1-.633.119h-16.802a1.943 1.943 0 0 1-1.26-.5 1.97 1.97 0 0 1-.633-1.206l-3.75-33.365a1.688 1.688 0 0 1 .859-1.732c.201-.11.423-.176.65-.196h16.802c.487.058.941.28 1.287.63a2.2 2.2 0 0 1 .618 1.298l3.75 33.365z" fill="#263238"/>
    <path opacity=".5" d="m272.031 182.706 3.928 33.69a1.247 1.247 0 0 1-.265 1.141 1.314 1.314 0 0 1-.495.359c-.192.08-.401.115-.61.101h-14.738c-.984 0-2.798-.537-2.906-1.484l-3.94-33.807c-.108-.946 1.585-1.706 2.57-1.706h14.774c.449.029.87.22 1.181.536.311.315.49.733.501 1.17z" fill="#fff"/>
    <path d="M274 360c15.464 0 28-16.118 28-36s-12.536-36-28-36-28 16.118-28 36 12.536 36 28 36z" fill="#263238"/>
    <path opacity=".2" d="M280.5 349c10.77 0 19.5-11.193 19.5-25s-8.73-25-19.5-25-19.5 11.193-19.5 25 8.73 25 19.5 25z" fill="#000"/>
    <path d="M380 306.086 358.256 329l-69.496-3.191L273 308.603l9.718-22.452A3.526 3.526 0 0 1 285.98 284h17.469a3.53 3.53 0 0 1 2.603 1.182l1.048 1.181 4.853 5.212a3.527 3.527 0 0 0 2.603 1.182h13.452a3.524 3.524 0 0 0 1.92-.556l11.673-7.492a3.526 3.526 0 0 1 1.908-.555h23.958a3.52 3.52 0 0 1 1.915.552 3.55 3.55 0 0 1 1.313 1.504L380 306.086z" fill="#F9AFB3"/>
    <path opacity=".2" d="m335 308.419 11.669-19.665a3.583 3.583 0 0 1 3.079-1.754h16.828a3.528 3.528 0 0 1 3.303 2.201L377 306.23 367.387 323l-24.948-.93L335 307.489M342 284l-10.124 17.039a3.992 3.992 0 0 1-3.43 1.961h-43.975a2.48 2.48 0 0 1-2.459-2.24c-.04-.407.021-.817.176-1.194l4.968-11.966a3.079 3.079 0 0 1 2.827-1.889h17.339l4.873 5.24a3.535 3.535 0 0 0 2.614 1.188h13.542a3.525 3.525 0 0 0 1.928-.558L342 284z" fill="#000"/>
    <path d="M360.742 345h-72.85a10.82 10.82 0 0 1-4.512-.986 10.712 10.712 0 0 1-3.673-2.776l-12.195-14.313a10.455 10.455 0 0 1-2.512-6.823v-9.849a4.238 4.238 0 0 1 1.262-3.011 4.273 4.273 0 0 1 1.396-.922 4.324 4.324 0 0 1 1.647-.32h91.402c1.139 0 2.231.448 3.036 1.246a4.231 4.231 0 0 1 1.257 3.007v30.494a4.23 4.23 0 0 1-1.245 2.995 4.309 4.309 0 0 1-3.013 1.258z" fill="#263238"/>
    <path opacity=".3" d="M365 310.253v30.494c0 1.128-.452 2.21-1.257 3.007a4.31 4.31 0 0 1-3.034 1.246h-72.825c-1.558 0-3.097-.337-4.51-.986a10.708 10.708 0 0 1-3.672-2.776l-12.191-14.313a10.459 10.459 0 0 1-2.511-6.823v-9.849a4.235 4.235 0 0 1 1.261-3.011 4.32 4.32 0 0 1 3.042-1.242h91.37a4.326 4.326 0 0 1 3.058 1.233 4.224 4.224 0 0 1 1.269 3.02z" fill="#fff"/>
    <path opacity=".2" d="M365 310.253v30.494a4.26 4.26 0 0 1-1.24 3.007 4.22 4.22 0 0 1-2.993 1.246H350.57c-1.537 0-3.055-.337-4.448-.986a10.573 10.573 0 0 1-3.622-2.776l-12.023-14.313a10.544 10.544 0 0 1-2.477-6.823v-9.849a4.265 4.265 0 0 1 1.244-3.011 4.227 4.227 0 0 1 3-1.242h28.489a4.223 4.223 0 0 1 3.015 1.233 4.275 4.275 0 0 1 1.252 3.02z" fill="#000"/>
    <path d="m300.711 345.483-11.248-14.855a12.53 12.53 0 0 0-3.864-3.205 12.405 12.405 0 0 0-4.799-1.417 3.214 3.214 0 0 0-1.99.542l-1.108.83c-1.001.747-.965 2.215.322 3.913l11.141 14.71c.238.311.543.563.892.736a2.5 2.5 0 0 0 1.122.263h11.296c.398 0 .781-.157 1.066-.438.285-.282.45-.664.459-1.067h-3.289v-.012z" fill="#263238"/>
    <path opacity=".2" d="M279.645 327c-2.755 0-3.474 1.972-1.605 4.399l11.198 14.609a2.555 2.555 0 0 0 2.025.992H301a2.086 2.086 0 0 1-1.665-.813l-11.378-14.788a12.077 12.077 0 0 0-8.312-4.399z" fill="#fff"/>
    <path d="m317.711 345.483-11.248-14.855a12.507 12.507 0 0 0-3.863-3.207 12.373 12.373 0 0 0-4.8-1.415 3.214 3.214 0 0 0-1.99.542l-1.108.83c-1.001.747-.965 2.215.322 3.913l11.141 14.71c.238.31.543.562.892.735.349.173.733.264 1.122.264h11.296c.398 0 .781-.157 1.066-.438.285-.282.45-.664.459-1.067h-3.289v-.012z" fill="#263238"/>
    <path opacity=".2" d="M296.636 327c-2.751 0-3.457 1.972-1.603 4.399l11.184 14.609a2.57 2.57 0 0 0 2.022.992H318a2.084 2.084 0 0 1-1.663-.813l-11.352-14.788a12.094 12.094 0 0 0-8.349-4.399z" fill="#fff"/>
    <path d="m334.711 345.483-11.248-14.855a12.48 12.48 0 0 0-3.863-3.207 12.356 12.356 0 0 0-4.8-1.415 3.235 3.235 0 0 0-1.99.541l-1.108.831c-1.001.746-.965 2.215.322 3.912l11.141 14.711c.238.31.543.562.892.735.349.173.733.264 1.122.264h11.296c.398 0 .781-.157 1.066-.438.285-.282.45-.664.459-1.067h-3.289v-.012z" fill="#263238"/>
    <path opacity=".2" d="M313.636 327c-2.751 0-3.457 1.972-1.603 4.399l11.184 14.609a2.57 2.57 0 0 0 2.022.992H335a2.11 2.11 0 0 1-1.663-.813l-11.352-14.788a12.07 12.07 0 0 0-8.349-4.399z" fill="#fff"/>
    <path d="M375 360c15.464 0 28-16.118 28-36s-12.536-36-28-36-28 16.118-28 36 12.536 36 28 36z" fill="#263238"/>
    <path d="M381.5 349c10.77 0 19.5-11.193 19.5-25s-8.73-25-19.5-25-19.5 11.193-19.5 25 8.73 25 19.5 25z" fill="#F9AFB3"/>
    <path opacity=".2" d="M399 335.008c-3.015 8.836-9.78 14.992-17.65 14.992-10.688 0-19.35-11.36-19.35-25.375 0-9.872 4.296-18.422 10.571-22.625a31.92 31.92 0 0 0-1.699 10.395c0 14.004 8.662 25.376 19.35 25.376a15.604 15.604 0 0 0 8.778-2.763z" fill="#000"/>
    <path d="M303 269v24.701a2.327 2.327 0 0 0 .666 1.626c.211.213.461.382.737.498.276.116.571.175.869.175h25.886a2.268 2.268 0 0 0 1.716-.802l8.533-9.986c.39-.455.871-.82 1.413-1.07a4.109 4.109 0 0 1 1.724-.379H348V269h-45z" fill="#263238"/>
    <path opacity=".3" d="M348 269v14.763h-3.48a4.047 4.047 0 0 0-2.367.731c-.3.199-.571.441-.805.718l-2.864 3.353-.876 1.017-3.468 4.071-.887 1.03-.438.515a2.285 2.285 0 0 1-1.717.802h-25.826a2.293 2.293 0 0 1-2.059-1.317 2.423 2.423 0 0 1-.213-.982V269h45z" fill="#fff"/>
    <path opacity=".2" d="M348 273h-45v1h45v-1zM348 278h-45v1h45v-1zM348 283v.282h-3.48a4.1 4.1 0 0 0-2.367.718H303v-1h45zM338 288l-.862 1H303v-1h35zM334 293l-.882 1h-29.906a2.307 2.307 0 0 1-.212-.953l31-.047z" fill="#000"/>
    <path opacity=".2" d="M348 269v5.188c-7.046 1.703-27.497 6.301-45 6.812v-12h45z" fill="#000"/>
    <path d="M342 195h-34v19h34v-19z" fill="#263238"/>
    <path opacity=".3" d="M342 195h-34v19h34v-19z" fill="#fff"/>
    <path opacity=".2" d="M342 201h-34v1h34v-1zM342 205h-34v1h34v-1zM342 210h-34v1h34v-1z" fill="#000"/>
    <path opacity=".2" d="M342 195v4.82c-8.655 3.124-22.971 7.555-34 7.155V195h34z" fill="#000"/>
    <path d="M356.916 141h-59.832a13.05 13.05 0 0 0-9.252 3.853 13.19 13.19 0 0 0-3.832 9.302v33.702a13.19 13.19 0 0 0 3.836 9.294 13.048 13.048 0 0 0 9.248 3.849h59.832c3.468 0 6.794-1.384 9.248-3.849a13.19 13.19 0 0 0 3.836-9.294v-33.702a13.19 13.19 0 0 0-3.832-9.302 13.05 13.05 0 0 0-9.252-3.853z" fill="#F9AFB3"/>
    <path opacity=".2" d="M370 154.145v33.71a13.126 13.126 0 0 1-3.873 9.299 13.247 13.247 0 0 1-9.348 3.846H333a13.256 13.256 0 0 0 5.059-.997 13.212 13.212 0 0 0 4.289-2.849 13.126 13.126 0 0 0 3.873-9.299v-33.71a13.126 13.126 0 0 0-3.873-9.299 13.212 13.212 0 0 0-4.289-2.849A13.256 13.256 0 0 0 333 141h23.779a13.247 13.247 0 0 1 9.348 3.846 13.126 13.126 0 0 1 3.873 9.299z" fill="#000"/>
    <path d="M332.934 146h-35.868c-4.455 0-8.066 3.573-8.066 7.98v32.04c0 4.407 3.611 7.98 8.066 7.98h35.868c4.455 0 8.066-3.573 8.066-7.98v-32.04c0-4.407-3.611-7.98-8.066-7.98z" fill="#263238"/>
    <path d="M362 163v-39" stroke="#263238" stroke-width="1.159" stroke-miterlimit="10"/>
    <path d="M372 171.03c0 2.067-.415 4.112-1.218 6.005a12.672 12.672 0 0 1-2.319 3.662 9.543 9.543 0 0 1-3.144 2.408 9.256 9.256 0 0 1-3.813.895c-5.798 0-10.506-5.824-10.506-13.03 0-7.206 4.65-12.97 10.448-12.97a9.345 9.345 0 0 1 3.849.902 9.646 9.646 0 0 1 3.178 2.425 12.87 12.87 0 0 1 2.319 3.662A15.522 15.522 0 0 1 372 171.03z" fill="#FFA2A7"/>
    <path d="M366.061 179.805c-4.312 0-7.81-4.172-7.81-9.311s3.498-9.299 7.81-9.299a7.386 7.386 0 0 1 3.384.918 7.241 7.241 0 0 1 2.555 2.369 12.744 12.744 0 0 0-2.429-3.645 7.967 7.967 0 0 0-3.547-.837c-4.979 0-9.024 4.709-9.024 10.494S361.045 181 366.024 181a7.817 7.817 0 0 0 3.51-.825 12.537 12.537 0 0 0 2.43-3.645 7.249 7.249 0 0 1-2.542 2.354 7.383 7.383 0 0 1-3.361.921z" fill="#000" opacity=".4"/>
    <path d="M326 163c0 2.214-.889 4-1.994 4-1.106 0-2.006-1.786-2.006-4s.9-4 2.006-4c1.105 0 1.994 1.786 1.994 4zM304 163c0 2.214-.9 4-2.006 4-1.105 0-1.994-1.786-1.994-4s.889-4 1.994-4c1.106 0 2.006 1.786 2.006 4z" fill="#fff"/>
    <path opacity=".4" d="M313 180.926a63.129 63.129 0 0 1 5.761 7.074l1.462-.684c6.576-3.183 8.564-6.79 8.768-9.832a9.236 9.236 0 0 0-.863-4.327 9.021 9.021 0 0 0-1.317-2.157c-2.456 3.737-8.385 7.156-11.583 8.865-1.354.672-2.228 1.061-2.228 1.061z" fill="#fff"/>
    <path d="m315 179.952 1.762 2.048c6.241-3.048 10.212-5.952 11.238-8.821a9.144 9.144 0 0 0-1.328-2.179c-2.474 3.762-8.425 7.214-11.672 8.952z" fill="#fff"/>
    <path d="M320 187c6.75-3.237 8.791-6.906 9-10a24.23 24.23 0 0 0-6.775 5.036A8.713 8.713 0 0 0 320 187zM367 224.523v34.954a12.519 12.519 0 0 1-3.685 8.859A12.59 12.59 0 0 1 354.42 272h-55.852a12.58 12.58 0 0 1-8.887-3.668 12.506 12.506 0 0 1-3.681-8.855v-34.954a12.5 12.5 0 0 1 3.681-8.855 12.59 12.59 0 0 1 8.887-3.668h55.852a12.592 12.592 0 0 1 8.895 3.664 12.519 12.519 0 0 1 3.685 8.859z" fill="#F9AFB3"/>
    <path opacity=".2" d="M367 224.523v34.954c0 1.646-.33 3.275-.971 4.795a12.514 12.514 0 0 1-2.764 4.064 12.76 12.76 0 0 1-4.137 2.714 12.907 12.907 0 0 1-4.878.95h-6.512c-1.673 0-3.329-.324-4.875-.953a12.769 12.769 0 0 1-4.132-2.715 12.501 12.501 0 0 1-2.761-4.063 12.338 12.338 0 0 1-.97-4.792v-34.954c0-3.321 1.342-6.507 3.731-8.855a12.848 12.848 0 0 1 9.007-3.668h6.512a12.907 12.907 0 0 1 4.878.95 12.76 12.76 0 0 1 4.137 2.714 12.514 12.514 0 0 1 2.764 4.064c.641 1.52.971 3.149.971 4.795z" fill="#000"/>
    <path d="M279 220v-9.874L275 203l.468 10.778L279 220zM250 209.525l1.325-2.121 2.163-1.102v-2.44l4.011-3.862 2.638 3.744-1.252 1.042-1.568-.663-.304 1.741h2.018l1.969 5.604-1.215.912.522 2.748-3.002 1.872-3.124-1.185.79-1.883s-4.971.438-4.971-4.407zM351.669 220.144a5.277 5.277 0 0 1 2.426.612 5.403 5.403 0 0 1 1.893 1.667c.493.7.818 1.508.948 2.36.13.852.061 1.724-.201 2.544-3.119 9.457-12.244 24.673-38.702 24.673C288.842 252 272 225.303 272 225.303l6.697-5.303s14.718 22.231 39.054 22.231c20.102 0 26.752-12.187 28.839-18.472a5.428 5.428 0 0 1 1.972-2.639 5.249 5.249 0 0 1 3.107-.976z" fill="#263238"/>
    <path opacity=".3" d="M356.691 227.308a36.341 36.341 0 0 1-1.466 3.738c-.129.312-.27.623-.434.935a34.398 34.398 0 0 1-3.518 5.774 9.713 9.713 0 0 1-.622.803 32.233 32.233 0 0 1-6.766 6.338l-.833.575a36.355 36.355 0 0 1-8.056 3.929l-.962.324a47.478 47.478 0 0 1-9.029 1.893l-.997.107c-1.888.18-3.881.276-5.981.276-.996 0-1.97 0-2.931-.084l-1.009-.084c-2.63-.22-5.238-.66-7.798-1.318l-.985-.251a52.038 52.038 0 0 1-8.619-3.283l-.891-.455a56.855 56.855 0 0 1-7.928-4.9 21.284 21.284 0 0 1-.821-.599 67.18 67.18 0 0 1-6.93-5.99l-.715-.719a61.176 61.176 0 0 1-7.4-9.01l6.696-5.307a52.34 52.34 0 0 0 6.497 7.584l.727.707a57.316 57.316 0 0 0 5.863 4.9c.27.203.539.407.821.599a51.396 51.396 0 0 0 6.93 4.121l.915.443a43.472 43.472 0 0 0 6.884 2.492c.316.096.645.18.973.252 2.107.52 4.253.865 6.415 1.03l1.008.072h2.04a44.41 44.41 0 0 0 5.207-.3c.34 0 .68-.083 1.009-.143a32.655 32.655 0 0 0 6.743-1.63l.949-.359a27.27 27.27 0 0 0 5.418-2.959c.282-.204.551-.396.809-.611a24.561 24.561 0 0 0 4.492-4.493c.222-.276.422-.551.609-.827a26.857 26.857 0 0 0 2.498-4.289c.141-.323.282-.635.411-.946.281-.671.516-1.318.715-1.905a5.43 5.43 0 0 1 2.743-3.022 5.26 5.26 0 0 1 4.029-.211 5.396 5.396 0 0 1 3.031 2.719 5.584 5.584 0 0 1 .317 4.108l-.058-.024z" fill="#fff"/>
    <path d="M273 206.204s-6.598-4.434-7.177-4.195a55.269 55.269 0 0 0-4.565 4.159l1.017 1.642-2.305 2.589.709 1.115L259 214.57l4.091 5.43h4.919l4.99-13.796z" fill="#263238"/>
    <path d="m273.397 226 6.603-5.114s-5.124-14.174-6.603-14.845c-1.479-.671-10.397 7.116-10.397 8.342 0 1.227 7.038 9.685 10.397 11.617z" fill="#F9AFB3"/>
    <path opacity=".2" d="M356 231.115c-.131.295-.275.59-.442.885L346 226.896c.143-.306.287-.601.418-.896l9.582 5.115zM352 238.164c-.195.29-.404.569-.627.836L343 231.861c.225-.287.426-.574.615-.861l8.385 7.164zM345 244.442l-.852.558-6.148-8.407c.288-.198.564-.384.828-.593l6.172 8.442zM335 249.675l-.891.325-3.109-9.639.88-.361 3.12 9.675zM325 251.892l-.971.108-1.029-9.855c.331 0 .663-.085.983-.145l1.017 9.892zM317 242.073l-.754 9.927-1.246-.085.754-9.915 1.246.073zM309 241.26l-2.008 9.74-.992-.26 2.02-9.74c.319.099.649.185.98.26zM301 238.439 296.972 247l-.972-.451 4.054-8.549.946.439zM293 233.567 287.894 241c-.307-.181-.6-.374-.894-.567l5.106-7.433c.307.193.588.385.894.567zM287 227.664 280.768 234l-.768-.675 6.219-6.325.781.664z" fill="#000"/>
</svg>
