<svg width="400" height="400" viewBox="0 0 400 400" fill="none" xmlns="http://www.w3.org/2000/svg">
    <path d="M226.497 80.5a.484.484 0 0 1-.419-.245l-3.513-6.021a.47.47 0 0 1 0-.479l3.513-6.01a.484.484 0 0 1 .661-.178.481.481 0 0 1 .177.178l3.512 6.01a.453.453 0 0 1 0 .49l-3.512 6.01a.481.481 0 0 1-.419.245zm-2.955-6.5 2.955 5.053L229.451 74l-2.954-5.053L223.542 74zM219 71.5a2.501 2.501 0 1 1 2.5-2.5 2.512 2.512 0 0 1-2.5 2.5zm0-4.128a1.629 1.629 0 1 0-.019 3.258 1.629 1.629 0 0 0 .019-3.258zM227 65.5a2.499 2.499 0 0 1-1.764-4.272 2.5 2.5 0 0 1 4.264 1.783 2.486 2.486 0 0 1-.733 1.764A2.487 2.487 0 0 1 227 65.5zm0-3.982a1.496 1.496 0 0 0-1.38.922 1.499 1.499 0 0 0 .324 1.627 1.493 1.493 0 1 0 1.056-2.55zM219 62.5a1.499 1.499 0 1 1 1.5-1.491 1.5 1.5 0 0 1-.44 1.057 1.488 1.488 0 0 1-1.06.434zm0-2.183a.689.689 0 0 0-.683.692.688.688 0 0 0 .2.483.69.69 0 0 0 .483.2.681.681 0 0 0 .683-.683.693.693 0 0 0-.683-.665v-.027zM296.5 291.5a.515.515 0 0 1-.243-.064.492.492 0 0 1-.18-.171l-4.513-7.536a.44.44 0 0 1 0-.458l4.513-7.536a.492.492 0 0 1 .18-.171.515.515 0 0 1 .481-.006.455.455 0 0 1 .174.166l4.524 7.547a.44.44 0 0 1 0 .458l-4.524 7.536a.475.475 0 0 1-.412.235zm-3.932-8.005 3.964 6.618 3.964-6.618-3.996-6.577-3.932 6.577zM307 295.5a2.506 2.506 0 0 1-2.31-1.543 2.508 2.508 0 0 1 .542-2.725 2.502 2.502 0 0 1 3.847.379c.274.411.421.895.421 1.389a2.513 2.513 0 0 1-2.5 2.5zm0-4.118a1.617 1.617 0 0 0-1.144 2.762c.226.227.514.381.828.443a1.617 1.617 0 1 0 .316-3.205zM292.011 273.5a2.493 2.493 0 0 1-2.317-1.536A2.499 2.499 0 1 1 294.5 271a2.503 2.503 0 0 1-2.489 2.5zm0-3.982a1.493 1.493 0 1 0 1.46 1.438 1.498 1.498 0 0 0-.429-1.038 1.5 1.5 0 0 0-1.031-.445v.045zM305 281.5a1.495 1.495 0 0 1-1.386-.926 1.504 1.504 0 0 1 .325-1.635 1.507 1.507 0 0 1 1.635-.325 1.503 1.503 0 0 1 .487 2.447 1.503 1.503 0 0 1-1.061.439zm0-2.183a.681.681 0 0 0-.67.816.693.693 0 0 0 .187.35.69.69 0 0 0 1.051-.104.681.681 0 0 0 .115-.379.697.697 0 0 0-.194-.494.69.69 0 0 0-.489-.207v.018zM305.425 272.497a.415.415 0 0 1-.216-.061.446.446 0 0 1-.157-.163l-2.494-4.574a.446.446 0 0 1 0-.44l2.561-4.544a.423.423 0 0 1 .373-.215.432.432 0 0 1 .383.215l2.561 4.535a.422.422 0 0 1 0 .449l-2.561 4.535a.447.447 0 0 1-.183.206.424.424 0 0 1-.267.057zm-2.055-4.984 2.055 3.616 2.065-3.655-2.065-3.655-2.055 3.694zM282 290.5a1.495 1.495 0 0 1-1.386-.926 1.504 1.504 0 0 1 .325-1.635 1.507 1.507 0 0 1 1.635-.325 1.503 1.503 0 0 1 .487 2.447 1.503 1.503 0 0 1-1.061.439zm0-2.183a.681.681 0 0 0-.67.816.693.693 0 0 0 .187.35c.096.095.217.16.35.187a.69.69 0 0 0 .701-.291.681.681 0 0 0-.568-1.062zM206.448 254.5H82.542a5.046 5.046 0 0 1-5.042-5.048v-74.915a5.036 5.036 0 0 1 5.042-5.037h123.906c1.338 0 2.621.53 3.569 1.475a5.045 5.045 0 0 1 1.483 3.562v74.915a5.045 5.045 0 0 1-1.48 3.57 5.055 5.055 0 0 1-3.572 1.478zM82.542 170.247a4.295 4.295 0 0 0-4.284 4.29v74.915a4.288 4.288 0 0 0 4.284 4.29h123.906a4.302 4.302 0 0 0 4.294-4.29v-74.915a4.308 4.308 0 0 0-4.294-4.29H82.542z" fill="#25292B"/>
    <path d="M83.174 169.5h123.672c1.234 0 2.418.508 3.291 1.412a4.908 4.908 0 0 1 1.363 3.408v5.18h-133v-5.18c0-.635.121-1.263.356-1.849a4.83 4.83 0 0 1 1.014-1.567c.435-.448.95-.802 1.517-1.043a4.51 4.51 0 0 1 1.787-.361z" fill="#25292B"/>
    <path d="M86.5 201.5h19v-19h-19v19z" fill="#FC7D7F"/>
    <path d="M86.5 225.5h19v-19h-19v19z" fill="#A5C2FB"/>
    <path d="M86.5 248.5h19v-19h-19v19z" fill="#FC7D7F"/>
    <path d="m94.575 198.5-7.075-6.825 3.6-3.477 3.475 3.347 7.315-7.045 3.61 3.477L94.575 198.5z" fill="#fff"/>
    <path d="m94.575 222.5-7.075-6.825 3.6-3.477 3.475 3.347 7.315-7.045 3.61 3.477L94.575 222.5z" fill="#4883F8"/>
    <path d="m94.575 244.5-7.075-6.83 3.6-3.469 3.475 3.349 7.315-7.05 3.61 3.48-10.925 10.52z" fill="#fff"/>
    <path d="M109.5 187.5h93v-4h-93v4zM109.5 194.5h93v-4h-93v4zM109.5 202.5h42v-4h-42v4z" fill="#FC7D7F"/>
    <path d="M109.5 210.5h93v-4h-93v4zM109.5 217.5h93v-4h-93v4zM109.5 224.5h42v-4h-42v4z" fill="#A5C2FB"/>
    <path d="M109.5 233.5h93v-4h-93v4zM109.5 241.5h93v-4h-93v4zM109.5 248.5h42v-4h-42v4z" fill="#FC7D7F"/>
    <path d="m319.963 210.273-6.706 20.077c-9.214 27.461-39.516 34.826-60.319 14.729l-15.192-14.719c-25.379-24.584-17.741-70.001 13.042-77.52l21.908-5.347c30.764-7.539 58.466 29.244 47.267 62.78z" fill="#A5C2FB"/>
    <path d="M266.605 170.84c15.826-3.869 27.436-12.007 25.932-18.178-1.505-6.17-15.554-8.036-31.381-4.167-15.826 3.869-27.436 12.007-25.932 18.178 1.505 6.17 15.554 8.036 31.381 4.167z" fill="#25292B"/>
    <path d="M306.5 129.793c0 22.339-21.708 29.707-48.5 29.707s-48.5-7.368-48.5-29.707S231.218 86.5 258 86.5s48.5 20.964 48.5 43.293z" fill="#A5C2FB"/>
    <path d="M237.523 142.5s-21.785-.266-28.023-11.945v-1.218c0-11.085 5.446-21.833 14.243-29.837h54.823s19.288 43-41.043 43z" fill="#4883F8"/>
    <path d="M223.5 123.5c3.866 0 7-3.582 7-8s-3.134-8-7-8-7 3.582-7 8 3.134 8 7 8zM248.5 123.5c3.866 0 7-3.582 7-8s-3.134-8-7-8-7 3.582-7 8 3.134 8 7 8z" fill="#A5C2FB"/>
    <path d="M233.527 131.5c-6.911 0-7.027-5.63-7.027-5.696 0-.081.035-.158.099-.215a.354.354 0 0 1 .238-.089.369.369 0 0 1 .245.086.299.299 0 0 1 .102.218c0 .209.116 5.069 6.312 5.069 6.196 0 6.312-4.86 6.312-5.069a.295.295 0 0 1 .105-.215.368.368 0 0 1 .242-.089.358.358 0 0 1 .241.086.27.27 0 0 1 .095.218c.064.085-.042 5.696-6.964 5.696zM290.14 152.49a.309.309 0 0 1-.154 0 .338.338 0 0 1-.163-.197.328.328 0 0 1 .029-.252 49.092 49.092 0 0 0 5.698-28.934 49.273 49.273 0 0 0-11.928-27.012.344.344 0 0 1-.122-.254.327.327 0 0 1 .116-.257.34.34 0 0 1 .511.073 49.961 49.961 0 0 1 12.067 27.357 49.77 49.77 0 0 1-5.755 29.302.334.334 0 0 1-.299.174zM259.843 91.5a.36.36 0 0 1-.176-.05.334.334 0 0 1-.167-.3.329.329 0 0 1 .057-.169 30.127 30.127 0 0 0 4.944-12.62 29.664 29.664 0 0 0-1.132-13.437.307.307 0 0 1-.012-.128.322.322 0 0 1 .126-.22.349.349 0 0 1 .12-.059.34.34 0 0 1 .363.1.299.299 0 0 1 .061.114 30.298 30.298 0 0 1 1.152 13.726 30.78 30.78 0 0 1-5.059 12.89.33.33 0 0 1-.277.153z" fill="#25292B"/>
    <path d="M264 72.5a9.5 9.5 0 0 0 9.5-9.5 9.5 9.5 0 0 0-9.5-9.5 9.5 9.5 0 0 0-9.5 9.5 9.5 9.5 0 0 0 9.5 9.5zM298.5 204.5c7.732 0 14-8.059 14-18s-6.268-18-14-18-14 8.059-14 18 6.268 18 14 18z" fill="#4883F8"/>
    <path d="M251.191 214.5a78.967 78.967 0 0 1-35.236-8.277 8.542 8.542 0 0 1-4.067-4.947 8.5 8.5 0 0 1 .526-6.373 8.55 8.55 0 0 1 4.823-4.219 8.593 8.593 0 0 1 6.411.303 61.224 61.224 0 0 0 37.513 5.642 61.08 61.08 0 0 0 33.606-17.536 8.593 8.593 0 0 1 6.028-2.592 8.591 8.591 0 0 1 6.102 2.413 8.534 8.534 0 0 1 2.602 6.005 8.527 8.527 0 0 1-2.422 6.078 78.857 78.857 0 0 1-43.084 22.481 77.981 77.981 0 0 1-12.802 1.022z" fill="#25292B"/>
    <path d="M127.326 151.734a20.112 20.112 0 0 1 6.118 0c2.6.391 5.097 1.293 7.35 2.655a20.032 20.032 0 0 1 5.781 5.285 20.264 20.264 0 0 1 3.705 14.963l-.133.903a4.498 4.498 0 0 1-3.333 3.819 4.453 4.453 0 0 1-3.443-.519 4.494 4.494 0 0 1-2.032-2.846 4.523 4.523 0 0 1-.043-1.788l.133-.893a11.22 11.22 0 0 0-.202-4.342 11.152 11.152 0 0 0-1.838-3.932 10.956 10.956 0 0 0-3.191-2.928 10.882 10.882 0 0 0-4.069-1.456c-2.9-.435-5.854.306-8.211 2.062a11.145 11.145 0 0 0-4.362 7.301l-.133.893a4.516 4.516 0 0 1-1.723 3.059 4.467 4.467 0 0 1-3.382.882 4.46 4.46 0 0 1-2.981-1.834 4.534 4.534 0 0 1-.765-3.432l.133-.903a20.258 20.258 0 0 1 5.566-11.202 20.022 20.022 0 0 1 11.055-5.747zM219.489 190.357a18.942 18.942 0 0 1-1.092 5.662 18.856 18.856 0 0 1-9.711 10.671 18.976 18.976 0 0 1-14.444.714l-.8-.279a4.21 4.21 0 0 1-2.695-5.431 4.226 4.226 0 0 1 3.883-2.793 4.244 4.244 0 0 1 1.66.296l.8.289c2.609.928 5.481.786 7.985-.395a10.42 10.42 0 0 0 5.366-5.903 10.362 10.362 0 0 0-.397-7.952 10.436 10.436 0 0 0-5.928-5.343l-.8-.279a4.222 4.222 0 0 1-2.265-2.181 4.195 4.195 0 0 1-.124-3.135 4.22 4.22 0 0 1 2.087-2.35 4.24 4.24 0 0 1 3.139-.262l.801.289a18.9 18.9 0 0 1 9.281 7.154 18.77 18.77 0 0 1 3.254 11.228zM144.5 282.5h-59v59h59v-59zM83.169 260.5h186.683a4.69 4.69 0 0 1 3.287 1.339 4.54 4.54 0 0 1 1.361 3.234v9.427h-196v-9.427c0-.602.12-1.199.356-1.755a4.57 4.57 0 0 1 1.013-1.486 4.66 4.66 0 0 1 1.515-.99 4.72 4.72 0 0 1 1.785-.342z" fill="#4883F8"/>
    <path d="M269.293 385.5H82.707a5.208 5.208 0 0 1-5.207-5.194V265.694a5.203 5.203 0 0 1 5.207-5.194h186.586a5.198 5.198 0 0 1 5.207 5.194v114.612a5.189 5.189 0 0 1-1.526 3.676 5.198 5.198 0 0 1-3.681 1.518zM82.707 261.602a4.083 4.083 0 0 0-4.084 4.082v114.622a4.08 4.08 0 0 0 4.084 4.082h186.586a4.084 4.084 0 0 0 4.084-4.082V265.694a4.08 4.08 0 0 0-4.084-4.082l-186.586-.01z" fill="#25292B"/>
    <path d="M267.5 268c.001.329-.058.654-.175.958a2.504 2.504 0 0 1-.504.813 2.32 2.32 0 0 1-.758.542 2.191 2.191 0 0 1-.893.187h-11.34a2.253 2.253 0 0 1-1.648-.732A2.596 2.596 0 0 1 251.5 268a2.638 2.638 0 0 1 .68-1.77 2.274 2.274 0 0 1 1.65-.73h11.34c.618 0 1.211.263 1.648.732.437.469.682 1.105.682 1.768z" fill="#A5C2FB"/>
    <path d="M248.5 268a2.612 2.612 0 0 1-.685 1.765 2.266 2.266 0 0 1-1.645.735h-11.34a2.253 2.253 0 0 1-1.648-.732A2.596 2.596 0 0 1 232.5 268c0-.663.245-1.299.682-1.768a2.253 2.253 0 0 1 1.648-.732h11.34c.618 0 1.211.263 1.648.732.437.469.682 1.105.682 1.768z" fill="#25292B"/>
    <path d="M229.5 268a2.612 2.612 0 0 1-.685 1.765 2.266 2.266 0 0 1-1.645.735h-11.34a2.253 2.253 0 0 1-1.648-.732A2.596 2.596 0 0 1 213.5 268c0-.663.245-1.299.682-1.768a2.253 2.253 0 0 1 1.648-.732h11.34c.618 0 1.211.263 1.648.732.437.469.682 1.105.682 1.768z" fill="#2369F6"/>
    <path d="M107.968 334.5 88.5 314.958l9.303-9.338 10.165 10.204 25.229-25.324 9.303 9.338-34.532 34.662z" fill="#A5C2FB"/>
    <path d="M263.174 349.5H86.826c-.732 0-1.326.526-1.326 1.175v.65c0 .649.594 1.175 1.326 1.175h176.348c.732 0 1.326-.526 1.326-1.175v-.65c0-.649-.594-1.175-1.326-1.175zM263.174 361.5H86.826c-.732 0-1.326.526-1.326 1.175v.65c0 .649.594 1.175 1.326 1.175h176.348c.732 0 1.326-.526 1.326-1.175v-.65c0-.649-.594-1.175-1.326-1.175zM210.17 373.5H86.83c-.735 0-1.33.526-1.33 1.175v.65c0 .649.595 1.175 1.33 1.175h123.34c.735 0 1.33-.526 1.33-1.175v-.65c0-.649-.595-1.175-1.33-1.175z" fill="#FC7D7F"/>
    <path opacity=".3" d="M225.747 329.327a11.075 11.075 0 0 1-7.776-3.2 10.879 10.879 0 0 1-3.23-7.706v-23.335a8.777 8.777 0 0 0-2.605-6.234 8.942 8.942 0 0 0-6.291-2.582 8.942 8.942 0 0 0-6.291 2.582 8.777 8.777 0 0 0-2.605 6.234v19.074a9.578 9.578 0 0 1-2.839 6.787 9.748 9.748 0 0 1-6.846 2.82h-.348a9.738 9.738 0 0 1-6.849-2.817 9.565 9.565 0 0 1-2.836-6.79v-21.062a7.913 7.913 0 0 0-.527-3.138 7.969 7.969 0 0 0-1.724-2.684 8.045 8.045 0 0 0-2.645-1.803 8.12 8.12 0 0 0-6.291 0 8.055 8.055 0 0 0-2.645 1.803 7.981 7.981 0 0 0-1.723 2.684 7.914 7.914 0 0 0-.528 3.138v39.506a.813.813 0 0 1-.271.521.833.833 0 0 1-1.106 0 .818.818 0 0 1-.271-.521v-39.506a9.552 9.552 0 0 1 2.837-6.787 9.727 9.727 0 0 1 6.848-2.811 9.731 9.731 0 0 1 6.848 2.811 9.555 9.555 0 0 1 2.836 6.787v21.092a7.953 7.953 0 0 0 2.36 5.636 8.092 8.092 0 0 0 5.687 2.338h.348a8.089 8.089 0 0 0 5.68-2.342 7.945 7.945 0 0 0 2.356-5.632v-19.073c0-2.772 1.111-5.43 3.089-7.39a10.594 10.594 0 0 1 7.456-3.06c2.797 0 5.479 1.101 7.456 3.06a10.402 10.402 0 0 1 3.089 7.39v23.334c0 1.218.242 2.424.712 3.549a9.26 9.26 0 0 0 2.028 3.008 9.37 9.37 0 0 0 3.036 2.01 9.43 9.43 0 0 0 7.161 0 9.359 9.359 0 0 0 3.036-2.01 9.26 9.26 0 0 0 2.028-3.008 9.188 9.188 0 0 0 .713-3.549v-5.61c0-2.812 1.127-5.509 3.133-7.497a10.75 10.75 0 0 1 7.565-3.105 10.75 10.75 0 0 1 7.565 3.105 10.555 10.555 0 0 1 3.133 7.497v22.928a.823.823 0 0 1-.824.731.837.837 0 0 1-.553-.209.818.818 0 0 1-.271-.522v-22.928a8.93 8.93 0 0 0-2.651-6.342 9.091 9.091 0 0 0-6.399-2.627c-2.4 0-4.702.945-6.399 2.627a8.925 8.925 0 0 0-2.651 6.342v5.61a10.868 10.868 0 0 1-3.237 7.689 11.067 11.067 0 0 1-7.768 3.187z" fill="red"/>
    <path d="M168.5 289.5a5 5 0 1 0-.001-10.001 5 5 0 0 0 .001 10.001zM196 310a5 5 0 1 0-.001-10.001A5 5 0 0 0 196 310zM215.5 298.5a5 5 0 1 0-.001-10.001 5 5 0 0 0 .001 10.001zM224.5 333.5a5 5 0 1 0-.001-10.001 5 5 0 0 0 .001 10.001zM255.5 339.5a5 5 0 1 0-.001-10.001 5 5 0 0 0 .001 10.001zM160.5 338.5a5 5 0 1 0-.001-10.001 5 5 0 0 0 .001 10.001z" fill="#FC7D7F"/>
    <path d="M83.011 107.5a.512.512 0 0 1-.511-.51v-6.12a.519.519 0 0 1 .511-.51.51.51 0 0 1 .511.51v6.12a.511.511 0 0 1-.51.51zm101.367-6.018a.508.508 0 0 1-.361-.15.507.507 0 0 1 0-.721.507.507 0 0 1 .361-.149 13.619 13.619 0 0 0 5.684-1.46.513.513 0 0 1 .653.242.509.509 0 0 1-.193.667 14.565 14.565 0 0 1-6.134 1.571h-.01zm-6.052-.735a.452.452 0 0 1-.164 0 14.705 14.705 0 0 1-5.398-3.254.51.51 0 0 1 .166-.836.519.519 0 0 1 .56.112 13.83 13.83 0 0 0 5.02 3.06.522.522 0 0 1 .317.653.5.5 0 0 1-.501.265zm16.685-4.62a.46.46 0 0 1-.317-.113.51.51 0 0 1-.082-.714 13.477 13.477 0 0 0 2.566-5.264.52.52 0 0 1 .624-.377.533.533 0 0 1 .378.622 14.389 14.389 0 0 1-2.771 5.651.481.481 0 0 1-.398.194zm-111.97-.868a.512.512 0 0 1-.51-.51v-6.12a.52.52 0 0 1 .51-.51.512.512 0 0 1 .512.51v6.12a.507.507 0 0 1-.337.48.513.513 0 0 1-.205.03h.03zm86.697-2.683a.491.491 0 0 1-.47-.326 14.26 14.26 0 0 1-1.023-5.406v-.776a.523.523 0 0 1 .511-.51.512.512 0 0 1 .512.51v.786a13.515 13.515 0 0 0 .961 5.029.508.508 0 0 1-.002.392.486.486 0 0 1-.285.27.399.399 0 0 1-.235.031h.031zm-43.726-1.02h-.522c-1.49.001-2.972-.222-4.396-.663a.53.53 0 0 1-.358-.663.536.536 0 0 1 .665-.357 13.52 13.52 0 0 0 4.089.622h.481c.439 0 .869 0 1.298-.06a.513.513 0 1 1 .092 1.02c-.45.05-.91.07-1.38.07l.031.031zm7.156-1.918a.513.513 0 0 1-.255-.958 13.929 13.929 0 0 0 4.314-3.968.504.504 0 0 1 .334-.24.514.514 0 0 1 .613.438.51.51 0 0 1-.119.393 14.793 14.793 0 0 1-4.631 4.264.565.565 0 0 1-.307.04l.051.031zm-17.186-1.764a.561.561 0 0 1-.347-.133 14.92 14.92 0 0 1-3.65-5.1.504.504 0 0 1-.015-.4.51.51 0 0 1 .955.002 13.822 13.822 0 0 0 3.405 4.774.512.512 0 0 1-.348.887v-.03zm82.096-3.295a.512.512 0 0 1-.512-.51v-6.12a.523.523 0 0 1 .512-.51.512.512 0 0 1 .511.51v6.12a.51.51 0 0 1-.511.51zm-115.026-1.56a.512.512 0 0 1-.511-.51v-6.121a.52.52 0 0 1 .511-.51.511.511 0 0 1 .511.51v6.12a.51.51 0 0 1-.552.51h.041zm85.694-2.561a.512.512 0 0 1-.511-.51v-6.12a.519.519 0 0 1 .511-.51.512.512 0 0 1 .511.51v6.12a.5.5 0 0 1-.163.376.516.516 0 0 1-.389.134h.041zm-28.779-.582h-.164a.52.52 0 0 1-.419-.592c.143-.79.215-1.592.215-2.396v-3.622a.512.512 0 0 1 1.022 0v3.622a15.382 15.382 0 0 1-.225 2.57.52.52 0 0 1-.47.418h.041zm-28.626-2.937a.513.513 0 0 1-.511-.51v-6.12a.508.508 0 0 1 .869-.359c.096.096.15.224.153.358v6.12a.51.51 0 0 1-.511.51zm86.696-4.6a.513.513 0 0 1-.511-.51v-6.121a.518.518 0 0 1 .511-.51.512.512 0 0 1 .511.51v6.12a.512.512 0 0 1-.47.51h-.041zM83.011 70.776a.512.512 0 0 1-.511-.51v-6.12a.52.52 0 0 1 .511-.51.512.512 0 0 1 .511.51v6.12a.51.51 0 0 1-.51.51zm85.694-2.56a.512.512 0 0 1-.511-.51v-6.12a.519.519 0 0 1 .511-.51.513.513 0 0 1 .511.51v6.12a.508.508 0 0 1-.511.51zm-28.564-.561a.512.512 0 0 1-.512-.51v-6.12a.51.51 0 0 1 .512-.51.512.512 0 0 1 .511.51v6.12a.523.523 0 0 1-.511.51zm-28.8-2.958a.512.512 0 0 1-.511-.51v-6.12a.508.508 0 0 1 .869-.358c.096.095.15.223.153.357v6.12a.51.51 0 0 1-.511.51zm86.696-4.6a.513.513 0 0 1-.511-.51v-6.121a.518.518 0 0 1 .511-.51.512.512 0 0 1 .511.51v6.12a.512.512 0 0 1-.47.51h-.041zM83.011 58.536a.512.512 0 0 1-.511-.51v-6.12a.52.52 0 0 1 .511-.51.511.511 0 0 1 .511.51v6.12a.51.51 0 0 1-.51.51zm85.694-2.56a.512.512 0 0 1-.511-.51V49.375a.52.52 0 0 1 .292-.487.518.518 0 0 1 .563.083.51.51 0 0 1 .167.353v6.141a.508.508 0 0 1-.511.51zm-28.564-.562a.513.513 0 0 1-.512-.51V48.744a.517.517 0 0 1 .354-.446.51.51 0 0 1 .548.155.511.511 0 0 1 .121.372v6.08a.523.523 0 0 1-.511.51zm-28.8-2.958a.513.513 0 0 1-.511-.51v-6.12a.508.508 0 0 1 .869-.358c.096.095.15.223.153.358v6.12a.51.51 0 0 1-.511.51zm86.737-4.6a.512.512 0 0 1-.512-.51v-6.121a.523.523 0 0 1 .512-.51.512.512 0 0 1 .511.51v6.12a.509.509 0 0 1-.511.51zM83.011 46.295a.512.512 0 0 1-.511-.51v-6.12a.52.52 0 0 1 .511-.51.512.512 0 0 1 .511.51v6.12a.51.51 0 0 1-.51.51zm175.979-.133a.5.5 0 0 1-.43-.245 7.234 7.234 0 0 0-4.58-3.172.518.518 0 0 1-.398-.602.528.528 0 0 1 .613-.398 8.25 8.25 0 0 1 5.224 3.632.508.508 0 0 1-.153.703.577.577 0 0 1-.276.082zm-91.859-2.152a.511.511 0 0 1-.45-.276 13.739 13.739 0 0 0-3.752-4.498.51.51 0 0 1 .624-.806 14.723 14.723 0 0 1 4.028 4.835.5.5 0 0 1 .038.392.516.516 0 0 1-.253.302.605.605 0 0 1-.235.05zm-25.14-.5a.553.553 0 0 1-.256-.061.521.521 0 0 1-.194-.694 14.81 14.81 0 0 1 4.223-4.672.51.51 0 0 1 .804.492.52.52 0 0 1-.201.334 13.693 13.693 0 0 0-3.936 4.346.511.511 0 0 1-.44.234v.02zm105.968-.898h-6.135a.512.512 0 0 1-.511-.51.51.51 0 0 1 .511-.51h6.135a.512.512 0 0 1 .361.87.512.512 0 0 1-.361.15zm-12.054-1.224a.464.464 0 0 1-.205 0 14.315 14.315 0 0 1-5.019-3.815.504.504 0 0 1-.097-.177.52.52 0 0 1 .168-.547.514.514 0 0 1 .716.071 13.166 13.166 0 0 0 4.652 3.54.511.511 0 0 1 .255.673.5.5 0 0 1-.47.255zm-124.523-1.173a.512.512 0 0 1-.512-.51v-2.295a13.621 13.621 0 0 0-.49-3.642.49.49 0 0 1 .047-.386.498.498 0 0 1 .311-.236.512.512 0 0 1 .623.357 14.78 14.78 0 0 1 .532 3.907v2.295a.5.5 0 0 1-.164.376.509.509 0 0 1-.388.134h.041zm46.404-3.499h-.112a14.181 14.181 0 0 0-3.067-.347h-.245c-.854.001-1.706.08-2.546.235a.52.52 0 0 1-.527-.802.518.518 0 0 1 .333-.218 15.35 15.35 0 0 1 2.74-.255h.245c1.115.002 2.226.128 3.312.377a.513.513 0 1 1-.112 1.02l-.021-.01zm40.292-1.101a.513.513 0 0 1-.512-.51v-6.12a.523.523 0 0 1 .512-.51.512.512 0 0 1 .511.51v6.12a.51.51 0 0 1-.511.51zm-114.505-1.51h-.143a.522.522 0 0 1-.358-.633 14.557 14.557 0 0 1 2.976-5.549.512.512 0 0 1 .777.663 13.455 13.455 0 0 0-2.76 5.162.52.52 0 0 1-.492.357zM228.32 32.3a.499.499 0 0 1-.491-.387 13.755 13.755 0 0 1-.409-3.356 12.723 12.723 0 0 0-.286-2.724.515.515 0 0 1 .074-.392.521.521 0 0 1 .948.178c.205.966.308 1.95.307 2.938-.033 1.045.063 2.09.286 3.11a.507.507 0 0 1-.378.613l-.051.02zm-120.342-3.519a.503.503 0 0 1-.388-.183 13.94 13.94 0 0 0-4.662-3.55.506.506 0 0 1-.351-.492.516.516 0 0 1 .177-.379.517.517 0 0 1 .603-.047 14.788 14.788 0 0 1 5.01 3.815.489.489 0 0 1 .064.56.495.495 0 0 1-.126.154.479.479 0 0 1-.327.122zm-16.726-3.703a.49.49 0 0 1-.46-.296.499.499 0 0 1 .246-.673 14.606 14.606 0 0 1 6.134-1.336.522.522 0 0 1 .521.51.51.51 0 0 1-.5.51 13.622 13.622 0 0 0-5.736 1.244.532.532 0 0 1-.205.041zm107.961-1.54a.46.46 0 0 1-.204 0 .518.518 0 0 1-.266-.673 14.289 14.289 0 0 1 3.803-5.03.518.518 0 0 1 .726.062.516.516 0 0 1-.061.724 13.036 13.036 0 0 0-3.527 4.662.531.531 0 0 1-.471.255zm25.815-2.805a.488.488 0 0 1-.368-.184 13.23 13.23 0 0 0-4.539-3.682.512.512 0 1 1 .45-.918 14.321 14.321 0 0 1 4.897 3.968.52.52 0 0 1-.092.724.513.513 0 0 1-.348.092zm-16.726-4.795a.515.515 0 1 1-.122-1.02c1.12-.276 2.27-.417 3.424-.418h2.74a.533.533 0 0 1 .542.51.48.48 0 0 1-.133.356.48.48 0 0 1-.347.154h-2.802c-1.071.001-2.139.131-3.179.388l-.123.03z" fill="#25292B"/>
    <path d="M153.5 52.5c9.389 0 17-7.611 17-17s-7.611-17-17-17-17 7.611-17 17 7.611 17 17 17z" fill="#FAB0B3"/>
    <path d="M147.535 43.5a1.002 1.002 0 0 1-.587-.206l-8.102-6.596a.959.959 0 0 1-.346-.741.967.967 0 0 1 .346-.741l8.021-6.504a.92.92 0 0 1 1.316.145c.154.198.224.45.195.7a.961.961 0 0 1-.346.637l-7.09 5.763 7.201 5.844a.94.94 0 0 1 .351.637.967.967 0 0 1-.199.701.909.909 0 0 1-.76.36zM160.435 43.497a.935.935 0 0 1-.541-.18.967.967 0 0 1-.359-1.04.966.966 0 0 1 .311-.484l7.202-5.812-7.1-5.782a.947.947 0 0 1-.346-.64.97.97 0 0 1 .481-.942.907.907 0 0 1 1.031.095l8.034 6.525a.964.964 0 0 1 0 1.487l-8.115 6.618a.94.94 0 0 1-.598.155zM152.575 44.478a.95.95 0 0 1-.409 0 .939.939 0 0 1-.556-.45.914.914 0 0 1-.068-.703l5.116-16.173a.907.907 0 0 1 .174-.317.944.944 0 0 1 .637-.33.956.956 0 0 1 .689.206.932.932 0 0 1 .338.624.924.924 0 0 1-.037.359l-5.117 16.172a.924.924 0 0 1-.296.411.96.96 0 0 1-.471.2z" fill="#FF6B6B"/>
    <path d="M157.827 121.794h2.673a14.408 14.408 0 0 0-1.486-6.374l-2.405 1.141a11.981 11.981 0 0 0-3.426-4.202l1.672-2.02a14.802 14.802 0 0 0-6.017-2.839l-.598 2.546a12.76 12.76 0 0 0-2.735-.293 12.181 12.181 0 0 0-2.745.303l-.588-2.556a15.07 15.07 0 0 0-3.179 1.081 15.45 15.45 0 0 0-2.848 1.758l1.672 2.02a12.208 12.208 0 0 0-3.426 4.202l-2.405-1.141a14.57 14.57 0 0 0-1.486 6.374h2.673c-.001 1.812.415 3.6 1.218 5.233l-2.405 1.141a14.88 14.88 0 0 0 4.128 5.102l1.672-2.02a12.35 12.35 0 0 0 4.943 2.323l-.588 2.556c2.193.495 4.473.495 6.667 0l-.599-2.546a12.436 12.436 0 0 0 4.943-2.333l1.672 2.02a14.88 14.88 0 0 0 4.128-5.102l-2.405-1.141a11.701 11.701 0 0 0 1.28-5.233zm-12.322 8.274a8.385 8.385 0 0 1-4.587-1.362 8.124 8.124 0 0 1-3.04-3.627 7.918 7.918 0 0 1-.47-4.669 8.028 8.028 0 0 1 2.259-4.138 8.31 8.31 0 0 1 4.228-2.212 8.418 8.418 0 0 1 4.77.46 8.217 8.217 0 0 1 3.705 2.976 7.963 7.963 0 0 1 1.391 4.49 8 8 0 0 1-2.418 5.715 8.349 8.349 0 0 1-5.838 2.367z" fill="#4883F8"/>
    <path opacity=".3" d="M196.366 144.522h5.134a25.094 25.094 0 0 0-.287-3.601 22.845 22.845 0 0 0-2.229-6.873 21.557 21.557 0 0 0-1.889-3.087l-4.169 3.087a17.841 17.841 0 0 0-8.933-6.503l1.602-4.918a23.021 23.021 0 0 0-14.231 0l1.602 4.918a17.841 17.841 0 0 0-8.933 6.503l-4.169-3.087a22.544 22.544 0 0 0-1.889 3.087 22.837 22.837 0 0 0-2.198 6.863 23.587 23.587 0 0 0-.277 3.601h5.134a17.882 17.882 0 0 0 3.409 10.515l-4.169 3.087a23.06 23.06 0 0 0 11.5 8.386l1.602-4.918a18.027 18.027 0 0 0 11.028 0l1.601 4.918a23.052 23.052 0 0 0 11.5-8.386l-4.168-3.087a17.89 17.89 0 0 0 3.429-10.505zm-17.856 9.662c-2.018 0-3.992-.6-5.67-1.724a10.241 10.241 0 0 1-1.547-15.736 10.193 10.193 0 0 1 15.703 1.55 10.239 10.239 0 0 1 1.721 5.682 10.235 10.235 0 0 1-2.987 7.235 10.2 10.2 0 0 1-7.22 2.993z" fill="red"/>
    <path d="M167.5 119.5a6 6 0 1 0 0-12 6 6 0 0 0 0 12z" fill="#4883F8"/>
</svg>
