<svg width="32" height="32" viewBox="0 0 32 32" fill="none" xmlns="http://www.w3.org/2000/svg">
<path d="M8.12712 14.9691C8.04425 14.435 8.00125 13.8879 8.00125 13.3307C8.00125 7.43969 12.8083 2.66406 18.7381 2.66406C24.6679 2.66406 29.4749 7.43969 29.4749 13.3307C29.4749 14.6615 29.2296 15.9353 28.7815 17.1101C28.6884 17.354 28.6419 17.476 28.6208 17.5713C28.5998 17.6656 28.5918 17.732 28.5895 17.8287C28.5872 17.9262 28.6004 18.0336 28.6269 18.2485L29.1636 22.6088C29.2217 23.0808 29.2508 23.3168 29.1723 23.4884C29.1035 23.6387 28.9813 23.7581 28.8294 23.8234C28.6561 23.8979 28.4208 23.8635 27.9503 23.7945L23.7032 23.1719C23.4815 23.1394 23.3706 23.1232 23.2696 23.1238C23.1697 23.1243 23.1006 23.1317 23.0028 23.1523C22.904 23.173 22.7778 23.2203 22.5253 23.3149C21.3475 23.756 20.0712 23.9974 18.7381 23.9974C18.1805 23.9974 17.6329 23.9552 17.0982 23.8738M10.1767 29.3307C14.1299 29.3307 17.3346 26.0475 17.3346 21.9974C17.3346 17.9473 14.1299 14.6641 10.1767 14.6641C6.22354 14.6641 3.01885 17.9473 3.01885 21.9974C3.01885 22.8115 3.14834 23.5947 3.38737 24.3264C3.48841 24.6357 3.53893 24.7903 3.55551 24.896C3.57282 25.0063 3.57586 25.0682 3.56941 25.1797C3.56323 25.2865 3.53652 25.4071 3.48309 25.6485L2.66797 29.3307L6.66104 28.7854C6.87899 28.7556 6.98796 28.7407 7.08313 28.7414C7.18333 28.7421 7.23651 28.7475 7.33478 28.7671C7.42811 28.7857 7.56685 28.8347 7.84433 28.9326C8.57543 29.1906 9.36011 29.3307 10.1767 29.3307Z" stroke="#B30000" stroke-width="2.93333" stroke-linecap="round" stroke-linejoin="round"/>
</svg>
