<svg width="48" height="48" viewBox="0 0 48 48" fill="none" xmlns="http://www.w3.org/2000/svg">
    <path fill-rule="evenodd" clip-rule="evenodd" d="M41.361 5H6.645C5.736 5 5 5.781 5 6.745V30l.938-.412V6.745c0-.416.32-.756.713-.756h34.71c.392 0 .713.34.713.756v22.843L43 30V6.745C43 5.781 42.264 5 41.361 5z" fill="#004498"/>
    <path d="M5.938 29.588V6.745c0-.416.32-.756.713-.756h34.71c.392 0 .713.34.713.756v22.843m-36.136 0h36.136m-36.136 0L5 30V6.745C5 5.781 5.736 5 6.645 5H41.36C42.264 5 43 5.781 43 6.745V30l-.926-.412M24 31.207c3.947 0-3.944 0 0 0z" stroke="#004498" stroke-width=".3"/>
    <path opacity=".4" fill-rule="evenodd" clip-rule="evenodd" d="M33.006 15.596h1.619c.258 0 .466.2.459.459v3.238c0 .25-.201.466-.459.466h-1.62a9.04 9.04 0 0 1-1.16 2.815l1.147 1.146a.472.472 0 0 1 .136.33.46.46 0 0 1-.136.33l-2.293 2.292a.477.477 0 0 1-.652 0L28.9 25.526a9.334 9.334 0 0 1-2.816 1.168v1.597c0 .251-.208.459-.466.459h-3.238c-.25 0-.458-.2-.458-.459V26.68a9.271 9.271 0 0 1-2.823-1.167l-1.14 1.146a.486.486 0 0 1-.658 0l-2.286-2.293a.45.45 0 0 1 0-.652l1.146-1.146a9.154 9.154 0 0 1-1.167-2.816h-1.612a.47.47 0 0 1-.466-.465v-3.239c0-.25.208-.458.466-.458h1.612a9.083 9.083 0 0 1 1.167-2.816l-1.146-1.146a.459.459 0 0 1 0-.659l2.286-2.285c.179-.18.48-.18.659 0L19.1 9.829a9.378 9.378 0 0 1 2.823-1.168V7.049c0-.25.2-.466.458-.466h3.238a.47.47 0 0 1 .466.466v1.612a9.23 9.23 0 0 1 2.816 1.168l1.146-1.146c.172-.18.48-.18.652 0l2.293 2.285a.49.49 0 0 1 .136.337.45.45 0 0 1-.144.33l-1.139 1.146a9.068 9.068 0 0 1 1.16 2.815zm-2.866 3.317-.193.695A6.239 6.239 0 0 1 24 23.928a6.26 6.26 0 0 1-5.896-4.184l-.215-.688a6.07 6.07 0 0 1-.036-2.586l.165-.71a6.273 6.273 0 0 1 5.96-4.348 6.268 6.268 0 0 1 5.94 4.299l.215.702c.086.401.129.83.129 1.26 0 .424-.043.839-.122 1.24z" fill="red"/>
    <path fill-rule="evenodd" clip-rule="evenodd" d="m25.655 16.986 1.927 1.927h2.558a3.055 3.055 0 0 1-.193.695H27.59l-.982.989h-.007c-.019.024-.048.038-.074.051a.726.726 0 0 0-.012.006.096.096 0 0 1-.029.022.281.281 0 0 1-.129.028h-4.65a.365.365 0 0 1-.25-.107l-.838-.846v-.007h-2.515a3.392 3.392 0 0 1-.215-.688h2.873c.093 0 .186.036.25.1l.839.846h1.397l-.365-.365a.35.35 0 0 1 .494-.495l.86.86h1.275l-1.326-1.325a.35.35 0 0 1 .495-.495l1.676 1.677.588-.588-1.791-1.79a.722.722 0 0 0-1.018 0l-.444.443a1.038 1.038 0 0 1-1.44 0 1.025 1.025 0 0 1 0-1.44l1.068-1.067h-1.311l-.946.946a.379.379 0 0 1-.25.107h-2.96a2.61 2.61 0 0 1 .165-.71h2.636l.953-.945a.34.34 0 0 1 .244-.1h4.542c.093 0 .186.036.25.1l.896.896h2.379c.06.08.185.333.215.702h-2.73a.341.341 0 0 1-.243-.1l-.896-.896h-1.948l-1.555 1.562c-.13.114-.13.322 0 .451a.31.31 0 0 0 .444-.007l.444-.437a1.423 1.423 0 0 1 2.006 0z" fill="#004498"/>
    <path d="M41.361 5H6.645C5.736 5 5 5.781 5 6.745v26.818c0 .964.736 1.745 1.645 1.745h13.828v3.08c-2.036.24-3.628 2.08-3.628 4.303 0 .17.13.309.291.309h13.9c.16 0 .29-.139.29-.309 0-2.224-1.59-4.063-3.627-4.302v-3.081h13.662c.903 0 1.639-.781 1.639-1.745V6.745C43 5.781 42.264 5 41.361 5zM21.405 38.35v-3.042h5.356v3.043h-5.356zm3.753-5.915c0 .674-.517 1.229-1.158 1.229-.635 0-1.158-.555-1.158-1.229 0-.68.523-1.228 1.158-1.228.641 0 1.158.548 1.158 1.228zm-19.22-2.847V6.745c0-.416.32-.756.713-.756h34.71c.392 0 .713.34.713.756v22.843H5.938z" fill="#004498"/>
</svg>
