<svg width="406" height="230" viewBox="0 0 406 230" fill="none" xmlns="http://www.w3.org/2000/svg">
<path d="M41.4328 197.558C51.3163 197.558 59.3284 189.546 59.3284 179.662C59.3284 169.779 51.3163 161.767 41.4328 161.767C31.5493 161.767 23.5371 169.779 23.5371 179.662C23.5371 189.546 31.5493 197.558 41.4328 197.558Z" fill="#A5C2FB"/>
<path d="M51.8129 183.575C51.8113 182.493 51.5953 181.423 51.1773 180.425C50.7594 179.428 50.1479 178.523 49.3781 177.764L46.5537 174.931L46.3427 174.728L43.2911 171.677C41.7464 170.142 39.6574 169.281 37.4801 169.281C35.3028 169.281 33.2139 170.142 31.6691 171.677C31.4366 171.916 31.2171 172.168 31.0117 172.432L36.0436 177.472L38.7949 174.72C39.058 174.459 39.414 174.312 39.7851 174.312C40.1561 174.312 40.5121 174.459 40.7752 174.72L43.6077 177.496L43.8106 177.699L46.3752 180.263C46.6369 180.527 46.7838 180.883 46.7838 181.254C46.7838 181.625 46.6369 181.981 46.3752 182.244L43.6239 184.995L48.6558 190.027C49.6559 189.27 50.4631 188.287 51.0117 187.159C51.5603 186.03 51.8348 184.789 51.8129 183.534V183.575Z" fill="#FAFAFA"/>
<path d="M128.069 91.6852C140.862 91.6852 151.232 81.3148 151.232 68.5223C151.232 55.7298 140.862 45.3594 128.069 45.3594C115.277 45.3594 104.906 55.7298 104.906 68.5223C104.906 81.3148 115.277 91.6852 128.069 91.6852Z" fill="#B8CFEB"/>
<path d="M134.636 60.5039H114.809C114.002 60.5039 113.348 61.158 113.348 61.9648V75.072C113.348 75.8788 114.002 76.5329 114.809 76.5329H134.636C135.443 76.5329 136.097 75.8788 136.097 75.072V61.9648C136.097 61.158 135.443 60.5039 134.636 60.5039Z" fill="#FAFAFA"/>
<path d="M142.793 73.0836L137.939 71.3386V65.7062L142.793 63.9531V73.0836Z" fill="#FAFAFA"/>
<path d="M351.299 181.96C363.334 181.96 373.09 172.203 373.09 160.168C373.09 148.133 363.334 138.377 351.299 138.377C339.264 138.377 329.508 148.133 329.508 160.168C329.508 172.203 339.264 181.96 351.299 181.96Z" fill="#A5C2FB"/>
<path d="M357.378 152.628H338.906C338.099 152.628 337.445 153.282 337.445 154.089V166.238C337.445 167.045 338.099 167.699 338.906 167.699H357.378C358.185 167.699 358.839 167.045 358.839 166.238V154.089C358.839 153.282 358.185 152.628 357.378 152.628Z" fill="#FAFAFA"/>
<path d="M365.145 164.462L360.576 162.814V157.514L365.145 155.875V164.462Z" fill="#FAFAFA"/>
<path opacity="0.4" d="M286.201 76.7929C300.683 76.7929 312.424 65.0526 312.424 50.5703C312.424 36.0879 300.683 24.3477 286.201 24.3477C271.719 24.3477 259.979 36.0879 259.979 50.5703C259.979 65.0526 271.719 76.7929 286.201 76.7929Z" fill="#6B93C3"/>
<path d="M277.59 45.1328H270.992V56.0082H277.59V45.1328Z" fill="#FAFAFA"/>
<path d="M287.922 61.4538L276.486 55.4723V45.6602L287.922 39.6787V61.4538Z" fill="#FAFAFA"/>
<path d="M301.419 49.9209H292.621V51.2113H301.419V49.9209Z" fill="#FAFAFA"/>
<path d="M298.834 38.3148L291.027 42.4922L291.636 43.63L299.443 39.4526L298.834 38.3148Z" fill="#FAFAFA"/>
<path d="M291.648 57.5274L291.039 58.665L298.845 62.8438L299.454 61.7061L291.648 57.5274Z" fill="#FAFAFA"/>
<path opacity="0.4" d="M292.797 203.112C302.46 201.544 309.022 192.439 307.454 182.776C305.885 173.113 296.78 166.551 287.117 168.12C277.454 169.688 270.893 178.793 272.461 188.456C274.03 198.119 283.134 204.681 292.797 203.112Z" fill="#6B93C3"/>
<path d="M290.239 176.021H289.662C287.551 176.021 285.84 177.732 285.84 179.843V185.784C285.84 187.895 287.551 189.607 289.662 189.607H290.239C292.35 189.607 294.061 187.895 294.061 185.784V179.843C294.061 177.732 292.35 176.021 290.239 176.021Z" fill="#FAFAFA"/>
<path d="M289.953 192.333C288.266 192.331 286.649 191.66 285.456 190.467C284.263 189.275 283.592 187.657 283.59 185.97V183.446C283.58 183.367 283.588 183.286 283.612 183.209C283.636 183.132 283.676 183.062 283.729 183.002C283.782 182.942 283.848 182.893 283.921 182.861C283.994 182.828 284.074 182.811 284.154 182.811C284.234 182.811 284.314 182.828 284.387 182.861C284.46 182.893 284.526 182.942 284.579 183.002C284.632 183.062 284.672 183.132 284.696 183.209C284.72 183.286 284.728 183.367 284.718 183.446V185.97C284.771 187.322 285.346 188.601 286.321 189.538C287.296 190.476 288.596 190.999 289.949 190.999C291.301 190.999 292.602 190.476 293.577 189.538C294.552 188.601 295.126 187.322 295.18 185.97V183.446C295.18 183.296 295.239 183.151 295.346 183.045C295.452 182.938 295.597 182.878 295.748 182.878C295.898 182.878 296.043 182.938 296.149 183.045C296.256 183.151 296.316 183.296 296.316 183.446V185.97C296.314 187.657 295.643 189.275 294.45 190.467C293.257 191.66 291.64 192.331 289.953 192.333Z" fill="#FAFAFA"/>
<path d="M289.955 195.807C289.804 195.807 289.66 195.747 289.553 195.641C289.447 195.534 289.387 195.39 289.387 195.239V191.765C289.387 191.615 289.447 191.47 289.553 191.364C289.66 191.257 289.804 191.197 289.955 191.197C290.106 191.197 290.25 191.257 290.357 191.364C290.463 191.47 290.523 191.615 290.523 191.765V195.239C290.523 195.39 290.463 195.534 290.357 195.641C290.25 195.747 290.106 195.807 289.955 195.807Z" fill="#FAFAFA"/>
<path d="M299.781 196.027C299.707 196.027 299.633 196.012 299.565 195.983C299.496 195.954 299.435 195.911 299.383 195.857L279.727 176.192C279.619 176.084 279.559 175.938 279.559 175.786C279.559 175.634 279.619 175.488 279.727 175.38C279.834 175.272 279.98 175.212 280.132 175.212C280.285 175.212 280.431 175.272 280.538 175.38L300.195 195.037C300.25 195.089 300.294 195.152 300.324 195.222C300.354 195.292 300.369 195.367 300.369 195.443C300.369 195.519 300.354 195.594 300.324 195.663C300.294 195.733 300.25 195.796 300.195 195.848C300.143 195.906 300.079 195.952 300.008 195.983C299.936 196.013 299.859 196.029 299.781 196.027Z" fill="#FAFAFA"/>
<path d="M205.976 63.0605C195.521 63.0605 185.301 66.1609 176.609 71.9695C167.916 77.7781 161.141 86.034 157.14 95.6932C153.14 105.352 152.093 115.981 154.133 126.235C156.174 136.489 161.209 145.907 168.602 153.3C175.995 160.692 185.415 165.725 195.669 167.764C205.923 169.803 216.552 168.755 226.21 164.753C235.869 160.751 244.124 153.974 249.931 145.281C255.738 136.587 258.837 126.366 258.835 115.912C258.833 101.894 253.263 88.451 243.351 78.5398C233.438 68.6285 219.994 63.0605 205.976 63.0605ZM234.691 139.513C230.129 144.045 223.96 146.589 217.529 146.589C211.099 146.589 204.93 144.045 200.368 139.513L191.351 130.488L190.743 129.879L182.383 121.495C177.851 116.934 175.307 110.765 175.307 104.334C175.307 97.9038 177.851 91.7345 182.383 87.173C183.099 86.486 183.849 85.8359 184.631 85.2252L199.508 100.102L191.392 108.218C191.006 108.602 190.699 109.058 190.49 109.561C190.281 110.064 190.173 110.603 190.173 111.148C190.173 111.692 190.281 112.231 190.49 112.734C190.699 113.237 191.006 113.693 191.392 114.077L198.956 121.641L199.557 122.25L207.794 130.48C208.57 131.255 209.623 131.691 210.72 131.691C211.817 131.691 212.87 131.255 213.646 130.48L221.762 122.364L236.638 137.24C236.03 138.024 235.38 138.774 234.691 139.488V139.513Z" fill="#B30000"/>
<path opacity="0.4" d="M205.976 63.0605C195.521 63.0605 185.301 66.1609 176.609 71.9695C167.916 77.7781 161.141 86.034 157.14 95.6932C153.14 105.352 152.093 115.981 154.133 126.235C156.174 136.489 161.209 145.907 168.602 153.3C175.995 160.692 185.415 165.725 195.669 167.764C205.923 169.803 216.552 168.755 226.21 164.753C235.869 160.751 244.124 153.974 249.931 145.281C255.738 136.587 258.837 126.366 258.835 115.912C258.833 101.894 253.263 88.451 243.351 78.5398C233.438 68.6285 219.994 63.0605 205.976 63.0605ZM234.691 139.513C230.129 144.045 223.96 146.589 217.529 146.589C211.099 146.589 204.93 144.045 200.368 139.513L191.351 130.488L190.743 129.879L182.383 121.495C177.851 116.934 175.307 110.765 175.307 104.334C175.307 97.9038 177.851 91.7345 182.383 87.173C183.099 86.486 183.849 85.8359 184.631 85.2252L199.508 100.102L191.392 108.218C191.006 108.602 190.699 109.058 190.49 109.561C190.281 110.064 190.173 110.603 190.173 111.148C190.173 111.692 190.281 112.231 190.49 112.734C190.699 113.237 191.006 113.693 191.392 114.077L198.956 121.641L199.557 122.25L207.794 130.48C208.57 131.255 209.623 131.691 210.72 131.691C211.817 131.691 212.87 131.255 213.646 130.48L221.762 122.364L236.638 137.24C236.03 138.024 235.38 138.774 234.691 139.488V139.513Z" fill="white"/>
<path d="M306.304 91.6123H335.48C338.139 91.6145 340.689 92.6723 342.568 94.5533C344.448 96.4343 345.504 98.9845 345.504 101.644V113.753C345.504 116.412 344.448 118.962 342.568 120.843C340.689 122.724 338.139 123.782 335.48 123.784H315.41L308.795 130.041L308.657 123.784H306.304C303.649 123.775 301.106 122.715 299.231 120.834C297.357 118.954 296.305 116.407 296.305 113.753V101.644C296.305 98.9888 297.357 96.4422 299.231 94.5619C301.106 92.6816 303.649 91.6209 306.304 91.6123Z" fill="#B30000"/>
<g opacity="0.4">
<path d="M306.304 91.6123H335.48C338.139 91.6145 340.689 92.6723 342.568 94.5533C344.448 96.4343 345.504 98.9845 345.504 101.644V113.753C345.504 116.412 344.448 118.962 342.568 120.843C340.689 122.724 338.139 123.782 335.48 123.784H315.41L308.795 130.041L308.657 123.784H306.304C303.649 123.775 301.106 122.715 299.231 120.834C297.357 118.954 296.305 116.407 296.305 113.753V101.644C296.305 98.9888 297.357 96.4422 299.231 94.5619C301.106 92.6816 303.649 91.6209 306.304 91.6123Z" fill="white"/>
</g>
<path d="M332.258 107.008C332.258 107.41 332.377 107.802 332.6 108.136C332.823 108.469 333.14 108.729 333.51 108.883C333.881 109.037 334.289 109.077 334.683 108.998C335.076 108.92 335.438 108.727 335.722 108.443C336.005 108.159 336.199 107.798 336.277 107.404C336.355 107.011 336.315 106.603 336.161 106.232C336.008 105.861 335.748 105.544 335.414 105.321C335.08 105.099 334.688 104.98 334.287 104.98C334.02 104.978 333.756 105.03 333.509 105.132C333.262 105.233 333.038 105.383 332.85 105.571C332.661 105.76 332.512 105.984 332.41 106.231C332.309 106.477 332.257 106.742 332.258 107.008Z" fill="white"/>
<path d="M325.351 109.037C326.472 109.037 327.38 108.129 327.38 107.008C327.38 105.888 326.472 104.979 325.351 104.979C324.231 104.979 323.322 105.888 323.322 107.008C323.322 108.129 324.231 109.037 325.351 109.037Z" fill="white"/>
<path d="M314.395 107.008C314.395 107.41 314.514 107.802 314.736 108.136C314.959 108.469 315.276 108.729 315.647 108.883C316.018 109.037 316.426 109.077 316.819 108.998C317.213 108.92 317.574 108.727 317.858 108.443C318.142 108.159 318.335 107.798 318.414 107.404C318.492 107.011 318.452 106.603 318.298 106.232C318.144 105.861 317.884 105.544 317.551 105.321C317.217 105.099 316.825 104.98 316.424 104.98C316.157 104.978 315.892 105.03 315.646 105.132C315.399 105.233 315.175 105.383 314.986 105.571C314.798 105.76 314.648 105.984 314.547 106.231C314.445 106.477 314.393 106.742 314.395 107.008Z" fill="white"/>
<path d="M307.496 109.037C308.616 109.037 309.525 108.129 309.525 107.008C309.525 105.888 308.616 104.979 307.496 104.979C306.375 104.979 305.467 105.888 305.467 107.008C305.467 108.129 306.375 109.037 307.496 109.037Z" fill="white"/>
<path d="M210.625 162.822H185.051C182.72 162.822 180.484 163.748 178.836 165.397C177.188 167.045 176.262 169.281 176.262 171.612V182.227C176.262 183.382 176.489 184.525 176.931 185.591C177.373 186.658 178.02 187.626 178.836 188.443C179.652 189.259 180.621 189.906 181.688 190.348C182.754 190.79 183.897 191.017 185.051 191.017H202.639L208.433 196.503L208.555 191.017H210.625C211.779 191.017 212.922 190.79 213.988 190.348C215.055 189.906 216.024 189.259 216.84 188.443C217.656 187.626 218.303 186.658 218.745 185.591C219.187 184.525 219.414 183.382 219.414 182.227V171.612C219.414 169.281 218.488 167.045 216.84 165.397C215.191 163.748 212.956 162.822 210.625 162.822Z" fill="#263238"/>
<path d="M210.625 162.822H185.051C182.72 162.822 180.484 163.748 178.836 165.397C177.188 167.045 176.262 169.281 176.262 171.612V182.227C176.262 183.382 176.489 184.525 176.931 185.591C177.373 186.657 178.02 187.626 178.836 188.443C179.652 189.259 180.621 189.906 181.688 190.348C182.754 190.79 183.897 191.017 185.051 191.017H202.639L208.433 196.503L208.555 191.017H210.625C211.779 191.017 212.922 190.79 213.988 190.348C215.055 189.906 216.024 189.259 216.84 188.443C217.656 187.626 218.303 186.657 218.745 185.591C219.187 184.525 219.414 183.382 219.414 182.227V171.612C219.414 169.281 218.488 167.045 216.84 165.397C215.191 163.748 212.956 162.822 210.625 162.822Z" fill="#2B64AA"/>
<path d="M187.875 176.311C187.875 176.662 187.771 177.006 187.576 177.298C187.38 177.59 187.103 177.818 186.778 177.953C186.453 178.087 186.096 178.122 185.751 178.054C185.406 177.985 185.089 177.816 184.841 177.567C184.592 177.319 184.423 177.002 184.354 176.657C184.286 176.313 184.321 175.955 184.456 175.63C184.59 175.306 184.818 175.028 185.11 174.833C185.403 174.637 185.746 174.533 186.098 174.533C186.569 174.533 187.021 174.72 187.355 175.054C187.688 175.387 187.875 175.839 187.875 176.311Z" fill="white"/>
<path d="M193.922 178.088C194.904 178.088 195.699 177.292 195.699 176.311C195.699 175.329 194.904 174.533 193.922 174.533C192.94 174.533 192.145 175.329 192.145 176.311C192.145 177.292 192.94 178.088 193.922 178.088Z" fill="white"/>
<path d="M203.524 176.311C203.524 176.662 203.419 177.006 203.224 177.298C203.029 177.59 202.751 177.818 202.426 177.953C202.102 178.087 201.744 178.122 201.399 178.054C201.055 177.985 200.738 177.816 200.489 177.567C200.241 177.319 200.071 177.002 200.003 176.657C199.934 176.313 199.97 175.955 200.104 175.63C200.239 175.306 200.466 175.028 200.759 174.833C201.051 174.637 201.395 174.533 201.746 174.533C202.218 174.533 202.67 174.72 203.003 175.054C203.336 175.387 203.524 175.839 203.524 176.311Z" fill="white"/>
<path d="M209.578 178.088C210.56 178.088 211.356 177.292 211.356 176.311C211.356 175.329 210.56 174.533 209.578 174.533C208.597 174.533 207.801 175.329 207.801 176.311C207.801 177.292 208.597 178.088 209.578 178.088Z" fill="white"/>
<path d="M124.699 148.359H100.213C99.1072 148.359 98.0121 148.577 96.9905 149.001C95.9688 149.424 95.0407 150.045 94.2591 150.827C93.4774 151.61 92.8577 152.538 92.4352 153.56C92.0127 154.583 91.7958 155.678 91.7969 156.784V166.937C91.7958 168.043 92.0127 169.138 92.4352 170.16C92.8577 171.182 93.4774 172.111 94.2591 172.893C95.0407 173.676 95.9688 174.296 96.9905 174.72C98.0121 175.143 99.1072 175.361 100.213 175.361H117.054L122.605 180.612L122.719 175.361H124.699C125.805 175.361 126.9 175.143 127.922 174.72C128.943 174.296 129.871 173.676 130.653 172.893C131.435 172.111 132.054 171.182 132.477 170.16C132.899 169.138 133.116 168.043 133.115 166.937V156.784C133.116 155.678 132.899 154.583 132.477 153.56C132.054 152.538 131.435 151.61 130.653 150.827C129.871 150.045 128.943 149.424 127.922 149.001C126.9 148.577 125.805 148.359 124.699 148.359Z" fill="#B30000"/>
<path d="M102.917 161.28C102.917 161.617 102.816 161.947 102.629 162.227C102.441 162.508 102.174 162.726 101.862 162.855C101.551 162.984 101.207 163.017 100.877 162.951C100.546 162.884 100.242 162.721 100.004 162.482C99.7661 162.243 99.6044 161.938 99.5396 161.607C99.4747 161.276 99.5096 160.933 99.6399 160.622C99.7701 160.31 99.9898 160.045 100.271 159.858C100.553 159.672 100.883 159.574 101.22 159.575C101.444 159.575 101.665 159.619 101.871 159.705C102.078 159.791 102.265 159.917 102.423 160.075C102.58 160.233 102.705 160.421 102.79 160.628C102.874 160.835 102.918 161.056 102.917 161.28Z" fill="white"/>
<path d="M108.71 162.984C109.651 162.984 110.415 162.221 110.415 161.28C110.415 160.338 109.651 159.575 108.71 159.575C107.769 159.575 107.006 160.338 107.006 161.28C107.006 162.221 107.769 162.984 108.71 162.984Z" fill="white"/>
<path d="M117.905 161.28C117.905 161.617 117.805 161.946 117.618 162.226C117.43 162.507 117.164 162.725 116.853 162.854C116.541 162.983 116.199 163.017 115.868 162.951C115.537 162.885 115.234 162.723 114.995 162.485C114.757 162.246 114.595 161.943 114.529 161.612C114.463 161.281 114.497 160.939 114.626 160.627C114.755 160.316 114.973 160.05 115.254 159.862C115.534 159.675 115.863 159.575 116.2 159.575C116.425 159.574 116.647 159.617 116.854 159.703C117.061 159.788 117.25 159.914 117.408 160.072C117.566 160.23 117.692 160.419 117.777 160.626C117.863 160.833 117.906 161.055 117.905 161.28Z" fill="white"/>
<path d="M123.693 162.984C124.634 162.984 125.397 162.221 125.397 161.28C125.397 160.338 124.634 159.575 123.693 159.575C122.751 159.575 121.988 160.338 121.988 161.28C121.988 162.221 122.751 162.984 123.693 162.984Z" fill="white"/>
<path d="M89.3496 78.96H64.6122C63.4918 78.9557 62.3816 79.1729 61.3454 79.5989C60.3092 80.0249 59.3674 80.6515 58.574 81.4426C57.7807 82.2337 57.1514 83.1737 56.7224 84.2087C56.2934 85.2437 56.0731 86.3533 56.0742 87.4737V97.7484C56.0732 98.8668 56.2926 99.9743 56.7201 101.008C57.1476 102.041 57.7747 102.98 58.5654 103.771C59.3562 104.562 60.2952 105.189 61.3286 105.616C62.362 106.044 63.4695 106.263 64.5878 106.262H81.6313L87.2394 111.578L87.3612 106.262H89.3496C90.4683 106.263 91.5762 106.044 92.6101 105.616C93.644 105.189 94.5835 104.562 95.3749 103.771C96.1663 102.981 96.7941 102.042 97.2225 101.008C97.6508 99.9749 97.8713 98.8671 97.8713 97.7484V87.4737C97.8713 86.3549 97.6508 85.2472 97.2225 84.2138C96.7941 83.1803 96.1663 82.2414 95.3749 81.4507C94.5835 80.6601 93.644 80.0331 92.6101 79.6058C91.5762 79.1784 90.4683 78.959 89.3496 78.96Z" fill="#6B93C3"/>
<path d="M67.3474 92.0262C67.3474 92.3665 67.2465 92.6992 67.0574 92.9822C66.8684 93.2651 66.5997 93.4856 66.2853 93.6158C65.9709 93.7461 65.6249 93.7802 65.2912 93.7138C64.9574 93.6474 64.6508 93.4835 64.4102 93.2429C64.1696 93.0023 64.0057 92.6957 63.9393 92.3619C63.8729 92.0282 63.907 91.6822 64.0372 91.3678C64.1675 91.0534 64.388 90.7847 64.6709 90.5956C64.9539 90.4066 65.2865 90.3057 65.6268 90.3057C66.0832 90.3057 66.5208 90.4869 66.8435 90.8096C67.1661 91.1323 67.3474 91.5699 67.3474 92.0262Z" fill="white"/>
<path d="M73.2069 93.7468C74.1572 93.7468 74.9275 92.9765 74.9275 92.0262C74.9275 91.076 74.1572 90.3057 73.2069 90.3057C72.2567 90.3057 71.4863 91.076 71.4863 92.0262C71.4863 92.9765 72.2567 93.7468 73.2069 93.7468Z" fill="white"/>
<path d="M82.5076 92.0262C82.5076 92.3665 82.4067 92.6992 82.2176 92.9822C82.0285 93.2651 81.7598 93.4856 81.4454 93.6158C81.131 93.7461 80.7851 93.7802 80.4513 93.7138C80.1176 93.6474 79.811 93.4835 79.5704 93.2429C79.3297 93.0023 79.1659 92.6957 79.0995 92.3619C79.0331 92.0282 79.0672 91.6822 79.1974 91.3678C79.3276 91.0534 79.5481 90.7847 79.8311 90.5956C80.114 90.4066 80.4467 90.3057 80.787 90.3057C81.2433 90.3057 81.6809 90.4869 82.0036 90.8096C82.3263 91.1323 82.5076 91.5699 82.5076 92.0262Z" fill="white"/>
<path d="M88.369 93.7468C89.3193 93.7468 90.0896 92.9765 90.0896 92.0262C90.0896 91.076 89.3193 90.3057 88.369 90.3057C87.4188 90.3057 86.6484 91.076 86.6484 92.0262C86.6484 92.9765 87.4188 93.7468 88.369 93.7468Z" fill="white"/>
</svg>
