<svg width="327" height="360" viewBox="0 0 327 360" fill="none" xmlns="http://www.w3.org/2000/svg">
    <g clip-path="url(#c1aeqpvhea)">
        <path d="M259 319.993a20.997 20.997 0 0 1-12.96 19.408 21.005 21.005 0 0 1-22.889-4.551 20.995 20.995 0 0 1-4.551-22.889 20.997 20.997 0 0 1 19.408-12.96 20.971 20.971 0 0 1 14.853 6.139 20.95 20.95 0 0 1 4.549 6.815 20.95 20.95 0 0 1 1.59 8.038z" fill="#F9AFB3"/>
        <path d="M245 319.001a7.002 7.002 0 0 1-8.366 6.865 7.003 7.003 0 0 1-5.499-5.5 6.99 6.99 0 0 1 .398-4.044 7.001 7.001 0 0 1 6.467-4.321 7.006 7.006 0 0 1 7 7zM250 337.294a21.247 21.247 0 0 1-12 3.707 21.247 21.247 0 0 1-12-3.707 11.915 11.915 0 0 1 4.051-7.36 12.209 12.209 0 0 1 7.949-2.933c2.921 0 5.744 1.041 7.949 2.933a11.915 11.915 0 0 1 4.051 7.36z" fill="#fff"/>
        <path d="M286.551 82.478c21.905-7.631 33.419-31.792 25.718-53.965-7.701-22.172-31.702-33.96-53.607-26.33-21.905 7.63-33.419 31.791-25.718 53.964 7.702 22.173 31.702 33.961 53.607 26.33z" fill="#A5C2FB"/>
        <path d="M239.001 41.96c-.12 18.495 14.553 33.733 32.779 34.037a32.724 32.724 0 0 0 12.693-2.391 32.81 32.81 0 0 0 10.79-7.119 32.916 32.916 0 0 0 7.214-10.743 32.978 32.978 0 0 0 2.522-12.704c.12-18.496-14.561-33.734-32.787-34.038a32.73 32.73 0 0 0-12.691 2.394 32.804 32.804 0 0 0-10.786 7.12 32.914 32.914 0 0 0-7.213 10.742 32.987 32.987 0 0 0-2.521 12.701z" fill="#578FFE"/>
        <path d="M249.001 41.61a24.268 24.268 0 0 0 6.718 17.025 23.829 23.829 0 0 0 16.627 7.363 23.176 23.176 0 0 0 9.039-1.713 23.353 23.353 0 0 0 7.683-5.101 23.57 23.57 0 0 0 5.136-7.7 23.772 23.772 0 0 0 1.795-9.102 24.262 24.262 0 0 0-6.716-17.02 23.819 23.819 0 0 0-16.621-7.36 23.174 23.174 0 0 0-9.04 1.71 23.335 23.335 0 0 0-7.684 5.098 23.569 23.569 0 0 0-5.139 7.697 23.77 23.77 0 0 0-1.798 9.103z" fill="#95AFE2"/>
        <path d="M258.001 42.267a14.484 14.484 0 0 0 4.138 10.278A14.856 14.856 0 0 0 272.392 57c1.911.022 3.807-.331 5.579-1.038a14.459 14.459 0 0 0 4.743-3.082 14.251 14.251 0 0 0 3.173-4.649 14.099 14.099 0 0 0 1.112-5.497 14.499 14.499 0 0 0-4.142-10.274 14.871 14.871 0 0 0-10.249-4.458 14.554 14.554 0 0 0-5.587 1.025 14.413 14.413 0 0 0-4.749 3.08 14.214 14.214 0 0 0-3.172 4.656 14.056 14.056 0 0 0-1.099 5.505z" fill="#A5C2FB"/>
        <path d="M266 42.376a6.516 6.516 0 0 0 1.852 4.618 6.66 6.66 0 0 0 4.596 2.005 6.51 6.51 0 0 0 2.499-.455 6.45 6.45 0 0 0 2.127-1.375 6.378 6.378 0 0 0 1.425-2.082c.331-.78.501-1.618.501-2.464a6.516 6.516 0 0 0-1.852-4.617A6.659 6.659 0 0 0 272.552 36a6.507 6.507 0 0 0-2.499.455 6.447 6.447 0 0 0-2.127 1.375 6.379 6.379 0 0 0-1.425 2.081 6.309 6.309 0 0 0-.501 2.464z" fill="#BED4FF"/>
        <path d="m273.18 42.17 43.67-23.352-.339-.648L272.85 41.52l.33.649z" fill="#E1EBFF"/>
        <path d="m318.855 19.933-.166-.067-2.986-.927 5.858-3.006 3.164.95-5.87 3.05z" fill="#E1EBFF"/>
        <path d="m322.725 12.933-1.075 3.016-5.925 2.984c.469-.959.824-1.965 1.058-3l5.942-3z" fill="#E1EBFF"/>
        <path d="M271 41.697 272.09 44l2.91-.29-1.91-1.83-.194-2.88L271 41.697z" fill="#EBEBEB"/>
        <path d="M1 359.498c100.587-.664 213.413-.664 314 0-100.587.675-213.413.664-314 0z" fill="#263238"/>
        <path d="M176.755 19H26.221a15.37 15.37 0 0 0-15.22 15.52v309.969A15.386 15.386 0 0 0 26.22 360h150.534a15.386 15.386 0 0 0 15.244-15.511V34.519a15.393 15.393 0 0 0-4.408-10.918A15.378 15.378 0 0 0 176.755 19zm5.729 315.899c0 8.165-6.111 14.763-13.638 14.763H34.178c-7.551 0-13.661-6.598-13.661-14.763V46.266c0-16.625 6.11-17.437 13.66-17.437H61.15c1.59 0 2.848 1.782 2.848 3.98v.954c0 5.173 2.832 5.19 6.317 5.19h62.386c3.509 0 6.309 0 6.309-5.19v-.955c0-2.212 1.265-3.98 2.857-3.98h26.987c7.527 0 13.638 2.213 13.638 17.438l-.008 288.633z" fill="#E9F0FE"/>
        <path d="M109.956 32H93.044c-.27 0-.53-.102-.725-.285A1.009 1.009 0 0 1 92 31.02c0-.27.11-.53.306-.72.195-.192.46-.299.738-.299h16.912c.277 0 .543.107.738.299.196.19.306.45.306.72a1.01 1.01 0 0 1-.319.696 1.06 1.06 0 0 1-.725.285z" fill="#37474F"/>
        <path d="M183 46.446V335.23c0 8.17-6.104 14.771-13.64 14.771H33.664C26.104 350 20 343.399 20 335.229V46.446C20 29.812 26.104 29 33.664 29h27.97c1.59 0 2.856 1.784 2.856 3.981v.956c0 5.176 2.825 5.192 6.31 5.192H133.2c3.51 0 6.311 0 6.311-5.192v-.956c0-2.213 1.265-3.981 2.865-3.981h26.985c7.536 0 13.64 2.214 13.64 17.446z" fill="#fff"/>
        <rect width="56" height="8" rx="4" transform="matrix(-1 0 0 1 176.008 272)" fill="#8AB0FD"/>
        <rect width="119.272" height="8" rx="4" transform="matrix(-1 0 0 1 176.008 291)" fill="#8AB0FD"/>
        <rect width="139.133" height="8" rx="4" transform="matrix(-1 0 0 1 176.008 305)" fill="#8AB0FD"/>
        <rect width="70.007" height="8" rx="4" transform="matrix(-1 0 0 1 176.008 319)" fill="#8AB0FD"/>
        <path d="M154.368 249.366a11.316 11.316 0 0 0 1.903 6.287 11.32 11.32 0 0 0 20.511-4.069 11.316 11.316 0 0 0-11.098-13.521 11.295 11.295 0 0 0-10.459 6.973 11.289 11.289 0 0 0-.857 4.33z" fill="#AFCAFF"/>
        <path d="M161.907 249.184a3.766 3.766 0 0 0 4.504 3.695 3.763 3.763 0 0 0 2.962-2.96 3.764 3.764 0 0 0-1.603-3.868 3.772 3.772 0 0 0-5.576 1.691c-.19.457-.287.947-.287 1.442z" fill="#fff"/>
        <path d="M159.226 258.659a11.321 11.321 0 0 0 12.907 0 6.52 6.52 0 0 0-12.907 0z" fill="#fff"/>
        <rect x="33" y="134" width="56" height="8" rx="4" fill="#F9AFB3"/>
        <rect x="33" y="150" width="124.377" height="8" rx="4" fill="#F9AFB3"/>
        <rect x="33" y="164" width="77" height="8" rx="4" fill="#F9AFB3"/>
        <rect x="33" y="178" width="101.283" height="8" rx="4" fill="#F9AFB3"/>
        <rect x="33" y="206" width="42.086" height="8" rx="4" fill="#F9AFB3"/>
        <rect x="33" y="192" width="111" height="8" rx="4" fill="#F9AFB3"/>
        <path d="M183 45.697V75H20V45.697C20 28.805 26.111 28 33.663 28H61.64c1.592 0 2.85 1.81 2.85 4.022v.965c0 5.269 2.832 5.285 6.317 5.285h62.396c3.509 0 6.31 0 6.31-5.285v-.965c0-2.244 1.265-4.022 2.865-4.022h26.984C176.897 27.976 183 30.22 183 45.697z" fill="#2369F6"/>
        <path opacity=".2" d="M183 45.697V75H20V45.697C20 28.805 26.111 28 33.663 28H61.64c1.592 0 2.85 1.81 2.85 4.022v.965c0 5.269 2.832 5.285 6.317 5.285h62.396c3.509 0 6.31 0 6.31-5.285v-.965c0-2.244 1.265-4.022 2.865-4.022h26.984C176.897 27.976 183 30.22 183 45.697z" fill="#fff"/>
        <path d="M37.197 66 32 61.496 37.197 57l.803.79-4.273 3.706L38 65.201l-.803.799zM170 57.992a1.004 1.004 0 0 1-.612.93.998.998 0 0 1-1.368-.724A1.003 1.003 0 0 1 169 57a.999.999 0 0 1 1 .992zM169 63a1 1 0 1 0 0-2 1 1 0 0 0 0 2zM170 64.992a1.004 1.004 0 0 1-.612.93.998.998 0 0 1-1.368-.724 1.003 1.003 0 0 1 1.904-.588c.05.121.076.25.076.382zM56.96 35.313l-.269.33-.154.18a3.67 3.67 0 0 0-1.176-.973 3.035 3.035 0 0 0-1.39-.343c-.476 0-.949.117-1.39.343a3.67 3.67 0 0 0-1.175.974l-.146-.19-.26-.32c.114-.12.22-.25.333-.36a3.57 3.57 0 0 1 .813-.61 3.49 3.49 0 0 1 1.033-.43c.17 0 .341-.06.52-.09H54.496c.325.043.645.137.951.28.227.116.448.253.659.41.214.155.418.333.61.53l.284.31-.04-.04z" fill="#fff"/>
        <path d="M52.395 36 52 35.684a3.011 3.011 0 0 1 1.594-.655 3.44 3.44 0 0 1 1.292.078c.418.107.8.292 1.114.54-.129.112-.266.217-.395.322-.426-.346-1.003-.54-1.605-.54-.602 0-1.179.194-1.605.54V36z" fill="#fff"/>
        <path d="m55.5 36.387-.48.428a1.452 1.452 0 0 0-.47-.281 1.583 1.583 0 0 0-.555-.097c-.19 0-.378.033-.552.1a1.407 1.407 0 0 0-.463.287l-.48-.437c.195-.178.429-.32.686-.417a2.317 2.317 0 0 1 1.628 0c.257.097.49.239.686.417zM54.495 37.319a.5.5 0 1 1-.99.145.5.5 0 0 1 .99-.145zM31 36a1 1 0 1 1 2 0 1 1 0 0 1-2 0zM34 36a1 1 0 1 1 2 0 1 1 0 0 1-2 0zM38 36a1 1 0 1 1 2 0 1 1 0 0 1-2 0zM41 36a1 1 0 1 1 2 0 1 1 0 0 1-2 0zM45 36a1 1 0 1 1 2 0 1 1 0 0 1-2 0zM171 38h-9v-4h9v4zm-8.534-.447h8.059v-3.137h-8.059v3.137z" fill="#fff"/>
        <path d="M168.735 34.745h-6v2.51h6v-2.51zM170.218 35h-1v2h1v-2z" fill="#fff"/>
        <path d="M41 333.53h-.77V337h-1.447v-1.769h-2.559V337h-1.446v-3.47H34l3.5-3.53 3.5 3.53zM170 330h-9v1h9v-1zM170 333h-9v1h9v-1zM170 336h-9v1h9v-1zM104 334.402 101.504 337 99 334.402l.446-.402 2.058 2.134 2.058-2.134.438.402z" fill="#EBEBEB"/>
        <path d="M101.508 340a4.501 4.501 0 1 1-.017-9.002 4.501 4.501 0 0 1 .017 9.002zm0-8.398a3.901 3.901 0 0 0-3.615 2.407 3.908 3.908 0 0 0 5.106 5.107 3.903 3.903 0 0 0 2.407-3.616 3.903 3.903 0 0 0-3.898-3.898z" fill="#EBEBEB"/>
        <path d="M100.575 180.03a82.933 82.933 0 0 0-13.486 6.661.158.158 0 0 0-.08.091.17.17 0 0 0 .04.175.148.148 0 0 0 .11.043.147.147 0 0 0 .057-.015c4.546-2.069 9.178-4.053 13.613-6.383a.309.309 0 0 0 .153-.179.337.337 0 0 0-.01-.242.308.308 0 0 0-.169-.162.28.28 0 0 0-.228.011zM102.673 149.131c0-.154-.305-.194-.305 0a148.54 148.54 0 0 1-.825 15.451c-.214 2.42-2.176 15.548-6.397 14.587-.701-.161-1.064-.806-1.17-1.888-.141-1.25.345-2.783.551-4.034.47-2.751.825-5.519 1.089-8.302a73.373 73.373 0 0 0-.174-15.572.142.142 0 0 0-.136-.105.142.142 0 0 0-.135.105 139.85 139.85 0 0 1-1.278 21.494c-.536 3.421-2.292 8.577 1.368 9.109 3.66.533 6.134-8.068 6.596-10.489a77.352 77.352 0 0 0 .816-20.356z" fill="#263238"/>
        <path d="M95.188 179.283a21.313 21.313 0 0 0-.838 2.525 5.814 5.814 0 0 0-.35 2.077.147.147 0 0 0 .19.107.15.15 0 0 0 .066-.047c.39-.625.682-1.308.867-2.025.284-.747.59-1.554.852-2.345a.44.44 0 0 0-.015-.328.425.425 0 0 0-.236-.222.409.409 0 0 0-.32.016.422.422 0 0 0-.216.242zM141.017 144.95c-.149-1.936.745-9.915 1-11.906.254-1.991 1.543-9.916 1.798-11.953 0-.117.201-.125.184 0-.219 2.022-.816 10.056-1.044 12.046-.228 1.991-1.228 9.939-1.824 11.836a.066.066 0 0 1-.029.023.081.081 0 0 1-.038.003.067.067 0 0 1-.033-.018.055.055 0 0 1-.014-.031z" fill="#263238"/>
        <path d="m116.381 149.968 11.614 23.236L202 89.113 190.228 66l-73.847 83.968z" fill="#A5C2FB"/>
        <path d="M111.995 174.824 123.589 198a19.338 19.338 0 0 1-1.911-7.052c-.522-6.292 1.585-12.216 6.322-17.772L116.398 150c-4.753 5.555-6.858 11.479-6.314 17.772a19.343 19.343 0 0 0 1.911 7.052z" fill="#A5C2FB"/>
        <g opacity=".1" fill="#020100">
            <path d="m116.359 150.004 11.635 23.188 74.005-84.08L190.227 66l-73.868 84.004z"/>
            <path d="M111.995 174.824 123.589 198a19.338 19.338 0 0 1-1.911-7.052c-.522-6.292 1.585-12.216 6.322-17.772L116.398 150c-4.753 5.555-6.858 11.479-6.314 17.772a19.343 19.343 0 0 0 1.911 7.052z"/>
        </g>
        <path d="M160 99.966 171.908 123 202 89.034 190.092 66 160 99.966z" fill="#F9AFB3"/>
        <path d="M155.831 45 126 79.053l34.156 21.185L190 65.955 155.831 45zM229.831 91 200 125.053 234.169 146 264 111.955 229.831 91z" fill="#F9AFB3"/>
        <path d="M234 145.966 245.906 169 276 135.034 264.086 112 234 145.966z" fill="#F9AFB3"/>
        <path d="M82.084 129.361c-13.273 15.246-19.24 31.509-17.9 48.789 1.335 16.951 9.378 30.129 24.13 39.531a65.545 65.545 0 0 0 29.761 9.186c7.459.42 14.94-.157 22.246-1.716 19.989-4.132 36.621-13.816 49.894-29.051L234 145.865l-34.028-20.977-43.427 49.869a31.668 31.668 0 0 1-18.171 10.473 30.888 30.888 0 0 1-8.072.596 23.89 23.89 0 0 1-11.186-3.544c-5.506-3.401-8.557-8.264-9.097-14.557-.54-6.293 1.819-12.029 6.634-17.576l73.165-83.981-29.656 34.059-34.325-21.1" fill="#A5C2FB"/>
        <path d="m69 197 11.916 23.013C85.003 227.916 91.364 234.579 100 240l-11.908-23.013C79.462 211.581 73.098 204.919 69 197zM190.26 196.053 202.862 219l43.134-50.052-11.869-23.01-43.867 50.115z" fill="#A5C2FB"/>
        <path d="m88 217.566 11.771 23.122a66.024 66.024 0 0 0 29.863 9.179 84.54 84.54 0 0 0 22.316-1.715c20.041-4.129 36.724-13.806 50.05-29.03L190.197 196c-13.315 15.235-29.999 24.911-50.051 29.03a84.53 84.53 0 0 1-22.315 1.715A65.931 65.931 0 0 1 88 217.566z" fill="#A5C2FB"/>
        <g opacity=".1" fill="#020100">
            <path d="m69 198 11.916 23.013C85.003 228.916 91.364 235.579 100 241l-11.908-23.013C79.462 212.581 73.098 205.919 69 198zM190 195.981 201.862 219 246 169.019 234.138 146 190 195.981z"/>
            <path d="m88 217.566 11.771 23.122a66.024 66.024 0 0 0 29.863 9.179 84.54 84.54 0 0 0 22.316-1.715c20.041-4.129 36.724-13.806 50.05-29.03L190.197 196c-13.315 15.235-29.999 24.911-50.051 29.03a84.53 84.53 0 0 1-22.315 1.715A65.931 65.931 0 0 1 88 217.566z"/>
        </g>
        <path d="M249 284c20.987 0 38-17.013 38-38s-17.013-38-38-38-38 17.013-38 38 17.013 38 38 38z" fill="#578FFE"/>
        <path d="M269 278.145a37.165 37.165 0 0 1-6.756 3.427l-.252.096-.188.064a.422.422 0 0 1-.087 0l-.385.151-.189.064a37.089 37.089 0 0 1-25.388-.383h-.071l-.306-.128-.378-.144c2.359-7.851 5.081-15.176 7.936-20.072l.401-.671.244-.392.416-.631c.527-.799 2.966-1.454 5.734-1.509a13.61 13.61 0 0 1 6.481 1.286 6.222 6.222 0 0 1 1.848 1.429l.047.04c.448.535.897 1.063 1.321 1.598A78.442 78.442 0 0 1 269 278.145z" fill="#A5C2FB"/>
        <path d="m244 260-.988 2.391c-.839 2.049-2.124 5.188-3.426 8.397l-1.521 3.801a348.13 348.13 0 0 0-2.289 5.866c-.07.187-.125.366-.196.545h-.07l-.306-.125-.376-.14a37.558 37.558 0 0 1-8.828-5.001 102.672 102.672 0 0 1 6.758-8.311c4.61-4.814 7.573-6.59 10.427-7.252l.196-.046L244 260zM272 275.893l-.428.34a33.639 33.639 0 0 1-2.926 2.139 36.47 36.47 0 0 1-6.685 3.464l-.249.097-.186.064a.31.31 0 0 1-.086 0c-1.424-4.037-2.669-7.702-3.401-10.084-1.019-3.35-2.692-7.492-2.996-9.914-.116-.937 0-1.615.382-1.882a.92.92 0 0 1 .599-.105 5.02 5.02 0 0 1 1.813.711 34.208 34.208 0 0 1 7.938 7.105c1.797 2.131 3.945 4.892 6.225 8.065z" fill="#A5C2FB"/>
        <path d="M245.416 267.801c3.028.916 8.566-3.451 10.876-7.124.152-.247-.079-3.02-.207-6.374-.064-2.048-.088-4.335 0-6.415l-13.259 2.391a33.15 33.15 0 0 1 .797 8.079 4.826 4.826 0 0 1-.135.853v.135c-.351 1.586-.957 7.578 1.928 8.455z" fill="#FFC4C0"/>
        <path d="M243.494 259.323a1.552 1.552 0 0 0-.056.295c7.969-.757 10.837-4.431 12.622-7.913 0-1.283 0-2.589.096-3.832l-13.267 2.39c.595 2.65.863 5.364.796 8.08a4.101 4.101 0 0 1-.143.852 1.158 1.158 0 0 1-.048.128z" fill="#263238"/>
        <path d="M258.889 231.076c1.642 4.566-.143 18.088-3.299 21.243-4.565 4.566-12.374 5.371-16.342-.199-3.841-5.395-1.203-22.98 2.35-25.873 5.228-4.271 14.861-1.92 17.291 4.829z" fill="#FFC4C0"/>
        <path d="M247.885 239.18s.064.056.064.088c-.144.908-.159 1.976.629 2.39v.048c-1.004-.279-.972-1.689-.693-2.526z" fill="#263238"/>
        <path d="M248.824 238.335c1.473.072 1.218 3.028-.152 2.956-1.37-.072-1.091-3.02.152-2.956zM242.306 238.637s-.072.04-.08.072c-.047.924-.262 1.96-1.115 2.191v.056c1.028-.056 1.299-1.442 1.195-2.319z" fill="#263238"/>
        <path d="M241.573 237.61c-1.457-.239-1.832 2.701-.478 2.924 1.354.223 1.705-2.725.478-2.924zM250.107 237.084a10.613 10.613 0 0 1-1.108-.502 1.948 1.948 0 0 1-1.036-.733.636.636 0 0 1-.044-.403.639.639 0 0 1 .211-.346 1.598 1.598 0 0 1 1.594 0c.53.2.965.593 1.219 1.1a.667.667 0 0 1-.46.9.669.669 0 0 1-.376-.016zM240.561 236.023c.415 0 .797-.127 1.204-.199a1.987 1.987 0 0 0 1.187-.446.63.63 0 0 0 0-.797 1.55 1.55 0 0 0-1.514-.422 2.259 2.259 0 0 0-1.466.749.667.667 0 0 0 .589 1.115z" fill="#263238"/>
        <path d="M246.753 244.773a3.118 3.118 0 0 1-2.199 1.203c-.378.04-.759.024-1.132-.047h-.207l-.199-.048a.225.225 0 0 1-.121-.084.226.226 0 0 1-.047-.139v-.176c.04-.709.2-1.777.2-1.777-.263.112-1.634.582-1.594.216a47.107 47.107 0 0 1 2.032-9.323.08.08 0 0 1 .041-.042.086.086 0 0 1 .108.025.085.085 0 0 1 .018.057c-.319 2.932-1.147 5.785-1.506 8.725.484-.18.991-.287 1.506-.319.096 0-.35 2.056-.342 2.391a4.344 4.344 0 0 0 3.314-.718c.12-.079.192-.015.128.056z" fill="#263238"/>
        <path d="M238.426 233.617s1.028-3.379 1.721-4.303c.693-.924 1.705-1.801 2.247-1.745.542.056.223 2.04 1.833 2.239 1.609.199 3.067-2.518 6.948-1.992 4.836.661 4.438 8.223 4.645 10.095.383 3.387 2.837 7.172 2.837 7.172s3.012-12.343.327-17.132c-3.044-5.41-12.805-6.502-16.781-2.86-2.574 2.334-3.777 8.526-3.777 8.526z" fill="#263238"/>
        <path d="M256.57 242.136s2.908-4.422 4.9-3.402c1.992 1.019-.095 7.378-2.39 8.31a2.38 2.38 0 0 1-1.838.079 2.4 2.4 0 0 1-1.349-1.25l.677-3.737z" fill="#FFC4C0"/>
        <path d="M260.816 240.542c.04 0 .048.048 0 .064-1.594.701-2.391 2.231-2.956 3.801a1.29 1.29 0 0 1 1.928-.406c.04 0 0 .095-.04.087a1.439 1.439 0 0 0-1.594.55 6.811 6.811 0 0 0-.725 1.307c-.071.151-.334.08-.287-.088v-.04c-.055-2.063 1.467-5.004 3.674-5.275z" fill="#263238"/>
        <path d="M261.558 224.542a1.336 1.336 0 0 1-1.036 1.07 1.336 1.336 0 0 1-1.402-2.04 1.334 1.334 0 0 1 1.37-.584 1.34 1.34 0 0 1 1.068 1.554z" fill="#A5C2FB"/>
        <path d="M259.908 236.925c-.478-.637-7.474-7.562-9.41-8.295a64.665 64.665 0 0 0-9.562-1.992c-1.291-.095-3.139-2.462-2.271-3.665 1.004-1.386 5.148-.876 7.865-.9 2.717-.024 10.478.063 14.191 3.187 2.845 2.39 5.952 6.789 4.693 9.49-1.187 2.47-5.506 2.175-5.506 2.175z" fill="#A5C2FB"/>
        <g opacity=".1" fill="#263238">
            <path d="M246.434 232.51a9.005 9.005 0 0 1-1.314 0c-.447-.056-.877-.191-1.323-.239a7.266 7.266 0 0 0-2.494.327c-.072 0-.064.064 0 .048a6.148 6.148 0 0 1 2.637-.136 7.99 7.99 0 0 0 2.168.223 7.767 7.767 0 0 1 4.78.909 7.966 7.966 0 0 0-4.454-1.132zM246.56 231.322a9.326 9.326 0 0 1-1.251 0c-.422-.047-.796-.183-1.251-.223a6.743 6.743 0 0 0-2.39.303c-.064 0-.056.064 0 .048a5.903 5.903 0 0 1 2.502-.128 7.41 7.41 0 0 0 2.056.208 7.501 7.501 0 0 1 4.534.86 7.521 7.521 0 0 0-4.2-1.068z"/>
        </g>
        <path d="M289.049 193.744c20.937 0 37.91-16.979 37.91-37.923 0-20.945-16.973-37.923-37.91-37.923-20.937 0-37.91 16.978-37.91 37.923 0 20.944 16.973 37.923 37.91 37.923z" fill="#578FFE"/>
        <path d="M313.464 184.864c-.167.143-.342.294-.525.437h-1.177c-.978 0-2.298-.048-3.857-.119l-1.662-.08a38.434 38.434 0 0 1-3.029-12.241 110.965 110.965 0 0 0-1.09 12.019l-2.894-.167a31.713 31.713 0 0 1-.931-5.525s-.374 2.608-.644 5.421h-1.121l-.946-.055h-.374c-4.533-.286-9.328-.604-13.638-.898l-5.567-.39c.493-2.959.479-5.98-.039-8.935a1.406 1.406 0 0 1 0-.159.222.222 0 0 1 0-.063c-.271-1.304-.549-1.916-.517-1.59.039.747.039 1.495 0 2.242.004.066.004.132 0 .198.003.04.003.08 0 .12a16.932 16.932 0 0 1-2.338 7.949c-.978-.064-1.861-.128-2.616-.191h-.541l-1.797-.127-.859-.064c-1.161-.056 3.538-3.537 3.443-7.154-.095-3.617-2.386-7.274-.461-12.52a27.737 27.737 0 0 1 1.892-4.102c1.225-2.17 2.386-3.768 3.237-6.359.071-.223.143-.469.215-.715v-.056c.084-.36.129-.728.135-1.097.127-2.448-.342-7.258.485-11.789.127-.751.3-1.495.517-2.225.055-.167.103-.334.167-.509.063-.175.071-.215.111-.318.04-.103.104-.286.151-.421.048-.136.199-.485.318-.724a9.901 9.901 0 0 1 2.417-3.49 9.9 9.9 0 0 1 3.659-2.154 13.918 13.918 0 0 1 5.145-.731 12.453 12.453 0 0 1 8.326 3.975c6.425 2.297 5.351 11.605 4.954 16.748a7.285 7.285 0 0 0 .063 1.733c.35 2.218 1.75 3.864 3.348 5.692 1.98 2.281 4.279 4.825 5.273 9.086 1.693 6.9-3.468 11.24 2.767 19.348z" fill="#263238"/>
        <path d="M313.958 184.037a17.834 17.834 0 0 1-2.027-4.61 9.292 9.292 0 0 1 .238-4.834c.39-1.637.843-3.306 1.082-5.047a13.562 13.562 0 0 0-.271-5.326 11.818 11.818 0 0 0-2.56-4.69 31.722 31.722 0 0 0-3.801-3.537 18.976 18.976 0 0 1-3.507-3.554 9.313 9.313 0 0 1-1.631-4.69 8.59 8.59 0 0 0 1.106 5.016 17.439 17.439 0 0 0 3.356 3.975 39.243 39.243 0 0 1 3.522 3.577 11.251 11.251 0 0 1 2.211 4.245c.387 1.575.476 3.209.263 4.817-.167 1.645-.549 3.291-.851 4.984a17.668 17.668 0 0 0-.287 2.615 7.61 7.61 0 0 0 .462 2.647 14.562 14.562 0 0 0 2.695 4.412zM277.544 134.53a25.892 25.892 0 0 0-1.686 6.081c-.35 2.075-.612 4.166-.843 6.24l-.366 3.109a15.305 15.305 0 0 1-.604 2.957 16.632 16.632 0 0 1-3.054 5.19 24.709 24.709 0 0 0-1.805 2.671 14.359 14.359 0 0 0-1.28 3.029 21.205 21.205 0 0 0-.604 3.18 13.46 13.46 0 0 0 0 3.259c.135 1.081.397 2.114.604 3.116.208 1.002.322 2.021.342 3.044a6.43 6.43 0 0 1-2.775 5.199 6.533 6.533 0 0 0 3.427-5.175 15.518 15.518 0 0 0-.127-3.18c-.135-1.057-.35-2.074-.422-3.076a16.784 16.784 0 0 1 .796-5.978c.31-.947.715-1.86 1.208-2.726a23.155 23.155 0 0 1 1.734-2.512 31.087 31.087 0 0 0 1.845-2.639 13.08 13.08 0 0 0 1.352-2.997c.289-1.039.478-2.104.564-3.18.104-1.049.175-2.098.239-3.179.135-2.091.246-4.174.445-6.248.12-2.091.459-4.164 1.01-6.185z" fill="#263238"/>
        <path d="M286.213 169.626a45.403 45.403 0 0 1-.517 1.646l-.127.389c-1.265 3.76-2.664 7.902-3.976 11.924a926.406 926.406 0 0 0-2.855 8.744 37.582 37.582 0 0 1-10.799-5.008l-.294-.207a1.219 1.219 0 0 1-.183-.127 32.664 32.664 0 0 1-1.376-.994 174.175 174.175 0 0 1 2.091-3.362 118.704 118.704 0 0 1 10.736-14.515 24.907 24.907 0 0 1 3.578-3.291l.231-.167a5.895 5.895 0 0 1 2.886-1.296c.093-.008.186-.008.279 0 1.169.215 1.606 1.868.326 6.264z" fill="#F7A9A0"/>
        <path d="M286.213 169.626a45.403 45.403 0 0 1-.517 1.646l-.127.389c-1.265 3.76-2.664 7.902-3.976 11.924a926.406 926.406 0 0 0-2.855 8.744 37.582 37.582 0 0 1-10.799-5.008l-.294-.207a1.219 1.219 0 0 1-.183-.127 32.664 32.664 0 0 1-1.376-.994 174.175 174.175 0 0 1 2.091-3.362 118.704 118.704 0 0 1 10.736-14.515 24.907 24.907 0 0 1 3.578-3.291l.231-.167a5.895 5.895 0 0 1 2.886-1.296c.093-.008.186-.008.279 0 1.169.215 1.606 1.868.326 6.264z" fill="#455A64"/>
        <path d="M308.668 188.306a37.75 37.75 0 0 1-9.925 4.197l-.262.071-.302.072-.286.064a37.925 37.925 0 0 1-29.956-5.39l-.294-.207c.469-.922 1.375-2.464 2.552-4.348s2.76-4.26 4.422-6.605c.262-.382.532-.795.795-1.137l.556-.795a84.733 84.733 0 0 1 5.949-7.401 23.134 23.134 0 0 1 3.181-2.973c.159-.111.318-.222.485-.318.167-.095.183-.119.278-.175a9.14 9.14 0 0 1 5.304-1.152c1.328.104 2.63.421 3.857.938.815.333 1.597.74 2.338 1.216.302.199.572.397.795.596a9.68 9.68 0 0 1 1.256 1.129l.318.334.199.238.12.143a.193.193 0 0 1 0 .048c.503.666.971 1.358 1.399 2.075 2.537 4.102 4.573 9.388 6.362 16.216.318 1.041.612 2.083.859 3.164z" fill="#455A64"/>
        <path d="M275.962 174.062a14.88 14.88 0 0 0-.517.794c-.286.422-.557.835-.795 1.256a283.761 283.761 0 0 0-2.585 4.07c-.524.851-1.049 1.701-1.59 2.552-.596.994-1.185 1.987-1.75 2.989a20.6 20.6 0 0 0-.795 1.55l-.294-.207a1.219 1.219 0 0 1-.183-.127c.307-.653.652-1.287 1.034-1.9.485-.795.978-1.59 1.479-2.329.795-1.288 1.646-2.551 2.505-3.823.334-.748.684-1.487 1.066-2.234 0 0 .087 0 .063.048-.278.588-.557 1.16-.795 1.748a136.69 136.69 0 0 1 2.664-3.799c.143-.231.31-.445.461-.66 0 0 .048.056.032.072z" fill="#263238"/>
        <path d="M312.103 185.993a39.732 39.732 0 0 1-3.396 2.313 37.743 37.743 0 0 1-9.924 4.197c-.437-2.448-.962-5.183-1.487-7.949-.859-4.388-1.718-8.744-2.314-11.828a36.426 36.426 0 0 1-.406-2.6c-.795-6.669 1.837-6.184 5.209-3.028.581.532 1.185 1.16 1.797 1.836.613.676 1.384 1.59 2.068 2.48a65.827 65.827 0 0 1 8.151 13.855c.063.255.167.461.302.724z" fill="#F7A9A0"/>
        <path d="M312.144 185.922a.315.315 0 0 1-.079.071 40.135 40.135 0 0 1-3.396 2.314 37.743 37.743 0 0 1-9.924 4.197l-.263.071-.302.072c-.485-2.441-1.041-5.247-1.59-8.1-.382-1.98-.795-3.975-1.113-5.899l-.048-.286a190.337 190.337 0 0 1-1.137-6.836 44.248 44.248 0 0 1-.143-1.137c-.716-6.876 1.852-7.536 5.995-3.474a36.001 36.001 0 0 1 3.523 4.11 81.919 81.919 0 0 1 8.199 14.309l.278.588z" fill="#455A64"/>
        <path d="m298.483 192.575-.302.072-.287.063c-.524-2.623-1.009-4.92-1.121-5.111-.262-.469-.795-1.51-1.049-1.995-.255-.485-.35-.795-.509-1.137-.271-.612-.533-1.232-.796-1.844-.039-.08.096-.151.128-.064.318.66.683 1.304 1.041 1.932l.517.866c.271.446.549.899.795 1.336 0 0-.167-.93-.397-2.146-.366-1.988-.883-4.77-1.066-5.899l-.047-.286c0-.063.079-.079.111 0 .135.437.668 2.997 1.336 6.256l1.646 7.957z" fill="#263238"/>
        <path d="M281.695 165.635s.565 5.564 5.185 6.438c4.62.875 13.296-5.198 13.296-5.198a12.86 12.86 0 0 0-9.733-4.682c-6.068-.016-8.748 3.442-8.748 3.442z" fill="#F7A9A0"/>
        <path d="M294.959 164.077c-.246.835-4.612 6.113-8.477 5.708-1.264-.135-.842-7.043-.842-7.043l-.08-.517-1.193-7.234 8.708-4.904 1.248-.644s.199 1.995.414 4.491v.358c0 .127 0 .27.04.405.039.374.079.755.103 1.129.024.374.048.572.064.874.015.302 0 .605.055.907a47.038 47.038 0 0 1-.04 6.47z" fill="#F7A9A0"/>
        <path d="M294.737 153.934a14.702 14.702 0 0 1-9.177 8.291l-1.193-7.234 8.708-4.904 1.248-.644s.199 1.995.414 4.491z" fill="#263238"/>
        <path d="M274.729 144.904c-.858 12.838 6.744 14.809 9.543 14.984 2.513.167 11.133.413 13.288-12.273 2.155-12.687-3.523-17.147-9.256-17.83-5.734-.684-12.684 2.273-13.575 15.119z" fill="#F7A9A0"/>
        <path d="M278.705 141.629c.294-.034.586-.085.874-.151a1.4 1.4 0 0 0 .867-.318.464.464 0 0 0 0-.565 1.12 1.12 0 0 0-1.105-.302 1.66 1.66 0 0 0-1.065.549.482.482 0 0 0 .152.734.485.485 0 0 0 .277.053zM287.587 141.096a8.539 8.539 0 0 1-.867-.207 1.438 1.438 0 0 1-.842-.366.463.463 0 0 1 0-.564 1.119 1.119 0 0 1 1.12-.239 1.65 1.65 0 0 1 1.034.605.493.493 0 0 1-.445.771zM285.594 145.549s.071.047.063.079c-.063.874 0 1.892.795 2.21v.056c-.977-.183-1.057-1.527-.858-2.345z" fill="#263238"/>
        <path d="M286.418 144.665c1.415-.047 1.399 2.783.087 2.83-1.311.048-1.272-2.79-.087-2.83z" fill="#263238"/>
        <path d="M286.976 144.817c.247.166.485.445.795.476.31.032.612-.262.835-.54h.047c0 .54-.206 1.097-.794 1.176-.589.08-.907-.413-1.042-.953-.032-.072.056-.223.159-.159zM280.249 144.904s-.071.04-.071.072c0 .882-.112 1.884-.907 2.17v.047c.97-.127 1.129-1.462.978-2.289z" fill="#263238"/>
        <path d="M279.5 143.974c-1.407-.127-1.59 2.703-.254 2.822 1.335.119 1.407-2.719.254-2.822z" fill="#263238"/>
        <path d="M278.873 144.133c-.231.135-.461.398-.731.398-.271 0-.525-.31-.708-.613-.048.541.103 1.113.62 1.248.517.136.835-.325.994-.858-.008-.08-.08-.231-.175-.175zM284.271 151.82c-.199.215-.398.501-.716.541a2.34 2.34 0 0 1-.953-.175 1.171 1.171 0 0 0 1.128.429.913.913 0 0 0 .66-.795c-.016-.016-.079-.032-.119 0zM281.091 149.165s-.199 1.304-.215 1.924c0 .056.151.087.358.095a2.948 2.948 0 0 0 2.871-1.057c.047-.056 0-.119-.088-.087a4.409 4.409 0 0 1-2.696.731c-.039-.175.422-2.226.326-2.234a5.1 5.1 0 0 0-1.407.294c.342-2.734 1.113-5.389 1.415-8.116 0-.095-.135-.127-.159-.039a43.825 43.825 0 0 0-1.9 8.672c-.008.318 1.272-.127 1.495-.183z" fill="#263238"/>
        <path d="M296.836 147.576c-1.391-.191-4.723-4.325-4.294-11.081 0 0 0 6.089.422 7.019.421.93-1.869-2.329-1.591-7.782a22.197 22.197 0 0 1-5.813 2.448c-2.632.517-4.198.366-4.365.167-.167-.199 3.705-1.089 4.826-2.186 0 0-7.093 2.631-10.266 2.615-.366 0-.199-7.528 4.923-10.334 5.121-2.806 12.572 1.256 14.488 3.426 0 0 2.386.541 4.772 4.356 2.385 3.816-1.607 11.535-3.102 11.352z" fill="#263238"/>
        <path d="M295.008 148.194s2.727-4.07 4.572-3.108c1.845.962-.159 6.837-2.282 7.671a2.171 2.171 0 0 1-1.709.071 2.17 2.17 0 0 1-1.234-1.184l.653-3.45z" fill="#F7A9A0"/>
        <path d="M298.967 146.78v.056c-1.487.636-2.251 2.043-2.776 3.498a1.203 1.203 0 0 1 1.805-.355c.004.004.008.01.01.016a.048.048 0 0 1-.001.036l-.011.016a.086.086 0 0 1-.016.01.058.058 0 0 1-.019.003 1.337 1.337 0 0 0-.829.007c-.262.089-.49.257-.652.481-.27.378-.499.783-.684 1.208-.064.136-.31.064-.263-.087v-.04c-.055-1.931 1.384-4.642 3.436-4.849z" fill="#263238"/>
        <path d="M311.116 237.249a19.308 19.308 0 0 1-11.919 17.845 19.326 19.326 0 0 1-21.052-4.181 19.3 19.3 0 0 1-4.191-21.043 19.308 19.308 0 0 1 17.846-11.921 19.317 19.317 0 0 1 7.394 1.462 19.29 19.29 0 0 1 11.922 17.838z" fill="#F9AFB3"/>
        <path d="M298.21 236.931a6.427 6.427 0 0 1-3.971 5.942 6.443 6.443 0 0 1-3.717.366 6.44 6.44 0 0 1-5.055-5.053 6.435 6.435 0 1 1 12.743-1.255z" fill="#fff"/>
        <path d="M302.797 253.108a19.345 19.345 0 0 1-22.043 0 11.134 11.134 0 0 1 22.043 0z" fill="#fff"/>
        <path d="M50.976 119.698c4.6-4.23 4.9-11.387.67-15.986-4.23-4.6-11.386-4.9-15.986-.67-4.6 4.23-4.9 11.387-.67 15.986s11.386 4.899 15.986.67z" fill="#263238"/>
        <path d="M54.64 111.367a11.307 11.307 0 0 1-6.98 10.456 11.318 11.318 0 0 1-15.434-8.239 11.306 11.306 0 0 1 4.81-11.614 11.321 11.321 0 0 1 6.288-1.907 11.296 11.296 0 0 1 10.458 6.974c.568 1.373.86 2.844.858 4.33z" fill="#F9AFB3"/>
        <path d="M47.101 111.184a3.768 3.768 0 0 1-6.434 2.665 3.77 3.77 0 0 1-.818-4.107 3.768 3.768 0 0 1 3.483-2.325 3.777 3.777 0 0 1 2.665 1.103 3.769 3.769 0 0 1 1.104 2.664z" fill="#fff"/>
        <path d="M49.78 120.659a11.32 11.32 0 0 1-12.907 0 6.521 6.521 0 0 1 12.906 0z" fill="#fff"/>
        <path d="M201.539 30.026c4.053-8.218.673-18.164-7.548-22.215-8.221-4.051-18.171-.673-22.224 7.545-4.052 8.219-.673 18.165 7.549 22.216 8.221 4.05 18.171.672 22.223-7.546z" fill="#A5C2FB"/>
        <path opacity=".1" d="M192.155 38.355a16.598 16.598 0 0 1-22.085-15.099 16.581 16.581 0 0 1 6.324-13.592 16.605 16.605 0 0 1 14.704-2.946 14.407 14.407 0 0 0-16.704 8.75 14.395 14.395 0 0 0 6.281 17.775 14.407 14.407 0 0 0 18.495-3.68 14.39 14.39 0 0 0-1.003-18.823 16.592 16.592 0 0 1 .927 22.945 16.601 16.601 0 0 1-6.939 4.67z" fill="#000"/>
        <path d="M180.308 21.455a2.326 2.326 0 0 1-.656 2.5 2.328 2.328 0 0 1-3.873-1.873 2.327 2.327 0 0 1 1.555-2.066 2.331 2.331 0 0 1 2.974 1.439zM195.263 16.216a2.326 2.326 0 0 1-.656 2.501 2.328 2.328 0 0 1-3.873-1.874 2.327 2.327 0 0 1 1.555-2.065 2.331 2.331 0 0 1 2.974 1.438zM188.671 17.774a3.519 3.519 0 0 1-4.851 4.333 3.525 3.525 0 0 1-1.797-2.004l6.648-2.33z" fill="#263238"/>
        <path d="M188.665 20.111a3.516 3.516 0 0 1-2.155 2.144 3.52 3.52 0 0 1-3.022-.332 4.216 4.216 0 0 1 2.259-1.868 4.135 4.135 0 0 1 2.918.056z" fill="#FF9BBC"/>
        <path d="M173.305 284.389c5.972-.467 10.435-5.685 9.969-11.655-.467-5.97-5.687-10.431-11.659-9.965-5.973.467-10.436 5.685-9.969 11.655.467 5.97 5.687 10.431 11.659 9.965z" fill="#A5C2FB"/>
        <path opacity=".1" d="M166.518 282.711a10.844 10.844 0 0 1-4.008-13.422 10.848 10.848 0 0 1 19.976.234 9.433 9.433 0 0 0-16.507-1.258 9.425 9.425 0 0 0 1.7 12.23 9.436 9.436 0 0 0 12.352.059 9.428 9.428 0 0 0 3.187-5.769 10.7 10.7 0 0 1-1.694 4.77 10.86 10.86 0 0 1-15.006 3.156z" fill="#000"/>
        <path d="M170.557 269.809a1.524 1.524 0 0 1-1.56.665 1.53 1.53 0 0 1-1.212-1.186 1.52 1.52 0 0 1 .631-1.573 1.52 1.52 0 0 1 2.122.396 1.531 1.531 0 0 1 .019 1.698zM179.233 275.468a1.527 1.527 0 1 1-2.555-1.672 1.527 1.527 0 0 1 2.555 1.672zM175.798 272.67a2.317 2.317 0 0 1-3.181.676 2.344 2.344 0 0 1-1.034-1.701 2.305 2.305 0 0 1 .366-1.487l3.849 2.512z" fill="#263238"/>
        <path d="M174.582 273.601a2.27 2.27 0 0 1-1.972-.254 2.323 2.323 0 0 1-1.034-1.701 2.744 2.744 0 0 1 3.006 1.955z" fill="#FF9BBC"/>
        <path d="M139.71 83.037c-.379.068-.771 0-1.105-.19a1.823 1.823 0 0 1-.66-.947.628.628 0 0 0-.247-.286 1.015 1.015 0 0 0-.429-.143.272.272 0 0 1-.279-.207.561.561 0 0 1 0-.182.473.473 0 0 1 .47-.342 2.377 2.377 0 0 1-.231-.795 2.85 2.85 0 0 1 .62-1.797c.4-.53.956-.922 1.591-1.12a2.099 2.099 0 0 1 1.741.206 1.743 1.743 0 0 1 .795 1.447c.02.65-.195 1.284-.604 1.788a3.179 3.179 0 0 1-1.638 1.13c-.293.078-.597.103-.899.07h-.151c.077.227.218.426.406.573.198.12.434.16.66.111a.31.31 0 0 1 .366.326.472.472 0 0 1-.406.358zm-1.686-3.307a1.132 1.132 0 0 0 .509.946 1.415 1.415 0 0 0 1.145.143c.45-.137.843-.416 1.122-.795.281-.345.43-.779.421-1.224a1.2 1.2 0 0 0-.517-.962 1.341 1.341 0 0 0-1.137-.127c-.45.132-.842.412-1.113.795a1.915 1.915 0 0 0-.43 1.224zM141.762 83.562a1.275 1.275 0 0 1-.479-.898 1.287 1.287 0 0 1 .328-.962l1.033-1.344a.39.39 0 0 1 .493-.119.325.325 0 0 1 0 .477l-1.025 1.335a.613.613 0 0 0-.167.473.625.625 0 0 0 .238.442.75.75 0 0 0 .97-.223l1.026-1.343a.39.39 0 0 1 .493-.128.331.331 0 0 1 .04.477l-1.026 1.344a1.524 1.524 0 0 1-1.924.469zM147.058 84.945l-.843 1.105a.388.388 0 0 1-.493.12.322.322 0 0 1-.08-.414 1.327 1.327 0 0 1-.85-.199 1.202 1.202 0 0 1-.541-.97 1.84 1.84 0 0 1 .413-1.216c.268-.38.654-.659 1.098-.795a1.398 1.398 0 0 1 1.185.143c.239.16.41.404.477.684a.38.38 0 0 1 .453-.072.325.325 0 0 1 0 .477l-.819 1.137zm-.533-.35c.165-.198.255-.449.255-.707a.664.664 0 0 0-.295-.54.788.788 0 0 0-.644-.08c-.254.08-.477.239-.636.453-.163.2-.252.45-.254.707a.645.645 0 0 0 .302.525.79.79 0 0 0 .636.095c.254-.081.476-.24.636-.453zM150.374 83.315a.334.334 0 0 1 .134.24.34.34 0 0 1-.086.26l-2.545 3.316a.396.396 0 0 1-.516.12.33.33 0 0 1-.129-.239.336.336 0 0 1 .089-.255l2.537-3.315a.41.41 0 0 1 .516-.127zM150.772 85.747l-1.686 2.21a.39.39 0 0 1-.501.127.319.319 0 0 1-.108-.242.32.32 0 0 1 .108-.243l1.678-2.194a.373.373 0 0 1 .509-.127.318.318 0 0 1 .079.363.325.325 0 0 1-.079.106zm.795-1.017a.391.391 0 0 1-.509.127.334.334 0 0 1 0-.485l.087-.12a.39.39 0 0 1 .509-.119.31.31 0 0 1 .128.23.318.318 0 0 1-.088.247l-.127.12zM152.776 87.06a.413.413 0 0 1-.517.126l-.127-.087-1.201 1.59a.33.33 0 0 1 .112.374.342.342 0 0 1-.072.118.389.389 0 0 1-.517.128.683.683 0 0 1-.258-.48.664.664 0 0 1 .179-.514l1.2-1.59-.143-.095a.338.338 0 0 1-.117-.373.316.316 0 0 1 .07-.12.386.386 0 0 1 .516-.127l.144.095.628-.795a.396.396 0 0 1 .517-.127.326.326 0 0 1 .039.493l-.62.795.127.087a.338.338 0 0 1 .115.381.334.334 0 0 1-.075.12zM155.558 88.871 154.54 90.2l-.612.795a1.721 1.721 0 0 1-2.235.548 1.208 1.208 0 0 1-.414-.485.382.382 0 0 1 .175-.485.336.336 0 0 1 .454.112c.05.11.13.203.23.27a.91.91 0 0 0 1.026-.095c-.207-.001-.41-.065-.58-.183a1.277 1.277 0 0 1-.421-1.42c.058-.166.15-.32.27-.448l1.017-1.328a.383.383 0 0 1 .485-.127.308.308 0 0 1 .114.363.306.306 0 0 1-.074.114l-1.018 1.327a.616.616 0 0 0-.158.477.622.622 0 0 0 .246.438.732.732 0 0 0 .962-.231l1.01-1.328a.381.381 0 0 1 .493-.127.33.33 0 0 1 .133.232.328.328 0 0 1-.085.253zM210.174 123.45a.294.294 0 0 1 .124-.026.29.29 0 0 1 .274.225c.066.422.291.803.628 1.065.234.157.514.23.795.206a.73.73 0 0 0 .533-.262.396.396 0 0 0 .088-.207.537.537 0 0 0 0-.27 2.095 2.095 0 0 0-.494-.715 2.99 2.99 0 0 1-.485-.644 1.27 1.27 0 0 1-.127-.747c.028-.198.107-.384.231-.541a1.534 1.534 0 0 1 1.034-.556c.389-.032.777.066 1.105.278.379.289.644.703.747 1.168a.386.386 0 0 1-.034.265.397.397 0 0 1-.196.181.305.305 0 0 1-.121.041.286.286 0 0 1-.301-.192 1.48 1.48 0 0 0-.54-.891 1.085 1.085 0 0 0-.708-.183.635.635 0 0 0-.461.231.353.353 0 0 0-.088.183.635.635 0 0 0 0 .23c.096.252.245.48.438.668.201.208.373.443.508.7.13.243.183.52.152.794a1.287 1.287 0 0 1-.247.557 1.584 1.584 0 0 1-1.105.588 1.8 1.8 0 0 1-1.177-.294 2.233 2.233 0 0 1-.859-1.407.413.413 0 0 1 .286-.445zM213.832 127.337a1.277 1.277 0 0 1-.151-1.86l1.034-1.344a.394.394 0 0 1 .493-.127.337.337 0 0 1 .086.102.327.327 0 0 1-.046.375l-1.034 1.344a.62.62 0 0 0-.159.474.621.621 0 0 0 .238.44.75.75 0 0 0 .97-.231l1.026-1.343a.38.38 0 0 1 .493-.119.33.33 0 0 1 .04.476l-1.026 1.384a1.539 1.539 0 0 1-1.964.429zM215.35 129.468l1.646-2.147.851-1.112a.4.4 0 0 1 .501-.12.31.31 0 0 1 .096.414c.304-.02.607.055.867.214a1.544 1.544 0 0 1 .546 1.08 1.518 1.518 0 0 1-.411 1.138 1.777 1.777 0 0 1-2.291.588 1.15 1.15 0 0 1-.493-.675l-.795.993a.396.396 0 0 1-.517.112.335.335 0 0 1-.08-.11.337.337 0 0 1 0-.266.331.331 0 0 1 .08-.109zm2.203-1.765a.978.978 0 0 0-.238.692.647.647 0 0 0 .302.548.79.79 0 0 0 .652.08c.251-.075.471-.228.628-.438a1.14 1.14 0 0 0 .239-.691.72.72 0 0 0-.295-.549.795.795 0 0 0-.66-.079 1.129 1.129 0 0 0-.628.437zM218.666 131.677l1.646-2.146.859-1.113a.387.387 0 0 1 .493-.119.315.315 0 0 1 .103.413c.303-.021.604.057.859.223a1.502 1.502 0 0 1 .55 1.075 1.517 1.517 0 0 1-.415 1.134 1.766 1.766 0 0 1-2.282.589 1.152 1.152 0 0 1-.501-.668l-.756.986a.408.408 0 0 1-.525.111.342.342 0 0 1-.12-.236.333.333 0 0 1 .089-.249zm2.202-1.789a.985.985 0 0 0-.23.692.662.662 0 0 0 .294.556.8.8 0 0 0 .652.072c.249-.074.469-.224.628-.429.156-.2.24-.446.239-.7a.668.668 0 0 0-.294-.54.753.753 0 0 0-.652-.088 1.204 1.204 0 0 0-.637.414v.023zM223.12 132.837a1.84 1.84 0 0 1 .413-1.216 2.122 2.122 0 0 1 1.098-.795 1.451 1.451 0 0 1 1.193.143 1.183 1.183 0 0 1 .516.986c.013.44-.131.871-.405 1.216-.272.37-.662.637-1.105.755a1.386 1.386 0 0 1-1.169-.127 1.217 1.217 0 0 1-.541-.962zm.962-.85c-.17.2-.268.452-.278.715a.707.707 0 0 0 .326.525.783.783 0 0 0 .62.095 1.23 1.23 0 0 0 .652-.469c.167-.198.257-.449.255-.707a.798.798 0 0 0-.303-.525.865.865 0 0 0-.644-.103 1.355 1.355 0 0 0-.628.469zM229.1 133.617a.393.393 0 0 1-.493.127.563.563 0 0 0-.39-.096c-.152.01-.301.051-.437.12a2.35 2.35 0 0 0-.565.334l-.795 1.065a.4.4 0 0 1-.509.119.323.323 0 0 1-.084-.103.351.351 0 0 1-.037-.127.348.348 0 0 1 .081-.247l1.702-2.21a.375.375 0 0 1 .493-.119.324.324 0 0 1 .048.477.78.78 0 0 1 .19-.048c.28-.018.558.051.796.199a.316.316 0 0 1 .093.396.32.32 0 0 1-.093.113zM230.883 134.81a.416.416 0 0 1-.517.127l-.128-.088-1.2 1.59a.327.327 0 0 1 .108.247.325.325 0 0 1-.108.246.392.392 0 0 1-.517.127.673.673 0 0 1-.255-.479.675.675 0 0 1 .175-.514l1.201-1.59-.143-.096a.337.337 0 0 1-.04-.492.39.39 0 0 1 .517-.128l.143.096.628-.795a.392.392 0 0 1 .517-.127.32.32 0 0 1 .133.237.323.323 0 0 1-.093.256l-.628.794.127.08a.335.335 0 0 1 .08.509zM137.523 69.213a.289.289 0 0 1 .344.085.3.3 0 0 1 .054.114c.064.422.289.804.628 1.065.234.157.514.23.795.207a.731.731 0 0 0 .533-.263c.05-.058.08-.13.087-.206a.538.538 0 0 0 0-.27 2.083 2.083 0 0 0-.493-.716 2.987 2.987 0 0 1-.485-.644 1.263 1.263 0 0 1-.127-.747c.028-.199.111-.386.238-.54a1.5 1.5 0 0 1 1.026-.557c.389-.031.778.066 1.106.278.381.29.646.708.747 1.176a.394.394 0 0 1-.23.446.3.3 0 0 1-.246.021.293.293 0 0 1-.176-.172 1.497 1.497 0 0 0-.541-.899 1.128 1.128 0 0 0-.707-.182.631.631 0 0 0-.462.23.35.35 0 0 0-.087.183.682.682 0 0 0 0 .238c.098.248.247.473.437.66.204.204.375.437.509.692.13.243.182.52.151.795a1.285 1.285 0 0 1-.246.556 1.596 1.596 0 0 1-1.106.588c-.414.041-.83-.063-1.177-.294a2.232 2.232 0 0 1-.858-1.407.414.414 0 0 1 .286-.437zM143.384 72.44l-.843 1.106a.389.389 0 0 1-.493.12.311.311 0 0 1-.08-.414 1.316 1.316 0 0 1-.85-.199 1.183 1.183 0 0 1-.392-.422 1.18 1.18 0 0 1-.149-.556 1.83 1.83 0 0 1 .413-1.208c.268-.38.654-.659 1.098-.795a1.43 1.43 0 0 1 1.185.135c.238.164.408.41.477.692a.38.38 0 0 1 .453-.072.325.325 0 0 1 0 .477l-.819 1.137zm-.533-.349c.166-.198.254-.45.247-.707a.642.642 0 0 0-.287-.54.789.789 0 0 0-.644-.08 1.242 1.242 0 0 0-.636.453 1.095 1.095 0 0 0-.254.707.645.645 0 0 0 .302.525.791.791 0 0 0 .636.095c.258-.09.481-.26.636-.485v.032zM146.352 72.742a.401.401 0 0 1-.517.12l-.127-.08-1.201 1.59a.339.339 0 0 1 0 .5.391.391 0 0 1-.509.127.666.666 0 0 1-.263-.477.682.682 0 0 1 .175-.516l1.209-1.59-.151-.095a.338.338 0 0 1-.125-.234.331.331 0 0 1 .085-.251.391.391 0 0 1 .517-.127l.143.095.628-.795a.39.39 0 0 1 .517-.12c.036.03.064.068.083.11a.31.31 0 0 1 0 .267.303.303 0 0 1-.083.109l-.628.795.127.079a.342.342 0 0 1 .12.493zM147.773 73.688l-1.678 2.194a.388.388 0 0 1-.509.119.312.312 0 0 1-.079-.37.307.307 0 0 1 .079-.107l1.686-2.194a.373.373 0 0 1 .509-.127.32.32 0 0 1 .104.244.33.33 0 0 1-.112.24zm.795-1.018a.39.39 0 0 1-.509.127.332.332 0 0 1-.108-.242.333.333 0 0 1 .108-.243l.088-.119a.388.388 0 0 1 .501-.127.315.315 0 0 1 .133.233.329.329 0 0 1-.093.252l-.12.12zM147.242 75.882a.293.293 0 0 1 .413.207.93.93 0 0 0 .366.612c.127.078.273.12.421.119a.367.367 0 0 0 .223-.111.099.099 0 0 0 0-.064.153.153 0 0 0 0-.111 1.104 1.104 0 0 0-.278-.421 2.04 2.04 0 0 1-.326-.43 1 1 0 0 1-.096-.556.97.97 0 0 1 .183-.413 1.17 1.17 0 0 1 .795-.422c.28-.023.56.047.796.199.266.19.45.474.517.795a.417.417 0 0 1-.239.469.305.305 0 0 1-.362-.056.301.301 0 0 1-.067-.111.874.874 0 0 0-.303-.517.595.595 0 0 0-.381-.095.284.284 0 0 0-.183.071.173.173 0 0 0 0 .056.255.255 0 0 0 0 .095c.058.143.148.27.262.374.141.135.257.294.342.469.1.17.137.37.103.564a.966.966 0 0 1-.19.438 1.146 1.146 0 0 1-.796.437c-.28.021-.56-.051-.795-.207a1.486 1.486 0 0 1-.604-.97.43.43 0 0 1 .199-.421zM152.33 75.938l-.056.08.151.103a.34.34 0 0 1 .04.493.414.414 0 0 1-.517.127l-.151-.103-1.519 1.987a.405.405 0 0 1-.517.127.343.343 0 0 1 0-.493l1.519-1.987-.127-.088a.329.329 0 0 1-.133-.235.321.321 0 0 1 .015-.138.345.345 0 0 1 .07-.12.4.4 0 0 1 .525-.119l.127.08.064-.08c.135-.197.311-.362.517-.484a.858.858 0 0 1 .628-.112c.12.032.234.086.334.16a.337.337 0 0 1 .125.233.34.34 0 0 1-.085.251.398.398 0 0 1-.517.135.591.591 0 0 0-.143-.071.065.065 0 0 0-.04 0s-.151.047-.31.254zM154.169 79.555l-.843 1.097a.38.38 0 0 1-.493.127.318.318 0 0 1-.08-.413c-.3.028-.601-.042-.859-.2a1.226 1.226 0 0 1-.54-.977 1.894 1.894 0 0 1 .421-1.216 2.106 2.106 0 0 1 1.098-.795 1.434 1.434 0 0 1 1.176.143c.242.163.414.41.486.692a.37.37 0 0 1 .445-.08.319.319 0 0 1 .128.233.327.327 0 0 1-.088.252l-.851 1.137zm-.533-.35c.165-.198.253-.45.246-.708a.648.648 0 0 0-.294-.54.727.727 0 0 0-.644-.08 1.224 1.224 0 0 0-.636.453c-.165.199-.253.45-.247.708a.663.663 0 0 0 .295.525.793.793 0 0 0 .636.087 1.21 1.21 0 0 0 .644-.437v-.008zM154.978 80.095a1.83 1.83 0 0 1 2.385-.573c.282.185.484.469.565.795a.424.424 0 0 1-.262.453.298.298 0 0 1-.257.007.293.293 0 0 1-.165-.198.794.794 0 0 0-.342-.492 1.073 1.073 0 0 0-1.368.318.896.896 0 0 0-.103 1.022c.06.107.141.2.239.273.183.112.399.16.612.135a.296.296 0 0 1 .314.183c.016.04.023.084.02.127a.461.461 0 0 1-.374.382c-.36.04-.724-.04-1.034-.23a1.528 1.528 0 0 1-.584-1.052 1.523 1.523 0 0 1 .354-1.15zM160.003 81.749a.406.406 0 0 1-.525.119l-.119-.08-1.209 1.59a.327.327 0 0 1 .113.246.327.327 0 0 1-.113.246.389.389 0 0 1-.517.128.688.688 0 0 1-.254-.476.685.685 0 0 1 .175-.51l1.201-1.59-.143-.095a.336.336 0 0 1-.12-.266.336.336 0 0 1 .135-.259.416.416 0 0 1 .517-.127l.144.104.62-.795a.396.396 0 0 1 .525-.12.332.332 0 0 1 .128.234.327.327 0 0 1-.089.251l-.628.795.127.08a.337.337 0 0 1 .139.255.343.343 0 0 1-.107.27zM161.444 82.703l-1.678 2.194a.391.391 0 0 1-.509.127.334.334 0 0 1-.077-.374.32.32 0 0 1 .077-.111l1.686-2.194a.379.379 0 0 1 .509-.127.334.334 0 0 1 .104.244.327.327 0 0 1-.112.24zm.795-1.018a.382.382 0 0 1-.509.135.33.33 0 0 1 0-.493l.087-.119a.384.384 0 0 1 .501-.119.316.316 0 0 1 0 .485l-.079.111zM160.943 85.517c-.016-.445.131-.88.413-1.224a2.172 2.172 0 0 1 1.097-.795 1.447 1.447 0 0 1 1.193.15 1.166 1.166 0 0 1 .517.978c.015.441-.129.873-.405 1.217a2.013 2.013 0 0 1-1.106.795 1.353 1.353 0 0 1-1.169-.128 1.208 1.208 0 0 1-.54-.994zm.954-.859c-.165.204-.26.454-.271.716a.713.713 0 0 0 .326.524.8.8 0 0 0 .621.096c.261-.079.49-.24.652-.461.164-.203.253-.455.254-.716a.73.73 0 0 0-.302-.516.875.875 0 0 0-.644-.112c-.253.091-.475.254-.636.47zM166.9 87.591l-1.026 1.344a.388.388 0 0 1-.493.12.332.332 0 0 1-.086-.1.322.322 0 0 1 .046-.37l1.034-1.343a.622.622 0 0 0 .151-.478.62.62 0 0 0-.246-.436.725.725 0 0 0-.939.238l-1.026 1.343a.182.182 0 0 1-.055.048.375.375 0 0 1-.454.064.314.314 0 0 1-.123-.226.32.32 0 0 1 .084-.243l1.033-1.344.668-.874a.376.376 0 0 1 .493-.12.288.288 0 0 1 .114.148.29.29 0 0 1-.002.187c.235-.013.469.048.668.174a1.29 1.29 0 0 1 .487.9 1.293 1.293 0 0 1-.328.969zM222.811 118.578l-.796-.525-2.306 2.997a.381.381 0 0 1-.509.127.334.334 0 0 1-.039-.493l2.29-2.996-.795-.525a.334.334 0 0 1 0-.501.381.381 0 0 1 .509-.127l2.155 1.423a.327.327 0 0 1 .039.485.394.394 0 0 1-.402.188.401.401 0 0 1-.146-.053zM224.296 120.763a.389.389 0 0 1-.501.12.533.533 0 0 0-.382-.088 1.086 1.086 0 0 0-.437.111 2.588 2.588 0 0 0-.572.342l-.796 1.065a.379.379 0 0 1-.501.112.31.31 0 0 1-.039-.469l1.693-2.218a.38.38 0 0 1 .493-.111.32.32 0 0 1 .121.353.34.34 0 0 1-.065.116h.191c.28-.026.56.044.795.198a.3.3 0 0 1 .076.107.313.313 0 0 1 0 .256.296.296 0 0 1-.076.106zM224.011 124.356a1.25 1.25 0 0 1-.481-.893 1.246 1.246 0 0 1 .33-.959l1.034-1.343a.39.39 0 0 1 .493-.128.352.352 0 0 1 .086.102.339.339 0 0 1 .022.261.326.326 0 0 1-.069.114l-1.033 1.344a.61.61 0 0 0-.163.474.629.629 0 0 0 .242.44.74.74 0 0 0 .962-.231l1.034-1.343a.388.388 0 0 1 .493-.127.342.342 0 0 1 .04.477l-1.026 1.343a1.53 1.53 0 0 1-.893.606 1.531 1.531 0 0 1-1.071-.137zM226.61 124.865a.289.289 0 0 1 .257.003.294.294 0 0 1 .157.203.979.979 0 0 0 .366.612c.126.079.272.12.421.12a.318.318 0 0 0 .223-.112.067.067 0 0 0 .007-.031.068.068 0 0 0-.007-.032.194.194 0 0 0 0-.112 1.276 1.276 0 0 0-.287-.421 2.068 2.068 0 0 1-.326-.429 1.01 1.01 0 0 1-.095-.557.927.927 0 0 1 .191-.413 1.117 1.117 0 0 1 .795-.421c.28-.025.56.045.795.198.265.194.452.476.525.795a.432.432 0 0 1-.239.469.319.319 0 0 1-.256.017.314.314 0 0 1-.181-.184.876.876 0 0 0-.302-.516.6.6 0 0 0-.477-.078.24.24 0 0 0-.08.054v.056a.14.14 0 0 0 0 .095c.062.141.151.268.263.374.143.132.259.292.342.469.1.17.136.37.103.564a1.044 1.044 0 0 1-.183.437 1.168 1.168 0 0 1-.795.437 1.276 1.276 0 0 1-.795-.206 1.45 1.45 0 0 1-.597-.97.417.417 0 0 1 .175-.421zM231.708 125.668a.4.4 0 0 1-.517.127l-.127-.079-1.201 1.589a.337.337 0 0 1 .084.111.336.336 0 0 1 0 .271.317.317 0 0 1-.084.111.381.381 0 0 1-.508.127.668.668 0 0 1-.259-.479.683.683 0 0 1 .179-.514l1.201-1.59-.151-.095a.345.345 0 0 1-.04-.493.39.39 0 0 1 .517-.127l.143.095.628-.795a.398.398 0 0 1 .517-.127.32.32 0 0 1 .114.375.332.332 0 0 1-.074.118l-.62.795.119.079a.335.335 0 0 1 .147.375.343.343 0 0 1-.068.126z" fill="#fff"/>
    </g>
    <defs>
        <clipPath id="c1aeqpvhea">
            <path fill="#fff" d="M0 0h327v360H0z"/>
        </clipPath>
    </defs>
</svg>
