<svg width="56" height="56" viewBox="0 0 56 56" fill="none" xmlns="http://www.w3.org/2000/svg">
    <path opacity=".3" d="M50 50V18L6 50h44z" fill="red"/>
    <path d="M48.95 18.4c0-.797.653-1.45 1.45-1.45.797 0 1.45.653 1.45 1.45v28.8a4.664 4.664 0 0 1-4.65 4.65H8.8a4.664 4.664 0 0 1-4.65-4.65V18.4c0-.797.653-1.45 1.45-1.45.797 0 1.45.653 1.45 1.45v28.8c0 .963.787 1.75 1.75 1.75h38.4c.963 0 1.75-.787 1.75-1.75V18.4z" fill="#004498" stroke="#F6FAFF" stroke-width=".3"/>
    <path d="M13.602 46.4h28.8c2.208 0 4-1.792 4-4v-.8c0-2.208-1.792-4-4-4h-28.8c-2.208 0-4 1.792-4 4v.8c0 2.208 1.792 4 4 4zm-.8-4.8c0-.448.352-.8.8-.8h28.8c.448 0 .8.352.8.8v.8c0 .448-.352.8-.8.8h-28.8a.792.792 0 0 1-.8-.8v-.8zm-.4-6.4c.88 0 1.6-.72 1.6-1.6v-4.8h3.2v4.8c0 .88.72 1.6 1.6 1.6.88 0 1.6-.72 1.6-1.6V23.2c0-2.208-1.792-4-4-4h-1.6c-2.208 0-4 1.792-4 4v10.4c0 .88.72 1.6 1.6 1.6zm1.6-12c0-.448.352-.8.8-.8h1.6c.448 0 .8.352.8.8v2.4h-3.2v-2.4zm12.8 12c.88 0 1.6-.72 1.6-1.6v-4.8h2.4c2.208 0 4-1.792 4-4v-1.6c0-2.208-1.792-4-4-4h-4c-.88 0-1.6.72-1.6 1.6v12.8c0 .88.72 1.6 1.6 1.6zm1.6-12.8h2.4c.448 0 .8.352.8.8v1.6c0 .448-.352.8-.8.8h-2.4v-3.2zm10.4 9.6c-.88 0-1.6.72-1.6 1.6 0 .88.72 1.6 1.6 1.6h4.8c.88 0 1.6-.72 1.6-1.6 0-.88-.72-1.6-1.6-1.6h-.8v-9.6h.8c.88 0 1.6-.72 1.6-1.6 0-.88-.72-1.6-1.6-1.6h-4.8c-.88 0-1.6.72-1.6 1.6 0 .88.72 1.6 1.6 1.6h.8V32h-.8z" fill="#004498"/>
    <path d="M8.8 4.15h38.4a4.664 4.664 0 0 1 4.65 4.65v4.65H4.15V8.8A4.664 4.664 0 0 1 8.8 4.15zm1.6 6.4h.8c.963 0 1.75-.787 1.75-1.75s-.787-1.75-1.75-1.75h-.8c-.963 0-1.75.787-1.75 1.75s.787 1.75 1.75 1.75zm6.4 0h.8c.963 0 1.75-.787 1.75-1.75s-.787-1.75-1.75-1.75h-.8c-.963 0-1.75.787-1.75 1.75s.787 1.75 1.75 1.75zm6.4 0h.8c.963 0 1.75-.787 1.75-1.75S24.963 7.05 24 7.05h-.8c-.963 0-1.75.787-1.75 1.75s.787 1.75 1.75 1.75z" fill="#004498" stroke="#F6FAFF" stroke-width=".3"/>
</svg>
