<svg width="56" height="56" viewBox="0 0 56 56" fill="none" xmlns="http://www.w3.org/2000/svg">
    <path opacity=".3" fill-rule="evenodd" clip-rule="evenodd" d="M51.62 33.304a.482.482 0 0 0 .445-.67l-2.786-6.557a.481.481 0 0 0-.444-.294h-6.433a.48.48 0 0 0-.482.482v6.558a.483.483 0 0 0 .482.482h9.219zM39 28.5v1.745H13.5V28.5H39zm1.3-4.336h8.805c.645 0 1.26.324 1.518.932l3.333 7.848c.072.17.103.322.103.506v3.896h-1.65c-.586 0-1.063.477-1.063 1.064v2.44c0 .586.478 1.062 1.064 1.062h1.65v1.248c0 .427-.352.78-.779.78h-2.27l-.086-.375a3.848 3.848 0 0 0-3.744-2.987 3.85 3.85 0 0 0-3.746 2.987l-.085.375H40.3V24.164z" fill="red"/>
    <path fill-rule="evenodd" clip-rule="evenodd" d="M47.18 45.566c.633 0 1.145-.513 1.145-1.145a1.143 1.143 0 1 0-2.29 0 1.145 1.145 0 0 0 1.146 1.145zm-23.117-.706a1.142 1.142 0 0 0-.248-1.249 1.144 1.144 0 0 0-1.956.81 1.146 1.146 0 0 0 2.204.439zm19.303-17.631v4.63h6.8l-1.968-4.63h-4.832zm9.214 5.682a.969.969 0 0 1-.503.76.963.963 0 0 1-.456.115h-9.219a.964.964 0 0 1-.964-.963v-6.558a.963.963 0 0 1 .964-.963h6.433a.964.964 0 0 1 .888.586l2.786 6.558a.969.969 0 0 1 .071.465zm.998 7.556v-1.675h-.787v1.675h.787zm0 2.693a.301.301 0 0 1-.296.298h-1.887a4.33 4.33 0 0 0-4.214-3.361 4.33 4.33 0 0 0-4.215 3.36h-2.184V24.647h8.323c.495 0 .907.244 1.075.638l3.333 7.848c.047.114.065.2.065.318v3.414H52.41c-.852 0-1.545.693-1.545 1.546v2.44c0 .85.692 1.544 1.545 1.544h1.168v.766zm-4 1.262a2.4 2.4 0 0 1-2.397 2.397 2.4 2.4 0 0 1-2.398-2.397 2.4 2.4 0 0 1 2.398-2.398 2.4 2.4 0 0 1 2.397 2.398zm-22.358-.964a4.332 4.332 0 0 0-4.215-3.361 4.331 4.331 0 0 0-4.215 3.36h-4.245a.717.717 0 0 1-.716-.717V32.13h25.027v11.328H27.22zm-1.818.964a2.4 2.4 0 0 1-2.397 2.397 2.4 2.4 0 0 1-2.398-2.397 2.4 2.4 0 0 1 2.398-2.398 2.4 2.4 0 0 1 2.397 2.398zM19 19.252l2.607-1.928h16.532a2.647 2.647 0 0 1 2.643 2.645v2.75h8.323c1.281 0 2.373.693 2.849 1.812l3.332 7.848c.15.352.219.693.219 1.071v9.71a2.226 2.226 0 0 1-2.223 2.225h-1.887a4.33 4.33 0 0 1-4.214 3.361 4.33 4.33 0 0 1-4.215-3.361H27.22a4.332 4.332 0 0 1-4.215 3.361 4.331 4.331 0 0 1-4.215-3.361h-4.244a2.646 2.646 0 0 1-2.644-2.645V24.607h1.976l-.045 2.108h-.004V27l.004-.285h25.023v-6.746a.718.718 0 0 0-.717-.717H19zm-5.171 10.951h25.026v-1.561H13.83v1.561z" fill="#004498"/>
    <g clip-path="url(#k0y6ps7cya)">
        <path opacity=".3" d="m18.278 11.506 1.575-1.575-2.785-2.784-1.575 1.575a7.82 7.82 0 0 0-2.024-.84V5.657H9.53v2.227a7.82 7.82 0 0 0-2.025.839L5.931 7.147 3.147 9.932l1.575 1.575a7.82 7.82 0 0 0-.84 2.024H1.657v3.938h2.227a7.82 7.82 0 0 0 .839 2.025l-1.575 1.575 2.784 2.784 1.575-1.575a7.819 7.819 0 0 0 2.025.84v2.226h3.938v-2.227a7.819 7.819 0 0 0 2.025-.839l1.575 1.575 2.784-2.784-1.575-1.575a7.819 7.819 0 0 0 .84-2.025h2.226V13.53h-2.227a7.818 7.818 0 0 0-.839-2.025zM11.5 19.437a3.937 3.937 0 1 1 0-7.874 3.937 3.937 0 0 1 0 7.874z" fill="red"/>
        <mask id="f90cxoeb8b" maskUnits="userSpaceOnUse" x="0" y="4" width="23" height="23" fill="#000">
            <path fill="#fff" d="M0 4h23v23H0z"/>
            <path d="M21.344 12.875h-1.735a8.457 8.457 0 0 0-.518-1.253l1.226-1.226a.657.657 0 0 0 0-.928l-2.785-2.785a.656.656 0 0 0-.928 0L15.378 7.91a8.463 8.463 0 0 0-1.253-.518V5.656A.656.656 0 0 0 13.469 5H9.53a.656.656 0 0 0-.656.656v1.735c-.431.138-.85.312-1.253.519L6.396 6.683a.656.656 0 0 0-.928 0L2.683 9.468a.656.656 0 0 0 0 .928l1.226 1.226c-.206.403-.38.822-.518 1.253H1.656a.656.656 0 0 0-.656.656v3.938a.656.656 0 0 0 .656.656h1.735c.139.431.312.85.518 1.253l-1.226 1.226a.656.656 0 0 0 0 .928l2.785 2.785a.656.656 0 0 0 .928 0l1.226-1.227c.403.207.822.38 1.253.52v1.734a.656.656 0 0 0 .656.656h3.938a.656.656 0 0 0 .656-.656v-1.735c.431-.139.85-.312 1.253-.518l1.226 1.226a.657.657 0 0 0 .928 0l2.785-2.785a.656.656 0 0 0 0-.928l-1.226-1.226c.206-.403.38-.822.518-1.253h1.735a.656.656 0 0 0 .656-.656V13.53a.656.656 0 0 0-.656-.656zm-.657 3.938h-1.57a.656.656 0 0 0-.636.492 7.166 7.166 0 0 1-.768 1.855.656.656 0 0 0 .101.798l1.11 1.11-1.856 1.856-1.11-1.11a.66.66 0 0 0-.798-.1c-.58.341-1.204.6-1.855.767a.656.656 0 0 0-.492.635v1.572h-2.626v-1.572a.656.656 0 0 0-.492-.635 7.18 7.18 0 0 1-1.856-.768.656.656 0 0 0-.797.101l-1.11 1.11-1.857-1.856 1.11-1.11a.656.656 0 0 0 .102-.798 7.165 7.165 0 0 1-.768-1.855.656.656 0 0 0-.635-.492H2.313v-2.625h1.57a.656.656 0 0 0 .636-.493 7.165 7.165 0 0 1 .768-1.855.656.656 0 0 0-.101-.798l-1.11-1.11 1.856-1.856 1.11 1.11a.656.656 0 0 0 .797.1 7.18 7.18 0 0 1 1.856-.767.656.656 0 0 0 .492-.635V6.312h2.626v1.572a.656.656 0 0 0 .492.635 7.165 7.165 0 0 1 1.855.768.656.656 0 0 0 .798-.101l1.11-1.11 1.856 1.856-1.11 1.11a.656.656 0 0 0-.1.798c.341.58.6 1.204.767 1.855a.656.656 0 0 0 .635.492h1.572v2.626z"/>
        </mask>
        <path d="M21.344 12.875h-1.735a8.457 8.457 0 0 0-.518-1.253l1.226-1.226a.657.657 0 0 0 0-.928l-2.785-2.785a.656.656 0 0 0-.928 0L15.378 7.91a8.463 8.463 0 0 0-1.253-.518V5.656A.656.656 0 0 0 13.469 5H9.53a.656.656 0 0 0-.656.656v1.735c-.431.138-.85.312-1.253.519L6.396 6.683a.656.656 0 0 0-.928 0L2.683 9.468a.656.656 0 0 0 0 .928l1.226 1.226c-.206.403-.38.822-.518 1.253H1.656a.656.656 0 0 0-.656.656v3.938a.656.656 0 0 0 .656.656h1.735c.139.431.312.85.518 1.253l-1.226 1.226a.656.656 0 0 0 0 .928l2.785 2.785a.656.656 0 0 0 .928 0l1.226-1.227c.403.207.822.38 1.253.52v1.734a.656.656 0 0 0 .656.656h3.938a.656.656 0 0 0 .656-.656v-1.735c.431-.139.85-.312 1.253-.518l1.226 1.226a.657.657 0 0 0 .928 0l2.785-2.785a.656.656 0 0 0 0-.928l-1.226-1.226c.206-.403.38-.822.518-1.253h1.735a.656.656 0 0 0 .656-.656V13.53a.656.656 0 0 0-.656-.656zm-.657 3.938h-1.57a.656.656 0 0 0-.636.492 7.166 7.166 0 0 1-.768 1.855.656.656 0 0 0 .101.798l1.11 1.11-1.856 1.856-1.11-1.11a.66.66 0 0 0-.798-.1c-.58.341-1.204.6-1.855.767a.656.656 0 0 0-.492.635v1.572h-2.626v-1.572a.656.656 0 0 0-.492-.635 7.18 7.18 0 0 1-1.856-.768.656.656 0 0 0-.797.101l-1.11 1.11-1.857-1.856 1.11-1.11a.656.656 0 0 0 .102-.798 7.165 7.165 0 0 1-.768-1.855.656.656 0 0 0-.635-.492H2.313v-2.625h1.57a.656.656 0 0 0 .636-.493 7.165 7.165 0 0 1 .768-1.855.656.656 0 0 0-.101-.798l-1.11-1.11 1.856-1.856 1.11 1.11a.656.656 0 0 0 .797.1 7.18 7.18 0 0 1 1.856-.767.656.656 0 0 0 .492-.635V6.312h2.626v1.572a.656.656 0 0 0 .492.635 7.165 7.165 0 0 1 1.855.768.656.656 0 0 0 .798-.101l1.11-1.11 1.856 1.856-1.11 1.11a.656.656 0 0 0-.1.798c.341.58.6 1.204.767 1.855a.656.656 0 0 0 .635.492h1.572v2.626z" fill="#004498"/>
        <path d="M21.344 12.875h-1.735a8.457 8.457 0 0 0-.518-1.253l1.226-1.226a.657.657 0 0 0 0-.928l-2.785-2.785a.656.656 0 0 0-.928 0L15.378 7.91a8.463 8.463 0 0 0-1.253-.518V5.656A.656.656 0 0 0 13.469 5H9.53a.656.656 0 0 0-.656.656v1.735c-.431.138-.85.312-1.253.519L6.396 6.683a.656.656 0 0 0-.928 0L2.683 9.468a.656.656 0 0 0 0 .928l1.226 1.226c-.206.403-.38.822-.518 1.253H1.656a.656.656 0 0 0-.656.656v3.938a.656.656 0 0 0 .656.656h1.735c.139.431.312.85.518 1.253l-1.226 1.226a.656.656 0 0 0 0 .928l2.785 2.785a.656.656 0 0 0 .928 0l1.226-1.227c.403.207.822.38 1.253.52v1.734a.656.656 0 0 0 .656.656h3.938a.656.656 0 0 0 .656-.656v-1.735c.431-.139.85-.312 1.253-.518l1.226 1.226a.657.657 0 0 0 .928 0l2.785-2.785a.656.656 0 0 0 0-.928l-1.226-1.226c.206-.403.38-.822.518-1.253h1.735a.656.656 0 0 0 .656-.656V13.53a.656.656 0 0 0-.656-.656zm-.657 3.938h-1.57a.656.656 0 0 0-.636.492 7.166 7.166 0 0 1-.768 1.855.656.656 0 0 0 .101.798l1.11 1.11-1.856 1.856-1.11-1.11a.66.66 0 0 0-.798-.1c-.58.341-1.204.6-1.855.767a.656.656 0 0 0-.492.635v1.572h-2.626v-1.572a.656.656 0 0 0-.492-.635 7.18 7.18 0 0 1-1.856-.768.656.656 0 0 0-.797.101l-1.11 1.11-1.857-1.856 1.11-1.11a.656.656 0 0 0 .102-.798 7.165 7.165 0 0 1-.768-1.855.656.656 0 0 0-.635-.492H2.313v-2.625h1.57a.656.656 0 0 0 .636-.493 7.165 7.165 0 0 1 .768-1.855.656.656 0 0 0-.101-.798l-1.11-1.11 1.856-1.856 1.11 1.11a.656.656 0 0 0 .797.1 7.18 7.18 0 0 1 1.856-.767.656.656 0 0 0 .492-.635V6.312h2.626v1.572a.656.656 0 0 0 .492.635 7.165 7.165 0 0 1 1.855.768.656.656 0 0 0 .798-.101l1.11-1.11 1.856 1.856-1.11 1.11a.656.656 0 0 0-.1.798c.341.58.6 1.204.767 1.855a.656.656 0 0 0 .635.492h1.572v2.626z" stroke="#004498" stroke-width=".4" mask="url(#f90cxoeb8b)"/>
        <path d="M11.5 10.806a4.694 4.694 0 1 0 4.694 4.694 4.699 4.699 0 0 0-4.694-4.694zm0 7.875a3.18 3.18 0 1 1 0-6.36 3.18 3.18 0 0 1 0 6.36z" fill="#004498" stroke="#004498" stroke-width=".2"/>
    </g>
    <defs>
        <clipPath id="k0y6ps7cya">
            <path fill="#fff" transform="translate(1 5)" d="M0 0h21v21H0z"/>
        </clipPath>
    </defs>
</svg>
