<svg width="56" height="56" viewBox="0 0 56 56" fill="none" xmlns="http://www.w3.org/2000/svg">
<path opacity="0.3" fill-rule="evenodd" clip-rule="evenodd" d="M51.6206 33.3045C51.7001 33.3045 51.7784 33.2848 51.8485 33.2472C51.9186 33.2096 51.9782 33.1552 52.0221 33.0889C52.0663 33.0225 52.0933 32.9462 52.1008 32.8668C52.1083 32.7874 52.0959 32.7074 52.0649 32.6339L49.2793 26.0766C49.2423 25.9895 49.1804 25.9152 49.1014 25.8631C49.0224 25.8109 48.9297 25.7832 48.835 25.7834H42.4018C42.3385 25.7833 42.2758 25.7958 42.2173 25.82C42.1588 25.8442 42.1057 25.8797 42.0609 25.9245C42.0162 25.9692 41.9807 26.0224 41.9564 26.0808C41.9322 26.1393 41.9198 26.202 41.9198 26.2653V32.8226C41.9198 32.8859 41.9322 32.9486 41.9564 33.0071C41.9807 33.0656 42.0162 33.1187 42.0609 33.1635C42.1057 33.2083 42.1588 33.2438 42.2173 33.268C42.2758 33.2922 42.3385 33.3046 42.4018 33.3046L51.6206 33.3045ZM39.0003 28.5V30.2451H13.5V28.5H39.0003ZM40.3002 24.1641H49.1049C49.75 24.1641 50.3643 24.4878 50.6225 25.0957L53.9561 32.9438C54.028 33.1131 54.0595 33.2664 54.0595 33.4502V37.3461H52.4095C51.8229 37.3461 51.346 37.8229 51.346 38.4096V40.8499C51.346 41.4359 51.824 41.9117 52.4095 41.9117H54.0595V43.1603C54.0595 43.5873 53.7082 43.9397 53.2814 43.9397H51.0101L50.9247 43.565C50.5278 41.8238 48.9697 40.5782 47.1805 40.5782C45.3913 40.5782 43.832 41.8237 43.4351 43.565L43.3497 43.9397H40.3002V24.1641Z" fill="#FF0000"/>
<path fill-rule="evenodd" clip-rule="evenodd" d="M47.1808 45.5665C47.8134 45.5665 48.3247 45.0535 48.3247 44.4215C48.3247 43.7878 47.8134 43.276 47.1808 43.276C47.0303 43.2758 46.8813 43.3053 46.7423 43.3629C46.6033 43.4204 46.4769 43.5048 46.3706 43.6112C46.2642 43.7176 46.1799 43.8439 46.1224 43.983C46.065 44.122 46.0355 44.271 46.0357 44.4215C46.0356 44.5719 46.0652 44.7208 46.1227 44.8598C46.1802 44.9987 46.2646 45.125 46.3709 45.2313C46.4773 45.3377 46.6035 45.422 46.7425 45.4795C46.8815 45.5371 47.0304 45.5666 47.1808 45.5665ZM24.0626 44.8597C24.1202 44.7208 24.1498 44.5719 24.1497 44.4215C24.1499 44.2711 24.1204 44.122 24.063 43.983C24.0055 43.844 23.9212 43.7176 23.8148 43.6112C23.7084 43.5048 23.5821 43.4204 23.4431 43.3629C23.3041 43.3054 23.1551 43.2758 23.0047 43.276C22.8542 43.2759 22.7052 43.3055 22.5662 43.363C22.4272 43.4205 22.3008 43.5049 22.1944 43.6113C22.088 43.7177 22.0037 43.844 21.9461 43.983C21.8885 44.122 21.859 44.271 21.859 44.4215C21.859 45.0535 22.3721 45.5665 23.0047 45.5665C23.1551 45.5666 23.304 45.537 23.4429 45.4795C23.5818 45.4219 23.7081 45.3376 23.8144 45.2312C23.9208 45.1249 24.0051 44.9987 24.0626 44.8597ZM43.3659 27.2289V31.8596H50.1653L48.1983 27.2289H43.3659ZM52.5804 32.9109C52.5656 33.0695 52.512 33.222 52.4242 33.3549C52.3363 33.4876 52.217 33.5964 52.0768 33.6717C51.9366 33.747 51.7799 33.7864 51.6208 33.7863H42.4021C42.2756 33.7863 42.1502 33.7614 42.0333 33.713C41.9164 33.6646 41.8101 33.5936 41.7207 33.5041C41.6312 33.4146 41.5602 33.3084 41.5118 33.1914C41.4633 33.0745 41.4384 32.9492 41.4384 32.8226V26.2653C41.4384 26.1388 41.4633 26.0135 41.5118 25.8965C41.5602 25.7796 41.6312 25.6734 41.7207 25.5839C41.8101 25.4944 41.9164 25.4234 42.0333 25.375C42.1502 25.3266 42.2756 25.3016 42.4021 25.3017H48.8354C49.0246 25.3016 49.2096 25.3571 49.3675 25.4615C49.5253 25.5658 49.649 25.7143 49.7231 25.8884L52.5086 32.4457C52.5704 32.5925 52.5951 32.7523 52.5804 32.9109ZM53.5783 40.4666V38.7916L52.7915 38.7915V40.4666H53.5783ZM53.5783 43.1604C53.5783 43.3219 53.4422 43.4579 53.2818 43.4579H51.3948C50.9566 41.5358 49.2339 40.0965 47.1808 40.0965C45.1277 40.0965 43.4038 41.5358 42.9657 43.4579H40.7822V24.6459H49.1052C49.6001 24.6459 50.0122 24.8903 50.1795 25.2842L53.5131 33.1321C53.5601 33.2456 53.5783 33.3323 53.5783 33.4502V36.8644H52.41C51.5575 36.8644 50.8647 37.5571 50.8647 38.4096V40.8499C50.8647 41.7007 51.5575 42.3935 52.41 42.3935H53.5783V43.1604ZM49.5775 44.4216C49.5775 45.7441 48.5021 46.8194 47.1808 46.8194C45.8583 46.8194 44.783 45.7441 44.783 44.4216C44.783 43.0992 45.8583 42.0239 47.1808 42.0239C48.5021 42.0239 49.5775 43.0992 49.5775 44.4216ZM27.2198 43.4579C26.7799 41.5358 25.0578 40.0965 23.0047 40.0965C20.951 40.0965 19.2288 41.5358 18.7895 43.4579H14.5454C14.1504 43.4579 13.829 43.1365 13.829 42.7403V32.13H38.8556V43.4579H27.2198ZM25.4024 44.4216C25.4024 45.7441 24.3266 46.8194 23.0047 46.8194C21.6821 46.8194 20.6069 45.7441 20.6069 44.4216C20.6069 43.0992 21.6822 42.0239 23.0047 42.0239C24.3265 42.0239 25.4024 43.0992 25.4024 44.4216ZM19 19.2516L21.6066 17.3242L38.139 17.3245C39.5963 17.3245 40.7822 18.5108 40.7822 19.9694V22.7184H49.1052C50.3863 22.7184 51.4775 23.4123 51.9537 24.5313L55.2856 32.3793C55.4353 32.7315 55.505 33.072 55.505 33.4502V43.1604C55.505 44.3865 54.508 45.3847 53.2819 45.3847H51.3949C50.9567 47.3069 49.234 48.7461 47.1809 48.7461C45.1278 48.7461 43.404 47.3069 42.9658 45.3847H27.2198C26.7799 47.3069 25.0578 48.7461 23.0047 48.7461C20.951 48.7461 19.2289 47.3069 18.7896 45.3847H14.5455C13.087 45.3847 11.9023 44.1988 11.9023 42.7403V24.6068H13.8779C13.8577 25.52 13.8408 26.3056 13.8333 26.7149H13.829V27.0003C13.829 26.963 13.8305 26.8639 13.8333 26.7149H38.8556V19.9694C38.8556 19.5742 38.5341 19.2517 38.139 19.2517L19 19.2516ZM13.829 30.2033H38.8554V28.6415H13.829V30.2033Z" fill="#B30000"/>
<g clip-path="url(#clip0_283_6774)">
<path opacity="0.3" d="M18.2784 11.5061L19.8534 9.93106L17.0683 7.14725L15.4933 8.72225C14.8612 8.34882 14.1797 8.06626 13.4688 7.88291V5.65625H9.53125V7.88291C8.82016 8.066 8.1384 8.34834 7.50606 8.72159L5.93106 7.14659L3.14725 9.93172L4.72225 11.5067C4.34882 12.1388 4.06626 12.8204 3.88291 13.5313H1.65625V17.4688H3.88291C4.066 18.1798 4.34834 18.8616 4.72159 19.4939L3.14659 21.0689L5.93106 23.8534L7.50606 22.2784C8.1384 22.6517 8.82016 22.934 9.53125 23.1171V25.3438H13.4688V23.1171C14.1798 22.934 14.8616 22.6517 15.4939 22.2784L17.0689 23.8534L19.8534 21.0689L18.2784 19.4939C18.6517 18.8616 18.934 18.1798 19.1171 17.4688H21.3438V13.5313H19.1171C18.934 12.8202 18.6517 12.1384 18.2784 11.5061ZM11.5 19.4375C10.7212 19.4375 9.95996 19.2066 9.31244 18.7739C8.66492 18.3413 8.16025 17.7263 7.86223 17.0068C7.56421 16.2873 7.48623 15.4956 7.63816 14.7318C7.79009 13.968 8.1651 13.2664 8.71577 12.7158C9.26644 12.1651 9.96803 11.7901 10.7318 11.6382C11.4956 11.4862 12.2873 11.5642 13.0068 11.8622C13.7263 12.1602 14.3413 12.6649 14.7739 13.3124C15.2066 13.96 15.4375 14.7212 15.4375 15.5C15.4375 16.5443 15.0227 17.5458 14.2842 18.2842C13.5458 19.0227 12.5443 19.4375 11.5 19.4375Z" fill="#FF0000"/>
<mask id="path-4-outside-1_283_6774" maskUnits="userSpaceOnUse" x="0" y="4" width="23" height="23" fill="black">
<rect fill="white" y="4" width="23" height="23"/>
<path d="M21.3438 12.875H19.6093C19.4703 12.444 19.2969 12.0248 19.0908 11.6216L20.3167 10.3957C20.4397 10.2726 20.5089 10.1057 20.5089 9.93172C20.5089 9.7577 20.4397 9.59082 20.3167 9.46775L17.5322 6.68328C17.4092 6.56025 17.2423 6.49114 17.0683 6.49114C16.8943 6.49114 16.7274 6.56025 16.6043 6.68328L15.3784 7.90916C14.9752 7.7031 14.556 7.52973 14.125 7.39072V5.65625C14.125 5.4822 14.0559 5.31528 13.9328 5.19221C13.8097 5.06914 13.6428 5 13.4688 5H9.53125C9.3572 5 9.19028 5.06914 9.06721 5.19221C8.94414 5.31528 8.875 5.4822 8.875 5.65625V7.39072C8.44378 7.5294 8.02457 7.70301 7.62156 7.90981L6.39569 6.68328C6.27262 6.56025 6.10573 6.49114 5.93172 6.49114C5.7577 6.49114 5.59082 6.56025 5.46775 6.68328L2.68328 9.46775C2.56025 9.59082 2.49114 9.7577 2.49114 9.93172C2.49114 10.1057 2.56025 10.2726 2.68328 10.3957L3.90916 11.6216C3.7031 12.0248 3.52973 12.444 3.39072 12.875H1.65625C1.4822 12.875 1.31528 12.9441 1.19221 13.0672C1.06914 13.1903 1 13.3572 1 13.5312L1 17.4688C1 17.6428 1.06914 17.8097 1.19221 17.9328C1.31528 18.0559 1.4822 18.125 1.65625 18.125H3.39072C3.52973 18.556 3.7031 18.9752 3.90916 19.3784L2.68328 20.6043C2.56025 20.7274 2.49114 20.8943 2.49114 21.0683C2.49114 21.2423 2.56025 21.4092 2.68328 21.5322L5.46775 24.3167C5.59082 24.4397 5.7577 24.5089 5.93172 24.5089C6.10573 24.5089 6.27262 24.4397 6.39569 24.3167L7.62156 23.0902C8.02457 23.297 8.44378 23.4706 8.875 23.6093V25.3438C8.875 25.5178 8.94414 25.6847 9.06721 25.8078C9.19028 25.9309 9.3572 26 9.53125 26H13.4688C13.6428 26 13.8097 25.9309 13.9328 25.8078C14.0559 25.6847 14.125 25.5178 14.125 25.3438V23.6093C14.556 23.4703 14.9752 23.2969 15.3784 23.0908L16.6043 24.3167C16.7274 24.4397 16.8943 24.5089 17.0683 24.5089C17.2423 24.5089 17.4092 24.4397 17.5322 24.3167L20.3167 21.5322C20.4397 21.4092 20.5089 21.2423 20.5089 21.0683C20.5089 20.8943 20.4397 20.7274 20.3167 20.6043L19.0908 19.3784C19.2969 18.9752 19.4703 18.556 19.6093 18.125H21.3438C21.5178 18.125 21.6847 18.0559 21.8078 17.9328C21.9309 17.8097 22 17.6428 22 17.4688V13.5312C22 13.3572 21.9309 13.1903 21.8078 13.0672C21.6847 12.9441 21.5178 12.875 21.3438 12.875ZM20.6875 16.8125H19.1164C18.971 16.8125 18.8297 16.8609 18.7147 16.95C18.5997 17.0391 18.5176 17.1638 18.4812 17.3047C18.3136 17.9561 18.0551 18.5806 17.7134 19.1599C17.6393 19.2853 17.609 19.4317 17.6273 19.5762C17.6456 19.7207 17.7114 19.855 17.8144 19.9579L18.9242 21.0683L17.0683 22.9242L15.9579 21.8144C15.8546 21.712 15.7204 21.6466 15.5761 21.6283C15.4318 21.6101 15.2855 21.64 15.1599 21.7134C14.5806 22.0551 13.9561 22.3136 13.3047 22.4812C13.1638 22.5176 13.0391 22.5997 12.95 22.7147C12.8609 22.8297 12.8125 22.971 12.8125 23.1164V24.6875H10.1875V23.1164C10.1875 22.971 10.1391 22.8297 10.05 22.7147C9.96092 22.5997 9.83615 22.5176 9.69531 22.4812C9.04376 22.3135 8.41903 22.055 7.83944 21.7134C7.71413 21.6395 7.56781 21.6093 7.42348 21.6276C7.27915 21.6459 7.145 21.7116 7.04209 21.8144L5.93172 22.9242L4.07519 21.0683L5.18556 19.9579C5.28856 19.855 5.35439 19.7207 5.37269 19.5762C5.39098 19.4317 5.36071 19.2853 5.28663 19.1599C4.94488 18.5806 4.6864 17.9561 4.51881 17.3047C4.48245 17.1638 4.40032 17.0391 4.28533 16.95C4.17035 16.8609 4.02902 16.8125 3.88356 16.8125H2.3125V14.1875H3.88356C4.02902 14.1875 4.17035 14.1391 4.28533 14.05C4.40032 13.9609 4.48245 13.8362 4.51881 13.6953C4.6864 13.0439 4.94488 12.4194 5.28663 11.8401C5.36071 11.7147 5.39098 11.5683 5.37269 11.4238C5.35439 11.2793 5.28856 11.145 5.18556 11.0421L4.07519 9.93172L5.93172 8.07584L7.04209 9.18556C7.145 9.28841 7.27915 9.35414 7.42348 9.37244C7.56781 9.39073 7.71413 9.36054 7.83944 9.28663C8.41903 8.94499 9.04376 8.68652 9.69531 8.51881C9.83615 8.48245 9.96092 8.40032 10.05 8.28533C10.1391 8.17035 10.1875 8.02902 10.1875 7.88356V6.3125H12.8125V7.88356C12.8125 8.02902 12.8609 8.17035 12.95 8.28533C13.0391 8.40032 13.1638 8.48245 13.3047 8.51881C13.9561 8.6864 14.5806 8.94488 15.1599 9.28663C15.2853 9.36071 15.4317 9.39098 15.5762 9.37269C15.7207 9.35439 15.855 9.28856 15.9579 9.18556L17.0683 8.07584L18.9242 9.93172L17.8144 11.0421C17.7114 11.145 17.6456 11.2793 17.6273 11.4238C17.609 11.5683 17.6393 11.7147 17.7134 11.8401C18.0551 12.4194 18.3136 13.0439 18.4812 13.6953C18.5176 13.8362 18.5997 13.9609 18.7147 14.05C18.8297 14.1391 18.971 14.1875 19.1164 14.1875H20.6875V16.8125Z"/>
</mask>
<path d="M21.3438 12.875H19.6093C19.4703 12.444 19.2969 12.0248 19.0908 11.6216L20.3167 10.3957C20.4397 10.2726 20.5089 10.1057 20.5089 9.93172C20.5089 9.7577 20.4397 9.59082 20.3167 9.46775L17.5322 6.68328C17.4092 6.56025 17.2423 6.49114 17.0683 6.49114C16.8943 6.49114 16.7274 6.56025 16.6043 6.68328L15.3784 7.90916C14.9752 7.7031 14.556 7.52973 14.125 7.39072V5.65625C14.125 5.4822 14.0559 5.31528 13.9328 5.19221C13.8097 5.06914 13.6428 5 13.4688 5H9.53125C9.3572 5 9.19028 5.06914 9.06721 5.19221C8.94414 5.31528 8.875 5.4822 8.875 5.65625V7.39072C8.44378 7.5294 8.02457 7.70301 7.62156 7.90981L6.39569 6.68328C6.27262 6.56025 6.10573 6.49114 5.93172 6.49114C5.7577 6.49114 5.59082 6.56025 5.46775 6.68328L2.68328 9.46775C2.56025 9.59082 2.49114 9.7577 2.49114 9.93172C2.49114 10.1057 2.56025 10.2726 2.68328 10.3957L3.90916 11.6216C3.7031 12.0248 3.52973 12.444 3.39072 12.875H1.65625C1.4822 12.875 1.31528 12.9441 1.19221 13.0672C1.06914 13.1903 1 13.3572 1 13.5312L1 17.4688C1 17.6428 1.06914 17.8097 1.19221 17.9328C1.31528 18.0559 1.4822 18.125 1.65625 18.125H3.39072C3.52973 18.556 3.7031 18.9752 3.90916 19.3784L2.68328 20.6043C2.56025 20.7274 2.49114 20.8943 2.49114 21.0683C2.49114 21.2423 2.56025 21.4092 2.68328 21.5322L5.46775 24.3167C5.59082 24.4397 5.7577 24.5089 5.93172 24.5089C6.10573 24.5089 6.27262 24.4397 6.39569 24.3167L7.62156 23.0902C8.02457 23.297 8.44378 23.4706 8.875 23.6093V25.3438C8.875 25.5178 8.94414 25.6847 9.06721 25.8078C9.19028 25.9309 9.3572 26 9.53125 26H13.4688C13.6428 26 13.8097 25.9309 13.9328 25.8078C14.0559 25.6847 14.125 25.5178 14.125 25.3438V23.6093C14.556 23.4703 14.9752 23.2969 15.3784 23.0908L16.6043 24.3167C16.7274 24.4397 16.8943 24.5089 17.0683 24.5089C17.2423 24.5089 17.4092 24.4397 17.5322 24.3167L20.3167 21.5322C20.4397 21.4092 20.5089 21.2423 20.5089 21.0683C20.5089 20.8943 20.4397 20.7274 20.3167 20.6043L19.0908 19.3784C19.2969 18.9752 19.4703 18.556 19.6093 18.125H21.3438C21.5178 18.125 21.6847 18.0559 21.8078 17.9328C21.9309 17.8097 22 17.6428 22 17.4688V13.5312C22 13.3572 21.9309 13.1903 21.8078 13.0672C21.6847 12.9441 21.5178 12.875 21.3438 12.875ZM20.6875 16.8125H19.1164C18.971 16.8125 18.8297 16.8609 18.7147 16.95C18.5997 17.0391 18.5176 17.1638 18.4812 17.3047C18.3136 17.9561 18.0551 18.5806 17.7134 19.1599C17.6393 19.2853 17.609 19.4317 17.6273 19.5762C17.6456 19.7207 17.7114 19.855 17.8144 19.9579L18.9242 21.0683L17.0683 22.9242L15.9579 21.8144C15.8546 21.712 15.7204 21.6466 15.5761 21.6283C15.4318 21.6101 15.2855 21.64 15.1599 21.7134C14.5806 22.0551 13.9561 22.3136 13.3047 22.4812C13.1638 22.5176 13.0391 22.5997 12.95 22.7147C12.8609 22.8297 12.8125 22.971 12.8125 23.1164V24.6875H10.1875V23.1164C10.1875 22.971 10.1391 22.8297 10.05 22.7147C9.96092 22.5997 9.83615 22.5176 9.69531 22.4812C9.04376 22.3135 8.41903 22.055 7.83944 21.7134C7.71413 21.6395 7.56781 21.6093 7.42348 21.6276C7.27915 21.6459 7.145 21.7116 7.04209 21.8144L5.93172 22.9242L4.07519 21.0683L5.18556 19.9579C5.28856 19.855 5.35439 19.7207 5.37269 19.5762C5.39098 19.4317 5.36071 19.2853 5.28663 19.1599C4.94488 18.5806 4.6864 17.9561 4.51881 17.3047C4.48245 17.1638 4.40032 17.0391 4.28533 16.95C4.17035 16.8609 4.02902 16.8125 3.88356 16.8125H2.3125V14.1875H3.88356C4.02902 14.1875 4.17035 14.1391 4.28533 14.05C4.40032 13.9609 4.48245 13.8362 4.51881 13.6953C4.6864 13.0439 4.94488 12.4194 5.28663 11.8401C5.36071 11.7147 5.39098 11.5683 5.37269 11.4238C5.35439 11.2793 5.28856 11.145 5.18556 11.0421L4.07519 9.93172L5.93172 8.07584L7.04209 9.18556C7.145 9.28841 7.27915 9.35414 7.42348 9.37244C7.56781 9.39073 7.71413 9.36054 7.83944 9.28663C8.41903 8.94499 9.04376 8.68652 9.69531 8.51881C9.83615 8.48245 9.96092 8.40032 10.05 8.28533C10.1391 8.17035 10.1875 8.02902 10.1875 7.88356V6.3125H12.8125V7.88356C12.8125 8.02902 12.8609 8.17035 12.95 8.28533C13.0391 8.40032 13.1638 8.48245 13.3047 8.51881C13.9561 8.6864 14.5806 8.94488 15.1599 9.28663C15.2853 9.36071 15.4317 9.39098 15.5762 9.37269C15.7207 9.35439 15.855 9.28856 15.9579 9.18556L17.0683 8.07584L18.9242 9.93172L17.8144 11.0421C17.7114 11.145 17.6456 11.2793 17.6273 11.4238C17.609 11.5683 17.6393 11.7147 17.7134 11.8401C18.0551 12.4194 18.3136 13.0439 18.4812 13.6953C18.5176 13.8362 18.5997 13.9609 18.7147 14.05C18.8297 14.1391 18.971 14.1875 19.1164 14.1875H20.6875V16.8125Z" fill="#B30000"/>
<path d="M21.3438 12.875H19.6093C19.4703 12.444 19.2969 12.0248 19.0908 11.6216L20.3167 10.3957C20.4397 10.2726 20.5089 10.1057 20.5089 9.93172C20.5089 9.7577 20.4397 9.59082 20.3167 9.46775L17.5322 6.68328C17.4092 6.56025 17.2423 6.49114 17.0683 6.49114C16.8943 6.49114 16.7274 6.56025 16.6043 6.68328L15.3784 7.90916C14.9752 7.7031 14.556 7.52973 14.125 7.39072V5.65625C14.125 5.4822 14.0559 5.31528 13.9328 5.19221C13.8097 5.06914 13.6428 5 13.4688 5H9.53125C9.3572 5 9.19028 5.06914 9.06721 5.19221C8.94414 5.31528 8.875 5.4822 8.875 5.65625V7.39072C8.44378 7.5294 8.02457 7.70301 7.62156 7.90981L6.39569 6.68328C6.27262 6.56025 6.10573 6.49114 5.93172 6.49114C5.7577 6.49114 5.59082 6.56025 5.46775 6.68328L2.68328 9.46775C2.56025 9.59082 2.49114 9.7577 2.49114 9.93172C2.49114 10.1057 2.56025 10.2726 2.68328 10.3957L3.90916 11.6216C3.7031 12.0248 3.52973 12.444 3.39072 12.875H1.65625C1.4822 12.875 1.31528 12.9441 1.19221 13.0672C1.06914 13.1903 1 13.3572 1 13.5312L1 17.4688C1 17.6428 1.06914 17.8097 1.19221 17.9328C1.31528 18.0559 1.4822 18.125 1.65625 18.125H3.39072C3.52973 18.556 3.7031 18.9752 3.90916 19.3784L2.68328 20.6043C2.56025 20.7274 2.49114 20.8943 2.49114 21.0683C2.49114 21.2423 2.56025 21.4092 2.68328 21.5322L5.46775 24.3167C5.59082 24.4397 5.7577 24.5089 5.93172 24.5089C6.10573 24.5089 6.27262 24.4397 6.39569 24.3167L7.62156 23.0902C8.02457 23.297 8.44378 23.4706 8.875 23.6093V25.3438C8.875 25.5178 8.94414 25.6847 9.06721 25.8078C9.19028 25.9309 9.3572 26 9.53125 26H13.4688C13.6428 26 13.8097 25.9309 13.9328 25.8078C14.0559 25.6847 14.125 25.5178 14.125 25.3438V23.6093C14.556 23.4703 14.9752 23.2969 15.3784 23.0908L16.6043 24.3167C16.7274 24.4397 16.8943 24.5089 17.0683 24.5089C17.2423 24.5089 17.4092 24.4397 17.5322 24.3167L20.3167 21.5322C20.4397 21.4092 20.5089 21.2423 20.5089 21.0683C20.5089 20.8943 20.4397 20.7274 20.3167 20.6043L19.0908 19.3784C19.2969 18.9752 19.4703 18.556 19.6093 18.125H21.3438C21.5178 18.125 21.6847 18.0559 21.8078 17.9328C21.9309 17.8097 22 17.6428 22 17.4688V13.5312C22 13.3572 21.9309 13.1903 21.8078 13.0672C21.6847 12.9441 21.5178 12.875 21.3438 12.875ZM20.6875 16.8125H19.1164C18.971 16.8125 18.8297 16.8609 18.7147 16.95C18.5997 17.0391 18.5176 17.1638 18.4812 17.3047C18.3136 17.9561 18.0551 18.5806 17.7134 19.1599C17.6393 19.2853 17.609 19.4317 17.6273 19.5762C17.6456 19.7207 17.7114 19.855 17.8144 19.9579L18.9242 21.0683L17.0683 22.9242L15.9579 21.8144C15.8546 21.712 15.7204 21.6466 15.5761 21.6283C15.4318 21.6101 15.2855 21.64 15.1599 21.7134C14.5806 22.0551 13.9561 22.3136 13.3047 22.4812C13.1638 22.5176 13.0391 22.5997 12.95 22.7147C12.8609 22.8297 12.8125 22.971 12.8125 23.1164V24.6875H10.1875V23.1164C10.1875 22.971 10.1391 22.8297 10.05 22.7147C9.96092 22.5997 9.83615 22.5176 9.69531 22.4812C9.04376 22.3135 8.41903 22.055 7.83944 21.7134C7.71413 21.6395 7.56781 21.6093 7.42348 21.6276C7.27915 21.6459 7.145 21.7116 7.04209 21.8144L5.93172 22.9242L4.07519 21.0683L5.18556 19.9579C5.28856 19.855 5.35439 19.7207 5.37269 19.5762C5.39098 19.4317 5.36071 19.2853 5.28663 19.1599C4.94488 18.5806 4.6864 17.9561 4.51881 17.3047C4.48245 17.1638 4.40032 17.0391 4.28533 16.95C4.17035 16.8609 4.02902 16.8125 3.88356 16.8125H2.3125V14.1875H3.88356C4.02902 14.1875 4.17035 14.1391 4.28533 14.05C4.40032 13.9609 4.48245 13.8362 4.51881 13.6953C4.6864 13.0439 4.94488 12.4194 5.28663 11.8401C5.36071 11.7147 5.39098 11.5683 5.37269 11.4238C5.35439 11.2793 5.28856 11.145 5.18556 11.0421L4.07519 9.93172L5.93172 8.07584L7.04209 9.18556C7.145 9.28841 7.27915 9.35414 7.42348 9.37244C7.56781 9.39073 7.71413 9.36054 7.83944 9.28663C8.41903 8.94499 9.04376 8.68652 9.69531 8.51881C9.83615 8.48245 9.96092 8.40032 10.05 8.28533C10.1391 8.17035 10.1875 8.02902 10.1875 7.88356V6.3125H12.8125V7.88356C12.8125 8.02902 12.8609 8.17035 12.95 8.28533C13.0391 8.40032 13.1638 8.48245 13.3047 8.51881C13.9561 8.6864 14.5806 8.94488 15.1599 9.28663C15.2853 9.36071 15.4317 9.39098 15.5762 9.37269C15.7207 9.35439 15.855 9.28856 15.9579 9.18556L17.0683 8.07584L18.9242 9.93172L17.8144 11.0421C17.7114 11.145 17.6456 11.2793 17.6273 11.4238C17.609 11.5683 17.6393 11.7147 17.7134 11.8401C18.0551 12.4194 18.3136 13.0439 18.4812 13.6953C18.5176 13.8362 18.5997 13.9609 18.7147 14.05C18.8297 14.1391 18.971 14.1875 19.1164 14.1875H20.6875V16.8125Z" stroke="#004498" stroke-width="0.4" mask="url(#path-4-outside-1_283_6774)"/>
<path d="M11.5001 10.8062H11.5C10.5717 10.8062 9.66418 11.0815 8.89229 11.5973C8.12041 12.113 7.5188 12.8461 7.16354 13.7038C6.80828 14.5614 6.71533 15.5052 6.89644 16.4157C7.07755 17.3262 7.52459 18.1625 8.18102 18.819C8.83745 19.4754 9.6738 19.9225 10.5843 20.1036C11.4948 20.2847 12.4386 20.1917 13.2962 19.8365C14.1539 19.4812 14.887 18.8796 15.4027 18.1077C15.9185 17.3358 16.1938 16.4283 16.1938 15.5V15.4999C16.1923 14.2555 15.6974 13.0625 14.8174 12.1826C13.9375 11.3026 12.7445 10.8077 11.5001 10.8062ZM11.4999 18.6812C10.8707 18.6812 10.2557 18.4947 9.73259 18.1451C9.20944 17.7956 8.80169 17.2987 8.56091 16.7174C8.32013 16.1361 8.25713 15.4965 8.37988 14.8794C8.50263 14.2623 8.80561 13.6954 9.25052 13.2505C9.69542 12.8056 10.2623 12.5026 10.8794 12.3799C11.4965 12.2571 12.1361 12.3201 12.7174 12.5609C13.2987 12.8017 13.7956 13.2094 14.1451 13.7326C14.4947 14.2557 14.6812 14.8707 14.6813 15.4999C14.6802 16.3433 14.3447 17.1519 13.7483 17.7483C13.1519 18.3447 12.3433 18.6802 11.4999 18.6812Z" fill="#B30000" stroke="#004498" stroke-width="0.2"/>
</g>
<defs>
<clipPath id="clip0_283_6774">
<rect width="21" height="21" fill="white" transform="translate(1 5)"/>
</clipPath>
</defs>
</svg>
