<svg width="32" height="32" viewBox="0 0 32 32" fill="none" xmlns="http://www.w3.org/2000/svg">
<path d="M16.0013 29.3346C23.3651 29.3346 29.3346 23.3651 29.3346 16.0013C29.3346 8.63751 23.3651 2.66797 16.0013 2.66797C8.63751 2.66797 2.66797 8.63751 2.66797 16.0013C2.66797 23.3651 8.63751 29.3346 16.0013 29.3346Z" stroke="#144494" stroke-width="2.2" stroke-linecap="round" stroke-linejoin="round"/>
<path d="M12.668 11.9551C12.668 11.3187 12.668 11.0005 12.801 10.8229C12.9169 10.6681 13.0943 10.5712 13.2871 10.5574C13.5085 10.5416 13.7761 10.7137 14.3114 11.0578L20.6056 15.104C21.0701 15.4027 21.3023 15.552 21.3826 15.7418C21.4527 15.9077 21.4527 16.0949 21.3826 16.2608C21.3023 16.4506 21.0701 16.5999 20.6056 16.8986L14.3114 20.9448C13.7761 21.2889 13.5085 21.461 13.2871 21.4452C13.0943 21.4314 12.9169 21.3345 12.801 21.1797C12.668 21.0021 12.668 20.6839 12.668 20.0475V11.9551Z" stroke="#144494" stroke-width="2.2" stroke-linecap="round" stroke-linejoin="round"/>
</svg>
