<svg width="32" height="32" viewBox="0 0 32 32" fill="none" xmlns="http://www.w3.org/2000/svg">
<path d="M5.33203 28L5.33203 5.33333M5.33203 17.3333H15.1987C15.9454 17.3333 16.3188 17.3333 16.604 17.188C16.8549 17.0602 17.0589 16.8562 17.1867 16.6053C17.332 16.3201 17.332 15.9467 17.332 15.2V6.13333C17.332 5.3866 17.332 5.01323 17.1867 4.72801C17.0589 4.47713 16.8549 4.27316 16.604 4.14532C16.3188 4 15.9454 4 15.1987 4H7.46536C6.71863 4 6.34526 4 6.06004 4.14532C5.80916 4.27316 5.60519 4.47713 5.47736 4.72801C5.33203 5.01323 5.33203 5.3866 5.33203 6.13333V17.3333ZM17.332 6.66667H25.8654C26.6121 6.66667 26.9855 6.66667 27.2707 6.81199C27.5216 6.93982 27.7255 7.1438 27.8534 7.39468C27.9987 7.6799 27.9987 8.05326 27.9987 8.8V17.8667C27.9987 18.6134 27.9987 18.9868 27.8534 19.272C27.7255 19.5229 27.5216 19.7268 27.2707 19.8547C26.9855 20 26.6121 20 25.8654 20H19.4654C18.7186 20 18.3453 20 18.06 19.8547C17.8092 19.7268 17.6052 19.5229 17.4774 19.272C17.332 18.9868 17.332 18.6134 17.332 17.8667V6.66667Z" stroke="#144494" stroke-width="2.2" stroke-linecap="round" stroke-linejoin="round"/>
</svg>
