<svg width="32" height="32" viewBox="0 0 32 32" fill="none" xmlns="http://www.w3.org/2000/svg">
<path d="M26.6654 25.3346V21.3346H9.33203C7.12289 21.3346 5.33203 23.1255 5.33203 25.3346M11.732 29.3346H22.3987C23.8922 29.3346 24.6389 29.3346 25.2093 29.044C25.7111 28.7883 26.1191 28.3804 26.3747 27.8786C26.6654 27.3082 26.6654 26.5614 26.6654 25.068V6.93464C26.6654 5.44116 26.6654 4.69443 26.3747 4.12399C26.1191 3.62223 25.7111 3.21428 25.2093 2.95862C24.6389 2.66797 23.8922 2.66797 22.3987 2.66797H11.732C9.49182 2.66797 8.37172 2.66797 7.51607 3.10394C6.76342 3.48744 6.1515 4.09936 5.76801 4.85201C5.33203 5.70765 5.33203 6.82776 5.33203 9.06797V22.9346C5.33203 25.1748 5.33203 26.295 5.76801 27.1506C6.1515 27.9032 6.76342 28.5152 7.51607 28.8987C8.37172 29.3346 9.49182 29.3346 11.732 29.3346Z" stroke="#144494" stroke-width="2.2" stroke-linecap="round" stroke-linejoin="round"/>
</svg>
