<svg width="32" height="32" viewBox="0 0 32 32" fill="none" xmlns="http://www.w3.org/2000/svg">
<path d="M6.0013 29.3346V22.668M6.0013 9.33464V2.66797M2.66797 6.0013H9.33464M2.66797 26.0013H9.33464M17.3346 4.0013L15.0224 10.0131C14.6464 10.9908 14.4584 11.4796 14.166 11.8907C13.9069 12.2552 13.5885 12.5736 13.2241 12.8327C12.8129 13.125 12.3241 13.313 11.3464 13.6891L5.33464 16.0013L11.3465 18.3135C12.3241 18.6896 12.8129 18.8776 13.2241 19.1699C13.5885 19.429 13.9069 19.7474 14.166 20.1119C14.4584 20.523 14.6464 21.0118 15.0224 21.9895L17.3346 28.0013L19.6469 21.9895C20.0229 21.0118 20.2109 20.523 20.5033 20.1119C20.7624 19.7474 21.0808 19.429 21.4452 19.1699C21.8564 18.8776 22.3452 18.6896 23.3228 18.3135L29.3346 16.0013L23.3228 13.6891C22.3452 13.313 21.8564 13.125 21.4452 12.8327C21.0808 12.5736 20.7624 12.2552 20.5033 11.8907C20.2109 11.4796 20.0229 10.9908 19.6469 10.0131L17.3346 4.0013Z" stroke="#144494" stroke-width="2.2" stroke-linecap="round" stroke-linejoin="round"/>
</svg>
