<svg width="225" height="236" viewBox="0 0 225 236" fill="none" xmlns="http://www.w3.org/2000/svg">
    <path d="M100.318 223.022a3.577 3.577 0 0 1-5.025.469l-83.711-69.789a3.619 3.619 0 0 1-.466-5.05l98.168-118.888a3.576 3.576 0 0 1 5.024-.469l83.712 69.818a3.618 3.618 0 0 1 .467 5.05l-98.169 118.859z" fill="#A6C9F3"/>
    <path d="M115.652 204.336a3.589 3.589 0 0 1-4.867 1.327L16.29 151.785a3.587 3.587 0 0 1-1.328-4.865L91.15 13.48a3.59 3.59 0 0 1 4.867-1.328l94.495 53.879a3.586 3.586 0 0 1 1.328 4.857l-76.189 133.448z" fill="#D3E7FF"/>
    <path d="m91.665 29.136 81.906 46.853a.357.357 0 0 0 .392-.028.352.352 0 0 0 .063-.497.354.354 0 0 0-.105-.09L92.015 28.512a.356.356 0 0 0-.504.408.358.358 0 0 0 .154.215z" fill="url(#pzdrmvzjva)"/>
    <path d="m86.087 36.142 52.478 30.051a.356.356 0 0 0 .492-.13.372.372 0 0 0-.138-.493L86.441 35.517a.36.36 0 0 0-.463.533c.03.038.067.069.109.091z" fill="url(#2n3giqg2mb)"/>
    <path d="M142.46 67.7a.364.364 0 0 0-.556.264.355.355 0 0 0 .015.145.35.35 0 0 0 .185.217l25.857 14.653a.359.359 0 1 0 .363-.62L142.46 67.7z" fill="url(#ogpz6ju6kc)"/>
    <path d="m83.28 43.133 72.095 41.246a.336.336 0 0 0 .266.038.341.341 0 0 0 .211-.166.358.358 0 0 0 .038-.27.354.354 0 0 0-.167-.215L83.637 42.511a.359.359 0 0 0-.396.027.358.358 0 0 0 .04.594z" fill="url(#m4n6axktjd)"/>
    <path d="m79.09 48.693 60.882 34.282a.36.36 0 0 0 .486-.1.36.36 0 0 0-.137-.487L79.439 48.106a.363.363 0 0 0-.49.133.35.35 0 0 0 .135.483l.007-.029z" fill="url(#zeou0bz37e)"/>
    <path d="m76.268 55.717 74.9 42.653a.362.362 0 0 0 .396-.028.353.353 0 0 0 .125-.376.36.36 0 0 0-.168-.215l-74.9-42.66a.361.361 0 0 0-.509.41.36.36 0 0 0 .156.216z" fill="url(#9at2mjuhbf)"/>
    <path d="m72.084 62.714 62.281 35.654a.351.351 0 0 0 .487-.137.34.34 0 0 0 .039-.268.348.348 0 0 0-.168-.213L72.436 62.094a.358.358 0 0 0-.488.13.36.36 0 0 0 .136.489z" fill="url(#ops08beilg)"/>
    <path d="m69.283 68.323 69.264 39.828a.359.359 0 0 0 .508-.128.356.356 0 0 0 .03-.285.353.353 0 0 0-.184-.219L69.643 67.691a.36.36 0 0 0-.493.134.367.367 0 0 0 .133.498z" fill="url(#ukg6ssi3wh)"/>
    <path d="m65.091 75.318 55.265 32.832a.346.346 0 0 0 .499-.129.39.39 0 0 0 .03-.29.355.355 0 0 0-.182-.221L65.424 74.684a.338.338 0 0 0-.266-.034.352.352 0 0 0-.212.17.378.378 0 0 0-.033.278.363.363 0 0 0 .164.22h.014z" fill="url(#c9ovnpnvbi)"/>
    <path d="M125.612 108.24a.362.362 0 0 0-.259-.015.366.366 0 0 0-.244.424.367.367 0 0 0 .141.22l13.317 7.684a.343.343 0 0 0 .271.035.36.36 0 0 0 .251-.445.383.383 0 0 0-.063-.126.344.344 0 0 0-.105-.092l-13.309-7.685z" fill="url(#dystcch0yj)"/>
    <path d="m62.268 80.902 79.061 45.421a.358.358 0 0 0 .57-.254.346.346 0 0 0-.015-.15.368.368 0 0 0-.195-.221L62.622 80.269a.359.359 0 0 0-.474.148.366.366 0 0 0 .12.485z" fill="url(#35qvajn6fk)"/>
    <path d="m138.903 134.107-81.872-46.83a.349.349 0 0 0-.516.4c.026.09.085.168.166.215l81.872 46.838a.35.35 0 0 0 .408-.017.367.367 0 0 0 .139-.247.37.37 0 0 0-.083-.27.378.378 0 0 0-.114-.089z" fill="url(#us8popbwrl)"/>
    <path d="m53.879 94.888 52.487 30.055a.353.353 0 0 0 .522-.405.37.37 0 0 0-.168-.219L54.24 94.264a.368.368 0 0 0-.536.27.357.357 0 0 0 .175.354z" fill="url(#gr3rx76bbm)"/>
    <path d="m134.718 139.706-25.894-14.675a.363.363 0 0 0-.477.147.358.358 0 0 0 .122.48l25.886 14.675a.367.367 0 0 0 .497-.133.362.362 0 0 0-.134-.494z" fill="url(#8vmuc0dvpn)"/>
    <path d="m49.649 100.461 72.126 41.269c.039.024.083.04.129.046a.334.334 0 0 0 .259-.07.322.322 0 0 0 .089-.105.344.344 0 0 0-.023-.394.352.352 0 0 0-.105-.091l-72.12-41.269a.355.355 0 0 0-.494.399.355.355 0 0 0 .139.215z" fill="url(#vwwqq6gsho)"/>
    <path d="m46.882 107.471 60.861 34.253a.372.372 0 0 0 .283.045.358.358 0 0 0 .228-.172.336.336 0 0 0 .045-.137.37.37 0 0 0-.014-.144.366.366 0 0 0-.186-.215l-60.861-34.245a.36.36 0 0 0-.49.132.35.35 0 0 0 .134.483z" fill="url(#v4vblw70zp)"/>
    <path d="m42.701 113.087 74.866 42.634a.361.361 0 0 0 .271.034.345.345 0 0 0 .215-.167.361.361 0 0 0 .034-.27.349.349 0 0 0-.167-.216l-74.866-42.641a.37.37 0 0 0-.136-.052.374.374 0 0 0-.276.069.361.361 0 0 0 .059.609z" fill="url(#lwc8gt83iq)"/>
    <path d="m39.883 120.063 62.312 35.673a.36.36 0 0 0 .458-.147.36.36 0 0 0-.1-.472l-62.319-35.673a.358.358 0 0 0-.52.407.356.356 0 0 0 .169.212z" fill="url(#03eyg4131r)"/>
    <path d="m35.694 127.1 69.27 39.814a.365.365 0 0 0 .534-.271.382.382 0 0 0-.011-.139.368.368 0 0 0-.17-.215l-69.262-39.85a.358.358 0 0 0-.49.138.36.36 0 0 0 .012.428c.032.04.072.072.117.095z" fill="url(#pbnk87gtqs)"/>
    <path d="m31.478 132.673 55.299 32.835a.34.34 0 0 0 .267.04.346.346 0 0 0 .214-.173.388.388 0 0 0-.134-.501l-55.3-32.834a.332.332 0 0 0-.264-.04.338.338 0 0 0-.21.172.379.379 0 0 0-.038.279.37.37 0 0 0 .166.222z" fill="url(#ltz4x5jnit)"/>
    <path d="M92.038 167.002a.365.365 0 0 0-.526.411.36.36 0 0 0 .165.217l13.289 7.673a.352.352 0 0 0 .487-.135.364.364 0 0 0-.133-.492l-13.282-7.674z" fill="url(#o0fdgmnv6u)"/>
    <path d="m106.724 184.467-79.068-45.428a.353.353 0 0 0-.281-.046.358.358 0 0 0-.271.314.368.368 0 0 0 .084.274c.032.038.07.068.115.09l79.06 45.421a.366.366 0 0 0 .273.039.356.356 0 0 0 .218-.17.362.362 0 0 0-.13-.494z" fill="url(#81qdimdg0v)"/>
    <path d="M117.215 91.595a4.06 4.06 0 0 1-2.121 2.267 4.016 4.016 0 0 1-3.091.094L66.108 76.378a4.054 4.054 0 0 1-2.252-2.135 4.095 4.095 0 0 1-.094-3.112L82.59 21.304a4.058 4.058 0 0 1 2.121-2.263 4.017 4.017 0 0 1 3.09-.091l45.896 17.578a4.03 4.03 0 0 1 2.249 2.135c.218.487.337 1.013.352 1.547a4.074 4.074 0 0 1-.263 1.565l-18.82 49.82z" fill="#7CB7FF"/>
    <path d="M116.082 16.94c-2.711-1.551-6.507-1.559-8.842 1.13l2.313 1.319c1.446-1.268 3.616-1.145 5.257-.203a4.212 4.212 0 0 1 1.562 5.724l-7.99 14.029c-1.034 1.811-3.037 3.094-5.198 1.862a4.216 4.216 0 0 1-1.562-5.732l3.564-6.253a1.295 1.295 0 0 0-.481-1.764 1.286 1.286 0 0 0-1.76.481l-3.557 6.261a6.803 6.803 0 0 0-.648 5.15 6.787 6.787 0 0 0 3.171 4.103c3.102 1.769 6.768.587 8.712-2.825l7.983-14.008a6.819 6.819 0 0 0 .655-5.16 6.805 6.805 0 0 0-3.179-4.115z" fill="#7CB7FF"/>
    <path d="M107.428 134.076c-1.505-2.13 10.766-16.83 14.403-19.294l83.132-57.763C208.599 54.562 217.63 67.543 214 70l-83.139 57.763c-3.636 2.457-21.928 8.472-23.433 6.313z" fill="#C6E0FF"/>
    <path d="M122.301 114.513c.301 2.281 1.53 4.874 3.289 7.467 1.76 2.594 3.713 4.686 5.703 5.812.094-.054.185-.112.273-.175l73.335-50.892a14.274 14.274 0 0 0-2.455-8.06 14.022 14.022 0 0 0-6.552-5.219l-73.335 50.871c-.079.058-.172.123-.258.196z" fill="#7CB7FF"/>
    <path d="M108.475 129.548c-1.511 2.423-2.329 4.338-1.828 5.061.501.723 2.605.657 5.451.131a5.29 5.29 0 0 0-.954-3.175 5.432 5.432 0 0 0-2.669-2.017z" fill="url(#ie5i3mz2tw)"/>
    <path d="M202.101 68.68a13.254 13.254 0 0 0-6.522-5.234l-73.021 51.061c-.078.059-.171.124-.257.197.3 2.289 1.523 4.89 3.275 7.492" fill="#9AC7FF"/>
    <path d="M207.018 65.195a15.868 15.868 0 0 1 2.715 8.043l4.134-2.913c3.601-2.565-5.402-16.116-9.039-13.551l-4.127 2.92a15.167 15.167 0 0 1 6.317 5.501z" fill="#7CB7FF" style="mix-blend-mode:multiply"/>
    <defs>
        <linearGradient id="pzdrmvzjva" x1="144.63" y1="-89.848" x2="130.951" y2="73.668" gradientUnits="userSpaceOnUse">
            <stop stop-color="#1165CD"/>
            <stop offset="1" stop-color="#00408E"/>
        </linearGradient>
        <linearGradient id="2n3giqg2mb" x1="120.12" y1="-41.093" x2="111.228" y2="64.705" gradientUnits="userSpaceOnUse">
            <stop stop-color="#1165CD"/>
            <stop offset="1" stop-color="#00408E"/>
        </linearGradient>
        <linearGradient id="ogpz6ju6kc" x1="159.012" y1="29.361" x2="154.566" y2="82.26" gradientUnits="userSpaceOnUse">
            <stop stop-color="#1165CD"/>
            <stop offset="1" stop-color="#00408E"/>
        </linearGradient>
        <linearGradient id="m4n6axktjd" x1="129.928" y1="-61.94" x2="117.844" y2="82.338" gradientUnits="userSpaceOnUse">
            <stop stop-color="#1165CD"/>
            <stop offset="1" stop-color="#00408E"/>
        </linearGradient>
        <linearGradient id="zeou0bz37e" x1="118.525" y1="-38.944" x2="108.606" y2="81.312" gradientUnits="userSpaceOnUse">
            <stop stop-color="#1165CD"/>
            <stop offset="1" stop-color="#00408E"/>
        </linearGradient>
        <linearGradient id="9at2mjuhbf" x1="124.729" y1="-52.83" x2="112.304" y2="96.266" gradientUnits="userSpaceOnUse">
            <stop stop-color="#1165CD"/>
            <stop offset="1" stop-color="#00408E"/>
        </linearGradient>
        <linearGradient id="ops08beilg" x1="112.425" y1="-28.436" x2="101.938" y2="96.602" gradientUnits="userSpaceOnUse">
            <stop stop-color="#1165CD"/>
            <stop offset="1" stop-color="#00408E"/>
        </linearGradient>
        <linearGradient id="ukg6ssi3wh" x1="114.127" y1="-33.281" x2="102.385" y2="106.176" gradientUnits="userSpaceOnUse">
            <stop stop-color="#1165CD"/>
            <stop offset="1" stop-color="#00408E"/>
        </linearGradient>
        <linearGradient id="c9ovnpnvbi" x1="100.921" y1="-8.886" x2="90.873" y2="106.47" gradientUnits="userSpaceOnUse">
            <stop stop-color="#1165CD"/>
            <stop offset="1" stop-color="#00408E"/>
        </linearGradient>
        <linearGradient id="dystcch0yj" x1="134.107" y1="87.327" x2="131.595" y2="116.166" gradientUnits="userSpaceOnUse">
            <stop stop-color="#1165CD"/>
            <stop offset="1" stop-color="#00408E"/>
        </linearGradient>
        <linearGradient id="35qvajn6fk" x1="113.43" y1="-34.612" x2="100.093" y2="124.085" gradientUnits="userSpaceOnUse">
            <stop stop-color="#1165CD"/>
            <stop offset="1" stop-color="#00408E"/>
        </linearGradient>
        <linearGradient id="us8popbwrl" x1="109.632" y1="-31.098" x2="95.953" y2="132.419" gradientUnits="userSpaceOnUse">
            <stop stop-color="#1165CD"/>
            <stop offset="1" stop-color="#00408E"/>
        </linearGradient>
        <linearGradient id="gr3rx76bbm" x1="87.921" y1="17.657" x2="79.029" y2="123.455" gradientUnits="userSpaceOnUse">
            <stop stop-color="#1165CD"/>
            <stop offset="1" stop-color="#00408E"/>
        </linearGradient>
        <linearGradient id="8vmuc0dvpn" x1="125.41" y1="86.713" x2="120.964" y2="139.612" gradientUnits="userSpaceOnUse">
            <stop stop-color="#1165CD"/>
            <stop offset="1" stop-color="#00408E"/>
        </linearGradient>
        <linearGradient id="vwwqq6gsho" x1="96.328" y1="-4.589" x2="84.245" y2="139.689" gradientUnits="userSpaceOnUse">
            <stop stop-color="#1165CD"/>
            <stop offset="1" stop-color="#00408E"/>
        </linearGradient>
        <linearGradient id="v4vblw70zp" x1="86.323" y1="19.806" x2="76.404" y2="140.062" gradientUnits="userSpaceOnUse">
            <stop stop-color="#1165CD"/>
            <stop offset="1" stop-color="#00408E"/>
        </linearGradient>
        <linearGradient id="lwc8gt83iq" x1="91.127" y1="4.521" x2="78.702" y2="153.617" gradientUnits="userSpaceOnUse">
            <stop stop-color="#1165CD"/>
            <stop offset="1" stop-color="#00408E"/>
        </linearGradient>
        <linearGradient id="03eyg4131r" x1="80.224" y1="28.915" x2="69.736" y2="153.953" gradientUnits="userSpaceOnUse">
            <stop stop-color="#1165CD"/>
            <stop offset="1" stop-color="#00408E"/>
        </linearGradient>
        <linearGradient id="pbnk87gtqs" x1="80.525" y1="25.469" x2="68.783" y2="164.926" gradientUnits="userSpaceOnUse">
            <stop stop-color="#1165CD"/>
            <stop offset="1" stop-color="#00408E"/>
        </linearGradient>
        <linearGradient id="ltz4x5jnit" x1="67.321" y1="48.465" x2="57.273" y2="163.821" gradientUnits="userSpaceOnUse">
            <stop stop-color="#1165CD"/>
            <stop offset="1" stop-color="#00408E"/>
        </linearGradient>
        <linearGradient id="o0fdgmnv6u" x1="100.505" y1="146.077" x2="97.993" y2="174.916" gradientUnits="userSpaceOnUse">
            <stop stop-color="#1165CD"/>
            <stop offset="1" stop-color="#00408E"/>
        </linearGradient>
        <linearGradient id="81qdimdg0v" x1="78.43" y1="24.138" x2="65.093" y2="182.835" gradientUnits="userSpaceOnUse">
            <stop stop-color="#1165CD"/>
            <stop offset="1" stop-color="#00408E"/>
        </linearGradient>
        <linearGradient id="ie5i3mz2tw" x1="110.102" y1="115.627" x2="107.348" y2="134.599" gradientUnits="userSpaceOnUse">
            <stop stop-color="#1165CD"/>
            <stop offset="1" stop-color="#00408E"/>
        </linearGradient>
    </defs>
</svg>
