<svg width="56" height="56" viewBox="0 0 56 56" fill="none" xmlns="http://www.w3.org/2000/svg">
    <path opacity=".3" fill-rule="evenodd" clip-rule="evenodd" d="M16.843 20.905 12.685 3.68a.436.436 0 0 0-.426-.336h-2.42a1.02 1.02 0 0 1-1.02-1.017c0-.561.46-1.015 1.02-1.015h2.549a2.29 2.29 0 0 1 2.236 1.76l4.267 17.68a.436.436 0 0 0 .426.334h6.134a1 1 0 0 1 1 1c0 .566-.416 1.034-1 1.034h-7.275a2.047 2.047 0 0 0-2.044 2.042c0 .925.628 1.738 1.521 1.973l.512.135-.228.477c-.152.316-.261.65-.326.994l-.088.471-.461-.13a4.075 4.075 0 0 1-.47-7.673.439.439 0 0 0 .251-.505zm25.176-7.54h6.763c.528 0 .955.431.955.959v23.378c0 .239-.194.437-.434.437H6.697a.434.434 0 0 1-.434-.438V14.325c0-.528.427-.96.955-.96h6.909l-.555-2.267H7.316a3.322 3.322 0 0 0-3.321 3.32v25.857a3.322 3.322 0 0 0 3.321 3.32h41.368a3.322 3.322 0 0 0 3.321-3.32V14.418a3.322 3.322 0 0 0-3.321-3.32h-5.968l-.697 2.267zm-.615 37.075c.614 0 1.244.162 1.764.494.474.302.865.756.975 1.319.02.102.03.207.03.311v2.123H11.826v-2.123c0-.104.01-.209.03-.311.111-.563.502-1.017.975-1.319a3.308 3.308 0 0 1 1.765-.494h26.808z" fill="red"/>
    <mask id="bix2d5rxoa" fill="#fff">
        <path fill-rule="evenodd" clip-rule="evenodd" d="M23.032 29.512c0-.774-.63-1.4-1.404-1.4-.774 0-1.398.627-1.398 1.4 0 .774.624 1.402 1.398 1.402.774 0 1.404-.628 1.404-1.402zm12.129-1.4c-.774 0-1.398.627-1.398 1.4 0 .774.624 1.402 1.398 1.402a1.403 1.403 0 1 0 0-2.802zm16.407-13.694v25.856c0 1.59-1.29 2.883-2.884 2.883H7.316a2.885 2.885 0 0 1-2.884-2.883V14.418c0-1.59 1.29-2.883 2.884-2.883h5.913l.34 1.392H7.218c-.769 0-1.393.627-1.393 1.397V37.7c0 .483.387.875.872.875h42.606c.48 0 .872-.392.872-.875V14.324c0-.77-.624-1.397-1.393-1.397h-6.17l.427-1.392h5.645a2.884 2.884 0 0 1 2.884 2.883zm-30.373 34.71h13.61v-4.22h-13.61v4.22zm22.54 5.122v-1.686c0-.914-1.067-1.686-2.331-1.686H14.596c-1.264 0-2.332.772-2.332 1.686v1.686h31.472zM12.26 2.907h-2.42a.582.582 0 0 1-.583-.579c0-.319.263-.578.583-.578h2.549a1.85 1.85 0 0 1 1.81 1.426l2.134 8.84 2.133 8.84c.093.392.444.669.852.669h6.134c.31 0 .563.252.563.561 0 .297-.197.597-.563.597h-7.274a2.485 2.485 0 0 0-2.482 2.48c0 1.147.784 2.116 1.847 2.396-.168.35-.29.721-.361 1.103a3.637 3.637 0 0 1-.418-6.849.878.878 0 0 0 .506-1.011L13.11 3.578a.872.872 0 0 0-.851-.67zm5.825 8.914H41.12l.759-2.466c.005-.01.008-.021.012-.032a.265.265 0 0 0 .029-.123.242.242 0 0 0-.243-.242H17.392l.692 2.863zm10.36 6.409H19.63l.372 1.545h5.448a2.31 2.31 0 0 1 2.126 1.409H34.454l1.75-.03a3.31 3.31 0 0 0 1.557-.62 3.35 3.35 0 0 0 1.202-1.712l.181-.592h-10.7zm-9.236-1.75H39.681l.897-2.909H18.507l.701 2.908zm2.42 10.25a2.786 2.786 0 0 1 2.786 2.782 2.786 2.786 0 0 1-2.786 2.783 2.785 2.785 0 0 1-2.78-2.783 2.785 2.785 0 0 1 2.78-2.782zm4.478 2.07h4.582c.061-.4.178-.79.346-1.158h-5.278c.165.363.288.752.35 1.157zm9.055 3.495a2.785 2.785 0 0 1-2.78-2.783 2.785 2.785 0 0 1 2.78-2.782 2.782 2.782 0 0 1 0 5.565zM13.992 14.677l1.414 5.866a5.384 5.384 0 0 0-2.616 4.62 5.371 5.371 0 0 0 4.406 5.297 4.542 4.542 0 0 0 4.432 3.585 4.536 4.536 0 0 0 4.411-3.496h4.71a4.54 4.54 0 0 0 4.412 3.496 4.538 4.538 0 0 0 4.535-4.533c0-2.499-2.033-4.532-4.535-4.532-.983 0-1.94.32-2.724.912h-8.085a4.525 4.525 0 0 0-5.448 0h-.727a.74.74 0 0 1-.733-.729.74.74 0 0 1 .733-.73h7.274c1.001 0 1.832-.614 2.157-1.5h8.157a5.072 5.072 0 0 0 3.033-.991 5.098 5.098 0 0 0 1.837-2.604l1.434-4.661h6.357v22.15H7.574v-22.15h6.418zm29.59-4.892h5.102a4.635 4.635 0 0 1 4.633 4.633v25.856a4.635 4.635 0 0 1-4.633 4.633H36.559v4.221h4.845c2.25 0 4.08 1.54 4.08 3.436v2.561a.876.876 0 0 1-.876.875H11.392a.876.876 0 0 1-.877-.875v-2.56c0-1.896 1.832-3.437 4.08-3.437h4.846v-4.22H7.316a4.635 4.635 0 0 1-4.633-4.634V14.418a4.635 4.635 0 0 1 4.633-4.633h5.495l-1.238-5.128H9.839a2.334 2.334 0 0 1-2.332-2.329A2.334 2.334 0 0 1 9.839 0h2.549c.811 0 1.6.273 2.239.772a3.63 3.63 0 0 1 1.269 1.993l1.073 4.443h24.708a1.994 1.994 0 0 1 1.904 2.577z"/>
    </mask>
    <path fill-rule="evenodd" clip-rule="evenodd" d="M23.032 29.512c0-.774-.63-1.4-1.404-1.4-.774 0-1.398.627-1.398 1.4 0 .774.624 1.402 1.398 1.402.774 0 1.404-.628 1.404-1.402zm12.129-1.4c-.774 0-1.398.627-1.398 1.4 0 .774.624 1.402 1.398 1.402a1.403 1.403 0 1 0 0-2.802zm16.407-13.694v25.856c0 1.59-1.29 2.883-2.884 2.883H7.316a2.885 2.885 0 0 1-2.884-2.883V14.418c0-1.59 1.29-2.883 2.884-2.883h5.913l.34 1.392H7.218c-.769 0-1.393.627-1.393 1.397V37.7c0 .483.387.875.872.875h42.606c.48 0 .872-.392.872-.875V14.324c0-.77-.624-1.397-1.393-1.397h-6.17l.427-1.392h5.645a2.884 2.884 0 0 1 2.884 2.883zm-30.373 34.71h13.61v-4.22h-13.61v4.22zm22.54 5.122v-1.686c0-.914-1.067-1.686-2.331-1.686H14.596c-1.264 0-2.332.772-2.332 1.686v1.686h31.472zM12.26 2.907h-2.42a.582.582 0 0 1-.583-.579c0-.319.263-.578.583-.578h2.549a1.85 1.85 0 0 1 1.81 1.426l2.134 8.84 2.133 8.84c.093.392.444.669.852.669h6.134c.31 0 .563.252.563.561 0 .297-.197.597-.563.597h-7.274a2.485 2.485 0 0 0-2.482 2.48c0 1.147.784 2.116 1.847 2.396-.168.35-.29.721-.361 1.103a3.637 3.637 0 0 1-.418-6.849.878.878 0 0 0 .506-1.011L13.11 3.578a.872.872 0 0 0-.851-.67zm5.825 8.914H41.12l.759-2.466c.005-.01.008-.021.012-.032a.265.265 0 0 0 .029-.123.242.242 0 0 0-.243-.242H17.392l.692 2.863zm10.36 6.409H19.63l.372 1.545h5.448a2.31 2.31 0 0 1 2.126 1.409H34.454l1.75-.03a3.31 3.31 0 0 0 1.557-.62 3.35 3.35 0 0 0 1.202-1.712l.181-.592h-10.7zm-9.236-1.75H39.681l.897-2.909H18.507l.701 2.908zm2.42 10.25a2.786 2.786 0 0 1 2.786 2.782 2.786 2.786 0 0 1-2.786 2.783 2.785 2.785 0 0 1-2.78-2.783 2.785 2.785 0 0 1 2.78-2.782zm4.478 2.07h4.582c.061-.4.178-.79.346-1.158h-5.278c.165.363.288.752.35 1.157zm9.055 3.495a2.785 2.785 0 0 1-2.78-2.783 2.785 2.785 0 0 1 2.78-2.782 2.782 2.782 0 0 1 0 5.565zM13.992 14.677l1.414 5.866a5.384 5.384 0 0 0-2.616 4.62 5.371 5.371 0 0 0 4.406 5.297 4.542 4.542 0 0 0 4.432 3.585 4.536 4.536 0 0 0 4.411-3.496h4.71a4.54 4.54 0 0 0 4.412 3.496 4.538 4.538 0 0 0 4.535-4.533c0-2.499-2.033-4.532-4.535-4.532-.983 0-1.94.32-2.724.912h-8.085a4.525 4.525 0 0 0-5.448 0h-.727a.74.74 0 0 1-.733-.729.74.74 0 0 1 .733-.73h7.274c1.001 0 1.832-.614 2.157-1.5h8.157a5.072 5.072 0 0 0 3.033-.991 5.098 5.098 0 0 0 1.837-2.604l1.434-4.661h6.357v22.15H7.574v-22.15h6.418zm29.59-4.892h5.102a4.635 4.635 0 0 1 4.633 4.633v25.856a4.635 4.635 0 0 1-4.633 4.633H36.559v4.221h4.845c2.25 0 4.08 1.54 4.08 3.436v2.561a.876.876 0 0 1-.876.875H11.392a.876.876 0 0 1-.877-.875v-2.56c0-1.896 1.832-3.437 4.08-3.437h4.846v-4.22H7.316a4.635 4.635 0 0 1-4.633-4.634V14.418a4.635 4.635 0 0 1 4.633-4.633h5.495l-1.238-5.128H9.839a2.334 2.334 0 0 1-2.332-2.329A2.334 2.334 0 0 1 9.839 0h2.549c.811 0 1.6.273 2.239.772a3.63 3.63 0 0 1 1.269 1.993l1.073 4.443h24.708a1.994 1.994 0 0 1 1.904 2.577z" fill="#004498"/>
    <path d="M22.388 8.958v2.863h.1V8.958h-.1zm13.865 2.863V8.958h-.1v2.863h.1zm-7.86 6.409v2.954h.1V18.23h-.1zm-4.156 1.545V18.23h-.1v1.545h.1zm-1.849-1.545v1.545h.1V18.23h-.1zm0-4.659v2.908h.1v-2.908h-.1zm6.006 0v2.908h.1v-2.908h-.1zm-4.157 2.908v-2.908h-.1v2.908h.1zm0-4.658V8.958h-.1v2.863h.1zm4.157-2.863v2.863h.1V8.958h-.1zm1.854 2.863V8.958h-.1v2.863h.1zm4.156-2.863v2.863h.1V8.958h-.1zm-4.156 7.521v-2.908h-.1v2.908h.1zm4.156-2.908v2.908h.1v-2.908h-.1zm1.85 2.908v-2.908h-.1v2.908h.1zm0 4.674V18.23h-.1v2.923h.1zm-6.006.03V18.23h-.1v2.954h.1zm4.156-2.953v2.954h.1V18.23h-.1zM20.23 29.512h.1-.1zm14.931 1.402v-.1.1zm7.878-19.38v-.1h-.074l-.021.071.095.03zm-.428 1.393-.095-.03-.04.13h.135v-.1zm-29.042 0v.1h.128l-.03-.123-.098.023zm-.34-1.392.097-.024-.019-.076h-.078v.1zm21.576 37.593v.1h.1v-.1h-.1zm-13.61 0h-.1v.1h.1v-.1zm0-4.22v-.1h-.1v.1h.1zm13.61 0h.1v-.1h-.1v.1zm8.93 9.342v.1h.1v-.1h-.1zm-31.471 0h-.1v.1h.1v-.1zm29.14-3.372v.1-.1zM12.259 2.908v.1-.1zm.851.67-.097.023.097-.023zm4.159 17.224.097-.023-.098.023zm-.506 1.01.039.093-.04-.092zm.418 6.85-.027.096.105.03.02-.108-.098-.018zm.36-1.103.091.043.052-.109-.117-.03-.025.096zm.924-6.703.098-.023-.098.023zM14.2 3.176l.097-.023v-.001l-.097.024zm-.655-1.03.062-.077-.063.078zm-4.288.182h.1-.1zm8.828 9.493-.098.024.019.076h.079v-.1zm-.692-2.863v-.1h-.127l.03.123.097-.023zm24.512.332.09.045.004-.01-.094-.035zm-.026.065-.09-.043-.003.007-.002.007.096.029zm-.758 2.466v.1h.074l.022-.07-.096-.03zm-13.543 9.363-.092.039.026.06h.066v-.1zm-3.39-1.409v-.1.1zm-1.749 0v.1-.1zm-2.435 0-.097.024.018.076h.079v-.1zm-.372-1.545v-.1h-.127l.03.123.097-.023zm-.423-1.75-.097.023.019.076h.078v-.1zm-.701-2.909v-.1h-.127l.03.124.097-.024zM39.68 16.48v.1h.073l.022-.07-.095-.03zm.897-2.908.096.03.04-.13h-.136v.1zm-1.434 4.659.096.029.039-.13h-.135v.1zm-.18.592.095.03-.096-.03zm-1.203 1.711.06.08-.06-.08zm-1.558.62.002.1h.01l-.012-.1zm-1.749.03v.1h.002l-.002-.1zM30.688 28.8v.1h.086l.013-.084-.1-.016zm-4.582 0-.098.015.012.085h.086v-.1zm-.35-1.157v-.1H25.6l.064.141.091-.04zm5.277 0 .091.042.065-.142h-.155v.1zm-15.627-7.1.051.087.063-.038-.017-.072-.097.024zm-1.414-5.865.097-.024-.018-.076h-.079v.1zm-6.418 0v-.1h-.1v.1h.1zm0 22.15h-.1v.1h.1v-.1zm40.852 0v.1h.1v-.1h-.1zm0-22.15h.1v-.1h-.1v.1zm-6.357 0v-.1h-.074l-.021.07.095.03zm-1.434 4.66.096.03-.096-.03zm-1.837 2.605.06.08-.06-.08zm-11.19.992v-.1h-.07l-.024.065.094.035zm-8.704 2.958v.1h.033l.027-.02-.06-.08zm2.724-.912v.1-.1zm2.724.912-.06.08.027.02h.033v-.1zm8.085 0v.1h.033l.027-.02-.06-.08zm2.724-.912v.1-.1zm-4.411 5.57.097-.023-.018-.078h-.08v.1zm-4.71 0v-.1h-.08l-.018.077.097.022zm-8.844-.09.098-.021-.014-.066-.066-.012-.018.099zM43.581 9.785l-.096-.029-.038.129h.134v-.1zM16.97 7.208l-.097.023.018.077h.08v-.1zm-1.073-4.443.097-.024-.097.024zM14.626.772l.063-.078-.062.078zM12.389 0v-.1.1zm-.815 4.657.097-.023-.019-.077h-.078v.1zm1.238 5.128v.1h.127l-.03-.124-.097.024zm6.63 35.122h.1v-.1h-.1v.1zm0 4.221v.1h.1v-.1h-.1zm17.118 0h-.1v.1h.1v-.1zm0-4.22v-.1h-.1v.1h.1zm16.758-30.49h-.1.1zM41.89 9.323l-.094-.033.094.033zm-25.559 2.693.097-.024-.097.024zm5.296 16.196c.72 0 1.303.582 1.303 1.3h.2c0-.829-.674-1.5-1.503-1.5v.2zm1.303 1.3c0 .718-.584 1.302-1.303 1.302v.2c.83 0 1.503-.673 1.503-1.502h-.2zm-1.303 1.302a1.299 1.299 0 0 1-1.298-1.302h-.2c0 .829.669 1.502 1.498 1.502v-.2zm-1.298-1.302c0-.718.58-1.3 1.298-1.3v-.2c-.83 0-1.498.671-1.498 1.5h.2zm13.533 0c0-.718.58-1.3 1.298-1.3v-.2c-.83 0-1.498.671-1.498 1.5h.2zm1.298-1.3c.719 0 1.303.582 1.303 1.3h.2c0-.829-.674-1.5-1.503-1.5v.2zm1.303 1.3c0 .718-.584 1.302-1.303 1.302v.2c.829 0 1.503-.673 1.503-1.502h-.2zm-1.303 1.302a1.299 1.299 0 0 1-1.298-1.302h-.2c0 .829.669 1.502 1.498 1.502v-.2zm16.507 9.46V14.418h-.2v25.856h.2zm0-25.856a2.984 2.984 0 0 0-2.984-2.983v.2a2.784 2.784 0 0 1 2.784 2.783h.2zm-2.984-2.983h-5.645v.2h5.645v-.2zm-5.74.07-.428 1.393.19.059.429-1.393-.191-.059zm-.333 1.522h6.17v-.2h-6.17v.2zm6.17 0c.714 0 1.294.582 1.294 1.297h.2c0-.825-.669-1.497-1.493-1.497v.2zm1.294 1.297V37.7h.2V14.324h-.2zm0 23.377a.775.775 0 0 1-.772.775v.2a.975.975 0 0 0 .972-.975h-.2zm-.772.775H6.697v.2h42.606v-.2zm-42.606 0a.772.772 0 0 1-.772-.775h-.2c0 .538.431.975.972.975v-.2zm-.772-.775V14.324h-.2V37.7h.2zm0-23.377c0-.716.58-1.297 1.293-1.297v-.2c-.824 0-1.493.672-1.493 1.497h.2zm1.293-1.297h6.351v-.2H7.218v.2zm6.448-.123-.34-1.393-.194.048.34 1.392.194-.048zm-.437-1.47H7.316v.2h5.913v-.2zm-5.913 0a2.984 2.984 0 0 0-2.984 2.984h.2a2.784 2.784 0 0 1 2.784-2.783v-.2zm-2.984 2.984v25.856h.2V14.418h-.2zm0 25.856a2.985 2.985 0 0 0 2.984 2.983v-.2a2.785 2.785 0 0 1-2.784-2.783h-.2zm2.984 2.983h41.368v-.2H7.316v.2zm41.368 0a2.985 2.985 0 0 0 2.984-2.983h-.2a2.785 2.785 0 0 1-2.784 2.783v.2zm-13.879 5.771h-13.61v.2h13.61v-.2zm-13.51.1v-4.22h-.2v4.22h.2zm-.1-4.12h13.61v-.2h-13.61v.2zm13.51-.1v4.22h.2v-4.22h-.2zm8.93 7.656v1.686h.2v-1.686h-.2zm.1 1.586H12.265v.2h31.472v-.2zm-31.371.1v-1.686h-.2v1.686h.2zm0-1.686c0-.416.243-.81.65-1.105.407-.294.97-.481 1.582-.481v-.2c-.652 0-1.255.199-1.699.52-.442.32-.733.768-.733 1.266h.2zm2.232-1.586h26.808v-.2H14.596v.2zm26.808 0c.612 0 1.175.187 1.581.481.408.295.65.69.65 1.105h.2c0-.498-.29-.947-.733-1.267-.443-.32-1.047-.52-1.698-.52v.2zM9.839 3.008h2.42v-.2h-2.42v.2zm2.42 0c.174-.001.344.057.48.165l.124-.157a.972.972 0 0 0-.605-.209l.001.2zm.48.165a.772.772 0 0 1 .274.428l.194-.046a.972.972 0 0 0-.344-.54l-.124.158zm.274.428 4.158 17.224.195-.046-4.159-17.224-.194.046zm4.158 17.224a.778.778 0 0 1-.447.896l.078.184a.978.978 0 0 0 .564-1.126l-.195.046zm-.447.896a3.737 3.737 0 0 0-2.285 3.442h.2c0-1.421.848-2.7 2.163-3.258l-.078-.184zm-2.285 3.442a3.73 3.73 0 0 0 2.715 3.595l.054-.192a3.53 3.53 0 0 1-2.569-3.403h-.2zm2.84 3.517c.07-.373.189-.735.353-1.078l-.18-.086a4.549 4.549 0 0 0-.37 1.127l.197.037zm.288-1.218a2.382 2.382 0 0 1-1.772-2.299h-.2c0 1.194.816 2.202 1.921 2.493l.051-.194zm-1.772-2.299c0-1.312 1.07-2.38 2.382-2.38v-.2a2.585 2.585 0 0 0-2.582 2.58h.2zm2.382-2.38h7.274v-.2h-7.274v.2zm7.274 0c.437 0 .663-.361.663-.697h-.2c0 .258-.167.497-.463.497v.2zm.663-.697a.663.663 0 0 0-.663-.661v.2c.255 0 .463.207.463.461h.2zm-.663-.661h-6.134v.2h6.134v-.2zm-6.134 0a.771.771 0 0 1-.754-.592l-.195.046a.971.971 0 0 0 .949.746v-.2zM14.296 3.152a1.979 1.979 0 0 0-.69-1.083l-.125.156c.308.245.523.58.62.975l.195-.048zm-.69-1.084a1.95 1.95 0 0 0-1.218-.418v.2c.406 0 .781.13 1.094.376l.123-.158zm-1.218-.418H9.839v.2h2.549v-.2zm-2.549 0a.682.682 0 0 0-.683.678h.2c0-.263.217-.478.483-.478v-.2zm-.683.678c0 .376.309.68.683.68v-.2a.482.482 0 0 1-.483-.48h-.2zm13.282 9.393h-4.354v.2h4.354v-.2zm-4.257.077-.692-2.864-.194.047.691 2.864.195-.047zm-.789-2.74h5.046v-.2h-5.046v.2zM41.82 9.2c0 .02-.004.039-.01.055l.188.069a.366.366 0 0 0 .022-.124h-.2zm-.037.125-.758 2.466.19.059.76-2.467-.192-.058zm-.663 2.395h-4.917v.2h4.917v-.2zm-4.917-2.663h5.474v-.2h-5.474v.2zm5.474 0c.08 0 .143.063.143.143h.2a.342.342 0 0 0-.343-.343v.2zm-17.49 9.271h4.257v-.2h-4.257v.2zm4.257 2.755h-.867v.2h.867v-.2zm-.775.06a2.41 2.41 0 0 0-2.218-1.469v.2a2.21 2.21 0 0 1 2.034 1.348l.184-.078zm-2.218-1.469h-1.264v.2h1.264v-.2zm-3.013 0h-2.435v.2h2.435v-.2zm-2.338.077-.371-1.546-.195.047.372 1.546.194-.047zm-.469-1.422h2.807v-.2h-2.807v.2zm2.807-1.95h-3.23v.2h3.23v-.2zm-3.132.076-.702-2.908-.194.047.701 2.908.195-.047zm-.8-2.785h3.932v-.2h-3.931v.2zm9.938 2.708h-4.257v.2h4.257v-.2zm-4.257-2.708h4.257v-.2h-4.257v.2zm4.257-1.95h-4.257v.2h4.257v-.2zm-4.257-2.663h4.257v-.2h-4.257v.2zm6.01 0h4.257v-.2h-4.256v.2zm4.257 2.663h-4.256v.2h4.256v-.2zm0 4.658h-4.256v.2h4.256v-.2zm-4.256-2.708h4.256v-.2h-4.256v.2zm9.483 2.708h-3.478v.2h3.478v-.2zm-3.478-2.708h4.375v-.2h-4.375v.2zm4.28-.13-.898 2.909.191.059.898-2.908-.191-.06zm-4.28 4.788h2.941v-.2h-2.94v.2zm2.845-.129-.18.593.191.059.18-.593-.19-.059zm-.18.593a3.25 3.25 0 0 1-1.166 1.66l.119.16a3.451 3.451 0 0 0 1.238-1.761l-.191-.06zm-1.166 1.66a3.21 3.21 0 0 1-1.511.601l.025.199a3.409 3.409 0 0 0 1.605-.64l-.12-.16zm-3.248.63h-4.256v.2h4.256v-.2zm-4.256-2.753h4.256v-.2h-4.256v.2zm-5.684 11.182a2.886 2.886 0 0 0-2.886-2.882v.2a2.686 2.686 0 0 1 2.686 2.682h.2zm-2.886-2.882a2.885 2.885 0 0 0-2.88 2.882h.2a2.685 2.685 0 0 1 2.68-2.682v-.2zm-2.88 2.882a2.885 2.885 0 0 0 2.88 2.883v-.2a2.685 2.685 0 0 1-2.68-2.683h-.2zm2.88 2.883a2.886 2.886 0 0 0 2.886-2.883h-.2a2.686 2.686 0 0 1-2.686 2.683v.2zm9.06-3.696h-4.582v.2h4.582v-.2zm-4.483.085a4.512 4.512 0 0 0-.358-1.183l-.183.082c.162.357.283.736.344 1.131l.197-.03zm-.45-1.042h5.279v-.2h-5.278v.2zm5.188-.141c-.172.376-.291.774-.354 1.183l.198.03c.06-.39.174-.77.338-1.13l-.182-.083zm1.337 1.911a2.885 2.885 0 0 0 2.881 2.883v-.2a2.685 2.685 0 0 1-2.68-2.683h-.2zm2.881 2.883a2.882 2.882 0 0 0 2.88-2.883h-.2a2.682 2.682 0 0 1-2.68 2.683v.2zm2.88-2.883a2.882 2.882 0 0 0-2.88-2.882v.2a2.682 2.682 0 0 1 2.68 2.682h.2zm-2.88-2.882a2.885 2.885 0 0 0-2.88 2.882h.2a2.685 2.685 0 0 1 2.68-2.682v-.2zm-19.658-6.11-1.414-5.867-.194.047 1.414 5.866.194-.046zm-1.51-5.943H7.573v.2h6.418v-.2zm-6.519.1v22.15h.2v-22.15h-.2zm.1 22.25h40.852v-.2H7.574v.2zm40.952-.1v-22.15h-.2v22.15h.2zm-.1-22.25h-6.357v.2h6.357v-.2zm-6.452.07-1.435 4.661.192.06 1.434-4.662-.191-.059zm-1.434 4.66a4.999 4.999 0 0 1-1.801 2.554l.119.161a5.199 5.199 0 0 0 1.873-2.654l-.191-.06zm-1.801 2.554a4.971 4.971 0 0 1-2.974.973v.2c1.125 0 2.198-.35 3.093-1.012l-.12-.16zm-2.974.973h-8.157v.2h8.157v-.2zm-8.251.065a2.176 2.176 0 0 1-2.063 1.435v.2a2.376 2.376 0 0 0 2.25-1.566l-.187-.069zm-2.063 1.435h-7.274v.2h7.274v-.2zm-7.274 0a.84.84 0 0 0-.833.83h.2c0-.341.29-.63.633-.63v-.2zm-.833.83c0 .45.38.828.832.828v-.2a.64.64 0 0 1-.632-.629h-.2zm.832.828h.728v-.2h-.727v.2zm.788-.02a4.424 4.424 0 0 1 2.664-.892v-.2a4.624 4.624 0 0 0-2.784.932l.12.16zm2.664-.892c.962 0 1.897.312 2.664.892l.12-.16a4.613 4.613 0 0 0-2.784-.932v.2zm2.724.912h8.085v-.2h-8.085v.2zm8.145-.02a4.414 4.414 0 0 1 2.664-.892v-.2a4.615 4.615 0 0 0-2.785.932l.121.16zm2.664-.892a4.438 4.438 0 0 1 4.435 4.432h.2a4.638 4.638 0 0 0-4.635-4.632v.2zm4.435 4.432a4.438 4.438 0 0 1-4.435 4.433v.2a4.638 4.638 0 0 0 4.635-4.633h-.2zm-4.435 4.433a4.44 4.44 0 0 1-4.314-3.418l-.195.045a4.64 4.64 0 0 0 4.509 3.573v-.2zM30.75 30.45h-4.71v.2h4.71v-.2zm-4.808.078a4.436 4.436 0 0 1-4.314 3.418v.2a4.636 4.636 0 0 0 4.509-3.573l-.195-.045zm-4.314 3.418a4.442 4.442 0 0 1-4.334-3.506l-.196.042a4.642 4.642 0 0 0 4.53 3.664v-.2zm-4.414-3.584a5.271 5.271 0 0 1-4.324-5.198h-.2a5.471 5.471 0 0 0 4.488 5.395l.036-.197zm-4.324-5.198c0-1.876.987-3.585 2.567-4.534l-.103-.172a5.484 5.484 0 0 0-2.664 4.706h.2zM48.684 9.685H43.58v.2h5.103v-.2zm-5.007.128c.06-.198.092-.403.092-.612h-.2c0 .188-.03.374-.084.555l.192.057zm.092-.612a2.094 2.094 0 0 0-2.092-2.093v.2c1.044 0 1.892.848 1.892 1.893h.2zm-2.092-2.093H16.97v.2h24.708v-.2zm-24.61.076-1.074-4.443-.194.047 1.073 4.443.194-.047zm-1.074-4.443A3.73 3.73 0 0 0 14.69.694l-.124.157a3.53 3.53 0 0 1 1.234 1.937l.194-.047zM14.688.694a3.742 3.742 0 0 0-2.3-.794v.2c.789 0 1.555.265 2.177.751l.123-.157zm-2.3-.794H9.839v.2h2.549v-.2zm-2.549 0a2.434 2.434 0 0 0-2.432 2.428h.2A2.234 2.234 0 0 1 9.839.1v-.2zM7.407 2.328a2.434 2.434 0 0 0 2.432 2.43v-.2c-1.23 0-2.232-1-2.232-2.23h-.2zm2.432 2.43h1.734v-.2H9.839v.2zm1.636-.077 1.239 5.127.194-.047-1.238-5.127-.195.047zm1.336 5.004H7.316v.2h5.495v-.2zm-5.495 0a4.735 4.735 0 0 0-4.733 4.733h.2c0-2.5 2.03-4.533 4.533-4.533v-.2zm-4.733 4.733v25.856h.2V14.418h-.2zm0 25.856a4.735 4.735 0 0 0 4.733 4.733v-.2a4.535 4.535 0 0 1-4.533-4.533h-.2zm4.733 4.733h12.125v-.2H7.316v.2zm12.025-.1v4.221h.2v-4.22h-.2zm.1 4.121h-4.845v.2h4.845v-.2zm-4.845 0c-2.288 0-4.181 1.57-4.181 3.536h.2c0-1.825 1.77-3.336 3.98-3.336v-.2zm-4.181 3.536v2.561h.2v-2.56h-.2zm0 2.561c0 .539.437.975.977.975v-.2a.776.776 0 0 1-.777-.775h-.2zm.977.975h33.216v-.2H11.392v.2zm33.216 0c.54 0 .977-.436.977-.975h-.2a.776.776 0 0 1-.777.775v.2zm.977-.975v-2.56h-.2v2.56h.2zm0-2.56c0-1.967-1.893-3.537-4.181-3.537v.2c2.21 0 3.98 1.511 3.98 3.336h.2zm-4.181-3.537h-4.845v.2h4.845v-.2zm-4.745.1v-4.22h-.2v4.22h.2zm-.1-4.12h12.125v-.2H36.559v.2zm12.125 0a4.735 4.735 0 0 0 4.733-4.734h-.2c0 2.5-2.03 4.533-4.533 4.533v.2zm4.733-4.734V14.418h-.2v25.856h.2zm0-25.856a4.735 4.735 0 0 0-4.733-4.733v.2a4.535 4.535 0 0 1 4.533 4.533h.2zM22.438 11.92h1.75v-.2h-1.75v.2zm6.006 0h1.754v-.2h-1.754v.2zm6.01 0h1.75v-.2h-1.75v.2zm1.75-3.063h-1.75v.2h1.75v-.2zm-6.006 0h-1.754v.2h1.754v-.2zm-6.01 0h-1.75v.2h1.75v-.2zm17.78.54c.008-.016.014-.031.017-.04l-.188-.068a.281.281 0 0 1-.009.022l.18.086zm.017-.04a.216.216 0 0 1 .009-.023l-.18-.09c-.008.018-.013.034-.017.045l.188.067zM22.438 13.67h1.75v-.2h-1.75v.2zm1.75 2.708h-1.75v.2h1.75v-.2zm4.256-2.708h1.754v-.2h-1.754v.2zm1.754 2.708h-1.754v.2h1.754v-.2zm4.256-2.708h1.75v-.2h-1.75v.2zm1.75 2.708h-1.75v.2h1.75v-.2zm-13.766 1.95h1.75v-.2h-1.75v.2zm1.75 1.346h-1.75v.2h1.75v-.2zm4.256-1.346h1.754v-.2h-1.754v.2zm1.754 2.755h-1.754v.2h1.754v-.2zm4.256-2.755h1.75v-.2h-1.75v.2zm1.748 2.724-1.75.03.004.2 1.749-.03-.003-.2zm-17.64-.22-2.133-8.84-.194.046 2.133 8.84.195-.047zm-2.133-8.84-2.133-8.84-.194.047 2.133 8.84.194-.048z" fill="#fff" mask="url(#bix2d5rxoa)"/>
</svg>
