<svg width="56" height="56" viewBox="0 0 56 56" fill="none" xmlns="http://www.w3.org/2000/svg">
<path opacity="0.3" fill-rule="evenodd" clip-rule="evenodd" d="M16.8447 20.9045L12.6863 3.68058C12.6636 3.58473 12.6091 3.49938 12.5318 3.43839C12.4544 3.37741 12.3587 3.34438 12.2602 3.34469H9.84055C9.27967 3.34469 8.82008 2.89012 8.82008 2.32837C8.82008 1.76673 9.28 1.3125 9.84055 1.3125H12.3892C12.9114 1.3125 13.4062 1.47973 13.816 1.80337C14.2235 2.12527 14.5035 2.56834 14.6254 3.07333L18.8921 20.7528C18.915 20.8484 18.9695 20.9335 19.0468 20.9942C19.1242 21.0549 19.2198 21.0877 19.3181 21.0872H25.4525C26.0034 21.0872 26.4523 21.5348 26.4523 22.086C26.4523 22.6531 26.0359 23.1205 25.4525 23.1205H18.1779C17.0523 23.1205 16.1338 24.0371 16.1338 25.163C16.1338 26.0882 16.7617 26.901 17.6546 27.1359L18.166 27.2705L17.9381 27.7476C17.7866 28.0633 17.6771 28.3976 17.6123 28.7418L17.5245 29.2129L17.0633 29.0826C15.3102 28.5873 14.1032 26.9872 14.1032 25.163C14.1032 23.5219 15.084 22.0516 16.5931 21.4099C16.7889 21.3267 16.8945 21.1105 16.8447 20.9045ZM42.0204 13.3646H48.7832C49.3117 13.3646 49.7388 13.7962 49.7388 14.3239V37.7013C49.7388 37.9408 49.5445 38.1388 49.3044 38.1388H6.69842C6.4555 38.1388 6.26398 37.9433 6.26398 37.7013V14.3237C6.26398 13.7962 6.69109 13.3645 7.21948 13.3645H14.1279L13.5734 11.0971H7.31759C5.48403 11.0971 3.99609 12.584 3.99609 14.4176V40.2742C3.99609 42.1072 5.48458 43.5947 7.31759 43.5947H48.6852C50.5182 43.5947 52.0067 42.1072 52.0067 40.2742V14.4177C52.0067 12.5841 50.5186 11.0972 48.6852 11.0972H42.7177L42.0204 13.3646ZM41.4053 50.4402C42.02 50.4402 42.6495 50.6022 43.1699 50.9342C43.6435 51.2362 44.0341 51.6896 44.1445 52.2526C44.1646 52.3553 44.1749 52.4596 44.1749 52.5643V54.6874H11.8279V52.5643C11.8279 52.4596 11.8381 52.3553 11.8583 52.2526C11.9687 51.6896 12.3592 51.2362 12.8328 50.9342C13.3532 50.6022 13.9827 50.4402 14.5975 50.4402H41.4053Z" fill="#FF0000"/>
<mask id="path-2-inside-1_283_6739" fill="white">
<path fill-rule="evenodd" clip-rule="evenodd" d="M23.0319 29.5124C23.0319 28.7385 22.4026 28.1117 21.6287 28.1117C20.8547 28.1117 20.2304 28.7385 20.2305 29.5124C20.2305 30.2857 20.8547 30.9136 21.6287 30.9136C22.4025 30.9136 23.0319 30.2858 23.0319 29.5124ZM35.1615 28.1117C34.3877 28.1117 33.7634 28.7385 33.7634 29.5124C33.7634 30.2858 34.3877 30.9138 35.1615 30.9136C35.9355 30.9136 36.5649 30.2858 36.5649 29.5124C36.5649 28.7385 35.9355 28.1117 35.1615 28.1117ZM51.5682 14.4178V40.2743C51.5682 41.8634 50.2785 43.1574 48.6842 43.1574H7.31661C5.72236 43.1574 4.4325 41.8635 4.4325 40.2744V14.4178C4.4325 12.8277 5.72236 11.5348 7.31661 11.5348H13.2292L13.5697 12.9272H7.2185C6.44981 12.9272 5.8255 13.5535 5.8255 14.3239V37.7013C5.8255 38.1842 6.21247 38.5763 6.69744 38.5763H49.3034C49.7832 38.5763 50.1753 38.1842 50.1753 37.7013V14.3239C50.1753 13.5536 49.5511 12.9272 48.7823 12.9272H42.6117L43.0399 11.5348H48.6842C50.2783 11.5348 51.5682 12.8277 51.5682 14.4178ZM21.1952 49.1283H34.8056L34.8055 44.9075H21.1952V49.1283ZM43.7364 54.25V52.5644C43.7364 51.6502 42.6685 50.8778 41.4043 50.8779H14.5964C13.3325 50.8779 12.2644 51.6502 12.2644 52.5644V54.25H43.7364ZM12.2593 2.9073H9.83956C9.51964 2.9073 9.25648 2.6483 9.25659 2.32838C9.25659 2.009 9.51964 1.75 9.83956 1.75H12.3882C12.8164 1.75 13.2138 1.88781 13.544 2.14692C13.869 2.40538 14.0961 2.76084 14.1992 3.17614L16.3326 12.0159L18.466 20.8556C18.5588 21.2482 18.9096 21.5248 19.3172 21.5248H25.4516C25.7613 21.5248 26.014 21.7766 26.014 22.0861C26.014 22.3828 25.8179 22.6831 25.4516 22.6831H18.177C16.8098 22.6831 15.6954 23.796 15.6954 25.1631C15.6954 26.31 16.4796 27.2794 17.5424 27.5591C17.3744 27.9093 17.253 28.28 17.1813 28.6617C15.6489 28.2288 14.5396 26.8255 14.5396 25.1631C14.5396 23.7015 15.4116 22.3869 16.7633 21.8127C17.1554 21.6455 17.367 21.2178 17.269 20.8019L13.1105 3.57798C13.0651 3.38655 12.9563 3.21609 12.8018 3.09433C12.6472 2.97256 12.456 2.90665 12.2593 2.9073ZM18.0841 11.8211H22.4386H24.1877H28.4441H30.1983H34.4547H36.2038H41.1206L41.879 9.35495C41.884 9.34447 41.8877 9.33391 41.8915 9.32347C41.8955 9.31223 41.8995 9.30114 41.9048 9.29042C41.9151 9.26209 41.9202 9.23103 41.9202 9.20063C41.9202 9.06598 41.8119 8.9577 41.6777 8.9577H36.2038H34.4547H30.1983H28.4441H24.1877H22.4386H17.3928L18.0841 11.8211ZM28.4441 18.2295H24.1877H22.4386H19.6319L20.0033 19.7753H22.4386L24.1876 19.7752H25.4516C26.4062 19.7752 27.2265 20.3568 27.5773 21.1838H28.4441H30.1983H34.4547L36.2038 21.1533C36.7712 21.0812 37.3026 20.8721 37.7618 20.5332C38.3293 20.1117 38.7473 19.5204 38.9639 18.8223L39.1445 18.2295H36.2038H34.4547H30.1983H28.4441ZM19.2088 16.4794H22.4386H24.1877H28.4441H30.1983H34.4547H36.2038H39.6811L40.5789 13.5711H36.2038H34.4547H30.1983H28.4441H24.1877H22.4386H18.5072L19.2088 16.4794ZM21.6287 26.73C23.1661 26.73 24.4147 27.978 24.4147 29.5124C24.4147 31.0473 23.1661 32.2948 21.6287 32.2948C20.0963 32.2948 18.8478 31.0473 18.8478 29.5124C18.8478 27.9781 20.0963 26.73 21.6287 26.73ZM26.1069 28.7994H30.6884C30.7499 28.3996 30.8662 28.0102 31.034 27.6421H25.756C25.9212 28.0054 26.045 28.3939 26.1069 28.7994ZM35.1615 32.2948C33.6292 32.2948 32.3807 31.0473 32.3807 29.5124C32.3807 27.9781 33.6293 26.73 35.1615 26.73C36.699 26.73 37.9424 27.978 37.9424 29.5124C37.9424 31.0473 36.699 32.2948 35.1615 32.2948ZM13.9928 14.6768L15.4064 20.5429C13.7967 21.5098 12.7906 23.251 12.7906 25.163C12.7906 27.802 14.6737 30.0005 17.1967 30.4596C17.6352 32.5064 19.4565 34.0454 21.6285 34.0454C23.7748 34.0454 25.5703 32.5502 26.0398 30.5494H30.7502C31.2196 32.5502 33.0203 34.0454 35.1614 34.0454C37.6638 34.0454 39.6965 32.0121 39.6965 29.5124C39.6965 27.0132 37.6637 24.9799 35.1614 24.9799C34.1783 24.9792 33.2218 25.2995 32.4373 25.8921H24.3526C23.5682 25.2994 22.6117 24.9792 21.6285 24.9799C20.607 24.9799 19.668 25.3205 18.9045 25.8921H18.177C17.7798 25.8921 17.4444 25.5579 17.4444 25.1631C17.4444 24.7669 17.7798 24.4336 18.177 24.4336H25.4516C26.4525 24.4336 27.2831 23.8186 27.6082 22.9338H35.765C36.8692 22.9338 37.9217 22.5902 38.7988 21.9416C39.6707 21.2962 40.3053 20.3964 40.6355 19.3377L42.0699 14.6768H48.4262V36.8269H7.57452V14.6768H13.9928ZM43.5816 9.78469H48.6842C51.2433 9.78469 53.3173 11.8629 53.3172 14.4178V40.2744C53.3172 42.8293 51.2433 44.9075 48.6842 44.9075H36.5598V49.1283H41.4044C43.6538 49.1283 45.4854 50.6688 45.4854 52.5644V55.125C45.4854 55.6084 45.0933 56 44.6083 56H11.3925C10.9075 56 10.5154 55.6084 10.5154 55.125V52.5643C10.5154 50.6687 12.347 49.1282 14.5964 49.1282H19.441V44.9074H7.31661C4.75767 44.9074 2.68359 42.8292 2.68359 40.2743V14.4177C2.68359 11.8629 4.75756 9.78469 7.31661 9.78469H12.8113L11.573 4.6573H9.83945C8.55484 4.6573 7.50747 3.61255 7.50747 2.32838C7.50747 1.04475 8.55484 0 9.83956 0L12.3882 0C13.1998 0.000774934 13.9879 0.272587 14.6273 0.772297C15.2568 1.26864 15.7057 1.97652 15.8965 2.76489L16.9697 7.20759H41.6779C42.7767 7.20759 43.6694 8.10119 43.6694 9.20063C43.6694 9.3998 43.6384 9.59536 43.5816 9.78469Z"/>
</mask>
<path fill-rule="evenodd" clip-rule="evenodd" d="M23.0319 29.5124C23.0319 28.7385 22.4026 28.1117 21.6287 28.1117C20.8547 28.1117 20.2304 28.7385 20.2305 29.5124C20.2305 30.2857 20.8547 30.9136 21.6287 30.9136C22.4025 30.9136 23.0319 30.2858 23.0319 29.5124ZM35.1615 28.1117C34.3877 28.1117 33.7634 28.7385 33.7634 29.5124C33.7634 30.2858 34.3877 30.9138 35.1615 30.9136C35.9355 30.9136 36.5649 30.2858 36.5649 29.5124C36.5649 28.7385 35.9355 28.1117 35.1615 28.1117ZM51.5682 14.4178V40.2743C51.5682 41.8634 50.2785 43.1574 48.6842 43.1574H7.31661C5.72236 43.1574 4.4325 41.8635 4.4325 40.2744V14.4178C4.4325 12.8277 5.72236 11.5348 7.31661 11.5348H13.2292L13.5697 12.9272H7.2185C6.44981 12.9272 5.8255 13.5535 5.8255 14.3239V37.7013C5.8255 38.1842 6.21247 38.5763 6.69744 38.5763H49.3034C49.7832 38.5763 50.1753 38.1842 50.1753 37.7013V14.3239C50.1753 13.5536 49.5511 12.9272 48.7823 12.9272H42.6117L43.0399 11.5348H48.6842C50.2783 11.5348 51.5682 12.8277 51.5682 14.4178ZM21.1952 49.1283H34.8056L34.8055 44.9075H21.1952V49.1283ZM43.7364 54.25V52.5644C43.7364 51.6502 42.6685 50.8778 41.4043 50.8779H14.5964C13.3325 50.8779 12.2644 51.6502 12.2644 52.5644V54.25H43.7364ZM12.2593 2.9073H9.83956C9.51964 2.9073 9.25648 2.6483 9.25659 2.32838C9.25659 2.009 9.51964 1.75 9.83956 1.75H12.3882C12.8164 1.75 13.2138 1.88781 13.544 2.14692C13.869 2.40538 14.0961 2.76084 14.1992 3.17614L16.3326 12.0159L18.466 20.8556C18.5588 21.2482 18.9096 21.5248 19.3172 21.5248H25.4516C25.7613 21.5248 26.014 21.7766 26.014 22.0861C26.014 22.3828 25.8179 22.6831 25.4516 22.6831H18.177C16.8098 22.6831 15.6954 23.796 15.6954 25.1631C15.6954 26.31 16.4796 27.2794 17.5424 27.5591C17.3744 27.9093 17.253 28.28 17.1813 28.6617C15.6489 28.2288 14.5396 26.8255 14.5396 25.1631C14.5396 23.7015 15.4116 22.3869 16.7633 21.8127C17.1554 21.6455 17.367 21.2178 17.269 20.8019L13.1105 3.57798C13.0651 3.38655 12.9563 3.21609 12.8018 3.09433C12.6472 2.97256 12.456 2.90665 12.2593 2.9073ZM18.0841 11.8211H22.4386H24.1877H28.4441H30.1983H34.4547H36.2038H41.1206L41.879 9.35495C41.884 9.34447 41.8877 9.33391 41.8915 9.32347C41.8955 9.31223 41.8995 9.30114 41.9048 9.29042C41.9151 9.26209 41.9202 9.23103 41.9202 9.20063C41.9202 9.06598 41.8119 8.9577 41.6777 8.9577H36.2038H34.4547H30.1983H28.4441H24.1877H22.4386H17.3928L18.0841 11.8211ZM28.4441 18.2295H24.1877H22.4386H19.6319L20.0033 19.7753H22.4386L24.1876 19.7752H25.4516C26.4062 19.7752 27.2265 20.3568 27.5773 21.1838H28.4441H30.1983H34.4547L36.2038 21.1533C36.7712 21.0812 37.3026 20.8721 37.7618 20.5332C38.3293 20.1117 38.7473 19.5204 38.9639 18.8223L39.1445 18.2295H36.2038H34.4547H30.1983H28.4441ZM19.2088 16.4794H22.4386H24.1877H28.4441H30.1983H34.4547H36.2038H39.6811L40.5789 13.5711H36.2038H34.4547H30.1983H28.4441H24.1877H22.4386H18.5072L19.2088 16.4794ZM21.6287 26.73C23.1661 26.73 24.4147 27.978 24.4147 29.5124C24.4147 31.0473 23.1661 32.2948 21.6287 32.2948C20.0963 32.2948 18.8478 31.0473 18.8478 29.5124C18.8478 27.9781 20.0963 26.73 21.6287 26.73ZM26.1069 28.7994H30.6884C30.7499 28.3996 30.8662 28.0102 31.034 27.6421H25.756C25.9212 28.0054 26.045 28.3939 26.1069 28.7994ZM35.1615 32.2948C33.6292 32.2948 32.3807 31.0473 32.3807 29.5124C32.3807 27.9781 33.6293 26.73 35.1615 26.73C36.699 26.73 37.9424 27.978 37.9424 29.5124C37.9424 31.0473 36.699 32.2948 35.1615 32.2948ZM13.9928 14.6768L15.4064 20.5429C13.7967 21.5098 12.7906 23.251 12.7906 25.163C12.7906 27.802 14.6737 30.0005 17.1967 30.4596C17.6352 32.5064 19.4565 34.0454 21.6285 34.0454C23.7748 34.0454 25.5703 32.5502 26.0398 30.5494H30.7502C31.2196 32.5502 33.0203 34.0454 35.1614 34.0454C37.6638 34.0454 39.6965 32.0121 39.6965 29.5124C39.6965 27.0132 37.6637 24.9799 35.1614 24.9799C34.1783 24.9792 33.2218 25.2995 32.4373 25.8921H24.3526C23.5682 25.2994 22.6117 24.9792 21.6285 24.9799C20.607 24.9799 19.668 25.3205 18.9045 25.8921H18.177C17.7798 25.8921 17.4444 25.5579 17.4444 25.1631C17.4444 24.7669 17.7798 24.4336 18.177 24.4336H25.4516C26.4525 24.4336 27.2831 23.8186 27.6082 22.9338H35.765C36.8692 22.9338 37.9217 22.5902 38.7988 21.9416C39.6707 21.2962 40.3053 20.3964 40.6355 19.3377L42.0699 14.6768H48.4262V36.8269H7.57452V14.6768H13.9928ZM43.5816 9.78469H48.6842C51.2433 9.78469 53.3173 11.8629 53.3172 14.4178V40.2744C53.3172 42.8293 51.2433 44.9075 48.6842 44.9075H36.5598V49.1283H41.4044C43.6538 49.1283 45.4854 50.6688 45.4854 52.5644V55.125C45.4854 55.6084 45.0933 56 44.6083 56H11.3925C10.9075 56 10.5154 55.6084 10.5154 55.125V52.5643C10.5154 50.6687 12.347 49.1282 14.5964 49.1282H19.441V44.9074H7.31661C4.75767 44.9074 2.68359 42.8292 2.68359 40.2743V14.4177C2.68359 11.8629 4.75756 9.78469 7.31661 9.78469H12.8113L11.573 4.6573H9.83945C8.55484 4.6573 7.50747 3.61255 7.50747 2.32838C7.50747 1.04475 8.55484 0 9.83956 0L12.3882 0C13.1998 0.000774934 13.9879 0.272587 14.6273 0.772297C15.2568 1.26864 15.7057 1.97652 15.8965 2.76489L16.9697 7.20759H41.6779C42.7767 7.20759 43.6694 8.10119 43.6694 9.20063C43.6694 9.3998 43.6384 9.59536 43.5816 9.78469Z" fill="#B30000"/>
<path d="M22.3886 8.9577V11.8211H22.4886V8.9577H22.3886ZM36.2538 11.8211V8.9577H36.1538V11.8211H36.2538ZM28.3941 18.2295V21.1838H28.4941V18.2295H28.3941ZM24.2376 19.7752L24.2377 18.2295L24.1377 18.2295L24.1376 19.7752L24.2376 19.7752ZM22.3886 18.2295V19.7753H22.4886V18.2295H22.3886ZM22.3886 13.5711V16.4794H22.4886V13.5711H22.3886ZM28.3941 13.5711V16.4794H28.4941V13.5711H28.3941ZM24.2377 16.4794V13.5711H24.1377V16.4794H24.2377ZM24.2377 11.8211V8.9577H24.1377V11.8211H24.2377ZM28.3941 8.9577V11.8211H28.4941V8.9577H28.3941ZM30.2483 11.8211V8.9577H30.1483V11.8211H30.2483ZM34.4047 8.9577V11.8211H34.5047V8.9577H34.4047ZM30.2483 16.4794V13.5711H30.1483V16.4794H30.2483ZM34.4047 13.5711V16.4794H34.5047V13.5711H34.4047ZM36.2538 16.4794V13.5711H36.1538V16.4794H36.2538ZM36.2538 21.1533V18.2295H36.1538V21.1533H36.2538ZM30.2483 21.1838V18.2295H30.1483V21.1838H30.2483ZM34.4047 18.2295V21.1838H34.5047V18.2295H34.4047ZM20.2305 29.5124L20.3305 29.5124L20.3305 29.5124L20.2305 29.5124ZM35.1615 30.9136L35.1615 30.8136L35.1615 30.8136L35.1615 30.9136ZM43.0399 11.5348V11.4348H42.966L42.9443 11.5054L43.0399 11.5348ZM42.6117 12.9272L42.5161 12.8979L42.4763 13.0272H42.6117V12.9272ZM13.5697 12.9272V13.0272H13.6971L13.6668 12.9035L13.5697 12.9272ZM13.2292 11.5348L13.3263 11.511L13.3077 11.4348H13.2292V11.5348ZM34.8056 49.1283V49.2283H34.9056L34.9056 49.1283L34.8056 49.1283ZM21.1952 49.1283H21.0952V49.2283H21.1952V49.1283ZM21.1952 44.9075V44.8075H21.0952V44.9075H21.1952ZM34.8055 44.9075L34.9055 44.9075L34.9055 44.8075H34.8055V44.9075ZM43.7364 54.25V54.35H43.8364V54.25H43.7364ZM12.2644 54.25H12.1644V54.35H12.2644V54.25ZM41.4043 50.8779L41.4043 50.9779L41.4043 50.9779L41.4043 50.8779ZM12.2593 2.9073L12.2593 3.0073L12.2596 3.0073L12.2593 2.9073ZM13.1105 3.57798L13.0132 3.60106L13.0133 3.60145L13.1105 3.57798ZM17.269 20.8019L17.3663 20.779L17.3662 20.7785L17.269 20.8019ZM16.7633 21.8127L16.8024 21.9047L16.8025 21.9046L16.7633 21.8127ZM17.1813 28.6617L17.1541 28.7579L17.2593 28.7877L17.2795 28.6802L17.1813 28.6617ZM17.5424 27.5591L17.6326 27.6024L17.6849 27.4932L17.5679 27.4624L17.5424 27.5591ZM18.466 20.8556L18.5633 20.8326L18.5632 20.8322L18.466 20.8556ZM14.1992 3.17614L14.2965 3.15268L14.2963 3.15204L14.1992 3.17614ZM13.544 2.14692L13.6062 2.06865L13.6057 2.06825L13.544 2.14692ZM9.25659 2.32838L9.35659 2.32841V2.32838H9.25659ZM18.0841 11.8211L17.9869 11.8446L18.0054 11.9211H18.0841V11.8211ZM17.3928 8.9577V8.8577H17.2658L17.2956 8.98117L17.3928 8.9577ZM41.9048 9.29042L41.9949 9.33524L41.9988 9.32454L41.9048 9.29042ZM41.879 9.35495L41.7886 9.31225L41.7855 9.31872L41.7834 9.32556L41.879 9.35495ZM41.1206 11.8211V11.9211H41.1945L41.2162 11.8505L41.1206 11.8211ZM27.5773 21.1838L27.4853 21.2228L27.5111 21.2838H27.5773V21.1838ZM24.1876 19.7752L24.1876 19.6752L24.1876 19.6752L24.1876 19.7752ZM22.4386 19.7753L22.4386 19.8753L22.4386 19.8753L22.4386 19.7753ZM20.0033 19.7753L19.9061 19.7987L19.9245 19.8753H20.0033V19.7753ZM19.6319 18.2295V18.1295H19.505L19.5347 18.2529L19.6319 18.2295ZM19.2088 16.4794L19.1116 16.5029L19.1301 16.5794H19.2088V16.4794ZM18.5072 13.5711V13.4711H18.3802L18.41 13.5946L18.5072 13.5711ZM39.6811 16.4794V16.5794H39.7549L39.7767 16.5089L39.6811 16.4794ZM40.5789 13.5711L40.6744 13.6006L40.7144 13.4711H40.5789V13.5711ZM39.1445 18.2295L39.2402 18.2587L39.2795 18.1295H39.1445V18.2295ZM38.9639 18.8223L39.0594 18.852L39.0596 18.8515L38.9639 18.8223ZM37.7618 20.5332L37.8212 20.6136L37.8214 20.6135L37.7618 20.5332ZM36.2038 21.1533L36.2055 21.2539L36.2164 21.2525L36.2038 21.1533ZM34.4547 21.1838V21.2838L34.4565 21.2837L34.4547 21.1838ZM30.6884 28.7994V28.8994H30.7742L30.7872 28.8146L30.6884 28.7994ZM26.1069 28.7994L26.0081 28.8145L26.021 28.8994H26.1069V28.7994ZM25.756 27.6421V27.5421H25.6007L25.665 27.6835L25.756 27.6421ZM31.034 27.6421L31.125 27.6836L31.1895 27.5421H31.034V27.6421ZM15.4064 20.5429L15.4579 20.6286L15.5208 20.5909L15.5036 20.5195L15.4064 20.5429ZM13.9928 14.6768L14.09 14.6534L14.0715 14.5768H13.9928V14.6768ZM7.57452 14.6768V14.5768H7.47452V14.6768H7.57452ZM7.57452 36.8269H7.47452V36.9269H7.57452V36.8269ZM48.4262 36.8269V36.9269H48.5262V36.8269H48.4262ZM48.4262 14.6768H48.5262V14.5768H48.4262V14.6768ZM42.0699 14.6768V14.5768H41.996L41.9743 14.6474L42.0699 14.6768ZM40.6355 19.3377L40.731 19.3675L40.7311 19.3671L40.6355 19.3377ZM38.7988 21.9416L38.8582 22.022L38.8583 22.022L38.7988 21.9416ZM27.6082 22.9338V22.8338H27.5384L27.5143 22.8993L27.6082 22.9338ZM18.9045 25.8921V25.9921H18.9377L18.9644 25.9722L18.9045 25.8921ZM21.6285 24.9799V25.0799L21.6286 25.0799L21.6285 24.9799ZM24.3526 25.8921L24.2924 25.9719L24.3191 25.9921H24.3526V25.8921ZM32.4373 25.8921V25.9921H32.4708L32.4976 25.9719L32.4373 25.8921ZM35.1614 24.9799L35.1613 25.0799H35.1614V24.9799ZM30.7502 30.5494L30.8476 30.5266L30.8295 30.4494H30.7502V30.5494ZM26.0398 30.5494V30.4494H25.9605L25.9424 30.5266L26.0398 30.5494ZM17.1967 30.4596L17.2945 30.4387L17.2804 30.3732L17.2146 30.3612L17.1967 30.4596ZM43.5816 9.78469L43.4859 9.75597L43.4473 9.88469H43.5816V9.78469ZM16.9697 7.20759L16.8725 7.23107L16.891 7.30759H16.9697V7.20759ZM15.8965 2.76489L15.9937 2.74141L15.9937 2.74136L15.8965 2.76489ZM14.6273 0.772297L14.6893 0.693772L14.6889 0.693501L14.6273 0.772297ZM12.3882 0L12.3883 -0.1H12.3882V0ZM11.573 4.6573L11.6703 4.63382L11.6518 4.5573H11.573V4.6573ZM12.8113 9.78469V9.88469H12.9383L12.9085 9.76121L12.8113 9.78469ZM19.441 44.9074H19.541V44.8074H19.441V44.9074ZM19.441 49.1282V49.2282H19.541V49.1282H19.441ZM36.5598 49.1283H36.4598V49.2283H36.5598V49.1283ZM36.5598 44.9075V44.8075H36.4598V44.9075H36.5598ZM53.3172 14.4178L53.2172 14.4178V14.4178H53.3172ZM41.8915 9.32347L41.7973 9.28972L41.7973 9.28973L41.8915 9.32347ZM16.3326 12.0159L16.4298 11.9924L16.4298 11.9924L16.3326 12.0159ZM21.6287 28.2117C22.3476 28.2117 22.9319 28.794 22.9319 29.5124H23.1319C23.1319 28.683 22.4576 28.0117 21.6287 28.0117V28.2117ZM22.9319 29.5124C22.9319 30.2304 22.3474 30.8136 21.6287 30.8136V31.0136C22.4575 31.0136 23.1319 30.3412 23.1319 29.5124H22.9319ZM21.6287 30.8136C20.9103 30.8136 20.3305 30.2308 20.3305 29.5124H20.1305C20.1305 30.3406 20.7992 31.0136 21.6287 31.0136V30.8136ZM20.3305 29.5124C20.3304 28.7935 20.9102 28.2117 21.6287 28.2117V28.0117C20.7993 28.0117 20.1304 28.6835 20.1305 29.5125L20.3305 29.5124ZM33.8634 29.5124C33.8634 28.7935 34.4432 28.2117 35.1615 28.2117V28.0117C34.3322 28.0117 33.6634 28.6835 33.6634 29.5124H33.8634ZM35.1615 28.2117C35.8805 28.2117 36.4649 28.794 36.4649 29.5124H36.6649C36.6649 28.683 35.9904 28.0117 35.1615 28.0117V28.2117ZM36.4649 29.5124C36.4649 30.2304 35.8804 30.8136 35.1615 30.8136V31.0136C35.9905 31.0136 36.6649 30.3412 36.6649 29.5124H36.4649ZM35.1615 30.8136C34.4432 30.8137 33.8634 30.2309 33.8634 29.5124H33.6634C33.6634 30.3407 34.3321 31.0138 35.1615 31.0136L35.1615 30.8136ZM51.6682 40.2743V14.4178H51.4682V40.2743H51.6682ZM51.6682 14.4178C51.6682 12.7725 50.3336 11.4348 48.6842 11.4348V11.6348C50.2231 11.6348 51.4682 12.8829 51.4682 14.4178H51.6682ZM48.6842 11.4348H43.0399V11.6348H48.6842V11.4348ZM42.9443 11.5054L42.5161 12.8979L42.7073 12.9566L43.1355 11.5642L42.9443 11.5054ZM42.6117 13.0272H48.7823V12.8272H42.6117V13.0272ZM48.7823 13.0272C49.4956 13.0272 50.0753 13.6086 50.0753 14.3239H50.2753C50.2753 13.4987 49.6066 12.8272 48.7823 12.8272V13.0272ZM50.0753 14.3239V37.7013H50.2753V14.3239H50.0753ZM50.0753 37.7013C50.0753 38.1292 49.7277 38.4763 49.3034 38.4763V38.6763C49.8387 38.6763 50.2753 38.2392 50.2753 37.7013H50.0753ZM49.3034 38.4763H6.69744V38.6763H49.3034V38.4763ZM6.69744 38.4763C6.26831 38.4763 5.9255 38.1296 5.9255 37.7013H5.7255C5.7255 38.2388 6.15663 38.6763 6.69744 38.6763V38.4763ZM5.9255 37.7013V14.3239H5.7255V37.7013H5.9255ZM5.9255 14.3239C5.9255 13.6085 6.5053 13.0272 7.2185 13.0272V12.8272C6.39432 12.8272 5.7255 13.4986 5.7255 14.3239H5.9255ZM7.2185 13.0272H13.5697V12.8272H7.2185V13.0272ZM13.6668 12.9035L13.3263 11.511L13.1321 11.5585L13.4725 12.951L13.6668 12.9035ZM13.2292 11.4348H7.31661V11.6348H13.2292V11.4348ZM7.31661 11.4348C5.66709 11.4348 4.3325 12.7725 4.3325 14.4178H4.5325C4.5325 12.8829 5.77763 11.6348 7.31661 11.6348V11.4348ZM4.3325 14.4178V40.2744H4.5325V14.4178H4.3325ZM4.3325 40.2744C4.3325 41.9187 5.66706 43.2574 7.31661 43.2574V43.0574C5.77765 43.0574 4.5325 41.8083 4.5325 40.2744H4.3325ZM7.31661 43.2574H48.6842V43.0574H7.31661V43.2574ZM48.6842 43.2574C50.3338 43.2574 51.6682 41.9185 51.6682 40.2743H51.4682C51.4682 41.8082 50.2231 43.0574 48.6842 43.0574V43.2574ZM34.8056 49.0283H21.1952V49.2283H34.8056V49.0283ZM21.2952 49.1283V44.9075H21.0952V49.1283H21.2952ZM21.1952 45.0075H34.8055V44.8075H21.1952V45.0075ZM34.7055 44.9075L34.7056 49.1283L34.9056 49.1283L34.9055 44.9075L34.7055 44.9075ZM43.6364 52.5644V54.25H43.8364V52.5644H43.6364ZM43.7364 54.15H12.2644V54.35H43.7364V54.15ZM12.3644 54.25V52.5644H12.1644V54.25H12.3644ZM12.3644 52.5644C12.3644 52.1485 12.6076 51.754 13.015 51.4593C13.4218 51.1652 13.9839 50.9779 14.5964 50.9779V50.7779C13.9449 50.7779 13.3411 50.9767 12.8978 51.2973C12.4553 51.6173 12.1644 52.066 12.1644 52.5644H12.3644ZM14.5964 50.9779H41.4043V50.7779H14.5964V50.9779ZM41.4043 50.9779C42.0169 50.9778 42.5791 51.1651 42.9858 51.4593C43.3933 51.754 43.6364 52.1485 43.6364 52.5644H43.8364C43.8364 52.066 43.5456 51.6173 43.103 51.2972C42.6598 50.9767 42.0559 50.7778 41.4043 50.7779L41.4043 50.9779ZM9.83956 3.0073H12.2593V2.8073H9.83956V3.0073ZM12.2596 3.0073C12.4338 3.00672 12.603 3.06508 12.7399 3.17288L12.8636 3.01578C12.6914 2.88005 12.4783 2.80658 12.2589 2.8073L12.2596 3.0073ZM12.7399 3.17288C12.8767 3.28068 12.973 3.43158 13.0132 3.60106L13.2078 3.5549C13.1572 3.34151 13.0359 3.15151 12.8636 3.01578L12.7399 3.17288ZM13.0133 3.60145L17.1718 20.8254L17.3662 20.7785L13.2077 3.55452L13.0133 3.60145ZM17.1716 20.8249C17.2587 21.1943 17.0706 21.573 16.7241 21.7207L16.8025 21.9046C17.2403 21.7181 17.4752 21.2412 17.3663 20.779L17.1716 20.8249ZM16.7242 21.7206C15.3357 22.3104 14.4396 23.6611 14.4396 25.1631H14.6396C14.6396 23.7418 15.4874 22.4633 16.8024 21.9047L16.7242 21.7206ZM14.4396 25.1631C14.4396 26.8712 15.5795 28.3131 17.1541 28.7579L17.2084 28.5655C15.7183 28.1445 14.6396 26.7799 14.6396 25.1631H14.4396ZM17.2795 28.6802C17.3497 28.307 17.4684 27.9447 17.6326 27.6024L17.4522 27.5159C17.2805 27.8739 17.1563 28.2529 17.083 28.6432L17.2795 28.6802ZM17.5679 27.4624C16.5479 27.194 15.7954 26.2635 15.7954 25.1631H15.5954C15.5954 26.3566 16.4113 27.3649 17.517 27.6558L17.5679 27.4624ZM15.7954 25.1631C15.7954 23.8513 16.865 22.7831 18.177 22.7831V22.5831C16.7547 22.5831 15.5954 23.7406 15.5954 25.1631H15.7954ZM18.177 22.7831H25.4516V22.5831H18.177V22.7831ZM25.4516 22.7831C25.8882 22.7831 26.114 22.4217 26.114 22.0861H25.914C25.914 22.344 25.7476 22.5831 25.4516 22.5831V22.7831ZM26.114 22.0861C26.114 21.7211 25.8163 21.4248 25.4516 21.4248V21.6248C25.7063 21.6248 25.914 21.832 25.914 22.0861H26.114ZM25.4516 21.4248H19.3172V21.6248H25.4516V21.4248ZM19.3172 21.4248C18.9555 21.4248 18.6454 21.1796 18.5633 20.8326L18.3687 20.8786C18.4723 21.3167 18.8637 21.6248 19.3172 21.6248V21.4248ZM14.2963 3.15204C14.188 2.71588 13.949 2.34117 13.6062 2.06865L13.4818 2.2252C13.7891 2.46958 14.0042 2.80581 14.1022 3.20024L14.2963 3.15204ZM13.6057 2.06825C13.2578 1.79523 12.8387 1.65 12.3882 1.65V1.85C12.7942 1.85 13.1698 1.9804 13.4823 2.22559L13.6057 2.06825ZM12.3882 1.65H9.83956V1.85H12.3882V1.65ZM9.83956 1.65C9.46538 1.65 9.15659 1.95281 9.15659 2.32838H9.35659C9.35659 2.06519 9.5739 1.85 9.83956 1.85V1.65ZM9.15659 2.32834C9.15647 2.70445 9.46535 3.0073 9.83956 3.0073V2.8073C9.57393 2.8073 9.3565 2.59214 9.35659 2.32841L9.15659 2.32834ZM22.4386 11.7211H18.0841V11.9211H22.4386V11.7211ZM18.1813 11.7977L17.49 8.93423L17.2956 8.98117L17.9869 11.8446L18.1813 11.7977ZM17.3928 9.0577H22.4386V8.8577H17.3928V9.0577ZM41.8202 9.20063C41.8202 9.22016 41.8169 9.23961 41.8108 9.25631L41.9988 9.32454C42.0133 9.28458 42.0202 9.2419 42.0202 9.20063H41.8202ZM41.7834 9.32556L41.025 11.7917L41.2162 11.8505L41.9746 9.38435L41.7834 9.32556ZM41.1206 11.7211H36.2038V11.9211H41.1206V11.7211ZM36.2038 9.0577H41.6777V8.8577H36.2038V9.0577ZM41.6777 9.0577C41.7566 9.0577 41.8202 9.1211 41.8202 9.20063H42.0202C42.0202 9.01087 41.8673 8.8577 41.6777 8.8577V9.0577ZM24.1877 18.3295H28.4441V18.1295H24.1877V18.3295ZM28.4441 21.0838H27.5773V21.2838H28.4441V21.0838ZM27.6694 21.1447C27.3034 20.2821 26.4478 19.6752 25.4516 19.6752V19.8752C26.3645 19.8752 27.1495 20.4314 27.4853 21.2228L27.6694 21.1447ZM25.4516 19.6752H24.1876V19.8752H25.4516V19.6752ZM22.4386 19.6753H20.0033V19.8753H22.4386V19.6753ZM20.1006 19.752L19.7291 18.2062L19.5347 18.2529L19.9061 19.7987L20.1006 19.752ZM19.6319 18.3295H22.4386V18.1295H19.6319V18.3295ZM22.4386 16.3794H19.2088V16.5794H22.4386V16.3794ZM19.3061 16.456L18.6044 13.5477L18.41 13.5946L19.1116 16.5029L19.3061 16.456ZM18.5072 13.6711H22.4386V13.4711H18.5072V13.6711ZM28.4441 16.3794H24.1877V16.5794H28.4441V16.3794ZM24.1877 13.6711H28.4441V13.4711H24.1877V13.6711ZM28.4441 11.7211H24.1877V11.9211H28.4441V11.7211ZM24.1877 9.0577H28.4441V8.8577H24.1877V9.0577ZM30.1983 9.0577H34.4547V8.8577H30.1983V9.0577ZM34.4547 11.7211H30.1983V11.9211H34.4547V11.7211ZM34.4547 16.3794H30.1983V16.5794H34.4547V16.3794ZM30.1983 13.6711H34.4547V13.4711H30.1983V13.6711ZM39.6811 16.3794H36.2038V16.5794H39.6811V16.3794ZM36.2038 13.6711H40.5789V13.4711H36.2038V13.6711ZM40.4833 13.5416L39.5856 16.4499L39.7767 16.5089L40.6744 13.6006L40.4833 13.5416ZM36.2038 18.3295H39.1445V18.1295H36.2038V18.3295ZM39.0489 18.2004L38.8683 18.7932L39.0596 18.8515L39.2402 18.2587L39.0489 18.2004ZM38.8684 18.7927C38.6579 19.4709 38.2523 20.0443 37.7022 20.4529L37.8214 20.6135C38.4064 20.179 38.8366 19.5698 39.0594 18.852L38.8684 18.7927ZM37.7024 20.4527C37.2574 20.7813 36.7421 20.984 36.1911 21.0541L36.2164 21.2525C36.8003 21.1783 37.3479 20.963 37.8212 20.6136L37.7024 20.4527ZM34.4547 21.0838H30.1983V21.2838H34.4547V21.0838ZM30.1983 18.3295H34.4547V18.1295H30.1983V18.3295ZM24.5147 29.5124C24.5147 27.9227 23.2213 26.63 21.6287 26.63V26.83C23.111 26.83 24.3147 28.0333 24.3147 29.5124H24.5147ZM21.6287 26.63C20.0411 26.63 18.7478 27.9229 18.7478 29.5124H18.9478C18.9478 28.0333 20.1516 26.83 21.6287 26.83V26.63ZM18.7478 29.5124C18.7478 31.1025 20.0411 32.3948 21.6287 32.3948V32.1948C20.1516 32.1948 18.9478 30.9921 18.9478 29.5124H18.7478ZM21.6287 32.3948C23.2213 32.3948 24.5147 31.1026 24.5147 29.5124H24.3147C24.3147 30.992 23.111 32.1948 21.6287 32.1948V32.3948ZM30.6884 28.6994H26.1069V28.8994H30.6884V28.6994ZM26.2058 28.7843C26.1423 28.3685 26.0155 27.9712 25.8471 27.6007L25.665 27.6835C25.8269 28.0395 25.9477 28.4192 26.0081 28.8145L26.2058 28.7843ZM25.756 27.7421H31.034V27.5421H25.756V27.7421ZM30.943 27.6006C30.7714 27.9771 30.6525 28.3753 30.5896 28.7842L30.7872 28.8146C30.8474 28.4239 30.961 28.0433 31.125 27.6836L30.943 27.6006ZM32.2807 29.5124C32.2807 31.1025 33.5739 32.3948 35.1615 32.3948V32.1948C33.6844 32.1948 32.4807 30.9921 32.4807 29.5124H32.2807ZM35.1615 32.3948C36.7544 32.3948 38.0424 31.1024 38.0424 29.5124H37.8424C37.8424 30.9922 36.6436 32.1948 35.1615 32.1948V32.3948ZM38.0424 29.5124C38.0424 27.9229 36.7544 26.63 35.1615 26.63V26.83C36.6436 26.83 37.8424 28.0331 37.8424 29.5124H38.0424ZM35.1615 26.63C33.574 26.63 32.2807 27.9229 32.2807 29.5124H32.4807C32.4807 28.0333 33.6845 26.83 35.1615 26.83V26.63ZM15.5036 20.5195L14.09 14.6534L13.8955 14.7002L15.3092 20.5663L15.5036 20.5195ZM13.9928 14.5768H7.57452V14.7768H13.9928V14.5768ZM7.47452 14.6768V36.8269H7.67452V14.6768H7.47452ZM7.57452 36.9269H48.4262V36.7269H7.57452V36.9269ZM48.5262 36.8269V14.6768H48.3262V36.8269H48.5262ZM48.4262 14.5768H42.0699V14.7768H48.4262V14.5768ZM41.9743 14.6474L40.5399 19.3083L40.7311 19.3671L42.1654 14.7062L41.9743 14.6474ZM40.54 19.3079C40.216 20.3468 39.5938 21.2287 38.7393 21.8612L38.8583 22.022C39.7477 21.3636 40.3946 20.4459 40.731 19.3675L40.54 19.3079ZM38.7393 21.8612C37.8797 22.4969 36.8481 22.8338 35.765 22.8338V23.0338C36.8902 23.0338 37.9637 22.6835 38.8582 22.022L38.7393 21.8612ZM35.765 22.8338H27.6082V23.0338H35.765V22.8338ZM27.5143 22.8993C27.2033 23.7458 26.4095 24.3336 25.4516 24.3336V24.5336C26.4955 24.5336 27.3629 23.8914 27.7021 22.9682L27.5143 22.8993ZM25.4516 24.3336H18.177V24.5336H25.4516V24.3336ZM18.177 24.3336C17.725 24.3336 17.3444 24.7112 17.3444 25.1631H17.5444C17.5444 24.8226 17.8345 24.5336 18.177 24.5336V24.3336ZM17.3444 25.1631C17.3444 25.6135 17.7249 25.9921 18.177 25.9921V25.7921C17.8346 25.7921 17.5444 25.5022 17.5444 25.1631H17.3444ZM18.177 25.9921H18.9045V25.7921H18.177V25.9921ZM18.9644 25.9722C19.7116 25.4128 20.6297 25.0799 21.6285 25.0799V24.8799C20.5842 24.8799 19.6244 25.2282 18.8445 25.8121L18.9644 25.9722ZM21.6286 25.0799C22.59 25.0792 23.5253 25.3924 24.2924 25.9719L24.4129 25.8123C23.6111 25.2065 22.6334 24.8791 21.6285 24.8799L21.6286 25.0799ZM24.3526 25.9921H32.4373V25.7921H24.3526V25.9921ZM32.4976 25.9719C33.2647 25.3924 34.2 25.0792 35.1613 25.0799L35.1615 24.8799C34.1566 24.8792 33.1789 25.2066 32.377 25.8123L32.4976 25.9719ZM35.1614 25.0799C37.6085 25.0799 39.5965 27.0685 39.5965 29.5124H39.7965C39.7965 26.958 37.7189 24.8799 35.1614 24.8799V25.0799ZM39.5965 29.5124C39.5965 31.9568 37.6086 33.9454 35.1614 33.9454V34.1454C37.719 34.1454 39.7965 32.0673 39.7965 29.5124H39.5965ZM35.1614 33.9454C33.0678 33.9454 31.3066 32.4833 30.8476 30.5266L30.6528 30.5723C31.1326 32.6171 32.9727 34.1454 35.1614 34.1454V33.9454ZM30.7502 30.4494H26.0398V30.6494H30.7502V30.4494ZM25.9424 30.5266C25.4833 32.4834 23.7272 33.9454 21.6285 33.9454V34.1454C23.8224 34.1454 25.6573 32.6171 26.1371 30.5723L25.9424 30.5266ZM21.6285 33.9454C19.5048 33.9454 17.7233 32.4404 17.2945 30.4387L17.0989 30.4806C17.547 32.5723 19.4082 34.1454 21.6285 34.1454V33.9454ZM17.2146 30.3612C14.7387 29.9107 12.8906 27.7532 12.8906 25.163H12.6906C12.6906 27.8508 14.6087 30.0903 17.1788 30.558L17.2146 30.3612ZM12.8906 25.163C12.8906 23.2866 13.878 21.5777 15.4579 20.6286L15.3549 20.4572C13.7155 21.4419 12.6906 23.2155 12.6906 25.163H12.8906ZM48.6842 9.68469H43.5816V9.88469H48.6842V9.68469ZM43.6774 9.81341C43.7368 9.61547 43.7694 9.41024 43.7694 9.20063H43.5694C43.5694 9.38935 43.54 9.57525 43.4859 9.75597L43.6774 9.81341ZM43.7694 9.20063C43.7694 8.04604 42.8321 7.10759 41.6779 7.10759V7.30759C42.7214 7.30759 43.5694 8.15633 43.5694 9.20063H43.7694ZM41.6779 7.10759H16.9697V7.30759H41.6779V7.10759ZM17.0669 7.18411L15.9937 2.74141L15.7993 2.78837L16.8725 7.23107L17.0669 7.18411ZM15.9937 2.74136C15.7977 1.93173 15.3367 1.2043 14.6893 0.693773L14.5654 0.850821C15.1769 1.33298 15.6136 2.0213 15.7993 2.78842L15.9937 2.74136ZM14.6889 0.693501C14.0319 0.180071 13.2222 -0.0992037 12.3883 -0.1L12.3881 0.1C13.1774 0.100754 13.9438 0.365103 14.5658 0.851093L14.6889 0.693501ZM12.3882 -0.1L9.83956 -0.1V0.1L12.3882 0.1V-0.1ZM9.83956 -0.1C8.49979 -0.1 7.40747 0.989345 7.40747 2.32838H7.60747C7.60747 1.10016 8.6099 0.1 9.83956 0.1V-0.1ZM7.40747 2.32838C7.40747 3.66793 8.49977 4.7573 9.83945 4.7573V4.5573C8.60991 4.5573 7.60747 3.55716 7.60747 2.32838H7.40747ZM9.83945 4.7573H11.573V4.5573H9.83945V4.7573ZM11.4758 4.68077L12.7141 9.80816L12.9085 9.76121L11.6703 4.63382L11.4758 4.68077ZM12.8113 9.68469H7.31661V9.88469H12.8113V9.68469ZM7.31661 9.68469C4.70227 9.68469 2.58359 11.8078 2.58359 14.4177H2.78359C2.78359 11.9181 4.81285 9.88469 7.31661 9.88469V9.68469ZM2.58359 14.4177V40.2743H2.78359V14.4177H2.58359ZM2.58359 40.2743C2.58359 42.8843 4.70238 45.0074 7.31661 45.0074V44.8074C4.81296 44.8074 2.78359 42.774 2.78359 40.2743H2.58359ZM7.31661 45.0074H19.441V44.8074H7.31661V45.0074ZM19.341 44.9074V49.1282H19.541V44.9074H19.341ZM19.441 49.0282H14.5964V49.2282H19.441V49.0282ZM14.5964 49.0282C12.3086 49.0282 10.4154 50.5981 10.4154 52.5643H10.6154C10.6154 50.7394 12.3854 49.2282 14.5964 49.2282V49.0282ZM10.4154 52.5643V55.125H10.6154V52.5643H10.4154ZM10.4154 55.125C10.4154 55.6639 10.8525 56.1 11.3925 56.1V55.9C10.9625 55.9 10.6154 55.553 10.6154 55.125H10.4154ZM11.3925 56.1H44.6083V55.9H11.3925V56.1ZM44.6083 56.1C45.1483 56.1 45.5854 55.6639 45.5854 55.125H45.3854C45.3854 55.553 45.0383 55.9 44.6083 55.9V56.1ZM45.5854 55.125V52.5644H45.3854V55.125H45.5854ZM45.5854 52.5644C45.5854 50.5982 43.6922 49.0283 41.4044 49.0283V49.2283C43.6154 49.2283 45.3854 50.7395 45.3854 52.5644H45.5854ZM41.4044 49.0283H36.5598V49.2283H41.4044V49.0283ZM36.6598 49.1283V44.9075H36.4598V49.1283H36.6598ZM36.5598 45.0075H48.6842V44.8075H36.5598V45.0075ZM48.6842 45.0075C51.2985 45.0075 53.4172 42.8844 53.4172 40.2744H53.2172C53.2172 42.7741 51.188 44.8075 48.6842 44.8075V45.0075ZM53.4172 40.2744V14.4178H53.2172V40.2744H53.4172ZM53.4172 14.4178C53.4173 11.8078 51.2985 9.68469 48.6842 9.68469V9.88469C51.188 9.88469 53.2173 11.9181 53.2172 14.4178L53.4172 14.4178ZM22.4386 11.9211H24.1877V11.7211H22.4386V11.9211ZM28.4441 11.9211H30.1983V11.7211H28.4441V11.9211ZM34.4547 11.9211H36.2038V11.7211H34.4547V11.9211ZM36.2038 8.8577H34.4547V9.0577H36.2038V8.8577ZM30.1983 8.8577H28.4441V9.0577H30.1983V8.8577ZM24.1877 8.8577H22.4386V9.0577H24.1877V8.8577ZM41.9694 9.39766C41.9768 9.38209 41.9821 9.36701 41.9856 9.35721L41.7973 9.28973C41.7934 9.30081 41.7911 9.30685 41.7886 9.31225L41.9694 9.39766ZM41.9856 9.35722C41.99 9.34507 41.9921 9.33954 41.9943 9.33496L41.8153 9.24589C41.8069 9.26273 41.801 9.2794 41.7973 9.28972L41.9856 9.35722ZM22.4386 13.6711H24.1877V13.4711H22.4386V13.6711ZM24.1877 16.3794H22.4386V16.5794H24.1877V16.3794ZM28.4441 13.6711H30.1983V13.4711H28.4441V13.6711ZM30.1983 16.3794H28.4441V16.5794H30.1983V16.3794ZM34.4547 13.6711H36.2038V13.4711H34.4547V13.6711ZM36.2038 16.3794H34.4547V16.5794H36.2038V16.3794ZM22.4386 18.3295H24.1877V18.1295H22.4386V18.3295ZM24.1876 19.6752L22.4386 19.6753L22.4386 19.8753L24.1876 19.8752L24.1876 19.6752ZM28.4441 18.3295H30.1983V18.1295H28.4441V18.3295ZM30.1983 21.0838H28.4441V21.2838H30.1983V21.0838ZM34.4547 18.3295H36.2038V18.1295H34.4547V18.3295ZM36.202 21.0534L34.453 21.0838L34.4565 21.2837L36.2055 21.2533L36.202 21.0534ZM18.5632 20.8322L16.4298 11.9924L16.2354 12.0393L18.3688 20.8791L18.5632 20.8322ZM16.4298 11.9924L14.2965 3.15268L14.102 3.1996L16.2354 12.0393L16.4298 11.9924Z" fill="white" mask="url(#path-2-inside-1_283_6739)"/>
</svg>
