<svg width="32" height="32" viewBox="0 0 32 32" fill="none" xmlns="http://www.w3.org/2000/svg">
<g clip-path="url(#clip0_283_4287)">
<path opacity="0.3" d="M26.6693 8H5.33594L16.0026 14.6667L26.6693 8Z" fill="#FF0000" stroke="#FF0000" stroke-width="1.33333"/>
<path d="M26.6641 5.3335H5.33073C3.86406 5.3335 2.6774 6.5335 2.6774 8.00016L2.66406 24.0002C2.66406 25.4668 3.86406 26.6668 5.33073 26.6668H26.6641C28.1307 26.6668 29.3307 25.4668 29.3307 24.0002V8.00016C29.3307 6.5335 28.1307 5.3335 26.6641 5.3335ZM25.3307 24.0002H6.66406C5.93073 24.0002 5.33073 23.4002 5.33073 22.6668V10.6668L14.5841 16.4535C15.4507 17.0002 16.5441 17.0002 17.4107 16.4535L26.6641 10.6668V22.6668C26.6641 23.4002 26.0641 24.0002 25.3307 24.0002ZM15.9974 14.6668L5.33073 8.00016H26.6641L15.9974 14.6668Z" fill="#B30000"/>
</g>
<defs>
<clipPath id="clip0_283_4287">
<rect width="32" height="32" fill="white"/>
</clipPath>
</defs>
</svg>
