<svg width="48" height="48" viewBox="0 0 48 48" fill="none" xmlns="http://www.w3.org/2000/svg">
    <path d="M39.025 34.416v-8.765c0-2.457-2.813-3.696-4.637-2.361-.816-1.901-3.274-2.227-4.618-1.037-.873-1.392-2.736-1.68-3.955-.96v-1.018a6.247 6.247 0 0 0 3.283-4.79h2.218c.326 1.229 1.44 2.15 2.774 2.15a2.88 2.88 0 0 0 2.88-2.87 2.888 2.888 0 0 0-2.88-2.88c-1.334 0-2.448.921-2.774 2.16h-2.218a6.104 6.104 0 0 0-1.305-3.168l1.564-1.574a2.8 2.8 0 0 0 1.45.412 2.874 2.874 0 1 0 0-5.75 2.872 2.872 0 0 0-2.87 2.87c0 .538.153 1.028.403 1.46l-1.565 1.564a6.164 6.164 0 0 0-3.168-1.315V5.827a2.861 2.861 0 0 0 2.16-2.764 2.88 2.88 0 0 0-5.76 0c0 1.334.922 2.457 2.16 2.774v2.707a6.232 6.232 0 0 0-3.168 1.315l-1.373-1.382a2.843 2.843 0 0 0 0-3.274c-1.45-2.083-4.733-1.401-5.193 1.114a2.874 2.874 0 0 0 .47 2.16 2.875 2.875 0 0 0 3.629.94l1.45 1.46a6.268 6.268 0 0 0-1.306 3.168h-1.997a2.9 2.9 0 0 0-2.314-2.275 2.867 2.867 0 0 0-3.34 2.304 2.864 2.864 0 0 0 2.304 3.34 2.868 2.868 0 0 0 3.254-1.93h2.102a6.224 6.224 0 0 0 3.284 4.791v5.155c-.384-.441-.941-.863-1.776-1.228a4.295 4.295 0 0 0-4.512.69 2.037 2.037 0 0 0-.27 2.862c1.162 1.42 3.255 4.262 4.129 7.286.73 2.525 2.313 4.358 3.523 5.453.163.154.336.297.509.422-.5.144-.874.586-.874 1.133v4.57c0 .652.538 1.19 1.19 1.19h14.708a1.19 1.19 0 0 0 1.19-1.19v-4.57c0-.662-.528-1.19-1.19-1.19h-.394c2.112-1.594 2.823-3.802 2.823-6.442zM34.09 13.325a1.436 1.436 0 1 1 .008 2.869 1.436 1.436 0 0 1-.008-2.87zm-3.283-7.92a1.436 1.436 0 1 1 0 2.87 1.434 1.434 0 0 1 0-2.87zM16.081 8.016a1.426 1.426 0 0 1-1.997-.365 1.378 1.378 0 0 1-.23-1.075c.23-1.248 1.862-1.603 2.591-.547a1.415 1.415 0 0 1-.364 1.987zm-2.813 6.835c-.135.778-.893 1.296-1.68 1.152a1.44 1.44 0 0 1-1.143-1.67c.125-.7.74-1.171 1.402-1.171.902 0 1.584.816 1.42 1.69zm8.179-11.788c0-.788.643-1.43 1.44-1.43.797 0 1.44.642 1.44 1.43 0 .787-.643 1.43-1.44 1.43-.797 0-1.44-.643-1.44-1.43zm-3.38 11.702c0-1.287.5-2.496 1.412-3.408a4.785 4.785 0 0 1 3.408-1.411c1.296 0 2.506.499 3.408 1.41a4.785 4.785 0 0 1 1.411 3.409c0 1.517-.71 2.918-1.891 3.82V16.32c0-1.478-1.171-2.832-2.774-2.909-1.383-.067-2.698.912-3.005 2.41a2.702 2.702 0 0 0-.067.624v2.14a4.797 4.797 0 0 1-1.901-3.82zm18.28 27.533v4.07H22.137v-4.07h14.208zm-4.417-1.45h-6.173c-1.401 0-2.726-.5-3.724-1.411-1.066-.98-2.477-2.602-3.11-4.8-.951-3.274-3.16-6.288-4.398-7.795-.21-.26-.172-.634.116-.883a2.854 2.854 0 0 1 2.976-.442c1.401.624 1.612 1.248 1.93 2.198.124.375.268.807.508 1.248.154.298.49.442.806.365a.71.71 0 0 0 .548-.7V16.444c0-.835.652-1.613 1.545-1.594h.01c.835.039 1.411.74 1.411 1.479V28.215c0 .403.326.72.72.72.403 0 .72-.317.72-.72v-4.397c0-.816.662-1.488 1.478-1.488.845 0 1.488.672 1.488 1.488v4.396c0 .404.317.72.72.72.394 0 .72-.316.72-.72v-3.772c0-.816.663-1.479 1.479-1.479.825 0 1.488.663 1.488 1.479v3.773c0 .403.317.72.72.72.393 0 .72-.317.72-.72V25.65a1.479 1.479 0 0 1 2.957 0v8.765c0 4.34-2.688 6.432-5.655 6.432z" fill="#004498"/>
    <path opacity=".3" d="M36.345 42.297H22.137v4.07h14.208v-4.07zM13.268 14.851c-.134.778-.893 1.296-1.68 1.152a1.44 1.44 0 0 1-1.142-1.67c.124-.701.739-1.171 1.401-1.171.903 0 1.584.816 1.421 1.69zm2.813-6.835a1.426 1.426 0 0 1-1.997-.365 1.378 1.378 0 0 1-.23-1.075c.23-1.248 1.862-1.603 2.592-.547a1.415 1.415 0 0 1-.365 1.987zM22.887 4.493c.796 0 1.44-.64 1.44-1.43 0-.79-.644-1.43-1.44-1.43-.795 0-1.44.64-1.44 1.43 0 .79.645 1.43 1.44 1.43zM32.248 6.835c0 .797-.644 1.44-1.44 1.44a1.434 1.434 0 0 1 0-2.87c.796 0 1.44.643 1.44 1.43zm3.283 7.93a1.436 1.436 0 1 1-2.872-.011 1.436 1.436 0 0 1 2.872.01zm-7.824 0c0 1.517-.71 2.918-1.891 3.82V16.32c0-1.478-1.172-2.832-2.775-2.909-1.382-.067-2.697.912-3.005 2.41a2.702 2.702 0 0 0-.067.624v2.14a4.797 4.797 0 0 1-1.9-3.82c0-1.287.499-2.496 1.41-3.408a4.785 4.785 0 0 1 3.409-1.411c1.296 0 2.505.499 3.408 1.41a4.785 4.785 0 0 1 1.41 3.409z" fill="red"/>
</svg>
