<svg width="32" height="32" viewBox="0 0 32 32" fill="none" xmlns="http://www.w3.org/2000/svg">
    <path opacity=".4" d="m26.033 7.357-1.904 1.53.944 2.527h2.095L28 8.886l-1.967-1.53zM5.727 7.356l-2.61 1.53 1.563 2.528h2.494l.831-2.528-2.278-1.53zM16.218 3.06 12.786 5.07l1.388 3.324h3.948l1.093-3.324-2.997-2.012zM22.564 26.715c-5.21-3.414-8.294-3.384-13.095 0v1.407c5.54 3.362 8.394 3.244 13.095 0v-1.407z" fill="red"/>
    <path d="M16.002 11.63c2.798 0 5.331 1.134 7.164 2.968a10.102 10.102 0 0 1 2.969 7.165c0 2.797-1.134 5.33-2.969 7.164a10.102 10.102 0 0 1-7.164 2.968 10.096 10.096 0 0 1-7.164-2.968 10.102 10.102 0 0 1-2.969-7.164c0-2.798 1.134-5.332 2.969-7.165a10.102 10.102 0 0 1 7.164-2.968zM5.75 7.962l-.223.692a.742.742 0 0 1-.743.514l-.693-.001.59.426a.744.744 0 0 1 .26.86l-.217.667.588-.43a.74.74 0 0 1 .885.01l.576.421-.226-.694a.744.744 0 0 1 .271-.833l.59-.427-.728.001a.743.743 0 0 1-.706-.514l-.224-.692zm-1.471-.279.762-2.36a.743.743 0 0 1 1.416-.005l.763 2.367 2.435-.005a.743.743 0 0 1 .49 1.346L8.13 10.484l.772 2.364h-.001a.745.745 0 0 1-.105.666.744.744 0 0 1-1.037.164L5.75 12.21l-1.965 1.434a.744.744 0 0 1-1.19-.796l.773-2.364-2.014-1.458v-.002a.74.74 0 0 1-.306-.6c0-.41.333-.742.742-.742l2.489.004v-.003zm22.686-2.36.762 2.36 2.489-.004a.743.743 0 0 1 .436 1.342v.002l-2.014 1.458.774 2.364a.743.743 0 0 1-1.191.796l-1.965-1.434-2.01 1.467a.742.742 0 0 1-1.142-.829h-.001l.772-2.364-2.014-1.458a.745.745 0 0 1 .49-1.346l2.435.005.763-2.367a.742.742 0 0 1 1.416.004v.003zm-.486 3.33-.223-.69-.224.69a.743.743 0 0 1-.706.515l-.728-.001.59.426a.745.745 0 0 1 .271.832l-.226.695.576-.422a.744.744 0 0 1 .885-.009l.588.43-.218-.668a.746.746 0 0 1 .261-.86l.59-.426-.693.002a.746.746 0 0 1-.743-.515v.002zM16.712.627l.991 3.073 3.237-.006a.743.743 0 0 1 .437 1.344l.001.002-2.622 1.897 1.005 3.075a.744.744 0 0 1-1.19.797l-2.569-1.875-2.614 1.908a.743.743 0 0 1-1.142-.83h-.001l1.005-3.075-2.623-1.897a.745.745 0 0 1 .491-1.346l3.183.006.993-3.078a.743.743 0 0 1 1.416.005h.002zm-.255 4.044-.453-1.404-.453 1.404a.743.743 0 0 1-.708.514l-1.476-.003 1.195.866a.743.743 0 0 1 .27.832l-.459 1.406 1.182-.861a.745.745 0 0 1 .885-.01l1.194.87-.451-1.378a.743.743 0 0 1 .262-.858l1.196-.865-1.442.003a.745.745 0 0 1-.742-.515V4.67zm-.453 18.42a3.158 3.158 0 0 0 3.162-3.162 3.157 3.157 0 0 0-3.162-3.162 3.158 3.158 0 0 0-3.162 3.162 3.158 3.158 0 0 0 3.162 3.162zm3.29.128c-.11.11-.226.214-.346.312a10.043 10.043 0 0 1 4.412 2.774 8.608 8.608 0 0 0 1.287-4.541 8.62 8.62 0 0 0-2.53-6.112 8.613 8.613 0 0 0-6.112-2.53 8.62 8.62 0 0 0-6.111 2.53 8.613 8.613 0 0 0-2.53 6.112c0 1.665.47 3.22 1.286 4.54a10.018 10.018 0 0 1 4.412-2.773 4.64 4.64 0 0 1-1.709-3.601c0-1.285.521-2.449 1.364-3.29a4.64 4.64 0 0 1 3.29-1.364c1.284 0 2.448.52 3.29 1.364a4.64 4.64 0 0 1 1.363 3.29c0 1.283-.52 2.447-1.364 3.289h-.003zm3.157 4.302a8.502 8.502 0 0 0-6.447-2.939 8.526 8.526 0 0 0-3.803.89 8.563 8.563 0 0 0-2.644 2.049 8.613 8.613 0 0 0 6.447 2.886 8.62 8.62 0 0 0 6.447-2.886z" fill="#004498"/>
</svg>
