<svg width="493" height="351" viewBox="0 0 493 351" fill="none" xmlns="http://www.w3.org/2000/svg">
<circle cx="251.176" cy="174.672" r="174.672" fill="#FFE2E5"/>
<mask id="mask0_308_525" style="mask-type:alpha" maskUnits="userSpaceOnUse" x="76" y="0" width="350" height="350">
<circle cx="251.176" cy="174.672" r="174.672" fill="#CEE7FF"/>
</mask>
<g mask="url(#mask0_308_525)">
<g filter="url(#filter0_d_308_525)">
<rect x="172" y="112" width="158" height="246" rx="12" fill="white"/>
<rect x="169" y="109" width="164" height="252" rx="15" stroke="#E2F1FF" stroke-width="6"/>
</g>
<path d="M172 124C172 117.373 177.373 112 184 112H318C324.627 112 330 117.373 330 124V149H172V124Z" fill="#085E56"/>
<path d="M248.765 29.894C249.782 29.7413 250.561 30.1838 251.41 30.6505L258.945 34.685C261.71 36.1284 261.833 35.9478 261.824 39.2916C261.821 40.5773 261.806 41.8649 261.845 43.15C266.09 43.9292 268.043 49.0439 265.472 52.3437C265.662 52.6347 265.792 52.9804 265.952 53.2894L267.858 56.9778C268.039 57.3308 268.241 57.6836 268.361 58.0625C268.277 58.3141 268.176 58.3783 267.922 58.4662C267.005 58.0817 262.388 55.2488 261.936 54.6074C261.28 54.6448 260.393 54.7595 259.766 54.5913C259.083 55.4197 256.76 56.7783 255.832 57.3553C255.348 57.6556 254.534 58.2729 254.001 58.3766C253.308 58.0585 253.773 57.5435 254.016 57.0535C254.272 56.5345 254.541 56.0176 254.772 55.4869L250.715 57.8066C247.981 59.3458 248.114 59.5537 245.508 58.0223L238.145 53.6738C237.235 53.1353 235.617 52.3829 234.836 51.777C233.681 50.8806 233.967 49.2726 233.967 47.9966L233.967 40.1866C233.966 38.8988 233.717 37.7931 235.018 37.0174C235.669 36.6289 236.362 36.3075 237.026 35.9411L246.204 30.9692C247.007 30.5378 247.837 29.9866 248.765 29.894ZM234.819 40.0641L234.82 49.0293C234.818 51.2038 235.137 50.9951 236.916 52.004L239.217 53.327C241.933 54.8974 244.608 56.5345 247.345 58.0692L247.334 46.1474C247.334 45.8782 247.29 45.3801 247.354 45.1359C247.025 45.2018 245.787 44.5834 245.91 45.3381L246.002 45.5596C245.861 45.9946 245.537 46.254 245.133 45.9044C244.916 45.6673 244.296 45.3643 243.994 45.1855L237.962 41.667C237.294 41.279 236.639 40.8719 235.955 40.5124C235.742 40.3813 235.572 40.2523 235.401 40.069C235.199 40.033 235.022 40.0422 234.819 40.0641Z" fill="black"/>
<path d="M256.877 53.2592C257.46 53.7264 258.08 54.0469 258.757 54.3513C258.129 54.9385 256.914 55.6747 256.172 56.1455L254.98 56.8808C255.653 55.6934 256.145 54.4159 256.877 53.2592ZM264.876 53.0781C264.956 53.1221 266.78 56.6662 266.973 57.067C266.62 56.7494 266.18 56.4956 265.784 56.2332C264.811 55.6056 263.821 55.0339 262.88 54.355C263.704 53.9769 264.2 53.6898 264.876 53.0781Z" fill="#FEE56F"/>
<path d="M235.156 37.9883C235.846 38.2108 237.218 39.0766 237.876 39.4617L242.446 42.1437C243.736 42.9002 245.032 43.6342 246.299 44.4283C246.569 44.5971 247.108 44.8807 247.328 45.0685L247.354 45.1346C247.025 45.2006 245.787 44.5822 245.91 45.3368L246.002 45.5584C245.861 45.9933 245.537 46.2528 245.133 45.9032C244.916 45.666 244.296 45.363 243.994 45.1843L237.962 41.6657C237.294 41.2777 236.639 40.8706 235.955 40.5111C235.742 40.3801 235.572 40.251 235.401 40.0678C235.199 40.0317 235.022 40.0409 234.819 40.0628C234.789 39.4966 234.681 38.283 235.156 37.9883Z" fill="#FE8932"/>
<path d="M235.4 40.0693C235.348 39.4598 235.658 39.2725 236.202 39.5653C237.266 40.1369 238.362 40.8792 239.427 41.4947L244.089 44.218C244.636 44.5392 245.483 44.8837 245.909 45.3384L246.001 45.5599C245.86 45.9949 245.536 46.2543 245.132 45.9047C244.915 45.6676 244.295 45.3646 243.993 45.1858L237.961 41.6673C237.293 41.2793 236.638 40.8722 235.954 40.5127C235.741 40.3816 235.571 40.2526 235.4 40.0693Z" fill="black"/>
<path d="M260.411 43.907C261.699 43.768 263.086 44.237 264.053 45.0892C267.383 48.0235 265.55 53.5809 261.157 53.8121C258.449 53.9483 256.018 52.1139 255.791 49.3499C255.562 46.5688 257.632 44.1308 260.411 43.907Z" fill="#FEE56F"/>
<path d="M260.802 46.1914C261.277 46.2405 261.663 47.4563 262.081 47.781C262.541 48.1385 263.273 48.0664 263.801 48.2927L263.83 48.3051C263.887 48.3684 263.931 48.4421 263.977 48.5132C263.731 49.4066 263.051 49.4353 262.648 50.0771C262.635 50.4346 263.045 51.7659 262.669 51.9433C262.449 52.0468 261.131 51.4823 260.849 51.368C260.286 51.4449 259.154 52.4028 258.77 51.6811C258.744 51.2229 258.919 50.595 258.95 50.0957C258.684 49.694 257.499 48.9919 257.721 48.4672C257.941 47.9477 259.132 48.0947 259.605 47.7857C260.172 47.4154 260.153 46.4356 260.802 46.1914Z" fill="#FE8932"/>
<path d="M260.954 37.9688L260.985 37.9845C261.167 39.3296 260.942 41.5621 261.008 43.047C255.906 43.002 253.066 48.6897 256.272 52.5888C255.677 53.8038 255.72 53.9871 254.635 54.5875L249.139 57.7256C248.829 57.8974 248.528 58.0683 248.191 58.1835C248.166 57.4384 248.183 56.6877 248.183 55.9421L248.184 47.3882C248.184 46.6295 248.165 45.8679 248.185 45.1097C249.299 44.4126 250.652 43.7583 251.832 43.0819L258.185 39.5224C259.109 39.0043 260.023 38.4754 260.954 37.9688ZM234.818 40.0643C235.021 40.0424 235.198 40.0332 235.401 40.0693C235.571 40.2526 235.741 40.3816 235.954 40.5126C236.638 40.8721 237.294 41.2792 237.962 41.6672L243.994 45.1858C244.295 45.3645 244.915 45.6676 245.132 45.9047C245.537 46.2543 245.86 45.9948 246.001 45.5599L245.91 45.3383C245.786 44.5837 247.024 45.2021 247.353 45.1361C247.289 45.3804 247.333 45.8785 247.333 46.1477L247.344 58.0695C244.608 56.5347 241.932 54.8976 239.217 53.3273L236.915 52.0043C235.136 50.9954 234.817 51.204 234.82 49.0295L234.818 40.0643ZM235.954 40.5126C235.659 42.0973 235.915 44.2537 236.825 45.577C238.013 47.3036 240.282 48.8317 242.316 49.1939C245.259 49.7178 245.006 48.1423 245.132 45.9047C244.915 45.6676 244.295 45.3645 243.994 45.1858L237.962 41.6672C237.294 41.2792 236.638 40.8721 235.954 40.5126Z" fill="#FEE56F"/>
<path d="M236.103 48.8399C236.634 48.8316 237.982 49.7983 238.47 50.0971L244.194 53.5644C244.659 53.8402 246.031 54.3206 245.129 54.9946C244.714 54.9949 237.892 50.7553 237.143 50.3319C236.729 50.0979 235.117 49.4674 236.103 48.8399Z" fill="black"/>
<path d="M248.868 30.7023C249.709 30.6394 250.352 31.0131 251.065 31.3994L258.576 35.441C259.235 35.7861 260.53 36.2877 260.864 36.9764C260.354 37.3439 259.631 37.6859 259.07 38.0041L255.241 40.1477C254.837 40.3694 254.447 40.6168 254.049 40.8494L252.286 41.859C250.885 42.6634 249.453 43.4422 248.019 44.1864C247.717 44.3582 247.26 43.9304 246.995 43.7772L236.029 37.4163C236.466 37.2228 236.885 36.9814 237.306 36.7558L247.197 31.4235C247.74 31.1302 248.237 30.7674 248.868 30.7023Z" fill="#FEE56F"/>
<path d="M249.375 31.9087C249.603 31.8879 249.834 31.9997 249.89 32.2373C250.016 32.7823 249.054 33.0844 248.693 33.2681C246.069 34.6042 243.471 36.2169 240.87 37.6354C240.463 37.8574 240.063 38.221 239.61 38.3253C239.394 38.3336 239.212 38.22 239.129 38.0172C238.87 37.3877 240.114 36.9776 240.509 36.7654C241.405 36.2837 242.304 35.7982 243.191 35.3002L246.984 33.1609C247.69 32.7621 248.615 32.1677 249.375 31.9087ZM254.987 34.5587C255.309 34.5106 255.687 34.8729 255.508 35.1909C255.323 35.5197 254.299 35.9728 253.964 36.1583L248.326 39.3388C247.643 39.7167 245.759 40.8593 245.234 41.0154C244.593 41.0792 244.499 40.374 245.005 40.0752C245.32 39.8889 245.666 39.7416 245.987 39.5616L250.38 37.1128C251.698 36.3681 253.661 35.1145 254.987 34.5587ZM252.312 33.1192C252.942 33.076 253.187 33.7165 252.614 34.0505C252.182 34.3031 251.713 34.5069 251.273 34.7514L246.118 37.6243C245.324 38.0719 244.52 38.5063 243.73 38.9611C243.377 39.1646 243.074 39.4355 242.688 39.5768C242.303 39.6526 241.899 39.3379 242.102 38.9243C242.295 38.5314 243.729 37.8995 244.133 37.679L247.298 35.9142C248.597 35.1731 249.893 34.4261 251.211 33.7174C251.574 33.5217 251.922 33.2574 252.312 33.1192ZM257.776 35.9282C258.083 35.9075 258.389 36.3373 258.241 36.6067C258.168 36.7393 250.015 41.3058 248.705 42.0124C248.338 42.2107 247.981 42.476 247.575 42.5852C247.253 42.5737 246.916 42.3058 247.086 41.9519C247.282 41.5455 248.065 41.3334 248.432 41.1226L256.306 36.703C256.784 36.4354 257.257 36.1076 257.776 35.9282Z" fill="black"/>
<path d="M181.762 76.842V87.876H187.27V90H179.458V76.842H181.762ZM188.122 85.536C188.122 82.764 190.12 80.856 192.874 80.856C195.628 80.856 197.626 82.764 197.626 85.536C197.626 88.308 195.628 90.216 192.874 90.216C190.12 90.216 188.122 88.308 188.122 85.536ZM190.318 85.536C190.318 87.156 191.362 88.254 192.874 88.254C194.386 88.254 195.43 87.156 195.43 85.536C195.43 83.916 194.386 82.818 192.874 82.818C191.362 82.818 190.318 83.916 190.318 85.536ZM198.258 94.122V92.286H199.572C200.436 92.286 200.976 92.088 201.354 91.044L201.606 90.378L198.024 81.108H200.346L202.632 87.588L205.044 81.108H207.312L202.956 91.98C202.29 93.636 201.354 94.32 199.896 94.32C199.284 94.32 198.744 94.248 198.258 94.122ZM210.766 90.234C208.876 90.234 207.724 89.136 207.724 87.462C207.724 85.824 208.912 84.798 211.018 84.636L213.682 84.438V84.24C213.682 83.034 212.962 82.548 211.846 82.548C210.55 82.548 209.83 83.088 209.83 84.024H207.958C207.958 82.098 209.542 80.838 211.954 80.838C214.348 80.838 215.824 82.134 215.824 84.6V90H213.898L213.736 88.686C213.358 89.604 212.152 90.234 210.766 90.234ZM211.486 88.578C212.836 88.578 213.7 87.768 213.7 86.4V85.932L211.846 86.076C210.478 86.202 209.956 86.652 209.956 87.372C209.956 88.182 210.496 88.578 211.486 88.578ZM220.196 90H218.018V76.608H220.196V90ZM225.523 90H223.327V82.944H221.617V81.108H223.327V78.336H225.523V81.108H227.251V82.944H225.523V90ZM227.842 94.122V92.286H229.156C230.02 92.286 230.56 92.088 230.938 91.044L231.19 90.378L227.608 81.108H229.93L232.216 87.588L234.628 81.108H236.896L232.54 91.98C231.874 93.636 230.938 94.32 229.48 94.32C228.868 94.32 228.328 94.248 227.842 94.122ZM248.521 85.464H245.623V90H243.319V76.842H248.521C251.167 76.842 252.877 78.57 252.877 81.144C252.877 83.682 251.149 85.464 248.521 85.464ZM248.071 78.894H245.623V83.412H248.035C249.619 83.412 250.465 82.566 250.465 81.126C250.465 79.686 249.601 78.894 248.071 78.894ZM260.071 81.072V83.106H259.261C257.677 83.106 256.687 83.952 256.687 85.68V90H254.491V81.126H256.561L256.687 82.422C257.065 81.54 257.911 80.946 259.099 80.946C259.405 80.946 259.711 80.982 260.071 81.072ZM260.737 85.536C260.737 82.764 262.735 80.856 265.489 80.856C268.243 80.856 270.241 82.764 270.241 85.536C270.241 88.308 268.243 90.216 265.489 90.216C262.735 90.216 260.737 88.308 260.737 85.536ZM262.933 85.536C262.933 87.156 263.977 88.254 265.489 88.254C267.001 88.254 268.045 87.156 268.045 85.536C268.045 83.916 267.001 82.818 265.489 82.818C263.977 82.818 262.933 83.916 262.933 85.536ZM271.478 85.356C271.478 82.764 273.17 80.82 275.708 80.82C277.04 80.82 278.084 81.378 278.606 82.332L278.732 81.108H280.766V89.55C280.766 92.52 278.984 94.374 276.104 94.374C273.548 94.374 271.802 92.916 271.532 90.54H273.728C273.872 91.692 274.754 92.376 276.104 92.376C277.616 92.376 278.588 91.422 278.588 89.946V88.47C278.03 89.298 276.932 89.82 275.654 89.82C273.134 89.82 271.478 87.93 271.478 85.356ZM273.692 85.302C273.692 86.796 274.646 87.912 276.086 87.912C277.598 87.912 278.534 86.85 278.534 85.302C278.534 83.79 277.616 82.746 276.086 82.746C274.628 82.746 273.692 83.844 273.692 85.302ZM288.618 81.072V83.106H287.808C286.224 83.106 285.234 83.952 285.234 85.68V90H283.038V81.126H285.108L285.234 82.422C285.612 81.54 286.458 80.946 287.646 80.946C287.952 80.946 288.258 80.982 288.618 81.072ZM292.399 90.234C290.509 90.234 289.357 89.136 289.357 87.462C289.357 85.824 290.545 84.798 292.651 84.636L295.315 84.438V84.24C295.315 83.034 294.595 82.548 293.479 82.548C292.183 82.548 291.463 83.088 291.463 84.024H289.591C289.591 82.098 291.175 80.838 293.587 80.838C295.981 80.838 297.457 82.134 297.457 84.6V90H295.531L295.369 88.686C294.991 89.604 293.785 90.234 292.399 90.234ZM293.119 88.578C294.469 88.578 295.333 87.768 295.333 86.4V85.932L293.479 86.076C292.111 86.202 291.589 86.652 291.589 87.372C291.589 88.182 292.129 88.578 293.119 88.578ZM301.81 90H299.614V81.108H301.63L301.81 82.152C302.26 81.414 303.16 80.838 304.438 80.838C305.788 80.838 306.724 81.504 307.192 82.53C307.642 81.504 308.686 80.838 310.036 80.838C312.196 80.838 313.384 82.134 313.384 84.186V90H311.206V84.762C311.206 83.484 310.522 82.818 309.478 82.818C308.416 82.818 307.606 83.502 307.606 84.96V90H305.41V84.744C305.41 83.502 304.744 82.836 303.7 82.836C302.656 82.836 301.81 83.52 301.81 84.96V90ZM314.751 87.3H316.839C316.857 88.074 317.433 88.56 318.441 88.56C319.467 88.56 320.025 88.146 320.025 87.498C320.025 87.048 319.791 86.724 318.999 86.544L317.397 86.166C315.795 85.806 315.021 85.05 315.021 83.628C315.021 81.882 316.497 80.838 318.549 80.838C320.547 80.838 321.897 81.99 321.915 83.718H319.827C319.809 82.962 319.305 82.476 318.459 82.476C317.595 82.476 317.091 82.872 317.091 83.538C317.091 84.042 317.487 84.366 318.243 84.546L319.845 84.924C321.339 85.266 322.095 85.95 322.095 87.318C322.095 89.118 320.565 90.234 318.369 90.234C316.155 90.234 314.751 89.046 314.751 87.3Z" fill="#000247"/>
</g>
<path d="M424.018 32C431.878 38.6885 443.588 55.2131 427.555 67.8033C422.545 71.7377 416.316 66.7803 426.376 59.541C438.951 50.4918 462.53 74.8852 459.779 104" stroke="#000247" stroke-width="2"/>
<path d="M66.5 53L71.647 62.353L81 67.5L71.647 72.647L66.5 82L61.353 72.647L52 67.5L61.353 62.353L66.5 53Z" fill="#FDEFF0"/>
<path d="M426.5 235L430.227 241.773L437 245.5L430.227 249.227L426.5 256L422.773 249.227L416 245.5L422.773 241.773L426.5 235Z" fill="#FDEFF0"/>
<g filter="url(#filter1_d_308_525)">
<rect x="34" y="119" width="228" height="138" rx="12" fill="white"/>
</g>
<path d="M47.908 144H47.044V135.408H47.908V139.236H52.552V135.408H53.404V144H52.552V140.04H47.908V144ZM57.7609 144.144C56.0569 144.144 54.9169 142.92 54.9169 141.096C54.9169 139.284 56.0449 138.036 57.7009 138.036C59.2729 138.036 60.3409 139.152 60.3409 140.796V141.204H55.7209C55.7809 142.62 56.5249 143.436 57.7729 143.436C58.7209 143.436 59.3329 143.028 59.5489 142.26H60.3409C60.0289 143.484 59.1289 144.144 57.7609 144.144ZM57.7009 138.744C56.6089 138.744 55.8889 139.464 55.7449 140.604H59.5129C59.5129 139.488 58.7929 138.744 57.7009 138.744ZM60.9362 146.532V145.848H61.5722C62.0762 145.848 62.5802 145.812 62.8682 145.032L63.1202 144.348L60.7682 138.192H61.6442L63.5162 143.256L65.3522 138.192H66.2042L63.5402 145.332C63.2042 146.244 62.6402 146.616 61.8122 146.616C61.4642 146.616 61.2002 146.592 60.9362 146.532ZM70.6807 144H69.8047L72.9607 135.408H74.0287L77.2207 144H76.3207L75.4807 141.72H71.5207L70.6807 144ZM73.3807 136.62L71.7847 140.964H75.2047L73.5967 136.62C73.5607 136.5 73.5007 136.356 73.4887 136.272C73.4767 136.344 73.4287 136.5 73.3807 136.62ZM79.0631 144H78.2351V138.192H78.9551L79.0751 139.2C79.4591 138.456 80.2271 138.036 81.0671 138.036C82.6631 138.036 83.3231 138.984 83.3231 140.448V144H82.4951V140.628C82.4951 139.272 81.8831 138.792 80.9231 138.792C79.7351 138.792 79.0631 139.656 79.0631 140.964V144ZM85.3814 136.596C85.0454 136.596 84.7694 136.32 84.7694 135.984C84.7694 135.648 85.0454 135.36 85.3814 135.36C85.7174 135.36 86.0054 135.648 86.0054 135.984C86.0054 136.32 85.7174 136.596 85.3814 136.596ZM84.9734 144V138.192H85.8014V144H84.9734ZM88.3561 144H87.5281V138.192H88.2481L88.3441 139.02C88.6321 138.408 89.2801 138.036 90.0961 138.036C91.0081 138.036 91.6921 138.516 91.9681 139.272C92.2321 138.516 92.9401 138.036 93.8761 138.036C95.1361 138.036 95.9641 138.852 95.9641 140.196V144H95.1601V140.364C95.1601 139.368 94.6081 138.78 93.7201 138.78C92.7481 138.78 92.1721 139.512 92.1721 140.412V144H91.3561V140.352C91.3561 139.368 90.7921 138.792 89.9161 138.792C88.9441 138.792 88.3561 139.512 88.3561 140.4V144ZM100.066 144.144C98.3616 144.144 97.2216 142.92 97.2216 141.096C97.2216 139.284 98.3496 138.036 100.006 138.036C101.578 138.036 102.646 139.152 102.646 140.796V141.204H98.0256C98.0856 142.62 98.8296 143.436 100.078 143.436C101.026 143.436 101.638 143.028 101.854 142.26H102.646C102.334 143.484 101.434 144.144 100.066 144.144ZM100.006 138.744C98.9136 138.744 98.1936 139.464 98.0496 140.604H101.818C101.818 139.488 101.098 138.744 100.006 138.744ZM103.477 142.368H104.269C104.269 143.04 104.773 143.46 105.589 143.46C106.489 143.46 107.017 143.076 107.017 142.452C107.017 141.972 106.777 141.696 106.093 141.528L105.097 141.276C104.089 141.024 103.597 140.496 103.597 139.704C103.597 138.684 104.449 138.036 105.697 138.036C106.921 138.036 107.713 138.708 107.749 139.788H106.945C106.921 139.116 106.453 138.72 105.673 138.72C104.857 138.72 104.401 139.068 104.401 139.692C104.401 140.136 104.713 140.448 105.349 140.604L106.345 140.856C107.353 141.108 107.809 141.576 107.809 142.416C107.809 143.46 106.921 144.144 105.601 144.144C104.293 144.144 103.477 143.448 103.477 142.368ZM110.001 143.988H109.173V135.252H110.001V139.2C110.373 138.504 111.081 138.036 112.053 138.036C113.577 138.036 114.261 138.984 114.261 140.448V144H113.433V140.628C113.433 139.272 112.797 138.792 111.897 138.792C110.649 138.792 110.001 139.716 110.001 140.832V143.988ZM117.375 143.592C117.375 144.336 116.799 144.984 116.055 145.092V144.648C116.487 144.576 116.799 144.264 116.799 143.928C116.727 143.976 116.631 144.012 116.487 144.012C116.151 144.012 115.863 143.772 115.863 143.364C115.863 142.944 116.151 142.644 116.571 142.644C117.003 142.644 117.375 142.992 117.375 143.592Z" fill="#000247"/>
<path d="M47.044 165H46.168L49.324 156.408H50.392L53.584 165H52.684L51.844 162.72H47.884L47.044 165ZM49.744 157.62L48.148 161.964H51.568L49.96 157.62C49.924 157.5 49.864 157.356 49.852 157.272C49.84 157.344 49.792 157.5 49.744 157.62ZM54.1064 163.368H54.8984C54.8984 164.04 55.4024 164.46 56.2184 164.46C57.1184 164.46 57.6464 164.076 57.6464 163.452C57.6464 162.972 57.4064 162.696 56.7224 162.528L55.7264 162.276C54.7184 162.024 54.2264 161.496 54.2264 160.704C54.2264 159.684 55.0784 159.036 56.3264 159.036C57.5504 159.036 58.3424 159.708 58.3784 160.788H57.5744C57.5504 160.116 57.0824 159.72 56.3024 159.72C55.4864 159.72 55.0304 160.068 55.0304 160.692C55.0304 161.136 55.3424 161.448 55.9784 161.604L56.9744 161.856C57.9824 162.108 58.4384 162.576 58.4384 163.416C58.4384 164.46 57.5504 165.144 56.2304 165.144C54.9224 165.144 54.1064 164.448 54.1064 163.368ZM64.7976 165.144C63.5616 165.144 62.8296 164.448 62.8296 163.428C62.8296 162.36 63.6456 161.688 65.0016 161.58L66.9216 161.424V161.232C66.9216 160.092 66.2376 159.732 65.3856 159.732C64.3776 159.732 63.7776 160.188 63.7776 160.968H63.0216C63.0216 159.792 63.9816 159.036 65.4096 159.036C66.7536 159.036 67.7376 159.708 67.7376 161.244V165H67.0416L66.9336 163.98C66.5736 164.712 65.7816 165.144 64.7976 165.144ZM64.9896 164.472C66.2136 164.472 66.9216 163.62 66.9216 162.36V162.048L65.2056 162.18C64.1136 162.276 63.6696 162.756 63.6696 163.404C63.6696 164.112 64.1976 164.472 64.9896 164.472ZM74.0593 165H73.2433V159.888H72.0793V159.192H73.2433V157.356H74.0593V159.192H75.2233V159.888H74.0593V165ZM75.8349 162.096C75.8349 160.32 77.0829 159.036 78.7869 159.036C80.4909 159.036 81.7389 160.32 81.7389 162.096C81.7389 163.86 80.4909 165.144 78.7869 165.144C77.0829 165.144 75.8349 163.86 75.8349 162.096ZM76.6749 162.084C76.6749 163.452 77.5389 164.4 78.7869 164.4C80.0229 164.4 80.8989 163.452 80.8989 162.084C80.8989 160.74 80.0229 159.78 78.7869 159.78C77.5389 159.78 76.6749 160.74 76.6749 162.084ZM83.9272 165H83.0992V156.252H83.9272V162.192L86.8072 159.192H87.8512L85.6192 161.508L87.8632 165H86.9032L85.0552 162.096L83.9272 163.26V165ZM91.0891 165.144C89.3851 165.144 88.2451 163.92 88.2451 162.096C88.2451 160.284 89.3731 159.036 91.0291 159.036C92.6011 159.036 93.6691 160.152 93.6691 161.796V162.204H89.0491C89.1091 163.62 89.8531 164.436 91.1011 164.436C92.0491 164.436 92.6611 164.028 92.8771 163.26H93.6691C93.3571 164.484 92.4571 165.144 91.0891 165.144ZM91.0291 159.744C89.9371 159.744 89.2171 160.464 89.0731 161.604H92.8411C92.8411 160.488 92.1211 159.744 91.0291 159.744ZM95.8209 165H94.9929V159.192H95.7129L95.8329 160.2C96.2169 159.456 96.9849 159.036 97.8249 159.036C99.4209 159.036 100.081 159.984 100.081 161.448V165H99.2529V161.628C99.2529 160.272 98.6409 159.792 97.6809 159.792C96.4929 159.792 95.8209 160.656 95.8209 161.964V165ZM104.651 162.096C104.651 160.32 105.899 159.036 107.603 159.036C109.307 159.036 110.555 160.32 110.555 162.096C110.555 163.86 109.307 165.144 107.603 165.144C105.899 165.144 104.651 163.86 104.651 162.096ZM105.491 162.084C105.491 163.452 106.355 164.4 107.603 164.4C108.839 164.4 109.715 163.452 109.715 162.084C109.715 160.74 108.839 159.78 107.603 159.78C106.355 159.78 105.491 160.74 105.491 162.084ZM111.185 159.192H112.073V158.064C112.073 156.756 112.793 156.252 113.681 156.252C113.885 156.252 114.125 156.264 114.317 156.3V157.008H113.825C113.093 157.008 112.901 157.38 112.901 158.064V159.192H114.269V159.888H112.901V165H112.073V159.888H111.185V159.192ZM120.391 165.144C119.155 165.144 118.423 164.448 118.423 163.428C118.423 162.36 119.239 161.688 120.595 161.58L122.515 161.424V161.232C122.515 160.092 121.831 159.732 120.979 159.732C119.971 159.732 119.371 160.188 119.371 160.968H118.615C118.615 159.792 119.575 159.036 121.003 159.036C122.347 159.036 123.331 159.708 123.331 161.244V165H122.635L122.527 163.98C122.167 164.712 121.375 165.144 120.391 165.144ZM120.583 164.472C121.807 164.472 122.515 163.62 122.515 162.36V162.048L120.799 162.18C119.707 162.276 119.263 162.756 119.263 163.404C119.263 164.112 119.791 164.472 120.583 164.472ZM124.993 167.532V159.192H125.713L125.797 160.368C126.205 159.468 127.021 159.036 127.993 159.036C129.673 159.036 130.681 160.32 130.681 162.072C130.681 163.824 129.709 165.144 127.993 165.144C127.009 165.144 126.229 164.724 125.821 163.884V167.532H124.993ZM125.833 162.096C125.833 163.428 126.577 164.4 127.849 164.4C129.109 164.4 129.841 163.428 129.841 162.096C129.841 160.752 129.109 159.792 127.849 159.792C126.577 159.792 125.833 160.752 125.833 162.096ZM132.001 167.532V159.192H132.721L132.805 160.368C133.213 159.468 134.029 159.036 135.001 159.036C136.681 159.036 137.689 160.32 137.689 162.072C137.689 163.824 136.717 165.144 135.001 165.144C134.017 165.144 133.237 164.724 132.829 163.884V167.532H132.001ZM132.841 162.096C132.841 163.428 133.585 164.4 134.857 164.4C136.117 164.4 136.849 163.428 136.849 162.096C136.849 160.752 136.117 159.792 134.857 159.792C133.585 159.792 132.841 160.752 132.841 162.096ZM142.045 159.12V159.864H141.589C140.521 159.864 139.837 160.584 139.837 161.688V165H139.009V159.192H139.789L139.849 160.092C140.077 159.468 140.689 159.06 141.505 159.06C141.685 159.06 141.841 159.072 142.045 159.12ZM145.359 165.144C143.655 165.144 142.515 163.92 142.515 162.096C142.515 160.284 143.643 159.036 145.299 159.036C146.871 159.036 147.939 160.152 147.939 161.796V162.204H143.319C143.379 163.62 144.123 164.436 145.371 164.436C146.319 164.436 146.931 164.028 147.147 163.26H147.939C147.627 164.484 146.727 165.144 145.359 165.144ZM145.299 159.744C144.207 159.744 143.487 160.464 143.343 161.604H147.111C147.111 160.488 146.391 159.744 145.299 159.744ZM148.854 162.108C148.854 160.284 149.97 159.036 151.662 159.036C153.006 159.036 153.99 159.816 154.218 161.016H153.39C153.174 160.212 152.478 159.768 151.674 159.768C150.498 159.768 149.67 160.668 149.67 162.096C149.67 163.476 150.438 164.4 151.614 164.4C152.478 164.4 153.174 163.92 153.402 163.176H154.242C153.966 164.364 152.934 165.144 151.614 165.144C149.97 165.144 148.854 163.932 148.854 162.108ZM155.905 157.596C155.569 157.596 155.293 157.32 155.293 156.984C155.293 156.648 155.569 156.36 155.905 156.36C156.241 156.36 156.529 156.648 156.529 156.984C156.529 157.32 156.241 157.596 155.905 157.596ZM155.497 165V159.192H156.325V165H155.497ZM159.72 165.144C158.484 165.144 157.752 164.448 157.752 163.428C157.752 162.36 158.568 161.688 159.924 161.58L161.844 161.424V161.232C161.844 160.092 161.16 159.732 160.308 159.732C159.3 159.732 158.7 160.188 158.7 160.968H157.944C157.944 159.792 158.904 159.036 160.332 159.036C161.676 159.036 162.66 159.708 162.66 161.244V165H161.964L161.856 163.98C161.496 164.712 160.704 165.144 159.72 165.144ZM159.912 164.472C161.136 164.472 161.844 163.62 161.844 162.36V162.048L160.128 162.18C159.036 162.276 158.592 162.756 158.592 163.404C158.592 164.112 159.12 164.472 159.912 164.472ZM165.548 165H164.732V159.888H163.568V159.192H164.732V157.356H165.548V159.192H166.712V159.888H165.548V165ZM168.198 157.596C167.862 157.596 167.586 157.32 167.586 156.984C167.586 156.648 167.862 156.36 168.198 156.36C168.534 156.36 168.822 156.648 168.822 156.984C168.822 157.32 168.534 157.596 168.198 157.596ZM167.79 165V159.192H168.618V165H167.79ZM169.936 162.096C169.936 160.32 171.184 159.036 172.888 159.036C174.592 159.036 175.84 160.32 175.84 162.096C175.84 163.86 174.592 165.144 172.888 165.144C171.184 165.144 169.936 163.86 169.936 162.096ZM170.776 162.084C170.776 163.452 171.64 164.4 172.888 164.4C174.124 164.4 175 163.452 175 162.084C175 160.74 174.124 159.78 172.888 159.78C171.64 159.78 170.776 160.74 170.776 162.084ZM177.993 165H177.165V159.192H177.885L178.005 160.2C178.389 159.456 179.157 159.036 179.997 159.036C181.593 159.036 182.253 159.984 182.253 161.448V165H181.425V161.628C181.425 160.272 180.813 159.792 179.853 159.792C178.665 159.792 177.993 160.656 177.993 161.964V165ZM185.367 164.592C185.367 165.336 184.791 165.984 184.047 166.092V165.648C184.479 165.576 184.791 165.264 184.791 164.928C184.719 164.976 184.623 165.012 184.479 165.012C184.143 165.012 183.855 164.772 183.855 164.364C183.855 163.944 184.143 163.644 184.563 163.644C184.995 163.644 185.367 163.992 185.367 164.592ZM189.976 161.928C189.976 160.344 190.996 159.036 192.7 159.036C193.708 159.036 194.476 159.504 194.848 160.356L194.932 159.192H195.652V164.82C195.652 166.548 194.548 167.676 192.844 167.676C191.356 167.676 190.312 166.836 190.084 165.432H190.912C191.092 166.368 191.812 166.92 192.856 166.92C194.044 166.92 194.836 166.116 194.836 164.904V163.524C194.44 164.34 193.636 164.82 192.64 164.82C190.984 164.82 189.976 163.512 189.976 161.928ZM190.804 161.916C190.804 163.104 191.536 164.076 192.76 164.076C194.02 164.076 194.764 163.164 194.764 161.916C194.764 160.68 194.044 159.768 192.772 159.768C191.524 159.768 190.804 160.74 190.804 161.916ZM199.816 165.144C198.112 165.144 196.972 163.92 196.972 162.096C196.972 160.284 198.1 159.036 199.756 159.036C201.328 159.036 202.396 160.152 202.396 161.796V162.204H197.776C197.836 163.62 198.58 164.436 199.828 164.436C200.776 164.436 201.388 164.028 201.604 163.26H202.396C202.084 164.484 201.184 165.144 199.816 165.144ZM199.756 159.744C198.664 159.744 197.944 160.464 197.8 161.604H201.568C201.568 160.488 200.848 159.744 199.756 159.744ZM204.993 165H204.177V159.888H203.013V159.192H204.177V157.356H204.993V159.192H206.157V159.888H204.993V165ZM215.903 165H210.239V164.316L212.987 161.916C214.571 160.536 214.979 159.936 214.979 158.916C214.979 157.752 214.283 157.044 213.143 157.044C211.955 157.044 211.175 157.908 211.139 159.24H210.275C210.323 157.44 211.463 156.252 213.155 156.252C214.775 156.252 215.855 157.296 215.855 158.868C215.855 160.116 215.291 160.944 213.575 162.444L211.571 164.196H215.903V165ZM217.098 160.704C217.098 158.04 218.406 156.24 220.542 156.24C222.666 156.24 223.974 158.04 223.974 160.704C223.974 163.38 222.69 165.156 220.542 165.156C218.382 165.156 217.098 163.38 217.098 160.704ZM217.95 160.704C217.95 162.936 218.898 164.376 220.542 164.376C222.186 164.376 223.134 162.936 223.134 160.704C223.134 158.46 222.186 157.032 220.542 157.032C218.898 157.032 217.95 158.46 217.95 160.704ZM229.417 158.376C229.417 159.612 228.541 160.5 227.317 160.5C226.093 160.5 225.205 159.612 225.205 158.376C225.205 157.14 226.093 156.24 227.317 156.24C228.541 156.24 229.417 157.14 229.417 158.376ZM233.773 156.408L227.245 165H226.381L232.897 156.408H233.773ZM228.697 158.376C228.697 157.524 228.133 156.936 227.317 156.936C226.489 156.936 225.925 157.524 225.925 158.376C225.925 159.216 226.501 159.816 227.317 159.816C228.121 159.816 228.697 159.216 228.697 158.376ZM234.961 163.032C234.961 164.268 234.085 165.156 232.861 165.156C231.637 165.156 230.749 164.268 230.749 163.032C230.749 161.796 231.637 160.896 232.861 160.896C234.085 160.896 234.961 161.796 234.961 163.032ZM234.241 163.032C234.241 162.18 233.677 161.592 232.861 161.592C232.033 161.592 231.469 162.18 231.469 163.032C231.469 163.872 232.045 164.46 232.861 164.46C233.665 164.46 234.241 163.872 234.241 163.032ZM46.456 179.096C46.456 177.32 47.704 176.036 49.408 176.036C51.112 176.036 52.36 177.32 52.36 179.096C52.36 180.86 51.112 182.144 49.408 182.144C47.704 182.144 46.456 180.86 46.456 179.096ZM47.296 179.084C47.296 180.452 48.16 181.4 49.408 181.4C50.644 181.4 51.52 180.452 51.52 179.084C51.52 177.74 50.644 176.78 49.408 176.78C48.16 176.78 47.296 177.74 47.296 179.084ZM52.9894 176.192H53.8774V175.064C53.8774 173.756 54.5854 173.252 55.4854 173.252C55.6894 173.252 55.9294 173.264 56.1214 173.3V174.02H55.6174C54.8974 174.02 54.7054 174.38 54.7054 175.064V176.192H57.4654V175.064C57.4654 173.756 58.1854 173.252 59.0734 173.252C59.2774 173.252 59.5174 173.264 59.7094 173.3V174.02H59.2174C58.4854 174.02 58.2934 174.38 58.2934 175.064V176.192H59.6614V176.888H58.2934V182H57.4654V176.888H54.7054V182H53.8774V176.888H52.9894V176.192ZM63.706 179.096C63.706 177.32 64.954 176.036 66.658 176.036C68.362 176.036 69.61 177.32 69.61 179.096C69.61 180.86 68.362 182.144 66.658 182.144C64.954 182.144 63.706 180.86 63.706 179.096ZM64.546 179.084C64.546 180.452 65.41 181.4 66.658 181.4C67.894 181.4 68.77 180.452 68.77 179.084C68.77 177.74 67.894 176.78 66.658 176.78C65.41 176.78 64.546 177.74 64.546 179.084ZM71.7623 182H70.9343V176.192H71.6543L71.7743 177.2C72.1583 176.456 72.9263 176.036 73.7663 176.036C75.3623 176.036 76.0223 176.984 76.0223 178.448V182H75.1943V178.628C75.1943 177.272 74.5823 176.792 73.6223 176.792C72.4343 176.792 71.7623 177.656 71.7623 178.964V182ZM80.4127 184.532V183.848H81.0487C81.5527 183.848 82.0567 183.812 82.3447 183.032L82.5967 182.348L80.2447 176.192H81.1207L82.9927 181.256L84.8287 176.192H85.6807L83.0167 183.332C82.6807 184.244 82.1167 184.616 81.2887 184.616C80.9407 184.616 80.6767 184.592 80.4127 184.532ZM86.0419 179.096C86.0419 177.32 87.2899 176.036 88.9939 176.036C90.6979 176.036 91.9459 177.32 91.9459 179.096C91.9459 180.86 90.6979 182.144 88.9939 182.144C87.2899 182.144 86.0419 180.86 86.0419 179.096ZM86.8819 179.084C86.8819 180.452 87.7459 181.4 88.9939 181.4C90.2299 181.4 91.1059 180.452 91.1059 179.084C91.1059 177.74 90.2299 176.78 88.9939 176.78C87.7459 176.78 86.8819 177.74 86.8819 179.084ZM97.2096 176.192H98.0376V182H97.3176L97.2096 181.016C96.8856 181.688 96.0816 182.144 95.1696 182.144C93.8016 182.144 93.0576 181.208 93.0576 179.792V176.18H93.8976V179.528C93.8976 180.908 94.5096 181.4 95.4336 181.4C96.5496 181.4 97.2096 180.656 97.2096 179.276V176.192ZM102.798 176.12V176.864H102.342C101.274 176.864 100.59 177.584 100.59 178.688V182H99.7624V176.192H100.542L100.602 177.092C100.83 176.468 101.442 176.06 102.258 176.06C102.438 176.06 102.594 176.072 102.798 176.12ZM108.055 182H107.227V176.192H107.947L108.067 177.2C108.451 176.456 109.219 176.036 110.059 176.036C111.655 176.036 112.315 176.984 112.315 178.448V182H111.487V178.628C111.487 177.272 110.875 176.792 109.915 176.792C108.727 176.792 108.055 177.656 108.055 178.964V182ZM116.402 182.144C114.698 182.144 113.558 180.92 113.558 179.096C113.558 177.284 114.686 176.036 116.342 176.036C117.914 176.036 118.982 177.152 118.982 178.796V179.204H114.362C114.422 180.62 115.166 181.436 116.414 181.436C117.362 181.436 117.974 181.028 118.19 180.26H118.982C118.67 181.484 117.77 182.144 116.402 182.144ZM116.342 176.744C115.25 176.744 114.53 177.464 114.386 178.604H118.154C118.154 177.488 117.434 176.744 116.342 176.744ZM120.334 182H119.362L121.438 179.096L119.374 176.192H120.346L121.99 178.52L123.622 176.192H124.582L122.518 179.108L124.57 182H123.586L121.954 179.672L120.334 182ZM127.134 182H126.318V176.888H125.154V176.192H126.318V174.356H127.134V176.192H128.298V176.888H127.134V182ZM132.704 184.532V176.192H133.424L133.508 177.368C133.916 176.468 134.732 176.036 135.704 176.036C137.384 176.036 138.392 177.32 138.392 179.072C138.392 180.824 137.42 182.144 135.704 182.144C134.72 182.144 133.94 181.724 133.532 180.884V184.532H132.704ZM133.544 179.096C133.544 180.428 134.288 181.4 135.56 181.4C136.82 181.4 137.552 180.428 137.552 179.096C137.552 177.752 136.82 176.792 135.56 176.792C134.288 176.792 133.544 177.752 133.544 179.096ZM143.651 176.192H144.479V182H143.759L143.651 181.016C143.327 181.688 142.523 182.144 141.611 182.144C140.243 182.144 139.499 181.208 139.499 179.792V176.18H140.339V179.528C140.339 180.908 140.951 181.4 141.875 181.4C142.991 181.4 143.651 180.656 143.651 179.276V176.192ZM149.24 176.12V176.864H148.784C147.716 176.864 147.032 177.584 147.032 178.688V182H146.204V176.192H146.984L147.044 177.092C147.272 176.468 147.884 176.06 148.7 176.06C148.88 176.06 149.036 176.072 149.24 176.12ZM149.71 179.108C149.71 177.284 150.826 176.036 152.518 176.036C153.862 176.036 154.846 176.816 155.074 178.016H154.246C154.03 177.212 153.334 176.768 152.53 176.768C151.354 176.768 150.526 177.668 150.526 179.096C150.526 180.476 151.294 181.4 152.47 181.4C153.334 181.4 154.03 180.92 154.258 180.176H155.098C154.822 181.364 153.79 182.144 152.47 182.144C150.826 182.144 149.71 180.932 149.71 179.108ZM157.18 181.988H156.352V173.252H157.18V177.2C157.552 176.504 158.26 176.036 159.232 176.036C160.756 176.036 161.44 176.984 161.44 178.448V182H160.612V178.628C160.612 177.272 159.976 176.792 159.076 176.792C157.828 176.792 157.18 177.716 157.18 178.832V181.988ZM164.759 182.144C163.523 182.144 162.791 181.448 162.791 180.428C162.791 179.36 163.607 178.688 164.963 178.58L166.883 178.424V178.232C166.883 177.092 166.199 176.732 165.347 176.732C164.339 176.732 163.739 177.188 163.739 177.968H162.983C162.983 176.792 163.943 176.036 165.371 176.036C166.715 176.036 167.699 176.708 167.699 178.244V182H167.003L166.895 180.98C166.535 181.712 165.743 182.144 164.759 182.144ZM164.951 181.472C166.175 181.472 166.883 180.62 166.883 179.36V179.048L165.167 179.18C164.075 179.276 163.631 179.756 163.631 180.404C163.631 181.112 164.159 181.472 164.951 181.472ZM168.868 180.368H169.66C169.66 181.04 170.164 181.46 170.98 181.46C171.88 181.46 172.408 181.076 172.408 180.452C172.408 179.972 172.168 179.696 171.484 179.528L170.488 179.276C169.48 179.024 168.988 178.496 168.988 177.704C168.988 176.684 169.84 176.036 171.088 176.036C172.312 176.036 173.104 176.708 173.14 177.788H172.336C172.312 177.116 171.844 176.72 171.064 176.72C170.248 176.72 169.792 177.068 169.792 177.692C169.792 178.136 170.104 178.448 170.74 178.604L171.736 178.856C172.744 179.108 173.2 179.576 173.2 180.416C173.2 181.46 172.312 182.144 170.992 182.144C169.684 182.144 168.868 181.448 168.868 180.368ZM176.999 182.144C175.295 182.144 174.155 180.92 174.155 179.096C174.155 177.284 175.283 176.036 176.939 176.036C178.511 176.036 179.579 177.152 179.579 178.796V179.204H174.959C175.019 180.62 175.763 181.436 177.011 181.436C177.959 181.436 178.571 181.028 178.787 180.26H179.579C179.267 181.484 178.367 182.144 176.999 182.144ZM176.939 176.744C175.847 176.744 175.127 177.464 174.983 178.604H178.751C178.751 177.488 178.031 176.744 176.939 176.744ZM185.455 182L183.535 176.192H184.387L185.527 179.696C185.659 180.08 185.767 180.476 185.887 180.944C185.983 180.476 186.175 179.888 186.235 179.696L187.387 176.192H188.239L189.379 179.696C189.487 180.008 189.631 180.512 189.739 180.944C189.859 180.464 189.883 180.32 190.087 179.696L191.239 176.192H192.103L190.135 182H189.331L188.131 178.352C187.987 177.92 187.891 177.56 187.819 177.212C187.735 177.524 187.639 177.872 187.483 178.352L186.283 182H185.455ZM193.545 174.596C193.209 174.596 192.933 174.32 192.933 173.984C192.933 173.648 193.209 173.36 193.545 173.36C193.881 173.36 194.169 173.648 194.169 173.984C194.169 174.32 193.881 174.596 193.545 174.596ZM193.137 182V176.192H193.965V182H193.137ZM197.024 182H196.208V176.888H195.044V176.192H196.208V174.356H197.024V176.192H198.188V176.888H197.024V182ZM200.094 181.988H199.266V173.252H200.094V177.2C200.466 176.504 201.174 176.036 202.146 176.036C203.67 176.036 204.354 176.984 204.354 178.448V182H203.526V178.628C203.526 177.272 202.89 176.792 201.99 176.792C200.742 176.792 200.094 177.716 200.094 178.832V181.988ZM213.413 176.192H214.241V182H213.521L213.413 181.016C213.089 181.688 212.285 182.144 211.373 182.144C210.005 182.144 209.261 181.208 209.261 179.792V176.18H210.101V179.528C210.101 180.908 210.713 181.4 211.637 181.4C212.753 181.4 213.413 180.656 213.413 179.276V176.192ZM215.356 180.368H216.148C216.148 181.04 216.652 181.46 217.468 181.46C218.368 181.46 218.896 181.076 218.896 180.452C218.896 179.972 218.656 179.696 217.972 179.528L216.976 179.276C215.968 179.024 215.476 178.496 215.476 177.704C215.476 176.684 216.328 176.036 217.576 176.036C218.8 176.036 219.592 176.708 219.628 177.788H218.824C218.8 177.116 218.332 176.72 217.552 176.72C216.736 176.72 216.28 177.068 216.28 177.692C216.28 178.136 216.592 178.448 217.228 178.604L218.224 178.856C219.232 179.108 219.688 179.576 219.688 180.416C219.688 181.46 218.8 182.144 217.48 182.144C216.172 182.144 215.356 181.448 215.356 180.368Z" fill="#000247"/>
<path d="M46.144 195.2V194.408H52.3V195.2H49.648V203H48.784V195.2H46.144ZM54.1373 202.988H53.3093V194.252H54.1373V198.2C54.5093 197.504 55.2173 197.036 56.1893 197.036C57.7133 197.036 58.3973 197.984 58.3973 199.448V203H57.5693V199.628C57.5693 198.272 56.9333 197.792 56.0333 197.792C54.7853 197.792 54.1373 198.716 54.1373 199.832V202.988ZM61.7156 203.144C60.4796 203.144 59.7476 202.448 59.7476 201.428C59.7476 200.36 60.5636 199.688 61.9196 199.58L63.8396 199.424V199.232C63.8396 198.092 63.1556 197.732 62.3036 197.732C61.2956 197.732 60.6956 198.188 60.6956 198.968H59.9396C59.9396 197.792 60.8996 197.036 62.3276 197.036C63.6716 197.036 64.6556 197.708 64.6556 199.244V203H63.9596L63.8516 201.98C63.4916 202.712 62.6996 203.144 61.7156 203.144ZM61.9076 202.472C63.1316 202.472 63.8396 201.62 63.8396 200.36V200.048L62.1236 200.18C61.0316 200.276 60.5876 200.756 60.5876 201.404C60.5876 202.112 61.1156 202.472 61.9076 202.472ZM67.1451 203H66.3171V197.192H67.0371L67.1571 198.2C67.5411 197.456 68.3091 197.036 69.1491 197.036C70.7451 197.036 71.4051 197.984 71.4051 199.448V203H70.5771V199.628C70.5771 198.272 69.9651 197.792 69.0051 197.792C67.8171 197.792 67.1451 198.656 67.1451 199.964V203ZM73.9194 203H73.0914V194.252H73.9194V200.192L76.7994 197.192H77.8434L75.6114 199.508L77.8554 203H76.8954L75.0474 200.096L73.9194 201.26V203ZM78.4345 201.368H79.2265C79.2265 202.04 79.7305 202.46 80.5465 202.46C81.4465 202.46 81.9745 202.076 81.9745 201.452C81.9745 200.972 81.7345 200.696 81.0505 200.528L80.0545 200.276C79.0465 200.024 78.5545 199.496 78.5545 198.704C78.5545 197.684 79.4065 197.036 80.6545 197.036C81.8785 197.036 82.6705 197.708 82.7065 198.788H81.9025C81.8785 198.116 81.4105 197.72 80.6305 197.72C79.8145 197.72 79.3585 198.068 79.3585 198.692C79.3585 199.136 79.6705 199.448 80.3065 199.604L81.3025 199.856C82.3105 200.108 82.7665 200.576 82.7665 201.416C82.7665 202.46 81.8785 203.144 80.5585 203.144C79.2505 203.144 78.4345 202.448 78.4345 201.368ZM86.8098 197.192H87.6978V196.064C87.6978 194.756 88.4178 194.252 89.3058 194.252C89.5098 194.252 89.7498 194.264 89.9418 194.3V195.008H89.4498C88.7178 195.008 88.5258 195.38 88.5258 196.064V197.192H89.8938V197.888H88.5258V203H87.6978V197.888H86.8098V197.192ZM90.4365 200.096C90.4365 198.32 91.6845 197.036 93.3885 197.036C95.0925 197.036 96.3405 198.32 96.3405 200.096C96.3405 201.86 95.0925 203.144 93.3885 203.144C91.6845 203.144 90.4365 201.86 90.4365 200.096ZM91.2765 200.084C91.2765 201.452 92.1405 202.4 93.3885 202.4C94.6245 202.4 95.5005 201.452 95.5005 200.084C95.5005 198.74 94.6245 197.78 93.3885 197.78C92.1405 197.78 91.2765 198.74 91.2765 200.084ZM100.701 197.12V197.864H100.245C99.1768 197.864 98.4928 198.584 98.4928 199.688V203H97.6648V197.192H98.4448L98.5048 198.092C98.7328 197.468 99.3448 197.06 100.161 197.06C100.341 197.06 100.497 197.072 100.701 197.12ZM105.85 203H105.13V194.252H105.958V198.32C106.366 197.468 107.158 197.036 108.142 197.036C109.834 197.036 110.818 198.356 110.818 200.108C110.818 201.848 109.81 203.144 108.118 203.144C107.146 203.144 106.342 202.712 105.934 201.812L105.85 203ZM105.97 200.084C105.97 201.428 106.714 202.388 107.986 202.388C109.246 202.388 109.978 201.428 109.978 200.084C109.978 198.752 109.246 197.78 107.986 197.78C106.714 197.78 105.97 198.752 105.97 200.084ZM114.573 203.144C112.869 203.144 111.729 201.92 111.729 200.096C111.729 198.284 112.857 197.036 114.513 197.036C116.085 197.036 117.153 198.152 117.153 199.796V200.204H112.533C112.593 201.62 113.337 202.436 114.585 202.436C115.533 202.436 116.145 202.028 116.361 201.26H117.153C116.841 202.484 115.941 203.144 114.573 203.144ZM114.513 197.744C113.421 197.744 112.701 198.464 112.557 199.604H116.325C116.325 198.488 115.605 197.744 114.513 197.744ZM118.885 195.596C118.549 195.596 118.273 195.32 118.273 194.984C118.273 194.648 118.549 194.36 118.885 194.36C119.221 194.36 119.509 194.648 119.509 194.984C119.509 195.32 119.221 195.596 118.885 195.596ZM118.477 203V197.192H119.305V203H118.477ZM121.86 203H121.032V197.192H121.752L121.872 198.2C122.256 197.456 123.024 197.036 123.864 197.036C125.46 197.036 126.12 197.984 126.12 199.448V203H125.292V199.628C125.292 198.272 124.68 197.792 123.72 197.792C122.532 197.792 121.86 198.656 121.86 199.964V203ZM127.374 199.928C127.374 198.344 128.394 197.036 130.098 197.036C131.106 197.036 131.874 197.504 132.246 198.356L132.33 197.192H133.05V202.82C133.05 204.548 131.946 205.676 130.242 205.676C128.754 205.676 127.71 204.836 127.482 203.432H128.31C128.49 204.368 129.21 204.92 130.254 204.92C131.442 204.92 132.234 204.116 132.234 202.904V201.524C131.838 202.34 131.034 202.82 130.038 202.82C128.382 202.82 127.374 201.512 127.374 199.928ZM128.202 199.916C128.202 201.104 128.934 202.076 130.158 202.076C131.418 202.076 132.162 201.164 132.162 199.916C132.162 198.68 131.442 197.768 130.17 197.768C128.922 197.768 128.202 198.74 128.202 199.916ZM139.774 203.144C138.538 203.144 137.806 202.448 137.806 201.428C137.806 200.36 138.622 199.688 139.978 199.58L141.898 199.424V199.232C141.898 198.092 141.214 197.732 140.362 197.732C139.354 197.732 138.754 198.188 138.754 198.968H137.998C137.998 197.792 138.958 197.036 140.386 197.036C141.73 197.036 142.714 197.708 142.714 199.244V203H142.018L141.91 201.98C141.55 202.712 140.758 203.144 139.774 203.144ZM139.966 202.472C141.19 202.472 141.898 201.62 141.898 200.36V200.048L140.182 200.18C139.09 200.276 138.646 200.756 138.646 201.404C138.646 202.112 139.174 202.472 139.966 202.472ZM149.324 203L146.948 197.192H147.836L149.336 200.936C149.492 201.356 149.648 201.752 149.756 202.136C149.864 201.74 150.02 201.356 150.188 200.936L151.712 197.192H152.564L150.152 203H149.324ZM154.95 203.144C153.714 203.144 152.982 202.448 152.982 201.428C152.982 200.36 153.798 199.688 155.154 199.58L157.074 199.424V199.232C157.074 198.092 156.39 197.732 155.538 197.732C154.53 197.732 153.93 198.188 153.93 198.968H153.174C153.174 197.792 154.134 197.036 155.562 197.036C156.906 197.036 157.89 197.708 157.89 199.244V203H157.194L157.086 201.98C156.726 202.712 155.934 203.144 154.95 203.144ZM155.142 202.472C156.366 202.472 157.074 201.62 157.074 200.36V200.048L155.358 200.18C154.266 200.276 153.822 200.756 153.822 201.404C153.822 202.112 154.35 202.472 155.142 202.472ZM160.416 203H159.588V194.252H160.416V203ZM166.257 197.192H167.085V203H166.365L166.257 202.016C165.933 202.688 165.129 203.144 164.217 203.144C162.849 203.144 162.104 202.208 162.104 200.792V197.18H162.945V200.528C162.945 201.908 163.557 202.4 164.48 202.4C165.597 202.4 166.257 201.656 166.257 200.276V197.192ZM171.128 203.144C169.424 203.144 168.284 201.92 168.284 200.096C168.284 198.284 169.412 197.036 171.068 197.036C172.64 197.036 173.708 198.152 173.708 199.796V200.204H169.088C169.148 201.62 169.892 202.436 171.14 202.436C172.088 202.436 172.7 202.028 172.916 201.26H173.708C173.396 202.484 172.496 203.144 171.128 203.144ZM171.068 197.744C169.976 197.744 169.256 198.464 169.112 199.604H172.88C172.88 198.488 172.16 197.744 171.068 197.744ZM177.312 203.144C175.62 203.144 174.624 201.848 174.624 200.108C174.624 198.356 175.62 197.036 177.348 197.036C178.308 197.036 179.076 197.456 179.484 198.296V194.252H180.312V203H179.592L179.508 201.812C179.1 202.712 178.284 203.144 177.312 203.144ZM177.456 202.388C178.728 202.388 179.472 201.428 179.472 200.084C179.472 198.752 178.728 197.78 177.456 197.78C176.196 197.78 175.464 198.752 175.464 200.084C175.464 201.428 176.196 202.388 177.456 202.388ZM184.96 200.108C184.96 198.284 186.076 197.036 187.768 197.036C189.112 197.036 190.096 197.816 190.324 199.016H189.496C189.28 198.212 188.584 197.768 187.78 197.768C186.604 197.768 185.776 198.668 185.776 200.096C185.776 201.476 186.544 202.4 187.72 202.4C188.584 202.4 189.28 201.92 189.508 201.176H190.348C190.072 202.364 189.04 203.144 187.72 203.144C186.076 203.144 184.96 201.932 184.96 200.108ZM195.682 197.192H196.51V203H195.79L195.682 202.016C195.358 202.688 194.554 203.144 193.642 203.144C192.274 203.144 191.53 202.208 191.53 200.792V197.18H192.37V200.528C192.37 201.908 192.982 202.4 193.906 202.4C195.022 202.4 195.682 201.656 195.682 200.276V197.192ZM197.626 201.368H198.418C198.418 202.04 198.922 202.46 199.738 202.46C200.638 202.46 201.166 202.076 201.166 201.452C201.166 200.972 200.926 200.696 200.242 200.528L199.246 200.276C198.238 200.024 197.746 199.496 197.746 198.704C197.746 197.684 198.598 197.036 199.846 197.036C201.07 197.036 201.862 197.708 201.898 198.788H201.094C201.07 198.116 200.602 197.72 199.822 197.72C199.006 197.72 198.55 198.068 198.55 198.692C198.55 199.136 198.862 199.448 199.498 199.604L200.494 199.856C201.502 200.108 201.958 200.576 201.958 201.416C201.958 202.46 201.07 203.144 199.75 203.144C198.442 203.144 197.626 202.448 197.626 201.368ZM204.653 203H203.837V197.888H202.673V197.192H203.837V195.356H204.653V197.192H205.817V197.888H204.653V203ZM206.429 200.096C206.429 198.32 207.677 197.036 209.381 197.036C211.085 197.036 212.333 198.32 212.333 200.096C212.333 201.86 211.085 203.144 209.381 203.144C207.677 203.144 206.429 201.86 206.429 200.096ZM207.269 200.084C207.269 201.452 208.133 202.4 209.381 202.4C210.617 202.4 211.493 201.452 211.493 200.084C211.493 198.74 210.617 197.78 209.381 197.78C208.133 197.78 207.269 198.74 207.269 200.084ZM214.485 203H213.657V197.192H214.377L214.473 198.02C214.761 197.408 215.409 197.036 216.225 197.036C217.137 197.036 217.821 197.516 218.097 198.272C218.361 197.516 219.069 197.036 220.005 197.036C221.265 197.036 222.093 197.852 222.093 199.196V203H221.289V199.364C221.289 198.368 220.737 197.78 219.849 197.78C218.877 197.78 218.301 198.512 218.301 199.412V203H217.485V199.352C217.485 198.368 216.921 197.792 216.045 197.792C215.073 197.792 214.485 198.512 214.485 199.4V203ZM226.195 203.144C224.491 203.144 223.351 201.92 223.351 200.096C223.351 198.284 224.479 197.036 226.135 197.036C227.707 197.036 228.775 198.152 228.775 199.796V200.204H224.155C224.215 201.62 224.959 202.436 226.207 202.436C227.155 202.436 227.767 202.028 227.983 201.26H228.775C228.463 202.484 227.563 203.144 226.195 203.144ZM226.135 197.744C225.043 197.744 224.323 198.464 224.179 199.604H227.947C227.947 198.488 227.227 197.744 226.135 197.744ZM233.134 197.12V197.864H232.678C231.61 197.864 230.926 198.584 230.926 199.688V203H230.098V197.192H230.878L230.938 198.092C231.166 197.468 231.778 197.06 232.594 197.06C232.774 197.06 232.93 197.072 233.134 197.12ZM46.216 214.192H47.104V213.064C47.104 211.756 47.824 211.252 48.712 211.252C48.916 211.252 49.156 211.264 49.348 211.3V212.008H48.856C48.124 212.008 47.932 212.38 47.932 213.064V214.192H49.3V214.888H47.932V220H47.104V214.888H46.216V214.192ZM49.8427 217.096C49.8427 215.32 51.0907 214.036 52.7947 214.036C54.4987 214.036 55.7467 215.32 55.7467 217.096C55.7467 218.86 54.4987 220.144 52.7947 220.144C51.0907 220.144 49.8427 218.86 49.8427 217.096ZM50.6827 217.084C50.6827 218.452 51.5467 219.4 52.7947 219.4C54.0307 219.4 54.9067 218.452 54.9067 217.084C54.9067 215.74 54.0307 214.78 52.7947 214.78C51.5467 214.78 50.6827 215.74 50.6827 217.084ZM60.107 214.12V214.864H59.651C58.583 214.864 57.899 215.584 57.899 216.688V220H57.071V214.192H57.851L57.911 215.092C58.139 214.468 58.751 214.06 59.567 214.06C59.747 214.06 59.903 214.072 60.107 214.12ZM64.1279 217.096C64.1279 215.32 65.3759 214.036 67.0799 214.036C68.7839 214.036 70.0319 215.32 70.0319 217.096C70.0319 218.86 68.7839 220.144 67.0799 220.144C65.3759 220.144 64.1279 218.86 64.1279 217.096ZM64.9679 217.084C64.9679 218.452 65.8319 219.4 67.0799 219.4C68.3159 219.4 69.1919 218.452 69.1919 217.084C69.1919 215.74 68.3159 214.78 67.0799 214.78C65.8319 214.78 64.9679 215.74 64.9679 217.084ZM72.7184 220L70.3424 214.192H71.2304L72.7304 217.936C72.8864 218.356 73.0424 218.752 73.1504 219.136C73.2584 218.74 73.4144 218.356 73.5824 217.936L75.1064 214.192H75.9584L73.5464 220H72.7184ZM79.1125 220.144C77.4085 220.144 76.2685 218.92 76.2685 217.096C76.2685 215.284 77.3965 214.036 79.0525 214.036C80.6245 214.036 81.6925 215.152 81.6925 216.796V217.204H77.0725C77.1325 218.62 77.8765 219.436 79.1245 219.436C80.0725 219.436 80.6845 219.028 80.9005 218.26H81.6925C81.3805 219.484 80.4805 220.144 79.1125 220.144ZM79.0525 214.744C77.9605 214.744 77.2405 215.464 77.0965 216.604H80.8645C80.8645 215.488 80.1445 214.744 79.0525 214.744ZM86.0523 214.12V214.864H85.5963C84.5283 214.864 83.8443 215.584 83.8443 216.688V220H83.0163V214.192H83.7963L83.8563 215.092C84.0843 214.468 84.6963 214.06 85.5123 214.06C85.6923 214.06 85.8483 214.072 86.0523 214.12ZM95.8212 220H90.1572V219.316L92.9052 216.916C94.4892 215.536 94.8972 214.936 94.8972 213.916C94.8972 212.752 94.2012 212.044 93.0612 212.044C91.8732 212.044 91.0932 212.908 91.0572 214.24H90.1932C90.2412 212.44 91.3812 211.252 93.0732 211.252C94.6932 211.252 95.7732 212.296 95.7732 213.868C95.7732 215.116 95.2092 215.944 93.4932 217.444L91.4892 219.196H95.8212V220ZM99.9596 222.532V221.848H100.596C101.1 221.848 101.604 221.812 101.892 221.032L102.144 220.348L99.7916 214.192H100.668L102.54 219.256L104.376 214.192H105.228L102.564 221.332C102.228 222.244 101.664 222.616 100.836 222.616C100.488 222.616 100.224 222.592 99.9596 222.532ZM108.433 220.144C106.729 220.144 105.589 218.92 105.589 217.096C105.589 215.284 106.717 214.036 108.373 214.036C109.945 214.036 111.013 215.152 111.013 216.796V217.204H106.393C106.453 218.62 107.197 219.436 108.445 219.436C109.393 219.436 110.005 219.028 110.221 218.26H111.013C110.701 219.484 109.801 220.144 108.433 220.144ZM108.373 214.744C107.281 214.744 106.561 215.464 106.417 216.604H110.185C110.185 215.488 109.465 214.744 108.373 214.744ZM113.946 220.144C112.71 220.144 111.978 219.448 111.978 218.428C111.978 217.36 112.794 216.688 114.15 216.58L116.07 216.424V216.232C116.07 215.092 115.386 214.732 114.534 214.732C113.526 214.732 112.926 215.188 112.926 215.968H112.17C112.17 214.792 113.13 214.036 114.558 214.036C115.902 214.036 116.886 214.708 116.886 216.244V220H116.19L116.082 218.98C115.722 219.712 114.93 220.144 113.946 220.144ZM114.138 219.472C115.362 219.472 116.07 218.62 116.07 217.36V217.048L114.354 217.18C113.262 217.276 112.818 217.756 112.818 218.404C112.818 219.112 113.346 219.472 114.138 219.472ZM121.584 214.12V214.864H121.128C120.06 214.864 119.376 215.584 119.376 216.688V220H118.548V214.192H119.328L119.388 215.092C119.616 214.468 120.228 214.06 121.044 214.06C121.224 214.06 121.38 214.072 121.584 214.12ZM122.192 218.368H122.984C122.984 219.04 123.488 219.46 124.304 219.46C125.204 219.46 125.732 219.076 125.732 218.452C125.732 217.972 125.492 217.696 124.808 217.528L123.812 217.276C122.804 217.024 122.312 216.496 122.312 215.704C122.312 214.684 123.164 214.036 124.412 214.036C125.636 214.036 126.428 214.708 126.464 215.788H125.66C125.636 215.116 125.168 214.72 124.388 214.72C123.572 214.72 123.116 215.068 123.116 215.692C123.116 216.136 123.428 216.448 124.064 216.604L125.06 216.856C126.068 217.108 126.524 217.576 126.524 218.416C126.524 219.46 125.636 220.144 124.316 220.144C123.008 220.144 122.192 219.448 122.192 218.368ZM128.943 217.42H128.343C128.247 216.568 128.199 214.984 128.199 213.436V211.408H129.099V213.436C129.099 214.996 129.039 216.568 128.943 217.42ZM128.655 220.168C128.235 220.168 127.899 219.82 127.899 219.412C127.899 219.004 128.235 218.668 128.655 218.668C129.051 218.668 129.399 219.004 129.399 219.412C129.399 219.82 129.051 220.168 128.655 220.168Z" fill="#000247"/>
<path d="M48.796 241L46.18 232.228H47.776L49.168 236.86C49.3 237.34 49.432 237.832 49.564 238.6C49.708 237.82 49.84 237.364 49.996 236.86L51.376 232.228H53.068L54.424 236.86C54.568 237.352 54.7 237.856 54.844 238.6C55.012 237.784 55.132 237.316 55.264 236.872L56.68 232.228H58.24L55.576 241H54.088L52.216 234.616L50.308 241H48.796ZM59.9099 233.884C59.4059 233.884 59.0099 233.488 59.0099 232.996C59.0099 232.504 59.4059 232.12 59.9099 232.12C60.3899 232.12 60.7859 232.504 60.7859 232.996C60.7859 233.488 60.3899 233.884 59.9099 233.884ZM59.1779 241V235.072H60.6419V241H59.1779ZM64.1704 241H62.7064V236.296H61.5664V235.072H62.7064V233.224H64.1704V235.072H65.3224V236.296H64.1704V241ZM67.6966 241H66.2326V232.072H67.7086V235.84C68.0806 235.264 68.7766 234.892 69.6286 234.892C71.0926 234.892 71.8606 235.816 71.8606 237.352V241H70.3966V237.7C70.3966 236.704 69.9046 236.224 69.1606 236.224C68.2366 236.224 67.6966 236.872 67.6966 237.76V241ZM78.2853 232.228V239.584H81.9573V241H76.7493V232.228H78.2853ZM82.5252 238.024C82.5252 236.176 83.8572 234.904 85.6932 234.904C87.5292 234.904 88.8612 236.176 88.8612 238.024C88.8612 239.872 87.5292 241.144 85.6932 241.144C83.8572 241.144 82.5252 239.872 82.5252 238.024ZM83.9892 238.024C83.9892 239.104 84.6852 239.836 85.6932 239.836C86.7012 239.836 87.3972 239.104 87.3972 238.024C87.3972 236.944 86.7012 236.212 85.6932 236.212C84.6852 236.212 83.9892 236.944 83.9892 238.024ZM91.4087 241L89.0567 235.072H90.6167L91.6487 237.796C91.9007 238.504 92.1047 239.116 92.1767 239.44C92.2607 239.068 92.4767 238.444 92.7287 237.796L93.8087 235.072H95.3207L92.8487 241H91.4087ZM98.5213 241.156C96.7573 241.156 95.5213 239.872 95.5213 238.036C95.5213 236.176 96.7333 234.892 98.4733 234.892C100.249 234.892 101.377 236.08 101.377 237.928V238.372L96.9133 238.384C97.0213 239.428 97.5733 239.956 98.5453 239.956C99.3493 239.956 99.8773 239.644 100.045 239.08H101.401C101.149 240.376 100.069 241.156 98.5213 241.156ZM98.4853 236.092C97.6213 236.092 97.0933 236.56 96.9493 237.448H99.9253C99.9253 236.632 99.3613 236.092 98.4853 236.092ZM104.142 240.472C104.142 241.468 103.422 242.26 102.45 242.38V241.792C102.99 241.696 103.398 241.372 103.398 240.952C103.302 241 103.194 241.024 103.05 241.024C102.582 241.024 102.198 240.676 102.198 240.196C102.198 239.62 102.57 239.236 103.11 239.236C103.71 239.236 104.142 239.728 104.142 240.472ZM110.664 241H109.128V232.228H110.664V235.852H114.552V232.228H116.088V241H114.552V237.28H110.664V241ZM120.471 241.156C118.707 241.156 117.471 239.872 117.471 238.036C117.471 236.176 118.683 234.892 120.423 234.892C122.199 234.892 123.327 236.08 123.327 237.928V238.372L118.863 238.384C118.971 239.428 119.523 239.956 120.495 239.956C121.299 239.956 121.827 239.644 121.995 239.08H123.351C123.099 240.376 122.019 241.156 120.471 241.156ZM120.435 236.092C119.571 236.092 119.043 236.56 118.899 237.448H121.875C121.875 236.632 121.311 236.092 120.435 236.092ZM126.204 241.156C124.944 241.156 124.176 240.424 124.176 239.308C124.176 238.216 124.968 237.532 126.372 237.424L128.148 237.292V237.16C128.148 236.356 127.668 236.032 126.924 236.032C126.06 236.032 125.58 236.392 125.58 237.016H124.332C124.332 235.732 125.388 234.892 126.996 234.892C128.592 234.892 129.576 235.756 129.576 237.4V241H128.292L128.184 240.124C127.932 240.736 127.128 241.156 126.204 241.156ZM126.684 240.052C127.584 240.052 128.16 239.512 128.16 238.6V238.288L126.924 238.384C126.012 238.468 125.664 238.768 125.664 239.248C125.664 239.788 126.024 240.052 126.684 240.052ZM133.45 241.156C131.734 241.156 130.666 239.896 130.666 238.06C130.666 236.212 131.746 234.892 133.534 234.892C134.362 234.892 135.094 235.24 135.466 235.828V232.072H136.918V241H135.574L135.478 240.076C135.118 240.76 134.35 241.156 133.45 241.156ZM133.774 239.812C134.794 239.812 135.454 239.08 135.454 238.012C135.454 236.944 134.794 236.2 133.774 236.2C132.754 236.2 132.13 236.956 132.13 238.012C132.13 239.068 132.754 239.812 133.774 239.812ZM139.752 241L137.832 235.072H139.356L140.136 237.616C140.268 238.084 140.388 238.6 140.496 239.152C140.604 238.576 140.712 238.204 140.904 237.616L141.72 235.072H143.208L144 237.616C144.072 237.856 144.312 238.744 144.384 239.14C144.48 238.696 144.672 237.988 144.78 237.616L145.572 235.072H147.12L145.068 241H143.7L142.884 238.432C142.644 237.652 142.512 237.088 142.464 236.788C142.404 237.064 142.296 237.484 141.996 238.456L141.18 241H139.752ZM149.477 241.156C148.217 241.156 147.449 240.424 147.449 239.308C147.449 238.216 148.241 237.532 149.645 237.424L151.421 237.292V237.16C151.421 236.356 150.941 236.032 150.197 236.032C149.333 236.032 148.853 236.392 148.853 237.016H147.605C147.605 235.732 148.661 234.892 150.269 234.892C151.865 234.892 152.849 235.756 152.849 237.4V241H151.565L151.457 240.124C151.205 240.736 150.401 241.156 149.477 241.156ZM149.957 240.052C150.857 240.052 151.433 239.512 151.433 238.6V238.288L150.197 238.384C149.285 238.468 148.937 238.768 148.937 239.248C148.937 239.788 149.297 240.052 149.957 240.052ZM153.607 243.748V242.524H154.483C155.059 242.524 155.419 242.392 155.671 241.696L155.839 241.252L153.451 235.072H154.999L156.523 239.392L158.131 235.072H159.643L156.739 242.32C156.295 243.424 155.671 243.88 154.699 243.88C154.291 243.88 153.931 243.832 153.607 243.748ZM165.461 232.228V241H163.925V232.228H165.461ZM168.654 241H167.19V235.072H168.546L168.666 235.84C169.038 235.24 169.758 234.892 170.562 234.892C172.05 234.892 172.818 235.816 172.818 237.352V241H171.354V237.7C171.354 236.704 170.862 236.224 170.106 236.224C169.206 236.224 168.654 236.848 168.654 237.808V241ZM176.692 241.156C174.976 241.156 173.908 239.896 173.908 238.06C173.908 236.212 174.988 234.892 176.776 234.892C177.604 234.892 178.336 235.24 178.708 235.828V232.072H180.16V241H178.816L178.72 240.076C178.36 240.76 177.592 241.156 176.692 241.156ZM177.016 239.812C178.036 239.812 178.696 239.08 178.696 238.012C178.696 236.944 178.036 236.2 177.016 236.2C175.996 236.2 175.372 236.956 175.372 238.012C175.372 239.068 175.996 239.812 177.016 239.812ZM182.418 233.884C181.914 233.884 181.518 233.488 181.518 232.996C181.518 232.504 181.914 232.12 182.418 232.12C182.898 232.12 183.294 232.504 183.294 232.996C183.294 233.488 182.898 233.884 182.418 233.884ZM181.686 241V235.072H183.15V241H181.686ZM186.426 241.156C185.166 241.156 184.398 240.424 184.398 239.308C184.398 238.216 185.19 237.532 186.594 237.424L188.37 237.292V237.16C188.37 236.356 187.89 236.032 187.146 236.032C186.282 236.032 185.802 236.392 185.802 237.016H184.554C184.554 235.732 185.61 234.892 187.218 234.892C188.814 234.892 189.798 235.756 189.798 237.4V241H188.514L188.406 240.124C188.154 240.736 187.35 241.156 186.426 241.156ZM186.906 240.052C187.806 240.052 188.382 239.512 188.382 238.6V238.288L187.146 238.384C186.234 238.468 185.886 238.768 185.886 239.248C185.886 239.788 186.246 240.052 186.906 240.052Z" fill="#000247"/>
<rect x="228" y="276" width="83" height="36" rx="4" fill="#B30000"/>
<path d="M241.52 299.5V289.266H245.594C247.61 289.266 248.842 290.316 248.842 292.024C248.842 293.158 248.338 293.97 247.372 294.376C248.45 294.726 248.996 295.538 248.996 296.728C248.996 298.478 247.778 299.5 245.664 299.5H241.52ZM245.44 290.848H243.312V293.634H245.482C246.462 293.634 247.008 293.116 247.008 292.206C247.008 291.324 246.448 290.848 245.44 290.848ZM245.594 295.146H243.312V297.918H245.594C246.602 297.918 247.162 297.428 247.162 296.504C247.162 295.636 246.588 295.146 245.594 295.146ZM255.077 292.584H256.785V299.5H255.203L255.077 298.576C254.657 299.234 253.761 299.682 252.837 299.682C251.241 299.682 250.303 298.604 250.303 296.91V292.584H252.011V296.308C252.011 297.624 252.529 298.156 253.481 298.156C254.559 298.156 255.077 297.526 255.077 296.21V292.584ZM257.947 302.706V301.278H258.969C259.641 301.278 260.061 301.124 260.355 300.312L260.551 299.794L257.765 292.584H259.571L261.349 297.624L263.225 292.584H264.989L261.601 301.04C261.083 302.328 260.355 302.86 259.221 302.86C258.745 302.86 258.325 302.804 257.947 302.706ZM271.749 299.5H269.985V289.266H271.763L276.565 296.518V289.266H278.329V299.5H276.565L271.749 292.248V299.5ZM279.936 296.028C279.936 293.872 281.49 292.388 283.632 292.388C285.774 292.388 287.328 293.872 287.328 296.028C287.328 298.184 285.774 299.668 283.632 299.668C281.49 299.668 279.936 298.184 279.936 296.028ZM281.644 296.028C281.644 297.288 282.456 298.142 283.632 298.142C284.808 298.142 285.62 297.288 285.62 296.028C285.62 294.768 284.808 293.914 283.632 293.914C282.456 293.914 281.644 294.768 281.644 296.028ZM289.866 299.5L287.626 292.584H289.404L290.314 295.552C290.468 296.098 290.608 296.7 290.734 297.344C290.86 296.672 290.986 296.238 291.21 295.552L292.162 292.584H293.898L294.822 295.552C294.906 295.832 295.186 296.868 295.27 297.33C295.382 296.812 295.606 295.986 295.732 295.552L296.656 292.584H298.462L296.068 299.5H294.472L293.52 296.504C293.24 295.594 293.086 294.936 293.03 294.586C292.96 294.908 292.834 295.398 292.484 296.532L291.532 299.5H289.866Z" fill="white"/>
<g filter="url(#filter2_d_308_525)">
<rect x="323" y="276" width="83" height="36" rx="4" fill="white"/>
<path d="M340.6 299.668C337.618 299.668 335.686 297.596 335.686 294.39C335.686 291.212 337.688 289.098 340.684 289.098C343.106 289.098 344.912 290.512 345.262 292.71H343.372C343.022 291.52 342 290.82 340.642 290.82C338.752 290.82 337.562 292.192 337.562 294.376C337.562 296.546 338.766 297.946 340.642 297.946C342.028 297.946 343.092 297.218 343.428 296.084H345.29C344.898 298.24 343.022 299.668 340.6 299.668ZM348.566 299.682C347.096 299.682 346.2 298.828 346.2 297.526C346.2 296.252 347.124 295.454 348.762 295.328L350.834 295.174V295.02C350.834 294.082 350.274 293.704 349.406 293.704C348.398 293.704 347.838 294.124 347.838 294.852H346.382C346.382 293.354 347.614 292.374 349.49 292.374C351.352 292.374 352.5 293.382 352.5 295.3V299.5H351.002L350.876 298.478C350.582 299.192 349.644 299.682 348.566 299.682ZM349.126 298.394C350.176 298.394 350.848 297.764 350.848 296.7V296.336L349.406 296.448C348.342 296.546 347.936 296.896 347.936 297.456C347.936 298.086 348.356 298.394 349.126 298.394ZM355.9 299.5H354.206V289.084H355.9V299.5ZM359.414 299.5H357.72V289.084H359.414V299.5ZM366.995 299.5H365.231V289.266H367.009L371.811 296.518V289.266H373.575V299.5H371.811L366.995 292.248V299.5ZM375.182 296.028C375.182 293.872 376.736 292.388 378.878 292.388C381.02 292.388 382.574 293.872 382.574 296.028C382.574 298.184 381.02 299.668 378.878 299.668C376.736 299.668 375.182 298.184 375.182 296.028ZM376.89 296.028C376.89 297.288 377.702 298.142 378.878 298.142C380.054 298.142 380.866 297.288 380.866 296.028C380.866 294.768 380.054 293.914 378.878 293.914C377.702 293.914 376.89 294.768 376.89 296.028ZM385.112 299.5L382.872 292.584H384.65L385.56 295.552C385.714 296.098 385.854 296.7 385.98 297.344C386.106 296.672 386.232 296.238 386.456 295.552L387.408 292.584H389.144L390.068 295.552C390.152 295.832 390.432 296.868 390.516 297.33C390.628 296.812 390.852 295.986 390.978 295.552L391.902 292.584H393.708L391.314 299.5H389.718L388.766 296.504C388.486 295.594 388.332 294.936 388.276 294.586C388.206 294.908 388.08 295.398 387.73 296.532L386.778 299.5H385.112Z" fill="#B30000"/>
</g>
<defs>
<filter id="filter0_d_308_525" x="148" y="89" width="206" height="294" filterUnits="userSpaceOnUse" color-interpolation-filters="sRGB">
<feFlood flood-opacity="0" result="BackgroundImageFix"/>
<feColorMatrix in="SourceAlpha" type="matrix" values="0 0 0 0 0 0 0 0 0 0 0 0 0 0 0 0 0 0 127 0" result="hardAlpha"/>
<feOffset dy="1"/>
<feGaussianBlur stdDeviation="9"/>
<feComposite in2="hardAlpha" operator="out"/>
<feColorMatrix type="matrix" values="0 0 0 0 0 0 0 0 0 0 0 0 0 0 0 0 0 0 0.15 0"/>
<feBlend mode="normal" in2="BackgroundImageFix" result="effect1_dropShadow_308_525"/>
<feBlend mode="normal" in="SourceGraphic" in2="effect1_dropShadow_308_525" result="shape"/>
</filter>
<filter id="filter1_d_308_525" x="26" y="112" width="244" height="154" filterUnits="userSpaceOnUse" color-interpolation-filters="sRGB">
<feFlood flood-opacity="0" result="BackgroundImageFix"/>
<feColorMatrix in="SourceAlpha" type="matrix" values="0 0 0 0 0 0 0 0 0 0 0 0 0 0 0 0 0 0 127 0" result="hardAlpha"/>
<feOffset dy="1"/>
<feGaussianBlur stdDeviation="4"/>
<feComposite in2="hardAlpha" operator="out"/>
<feColorMatrix type="matrix" values="0 0 0 0 0 0 0 0 0 0 0 0 0 0 0 0 0 0 0.15 0"/>
<feBlend mode="normal" in2="BackgroundImageFix" result="effect1_dropShadow_308_525"/>
<feBlend mode="normal" in="SourceGraphic" in2="effect1_dropShadow_308_525" result="shape"/>
</filter>
<filter id="filter2_d_308_525" x="315" y="269" width="99" height="52" filterUnits="userSpaceOnUse" color-interpolation-filters="sRGB">
<feFlood flood-opacity="0" result="BackgroundImageFix"/>
<feColorMatrix in="SourceAlpha" type="matrix" values="0 0 0 0 0 0 0 0 0 0 0 0 0 0 0 0 0 0 127 0" result="hardAlpha"/>
<feOffset dy="1"/>
<feGaussianBlur stdDeviation="4"/>
<feComposite in2="hardAlpha" operator="out"/>
<feColorMatrix type="matrix" values="0 0 0 0 0 0 0 0 0 0 0 0 0 0 0 0 0 0 0.15 0"/>
<feBlend mode="normal" in2="BackgroundImageFix" result="effect1_dropShadow_308_525"/>
<feBlend mode="normal" in="SourceGraphic" in2="effect1_dropShadow_308_525" result="shape"/>
</filter>
</defs>
</svg>
