<svg width="493" height="351" viewBox="0 0 493 351" fill="none" xmlns="http://www.w3.org/2000/svg">
<circle cx="251.176" cy="174.672" r="174.672" fill="#FFE2E5"/>
<mask id="mask0_308_568" style="mask-type:alpha" maskUnits="userSpaceOnUse" x="76" y="0" width="350" height="350">
<circle cx="251.176" cy="174.672" r="174.672" fill="#CEE7FF"/>
</mask>
<g mask="url(#mask0_308_568)">
<g filter="url(#filter0_d_308_568)">
<rect x="160" y="36" width="182" height="325" rx="12" fill="white"/>
<rect x="157" y="33" width="188" height="331" rx="15" stroke="#E2F1FF" stroke-width="6"/>
</g>
<path d="M160 48C160 41.3726 165.373 36 172 36H330C336.627 36 342 41.3726 342 48V73H160V48Z" fill="#085E56"/>
</g>
<path d="M424.018 32C431.878 38.6885 443.588 55.2131 427.555 67.8033C422.545 71.7377 416.316 66.7803 426.376 59.541C438.951 50.4918 462.53 74.8852 459.779 104" stroke="#000247" stroke-width="2"/>
<path d="M66.5 53L71.647 62.353L81 67.5L71.647 72.647L66.5 82L61.353 72.647L52 67.5L61.353 62.353L66.5 53Z" fill="#FDEFF0"/>
<path d="M396.5 305L400.227 311.773L407 315.5L400.227 319.227L396.5 326L392.773 319.227L386 315.5L392.773 311.773L396.5 305Z" fill="#FDEFF0"/>
<g filter="url(#filter1_d_308_568)">
<rect x="265" y="53" width="151" height="40" rx="8" fill="white"/>
</g>
<path d="M278.749 77H277.957V69.124H278.749V72.633H283.006V69.124H283.787V77H283.006V73.37H278.749V77ZM287.781 77.132C286.219 77.132 285.174 76.01 285.174 74.338C285.174 72.677 286.208 71.533 287.726 71.533C289.167 71.533 290.146 72.556 290.146 74.063V74.437H285.911C285.966 75.735 286.648 76.483 287.792 76.483C288.661 76.483 289.222 76.109 289.42 75.405H290.146C289.86 76.527 289.035 77.132 287.781 77.132ZM287.726 72.182C286.725 72.182 286.065 72.842 285.933 73.887H289.387C289.387 72.864 288.727 72.182 287.726 72.182ZM290.691 79.321V78.694H291.274C291.736 78.694 292.198 78.661 292.462 77.946L292.693 77.319L290.537 71.676H291.34L293.056 76.318L294.739 71.676H295.52L293.078 78.221C292.77 79.057 292.253 79.398 291.494 79.398C291.175 79.398 290.933 79.376 290.691 79.321ZM301.175 77L298.832 69.124H299.657L301.252 74.536C301.362 74.921 301.461 75.317 301.56 75.834C301.692 75.262 301.802 74.921 301.923 74.536L303.639 69.124H304.464L306.18 74.536C306.301 74.932 306.411 75.328 306.532 75.834C306.653 75.229 306.752 74.844 306.84 74.547L308.468 69.124H309.271L306.906 77H306.158L304.046 70.312L301.934 77H301.175ZM310.982 76.989H310.223V68.981H310.982V72.6C311.323 71.962 311.972 71.533 312.863 71.533C314.26 71.533 314.887 72.402 314.887 73.744V77H314.128V73.909C314.128 72.666 313.545 72.226 312.72 72.226C311.576 72.226 310.982 73.073 310.982 74.096V76.989ZM318.632 77.132C317.07 77.132 316.025 76.01 316.025 74.338C316.025 72.677 317.059 71.533 318.577 71.533C320.018 71.533 320.997 72.556 320.997 74.063V74.437H316.762C316.817 75.735 317.499 76.483 318.643 76.483C319.512 76.483 320.073 76.109 320.271 75.405H320.997C320.711 76.527 319.886 77.132 318.632 77.132ZM318.577 72.182C317.576 72.182 316.916 72.842 316.784 73.887H320.238C320.238 72.864 319.578 72.182 318.577 72.182ZM324.994 71.61V72.292H324.576C323.597 72.292 322.97 72.952 322.97 73.964V77H322.211V71.676H322.926L322.981 72.501C323.19 71.929 323.751 71.555 324.499 71.555C324.664 71.555 324.807 71.566 324.994 71.61ZM328.032 77.132C326.47 77.132 325.425 76.01 325.425 74.338C325.425 72.677 326.459 71.533 327.977 71.533C329.418 71.533 330.397 72.556 330.397 74.063V74.437H326.162C326.217 75.735 326.899 76.483 328.043 76.483C328.912 76.483 329.473 76.109 329.671 75.405H330.397C330.111 76.527 329.286 77.132 328.032 77.132ZM327.977 72.182C326.976 72.182 326.316 72.842 326.184 73.887H329.638C329.638 72.864 328.978 72.182 327.977 72.182ZM335.035 70.213C334.727 70.213 334.474 69.96 334.474 69.652C334.474 69.344 334.727 69.08 335.035 69.08C335.343 69.08 335.607 69.344 335.607 69.652C335.607 69.96 335.343 70.213 335.035 70.213ZM334.661 77V71.676H335.42V77H334.661ZM336.552 75.504H337.278C337.278 76.12 337.74 76.505 338.488 76.505C339.313 76.505 339.797 76.153 339.797 75.581C339.797 75.141 339.577 74.888 338.95 74.734L338.037 74.503C337.113 74.272 336.662 73.788 336.662 73.062C336.662 72.127 337.443 71.533 338.587 71.533C339.709 71.533 340.435 72.149 340.468 73.139H339.731C339.709 72.523 339.28 72.16 338.565 72.16C337.817 72.16 337.399 72.479 337.399 73.051C337.399 73.458 337.685 73.744 338.268 73.887L339.181 74.118C340.105 74.349 340.523 74.778 340.523 75.548C340.523 76.505 339.709 77.132 338.499 77.132C337.3 77.132 336.552 76.494 336.552 75.504ZM345.582 77H344.823V71.676H345.483L345.571 72.435C345.835 71.874 346.429 71.533 347.177 71.533C348.013 71.533 348.64 71.973 348.893 72.666C349.135 71.973 349.784 71.533 350.642 71.533C351.797 71.533 352.556 72.281 352.556 73.513V77H351.819V73.667C351.819 72.754 351.313 72.215 350.499 72.215C349.608 72.215 349.08 72.886 349.08 73.711V77H348.332V73.656C348.332 72.754 347.815 72.226 347.012 72.226C346.121 72.226 345.582 72.886 345.582 73.7V77ZM353.437 79.321V78.694H354.02C354.482 78.694 354.944 78.661 355.208 77.946L355.439 77.319L353.283 71.676H354.086L355.802 76.318L357.485 71.676H358.266L355.824 78.221C355.516 79.057 354.999 79.398 354.24 79.398C353.921 79.398 353.679 79.376 353.437 79.321ZM361.83 74.338C361.83 72.71 362.974 71.533 364.536 71.533C366.098 71.533 367.242 72.71 367.242 74.338C367.242 75.955 366.098 77.132 364.536 77.132C362.974 77.132 361.83 75.955 361.83 74.338ZM362.6 74.327C362.6 75.581 363.392 76.45 364.536 76.45C365.669 76.45 366.472 75.581 366.472 74.327C366.472 73.095 365.669 72.215 364.536 72.215C363.392 72.215 362.6 73.095 362.6 74.327ZM371.239 71.61V72.292H370.821C369.842 72.292 369.215 72.952 369.215 73.964V77H368.456V71.676H369.171L369.226 72.501C369.435 71.929 369.996 71.555 370.744 71.555C370.909 71.555 371.052 71.566 371.239 71.61ZM374.134 77.132C372.583 77.132 371.67 75.944 371.67 74.349C371.67 72.743 372.583 71.533 374.167 71.533C375.047 71.533 375.751 71.918 376.125 72.688V68.981H376.884V77H376.224L376.147 75.911C375.773 76.736 375.025 77.132 374.134 77.132ZM374.266 76.439C375.432 76.439 376.114 75.559 376.114 74.327C376.114 73.106 375.432 72.215 374.266 72.215C373.111 72.215 372.44 73.106 372.44 74.327C372.44 75.559 373.111 76.439 374.266 76.439ZM380.701 77.132C379.139 77.132 378.094 76.01 378.094 74.338C378.094 72.677 379.128 71.533 380.646 71.533C382.087 71.533 383.066 72.556 383.066 74.063V74.437H378.831C378.886 75.735 379.568 76.483 380.712 76.483C381.581 76.483 382.142 76.109 382.34 75.405H383.066C382.78 76.527 381.955 77.132 380.701 77.132ZM380.646 72.182C379.645 72.182 378.985 72.842 378.853 73.887H382.307C382.307 72.864 381.647 72.182 380.646 72.182ZM387.062 71.61V72.292H386.644C385.665 72.292 385.038 72.952 385.038 73.964V77H384.279V71.676H384.994L385.049 72.501C385.258 71.929 385.819 71.555 386.567 71.555C386.732 71.555 386.875 71.566 387.062 71.61ZM390.194 75.196H389.479V74.91C389.479 74.008 390.062 73.524 390.678 73.062C391.25 72.622 391.789 72.171 391.789 71.368C391.789 70.433 391.14 69.707 390.128 69.707C389.171 69.707 388.423 70.466 388.423 71.423H387.653C387.653 70.048 388.742 68.981 390.128 68.981C391.635 68.981 392.57 70.004 392.57 71.346C392.57 72.479 391.844 73.04 391.195 73.524C390.579 73.964 390.194 74.327 390.194 74.91V75.196ZM389.886 77.154C389.501 77.154 389.193 76.835 389.193 76.461C389.193 76.087 389.501 75.779 389.886 75.779C390.26 75.779 390.568 76.087 390.568 76.461C390.568 76.835 390.26 77.154 389.886 77.154Z" fill="#000247"/>
<g filter="url(#filter2_d_308_568)">
<rect x="86" y="104" width="179" height="96" rx="8" fill="white"/>
</g>
<path d="M99.749 128H98.957V120.124H99.749V123.633H104.006V120.124H104.787V128H104.006V124.37H99.749V128ZM106.922 121.213C106.614 121.213 106.361 120.96 106.361 120.652C106.361 120.344 106.614 120.08 106.922 120.08C107.23 120.08 107.494 120.344 107.494 120.652C107.494 120.96 107.23 121.213 106.922 121.213ZM106.548 128V122.676H107.307V128H106.548ZM112.886 128H112.105V120.124H112.886L115.757 127.065L118.628 120.124H119.42V128H118.639V124.26C118.639 122.885 118.661 122.28 118.705 121.741L116.142 128H115.383L112.82 121.774C112.864 122.071 112.886 122.94 112.886 124.139V128ZM122.697 128.132C121.564 128.132 120.893 127.494 120.893 126.559C120.893 125.58 121.641 124.964 122.884 124.865L124.644 124.722V124.546C124.644 123.501 124.017 123.171 123.236 123.171C122.312 123.171 121.762 123.589 121.762 124.304H121.069C121.069 123.226 121.949 122.533 123.258 122.533C124.49 122.533 125.392 123.149 125.392 124.557V128H124.754L124.655 127.065C124.325 127.736 123.599 128.132 122.697 128.132ZM122.873 127.516C123.995 127.516 124.644 126.735 124.644 125.58V125.294L123.071 125.415C122.07 125.503 121.663 125.943 121.663 126.537C121.663 127.186 122.147 127.516 122.873 127.516ZM127.674 127.989H126.915V119.981H127.674V123.6C128.015 122.962 128.664 122.533 129.555 122.533C130.952 122.533 131.579 123.402 131.579 124.744V128H130.82V124.909C130.82 123.666 130.237 123.226 129.412 123.226C128.268 123.226 127.674 124.073 127.674 125.096V127.989ZM135.325 128.132C133.763 128.132 132.718 127.01 132.718 125.338C132.718 123.677 133.752 122.533 135.27 122.533C136.711 122.533 137.69 123.556 137.69 125.063V125.437H133.455C133.51 126.735 134.192 127.483 135.336 127.483C136.205 127.483 136.766 127.109 136.964 126.405H137.69C137.404 127.527 136.579 128.132 135.325 128.132ZM135.27 123.182C134.269 123.182 133.609 123.842 133.477 124.887H136.931C136.931 123.864 136.271 123.182 135.27 123.182ZM138.452 126.504H139.178C139.178 127.12 139.64 127.505 140.388 127.505C141.213 127.505 141.697 127.153 141.697 126.581C141.697 126.141 141.477 125.888 140.85 125.734L139.937 125.503C139.013 125.272 138.562 124.788 138.562 124.062C138.562 123.127 139.343 122.533 140.487 122.533C141.609 122.533 142.335 123.149 142.368 124.139H141.631C141.609 123.523 141.18 123.16 140.465 123.16C139.717 123.16 139.299 123.479 139.299 124.051C139.299 124.458 139.585 124.744 140.168 124.887L141.081 125.118C142.005 125.349 142.423 125.778 142.423 126.548C142.423 127.505 141.609 128.132 140.399 128.132C139.2 128.132 138.452 127.494 138.452 126.504ZM144.432 127.989H143.673V119.981H144.432V123.6C144.773 122.962 145.422 122.533 146.313 122.533C147.71 122.533 148.337 123.402 148.337 124.744V128H147.578V124.909C147.578 123.666 146.995 123.226 146.17 123.226C145.026 123.226 144.432 124.073 144.432 125.096V127.989ZM151.192 127.626C151.192 128.308 150.664 128.902 149.982 129.001V128.594C150.378 128.528 150.664 128.242 150.664 127.934C150.598 127.978 150.51 128.011 150.378 128.011C150.07 128.011 149.806 127.791 149.806 127.417C149.806 127.032 150.07 126.757 150.455 126.757C150.851 126.757 151.192 127.076 151.192 127.626ZM155.24 130.321V129.694H155.823C156.285 129.694 156.747 129.661 157.011 128.946L157.242 128.319L155.086 122.676H155.889L157.605 127.318L159.288 122.676H160.069L157.627 129.221C157.319 130.057 156.802 130.398 156.043 130.398C155.724 130.398 155.482 130.376 155.24 130.321ZM160.4 125.338C160.4 123.71 161.544 122.533 163.106 122.533C164.668 122.533 165.812 123.71 165.812 125.338C165.812 126.955 164.668 128.132 163.106 128.132C161.544 128.132 160.4 126.955 160.4 125.338ZM161.17 125.327C161.17 126.581 161.962 127.45 163.106 127.45C164.239 127.45 165.042 126.581 165.042 125.327C165.042 124.095 164.239 123.215 163.106 123.215C161.962 123.215 161.17 124.095 161.17 125.327ZM170.637 122.676H171.396V128H170.736L170.637 127.098C170.34 127.714 169.603 128.132 168.767 128.132C167.513 128.132 166.831 127.274 166.831 125.976V122.665H167.601V125.734C167.601 126.999 168.162 127.45 169.009 127.45C170.032 127.45 170.637 126.768 170.637 125.503V122.676ZM175.761 122.61V123.292H175.343C174.364 123.292 173.737 123.952 173.737 124.964V128H172.978V122.676H173.693L173.748 123.501C173.957 122.929 174.518 122.555 175.266 122.555C175.431 122.555 175.574 122.566 175.761 122.61ZM179.446 125.338C179.446 123.71 180.59 122.533 182.152 122.533C183.714 122.533 184.858 123.71 184.858 125.338C184.858 126.955 183.714 128.132 182.152 128.132C180.59 128.132 179.446 126.955 179.446 125.338ZM180.216 125.327C180.216 126.581 181.008 127.45 182.152 127.45C183.285 127.45 184.088 126.581 184.088 125.327C184.088 124.095 183.285 123.215 182.152 123.215C181.008 123.215 180.216 124.095 180.216 125.327ZM188.855 122.61V123.292H188.437C187.458 123.292 186.831 123.952 186.831 124.964V128H186.072V122.676H186.787L186.842 123.501C187.051 122.929 187.612 122.555 188.36 122.555C188.525 122.555 188.668 122.566 188.855 122.61ZM191.75 128.132C190.199 128.132 189.286 126.944 189.286 125.349C189.286 123.743 190.199 122.533 191.783 122.533C192.663 122.533 193.367 122.918 193.741 123.688V119.981H194.5V128H193.84L193.763 126.911C193.389 127.736 192.641 128.132 191.75 128.132ZM191.882 127.439C193.048 127.439 193.73 126.559 193.73 125.327C193.73 124.106 193.048 123.215 191.882 123.215C190.727 123.215 190.056 124.106 190.056 125.327C190.056 126.559 190.727 127.439 191.882 127.439ZM198.317 128.132C196.755 128.132 195.71 127.01 195.71 125.338C195.71 123.677 196.744 122.533 198.262 122.533C199.703 122.533 200.682 123.556 200.682 125.063V125.437H196.447C196.502 126.735 197.184 127.483 198.328 127.483C199.197 127.483 199.758 127.109 199.956 126.405H200.682C200.396 127.527 199.571 128.132 198.317 128.132ZM198.262 123.182C197.261 123.182 196.601 123.842 196.469 124.887H199.923C199.923 123.864 199.263 123.182 198.262 123.182ZM204.679 122.61V123.292H204.261C203.282 123.292 202.655 123.952 202.655 124.964V128H201.896V122.676H202.611L202.666 123.501C202.875 122.929 203.436 122.555 204.184 122.555C204.349 122.555 204.492 122.566 204.679 122.61ZM209.497 127.989H208.738V119.981H209.497V123.6C209.838 122.962 210.487 122.533 211.378 122.533C212.775 122.533 213.402 123.402 213.402 124.744V128H212.643V124.909C212.643 123.666 212.06 123.226 211.235 123.226C210.091 123.226 209.497 124.073 209.497 125.096V127.989ZM216.444 128.132C215.311 128.132 214.64 127.494 214.64 126.559C214.64 125.58 215.388 124.964 216.631 124.865L218.391 124.722V124.546C218.391 123.501 217.764 123.171 216.983 123.171C216.059 123.171 215.509 123.589 215.509 124.304H214.816C214.816 123.226 215.696 122.533 217.005 122.533C218.237 122.533 219.139 123.149 219.139 124.557V128H218.501L218.402 127.065C218.072 127.736 217.346 128.132 216.444 128.132ZM216.62 127.516C217.742 127.516 218.391 126.735 218.391 125.58V125.294L216.818 125.415C215.817 125.503 215.41 125.943 215.41 126.537C215.41 127.186 215.894 127.516 216.62 127.516ZM220.211 126.504H220.937C220.937 127.12 221.399 127.505 222.147 127.505C222.972 127.505 223.456 127.153 223.456 126.581C223.456 126.141 223.236 125.888 222.609 125.734L221.696 125.503C220.772 125.272 220.321 124.788 220.321 124.062C220.321 123.127 221.102 122.533 222.246 122.533C223.368 122.533 224.094 123.149 224.127 124.139H223.39C223.368 123.523 222.939 123.16 222.224 123.16C221.476 123.16 221.058 123.479 221.058 124.051C221.058 124.458 221.344 124.744 221.927 124.887L222.84 125.118C223.764 125.349 224.182 125.778 224.182 126.548C224.182 127.505 223.368 128.132 222.158 128.132C220.959 128.132 220.211 127.494 220.211 126.504ZM229.142 128H228.482V119.981H229.241V123.71C229.615 122.929 230.341 122.533 231.243 122.533C232.794 122.533 233.696 123.743 233.696 125.349C233.696 126.944 232.772 128.132 231.221 128.132C230.33 128.132 229.593 127.736 229.219 126.911L229.142 128ZM229.252 125.327C229.252 126.559 229.934 127.439 231.1 127.439C232.255 127.439 232.926 126.559 232.926 125.327C232.926 124.106 232.255 123.215 231.1 123.215C229.934 123.215 229.252 124.106 229.252 125.327ZM237.139 128.132C235.577 128.132 234.532 127.01 234.532 125.338C234.532 123.677 235.566 122.533 237.084 122.533C238.525 122.533 239.504 123.556 239.504 125.063V125.437H235.269C235.324 126.735 236.006 127.483 237.15 127.483C238.019 127.483 238.58 127.109 238.778 126.405H239.504C239.218 127.527 238.393 128.132 237.139 128.132ZM237.084 123.182C236.083 123.182 235.423 123.842 235.291 124.887H238.745C238.745 123.864 238.085 123.182 237.084 123.182ZM242.951 128.132C241.389 128.132 240.344 127.01 240.344 125.338C240.344 123.677 241.378 122.533 242.896 122.533C244.337 122.533 245.316 123.556 245.316 125.063V125.437H241.081C241.136 126.735 241.818 127.483 242.962 127.483C243.831 127.483 244.392 127.109 244.59 126.405H245.316C245.03 127.527 244.205 128.132 242.951 128.132ZM242.896 123.182C241.895 123.182 241.235 123.842 241.103 124.887H244.557C244.557 123.864 243.897 123.182 242.896 123.182ZM247.288 128H246.529V122.676H247.189L247.299 123.6C247.651 122.918 248.355 122.533 249.125 122.533C250.588 122.533 251.193 123.402 251.193 124.744V128H250.434V124.909C250.434 123.666 249.873 123.226 248.993 123.226C247.904 123.226 247.288 124.018 247.288 125.217V128ZM98.341 141.504H99.067C99.067 142.12 99.529 142.505 100.277 142.505C101.102 142.505 101.586 142.153 101.586 141.581C101.586 141.141 101.366 140.888 100.739 140.734L99.826 140.503C98.902 140.272 98.451 139.788 98.451 139.062C98.451 138.127 99.232 137.533 100.376 137.533C101.498 137.533 102.224 138.149 102.257 139.139H101.52C101.498 138.523 101.069 138.16 100.354 138.16C99.606 138.16 99.188 138.479 99.188 139.051C99.188 139.458 99.474 139.744 100.057 139.887L100.97 140.118C101.894 140.349 102.312 140.778 102.312 141.548C102.312 142.505 101.498 143.132 100.288 143.132C99.089 143.132 98.341 142.494 98.341 141.504ZM104.321 142.989H103.562V134.981H104.321V138.6C104.662 137.962 105.311 137.533 106.202 137.533C107.599 137.533 108.226 138.402 108.226 139.744V143H107.467V139.909C107.467 138.666 106.884 138.226 106.059 138.226C104.915 138.226 104.321 139.073 104.321 140.096V142.989ZM110.112 136.213C109.804 136.213 109.551 135.96 109.551 135.652C109.551 135.344 109.804 135.08 110.112 135.08C110.42 135.08 110.684 135.344 110.684 135.652C110.684 135.96 110.42 136.213 110.112 136.213ZM109.738 143V137.676H110.497V143H109.738ZM112.08 145.321V137.676H112.74L112.817 138.754C113.191 137.929 113.939 137.533 114.83 137.533C116.37 137.533 117.294 138.71 117.294 140.316C117.294 141.922 116.403 143.132 114.83 143.132C113.928 143.132 113.213 142.747 112.839 141.977V145.321H112.08ZM112.85 140.338C112.85 141.559 113.532 142.45 114.698 142.45C115.853 142.45 116.524 141.559 116.524 140.338C116.524 139.106 115.853 138.226 114.698 138.226C113.532 138.226 112.85 139.106 112.85 140.338ZM118.504 145.321V137.676H119.164L119.241 138.754C119.615 137.929 120.363 137.533 121.254 137.533C122.794 137.533 123.718 138.71 123.718 140.316C123.718 141.922 122.827 143.132 121.254 143.132C120.352 143.132 119.637 142.747 119.263 141.977V145.321H118.504ZM119.274 140.338C119.274 141.559 119.956 142.45 121.122 142.45C122.277 142.45 122.948 141.559 122.948 140.338C122.948 139.106 122.277 138.226 121.122 138.226C119.956 138.226 119.274 139.106 119.274 140.338ZM127.161 143.132C125.599 143.132 124.554 142.01 124.554 140.338C124.554 138.677 125.588 137.533 127.106 137.533C128.547 137.533 129.526 138.556 129.526 140.063V140.437H125.291C125.346 141.735 126.028 142.483 127.172 142.483C128.041 142.483 128.602 142.109 128.8 141.405H129.526C129.24 142.527 128.415 143.132 127.161 143.132ZM127.106 138.182C126.105 138.182 125.445 138.842 125.313 139.887H128.767C128.767 138.864 128.107 138.182 127.106 138.182ZM132.829 143.132C131.278 143.132 130.365 141.944 130.365 140.349C130.365 138.743 131.278 137.533 132.862 137.533C133.742 137.533 134.446 137.918 134.82 138.688V134.981H135.579V143H134.919L134.842 141.911C134.468 142.736 133.72 143.132 132.829 143.132ZM132.961 142.439C134.127 142.439 134.809 141.559 134.809 140.327C134.809 139.106 134.127 138.215 132.961 138.215C131.806 138.215 131.135 139.106 131.135 140.327C131.135 141.559 131.806 142.439 132.961 142.439ZM141.435 143H140.687V138.314H139.62V137.676H140.687V135.993H141.435V137.676H142.502V138.314H141.435V143ZM143.063 140.338C143.063 138.71 144.207 137.533 145.769 137.533C147.331 137.533 148.475 138.71 148.475 140.338C148.475 141.955 147.331 143.132 145.769 143.132C144.207 143.132 143.063 141.955 143.063 140.338ZM143.833 140.327C143.833 141.581 144.625 142.45 145.769 142.45C146.902 142.45 147.705 141.581 147.705 140.327C147.705 139.095 146.902 138.215 145.769 138.215C144.625 138.215 143.833 139.095 143.833 140.327ZM151.778 143.132C150.227 143.132 149.314 141.944 149.314 140.349C149.314 138.743 150.227 137.533 151.811 137.533C152.691 137.533 153.395 137.918 153.769 138.688V134.981H154.528V143H153.868L153.791 141.911C153.417 142.736 152.669 143.132 151.778 143.132ZM151.91 142.439C153.076 142.439 153.758 141.559 153.758 140.327C153.758 139.106 153.076 138.215 151.91 138.215C150.755 138.215 150.084 139.106 150.084 140.327C150.084 141.559 150.755 142.439 151.91 142.439ZM157.641 143.132C156.508 143.132 155.837 142.494 155.837 141.559C155.837 140.58 156.585 139.964 157.828 139.865L159.588 139.722V139.546C159.588 138.501 158.961 138.171 158.18 138.171C157.256 138.171 156.706 138.589 156.706 139.304H156.013C156.013 138.226 156.893 137.533 158.202 137.533C159.434 137.533 160.336 138.149 160.336 139.557V143H159.698L159.599 142.065C159.269 142.736 158.543 143.132 157.641 143.132ZM157.817 142.516C158.939 142.516 159.588 141.735 159.588 140.58V140.294L158.015 140.415C157.014 140.503 156.607 140.943 156.607 141.537C156.607 142.186 157.091 142.516 157.817 142.516ZM161.202 145.321V144.694H161.785C162.247 144.694 162.709 144.661 162.973 143.946L163.204 143.319L161.048 137.676H161.851L163.567 142.318L165.25 137.676H166.031L163.589 144.221C163.281 145.057 162.764 145.398 162.005 145.398C161.686 145.398 161.444 145.376 161.202 145.321ZM170.63 143H169.97V134.981H170.729V138.71C171.103 137.929 171.829 137.533 172.731 137.533C174.282 137.533 175.184 138.743 175.184 140.349C175.184 141.944 174.26 143.132 172.709 143.132C171.818 143.132 171.081 142.736 170.707 141.911L170.63 143ZM170.74 140.327C170.74 141.559 171.422 142.439 172.588 142.439C173.743 142.439 174.414 141.559 174.414 140.327C174.414 139.106 173.743 138.215 172.588 138.215C171.422 138.215 170.74 139.106 170.74 140.327ZM175.683 145.321V144.694H176.266C176.728 144.694 177.19 144.661 177.454 143.946L177.685 143.319L175.529 137.676H176.332L178.048 142.318L179.731 137.676H180.512L178.07 144.221C177.762 145.057 177.245 145.398 176.486 145.398C176.167 145.398 175.925 145.376 175.683 145.321ZM184.615 143V135.124H187.497C189.015 135.124 189.95 135.894 189.95 137.159C189.95 138.083 189.543 138.71 188.729 139.029C189.642 139.326 190.104 139.964 190.104 140.932C190.104 142.197 189.158 143 187.662 143H184.615ZM187.486 135.828H185.407V138.71H187.585C188.575 138.71 189.136 138.16 189.136 137.225C189.136 136.345 188.542 135.828 187.486 135.828ZM187.662 139.403H185.407V142.285H187.662C188.696 142.285 189.301 141.746 189.301 140.833C189.301 139.942 188.685 139.403 187.662 139.403ZM192.16 143H191.401V134.981H192.16V143ZM197.514 137.676H198.273V143H197.613L197.514 142.098C197.217 142.714 196.48 143.132 195.644 143.132C194.39 143.132 193.708 142.274 193.708 140.976V137.665H194.478V140.734C194.478 141.999 195.039 142.45 195.886 142.45C196.909 142.45 197.514 141.768 197.514 140.503V137.676ZM201.98 143.132C200.418 143.132 199.373 142.01 199.373 140.338C199.373 138.677 200.407 137.533 201.925 137.533C203.366 137.533 204.345 138.556 204.345 140.063V140.437H200.11C200.165 141.735 200.847 142.483 201.991 142.483C202.86 142.483 203.421 142.109 203.619 141.405H204.345C204.059 142.527 203.234 143.132 201.98 143.132ZM201.925 138.182C200.924 138.182 200.264 138.842 200.132 139.887H203.586C203.586 138.864 202.926 138.182 201.925 138.182ZM211.172 143H208.774V135.124H211.15C213.526 135.124 215.11 136.708 215.11 139.062C215.11 141.416 213.537 143 211.172 143ZM211.117 135.85H209.566V142.274H211.139C213.064 142.274 214.296 141.02 214.296 139.062C214.296 137.093 213.064 135.85 211.117 135.85ZM217.905 143.132C216.772 143.132 216.101 142.494 216.101 141.559C216.101 140.58 216.849 139.964 218.092 139.865L219.852 139.722V139.546C219.852 138.501 219.225 138.171 218.444 138.171C217.52 138.171 216.97 138.589 216.97 139.304H216.277C216.277 138.226 217.157 137.533 218.466 137.533C219.698 137.533 220.6 138.149 220.6 139.557V143H219.962L219.863 142.065C219.533 142.736 218.807 143.132 217.905 143.132ZM218.081 142.516C219.203 142.516 219.852 141.735 219.852 140.58V140.294L218.279 140.415C217.278 140.503 216.871 140.943 216.871 141.537C216.871 142.186 217.355 142.516 218.081 142.516ZM224.906 137.61V138.292H224.488C223.509 138.292 222.882 138.952 222.882 139.964V143H222.123V137.676H222.838L222.893 138.501C223.102 137.929 223.663 137.555 224.411 137.555C224.576 137.555 224.719 137.566 224.906 137.61ZM227.351 143H226.603V138.314H225.536V137.676H226.603V135.993H227.351V137.676H228.418V138.314H227.351V143ZM229.722 143.121C229.348 143.121 229.029 142.813 229.029 142.45C229.029 142.076 229.348 141.757 229.722 141.757C230.096 141.757 230.415 142.076 230.415 142.45C230.415 142.813 230.096 143.121 229.722 143.121Z" fill="#000247"/>
<path d="M100.783 160.711L98.11 156.124H99.001L100.948 159.523C101.036 159.688 101.102 159.82 101.179 159.996C101.278 159.798 101.278 159.798 101.421 159.523L103.346 156.124H104.215L101.575 160.711V164H100.783V160.711ZM103.714 161.338C103.714 159.71 104.858 158.533 106.42 158.533C107.982 158.533 109.126 159.71 109.126 161.338C109.126 162.955 107.982 164.132 106.42 164.132C104.858 164.132 103.714 162.955 103.714 161.338ZM104.484 161.327C104.484 162.581 105.276 163.45 106.42 163.45C107.553 163.45 108.356 162.581 108.356 161.327C108.356 160.095 107.553 159.215 106.42 159.215C105.276 159.215 104.484 160.095 104.484 161.327ZM113.951 158.676H114.71V164H114.05L113.951 163.098C113.654 163.714 112.917 164.132 112.081 164.132C110.827 164.132 110.145 163.274 110.145 161.976V158.665H110.915V161.734C110.915 162.999 111.476 163.45 112.323 163.45C113.346 163.45 113.951 162.768 113.951 161.503V158.676ZM118.968 161.349C118.968 159.677 119.991 158.533 121.542 158.533C122.774 158.533 123.676 159.248 123.885 160.348H123.126C122.928 159.611 122.29 159.204 121.553 159.204C120.475 159.204 119.716 160.029 119.716 161.338C119.716 162.603 120.42 163.45 121.498 163.45C122.29 163.45 122.928 163.01 123.137 162.328H123.907C123.654 163.417 122.708 164.132 121.498 164.132C119.991 164.132 118.968 163.021 118.968 161.349ZM126.586 164.132C125.453 164.132 124.782 163.494 124.782 162.559C124.782 161.58 125.53 160.964 126.773 160.865L128.533 160.722V160.546C128.533 159.501 127.906 159.171 127.125 159.171C126.201 159.171 125.651 159.589 125.651 160.304H124.958C124.958 159.226 125.838 158.533 127.147 158.533C128.379 158.533 129.281 159.149 129.281 160.557V164H128.643L128.544 163.065C128.214 163.736 127.488 164.132 126.586 164.132ZM126.762 163.516C127.884 163.516 128.533 162.735 128.533 161.58V161.294L126.96 161.415C125.959 161.503 125.552 161.943 125.552 162.537C125.552 163.186 126.036 163.516 126.762 163.516ZM131.563 164H130.804V158.676H131.464L131.574 159.6C131.926 158.918 132.63 158.533 133.4 158.533C134.863 158.533 135.468 159.402 135.468 160.744V164H134.709V160.909C134.709 159.666 134.148 159.226 133.268 159.226C132.179 159.226 131.563 160.018 131.563 161.217V164ZM141.252 164H140.504V159.314H139.437V158.676H140.504V156.993H141.252V158.676H142.319V159.314H141.252V164ZM146.091 158.61V159.292H145.673C144.694 159.292 144.067 159.952 144.067 160.964V164H143.308V158.676H144.023L144.078 159.501C144.287 158.929 144.848 158.555 145.596 158.555C145.761 158.555 145.904 158.566 146.091 158.61ZM148.414 164.132C147.281 164.132 146.61 163.494 146.61 162.559C146.61 161.58 147.358 160.964 148.601 160.865L150.361 160.722V160.546C150.361 159.501 149.734 159.171 148.953 159.171C148.029 159.171 147.479 159.589 147.479 160.304H146.786C146.786 159.226 147.666 158.533 148.975 158.533C150.207 158.533 151.109 159.149 151.109 160.557V164H150.471L150.372 163.065C150.042 163.736 149.316 164.132 148.414 164.132ZM148.59 163.516C149.712 163.516 150.361 162.735 150.361 161.58V161.294L148.788 161.415C147.787 161.503 147.38 161.943 147.38 162.537C147.38 163.186 147.864 163.516 148.59 163.516ZM152.258 161.349C152.258 159.677 153.281 158.533 154.832 158.533C156.064 158.533 156.966 159.248 157.175 160.348H156.416C156.218 159.611 155.58 159.204 154.843 159.204C153.765 159.204 153.006 160.029 153.006 161.338C153.006 162.603 153.71 163.45 154.788 163.45C155.58 163.45 156.218 163.01 156.427 162.328H157.197C156.944 163.417 155.998 164.132 154.788 164.132C153.281 164.132 152.258 163.021 152.258 161.349ZM159.139 164H158.38V155.981H159.139V161.426L161.779 158.676H162.736L160.69 160.799L162.747 164H161.867L160.173 161.338L159.139 162.405V164ZM166.165 166.321V165.694H166.748C167.21 165.694 167.672 165.661 167.936 164.946L168.167 164.319L166.011 158.676H166.814L168.53 163.318L170.213 158.676H170.994L168.552 165.221C168.244 166.057 167.727 166.398 166.968 166.398C166.649 166.398 166.407 166.376 166.165 166.321ZM171.325 161.338C171.325 159.71 172.469 158.533 174.031 158.533C175.593 158.533 176.737 159.71 176.737 161.338C176.737 162.955 175.593 164.132 174.031 164.132C172.469 164.132 171.325 162.955 171.325 161.338ZM172.095 161.327C172.095 162.581 172.887 163.45 174.031 163.45C175.164 163.45 175.967 162.581 175.967 161.327C175.967 160.095 175.164 159.215 174.031 159.215C172.887 159.215 172.095 160.095 172.095 161.327ZM181.562 158.676H182.321V164H181.661L181.562 163.098C181.265 163.714 180.528 164.132 179.692 164.132C178.438 164.132 177.756 163.274 177.756 161.976V158.665H178.526V161.734C178.526 162.999 179.087 163.45 179.934 163.45C180.957 163.45 181.562 162.768 181.562 161.503V158.676ZM186.685 158.61V159.292H186.267C185.288 159.292 184.661 159.952 184.661 160.964V164H183.902V158.676H184.617L184.672 159.501C184.881 158.929 185.442 158.555 186.19 158.555C186.355 158.555 186.498 158.566 186.685 158.61ZM190.371 161.338C190.371 159.71 191.515 158.533 193.077 158.533C194.639 158.533 195.783 159.71 195.783 161.338C195.783 162.955 194.639 164.132 193.077 164.132C191.515 164.132 190.371 162.955 190.371 161.338ZM191.141 161.327C191.141 162.581 191.933 163.45 193.077 163.45C194.21 163.45 195.013 162.581 195.013 161.327C195.013 160.095 194.21 159.215 193.077 159.215C191.933 159.215 191.141 160.095 191.141 161.327ZM199.78 158.61V159.292H199.362C198.383 159.292 197.756 159.952 197.756 160.964V164H196.997V158.676H197.712L197.767 159.501C197.976 158.929 198.537 158.555 199.285 158.555C199.45 158.555 199.593 158.566 199.78 158.61ZM202.675 164.132C201.124 164.132 200.211 162.944 200.211 161.349C200.211 159.743 201.124 158.533 202.708 158.533C203.588 158.533 204.292 158.918 204.666 159.688V155.981H205.425V164H204.765L204.688 162.911C204.314 163.736 203.566 164.132 202.675 164.132ZM202.807 163.439C203.973 163.439 204.655 162.559 204.655 161.327C204.655 160.106 203.973 159.215 202.807 159.215C201.652 159.215 200.981 160.106 200.981 161.327C200.981 162.559 201.652 163.439 202.807 163.439ZM209.242 164.132C207.68 164.132 206.635 163.01 206.635 161.338C206.635 159.677 207.669 158.533 209.187 158.533C210.628 158.533 211.607 159.556 211.607 161.063V161.437H207.372C207.427 162.735 208.109 163.483 209.253 163.483C210.122 163.483 210.683 163.109 210.881 162.405H211.607C211.321 163.527 210.496 164.132 209.242 164.132ZM209.187 159.182C208.186 159.182 207.526 159.842 207.394 160.887H210.848C210.848 159.864 210.188 159.182 209.187 159.182ZM215.603 158.61V159.292H215.185C214.206 159.292 213.579 159.952 213.579 160.964V164H212.82V158.676H213.535L213.59 159.501C213.799 158.929 214.36 158.555 215.108 158.555C215.273 158.555 215.416 158.566 215.603 158.61ZM220.422 163.989H219.663V155.981H220.422V159.6C220.763 158.962 221.412 158.533 222.303 158.533C223.7 158.533 224.327 159.402 224.327 160.744V164H223.568V160.909C223.568 159.666 222.985 159.226 222.16 159.226C221.016 159.226 220.422 160.073 220.422 161.096V163.989ZM228.073 164.132C226.511 164.132 225.466 163.01 225.466 161.338C225.466 159.677 226.5 158.533 228.018 158.533C229.459 158.533 230.438 159.556 230.438 161.063V161.437H226.203C226.258 162.735 226.94 163.483 228.084 163.483C228.953 163.483 229.514 163.109 229.712 162.405H230.438C230.152 163.527 229.327 164.132 228.073 164.132ZM228.018 159.182C227.017 159.182 226.357 159.842 226.225 160.887H229.679C229.679 159.864 229.019 159.182 228.018 159.182ZM234.434 158.61V159.292H234.016C233.037 159.292 232.41 159.952 232.41 160.964V164H231.651V158.676H232.366L232.421 159.501C232.63 158.929 233.191 158.555 233.939 158.555C234.104 158.555 234.247 158.566 234.434 158.61ZM237.472 164.132C235.91 164.132 234.865 163.01 234.865 161.338C234.865 159.677 235.899 158.533 237.417 158.533C238.858 158.533 239.837 159.556 239.837 161.063V161.437H235.602C235.657 162.735 236.339 163.483 237.483 163.483C238.352 163.483 238.913 163.109 239.111 162.405H239.837C239.551 163.527 238.726 164.132 237.472 164.132ZM237.417 159.182C236.416 159.182 235.756 159.842 235.624 160.887H239.078C239.078 159.864 238.418 159.182 237.417 159.182ZM240.259 164.77H251.259V153.77H240.259V164.77Z" fill="#000247"/>
<path d="M98.187 178.257V176.959H104.303V178.257H101.949V185H100.541V178.257H98.187ZM107.936 179.544V180.787H107.441C106.473 180.787 105.868 181.304 105.868 182.36V185H104.526V179.577H105.791L105.868 180.369C106.099 179.83 106.616 179.467 107.342 179.467C107.529 179.467 107.716 179.489 107.936 179.544ZM110.247 185.143C109.092 185.143 108.388 184.472 108.388 183.449C108.388 182.448 109.114 181.821 110.401 181.722L112.029 181.601V181.48C112.029 180.743 111.589 180.446 110.907 180.446C110.115 180.446 109.675 180.776 109.675 181.348H108.531C108.531 180.171 109.499 179.401 110.973 179.401C112.436 179.401 113.338 180.193 113.338 181.7V185H112.161L112.062 184.197C111.831 184.758 111.094 185.143 110.247 185.143ZM110.687 184.131C111.512 184.131 112.04 183.636 112.04 182.8V182.514L110.907 182.602C110.071 182.679 109.752 182.954 109.752 183.394C109.752 183.889 110.082 184.131 110.687 184.131ZM114.337 182.272C114.337 180.589 115.448 179.401 117.054 179.401C118.539 179.401 119.551 180.226 119.694 181.535H118.352C118.198 180.919 117.747 180.6 117.109 180.6C116.251 180.6 115.679 181.249 115.679 182.272C115.679 183.295 116.207 183.933 117.065 183.933C117.736 183.933 118.209 183.603 118.352 183.009H119.705C119.54 184.274 118.484 185.143 117.065 185.143C115.415 185.143 114.337 183.999 114.337 182.272ZM122.057 185H120.726V176.816H122.057V181.843L124.169 179.566H125.852L123.784 181.722L125.808 185H124.268L122.849 182.712L122.057 183.537V185ZM130.93 185H129.588V179.566H130.82L130.93 180.204C131.205 179.753 131.755 179.401 132.536 179.401C133.361 179.401 133.933 179.808 134.219 180.435C134.494 179.808 135.132 179.401 135.957 179.401C137.277 179.401 138.003 180.193 138.003 181.447V185H136.672V181.799C136.672 181.018 136.254 180.611 135.616 180.611C134.967 180.611 134.472 181.029 134.472 181.92V185H133.13V181.788C133.13 181.029 132.723 180.622 132.085 180.622C131.447 180.622 130.93 181.04 130.93 181.92V185ZM138.74 187.519V186.397H139.543C140.071 186.397 140.401 186.276 140.632 185.638L140.786 185.231L138.597 179.566H140.016L141.413 183.526L142.887 179.566H144.273L141.611 186.21C141.204 187.222 140.632 187.64 139.741 187.64C139.367 187.64 139.037 187.596 138.74 187.519ZM155.535 180.974C155.535 183.416 153.929 185.132 151.619 185.132C149.32 185.132 147.736 183.427 147.736 180.974C147.736 178.532 149.331 176.816 151.63 176.816C153.929 176.816 155.535 178.521 155.535 180.974ZM154.05 180.974C154.05 179.258 153.104 178.169 151.63 178.169C150.156 178.169 149.21 179.258 149.21 180.974C149.21 182.69 150.156 183.779 151.63 183.779C153.104 183.779 154.05 182.668 154.05 180.974ZM160.057 179.544V180.787H159.562C158.594 180.787 157.989 181.304 157.989 182.36V185H156.647V179.577H157.912L157.989 180.369C158.22 179.83 158.737 179.467 159.463 179.467C159.65 179.467 159.837 179.489 160.057 179.544ZM163.016 185.143C161.443 185.143 160.464 183.988 160.464 182.305C160.464 180.611 161.454 179.401 163.093 179.401C163.852 179.401 164.523 179.72 164.864 180.259V176.816H166.195V185H164.963L164.875 184.153C164.545 184.78 163.841 185.143 163.016 185.143ZM163.313 183.911C164.248 183.911 164.853 183.24 164.853 182.261C164.853 181.282 164.248 180.6 163.313 180.6C162.378 180.6 161.806 181.293 161.806 182.261C161.806 183.229 162.378 183.911 163.313 183.911ZM170.024 185.143C168.407 185.143 167.274 183.966 167.274 182.283C167.274 180.578 168.385 179.401 169.98 179.401C171.608 179.401 172.642 180.49 172.642 182.184V182.591L168.55 182.602C168.649 183.559 169.155 184.043 170.046 184.043C170.783 184.043 171.267 183.757 171.421 183.24H172.664C172.433 184.428 171.443 185.143 170.024 185.143ZM169.991 180.501C169.199 180.501 168.715 180.93 168.583 181.744H171.311C171.311 180.996 170.794 180.501 169.991 180.501ZM177.126 179.544V180.787H176.631C175.663 180.787 175.058 181.304 175.058 182.36V185H173.716V179.577H174.981L175.058 180.369C175.289 179.83 175.806 179.467 176.532 179.467C176.719 179.467 176.906 179.489 177.126 179.544Z" fill="#0C65FF"/>
<g filter="url(#filter3_d_308_568)">
<rect x="318" y="202" width="128" height="99" rx="8" fill="white"/>
</g>
<path d="M318 210C318 205.582 321.582 202 326 202H438C442.418 202 446 205.582 446 210V229H318V210Z" fill="#085E56"/>
<path d="M333.172 220.451L332.336 219.505C331.742 219.912 331.027 220.132 330.224 220.132C328.013 220.132 326.473 218.449 326.473 216.062C326.473 213.675 328.024 211.981 330.224 211.981C332.435 211.981 333.975 213.664 333.975 216.062C333.975 217.283 333.568 218.317 332.886 219.032L333.711 219.956L333.172 220.451ZM333.161 216.062C333.161 214.093 331.962 212.751 330.224 212.751C328.486 212.751 327.298 214.093 327.298 216.062C327.298 218.031 328.486 219.373 330.224 219.373C330.829 219.373 331.368 219.208 331.808 218.922L330.785 217.767L331.313 217.272L332.358 218.438C332.864 217.855 333.161 217.03 333.161 216.062ZM338.986 214.676H339.745V220H339.085L338.986 219.098C338.689 219.714 337.952 220.132 337.116 220.132C335.862 220.132 335.18 219.274 335.18 217.976V214.665H335.95V217.734C335.95 218.999 336.511 219.45 337.358 219.45C338.381 219.45 338.986 218.768 338.986 217.503V214.676ZM341.7 213.213C341.392 213.213 341.139 212.96 341.139 212.652C341.139 212.344 341.392 212.08 341.7 212.08C342.008 212.08 342.272 212.344 342.272 212.652C342.272 212.96 342.008 213.213 341.7 213.213ZM341.326 220V214.676H342.085V220H341.326ZM343.294 217.349C343.294 215.677 344.317 214.533 345.868 214.533C347.1 214.533 348.002 215.248 348.211 216.348H347.452C347.254 215.611 346.616 215.204 345.879 215.204C344.801 215.204 344.042 216.029 344.042 217.338C344.042 218.603 344.746 219.45 345.824 219.45C346.616 219.45 347.254 219.01 347.463 218.328H348.233C347.98 219.417 347.034 220.132 345.824 220.132C344.317 220.132 343.294 219.021 343.294 217.349ZM350.175 220H349.416V211.981H350.175V217.426L352.815 214.676H353.772L351.726 216.799L353.783 220H352.903L351.209 217.338L350.175 218.405V220ZM358.697 220H357.905V212.124H360.842C362.437 212.124 363.405 213.004 363.405 214.401C363.405 215.534 362.811 216.326 361.799 216.601L363.482 220H362.602L360.996 216.733H358.697V220ZM358.697 212.839V216.018H360.864C361.953 216.018 362.591 215.424 362.591 214.423C362.591 213.4 361.92 212.839 360.842 212.839H358.697ZM366.623 220.132C365.061 220.132 364.016 219.01 364.016 217.338C364.016 215.677 365.05 214.533 366.568 214.533C368.009 214.533 368.988 215.556 368.988 217.063V217.437H364.753C364.808 218.735 365.49 219.483 366.634 219.483C367.503 219.483 368.064 219.109 368.262 218.405H368.988C368.702 219.527 367.877 220.132 366.623 220.132ZM366.568 215.182C365.567 215.182 364.907 215.842 364.775 216.887H368.229C368.229 215.864 367.569 215.182 366.568 215.182ZM370.201 222.321V214.676H370.861L370.938 215.754C371.312 214.929 372.06 214.533 372.951 214.533C374.491 214.533 375.415 215.71 375.415 217.316C375.415 218.922 374.524 220.132 372.951 220.132C372.049 220.132 371.334 219.747 370.96 218.977V222.321H370.201ZM370.971 217.338C370.971 218.559 371.653 219.45 372.819 219.45C373.974 219.45 374.645 218.559 374.645 217.338C374.645 216.106 373.974 215.226 372.819 215.226C371.653 215.226 370.971 216.106 370.971 217.338ZM377.417 220H376.658V211.981H377.417V220ZM379.405 213.213C379.097 213.213 378.844 212.96 378.844 212.652C378.844 212.344 379.097 212.08 379.405 212.08C379.713 212.08 379.977 212.344 379.977 212.652C379.977 212.96 379.713 213.213 379.405 213.213ZM379.031 220V214.676H379.79V220H379.031ZM383.606 220.132C382.044 220.132 380.999 219.01 380.999 217.338C380.999 215.677 382.033 214.533 383.551 214.533C384.992 214.533 385.971 215.556 385.971 217.063V217.437H381.736C381.791 218.735 382.473 219.483 383.617 219.483C384.486 219.483 385.047 219.109 385.245 218.405H385.971C385.685 219.527 384.86 220.132 383.606 220.132ZM383.551 215.182C382.55 215.182 381.89 215.842 381.758 216.887H385.212C385.212 215.864 384.552 215.182 383.551 215.182ZM386.734 218.504H387.46C387.46 219.12 387.922 219.505 388.67 219.505C389.495 219.505 389.979 219.153 389.979 218.581C389.979 218.141 389.759 217.888 389.132 217.734L388.219 217.503C387.295 217.272 386.844 216.788 386.844 216.062C386.844 215.127 387.625 214.533 388.769 214.533C389.891 214.533 390.617 215.149 390.65 216.139H389.913C389.891 215.523 389.462 215.16 388.747 215.16C387.999 215.16 387.581 215.479 387.581 216.051C387.581 216.458 387.867 216.744 388.45 216.887L389.363 217.118C390.287 217.349 390.705 217.778 390.705 218.548C390.705 219.505 389.891 220.132 388.681 220.132C387.482 220.132 386.734 219.494 386.734 218.504Z" fill="white"/>
<g opacity="0.6">
<rect x="326" y="235" width="37" height="3" rx="1.5" fill="#D9D9D9"/>
<rect x="326" y="240" width="112" height="3" rx="1.5" fill="#D9D9D9"/>
<rect x="326" y="244" width="112" height="3" rx="1.5" fill="#D9D9D9"/>
</g>
<g opacity="0.6">
<rect width="128" height="24" transform="translate(318 253)" fill="#C2EBC8"/>
<rect x="326" y="259" width="37" height="3" rx="1.5" fill="#434343"/>
<rect x="326" y="264" width="112" height="3" rx="1.5" fill="#9E9E9E"/>
<rect x="326" y="268" width="112" height="3" rx="1.5" fill="#9E9E9E"/>
</g>
<g opacity="0.6">
<rect x="326" y="283" width="37" height="3" rx="1.5" fill="#D9D9D9"/>
<rect x="326" y="288" width="112" height="3" rx="1.5" fill="#D9D9D9"/>
<rect x="326" y="292" width="112" height="3" rx="1.5" fill="#D9D9D9"/>
</g>
<path d="M226.331 202.125C226.124 201.942 225.808 201.962 225.625 202.169L222.649 205.545C222.466 205.752 222.486 206.068 222.694 206.251C222.901 206.433 223.217 206.413 223.399 206.206L226.044 203.206L229.045 205.851C229.252 206.034 229.568 206.014 229.751 205.806C229.933 205.599 229.913 205.283 229.706 205.101L226.331 202.125ZM225.501 202.531C225.533 203.038 225.569 203.541 225.61 204.04L226.606 203.959C226.566 203.466 226.531 202.969 226.499 202.469L225.501 202.531ZM225.903 206.986C226.022 207.987 226.158 208.972 226.312 209.941L227.299 209.785C227.148 208.829 227.013 207.857 226.896 206.868L225.903 206.986ZM226.833 212.841C227.033 213.833 227.251 214.808 227.488 215.764L228.459 215.524C228.225 214.582 228.01 213.622 227.813 212.644L226.833 212.841ZM228.267 218.629C228.551 219.589 228.855 220.529 229.178 221.451L230.122 221.121C229.805 220.214 229.506 219.289 229.225 218.345L228.267 218.629ZM230.234 224.247C230.612 225.175 231.009 226.082 231.425 226.97L232.33 226.545C231.922 225.674 231.532 224.782 231.16 223.87L230.234 224.247ZM232.755 229.624C233.229 230.511 233.723 231.376 234.235 232.22L235.09 231.701C234.587 230.872 234.102 230.023 233.637 229.153L232.755 229.624ZM235.849 234.722C236.413 235.546 236.995 236.348 237.595 237.128L238.388 236.519C237.799 235.753 237.227 234.966 236.674 234.157L235.849 234.722ZM239.475 239.441C240.126 240.198 240.795 240.933 241.479 241.647L242.201 240.955C241.529 240.254 240.873 239.532 240.234 238.789L239.475 239.441ZM243.596 243.74C244.322 244.421 245.063 245.08 245.819 245.718L246.464 244.954C245.721 244.327 244.993 243.679 244.28 243.011L243.596 243.74ZM248.141 247.581C248.932 248.184 249.736 248.765 250.552 249.327L251.119 248.503C250.315 247.95 249.525 247.378 248.747 246.786L248.141 247.581ZM253.041 250.955C253.884 251.479 254.738 251.983 255.602 252.468L256.091 251.596C255.24 251.118 254.399 250.621 253.569 250.106L253.041 250.955ZM258.225 253.867C259.109 254.315 260.002 254.745 260.903 255.157L261.318 254.247C260.43 253.841 259.549 253.417 258.677 252.975L258.225 253.867ZM263.629 256.339C264.545 256.715 265.468 257.075 266.397 257.417L266.743 256.479C265.826 256.141 264.914 255.786 264.009 255.414L263.629 256.339ZM269.2 258.395C270.141 258.705 271.087 258.999 272.035 259.277L272.316 258.318C271.378 258.043 270.443 257.752 269.513 257.445L269.2 258.395ZM274.897 260.067C275.857 260.315 276.819 260.548 277.781 260.766L278.002 259.791C277.05 259.575 276.098 259.344 275.148 259.099L274.897 260.067ZM280.682 261.379C281.656 261.57 282.629 261.747 283.601 261.909L283.766 260.923C282.803 260.762 281.839 260.587 280.875 260.398L280.682 261.379ZM286.535 262.359C287.52 262.496 288.502 262.619 289.479 262.729L289.591 261.736C288.622 261.627 287.649 261.504 286.673 261.368L286.535 262.359ZM292.428 263.023C293.419 263.109 294.404 263.182 295.381 263.242L295.443 262.244C294.474 262.184 293.497 262.112 292.515 262.027L292.428 263.023ZM298.341 263.387C299.341 263.424 300.331 263.448 301.31 263.459L301.322 262.459C300.351 262.448 299.369 262.424 298.378 262.388L298.341 263.387ZM304.278 263.458C305.282 263.445 306.271 263.419 307.244 263.382L307.206 262.383C306.241 262.419 305.26 262.445 304.265 262.458L304.278 263.458ZM310.207 263.23C311.215 263.165 312.202 263.088 313.165 262.999L313.073 262.003C312.119 262.091 311.142 262.168 310.143 262.232L310.207 263.23ZM316.117 262.684C316.608 262.624 317.092 262.561 317.568 262.495L317.432 261.505C316.961 261.57 316.482 261.632 315.995 261.691L316.117 262.684Z" fill="black"/>
<defs>
<filter id="filter0_d_308_568" x="136" y="13" width="230" height="373" filterUnits="userSpaceOnUse" color-interpolation-filters="sRGB">
<feFlood flood-opacity="0" result="BackgroundImageFix"/>
<feColorMatrix in="SourceAlpha" type="matrix" values="0 0 0 0 0 0 0 0 0 0 0 0 0 0 0 0 0 0 127 0" result="hardAlpha"/>
<feOffset dy="1"/>
<feGaussianBlur stdDeviation="9"/>
<feComposite in2="hardAlpha" operator="out"/>
<feColorMatrix type="matrix" values="0 0 0 0 0 0 0 0 0 0 0 0 0 0 0 0 0 0 0.15 0"/>
<feBlend mode="normal" in2="BackgroundImageFix" result="effect1_dropShadow_308_568"/>
<feBlend mode="normal" in="SourceGraphic" in2="effect1_dropShadow_308_568" result="shape"/>
</filter>
<filter id="filter1_d_308_568" x="257" y="46" width="167" height="56" filterUnits="userSpaceOnUse" color-interpolation-filters="sRGB">
<feFlood flood-opacity="0" result="BackgroundImageFix"/>
<feColorMatrix in="SourceAlpha" type="matrix" values="0 0 0 0 0 0 0 0 0 0 0 0 0 0 0 0 0 0 127 0" result="hardAlpha"/>
<feOffset dy="1"/>
<feGaussianBlur stdDeviation="4"/>
<feComposite in2="hardAlpha" operator="out"/>
<feColorMatrix type="matrix" values="0 0 0 0 0 0 0 0 0 0 0 0 0 0 0 0 0 0 0.15 0"/>
<feBlend mode="normal" in2="BackgroundImageFix" result="effect1_dropShadow_308_568"/>
<feBlend mode="normal" in="SourceGraphic" in2="effect1_dropShadow_308_568" result="shape"/>
</filter>
<filter id="filter2_d_308_568" x="78" y="97" width="195" height="112" filterUnits="userSpaceOnUse" color-interpolation-filters="sRGB">
<feFlood flood-opacity="0" result="BackgroundImageFix"/>
<feColorMatrix in="SourceAlpha" type="matrix" values="0 0 0 0 0 0 0 0 0 0 0 0 0 0 0 0 0 0 127 0" result="hardAlpha"/>
<feOffset dy="1"/>
<feGaussianBlur stdDeviation="4"/>
<feComposite in2="hardAlpha" operator="out"/>
<feColorMatrix type="matrix" values="0 0 0 0 0 0 0 0 0 0 0 0 0 0 0 0 0 0 0.15 0"/>
<feBlend mode="normal" in2="BackgroundImageFix" result="effect1_dropShadow_308_568"/>
<feBlend mode="normal" in="SourceGraphic" in2="effect1_dropShadow_308_568" result="shape"/>
</filter>
<filter id="filter3_d_308_568" x="310" y="195" width="144" height="115" filterUnits="userSpaceOnUse" color-interpolation-filters="sRGB">
<feFlood flood-opacity="0" result="BackgroundImageFix"/>
<feColorMatrix in="SourceAlpha" type="matrix" values="0 0 0 0 0 0 0 0 0 0 0 0 0 0 0 0 0 0 127 0" result="hardAlpha"/>
<feOffset dy="1"/>
<feGaussianBlur stdDeviation="4"/>
<feComposite in2="hardAlpha" operator="out"/>
<feColorMatrix type="matrix" values="0 0 0 0 0 0 0 0 0 0 0 0 0 0 0 0 0 0 0.15 0"/>
<feBlend mode="normal" in2="BackgroundImageFix" result="effect1_dropShadow_308_568"/>
<feBlend mode="normal" in="SourceGraphic" in2="effect1_dropShadow_308_568" result="shape"/>
</filter>
</defs>
</svg>
