<svg width="502" height="359" viewBox="0 0 502 359" fill="none" xmlns="http://www.w3.org/2000/svg">
<circle cx="252.176" cy="174.672" r="174.672" fill="#FDEFF0"/>
<mask id="mask0_308_345" style="mask-type:alpha" maskUnits="userSpaceOnUse" x="77" y="0" width="350" height="350">
<circle cx="252.176" cy="174.672" r="174.672" fill="#D9ECFF"/>
</mask>
<g mask="url(#mask0_308_345)">
<path d="M232.13 20.1129L160.791 19.0846C166.551 12.7231 195.79 0 266.673 0C337.556 0 385.402 51.4841 400.464 77.2262C400.612 77.2262 399.046 78.3801 391.604 82.9959C384.671 87.2958 290.573 85.2536 234.867 83.3992C227.271 83.1463 219.049 84.4142 214.323 90.3662C207.94 98.4043 210.798 106.763 217.261 111.722C220.851 114.476 225.568 114.952 230.093 114.952H384.516C405.072 125.959 393.081 139.362 384.516 144.688H317.325C312.287 144.688 307.11 145.714 303.269 148.975C293.352 157.392 297.052 166.227 303.045 172.315C306.914 176.245 312.564 177.531 318.079 177.531H431.475C430.058 218.364 421.138 235.969 416.856 239.667H294.226C288.946 239.667 283.536 240.815 279.559 244.288C269.52 253.056 273.957 261.114 280.337 266.191C283.887 269.017 288.523 269.848 293.06 269.848H336.108C341.966 269.848 347.973 271.282 352.096 275.443C361.625 285.059 357.196 293.401 350.889 298.552C347.375 301.422 342.73 302.247 338.192 302.247H230.808C224.675 302.247 218.205 303.188 213.721 307.373C206.92 313.72 208.656 320.573 212.852 326.028C217.488 332.056 225.524 333.759 233.128 333.759H336.227C289.444 357.548 236.99 355.507 216.612 351.512C126.59 336.6 86.3643 250.615 77.5039 209.487H218.005C222.908 209.487 227.956 208.543 231.698 205.375C240.565 197.871 237.927 189.653 232.363 183.437C228.407 179.017 222.306 177.531 216.375 177.531H100.984C82.5543 164.394 93.3049 151.641 100.984 146.907H124.602C131.482 146.907 138.771 145.657 143.476 140.637C150.099 133.568 147.841 126.648 143.269 121.462C138.72 116.301 131.482 114.952 124.602 114.952H81.9341C90.0856 92.9377 113.388 63.7634 124.021 51.9279H228.863C237.586 51.9279 247.634 49.7947 250.657 41.6129C252.824 35.7488 250.989 30.2164 247.963 26.1329C244.414 21.3418 238.092 20.1989 232.13 20.1129Z" fill="#FFE2E5"/>
</g>
<g filter="url(#filter0_d_308_345)">
<rect x="344" y="178" width="149.223" height="55.5249" rx="27.7625" fill="white" shape-rendering="crispEdges"/>
<g clip-path="url(#clip0_308_345)">
<path d="M389.865 215.791C389.865 216.882 386.168 217.763 381.612 217.763C377.055 217.763 373.358 216.882 373.358 215.791C373.358 214.816 376.32 214.013 380.205 213.848H383.018C386.907 214.013 389.865 214.816 389.865 215.791Z" fill="#E3E2E1"/>
<path d="M381.612 193.762C377.375 193.762 373.94 197.194 373.94 201.431C373.94 205.669 381.612 215.79 381.612 215.79C381.612 215.79 389.281 205.669 389.281 201.431C389.281 197.194 385.85 193.762 381.612 193.762ZM381.612 206.509C378.807 206.509 376.535 204.236 376.535 201.431C376.535 198.626 378.807 196.354 381.612 196.354C384.417 196.354 386.69 198.626 386.69 201.431C386.69 204.236 384.417 206.509 381.612 206.509Z" fill="#E82327"/>
</g>
<path d="M403.513 211.762V200.126H404.922V210.512H410.331V211.762H403.513ZM415.877 211.944C415.089 211.944 414.398 211.757 413.803 211.382C413.212 211.007 412.75 210.482 412.417 209.808C412.087 209.134 411.922 208.346 411.922 207.444C411.922 206.535 412.087 205.742 412.417 205.064C412.75 204.386 413.212 203.859 413.803 203.484C414.398 203.109 415.089 202.922 415.877 202.922C416.665 202.922 417.354 203.109 417.945 203.484C418.54 203.859 419.002 204.386 419.331 205.064C419.665 205.742 419.831 206.535 419.831 207.444C419.831 208.346 419.665 209.134 419.331 209.808C419.002 210.482 418.54 211.007 417.945 211.382C417.354 211.757 416.665 211.944 415.877 211.944ZM415.877 210.74C416.475 210.74 416.968 210.586 417.354 210.279C417.74 209.973 418.026 209.569 418.212 209.069C418.398 208.569 418.49 208.028 418.49 207.444C418.49 206.861 418.398 206.317 418.212 205.814C418.026 205.31 417.74 204.903 417.354 204.592C416.968 204.281 416.475 204.126 415.877 204.126C415.278 204.126 414.786 204.281 414.399 204.592C414.013 204.903 413.727 205.31 413.542 205.814C413.356 206.317 413.263 206.861 413.263 207.444C413.263 208.028 413.356 208.569 413.542 209.069C413.727 209.569 414.013 209.973 414.399 210.279C414.786 210.586 415.278 210.74 415.877 210.74ZM425.424 211.944C424.605 211.944 423.901 211.751 423.31 211.365C422.719 210.978 422.265 210.446 421.946 209.768C421.628 209.09 421.469 208.315 421.469 207.444C421.469 206.558 421.632 205.776 421.958 205.098C422.287 204.416 422.746 203.884 423.333 203.501C423.924 203.115 424.613 202.922 425.401 202.922C426.015 202.922 426.568 203.035 427.06 203.262C427.552 203.49 427.956 203.808 428.27 204.217C428.585 204.626 428.78 205.103 428.855 205.649H427.515C427.412 205.251 427.185 204.899 426.833 204.592C426.484 204.281 426.015 204.126 425.424 204.126C424.901 204.126 424.443 204.262 424.049 204.535C423.658 204.804 423.354 205.185 423.134 205.677C422.918 206.166 422.81 206.74 422.81 207.399C422.81 208.073 422.916 208.66 423.128 209.16C423.344 209.66 423.647 210.048 424.037 210.325C424.431 210.601 424.893 210.74 425.424 210.74C425.772 210.74 426.088 210.679 426.372 210.558C426.657 210.437 426.897 210.262 427.094 210.035C427.291 209.808 427.431 209.535 427.515 209.217H428.855C428.78 209.732 428.592 210.196 428.293 210.609C427.997 211.018 427.605 211.344 427.117 211.586C426.632 211.825 426.068 211.944 425.424 211.944ZM433.384 211.967C432.831 211.967 432.329 211.863 431.878 211.654C431.427 211.442 431.069 211.137 430.804 210.74C430.539 210.338 430.407 209.853 430.407 209.285C430.407 208.785 430.505 208.38 430.702 208.069C430.899 207.755 431.162 207.509 431.492 207.331C431.821 207.153 432.185 207.02 432.583 206.933C432.984 206.842 433.388 206.77 433.793 206.717C434.323 206.649 434.753 206.598 435.083 206.564C435.416 206.526 435.658 206.463 435.81 206.376C435.965 206.289 436.043 206.137 436.043 205.922V205.876C436.043 205.315 435.89 204.88 435.583 204.569C435.28 204.259 434.819 204.103 434.202 204.103C433.562 204.103 433.06 204.244 432.696 204.524C432.333 204.804 432.077 205.103 431.929 205.422L430.657 204.967C430.884 204.437 431.187 204.024 431.566 203.728C431.948 203.429 432.365 203.221 432.816 203.103C433.27 202.982 433.717 202.922 434.157 202.922C434.437 202.922 434.759 202.956 435.122 203.024C435.49 203.088 435.844 203.223 436.185 203.427C436.53 203.632 436.816 203.94 437.043 204.353C437.27 204.766 437.384 205.319 437.384 206.012V211.762H436.043V210.581H435.975C435.884 210.77 435.732 210.973 435.52 211.189C435.308 211.404 435.026 211.588 434.674 211.74C434.321 211.891 433.891 211.967 433.384 211.967ZM433.588 210.762C434.119 210.762 434.566 210.658 434.929 210.45C435.297 210.242 435.573 209.973 435.759 209.643C435.948 209.314 436.043 208.967 436.043 208.603V207.376C435.986 207.444 435.861 207.507 435.668 207.564C435.479 207.617 435.259 207.664 435.009 207.706C434.763 207.744 434.522 207.778 434.287 207.808C434.056 207.834 433.869 207.857 433.725 207.876C433.376 207.922 433.051 207.995 432.747 208.098C432.448 208.196 432.206 208.346 432.02 208.547C431.838 208.744 431.747 209.012 431.747 209.353C431.747 209.819 431.92 210.172 432.265 210.41C432.613 210.645 433.054 210.762 433.588 210.762ZM443.627 203.035V204.172H439.104V203.035H443.627ZM440.422 200.944H441.763V209.262C441.763 209.641 441.818 209.925 441.928 210.115C442.042 210.3 442.185 210.425 442.36 210.49C442.538 210.55 442.725 210.581 442.922 210.581C443.07 210.581 443.191 210.573 443.286 210.558C443.381 210.539 443.456 210.524 443.513 210.512L443.786 211.717C443.695 211.751 443.568 211.785 443.405 211.819C443.242 211.857 443.036 211.876 442.786 211.876C442.407 211.876 442.036 211.795 441.672 211.632C441.312 211.469 441.013 211.221 440.774 210.887C440.54 210.554 440.422 210.134 440.422 209.626V200.944ZM445.644 211.762V203.035H446.985V211.762H445.644ZM446.326 201.581C446.064 201.581 445.839 201.492 445.649 201.314C445.464 201.136 445.371 200.922 445.371 200.672C445.371 200.422 445.464 200.208 445.649 200.029C445.839 199.851 446.064 199.762 446.326 199.762C446.587 199.762 446.81 199.851 446.996 200.029C447.185 200.208 447.28 200.422 447.28 200.672C447.28 200.922 447.185 201.136 446.996 201.314C446.81 201.492 446.587 201.581 446.326 201.581ZM452.986 211.944C452.198 211.944 451.507 211.757 450.912 211.382C450.321 211.007 449.859 210.482 449.526 209.808C449.196 209.134 449.032 208.346 449.032 207.444C449.032 206.535 449.196 205.742 449.526 205.064C449.859 204.386 450.321 203.859 450.912 203.484C451.507 203.109 452.198 202.922 452.986 202.922C453.774 202.922 454.463 203.109 455.054 203.484C455.649 203.859 456.111 204.386 456.441 205.064C456.774 205.742 456.941 206.535 456.941 207.444C456.941 208.346 456.774 209.134 456.441 209.808C456.111 210.482 455.649 211.007 455.054 211.382C454.463 211.757 453.774 211.944 452.986 211.944ZM452.986 210.74C453.585 210.74 454.077 210.586 454.463 210.279C454.85 209.973 455.136 209.569 455.321 209.069C455.507 208.569 455.6 208.028 455.6 207.444C455.6 206.861 455.507 206.317 455.321 205.814C455.136 205.31 454.85 204.903 454.463 204.592C454.077 204.281 453.585 204.126 452.986 204.126C452.388 204.126 451.895 204.281 451.509 204.592C451.122 204.903 450.836 205.31 450.651 205.814C450.465 206.317 450.372 206.861 450.372 207.444C450.372 208.028 450.465 208.569 450.651 209.069C450.836 209.569 451.122 209.973 451.509 210.279C451.895 210.586 452.388 210.74 452.986 210.74ZM460.328 206.512V211.762H458.988V203.035H460.283V204.399H460.397C460.601 203.956 460.912 203.6 461.328 203.331C461.745 203.058 462.283 202.922 462.942 202.922C463.533 202.922 464.05 203.043 464.493 203.285C464.936 203.524 465.281 203.887 465.527 204.376C465.774 204.861 465.897 205.475 465.897 206.217V211.762H464.556V206.308C464.556 205.622 464.378 205.088 464.022 204.706C463.666 204.319 463.177 204.126 462.556 204.126C462.128 204.126 461.745 204.219 461.408 204.404C461.075 204.59 460.811 204.861 460.618 205.217C460.425 205.573 460.328 206.005 460.328 206.512Z" fill="#000247"/>
</g>
<g filter="url(#filter1_d_308_345)">
<rect x="17.3516" y="107.578" width="142.283" height="55.5249" rx="27.7625" fill="white" shape-rendering="crispEdges"/>
<g clip-path="url(#clip1_308_345)">
<path d="M67.1577 131.592L58.1577 123.592C58.0139 123.463 57.8358 123.379 57.6449 123.349C57.4539 123.319 57.2585 123.345 57.0821 123.424C56.9058 123.503 56.7563 123.632 56.6516 123.794C56.547 123.957 56.4918 124.146 56.4927 124.339V127.546C53.4887 128.352 43.4927 132.104 43.4927 146.339C43.493 146.571 43.5742 146.796 43.7222 146.975C43.8701 147.154 44.0757 147.276 44.3037 147.32C44.5317 147.364 44.7678 147.327 44.9716 147.216C45.1754 147.104 45.3342 146.926 45.4207 146.71C48.3857 139.297 54.1657 137.75 56.4917 137.427V140.339C56.4915 140.532 56.5472 140.721 56.652 140.883C56.7569 141.046 56.9064 141.174 57.0825 141.253C57.2587 141.332 57.454 141.358 57.6447 141.329C57.8355 141.299 58.0137 141.215 58.1577 141.086L67.1577 133.086C67.2631 132.992 67.3474 132.877 67.4052 132.749C67.463 132.62 67.4929 132.48 67.4929 132.339C67.4929 132.198 67.463 132.059 67.4052 131.93C67.3474 131.801 67.2631 131.686 67.1577 131.592Z" fill="#565CFF"/>
</g>
<path d="M83.4998 132.613C83.4316 132.038 83.1551 131.591 82.6702 131.272C82.1854 130.954 81.5907 130.795 80.8861 130.795C80.371 130.795 79.9202 130.878 79.5339 131.045C79.1513 131.212 78.8521 131.441 78.6361 131.733C78.424 132.024 78.318 132.356 78.318 132.727C78.318 133.038 78.3918 133.305 78.5396 133.528C78.6911 133.748 78.8842 133.931 79.1191 134.079C79.3539 134.223 79.6002 134.342 79.8577 134.437C80.1153 134.528 80.3521 134.602 80.568 134.659L81.7498 134.977C82.0528 135.056 82.3899 135.166 82.7611 135.306C83.1361 135.447 83.4941 135.638 83.835 135.88C84.1797 136.119 84.4638 136.426 84.6873 136.801C84.9108 137.176 85.0225 137.636 85.0225 138.181C85.0225 138.81 84.8577 139.378 84.5282 139.886C84.2024 140.394 83.7252 140.797 83.0964 141.096C82.4714 141.396 81.7119 141.545 80.818 141.545C79.9846 141.545 79.263 141.411 78.6532 141.142C78.0471 140.873 77.5699 140.498 77.2214 140.017C76.8767 139.536 76.6816 138.977 76.6361 138.341H78.0907C78.1286 138.78 78.2763 139.144 78.5339 139.431C78.7952 139.716 79.1248 139.928 79.5225 140.068C79.924 140.204 80.3558 140.272 80.818 140.272C81.3558 140.272 81.8388 140.185 82.2668 140.011C82.6949 139.833 83.0339 139.587 83.2839 139.272C83.5339 138.954 83.6589 138.583 83.6589 138.159C83.6589 137.772 83.5509 137.458 83.335 137.216C83.1191 136.973 82.835 136.776 82.4827 136.625C82.1305 136.473 81.7498 136.341 81.3407 136.227L79.9089 135.818C78.9998 135.556 78.2801 135.183 77.7498 134.699C77.2195 134.214 76.9543 133.579 76.9543 132.795C76.9543 132.144 77.1305 131.575 77.4827 131.091C77.8388 130.602 78.3161 130.223 78.9146 129.954C79.5168 129.681 80.1892 129.545 80.9316 129.545C81.6816 129.545 82.3483 129.68 82.9316 129.949C83.5149 130.214 83.9771 130.577 84.318 131.039C84.6627 131.502 84.8445 132.026 84.8634 132.613H83.4998ZM88.4984 136.091V141.341H87.1574V129.704H88.4984V133.977H88.612C88.8165 133.526 89.1234 133.168 89.5324 132.903C89.9453 132.634 90.4946 132.5 91.1802 132.5C91.7749 132.5 92.2957 132.619 92.7427 132.858C93.1896 133.092 93.5362 133.454 93.7824 133.943C94.0324 134.428 94.1574 135.045 94.1574 135.795V141.341H92.8165V135.886C92.8165 135.193 92.6366 134.657 92.2768 134.278C91.9207 133.896 91.4264 133.704 90.7938 133.704C90.3544 133.704 89.9605 133.797 89.612 133.983C89.2673 134.168 88.9946 134.439 88.7938 134.795C88.5968 135.151 88.4984 135.583 88.4984 136.091ZM99.1788 141.545C98.6257 141.545 98.1238 141.441 97.6731 141.233C97.2223 141.021 96.8644 140.716 96.5992 140.318C96.3341 139.916 96.2015 139.431 96.2015 138.863C96.2015 138.363 96.3 137.958 96.4969 137.647C96.6939 137.333 96.9572 137.087 97.2867 136.909C97.6163 136.731 97.9799 136.598 98.3776 136.511C98.7791 136.42 99.1825 136.348 99.5878 136.295C100.118 136.227 100.548 136.176 100.878 136.142C101.211 136.104 101.453 136.041 101.605 135.954C101.76 135.867 101.838 135.716 101.838 135.5V135.454C101.838 134.894 101.684 134.458 101.378 134.147C101.075 133.837 100.614 133.681 99.9969 133.681C99.3568 133.681 98.8549 133.822 98.4913 134.102C98.1276 134.382 97.8719 134.681 97.7242 135L96.4515 134.545C96.6788 134.015 96.9818 133.602 97.3606 133.306C97.7431 133.007 98.1598 132.799 98.6106 132.681C99.0651 132.56 99.5121 132.5 99.9515 132.5C100.232 132.5 100.554 132.534 100.917 132.602C101.285 132.666 101.639 132.801 101.98 133.005C102.325 133.21 102.611 133.519 102.838 133.931C103.065 134.344 103.179 134.897 103.179 135.591V141.341H101.838V140.159H101.77C101.679 140.348 101.527 140.551 101.315 140.767C101.103 140.983 100.821 141.166 100.469 141.318C100.116 141.469 99.6863 141.545 99.1788 141.545ZM99.3833 140.341C99.9136 140.341 100.361 140.236 100.724 140.028C101.092 139.82 101.368 139.551 101.554 139.221C101.743 138.892 101.838 138.545 101.838 138.181V136.954C101.781 137.022 101.656 137.085 101.463 137.142C101.273 137.195 101.054 137.242 100.804 137.284C100.558 137.322 100.317 137.356 100.082 137.386C99.8511 137.413 99.6636 137.435 99.5197 137.454C99.1712 137.5 98.8454 137.574 98.5424 137.676C98.2431 137.774 98.0007 137.924 97.8151 138.125C97.6333 138.322 97.5424 138.591 97.5424 138.931C97.5424 139.397 97.7147 139.75 98.0594 139.988C98.4079 140.223 98.8492 140.341 99.3833 140.341ZM105.626 141.341V132.613H106.922V133.931H107.013C107.172 133.5 107.46 133.149 107.876 132.88C108.293 132.611 108.763 132.477 109.285 132.477C109.384 132.477 109.507 132.479 109.655 132.483C109.802 132.486 109.914 132.492 109.99 132.5V133.863C109.944 133.852 109.84 133.835 109.677 133.812C109.518 133.786 109.35 133.772 109.172 133.772C108.747 133.772 108.369 133.861 108.035 134.039C107.706 134.214 107.444 134.456 107.251 134.767C107.062 135.074 106.967 135.424 106.967 135.818V141.341H105.626ZM111.579 141.341V132.613H112.92V141.341H111.579ZM112.261 131.159C112 131.159 111.774 131.07 111.585 130.892C111.399 130.714 111.307 130.5 111.307 130.25C111.307 130 111.399 129.786 111.585 129.608C111.774 129.43 112 129.341 112.261 129.341C112.523 129.341 112.746 129.43 112.932 129.608C113.121 129.786 113.216 130 113.216 130.25C113.216 130.5 113.121 130.714 112.932 130.892C112.746 131.07 112.523 131.159 112.261 131.159ZM116.717 136.091V141.341H115.376V132.613H116.672V133.977H116.785C116.99 133.534 117.3 133.178 117.717 132.909C118.134 132.636 118.672 132.5 119.331 132.5C119.922 132.5 120.439 132.621 120.882 132.863C121.325 133.102 121.67 133.466 121.916 133.954C122.162 134.439 122.285 135.053 122.285 135.795V141.341H120.944V135.886C120.944 135.2 120.766 134.666 120.41 134.284C120.054 133.897 119.566 133.704 118.944 133.704C118.516 133.704 118.134 133.797 117.797 133.983C117.463 134.168 117.2 134.439 117.007 134.795C116.814 135.151 116.717 135.583 116.717 136.091ZM128.258 144.795C127.611 144.795 127.054 144.712 126.588 144.545C126.122 144.382 125.734 144.166 125.423 143.897C125.116 143.632 124.872 143.348 124.69 143.045L125.758 142.295C125.88 142.454 126.033 142.636 126.219 142.841C126.404 143.049 126.658 143.229 126.98 143.38C127.306 143.536 127.732 143.613 128.258 143.613C128.963 143.613 129.544 143.443 130.003 143.102C130.461 142.761 130.69 142.227 130.69 141.5V139.727H130.576C130.478 139.886 130.338 140.083 130.156 140.318C129.978 140.549 129.72 140.755 129.383 140.937C129.05 141.115 128.599 141.204 128.031 141.204C127.326 141.204 126.694 141.038 126.133 140.704C125.576 140.371 125.135 139.886 124.809 139.25C124.487 138.613 124.326 137.841 124.326 136.931C124.326 136.038 124.484 135.259 124.798 134.596C125.112 133.93 125.55 133.414 126.111 133.051C126.671 132.683 127.319 132.5 128.054 132.5C128.622 132.5 129.073 132.594 129.406 132.784C129.743 132.969 130.001 133.181 130.179 133.42C130.361 133.655 130.501 133.848 130.599 134H130.736V132.613H132.031V141.591C132.031 142.341 131.861 142.95 131.52 143.42C131.183 143.894 130.728 144.24 130.156 144.46C129.588 144.683 128.955 144.795 128.258 144.795ZM128.213 140C128.751 140 129.205 139.877 129.576 139.63C129.948 139.384 130.23 139.03 130.423 138.568C130.616 138.106 130.713 137.553 130.713 136.909C130.713 136.28 130.618 135.725 130.429 135.244C130.239 134.763 129.959 134.386 129.588 134.113C129.217 133.841 128.758 133.704 128.213 133.704C127.645 133.704 127.171 133.848 126.792 134.136C126.417 134.424 126.135 134.81 125.946 135.295C125.76 135.78 125.667 136.318 125.667 136.909C125.667 137.515 125.762 138.051 125.951 138.517C126.145 138.979 126.429 139.342 126.804 139.608C127.183 139.869 127.652 140 128.213 140Z" fill="#000247"/>
</g>
<g clip-path="url(#clip2_308_345)">
<path d="M235.359 6.38789C231.227 2.271 225.732 0.00251181 219.878 0C207.814 0 197.997 9.77087 197.992 21.7807C197.991 25.6196 198.998 29.367 200.913 32.6703L197.809 43.9572L209.41 40.9285C212.607 42.6641 216.206 43.5786 219.868 43.5801H219.878H219.878C231.939 43.5801 241.758 33.8075 241.763 21.7983C241.765 15.9778 239.491 10.5051 235.359 6.38789ZM219.878 39.9013H219.871C216.606 39.8996 213.405 39.027 210.612 37.3773L209.948 36.9851L203.063 38.7822L204.901 32.1017L204.468 31.4168C202.647 28.5341 201.686 25.2027 201.687 21.7821C201.691 11.7999 209.851 3.67898 219.885 3.67898C224.743 3.68099 229.31 5.56657 232.745 8.9884C236.179 12.4102 238.069 16.959 238.068 21.7968C238.063 31.7792 229.903 39.9013 219.878 39.9013Z" fill="#E0E0E0"/>
<path d="M198.812 42.7062L201.776 31.9348C199.948 28.7824 198.986 25.2059 198.987 21.543C198.992 10.0821 208.361 0.757812 219.872 0.757812C225.459 0.760324 230.703 2.92507 234.646 6.85401C238.589 10.7829 240.76 16.0053 240.757 21.5593C240.752 33.0205 231.383 42.3456 219.873 42.3456C219.874 42.3456 219.872 42.3456 219.873 42.3456H219.864C216.369 42.3445 212.934 41.471 209.884 39.8159L198.812 42.7062Z" fill="url(#paint0_linear_308_345)"/>
<path fill-rule="evenodd" clip-rule="evenodd" d="M214.469 12.5363C214.064 11.64 213.637 11.6221 213.252 11.6064C212.937 11.5929 212.576 11.5938 212.216 11.5938C211.856 11.5938 211.27 11.7286 210.775 12.2671C210.279 12.8057 208.883 14.1075 208.883 16.7553C208.883 19.4034 210.82 21.962 211.09 22.3214C211.36 22.6802 214.83 28.2875 220.324 30.4447C224.89 32.2374 225.82 31.8808 226.811 31.7911C227.802 31.7014 230.009 30.4895 230.459 29.2328C230.91 27.9763 230.91 26.8993 230.775 26.6741C230.64 26.4499 230.279 26.3153 229.738 26.0462C229.198 25.7771 226.54 24.4749 226.045 24.2955C225.549 24.1161 225.189 24.0264 224.828 24.5652C224.468 25.1034 223.433 26.3153 223.117 26.6741C222.802 27.0338 222.487 27.0786 221.946 26.8095C221.405 26.5396 219.664 25.9719 217.599 24.1385C215.992 22.7121 214.907 20.9505 214.592 20.4117C214.276 19.8734 214.558 19.5819 214.829 19.3136C215.072 19.0725 215.37 18.6854 215.64 18.3711C215.91 18.0568 216 17.8326 216.18 17.4737C216.36 17.1143 216.27 16.8001 216.135 16.531C216 16.2618 214.949 13.6004 214.469 12.5363Z" fill="white"/>
<path d="M235.18 6.31873C231.095 2.2491 225.663 0.00669808 219.876 0.00415039C207.951 0.00415039 198.247 9.66285 198.242 21.5348C198.241 25.3297 199.237 29.0341 201.13 32.2994L198.061 43.4568L209.529 40.4628C212.689 42.1784 216.247 43.0825 219.867 43.0839H219.876H219.876C231.799 43.0839 241.505 33.4235 241.51 21.5521C241.512 15.7986 239.264 10.3887 235.18 6.31873ZM219.876 39.4474H219.869C216.642 39.4457 213.478 38.5831 210.717 36.9524L210.06 36.5647L203.255 38.3412L205.072 31.7373L204.644 31.0603C202.844 28.2107 201.893 24.9176 201.895 21.5362C201.899 11.6687 209.965 3.64096 219.883 3.64096C224.686 3.64294 229.201 5.50688 232.596 8.88943C235.991 12.272 237.859 16.7685 237.858 21.5508C237.853 31.4186 229.787 39.4474 219.876 39.4474Z" fill="white"/>
</g>
<g filter="url(#filter2_d_308_345)">
<path d="M174.3 273.997C169.843 251.448 149.948 234.438 126.088 234.438C107.144 234.438 90.7237 245.188 82.4971 260.887C62.7993 263.017 47.4277 279.7 47.4277 299.988C47.4277 321.718 65.028 339.318 86.7579 339.318H171.973C190.065 339.318 204.748 324.635 204.748 306.543C204.748 289.238 191.278 275.21 174.3 273.997Z" fill="white"/>
</g>
<g clip-path="url(#clip3_308_345)">
<path d="M141.662 277.071C137.529 272.955 132.035 270.686 126.18 270.684C114.117 270.684 104.3 280.454 104.295 292.464C104.294 296.303 105.301 300.051 107.216 303.354L104.111 314.641L115.713 311.612C118.91 313.348 122.509 314.262 126.171 314.264H126.18H126.18C138.242 314.264 148.061 304.491 148.066 292.482C148.068 286.661 145.793 281.189 141.662 277.071ZM126.18 310.585H126.173C122.909 310.583 119.707 309.711 116.915 308.061L116.251 307.669L109.366 309.466L111.204 302.785L110.771 302.1C108.95 299.218 107.989 295.886 107.99 292.466C107.994 282.484 116.154 274.363 126.187 274.363C131.046 274.365 135.613 276.25 139.048 279.672C142.482 283.094 144.372 287.643 144.37 292.48C144.366 302.463 136.206 310.585 126.18 310.585Z" fill="#E0E0E0"/>
<path d="M105.115 313.386L108.078 302.615C106.25 299.462 105.289 295.886 105.29 292.223C105.295 280.762 114.664 271.438 126.175 271.438C131.762 271.44 137.006 273.605 140.948 277.534C144.892 281.463 147.062 286.685 147.06 292.239C147.055 303.7 137.686 313.025 126.176 313.025C126.176 313.025 126.175 313.025 126.176 313.025H126.167C122.671 313.024 119.237 312.151 116.187 310.496L105.115 313.386Z" fill="url(#paint1_linear_308_345)"/>
<path fill-rule="evenodd" clip-rule="evenodd" d="M120.771 283.216C120.367 282.32 119.94 282.302 119.555 282.286C119.24 282.273 118.879 282.273 118.519 282.273C118.159 282.273 117.573 282.408 117.078 282.947C116.582 283.485 115.186 284.787 115.186 287.435C115.186 290.083 117.123 292.642 117.393 293.001C117.663 293.36 121.132 298.967 126.627 301.124C131.193 302.917 132.122 302.561 133.113 302.471C134.105 302.381 136.312 301.169 136.762 299.912C137.213 298.656 137.213 297.579 137.077 297.354C136.942 297.13 136.582 296.995 136.041 296.726C135.501 296.457 132.843 295.155 132.348 294.975C131.852 294.796 131.492 294.706 131.131 295.245C130.771 295.783 129.735 296.995 129.42 297.354C129.105 297.713 128.789 297.758 128.249 297.489C127.708 297.219 125.967 296.652 123.902 294.818C122.295 293.392 121.21 291.63 120.894 291.091C120.579 290.553 120.861 290.262 121.132 289.993C121.375 289.752 121.672 289.365 121.943 289.051C122.213 288.737 122.303 288.512 122.483 288.153C122.663 287.794 122.573 287.48 122.438 287.211C122.303 286.942 121.252 284.28 120.771 283.216Z" fill="white"/>
<path d="M141.482 277.002C137.398 272.933 131.966 270.69 126.179 270.688C114.254 270.688 104.55 280.346 104.545 292.218C104.543 296.013 105.539 299.718 107.432 302.983L104.363 314.14L115.832 311.146C118.992 312.862 122.549 313.766 126.17 313.768H126.179H126.179C138.102 313.768 147.808 304.107 147.813 292.236C147.815 286.482 145.567 281.072 141.482 277.002ZM126.179 310.131H126.172C122.945 310.129 119.78 309.267 117.02 307.636L116.363 307.248L109.557 309.025L111.374 302.421L110.946 301.744C109.146 298.894 108.196 295.601 108.197 292.22C108.201 282.352 116.267 274.325 126.186 274.325C130.989 274.327 135.503 276.19 138.898 279.573C142.293 282.956 144.162 287.452 144.16 292.234C144.156 302.102 136.09 310.131 126.179 310.131Z" fill="white"/>
</g>
<path d="M41.4698 174.856C41.5715 174.313 41.2139 173.791 40.6711 173.689L31.8249 172.032C31.2821 171.93 30.7596 172.288 30.6579 172.831C30.5562 173.373 30.9138 173.896 31.4567 173.998L39.3199 175.471L37.8469 183.334C37.7452 183.877 38.1028 184.399 38.6457 184.501C39.1885 184.603 39.711 184.245 39.8127 183.702L41.4698 174.856ZM41.0412 297.614C25.8666 287.508 7.76754 269.295 2.50466 247.515C-0.11891 236.657 0.440577 224.896 6.1609 212.749C11.8885 200.588 22.821 187.975 41.0518 175.497L39.9221 173.847C21.49 186.463 10.2721 199.326 4.35151 211.897C-1.57627 224.484 -2.1625 236.715 0.560607 247.984C5.99106 270.458 24.5549 289.038 39.9326 299.279L41.0412 297.614Z" fill="#000247"/>
<path d="M425.018 32C432.878 38.6885 444.588 55.2131 428.555 67.8033C423.545 71.7377 417.316 66.7803 427.376 59.541C439.951 50.4918 463.53 74.8852 460.779 104" stroke="#000247" stroke-width="2"/>
<path d="M92.5 28L97.647 37.353L107 42.5L97.647 47.647L92.5 57L87.353 47.647L78 42.5L87.353 37.353L92.5 28Z" fill="#FDEFF0"/>
<path d="M420.5 272L424.227 278.773L431 282.5L424.227 286.227L420.5 293L416.773 286.227L410 282.5L416.773 278.773L420.5 272Z" fill="#FDEFF0"/>
<defs>
<filter id="filter0_d_308_345" x="336" y="171" width="165.223" height="71.5249" filterUnits="userSpaceOnUse" color-interpolation-filters="sRGB">
<feFlood flood-opacity="0" result="BackgroundImageFix"/>
<feColorMatrix in="SourceAlpha" type="matrix" values="0 0 0 0 0 0 0 0 0 0 0 0 0 0 0 0 0 0 127 0" result="hardAlpha"/>
<feOffset dy="1"/>
<feGaussianBlur stdDeviation="4"/>
<feComposite in2="hardAlpha" operator="out"/>
<feColorMatrix type="matrix" values="0 0 0 0 0 0 0 0 0 0 0 0 0 0 0 0 0 0 0.15 0"/>
<feBlend mode="normal" in2="BackgroundImageFix" result="effect1_dropShadow_308_345"/>
<feBlend mode="normal" in="SourceGraphic" in2="effect1_dropShadow_308_345" result="shape"/>
</filter>
<filter id="filter1_d_308_345" x="9.35156" y="100.578" width="158.283" height="71.5249" filterUnits="userSpaceOnUse" color-interpolation-filters="sRGB">
<feFlood flood-opacity="0" result="BackgroundImageFix"/>
<feColorMatrix in="SourceAlpha" type="matrix" values="0 0 0 0 0 0 0 0 0 0 0 0 0 0 0 0 0 0 127 0" result="hardAlpha"/>
<feOffset dy="1"/>
<feGaussianBlur stdDeviation="4"/>
<feComposite in2="hardAlpha" operator="out"/>
<feColorMatrix type="matrix" values="0 0 0 0 0 0 0 0 0 0 0 0 0 0 0 0 0 0 0.15 0"/>
<feBlend mode="normal" in2="BackgroundImageFix" result="effect1_dropShadow_308_345"/>
<feBlend mode="normal" in="SourceGraphic" in2="effect1_dropShadow_308_345" result="shape"/>
</filter>
<filter id="filter2_d_308_345" x="29.4277" y="217.438" width="193.321" height="140.88" filterUnits="userSpaceOnUse" color-interpolation-filters="sRGB">
<feFlood flood-opacity="0" result="BackgroundImageFix"/>
<feColorMatrix in="SourceAlpha" type="matrix" values="0 0 0 0 0 0 0 0 0 0 0 0 0 0 0 0 0 0 127 0" result="hardAlpha"/>
<feOffset dy="1"/>
<feGaussianBlur stdDeviation="9"/>
<feComposite in2="hardAlpha" operator="out"/>
<feColorMatrix type="matrix" values="0 0 0 0 0 0 0 0 0 0 0 0 0 0 0 0 0 0 0.15 0"/>
<feBlend mode="normal" in2="BackgroundImageFix" result="effect1_dropShadow_308_345"/>
<feBlend mode="normal" in="SourceGraphic" in2="effect1_dropShadow_308_345" result="shape"/>
</filter>
<linearGradient id="paint0_linear_308_345" x1="219.785" y1="42.7062" x2="219.785" y2="0.757883" gradientUnits="userSpaceOnUse">
<stop stop-color="#20B038"/>
<stop offset="1" stop-color="#60D66A"/>
</linearGradient>
<linearGradient id="paint1_linear_308_345" x1="126.088" y1="313.386" x2="126.088" y2="271.438" gradientUnits="userSpaceOnUse">
<stop stop-color="#20B038"/>
<stop offset="1" stop-color="#60D66A"/>
</linearGradient>
<clipPath id="clip0_308_345">
<rect width="24" height="24" fill="white" transform="translate(369.612 193.762)"/>
</clipPath>
<clipPath id="clip1_308_345">
<rect width="24" height="24" fill="white" transform="translate(43.4927 123.341)"/>
</clipPath>
<clipPath id="clip2_308_345">
<rect width="43.9572" height="43.9572" fill="white" transform="translate(197.807)"/>
</clipPath>
<clipPath id="clip3_308_345">
<rect width="43.9572" height="43.9572" fill="white" transform="translate(104.109 270.684)"/>
</clipPath>
</defs>
</svg>
