<svg width="473" height="351" viewBox="0 0 473 351" fill="none" xmlns="http://www.w3.org/2000/svg">
<circle cx="251.172" cy="174.672" r="174.672" fill="#FFE2E5"/>
<mask id="mask0_561_510" style="mask-type:alpha" maskUnits="userSpaceOnUse" x="76" y="0" width="350" height="350">
<circle cx="251.172" cy="174.672" r="174.672" fill="#CEE7FF"/>
</mask>
<g mask="url(#mask0_561_510)">
<g filter="url(#filter0_d_561_510)">
<rect x="162" y="60" width="178" height="295" rx="12" fill="white"/>
<rect x="159" y="57" width="184" height="301" rx="15" stroke="#E2F1FF" stroke-width="6"/>
</g>
<rect x="168.5" y="312.5" width="165" height="34" rx="17" stroke="#DCDCDC"/>
<path d="M181.14 333V326H181.75L184.95 331.46H184.63L187.8 326H188.41V333H187.7V327.11H187.87L184.95 332.11H184.6L181.66 327.11H181.85V333H181.14ZM192.771 333.05C192.224 333.05 191.744 332.937 191.331 332.71C190.917 332.477 190.594 332.16 190.361 331.76C190.127 331.353 190.011 330.89 190.011 330.37C190.011 329.85 190.121 329.39 190.341 328.99C190.567 328.59 190.874 328.277 191.261 328.05C191.654 327.817 192.094 327.7 192.581 327.7C193.074 327.7 193.511 327.813 193.891 328.04C194.277 328.26 194.581 328.573 194.801 328.98C195.021 329.38 195.131 329.843 195.131 330.37C195.131 330.403 195.127 330.44 195.121 330.48C195.121 330.513 195.121 330.55 195.121 330.59H190.551V330.06H194.741L194.461 330.27C194.461 329.89 194.377 329.553 194.211 329.26C194.051 328.96 193.831 328.727 193.551 328.56C193.271 328.393 192.947 328.31 192.581 328.31C192.221 328.31 191.897 328.393 191.611 328.56C191.324 328.727 191.101 328.96 190.941 329.26C190.781 329.56 190.701 329.903 190.701 330.29V330.4C190.701 330.8 190.787 331.153 190.961 331.46C191.141 331.76 191.387 331.997 191.701 332.17C192.021 332.337 192.384 332.42 192.791 332.42C193.111 332.42 193.407 332.363 193.681 332.25C193.961 332.137 194.201 331.963 194.401 331.73L194.801 332.19C194.567 332.47 194.274 332.683 193.921 332.83C193.574 332.977 193.191 333.05 192.771 333.05ZM197.986 333.05C197.553 333.05 197.143 332.99 196.756 332.87C196.369 332.743 196.066 332.587 195.846 332.4L196.166 331.84C196.379 332 196.653 332.14 196.986 332.26C197.319 332.373 197.669 332.43 198.036 332.43C198.536 332.43 198.896 332.353 199.116 332.2C199.336 332.04 199.446 331.83 199.446 331.57C199.446 331.377 199.383 331.227 199.256 331.12C199.136 331.007 198.976 330.923 198.776 330.87C198.576 330.81 198.353 330.76 198.106 330.72C197.859 330.68 197.613 330.633 197.366 330.58C197.126 330.527 196.906 330.45 196.706 330.35C196.506 330.243 196.343 330.1 196.216 329.92C196.096 329.74 196.036 329.5 196.036 329.2C196.036 328.913 196.116 328.657 196.276 328.43C196.436 328.203 196.669 328.027 196.976 327.9C197.289 327.767 197.669 327.7 198.116 327.7C198.456 327.7 198.796 327.747 199.136 327.84C199.476 327.927 199.756 328.043 199.976 328.19L199.666 328.76C199.433 328.6 199.183 328.487 198.916 328.42C198.649 328.347 198.383 328.31 198.116 328.31C197.643 328.31 197.293 328.393 197.066 328.56C196.846 328.72 196.736 328.927 196.736 329.18C196.736 329.38 196.796 329.537 196.916 329.65C197.043 329.763 197.206 329.853 197.406 329.92C197.613 329.98 197.836 330.03 198.076 330.07C198.323 330.11 198.566 330.16 198.806 330.22C199.053 330.273 199.276 330.35 199.476 330.45C199.683 330.543 199.846 330.68 199.966 330.86C200.093 331.033 200.156 331.263 200.156 331.55C200.156 331.857 200.069 332.123 199.896 332.35C199.729 332.57 199.483 332.743 199.156 332.87C198.836 332.99 198.446 333.05 197.986 333.05ZM202.869 333.05C202.435 333.05 202.025 332.99 201.639 332.87C201.252 332.743 200.949 332.587 200.729 332.4L201.049 331.84C201.262 332 201.535 332.14 201.869 332.26C202.202 332.373 202.552 332.43 202.919 332.43C203.419 332.43 203.779 332.353 203.999 332.2C204.219 332.04 204.329 331.83 204.329 331.57C204.329 331.377 204.265 331.227 204.139 331.12C204.019 331.007 203.859 330.923 203.659 330.87C203.459 330.81 203.235 330.76 202.989 330.72C202.742 330.68 202.495 330.633 202.249 330.58C202.009 330.527 201.789 330.45 201.589 330.35C201.389 330.243 201.225 330.1 201.099 329.92C200.979 329.74 200.919 329.5 200.919 329.2C200.919 328.913 200.999 328.657 201.159 328.43C201.319 328.203 201.552 328.027 201.859 327.9C202.172 327.767 202.552 327.7 202.999 327.7C203.339 327.7 203.679 327.747 204.019 327.84C204.359 327.927 204.639 328.043 204.859 328.19L204.549 328.76C204.315 328.6 204.065 328.487 203.799 328.42C203.532 328.347 203.265 328.31 202.999 328.31C202.525 328.31 202.175 328.393 201.949 328.56C201.729 328.72 201.619 328.927 201.619 329.18C201.619 329.38 201.679 329.537 201.799 329.65C201.925 329.763 202.089 329.853 202.289 329.92C202.495 329.98 202.719 330.03 202.959 330.07C203.205 330.11 203.449 330.16 203.689 330.22C203.935 330.273 204.159 330.35 204.359 330.45C204.565 330.543 204.729 330.68 204.849 330.86C204.975 331.033 205.039 331.263 205.039 331.55C205.039 331.857 204.952 332.123 204.779 332.35C204.612 332.57 204.365 332.743 204.039 332.87C203.719 332.99 203.329 333.05 202.869 333.05ZM209.632 333V331.84L209.602 331.65V329.71C209.602 329.263 209.475 328.92 209.222 328.68C208.975 328.44 208.605 328.32 208.112 328.32C207.772 328.32 207.448 328.377 207.142 328.49C206.835 328.603 206.575 328.753 206.362 328.94L206.042 328.41C206.308 328.183 206.628 328.01 207.002 327.89C207.375 327.763 207.768 327.7 208.182 327.7C208.862 327.7 209.385 327.87 209.752 328.21C210.125 328.543 210.312 329.053 210.312 329.74V333H209.632ZM207.822 333.05C207.428 333.05 207.085 332.987 206.792 332.86C206.505 332.727 206.285 332.547 206.132 332.32C205.978 332.087 205.902 331.82 205.902 331.52C205.902 331.247 205.965 331 206.092 330.78C206.225 330.553 206.438 330.373 206.732 330.24C207.032 330.1 207.432 330.03 207.932 330.03H209.742V330.56H207.952C207.445 330.56 207.092 330.65 206.892 330.83C206.698 331.01 206.602 331.233 206.602 331.5C206.602 331.8 206.718 332.04 206.952 332.22C207.185 332.4 207.512 332.49 207.932 332.49C208.332 332.49 208.675 332.4 208.962 332.22C209.255 332.033 209.468 331.767 209.602 331.42L209.762 331.91C209.628 332.257 209.395 332.533 209.062 332.74C208.735 332.947 208.322 333.05 207.822 333.05ZM214.48 334.99C214 334.99 213.54 334.92 213.1 334.78C212.66 334.64 212.303 334.44 212.03 334.18L212.39 333.64C212.637 333.86 212.94 334.033 213.3 334.16C213.667 334.293 214.053 334.36 214.46 334.36C215.127 334.36 215.617 334.203 215.93 333.89C216.243 333.583 216.4 333.103 216.4 332.45V331.14L216.5 330.24L216.43 329.34V327.75H217.11V332.36C217.11 333.267 216.887 333.93 216.44 334.35C216 334.777 215.347 334.99 214.48 334.99ZM214.35 332.8C213.85 332.8 213.4 332.693 213 332.48C212.6 332.26 212.283 331.957 212.05 331.57C211.823 331.183 211.71 330.74 211.71 330.24C211.71 329.74 211.823 329.3 212.05 328.92C212.283 328.533 212.6 328.233 213 328.02C213.4 327.807 213.85 327.7 214.35 327.7C214.817 327.7 215.237 327.797 215.61 327.99C215.983 328.183 216.28 328.47 216.5 328.85C216.72 329.23 216.83 329.693 216.83 330.24C216.83 330.787 216.72 331.25 216.5 331.63C216.28 332.01 215.983 332.3 215.61 332.5C215.237 332.7 214.817 332.8 214.35 332.8ZM214.42 332.17C214.807 332.17 215.15 332.09 215.45 331.93C215.75 331.763 215.987 331.537 216.16 331.25C216.333 330.957 216.42 330.62 216.42 330.24C216.42 329.86 216.333 329.527 216.16 329.24C215.987 328.953 215.75 328.73 215.45 328.57C215.15 328.403 214.807 328.32 214.42 328.32C214.04 328.32 213.697 328.403 213.39 328.57C213.09 328.73 212.853 328.953 212.68 329.24C212.513 329.527 212.43 329.86 212.43 330.24C212.43 330.62 212.513 330.957 212.68 331.25C212.853 331.537 213.09 331.763 213.39 331.93C213.697 332.09 214.04 332.17 214.42 332.17ZM221.316 333.05C220.769 333.05 220.289 332.937 219.876 332.71C219.462 332.477 219.139 332.16 218.906 331.76C218.672 331.353 218.556 330.89 218.556 330.37C218.556 329.85 218.666 329.39 218.886 328.99C219.112 328.59 219.419 328.277 219.806 328.05C220.199 327.817 220.639 327.7 221.126 327.7C221.619 327.7 222.056 327.813 222.436 328.04C222.822 328.26 223.126 328.573 223.346 328.98C223.566 329.38 223.676 329.843 223.676 330.37C223.676 330.403 223.672 330.44 223.666 330.48C223.666 330.513 223.666 330.55 223.666 330.59H219.096V330.06H223.286L223.006 330.27C223.006 329.89 222.922 329.553 222.756 329.26C222.596 328.96 222.376 328.727 222.096 328.56C221.816 328.393 221.492 328.31 221.126 328.31C220.766 328.31 220.442 328.393 220.156 328.56C219.869 328.727 219.646 328.96 219.486 329.26C219.326 329.56 219.246 329.903 219.246 330.29V330.4C219.246 330.8 219.332 331.153 219.506 331.46C219.686 331.76 219.932 331.997 220.246 332.17C220.566 332.337 220.929 332.42 221.336 332.42C221.656 332.42 221.952 332.363 222.226 332.25C222.506 332.137 222.746 331.963 222.946 331.73L223.346 332.19C223.112 332.47 222.819 332.683 222.466 332.83C222.119 332.977 221.736 333.05 221.316 333.05Z" fill="#000247"/>
<path d="M178.5 87.5L173.5 82.5L178.5 77.5" stroke="black" stroke-linecap="round" stroke-linejoin="round"/>
<path opacity="0.9" d="M191.486 86.166V80.034H192.662V86.166H191.486ZM188.938 83.66V82.554H195.21V83.66H188.938ZM199.998 78.088C200.885 78.088 201.632 78.2793 202.238 78.662C202.854 79.0447 203.321 79.6 203.638 80.328C203.956 81.0467 204.114 81.9287 204.114 82.974C204.114 84.0847 203.918 85.0227 203.526 85.788C203.134 86.5533 202.593 87.132 201.902 87.524C201.212 87.916 200.404 88.112 199.48 88.112C199.023 88.112 198.58 88.0653 198.15 87.972C197.73 87.8787 197.362 87.734 197.044 87.538L197.576 86.446C197.838 86.614 198.127 86.7353 198.444 86.81C198.771 86.8753 199.112 86.908 199.466 86.908C200.456 86.908 201.244 86.6 201.832 85.984C202.42 85.3587 202.714 84.4347 202.714 83.212C202.714 83.016 202.705 82.7827 202.686 82.512C202.668 82.2413 202.626 81.9753 202.56 81.714L203.022 82.19C202.892 82.6193 202.672 82.9833 202.364 83.282C202.066 83.5713 201.702 83.7907 201.272 83.94C200.852 84.08 200.39 84.15 199.886 84.15C199.242 84.15 198.668 84.0287 198.164 83.786C197.66 83.5433 197.264 83.2027 196.974 82.764C196.685 82.316 196.54 81.7887 196.54 81.182C196.54 80.5473 196.69 80.0013 196.988 79.544C197.296 79.0773 197.712 78.718 198.234 78.466C198.766 78.214 199.354 78.088 199.998 78.088ZM200.054 79.222C199.634 79.222 199.261 79.3013 198.934 79.46C198.608 79.6187 198.351 79.838 198.164 80.118C197.987 80.398 197.898 80.734 197.898 81.126C197.898 81.7047 198.099 82.1667 198.5 82.512C198.902 82.848 199.443 83.016 200.124 83.016C200.572 83.016 200.964 82.932 201.3 82.764C201.646 82.596 201.912 82.3673 202.098 82.078C202.294 81.7887 202.392 81.4667 202.392 81.112C202.392 80.7667 202.304 80.454 202.126 80.174C201.949 79.894 201.688 79.6653 201.342 79.488C200.997 79.3107 200.568 79.222 200.054 79.222ZM207.113 88V78.76L207.715 79.418H204.901V78.2H208.499V88H207.113ZM218.224 88.112C217.431 88.112 216.745 87.9953 216.166 87.762C215.588 87.5287 215.14 87.1973 214.822 86.768C214.505 86.3293 214.346 85.816 214.346 85.228C214.346 84.6493 214.496 84.1593 214.794 83.758C215.102 83.3473 215.546 83.0393 216.124 82.834C216.703 82.6193 217.403 82.512 218.224 82.512C219.046 82.512 219.746 82.6193 220.324 82.834C220.912 83.0393 221.36 83.3473 221.668 83.758C221.976 84.1687 222.13 84.6587 222.13 85.228C222.13 85.816 221.972 86.3293 221.654 86.768C221.337 87.1973 220.884 87.5287 220.296 87.762C219.708 87.9953 219.018 88.112 218.224 88.112ZM218.224 86.978C219.008 86.978 219.62 86.8193 220.058 86.502C220.506 86.1753 220.73 85.7367 220.73 85.186C220.73 84.6447 220.506 84.22 220.058 83.912C219.62 83.5947 219.008 83.436 218.224 83.436C217.45 83.436 216.843 83.5947 216.404 83.912C215.966 84.22 215.746 84.6447 215.746 85.186C215.746 85.7367 215.966 86.1753 216.404 86.502C216.843 86.8193 217.45 86.978 218.224 86.978ZM218.224 83.268C217.478 83.268 216.843 83.17 216.32 82.974C215.798 82.7687 215.396 82.4793 215.116 82.106C214.836 81.7233 214.696 81.2707 214.696 80.748C214.696 80.1973 214.841 79.726 215.13 79.334C215.429 78.9327 215.844 78.6247 216.376 78.41C216.908 78.1953 217.524 78.088 218.224 78.088C218.934 78.088 219.554 78.1953 220.086 78.41C220.618 78.6247 221.034 78.9327 221.332 79.334C221.631 79.726 221.78 80.1973 221.78 80.748C221.78 81.2707 221.64 81.7233 221.36 82.106C221.08 82.4793 220.674 82.7687 220.142 82.974C219.61 83.17 218.971 83.268 218.224 83.268ZM218.224 82.372C218.906 82.372 219.438 82.232 219.82 81.952C220.212 81.672 220.408 81.2893 220.408 80.804C220.408 80.3093 220.208 79.922 219.806 79.642C219.405 79.362 218.878 79.222 218.224 79.222C217.571 79.222 217.048 79.362 216.656 79.642C216.274 79.922 216.082 80.3093 216.082 80.804C216.082 81.2893 216.269 81.672 216.642 81.952C217.025 82.232 217.552 82.372 218.224 82.372ZM223.272 85.592V84.612L228.284 78.2H229.796L224.826 84.612L224.112 84.388H231.938V85.592H223.272ZM228.718 88V85.592L228.76 84.388V82.26H230.076V88H228.718ZM233.815 88L237.973 78.788L238.337 79.418H232.513L233.213 78.732V81.168H231.869V78.2H239.261V79.152L235.299 88H233.815ZM239.432 85.592V84.612L244.444 78.2H245.956L240.986 84.612L240.272 84.388H248.098V85.592H239.432ZM244.878 88V85.592L244.92 84.388V82.26H246.236V88H244.878ZM248.798 85.592V84.612L253.81 78.2H255.322L250.352 84.612L249.638 84.388H257.464V85.592H248.798ZM254.244 88V85.592L254.286 84.388V82.26H255.602V88H254.244ZM265.059 88.112C264.368 88.112 263.696 88.0047 263.043 87.79C262.399 87.5753 261.871 87.286 261.461 86.922L262.105 85.816C262.431 86.124 262.856 86.376 263.379 86.572C263.901 86.768 264.461 86.866 265.059 86.866C265.787 86.866 266.351 86.712 266.753 86.404C267.163 86.0867 267.369 85.662 267.369 85.13C267.369 84.6167 267.173 84.206 266.781 83.898C266.398 83.5807 265.787 83.422 264.947 83.422H264.163V82.442L267.075 78.858L267.271 79.418H261.909V78.2H268.377V79.152L265.479 82.722L264.751 82.288H265.213C266.398 82.288 267.285 82.554 267.873 83.086C268.47 83.618 268.769 84.2947 268.769 85.116C268.769 85.6667 268.633 86.1707 268.363 86.628C268.092 87.0853 267.681 87.4493 267.131 87.72C266.589 87.9813 265.899 88.112 265.059 88.112ZM273.002 88.112C272.311 88.112 271.639 88.0047 270.986 87.79C270.342 87.5753 269.815 87.286 269.404 86.922L270.048 85.816C270.375 86.124 270.799 86.376 271.322 86.572C271.845 86.768 272.405 86.866 273.002 86.866C273.73 86.866 274.295 86.712 274.696 86.404C275.107 86.0867 275.312 85.662 275.312 85.13C275.312 84.6167 275.116 84.206 274.724 83.898C274.341 83.5807 273.73 83.422 272.89 83.422H272.106V82.442L275.018 78.858L275.214 79.418H269.852V78.2H276.32V79.152L273.422 82.722L272.694 82.288H273.156C274.341 82.288 275.228 82.554 275.816 83.086C276.413 83.618 276.712 84.2947 276.712 85.116C276.712 85.6667 276.577 86.1707 276.306 86.628C276.035 87.0853 275.625 87.4493 275.074 87.72C274.533 87.9813 273.842 88.112 273.002 88.112ZM277.795 88V87.048L281.785 83.198C282.14 82.862 282.401 82.568 282.569 82.316C282.747 82.0547 282.863 81.8167 282.919 81.602C282.985 81.378 283.017 81.1633 283.017 80.958C283.017 80.454 282.84 80.0573 282.485 79.768C282.131 79.4787 281.613 79.334 280.931 79.334C280.409 79.334 279.937 79.4227 279.517 79.6C279.097 79.768 278.733 80.034 278.425 80.398L277.473 79.572C277.847 79.096 278.346 78.732 278.971 78.48C279.606 78.2187 280.301 78.088 281.057 78.088C281.739 78.088 282.331 78.2 282.835 78.424C283.339 78.6387 283.727 78.9513 283.997 79.362C284.277 79.7727 284.417 80.258 284.417 80.818C284.417 81.1353 284.375 81.448 284.291 81.756C284.207 82.064 284.049 82.3907 283.815 82.736C283.582 83.0813 283.246 83.4687 282.807 83.898L279.251 87.328L278.915 86.782H284.837V88H277.795ZM285.834 88V87.048L289.824 83.198C290.179 82.862 290.44 82.568 290.608 82.316C290.786 82.0547 290.902 81.8167 290.958 81.602C291.024 81.378 291.056 81.1633 291.056 80.958C291.056 80.454 290.879 80.0573 290.524 79.768C290.17 79.4787 289.652 79.334 288.97 79.334C288.448 79.334 287.976 79.4227 287.556 79.6C287.136 79.768 286.772 80.034 286.464 80.398L285.512 79.572C285.886 79.096 286.385 78.732 287.01 78.48C287.645 78.2187 288.34 78.088 289.096 78.088C289.778 78.088 290.37 78.2 290.874 78.424C291.378 78.6387 291.766 78.9513 292.036 79.362C292.316 79.7727 292.456 80.258 292.456 80.818C292.456 81.1353 292.414 81.448 292.33 81.756C292.246 82.064 292.088 82.3907 291.854 82.736C291.621 83.0813 291.285 83.4687 290.846 83.898L287.29 87.328L286.954 86.782H292.876V88H285.834ZM297.023 88.112C296.333 88.112 295.661 88.0047 295.007 87.79C294.363 87.5753 293.836 87.286 293.425 86.922L294.069 85.816C294.396 86.124 294.821 86.376 295.343 86.572C295.866 86.768 296.426 86.866 297.023 86.866C297.751 86.866 298.316 86.712 298.717 86.404C299.128 86.0867 299.333 85.662 299.333 85.13C299.333 84.6167 299.137 84.206 298.745 83.898C298.363 83.5807 297.751 83.422 296.911 83.422H296.127V82.442L299.039 78.858L299.235 79.418H293.873V78.2H300.341V79.152L297.443 82.722L296.715 82.288H297.177C298.363 82.288 299.249 82.554 299.837 83.086C300.435 83.618 300.733 84.2947 300.733 85.116C300.733 85.6667 300.598 86.1707 300.327 86.628C300.057 87.0853 299.646 87.4493 299.095 87.72C298.554 87.9813 297.863 88.112 297.023 88.112Z" fill="#000247"/>
<path d="M323.335 82.5001C323.335 82.8683 323.633 83.1667 324.001 83.1667C324.369 83.1667 324.668 82.8683 324.668 82.5001C324.668 82.1319 324.369 81.8334 324.001 81.8334C323.633 81.8334 323.335 82.1319 323.335 82.5001Z" fill="black"/>
<path d="M323.335 87.1667C323.335 87.5349 323.633 87.8334 324.001 87.8334C324.369 87.8334 324.668 87.5349 324.668 87.1667C324.668 86.7986 324.369 86.5001 324.001 86.5001C323.633 86.5001 323.335 86.7986 323.335 87.1667Z" fill="black"/>
<path d="M323.335 77.8334C323.335 78.2016 323.633 78.5001 324.001 78.5001C324.369 78.5001 324.668 78.2016 324.668 77.8334C324.668 77.4652 324.369 77.1667 324.001 77.1667C323.633 77.1667 323.335 77.4652 323.335 77.8334Z" fill="black"/>
<path d="M323.335 82.5001C323.335 82.8683 323.633 83.1667 324.001 83.1667C324.369 83.1667 324.668 82.8683 324.668 82.5001C324.668 82.1319 324.369 81.8334 324.001 81.8334C323.633 81.8334 323.335 82.1319 323.335 82.5001Z" stroke="black" stroke-width="2" stroke-linecap="round" stroke-linejoin="round"/>
<path d="M323.335 87.1667C323.335 87.5349 323.633 87.8334 324.001 87.8334C324.369 87.8334 324.668 87.5349 324.668 87.1667C324.668 86.7986 324.369 86.5001 324.001 86.5001C323.633 86.5001 323.335 86.7986 323.335 87.1667Z" stroke="black" stroke-width="2" stroke-linecap="round" stroke-linejoin="round"/>
<path d="M323.335 77.8334C323.335 78.2016 323.633 78.5001 324.001 78.5001C324.369 78.5001 324.668 78.2016 324.668 77.8334C324.668 77.4652 324.369 77.1667 324.001 77.1667C323.633 77.1667 323.335 77.4652 323.335 77.8334Z" stroke="black" stroke-width="2" stroke-linecap="round" stroke-linejoin="round"/>
<g filter="url(#filter1_d_561_510)">
<rect x="251" y="124" width="151" height="52" rx="8" fill="white"/>
</g>
<rect x="259" y="136" width="135" height="6" rx="3" fill="#ECECFF"/>
<rect x="318" y="158" width="76" height="6" rx="3" fill="#ECECFF"/>
<rect x="259" y="147" width="40" height="6" rx="3" fill="#ECECFF"/>
<rect x="304" y="147" width="90" height="6" rx="3" fill="#ECECFF"/>
<path d="M381.501 186L380.5 174.75L390.5 174.75L381.501 186Z" fill="white"/>
<g filter="url(#filter2_d_561_510)">
<rect x="95" y="104" width="107" height="57" rx="8" fill="white" shape-rendering="crispEdges"/>
<path d="M114.118 116.273H115.175V122.051C115.175 122.648 115.034 123.18 114.753 123.649C114.475 124.115 114.081 124.483 113.573 124.753C113.064 125.02 112.468 125.153 111.783 125.153C111.098 125.153 110.502 125.02 109.993 124.753C109.485 124.483 109.09 124.115 108.808 123.649C108.53 123.18 108.391 122.648 108.391 122.051V116.273H109.448V121.966C109.448 122.392 109.541 122.771 109.729 123.104C109.916 123.433 110.183 123.693 110.53 123.884C110.879 124.071 111.297 124.165 111.783 124.165C112.269 124.165 112.686 124.071 113.036 123.884C113.385 123.693 113.652 123.433 113.837 123.104C114.024 122.771 114.118 122.392 114.118 121.966V116.273ZM118.155 121.062V125H117.149V118.455H118.121V119.477H118.206C118.359 119.145 118.592 118.878 118.905 118.676C119.217 118.472 119.621 118.369 120.115 118.369C120.558 118.369 120.946 118.46 121.278 118.642C121.611 118.821 121.869 119.094 122.054 119.46C122.238 119.824 122.331 120.284 122.331 120.841V125H121.325V120.909C121.325 120.395 121.192 119.994 120.925 119.707C120.657 119.418 120.291 119.273 119.825 119.273C119.504 119.273 119.217 119.342 118.964 119.482C118.714 119.621 118.517 119.824 118.372 120.091C118.227 120.358 118.155 120.682 118.155 121.062ZM124.169 125V118.455H125.174V125H124.169ZM124.68 117.364C124.484 117.364 124.315 117.297 124.173 117.163C124.034 117.03 123.964 116.869 123.964 116.682C123.964 116.494 124.034 116.334 124.173 116.2C124.315 116.067 124.484 116 124.68 116C124.876 116 125.044 116.067 125.183 116.2C125.325 116.334 125.396 116.494 125.396 116.682C125.396 116.869 125.325 117.03 125.183 117.163C125.044 117.297 124.876 117.364 124.68 117.364ZM131.482 127.455V123.994H131.397C131.323 124.114 131.218 124.264 131.081 124.446C130.945 124.625 130.751 124.786 130.498 124.928C130.245 125.067 129.908 125.136 129.488 125.136C128.942 125.136 128.461 124.999 128.043 124.723C127.626 124.445 127.299 124.053 127.063 123.547C126.827 123.038 126.709 122.438 126.709 121.744C126.709 121.057 126.827 120.46 127.063 119.955C127.299 119.449 127.627 119.058 128.047 118.783C128.468 118.507 128.954 118.369 129.505 118.369C129.931 118.369 130.268 118.44 130.515 118.582C130.765 118.722 130.955 118.881 131.086 119.06C131.219 119.236 131.323 119.381 131.397 119.494H131.516V118.455H132.488V127.455H131.482ZM129.624 124.233C130.028 124.233 130.368 124.128 130.647 123.918C130.925 123.705 131.137 123.411 131.282 123.036C131.427 122.658 131.499 122.222 131.499 121.727C131.499 121.239 131.428 120.811 131.286 120.445C131.144 120.075 130.934 119.788 130.655 119.584C130.377 119.376 130.033 119.273 129.624 119.273C129.198 119.273 128.843 119.382 128.559 119.601C128.278 119.817 128.066 120.111 127.924 120.483C127.785 120.852 127.715 121.267 127.715 121.727C127.715 122.193 127.786 122.616 127.928 122.997C128.073 123.375 128.286 123.676 128.567 123.901C128.851 124.122 129.204 124.233 129.624 124.233ZM138.454 122.324V118.455H139.459V125H138.454V123.892H138.385C138.232 124.224 137.993 124.507 137.67 124.74C137.346 124.97 136.937 125.085 136.442 125.085C136.033 125.085 135.67 124.996 135.351 124.817C135.033 124.635 134.783 124.362 134.601 123.999C134.42 123.632 134.329 123.17 134.329 122.614V118.455H135.334V122.545C135.334 123.023 135.468 123.403 135.735 123.688C136.005 123.972 136.349 124.114 136.766 124.114C137.016 124.114 137.27 124.05 137.529 123.922C137.79 123.794 138.009 123.598 138.185 123.334C138.364 123.07 138.454 122.733 138.454 122.324ZM144.046 125.136C143.415 125.136 142.871 124.997 142.414 124.719C141.959 124.438 141.608 124.045 141.361 123.543C141.117 123.037 140.994 122.449 140.994 121.778C140.994 121.108 141.117 120.517 141.361 120.006C141.608 119.491 141.952 119.091 142.392 118.804C142.835 118.514 143.352 118.369 143.943 118.369C144.284 118.369 144.621 118.426 144.953 118.54C145.286 118.653 145.588 118.838 145.861 119.094C146.134 119.347 146.351 119.682 146.513 120.099C146.675 120.517 146.756 121.031 146.756 121.642V122.068H141.71V121.199H145.733C145.733 120.83 145.659 120.5 145.512 120.21C145.367 119.92 145.159 119.692 144.889 119.524C144.622 119.357 144.307 119.273 143.943 119.273C143.543 119.273 143.196 119.372 142.904 119.571C142.614 119.767 142.391 120.023 142.235 120.338C142.078 120.653 142 120.991 142 121.352V121.932C142 122.426 142.085 122.845 142.256 123.189C142.429 123.53 142.669 123.79 142.976 123.969C143.283 124.145 143.639 124.233 144.046 124.233C144.31 124.233 144.548 124.196 144.762 124.122C144.977 124.045 145.164 123.932 145.32 123.781C145.476 123.628 145.597 123.437 145.682 123.21L146.654 123.483C146.551 123.812 146.379 124.102 146.138 124.352C145.896 124.599 145.598 124.793 145.243 124.932C144.888 125.068 144.489 125.136 144.046 125.136ZM158.82 119H157.763C157.7 118.696 157.591 118.429 157.435 118.199C157.281 117.969 157.094 117.776 156.872 117.619C156.654 117.46 156.411 117.341 156.144 117.261C155.877 117.182 155.598 117.142 155.308 117.142C154.78 117.142 154.301 117.276 153.872 117.543C153.446 117.81 153.107 118.203 152.854 118.723C152.604 119.243 152.479 119.881 152.479 120.636C152.479 121.392 152.604 122.03 152.854 122.55C153.107 123.07 153.446 123.463 153.872 123.73C154.301 123.997 154.78 124.131 155.308 124.131C155.598 124.131 155.877 124.091 156.144 124.011C156.411 123.932 156.654 123.814 156.872 123.658C157.094 123.499 157.281 123.304 157.435 123.074C157.591 122.841 157.7 122.574 157.763 122.273H158.82C158.74 122.719 158.595 123.118 158.385 123.47C158.175 123.822 157.914 124.122 157.601 124.369C157.289 124.614 156.938 124.8 156.548 124.928C156.162 125.055 155.749 125.119 155.308 125.119C154.564 125.119 153.902 124.938 153.323 124.574C152.743 124.21 152.287 123.693 151.955 123.023C151.622 122.352 151.456 121.557 151.456 120.636C151.456 119.716 151.622 118.92 151.955 118.25C152.287 117.58 152.743 117.062 153.323 116.699C153.902 116.335 154.564 116.153 155.308 116.153C155.749 116.153 156.162 116.217 156.548 116.345C156.938 116.473 157.289 116.661 157.601 116.908C157.914 117.152 158.175 117.45 158.385 117.803C158.595 118.152 158.74 118.551 158.82 119ZM161.397 116.273V125H160.391V116.273H161.397ZM163.239 125V118.455H164.244V125H163.239ZM163.75 117.364C163.554 117.364 163.385 117.297 163.243 117.163C163.104 117.03 163.034 116.869 163.034 116.682C163.034 116.494 163.104 116.334 163.243 116.2C163.385 116.067 163.554 116 163.75 116C163.946 116 164.114 116.067 164.253 116.2C164.395 116.334 164.466 116.494 164.466 116.682C164.466 116.869 164.395 117.03 164.253 117.163C164.114 117.297 163.946 117.364 163.75 117.364ZM168.746 125.136C168.132 125.136 167.604 124.991 167.16 124.702C166.717 124.412 166.376 124.013 166.138 123.504C165.899 122.996 165.78 122.415 165.78 121.761C165.78 121.097 165.902 120.51 166.146 120.001C166.393 119.49 166.737 119.091 167.177 118.804C167.621 118.514 168.138 118.369 168.729 118.369C169.189 118.369 169.604 118.455 169.973 118.625C170.342 118.795 170.645 119.034 170.881 119.341C171.116 119.648 171.263 120.006 171.319 120.415H170.314C170.237 120.116 170.067 119.852 169.802 119.622C169.541 119.389 169.189 119.273 168.746 119.273C168.354 119.273 168.01 119.375 167.714 119.58C167.422 119.781 167.193 120.067 167.028 120.436C166.866 120.803 166.785 121.233 166.785 121.727C166.785 122.233 166.865 122.673 167.024 123.048C167.186 123.423 167.413 123.714 167.706 123.922C168.001 124.129 168.348 124.233 168.746 124.233C169.007 124.233 169.244 124.188 169.457 124.097C169.67 124.006 169.851 123.875 169.998 123.705C170.146 123.534 170.251 123.33 170.314 123.091H171.319C171.263 123.477 171.122 123.825 170.898 124.135C170.676 124.442 170.382 124.686 170.015 124.868C169.652 125.047 169.229 125.136 168.746 125.136ZM173.727 122.614L173.71 121.369H173.915L176.778 118.455H178.023L174.971 121.54H174.886L173.727 122.614ZM172.79 125V116.273H173.795V125H172.79ZM176.949 125L174.392 121.761L175.108 121.062L178.227 125H176.949ZM183.953 119.92L183.05 120.176C182.993 120.026 182.909 119.879 182.798 119.737C182.691 119.592 182.543 119.473 182.355 119.379C182.168 119.286 181.928 119.239 181.635 119.239C181.235 119.239 180.901 119.331 180.634 119.516C180.369 119.697 180.237 119.929 180.237 120.21C180.237 120.46 180.328 120.658 180.51 120.803C180.692 120.947 180.976 121.068 181.362 121.165L182.334 121.403C182.919 121.545 183.355 121.763 183.642 122.055C183.929 122.345 184.073 122.719 184.073 123.176C184.073 123.551 183.965 123.886 183.749 124.182C183.536 124.477 183.237 124.71 182.854 124.881C182.47 125.051 182.024 125.136 181.516 125.136C180.848 125.136 180.296 124.991 179.858 124.702C179.421 124.412 179.144 123.989 179.027 123.432L179.982 123.193C180.073 123.545 180.244 123.81 180.497 123.986C180.753 124.162 181.087 124.25 181.499 124.25C181.968 124.25 182.34 124.151 182.615 123.952C182.894 123.75 183.033 123.509 183.033 123.227C183.033 123 182.953 122.81 182.794 122.656C182.635 122.5 182.391 122.384 182.061 122.307L180.97 122.051C180.371 121.909 179.931 121.689 179.649 121.391C179.371 121.089 179.232 120.713 179.232 120.261C179.232 119.892 179.335 119.565 179.543 119.281C179.753 118.997 180.039 118.774 180.399 118.612C180.763 118.45 181.175 118.369 181.635 118.369C182.283 118.369 182.791 118.511 183.161 118.795C183.533 119.08 183.797 119.455 183.953 119.92Z" fill="#000247"/>
<path d="M108.162 148V146.668L111.696 143.202C112.035 142.861 112.316 142.558 112.542 142.293C112.767 142.027 112.936 141.771 113.049 141.522C113.161 141.273 113.218 141.008 113.218 140.727C113.218 140.405 113.145 140.13 112.999 139.901C112.853 139.669 112.653 139.49 112.397 139.364C112.142 139.238 111.852 139.175 111.527 139.175C111.193 139.175 110.899 139.245 110.647 139.384C110.396 139.52 110.2 139.714 110.061 139.966C109.925 140.218 109.857 140.518 109.857 140.866H108.102C108.102 140.219 108.249 139.658 108.544 139.18C108.839 138.703 109.245 138.334 109.763 138.072C110.283 137.81 110.879 137.679 111.552 137.679C112.235 137.679 112.835 137.807 113.352 138.062C113.869 138.317 114.27 138.667 114.555 139.111C114.843 139.555 114.988 140.062 114.988 140.632C114.988 141.013 114.915 141.388 114.769 141.756C114.623 142.124 114.366 142.531 113.998 142.979C113.634 143.426 113.122 143.968 112.462 144.604L110.707 146.389V146.459H115.142V148H108.162ZM120.998 137.818V148H119.154V139.613H119.094L116.713 141.134V139.444L119.243 137.818H120.998ZM127.347 148.194C126.528 148.194 125.826 147.987 125.239 147.572C124.656 147.155 124.207 146.553 123.892 145.768C123.58 144.979 123.424 144.029 123.424 142.919C123.428 141.809 123.585 140.864 123.897 140.085C124.212 139.303 124.661 138.706 125.244 138.295C125.831 137.884 126.532 137.679 127.347 137.679C128.162 137.679 128.863 137.884 129.45 138.295C130.037 138.706 130.486 139.303 130.797 140.085C131.112 140.867 131.27 141.812 131.27 142.919C131.27 144.033 131.112 144.984 130.797 145.773C130.486 146.558 130.037 147.158 129.45 147.572C128.867 147.987 128.166 148.194 127.347 148.194ZM127.347 146.638C127.983 146.638 128.486 146.325 128.853 145.698C129.225 145.068 129.41 144.142 129.41 142.919C129.41 142.11 129.326 141.431 129.157 140.881C128.988 140.33 128.749 139.916 128.441 139.638C128.133 139.356 127.768 139.215 127.347 139.215C126.714 139.215 126.214 139.53 125.846 140.16C125.478 140.786 125.292 141.706 125.289 142.919C125.285 143.731 125.367 144.414 125.532 144.967C125.701 145.521 125.94 145.938 126.248 146.22C126.557 146.499 126.923 146.638 127.347 146.638ZM137.063 137.818V148H135.218V139.613H135.159L132.777 141.134V139.444L135.308 137.818H137.063Z" fill="#000247"/>
</g>
<g filter="url(#filter3_d_561_510)">
<rect x="298" y="220" width="84" height="57" rx="8" fill="white" shape-rendering="crispEdges"/>
<path d="M318.117 235H317.06C316.997 234.696 316.888 234.429 316.732 234.199C316.578 233.969 316.391 233.776 316.169 233.619C315.95 233.46 315.708 233.341 315.441 233.261C315.173 233.182 314.895 233.142 314.605 233.142C314.077 233.142 313.598 233.276 313.169 233.543C312.743 233.81 312.404 234.203 312.151 234.723C311.901 235.243 311.776 235.881 311.776 236.636C311.776 237.392 311.901 238.03 312.151 238.55C312.404 239.07 312.743 239.463 313.169 239.73C313.598 239.997 314.077 240.131 314.605 240.131C314.895 240.131 315.173 240.091 315.441 240.011C315.708 239.932 315.95 239.814 316.169 239.658C316.391 239.499 316.578 239.304 316.732 239.074C316.888 238.841 316.997 238.574 317.06 238.273H318.117C318.037 238.719 317.892 239.118 317.682 239.47C317.472 239.822 317.21 240.122 316.898 240.369C316.585 240.614 316.235 240.8 315.845 240.928C315.459 241.055 315.046 241.119 314.605 241.119C313.861 241.119 313.199 240.938 312.619 240.574C312.04 240.21 311.584 239.693 311.252 239.023C310.919 238.352 310.753 237.557 310.753 236.636C310.753 235.716 310.919 234.92 311.252 234.25C311.584 233.58 312.04 233.062 312.619 232.699C313.199 232.335 313.861 232.153 314.605 232.153C315.046 232.153 315.459 232.217 315.845 232.345C316.235 232.473 316.585 232.661 316.898 232.908C317.21 233.152 317.472 233.45 317.682 233.803C317.892 234.152 318.037 234.551 318.117 235ZM320.694 232.273V241H319.688V232.273H320.694ZM322.536 241V234.455H323.541V241H322.536ZM323.047 233.364C322.851 233.364 322.682 233.297 322.54 233.163C322.401 233.03 322.331 232.869 322.331 232.682C322.331 232.494 322.401 232.334 322.54 232.2C322.682 232.067 322.851 232 323.047 232C323.243 232 323.411 232.067 323.55 232.2C323.692 232.334 323.763 232.494 323.763 232.682C323.763 232.869 323.692 233.03 323.55 233.163C323.411 233.297 323.243 233.364 323.047 233.364ZM328.042 241.136C327.429 241.136 326.9 240.991 326.457 240.702C326.014 240.412 325.673 240.013 325.434 239.504C325.196 238.996 325.077 238.415 325.077 237.761C325.077 237.097 325.199 236.51 325.443 236.001C325.69 235.49 326.034 235.091 326.474 234.804C326.917 234.514 327.434 234.369 328.025 234.369C328.486 234.369 328.9 234.455 329.27 234.625C329.639 234.795 329.942 235.034 330.177 235.341C330.413 235.648 330.559 236.006 330.616 236.415H329.611C329.534 236.116 329.363 235.852 329.099 235.622C328.838 235.389 328.486 235.273 328.042 235.273C327.65 235.273 327.307 235.375 327.011 235.58C326.719 235.781 326.49 236.067 326.325 236.436C326.163 236.803 326.082 237.233 326.082 237.727C326.082 238.233 326.162 238.673 326.321 239.048C326.483 239.423 326.71 239.714 327.003 239.922C327.298 240.129 327.645 240.233 328.042 240.233C328.304 240.233 328.541 240.188 328.754 240.097C328.967 240.006 329.148 239.875 329.295 239.705C329.443 239.534 329.548 239.33 329.611 239.091H330.616C330.559 239.477 330.419 239.825 330.194 240.135C329.973 240.442 329.679 240.686 329.312 240.868C328.949 241.047 328.525 241.136 328.042 241.136ZM333.024 238.614L333.007 237.369H333.211L336.075 234.455H337.319L334.268 237.54H334.183L333.024 238.614ZM332.086 241V232.273H333.092V241H332.086ZM336.246 241L333.689 237.761L334.405 237.062L337.524 241H336.246ZM343.25 235.92L342.347 236.176C342.29 236.026 342.206 235.879 342.095 235.737C341.987 235.592 341.84 235.473 341.652 235.379C341.465 235.286 341.225 235.239 340.932 235.239C340.531 235.239 340.198 235.331 339.931 235.516C339.666 235.697 339.534 235.929 339.534 236.21C339.534 236.46 339.625 236.658 339.807 236.803C339.989 236.947 340.273 237.068 340.659 237.165L341.631 237.403C342.216 237.545 342.652 237.763 342.939 238.055C343.226 238.345 343.369 238.719 343.369 239.176C343.369 239.551 343.262 239.886 343.046 240.182C342.833 240.477 342.534 240.71 342.151 240.881C341.767 241.051 341.321 241.136 340.813 241.136C340.145 241.136 339.593 240.991 339.155 240.702C338.718 240.412 338.441 239.989 338.324 239.432L339.279 239.193C339.369 239.545 339.541 239.81 339.794 239.986C340.05 240.162 340.384 240.25 340.796 240.25C341.264 240.25 341.637 240.151 341.912 239.952C342.191 239.75 342.33 239.509 342.33 239.227C342.33 239 342.25 238.81 342.091 238.656C341.932 238.5 341.688 238.384 341.358 238.307L340.267 238.051C339.668 237.909 339.227 237.689 338.946 237.391C338.668 237.089 338.529 236.713 338.529 236.261C338.529 235.892 338.632 235.565 338.84 235.281C339.05 234.997 339.335 234.774 339.696 234.612C340.06 234.45 340.472 234.369 340.932 234.369C341.58 234.369 342.088 234.511 342.458 234.795C342.83 235.08 343.094 235.455 343.25 235.92Z" fill="#000247"/>
<path d="M310.804 262.111V260.644L315.124 253.818H316.347V255.906H315.601L312.693 260.515V260.594H318.724V262.111H310.804ZM315.661 264V261.663L315.681 261.007V253.818H317.421V264H315.661ZM323.966 264.139C323.25 264.139 322.614 264.017 322.057 263.771C321.504 263.526 321.066 263.185 320.745 262.747C320.423 262.31 320.252 261.804 320.233 261.231H322.102C322.118 261.506 322.21 261.746 322.375 261.952C322.541 262.154 322.761 262.311 323.036 262.424C323.312 262.537 323.62 262.593 323.961 262.593C324.326 262.593 324.649 262.53 324.931 262.404C325.212 262.275 325.433 262.096 325.592 261.867C325.751 261.638 325.829 261.375 325.826 261.077C325.829 260.768 325.749 260.497 325.587 260.261C325.425 260.026 325.189 259.842 324.881 259.71C324.576 259.577 324.208 259.511 323.777 259.511H322.877V258.089H323.777C324.132 258.089 324.442 258.027 324.707 257.905C324.975 257.782 325.186 257.61 325.338 257.388C325.491 257.162 325.565 256.902 325.562 256.607C325.565 256.319 325.501 256.069 325.368 255.857C325.239 255.641 325.055 255.474 324.816 255.354C324.581 255.235 324.304 255.175 323.986 255.175C323.675 255.175 323.386 255.232 323.121 255.344C322.856 255.457 322.642 255.618 322.48 255.827C322.317 256.032 322.231 256.277 322.221 256.562H320.446C320.46 255.992 320.624 255.492 320.938 255.061C321.257 254.627 321.681 254.289 322.211 254.047C322.742 253.802 323.336 253.679 323.996 253.679C324.675 253.679 325.265 253.807 325.766 254.062C326.27 254.314 326.659 254.653 326.934 255.081C327.209 255.509 327.347 255.981 327.347 256.498C327.35 257.071 327.181 257.552 326.84 257.94C326.502 258.327 326.058 258.581 325.507 258.7V258.78C326.223 258.879 326.772 259.144 327.153 259.575C327.537 260.003 327.728 260.535 327.725 261.171C327.725 261.741 327.562 262.252 327.237 262.702C326.916 263.15 326.472 263.501 325.905 263.756C325.342 264.012 324.695 264.139 323.966 264.139ZM329.431 264V262.668L332.966 259.202C333.304 258.861 333.586 258.558 333.811 258.293C334.037 258.027 334.206 257.771 334.318 257.522C334.431 257.273 334.487 257.008 334.487 256.727C334.487 256.405 334.414 256.13 334.269 255.901C334.123 255.669 333.922 255.49 333.667 255.364C333.412 255.238 333.122 255.175 332.797 255.175C332.462 255.175 332.169 255.245 331.917 255.384C331.665 255.52 331.47 255.714 331.33 255.966C331.194 256.218 331.127 256.518 331.127 256.866H329.372C329.372 256.219 329.519 255.658 329.814 255.18C330.109 254.703 330.515 254.334 331.032 254.072C331.552 253.81 332.149 253.679 332.822 253.679C333.505 253.679 334.104 253.807 334.622 254.062C335.139 254.317 335.54 254.667 335.825 255.111C336.113 255.555 336.257 256.062 336.257 256.632C336.257 257.013 336.184 257.388 336.038 257.756C335.893 258.124 335.636 258.531 335.268 258.979C334.903 259.426 334.391 259.968 333.732 260.604L331.977 262.389V262.459H336.411V264H329.431ZM338.127 264V262.668L341.661 259.202C341.999 258.861 342.281 258.558 342.506 258.293C342.732 258.027 342.901 257.771 343.014 257.522C343.126 257.273 343.183 257.008 343.183 256.727C343.183 256.405 343.11 256.13 342.964 255.901C342.818 255.669 342.618 255.49 342.362 255.364C342.107 255.238 341.817 255.175 341.492 255.175C341.158 255.175 340.864 255.245 340.612 255.384C340.36 255.52 340.165 255.714 340.026 255.966C339.89 256.218 339.822 256.518 339.822 256.866H338.067C338.067 256.219 338.214 255.658 338.509 255.18C338.804 254.703 339.21 254.334 339.727 254.072C340.248 253.81 340.844 253.679 341.517 253.679C342.2 253.679 342.8 253.807 343.317 254.062C343.834 254.317 344.235 254.667 344.52 255.111C344.808 255.555 344.953 256.062 344.953 256.632C344.953 257.013 344.88 257.388 344.734 257.756C344.588 258.124 344.331 258.531 343.963 258.979C343.599 259.426 343.086 259.968 342.427 260.604L340.672 262.389V262.459H345.107V264H338.127Z" fill="#000247"/>
</g>
</g>
<path d="M424.018 32C431.878 38.6885 443.588 55.2131 427.555 67.8033C422.545 71.7377 416.316 66.7803 426.376 59.541C438.951 50.4918 462.53 74.8852 459.779 104" stroke="#000247" stroke-width="2"/>
<path d="M65.5 54L70.647 63.353L80 68.5L70.647 73.647L65.5 83L60.353 73.647L51 68.5L60.353 63.353L65.5 54Z" fill="#FDEFF0"/>
<path d="M419.5 272L423.227 278.773L430 282.5L423.227 286.227L419.5 293L415.773 286.227L409 282.5L415.773 278.773L419.5 272Z" fill="#FDEFF0"/>
<g filter="url(#filter4_d_561_510)">
<rect x="108" y="196" width="86" height="57" rx="8" fill="white" shape-rendering="crispEdges"/>
<path d="M128.412 211H127.355C127.292 210.696 127.183 210.429 127.027 210.199C126.873 209.969 126.686 209.776 126.464 209.619C126.245 209.46 126.002 209.341 125.735 209.261C125.468 209.182 125.19 209.142 124.9 209.142C124.372 209.142 123.893 209.276 123.464 209.543C123.038 209.81 122.699 210.203 122.446 210.723C122.196 211.243 122.071 211.881 122.071 212.636C122.071 213.392 122.196 214.03 122.446 214.55C122.699 215.07 123.038 215.463 123.464 215.73C123.893 215.997 124.372 216.131 124.9 216.131C125.19 216.131 125.468 216.091 125.735 216.011C126.002 215.932 126.245 215.814 126.464 215.658C126.686 215.499 126.873 215.304 127.027 215.074C127.183 214.841 127.292 214.574 127.355 214.273H128.412C128.332 214.719 128.187 215.118 127.977 215.47C127.767 215.822 127.505 216.122 127.193 216.369C126.88 216.614 126.529 216.8 126.14 216.928C125.754 217.055 125.341 217.119 124.9 217.119C124.156 217.119 123.494 216.938 122.914 216.574C122.335 216.21 121.879 215.693 121.547 215.023C121.214 214.352 121.048 213.557 121.048 212.636C121.048 211.716 121.214 210.92 121.547 210.25C121.879 209.58 122.335 209.062 122.914 208.699C123.494 208.335 124.156 208.153 124.9 208.153C125.341 208.153 125.754 208.217 126.14 208.345C126.529 208.473 126.88 208.661 127.193 208.908C127.505 209.152 127.767 209.45 127.977 209.803C128.187 210.152 128.332 210.551 128.412 211ZM132.642 217.136C132.051 217.136 131.533 216.996 131.087 216.714C130.643 216.433 130.297 216.04 130.047 215.534C129.8 215.028 129.676 214.437 129.676 213.761C129.676 213.08 129.8 212.484 130.047 211.976C130.297 211.467 130.643 211.072 131.087 210.791C131.533 210.51 132.051 210.369 132.642 210.369C133.233 210.369 133.75 210.51 134.193 210.791C134.639 211.072 134.986 211.467 135.233 211.976C135.483 212.484 135.608 213.08 135.608 213.761C135.608 214.437 135.483 215.028 135.233 215.534C134.986 216.04 134.639 216.433 134.193 216.714C133.75 216.996 133.233 217.136 132.642 217.136ZM132.642 216.233C133.091 216.233 133.46 216.118 133.75 215.888C134.04 215.658 134.254 215.355 134.393 214.98C134.533 214.605 134.602 214.199 134.602 213.761C134.602 213.324 134.533 212.916 134.393 212.538C134.254 212.161 134.04 211.855 133.75 211.622C133.46 211.389 133.091 211.273 132.642 211.273C132.193 211.273 131.824 211.389 131.534 211.622C131.244 211.855 131.03 212.161 130.891 212.538C130.751 212.916 130.682 213.324 130.682 213.761C130.682 214.199 130.751 214.605 130.891 214.98C131.03 215.355 131.244 215.658 131.534 215.888C131.824 216.118 132.193 216.233 132.642 216.233ZM138.149 213.062V217H137.143V210.455H138.115V211.477H138.2C138.353 211.145 138.586 210.878 138.899 210.676C139.211 210.472 139.615 210.369 140.109 210.369C140.552 210.369 140.94 210.46 141.272 210.642C141.605 210.821 141.863 211.094 142.048 211.46C142.233 211.824 142.325 212.284 142.325 212.841V217H141.319V212.909C141.319 212.395 141.186 211.994 140.919 211.707C140.652 211.418 140.285 211.273 139.819 211.273C139.498 211.273 139.211 211.342 138.958 211.482C138.708 211.621 138.511 211.824 138.366 212.091C138.221 212.358 138.149 212.682 138.149 213.062ZM149.281 210.455L146.86 217H145.837L143.417 210.455H144.508L146.315 215.67H146.383L148.19 210.455H149.281ZM150.931 217.068C150.721 217.068 150.54 216.993 150.39 216.842C150.239 216.692 150.164 216.511 150.164 216.301C150.164 216.091 150.239 215.911 150.39 215.76C150.54 215.609 150.721 215.534 150.931 215.534C151.141 215.534 151.321 215.609 151.472 215.76C151.623 215.911 151.698 216.091 151.698 216.301C151.698 216.44 151.662 216.568 151.591 216.685C151.523 216.801 151.431 216.895 151.314 216.966C151.201 217.034 151.073 217.068 150.931 217.068ZM157.014 217V208.273H159.963C160.645 208.273 161.204 208.389 161.642 208.622C162.079 208.852 162.403 209.169 162.613 209.572C162.824 209.976 162.929 210.435 162.929 210.949C162.929 211.463 162.824 211.919 162.613 212.317C162.403 212.714 162.081 213.027 161.646 213.254C161.211 213.479 160.656 213.591 159.98 213.591H157.593V212.636H159.946C160.412 212.636 160.787 212.568 161.071 212.432C161.358 212.295 161.565 212.102 161.693 211.852C161.824 211.599 161.889 211.298 161.889 210.949C161.889 210.599 161.824 210.294 161.693 210.033C161.562 209.771 161.353 209.57 161.066 209.428C160.779 209.283 160.4 209.21 159.929 209.21H158.071V217H157.014ZM161.122 213.08L163.27 217H162.042L159.929 213.08H161.122ZM166.479 217.153C166.065 217.153 165.688 217.075 165.35 216.919C165.012 216.76 164.744 216.531 164.545 216.233C164.346 215.932 164.246 215.568 164.246 215.142C164.246 214.767 164.32 214.463 164.468 214.23C164.616 213.994 164.813 213.81 165.06 213.676C165.308 213.543 165.58 213.443 165.879 213.378C166.18 213.31 166.482 213.256 166.786 213.216C167.184 213.165 167.506 213.126 167.754 213.101C168.004 213.072 168.185 213.026 168.299 212.96C168.415 212.895 168.474 212.781 168.474 212.619V212.585C168.474 212.165 168.359 211.838 168.129 211.605C167.901 211.372 167.556 211.256 167.093 211.256C166.613 211.256 166.237 211.361 165.964 211.571C165.691 211.781 165.499 212.006 165.388 212.244L164.434 211.903C164.604 211.506 164.832 211.196 165.116 210.974C165.403 210.75 165.715 210.594 166.053 210.506C166.394 210.415 166.729 210.369 167.059 210.369C167.269 210.369 167.511 210.395 167.783 210.446C168.059 210.494 168.325 210.595 168.58 210.749C168.839 210.902 169.053 211.134 169.224 211.443C169.394 211.753 169.479 212.168 169.479 212.688V217H168.474V216.114H168.423C168.354 216.256 168.241 216.408 168.082 216.57C167.923 216.732 167.711 216.869 167.447 216.983C167.183 217.097 166.86 217.153 166.479 217.153ZM166.633 216.25C167.031 216.25 167.366 216.172 167.638 216.016C167.914 215.859 168.121 215.658 168.261 215.411C168.403 215.163 168.474 214.903 168.474 214.631V213.71C168.431 213.761 168.337 213.808 168.192 213.851C168.05 213.891 167.886 213.926 167.698 213.957C167.513 213.986 167.333 214.011 167.157 214.034C166.984 214.054 166.843 214.071 166.735 214.085C166.474 214.119 166.229 214.175 166.002 214.251C165.778 214.325 165.596 214.437 165.457 214.588C165.32 214.736 165.252 214.937 165.252 215.193C165.252 215.543 165.381 215.807 165.64 215.986C165.901 216.162 166.232 216.25 166.633 216.25ZM174.162 210.455V211.307H170.77V210.455H174.162ZM171.758 208.886H172.764V215.125C172.764 215.409 172.805 215.622 172.887 215.764C172.973 215.903 173.081 215.997 173.211 216.045C173.345 216.091 173.485 216.114 173.633 216.114C173.744 216.114 173.835 216.108 173.906 216.097C173.977 216.082 174.034 216.071 174.076 216.062L174.281 216.966C174.213 216.991 174.118 217.017 173.995 217.043C173.873 217.071 173.718 217.085 173.531 217.085C173.247 217.085 172.968 217.024 172.696 216.902C172.426 216.78 172.201 216.594 172.022 216.344C171.846 216.094 171.758 215.778 171.758 215.398V208.886ZM178.348 217.136C177.718 217.136 177.174 216.997 176.716 216.719C176.262 216.438 175.911 216.045 175.664 215.543C175.419 215.037 175.297 214.449 175.297 213.778C175.297 213.108 175.419 212.517 175.664 212.006C175.911 211.491 176.255 211.091 176.695 210.804C177.138 210.514 177.655 210.369 178.246 210.369C178.587 210.369 178.924 210.426 179.256 210.54C179.588 210.653 179.891 210.838 180.164 211.094C180.436 211.347 180.654 211.682 180.816 212.099C180.978 212.517 181.059 213.031 181.059 213.642V214.068H176.013V213.199H180.036C180.036 212.83 179.962 212.5 179.814 212.21C179.669 211.92 179.462 211.692 179.192 211.524C178.925 211.357 178.61 211.273 178.246 211.273C177.846 211.273 177.499 211.372 177.206 211.571C176.917 211.767 176.694 212.023 176.537 212.338C176.381 212.653 176.303 212.991 176.303 213.352V213.932C176.303 214.426 176.388 214.845 176.559 215.189C176.732 215.53 176.972 215.79 177.279 215.969C177.586 216.145 177.942 216.233 178.348 216.233C178.613 216.233 178.851 216.196 179.064 216.122C179.28 216.045 179.466 215.932 179.623 215.781C179.779 215.628 179.9 215.437 179.985 215.21L180.956 215.483C180.854 215.812 180.682 216.102 180.441 216.352C180.199 216.599 179.901 216.793 179.546 216.932C179.191 217.068 178.792 217.136 178.348 217.136Z" fill="#000247"/>
<path d="M121.14 240V238.668L124.675 235.202C125.013 234.861 125.295 234.558 125.52 234.293C125.746 234.027 125.915 233.771 126.027 233.522C126.14 233.273 126.196 233.008 126.196 232.727C126.196 232.405 126.123 232.13 125.978 231.901C125.832 231.669 125.631 231.49 125.376 231.364C125.121 231.238 124.831 231.175 124.506 231.175C124.171 231.175 123.878 231.245 123.626 231.384C123.374 231.52 123.179 231.714 123.039 231.966C122.903 232.218 122.835 232.518 122.835 232.866H121.081C121.081 232.219 121.228 231.658 121.523 231.18C121.818 230.703 122.224 230.334 122.741 230.072C123.261 229.81 123.858 229.679 124.531 229.679C125.214 229.679 125.813 229.807 126.331 230.062C126.848 230.317 127.249 230.667 127.534 231.111C127.822 231.555 127.966 232.062 127.966 232.632C127.966 233.013 127.893 233.388 127.747 233.756C127.602 234.124 127.345 234.531 126.977 234.979C126.612 235.426 126.1 235.968 125.441 236.604L123.686 238.389V238.459H128.12V240H121.14ZM130.964 240.109C130.662 240.109 130.404 240.003 130.188 239.791C129.973 239.579 129.867 239.321 129.87 239.016C129.867 238.717 129.973 238.462 130.188 238.25C130.404 238.038 130.662 237.932 130.964 237.932C131.256 237.932 131.509 238.038 131.725 238.25C131.943 238.462 132.054 238.717 132.058 239.016C132.054 239.218 132.001 239.402 131.899 239.567C131.799 239.733 131.667 239.866 131.501 239.965C131.339 240.061 131.16 240.109 130.964 240.109ZM133.896 240V238.668L137.431 235.202C137.769 234.861 138.051 234.558 138.276 234.293C138.501 234.027 138.67 233.771 138.783 233.522C138.896 233.273 138.952 233.008 138.952 232.727C138.952 232.405 138.879 232.13 138.733 231.901C138.588 231.669 138.387 231.49 138.132 231.364C137.877 231.238 137.587 231.175 137.262 231.175C136.927 231.175 136.634 231.245 136.382 231.384C136.13 231.52 135.934 231.714 135.795 231.966C135.659 232.218 135.591 232.518 135.591 232.866H133.836C133.836 232.219 133.984 231.658 134.279 231.18C134.574 230.703 134.98 230.334 135.497 230.072C136.017 229.81 136.614 229.679 137.287 229.679C137.969 229.679 138.569 229.807 139.086 230.062C139.603 230.317 140.004 230.667 140.29 231.111C140.578 231.555 140.722 232.062 140.722 232.632C140.722 233.013 140.649 233.388 140.503 233.756C140.357 234.124 140.101 234.531 139.733 234.979C139.368 235.426 138.856 235.968 138.196 236.604L136.441 238.389V238.459H140.876V240H133.896ZM146.32 240.139C145.833 240.136 145.357 240.051 144.893 239.886C144.429 239.717 144.012 239.443 143.64 239.065C143.269 238.684 142.974 238.179 142.755 237.549C142.537 236.916 142.429 236.132 142.432 235.197C142.432 234.326 142.525 233.549 142.711 232.866C142.896 232.183 143.163 231.606 143.511 231.136C143.859 230.662 144.278 230.3 144.769 230.052C145.263 229.803 145.815 229.679 146.424 229.679C147.064 229.679 147.631 229.805 148.125 230.057C148.622 230.309 149.023 230.653 149.328 231.091C149.633 231.525 149.822 232.016 149.895 232.562H148.08C147.987 232.171 147.797 231.86 147.508 231.628C147.223 231.393 146.862 231.275 146.424 231.275C145.718 231.275 145.175 231.581 144.794 232.195C144.416 232.808 144.225 233.65 144.222 234.72H144.292C144.454 234.429 144.665 234.178 144.923 233.969C145.182 233.761 145.473 233.6 145.798 233.487C146.126 233.371 146.473 233.313 146.837 233.313C147.434 233.313 147.969 233.456 148.443 233.741C148.92 234.026 149.298 234.419 149.576 234.919C149.855 235.416 149.992 235.986 149.989 236.629C149.992 237.299 149.84 237.9 149.532 238.434C149.223 238.964 148.794 239.382 148.244 239.687C147.694 239.992 147.053 240.143 146.32 240.139ZM146.31 238.648C146.671 238.648 146.995 238.56 147.28 238.384C147.565 238.209 147.79 237.972 147.956 237.673C148.121 237.375 148.203 237.04 148.199 236.669C148.203 236.304 148.123 235.975 147.961 235.68C147.802 235.385 147.581 235.151 147.299 234.979C147.018 234.806 146.696 234.72 146.335 234.72C146.066 234.72 145.816 234.772 145.584 234.874C145.352 234.977 145.15 235.12 144.978 235.302C144.805 235.481 144.669 235.69 144.57 235.928C144.474 236.164 144.424 236.415 144.421 236.684C144.424 237.039 144.507 237.365 144.669 237.663C144.832 237.962 145.056 238.2 145.341 238.379C145.626 238.558 145.949 238.648 146.31 238.648Z" fill="#000247"/>
</g>
<defs>
<filter id="filter0_d_561_510" x="138" y="37" width="226" height="343" filterUnits="userSpaceOnUse" color-interpolation-filters="sRGB">
<feFlood flood-opacity="0" result="BackgroundImageFix"/>
<feColorMatrix in="SourceAlpha" type="matrix" values="0 0 0 0 0 0 0 0 0 0 0 0 0 0 0 0 0 0 127 0" result="hardAlpha"/>
<feOffset dy="1"/>
<feGaussianBlur stdDeviation="9"/>
<feComposite in2="hardAlpha" operator="out"/>
<feColorMatrix type="matrix" values="0 0 0 0 0 0 0 0 0 0 0 0 0 0 0 0 0 0 0.15 0"/>
<feBlend mode="normal" in2="BackgroundImageFix" result="effect1_dropShadow_561_510"/>
<feBlend mode="normal" in="SourceGraphic" in2="effect1_dropShadow_561_510" result="shape"/>
</filter>
<filter id="filter1_d_561_510" x="243" y="117" width="167" height="68" filterUnits="userSpaceOnUse" color-interpolation-filters="sRGB">
<feFlood flood-opacity="0" result="BackgroundImageFix"/>
<feColorMatrix in="SourceAlpha" type="matrix" values="0 0 0 0 0 0 0 0 0 0 0 0 0 0 0 0 0 0 127 0" result="hardAlpha"/>
<feOffset dy="1"/>
<feGaussianBlur stdDeviation="4"/>
<feComposite in2="hardAlpha" operator="out"/>
<feColorMatrix type="matrix" values="0 0 0 0 0 0 0 0 0 0 0 0 0 0 0 0 0 0 0.15 0"/>
<feBlend mode="normal" in2="BackgroundImageFix" result="effect1_dropShadow_561_510"/>
<feBlend mode="normal" in="SourceGraphic" in2="effect1_dropShadow_561_510" result="shape"/>
</filter>
<filter id="filter2_d_561_510" x="87" y="97" width="123" height="73" filterUnits="userSpaceOnUse" color-interpolation-filters="sRGB">
<feFlood flood-opacity="0" result="BackgroundImageFix"/>
<feColorMatrix in="SourceAlpha" type="matrix" values="0 0 0 0 0 0 0 0 0 0 0 0 0 0 0 0 0 0 127 0" result="hardAlpha"/>
<feOffset dy="1"/>
<feGaussianBlur stdDeviation="4"/>
<feComposite in2="hardAlpha" operator="out"/>
<feColorMatrix type="matrix" values="0 0 0 0 0 0 0 0 0 0 0 0 0 0 0 0 0 0 0.15 0"/>
<feBlend mode="normal" in2="BackgroundImageFix" result="effect1_dropShadow_561_510"/>
<feBlend mode="normal" in="SourceGraphic" in2="effect1_dropShadow_561_510" result="shape"/>
</filter>
<filter id="filter3_d_561_510" x="290" y="213" width="100" height="73" filterUnits="userSpaceOnUse" color-interpolation-filters="sRGB">
<feFlood flood-opacity="0" result="BackgroundImageFix"/>
<feColorMatrix in="SourceAlpha" type="matrix" values="0 0 0 0 0 0 0 0 0 0 0 0 0 0 0 0 0 0 127 0" result="hardAlpha"/>
<feOffset dy="1"/>
<feGaussianBlur stdDeviation="4"/>
<feComposite in2="hardAlpha" operator="out"/>
<feColorMatrix type="matrix" values="0 0 0 0 0 0 0 0 0 0 0 0 0 0 0 0 0 0 0.15 0"/>
<feBlend mode="normal" in2="BackgroundImageFix" result="effect1_dropShadow_561_510"/>
<feBlend mode="normal" in="SourceGraphic" in2="effect1_dropShadow_561_510" result="shape"/>
</filter>
<filter id="filter4_d_561_510" x="100" y="189" width="102" height="73" filterUnits="userSpaceOnUse" color-interpolation-filters="sRGB">
<feFlood flood-opacity="0" result="BackgroundImageFix"/>
<feColorMatrix in="SourceAlpha" type="matrix" values="0 0 0 0 0 0 0 0 0 0 0 0 0 0 0 0 0 0 127 0" result="hardAlpha"/>
<feOffset dy="1"/>
<feGaussianBlur stdDeviation="4"/>
<feComposite in2="hardAlpha" operator="out"/>
<feColorMatrix type="matrix" values="0 0 0 0 0 0 0 0 0 0 0 0 0 0 0 0 0 0 0.15 0"/>
<feBlend mode="normal" in2="BackgroundImageFix" result="effect1_dropShadow_561_510"/>
<feBlend mode="normal" in="SourceGraphic" in2="effect1_dropShadow_561_510" result="shape"/>
</filter>
</defs>
</svg>
