<svg width="56" height="56" viewBox="0 0 56 56" fill="none" xmlns="http://www.w3.org/2000/svg">
    <path opacity=".3" d="M49.875 2.625H6.125a3.5 3.5 0 0 0-3.5 3.5v5.25h50.75v-5.25a3.5 3.5 0 0 0-3.5-3.5zM21.875 28h-5.25v14h5.25V28z" fill="red"/>
    <path d="M49.875 1.5H6.125A4.63 4.63 0 0 0 1.5 6.125v43.75A4.63 4.63 0 0 0 6.125 54.5h43.75a4.63 4.63 0 0 0 4.625-4.625V6.125A4.63 4.63 0 0 0 49.875 1.5zM3.75 6.125A2.375 2.375 0 0 1 6.125 3.75h43.75a2.375 2.375 0 0 1 2.375 2.375v4.125H3.75V6.125zM49.875 52.25H6.125a2.375 2.375 0 0 1-2.375-2.375V12.5h48.5v37.375a2.375 2.375 0 0 1-2.375 2.375z" fill="#004498" stroke="#004498" stroke-width=".5"/>
    <path d="M7.875 6.025h-1.75a.975.975 0 1 0 0 1.95h1.75a.975.975 0 1 0 0-1.95zm5.25 0h-1.75a.975.975 0 1 0 0 1.95h1.75a.975.975 0 1 0 0-1.95zm5.25 0h-1.75a.975.975 0 1 0 0 1.95h1.75a.975.975 0 1 0 0-1.95zm20.125 21h-6.9V22.75a2.725 2.725 0 0 0-2.725-2.725H26.25a1.85 1.85 0 0 0-1.85 1.85v5.15h-7.775a.975.975 0 0 0-.975.975v14a.975.975 0 0 0 .975.975H38.5a1.85 1.85 0 0 0 1.85-1.85v-12.25a1.85 1.85 0 0 0-1.85-1.85zm-17.6 1.95v12.05h-3.3v-12.05h3.3zm1.95 12.05v-12.05h2.525A.975.975 0 0 0 26.35 28v-6.025h2.525a.775.775 0 0 1 .775.775V28a.975.975 0 0 0 .975.975H38.4v1.55h-4.275a.975.975 0 1 0 0 1.95H38.4v1.55h-4.275a.975.975 0 1 0 0 1.95H38.4v1.55h-4.275a.975.975 0 1 0 0 1.95H38.4v1.55H22.85z" fill="#004498" stroke="#004498" stroke-width=".2"/>
</svg>
