<svg width="56" height="56" viewBox="0 0 56 56" fill="none" xmlns="http://www.w3.org/2000/svg">
<path opacity="0.3" d="M49.875 2.625H6.125C5.19674 2.625 4.3065 2.99375 3.65013 3.65013C2.99375 4.3065 2.625 5.19674 2.625 6.125V11.375H53.375V6.125C53.375 5.19674 53.0063 4.3065 52.3499 3.65013C51.6935 2.99375 50.8033 2.625 49.875 2.625Z" fill="#FF0000"/>
<path opacity="0.3" d="M21.875 28H16.625V42H21.875V28Z" fill="#FF0000"/>
<path d="M49.875 1.75H6.125C4.9651 1.75139 3.85311 2.21277 3.03294 3.03294C2.21277 3.85311 1.75139 4.9651 1.75 6.125V49.875C1.75139 51.0349 2.21277 52.1469 3.03294 52.9671C3.85311 53.7872 4.9651 54.2486 6.125 54.25H49.875C51.0349 54.2486 52.1469 53.7872 52.9671 52.9671C53.7872 52.1469 54.2486 51.0349 54.25 49.875V6.125C54.2486 4.9651 53.7872 3.85311 52.9671 3.03294C52.1469 2.21277 51.0349 1.75139 49.875 1.75ZM3.5 6.125C3.5 5.42881 3.77656 4.76113 4.26884 4.26884C4.76113 3.77656 5.42881 3.5 6.125 3.5H49.875C50.5712 3.5 51.2389 3.77656 51.7312 4.26884C52.2234 4.76113 52.5 5.42881 52.5 6.125V10.5H3.5V6.125ZM49.875 52.5H6.125C5.42881 52.5 4.76113 52.2234 4.26884 51.7312C3.77656 51.2389 3.5 50.5712 3.5 49.875V12.25H52.5V49.875C52.5 50.5712 52.2234 51.2389 51.7312 51.7312C51.2389 52.2234 50.5712 52.5 49.875 52.5Z" fill="#B30000"/>
<path d="M7.875 6.125H6.125C5.89294 6.125 5.67038 6.21719 5.50628 6.38128C5.34219 6.54538 5.25 6.76794 5.25 7C5.25 7.23206 5.34219 7.45462 5.50628 7.61872C5.67038 7.78281 5.89294 7.875 6.125 7.875H7.875C8.10706 7.875 8.32962 7.78281 8.49372 7.61872C8.65781 7.45462 8.75 7.23206 8.75 7C8.75 6.76794 8.65781 6.54538 8.49372 6.38128C8.32962 6.21719 8.10706 6.125 7.875 6.125ZM13.125 6.125H11.375C11.1429 6.125 10.9204 6.21719 10.7563 6.38128C10.5922 6.54538 10.5 6.76794 10.5 7C10.5 7.23206 10.5922 7.45462 10.7563 7.61872C10.9204 7.78281 11.1429 7.875 11.375 7.875H13.125C13.3571 7.875 13.5796 7.78281 13.7437 7.61872C13.9078 7.45462 14 7.23206 14 7C14 6.76794 13.9078 6.54538 13.7437 6.38128C13.5796 6.21719 13.3571 6.125 13.125 6.125ZM18.375 6.125H16.625C16.3929 6.125 16.1704 6.21719 16.0063 6.38128C15.8422 6.54538 15.75 6.76794 15.75 7C15.75 7.23206 15.8422 7.45462 16.0063 7.61872C16.1704 7.78281 16.3929 7.875 16.625 7.875H18.375C18.6071 7.875 18.8296 7.78281 18.9937 7.61872C19.1578 7.45462 19.25 7.23206 19.25 7C19.25 6.76794 19.1578 6.54538 18.9937 6.38128C18.8296 6.21719 18.6071 6.125 18.375 6.125ZM38.5 27.125H31.5V22.75C31.5 22.0538 31.2234 21.3861 30.7312 20.8938C30.2389 20.4016 29.5712 20.125 28.875 20.125H26.25C25.7859 20.125 25.3408 20.3094 25.0126 20.6376C24.6844 20.9658 24.5 21.4109 24.5 21.875V27.125H16.625C16.3929 27.125 16.1704 27.2172 16.0063 27.3813C15.8422 27.5454 15.75 27.7679 15.75 28V42C15.75 42.2321 15.8422 42.4546 16.0063 42.6187C16.1704 42.7828 16.3929 42.875 16.625 42.875H38.5C38.9641 42.875 39.4092 42.6906 39.7374 42.3624C40.0656 42.0342 40.25 41.5891 40.25 41.125V28.875C40.25 28.4109 40.0656 27.9658 39.7374 27.6376C39.4092 27.3094 38.9641 27.125 38.5 27.125ZM17.5 28.875H21V41.125H17.5V28.875ZM38.5 41.125H22.75V28.875H25.375C25.6071 28.875 25.8296 28.7828 25.9937 28.6187C26.1578 28.4546 26.25 28.2321 26.25 28V21.875H28.875C29.1071 21.875 29.3296 21.9672 29.4937 22.1313C29.6578 22.2954 29.75 22.5179 29.75 22.75V28C29.75 28.2321 29.8422 28.4546 30.0063 28.6187C30.1704 28.7828 30.3929 28.875 30.625 28.875H38.5V30.625H34.125C33.8929 30.625 33.6704 30.7172 33.5063 30.8813C33.3422 31.0454 33.25 31.2679 33.25 31.5C33.25 31.7321 33.3422 31.9546 33.5063 32.1187C33.6704 32.2828 33.8929 32.375 34.125 32.375H38.5V34.125H34.125C33.8929 34.125 33.6704 34.2172 33.5063 34.3813C33.3422 34.5454 33.25 34.7679 33.25 35C33.25 35.2321 33.3422 35.4546 33.5063 35.6187C33.6704 35.7828 33.8929 35.875 34.125 35.875H38.5V37.625H34.125C33.8929 37.625 33.6704 37.7172 33.5063 37.8813C33.3422 38.0454 33.25 38.2679 33.25 38.5C33.25 38.7321 33.3422 38.9546 33.5063 39.1187C33.6704 39.2828 33.8929 39.375 34.125 39.375H38.5V41.125Z" fill="#B30000"/>
</svg>
