<svg width="56" height="56" viewBox="0 0 56 56" fill="none" xmlns="http://www.w3.org/2000/svg">
    <path d="M48.546 8.98c-.824.423-1.91 1.194-3.575 2.383l-3.69 2.635c-.743.531-1.207.864-1.54 1.151-.308.265-.409.411-.464.519-.056.108-.116.275-.153.679-.04.439-.041 1.009-.041 1.923v19.462c0 .914.001 1.484.041 1.923.037.404.097.571.153.679.055.108.156.254.463.519.334.287.797.62 1.541 1.151l3.69 2.636c1.664 1.188 2.752 1.96 3.575 2.382.393.201.608.262.71.277.047-.092.123-.302.187-.738.135-.916.14-2.25.14-4.295v-28.53c0-2.046-.005-3.379-.14-4.295-.064-.436-.14-.646-.187-.738-.102.015-.317.076-.71.277zM6.742 8.703c.103.015.318.076.71.277.824.423 1.912 1.194 3.576 2.383l3.69 2.635c.743.531 1.206.864 1.54 1.151.308.265.409.411.464.519.056.108.116.275.153.679.04.439.041 1.009.041 1.923v19.462c0 .914-.002 1.484-.041 1.923-.037.404-.097.571-.153.679-.055.108-.156.254-.464.519-.334.287-.797.62-1.54 1.151l-3.69 2.636c-1.664 1.188-2.752 1.96-3.576 2.382-.392.201-.607.262-.71.277-.046-.092-.122-.302-.186-.738-.135-.916-.14-2.25-.14-4.295v-28.53c0-2.046.005-3.379.14-4.295.064-.436.14-.646.186-.738z" fill="#F9AFB2"/>
    <path fill-rule="evenodd" clip-rule="evenodd" d="m12.948 8.433.114.081 3.746 2.676c.67.479 1.265.903 1.733 1.306.508.437.96.925 1.293 1.57.333.646.466 1.298.526 1.965.056.616.056 1.346.056 2.17v19.6c0 .824 0 1.554-.056 2.17-.06.667-.193 1.319-.526 1.964-.332.646-.785 1.133-1.293 1.57-.468.404-1.062.828-1.733 1.307l-3.86 2.757c-1.518 1.084-2.817 2.012-3.898 2.567-1.103.566-2.506 1.022-3.92.295-1.412-.727-1.856-2.134-2.037-3.36-.177-1.203-.177-2.799-.177-4.665V13.596c0-1.866 0-3.462.177-4.665.18-1.226.625-2.633 2.038-3.36 1.413-.727 2.816-.271 3.919.295 1.081.555 2.38 1.482 3.898 2.567zm-6.206.27c.103.015.318.075.71.277.824.422 1.912 1.194 3.576 2.382l3.69 2.636c.743.531 1.206.864 1.54 1.151.308.265.409.411.464.519.056.108.116.275.153.679.04.438.041 1.009.041 1.923v19.462c0 .914-.002 1.484-.041 1.923-.037.404-.097.571-.153.679-.055.108-.156.254-.464.518-.334.288-.797.62-1.54 1.152l-3.69 2.636c-1.664 1.188-2.752 1.96-3.576 2.382-.392.201-.607.262-.71.277-.046-.092-.122-.302-.186-.739-.135-.916-.14-2.249-.14-4.294v-28.53c0-2.046.005-3.379.14-4.295.064-.436.14-.646.186-.739zm41.805.277c-.824.422-1.912 1.194-3.576 2.382l-3.69 2.636c-.743.531-1.207.864-1.54 1.151-.308.265-.409.411-.464.519-.056.108-.116.275-.153.679-.04.438-.041 1.009-.041 1.923v19.462c0 .914.001 1.484.041 1.923.037.404.097.571.153.679.055.108.156.254.463.518.334.288.797.62 1.541 1.152l3.69 2.636c1.664 1.188 2.752 1.96 3.576 2.382.392.201.607.262.71.277.046-.092.122-.302.186-.739.135-.916.14-2.249.14-4.294v-28.53c0-2.046-.005-3.379-.14-4.295-.064-.436-.14-.646-.187-.739-.102.016-.317.076-.71.278zm2.32-3.41c1.414.728 1.858 2.135 2.039 3.361.177 1.203.177 2.799.177 4.665v28.81c0 1.866 0 3.462-.177 4.665-.18 1.226-.625 2.633-2.038 3.36-1.413.727-2.816.27-3.92-.295-1.08-.555-2.38-1.483-3.898-2.567l-3.86-2.757c-.67-.479-1.264-.903-1.732-1.306-.509-.438-.961-.925-1.293-1.57-.333-.647-.466-1.298-.527-1.965-.055-.616-.055-1.346-.055-2.17v-19.6c0-.824 0-1.554.055-2.17.06-.667.194-1.319.527-1.965.332-.646.784-1.133 1.293-1.57.468-.403 1.062-.827 1.732-1.306l.057-.04 3.69-2.636.114-.081c1.518-1.085 2.816-2.012 3.898-2.567 1.103-.566 2.506-1.022 3.919-.295z" fill="#014598" stroke="#fff"/>
    <path fill-rule="evenodd" clip-rule="evenodd" d="M28 21.583c.966 0 1.75.784 1.75 1.75v9.334a1.75 1.75 0 1 1-3.5 0v-9.334c0-.966.784-1.75 1.75-1.75zm0-18.666c.966 0 1.75.783 1.75 1.75V14a1.75 1.75 0 1 1-3.5 0V4.667c0-.967.784-1.75 1.75-1.75zm0 37.333c.966 0 1.75.784 1.75 1.75v9.333a1.75 1.75 0 1 1-3.5 0V42c0-.966.784-1.75 1.75-1.75z" fill="#014598"/>
</svg>
