<svg width="48" height="48" viewBox="0 0 48 48" fill="none" xmlns="http://www.w3.org/2000/svg">
    <path opacity=".4" d="M12.102 34.483H3.61c-.78 0-1.412.632-1.412 1.411v9.07c0 .78.632 1.413 1.412 1.413h8.492c.78 0 1.412-.633 1.412-1.412v-9.07c0-.78-.632-1.413-1.412-1.413zm17.556 10.482c0 .78-.632 1.412-1.412 1.412h-8.491c-.78 0-1.412-.632-1.412-1.412v-9.07c0-.78.632-1.413 1.412-1.413h8.491c.78 0 1.412.633 1.412 1.412v9.07zm14.733-10.483h-8.492c-.78 0-1.412.633-1.412 1.412v9.07c0 .78.632 1.413 1.412 1.413h8.492c.78 0 1.412-.633 1.412-1.412v-9.07c0-.78-.632-1.413-1.412-1.413zM35.686 4.744v1.229H23.58l-2.124-3.346h12.113a2.12 2.12 0 0 1 2.117 2.117z" fill="red"/>
    <mask id="tzws2pykfa" maskUnits="userSpaceOnUse" x=".669" y=".094" width="47" height="48" fill="#000">
        <path fill="#fff" d="M.669.094h47v48h-47z"/>
        <path d="M44.39 33.953h-3.715v-.99a2.65 2.65 0 0 0-2.648-2.647H24.53v-4.177h11.356a2.63 2.63 0 0 0 2.603-2.647V7.602c0-1.19-.97-2.16-2.16-2.16h-.114v-.699a2.65 2.65 0 0 0-2.647-2.647h-11.82l-.004-.006a2.17 2.17 0 0 0-1.82-.996h-8.252c-1.191 0-2.16.97-2.16 2.16v20.238a2.65 2.65 0 0 0 2.647 2.647H23.47v4.177H9.935a2.65 2.65 0 0 0-2.608 2.647v.99H3.61c-1.07 0-1.941.871-1.941 1.941v9.07c0 1.071.87 1.942 1.941 1.942h8.492c1.07 0 1.94-.87 1.94-1.941v-9.07c0-1.071-.87-1.942-1.94-1.942H8.386v-.99a1.59 1.59 0 0 1 1.588-1.588H23.47v2.578h-3.716c-1.07 0-1.941.871-1.941 1.941v9.07c0 1.071.87 1.942 1.94 1.942h8.492c1.07 0 1.942-.87 1.942-1.941v-9.07c0-1.071-.871-1.942-1.942-1.942H24.53v-2.578h13.497a1.59 1.59 0 0 1 1.589 1.588v.99h-3.717c-1.07 0-1.941.871-1.941 1.941v9.07c0 1.071.87 1.942 1.941 1.942h8.492c1.07 0 1.94-.87 1.94-1.941v-9.07c0-1.071-.87-1.942-1.94-1.942zM33.569 3.155a1.59 1.59 0 0 1 1.589 1.588v.7H23.87L22.42 3.154h11.148zM10.571 23.492V3.254c0-.607.494-1.101 1.1-1.101h8.253c.374 0 .722.192.928.508l2.281 3.595a.53.53 0 0 0 .447.245h12.748c.608 0 1.102.494 1.102 1.101v15.89c0 .874-.687 1.572-1.553 1.588H12.159a1.59 1.59 0 0 1-1.588-1.588zm2.413 12.402v9.07a.883.883 0 0 1-.882.883H3.61a.883.883 0 0 1-.882-.882v-9.07c0-.487.395-.883.882-.883h8.492c.486 0 .882.396.882.882zm16.145 0v9.07a.883.883 0 0 1-.883.883h-8.491a.883.883 0 0 1-.883-.882v-9.07c0-.487.396-.883.883-.883h8.491c.487 0 .883.396.883.882zm16.144 9.07a.883.883 0 0 1-.882.883h-8.492a.883.883 0 0 1-.882-.882v-9.07c0-.487.395-.883.882-.883h8.492c.486 0 .882.396.882.882v9.07z"/>
    </mask>
    <path d="M44.39 33.953h-3.715v-.99a2.65 2.65 0 0 0-2.648-2.647H24.53v-4.177h11.356a2.63 2.63 0 0 0 2.603-2.647V7.602c0-1.19-.97-2.16-2.16-2.16h-.114v-.699a2.65 2.65 0 0 0-2.647-2.647h-11.82l-.004-.006a2.17 2.17 0 0 0-1.82-.996h-8.252c-1.191 0-2.16.97-2.16 2.16v20.238a2.65 2.65 0 0 0 2.647 2.647H23.47v4.177H9.935a2.65 2.65 0 0 0-2.608 2.647v.99H3.61c-1.07 0-1.941.871-1.941 1.941v9.07c0 1.071.87 1.942 1.941 1.942h8.492c1.07 0 1.94-.87 1.94-1.941v-9.07c0-1.071-.87-1.942-1.94-1.942H8.386v-.99a1.59 1.59 0 0 1 1.588-1.588H23.47v2.578h-3.716c-1.07 0-1.941.871-1.941 1.941v9.07c0 1.071.87 1.942 1.94 1.942h8.492c1.07 0 1.942-.87 1.942-1.941v-9.07c0-1.071-.871-1.942-1.942-1.942H24.53v-2.578h13.497a1.59 1.59 0 0 1 1.589 1.588v.99h-3.717c-1.07 0-1.941.871-1.941 1.941v9.07c0 1.071.87 1.942 1.941 1.942h8.492c1.07 0 1.94-.87 1.94-1.941v-9.07c0-1.071-.87-1.942-1.94-1.942zM33.569 3.155a1.59 1.59 0 0 1 1.589 1.588v.7H23.87L22.42 3.154h11.148zM10.571 23.492V3.254c0-.607.494-1.101 1.1-1.101h8.253c.374 0 .722.192.928.508l2.281 3.595a.53.53 0 0 0 .447.245h12.748c.608 0 1.102.494 1.102 1.101v15.89c0 .874-.687 1.572-1.553 1.588H12.159a1.59 1.59 0 0 1-1.588-1.588zm2.413 12.402v9.07a.883.883 0 0 1-.882.883H3.61a.883.883 0 0 1-.882-.882v-9.07c0-.487.395-.883.882-.883h8.492c.486 0 .882.396.882.882zm16.145 0v9.07a.883.883 0 0 1-.883.883h-8.491a.883.883 0 0 1-.883-.882v-9.07c0-.487.396-.883.883-.883h8.491c.487 0 .883.396.883.882zm16.144 9.07a.883.883 0 0 1-.882.883h-8.492a.883.883 0 0 1-.882-.882v-9.07c0-.487.395-.883.882-.883h8.492c.486 0 .882.396.882.882v9.07z" fill="#004498"/>
    <path d="M44.39 33.953h-3.715v-.99a2.65 2.65 0 0 0-2.648-2.647H24.53v-4.177h11.356a2.63 2.63 0 0 0 2.603-2.647V7.602c0-1.19-.97-2.16-2.16-2.16h-.114v-.699a2.65 2.65 0 0 0-2.647-2.647h-11.82l-.004-.006a2.17 2.17 0 0 0-1.82-.996h-8.252c-1.191 0-2.16.97-2.16 2.16v20.238a2.65 2.65 0 0 0 2.647 2.647H23.47v4.177H9.935a2.65 2.65 0 0 0-2.608 2.647v.99H3.61c-1.07 0-1.941.871-1.941 1.941v9.07c0 1.071.87 1.942 1.941 1.942h8.492c1.07 0 1.94-.87 1.94-1.941v-9.07c0-1.071-.87-1.942-1.94-1.942H8.386v-.99a1.59 1.59 0 0 1 1.588-1.588H23.47v2.578h-3.716c-1.07 0-1.941.871-1.941 1.941v9.07c0 1.071.87 1.942 1.94 1.942h8.492c1.07 0 1.942-.87 1.942-1.941v-9.07c0-1.071-.871-1.942-1.942-1.942H24.53v-2.578h13.497a1.59 1.59 0 0 1 1.589 1.588v.99h-3.717c-1.07 0-1.941.871-1.941 1.941v9.07c0 1.071.87 1.942 1.941 1.942h8.492c1.07 0 1.94-.87 1.94-1.941v-9.07c0-1.071-.87-1.942-1.94-1.942zM33.569 3.155a1.59 1.59 0 0 1 1.589 1.588v.7H23.87L22.42 3.154h11.148zM10.571 23.492V3.254c0-.607.494-1.101 1.1-1.101h8.253c.374 0 .722.192.928.508l2.281 3.595a.53.53 0 0 0 .447.245h12.748c.608 0 1.102.494 1.102 1.101v15.89c0 .874-.687 1.572-1.553 1.588H12.159a1.59 1.59 0 0 1-1.588-1.588zm2.413 12.402v9.07a.883.883 0 0 1-.882.883H3.61a.883.883 0 0 1-.882-.882v-9.07c0-.487.395-.883.882-.883h8.492c.486 0 .882.396.882.882zm16.145 0v9.07a.883.883 0 0 1-.883.883h-8.491a.883.883 0 0 1-.883-.882v-9.07c0-.487.396-.883.883-.883h8.491c.487 0 .883.396.883.882zm16.144 9.07a.883.883 0 0 1-.882.883h-8.492a.883.883 0 0 1-.882-.882v-9.07c0-.487.395-.883.882-.883h8.492c.486 0 .882.396.882.882v9.07z" stroke="#004498" stroke-width=".8" mask="url(#tzws2pykfa)"/>
    <path d="M33.686 18.55H26.54a.53.53 0 0 0 0 1.06h7.147a.53.53 0 0 0 0-1.06zm0 2.824H26.54a.53.53 0 0 0 0 1.06h7.147a.53.53 0 0 0 0-1.06z" fill="#004498"/>
    <path d="M10.69 44.082H5.022a.53.53 0 1 1 0-1.058h5.668a.53.53 0 0 1 0 1.058zm0-6.247H5.022a.53.53 0 1 1 0-1.059h5.668a.53.53 0 1 1 0 1.06zm0 3.124H5.022a.53.53 0 0 1 0-1.059h5.668a.53.53 0 1 1 0 1.059zm16.144 3.123h-5.668a.53.53 0 1 1 0-1.058h5.668a.53.53 0 0 1 0 1.058zm0-6.247h-5.668a.53.53 0 1 1 0-1.059h5.668a.53.53 0 1 1 0 1.06zm0 3.124h-5.668a.53.53 0 0 1 0-1.059h5.668a.53.53 0 1 1 0 1.059zm16.145 3.123h-5.668a.53.53 0 1 1 0-1.058h5.668a.53.53 0 0 1 0 1.058zm0-6.247h-5.668a.53.53 0 1 1 0-1.059h5.668a.53.53 0 1 1 0 1.06zm0 3.124h-5.668a.53.53 0 0 1 0-1.059h5.668a.53.53 0 1 1 0 1.059z" fill="#fff"/>
</svg>
