<svg width="56" height="56" viewBox="0 0 56 56" fill="none" xmlns="http://www.w3.org/2000/svg">
    <path d="M33.201 50.75a.875.875 0 0 0-.875-.875h-8.7a.875.875 0 0 0-.876.875 4.38 4.38 0 0 0 4.375 4.375h1.701a4.38 4.38 0 0 0 4.375-4.375zm-4.375 2.625h-1.7a2.63 2.63 0 0 1-2.476-1.75h6.65a2.63 2.63 0 0 1-2.474 1.75zM28 42.875a.876.876 0 0 1-.875-.875h-1.75c0 1.14.734 2.102 1.75 2.464V45.5h1.75v-1.036A2.622 2.622 0 0 0 30.625 42 2.628 2.628 0 0 0 28 39.375a.876.876 0 0 1-.875-.875c0-.482.393-.875.875-.875s.875.393.875.875h1.75a2.622 2.622 0 0 0-1.75-2.464V35h-1.75v1.036a2.621 2.621 0 0 0-1.75 2.464A2.628 2.628 0 0 0 28 41.125c.482 0 .875.393.875.875a.876.876 0 0 1-.875.875zM14.898 25.011l.081.94c.227 2.621 2.53 4.674 5.244 4.674h.507c1.4 0 2.717-.527 3.71-1.482l1.064-1.026A3.629 3.629 0 0 1 28 27.125c.931 0 1.841.362 2.496.992l1.065 1.026a5.317 5.317 0 0 0 3.71 1.482h.506c2.714 0 5.017-2.053 5.245-4.673l.081-.94c.146-1.687-.413-3.313-1.572-4.577a6.431 6.431 0 0 0-4.734-2.06H21.203a6.43 6.43 0 0 0-4.733 2.059c-1.16 1.265-1.718 2.89-1.572 4.577zm1.743-.15a4.216 4.216 0 0 1 1.119-3.244 4.675 4.675 0 0 1 3.443-1.492h13.594c1.319 0 2.574.544 3.443 1.492a4.215 4.215 0 0 1 1.12 3.243l-.082.94c-.15 1.725-1.687 3.075-3.5 3.075h-.508a3.628 3.628 0 0 1-2.496-.992l-1.065-1.026A5.317 5.317 0 0 0 28 25.375a5.32 5.32 0 0 0-3.71 1.482l-1.064 1.026a3.629 3.629 0 0 1-2.496.992h-.507c-1.814 0-3.352-1.35-3.5-3.074l-.082-.94z" fill="#F9AFB2"/>
    <path d="M20.125 27.125h1.75v-1.75h1.75v-1.75h-1.75v-1.75h-1.75v1.75h-1.75v1.75h1.75v1.75zM35 23.625a.875.875 0 1 0 0-1.75.875.875 0 0 0 0 1.75zM33.25 26.25a.875.875 0 1 0 0-1.75.875.875 0 0 0 0 1.75zM36.75 26.25a.875.875 0 1 0 0-1.75.875.875 0 0 0 0 1.75z" fill="#F9AFB2"/>
    <path d="M13.125 32.375c0 4.626 2.391 8.966 6.398 11.61 1.473.973 2.352 2.52 2.352 4.14a.875.875 0 0 0 .875.875h10.5a.875.875 0 0 0 .875-.875c0-1.62.88-3.167 2.352-4.14 4.007-2.644 6.398-6.984 6.398-11.61A.875.875 0 0 0 42 31.5H14a.875.875 0 0 0-.875.875zm27.967.875c-.28 3.705-2.32 7.124-5.578 9.275-1.704 1.124-2.813 2.847-3.078 4.725h-8.872c-.265-1.878-1.374-3.602-3.078-4.725-3.258-2.15-5.299-5.57-5.578-9.275h26.184zm1.557-2.928 1.724.303a16.64 16.64 0 0 0 .22-1.864l-.871-.096-.877.002c-.034.555-.1 1.107-.196 1.655zm-31.056.114 1.727-.283a14.97 14.97 0 0 1-.177-1.658l-1.747.089c.03.62.097 1.243.197 1.852zm32.81-5.435-1.727.286c.09.547.15 1.104.18 1.657l1.747-.091a16.89 16.89 0 0 0-.2-1.852zM11.41 26.666l-.004.068 1.749.066a15.15 15.15 0 0 1 .191-1.63l-1.724-.299a16.763 16.763 0 0 0-.212 1.796zm30.356-4.58c.21.514.394 1.044.546 1.575l1.683-.479a16.446 16.446 0 0 0-.61-1.761l-1.62.666zm-29.722.97 1.68.491c.155-.533.342-1.061.557-1.571l-1.614-.677a16.4 16.4 0 0 0-.623 1.756zm29.002-2.473 1.534-.842a16.693 16.693 0 0 0-.987-1.581l-1.43 1.009c.32.453.616.929.883 1.414zm-26.035-.106c.272-.485.573-.958.896-1.407l-1.421-1.021a16.74 16.74 0 0 0-1.001 1.572l1.527.856zM40.436 16.7a17.02 17.02 0 0 0-1.311-1.323l-1.173 1.3c.412.371.808.77 1.175 1.184l1.31-1.16zm-22.298-.103-1.159-1.312c-.462.409-.908.85-1.324 1.312l1.299 1.172c.372-.413.77-.807 1.184-1.172zm19.535-2.388a16.544 16.544 0 0 0-1.574-1l-.854 1.528c.486.27.959.571 1.407.893l1.021-1.421zm-16.811.47-.841-1.534c-.542.297-1.074.628-1.581.985l1.007 1.432c.455-.32.927-.615 1.415-.882zm13.56-2.286a16.515 16.515 0 0 0-1.758-.62l-.49 1.68c.534.155 1.06.34 1.572.555l.676-1.615zm-10.48 1.023-.479-1.683c-.598.17-1.19.375-1.762.609l.665 1.62c.515-.211 1.04-.393 1.576-.546zm5.056-2.278-.065 1.749c.541.034 1.085.098 1.617.19l.298-1.725a16.56 16.56 0 0 0-1.807-.212l-.043-.002zm-1.773 1.738-.09-1.747c-.62.031-1.244.099-1.853.199l.285 1.727c.549-.09 1.102-.15 1.658-.179zm-.1-6.913V10.5h1.75V5.964a2.621 2.621 0 0 0 1.75-2.464A2.628 2.628 0 0 0 28 .875 2.628 2.628 0 0 0 25.375 3.5c0 1.14.734 2.102 1.75 2.464zM28 2.625c.482 0 .875.393.875.875a.876.876 0 0 1-.875.875.876.876 0 0 1-.875-.875c0-.482.393-.875.875-.875zM49 19.25c0 1.14.734 2.102 1.75 2.464v5.411h-4.375v1.75h5.25A.875.875 0 0 0 52.5 28v-6.286a2.622 2.622 0 0 0 1.75-2.464 2.628 2.628 0 0 0-2.625-2.625A2.628 2.628 0 0 0 49 19.25zm2.625-.875c.482 0 .875.393.875.875a.876.876 0 0 1-.875.875.876.876 0 0 1-.875-.875c0-.482.393-.875.875-.875zm-7-6.46 3.016-1.508a.873.873 0 0 0 .484-.782V7.714a2.621 2.621 0 0 0 1.75-2.464 2.628 2.628 0 0 0-2.625-2.625 2.628 2.628 0 0 0-2.625 2.625c0 1.14.734 2.102 1.75 2.464v1.37l-3.016 1.509a.873.873 0 0 0-.484.782v4.375h1.75v-3.834zm2.625-7.54c.482 0 .875.393.875.875a.876.876 0 0 1-.875.875.876.876 0 0 1-.875-.875c0-.482.393-.875.875-.875zm1.911 39.375a2.622 2.622 0 0 0 2.464 1.75 2.628 2.628 0 0 0 2.625-2.625 2.628 2.628 0 0 0-2.625-2.625A2.622 2.622 0 0 0 49.161 42h-1.036v-8.75a.875.875 0 0 0-.875-.875h-2.625v1.75h1.75v8.75a.875.875 0 0 0 .875.875h1.911zM51.625 42c.482 0 .875.393.875.875a.876.876 0 0 1-.875.875.876.876 0 0 1-.875-.875c0-.482.393-.875.875-.875zM8.75 7.714v1.911c0 .332.187.634.484.783l3.016 1.508v3.834H14v-4.375a.876.876 0 0 0-.484-.783L10.5 9.084v-1.37a2.621 2.621 0 0 0 1.75-2.464 2.628 2.628 0 0 0-2.625-2.625A2.628 2.628 0 0 0 7 5.25c0 1.14.734 2.102 1.75 2.464zm.875-3.339c.482 0 .875.393.875.875a.876.876 0 0 1-.875.875.876.876 0 0 1-.875-.875c0-.482.393-.875.875-.875zM4.375 45.5a2.621 2.621 0 0 0 2.464-1.75H8.75a.875.875 0 0 0 .875-.875v-8.75h1.75v-1.75H8.75a.875.875 0 0 0-.875.875V42H6.839a2.621 2.621 0 0 0-2.464-1.75 2.628 2.628 0 0 0-2.625 2.625A2.628 2.628 0 0 0 4.375 45.5zm0-3.5c.482 0 .875.393.875.875a.876.876 0 0 1-.875.875.876.876 0 0 1-.875-.875c0-.482.393-.875.875-.875zM3.5 21.714V28a.875.875 0 0 0 .875.875h5.25v-1.75H5.25v-5.411A2.622 2.622 0 0 0 7 19.25a2.628 2.628 0 0 0-2.625-2.625A2.628 2.628 0 0 0 1.75 19.25c0 1.14.734 2.102 1.75 2.464zm.875-3.339c.482 0 .875.393.875.875a.876.876 0 0 1-.875.875.876.876 0 0 1-.875-.875c0-.482.393-.875.875-.875z" fill="#004498"/>
</svg>
