<svg width="56" height="56" viewBox="0 0 56 56" fill="none" xmlns="http://www.w3.org/2000/svg">
<path opacity="0.3" d="M53.1562 28C53.1562 24.4541 47.0936 21.4014 38.3764 20.0266C36.9272 10.0417 32.8289 2.84375 28 2.84375C41.8939 2.84375 53.1562 14.1061 53.1562 28ZM38.3764 35.9734C47.0936 34.5986 53.1562 31.5459 53.1562 28C53.1562 41.8939 41.8939 53.1562 28 53.1562C32.8289 53.1562 36.9272 45.9583 38.3764 35.9734Z" fill="#FF0000"/>
<path d="M29.0938 26.9062H26.9062V29.0938H29.0938V26.9062Z" fill="#B30000"/>
<path d="M29.0938 26.9062H26.9062V29.0938H29.0938V26.9062Z" stroke="#B30000"/>
<path d="M28 54.25C27.3959 54.25 26.9062 53.7602 26.9062 53.1562C26.9062 52.5523 27.3959 52.0625 28 52.0625C41.2682 52.0625 52.0625 41.2682 52.0625 28C52.0625 14.7318 41.2682 3.9375 28 3.9375C27.3959 3.9375 26.9062 3.44783 26.9062 2.84375C26.9062 2.23967 27.3959 1.75 28 1.75C35.0118 1.75 41.604 4.48044 46.5617 9.4383C51.5196 14.3962 54.25 20.9882 54.25 28C54.25 35.0118 51.5196 41.604 46.5617 46.5617C41.604 51.5196 35.0118 54.25 28 54.25Z" fill="#B30000"/>
<path d="M28 54.25C27.3959 54.25 26.9062 53.7602 26.9062 53.1562C26.9062 52.5523 27.3959 52.0625 28 52.0625C41.2682 52.0625 52.0625 41.2682 52.0625 28C52.0625 14.7318 41.2682 3.9375 28 3.9375C27.3959 3.9375 26.9062 3.44783 26.9062 2.84375C26.9062 2.23967 27.3959 1.75 28 1.75C35.0118 1.75 41.604 4.48044 46.5617 9.4383C51.5196 14.3962 54.25 20.9882 54.25 28C54.25 35.0118 51.5196 41.604 46.5617 46.5617C41.604 51.5196 35.0118 54.25 28 54.25Z" stroke="#B30000"/>
<path d="M28 37.8438C27.3959 37.8438 26.9062 37.354 26.9062 36.75C26.9062 36.146 27.3959 35.6562 28 35.6562C31.5603 35.6562 34.9941 35.3994 38.2061 34.893C46.3645 33.6063 52.0625 30.7718 52.0625 28C52.0625 25.2282 46.3645 22.3937 38.206 21.107C34.9942 20.6006 31.5605 20.3438 28 20.3438C27.3959 20.3438 26.9062 19.8541 26.9062 19.25C26.9062 18.6459 27.3959 18.1562 28 18.1562C31.6741 18.1562 35.2226 18.422 38.5468 18.9462C43.0099 19.6501 46.8135 20.7864 49.5468 22.2323C53.4341 24.2888 54.25 26.5039 54.25 28C54.25 29.4961 53.4341 31.7112 49.5468 33.7677C46.8136 35.2136 43.0098 36.3499 38.5468 37.0538C35.2225 37.578 31.674 37.8438 28 37.8438Z" fill="#B30000"/>
<path d="M28 37.8438C27.3959 37.8438 26.9062 37.354 26.9062 36.75C26.9062 36.146 27.3959 35.6562 28 35.6562C31.5603 35.6562 34.9941 35.3994 38.2061 34.893C46.3645 33.6063 52.0625 30.7718 52.0625 28C52.0625 25.2282 46.3645 22.3937 38.206 21.107C34.9942 20.6006 31.5605 20.3438 28 20.3438C27.3959 20.3438 26.9062 19.8541 26.9062 19.25C26.9062 18.6459 27.3959 18.1562 28 18.1562C31.6741 18.1562 35.2226 18.422 38.5468 18.9462C43.0099 19.6501 46.8135 20.7864 49.5468 22.2323C53.4341 24.2888 54.25 26.5039 54.25 28C54.25 29.4961 53.4341 31.7112 49.5468 33.7677C46.8136 35.2136 43.0098 36.3499 38.5468 37.0538C35.2225 37.578 31.674 37.8438 28 37.8438Z" stroke="#B30000"/>
<path d="M28 54.25C27.3959 54.25 26.9062 53.7602 26.9062 53.1562C26.9062 52.5523 27.3959 52.0625 28 52.0625C32.0838 52.0625 35.9056 45.3819 37.294 35.8164C37.6589 33.3068 37.8438 30.677 37.8438 28C37.8438 25.323 37.6589 22.6932 37.294 20.184C35.9056 10.6182 32.0838 3.9375 28 3.9375C27.3959 3.9375 26.9062 3.44783 26.9062 2.84375C26.9062 2.23967 27.3959 1.75 28 1.75C30.748 1.75 33.3056 3.61123 35.396 7.13245C37.3132 10.3616 38.7181 14.7661 39.4589 19.8694C39.8386 22.4825 40.0312 25.218 40.0312 28C40.0312 30.782 39.8386 33.5174 39.4588 36.1308C38.7181 41.234 37.3133 45.6384 35.396 48.8675C33.3056 52.3888 30.748 54.25 28 54.25Z" fill="#B30000"/>
<path d="M28 54.25C27.3959 54.25 26.9062 53.7602 26.9062 53.1562C26.9062 52.5523 27.3959 52.0625 28 52.0625C32.0838 52.0625 35.9056 45.3819 37.294 35.8164C37.6589 33.3068 37.8438 30.677 37.8438 28C37.8438 25.323 37.6589 22.6932 37.294 20.184C35.9056 10.6182 32.0838 3.9375 28 3.9375C27.3959 3.9375 26.9062 3.44783 26.9062 2.84375C26.9062 2.23967 27.3959 1.75 28 1.75C30.748 1.75 33.3056 3.61123 35.396 7.13245C37.3132 10.3616 38.7181 14.7661 39.4589 19.8694C39.8386 22.4825 40.0312 25.218 40.0312 28C40.0312 30.782 39.8386 33.5174 39.4588 36.1308C38.7181 41.234 37.3133 45.6384 35.396 48.8675C33.3056 52.3888 30.748 54.25 28 54.25Z" stroke="#B30000"/>
<path d="M53.1562 29.0938H31.2812C30.6772 29.0938 30.1875 28.604 30.1875 28C30.1875 27.396 30.6772 26.9063 31.2812 26.9063H53.1562C53.7602 26.9063 54.25 27.396 54.25 28C54.25 28.604 53.7602 29.0938 53.1562 29.0938ZM28 25.8125C27.3959 25.8125 26.9062 25.3229 26.9062 24.7188V2.8438C26.9062 2.23972 27.3959 1.75005 28 1.75005C28.604 1.75005 29.0938 2.23972 29.0938 2.8438V24.7188C29.0938 25.3229 28.604 25.8125 28 25.8125ZM28 54.25C27.3959 54.25 26.9062 53.7603 26.9062 53.1563V33.4688C26.9062 32.8648 27.3959 32.375 28 32.375C28.604 32.375 29.0938 32.8648 29.0938 33.4688V53.1563C29.0938 53.7603 28.604 54.25 28 54.25ZM23.6238 54.2502C23.061 54.2502 22.5827 53.8183 22.5351 53.2472L22.2466 49.7896C22.2118 49.3716 21.919 49.0219 21.5183 48.8977C20.2375 48.5009 18.997 47.9864 17.8079 47.3589C17.4368 47.163 16.9823 47.2033 16.6619 47.4744L14.012 49.7168C13.5777 50.0841 12.9345 50.0575 12.5321 49.6552L6.34473 43.4679C5.94245 43.0656 5.91577 42.4222 6.28327 41.9879L8.52566 39.3382C8.79678 39.0178 8.837 38.5633 8.64113 38.1921C8.01372 37.0032 7.4992 35.7626 7.10232 34.4818C6.97816 34.0812 6.62848 33.7884 6.21045 33.7535L2.75286 33.4651C2.18597 33.4177 1.75 32.9438 1.75 32.375V23.625C1.75 23.0562 2.18597 22.5824 2.75286 22.5351L6.21052 22.2467C6.62857 22.2118 6.97825 21.919 7.10241 21.5183C7.49925 20.2376 8.01383 18.997 8.64126 17.808C8.83713 17.4368 8.7969 16.9823 8.52578 16.662L6.28327 14.0121C5.91577 13.5779 5.94245 12.9343 6.34473 12.5321L12.5321 6.34478C12.9345 5.94261 13.5778 5.91593 14.012 6.28332L16.6619 8.52572C16.9822 8.79683 17.4368 8.83705 17.808 8.64116C18.9969 8.01369 20.2375 7.49917 21.5183 7.10235C21.919 6.9782 22.2118 6.62851 22.2466 6.21046L22.5351 2.7528C22.5853 2.15091 23.1131 1.70411 23.716 1.75377C24.318 1.80397 24.7652 2.33269 24.715 2.93469L24.3038 7.86422C24.2644 8.33607 23.9258 8.72916 23.4649 8.83777C21.4137 9.32153 19.4601 10.1316 17.6585 11.2454C17.2555 11.4945 16.7382 11.456 16.3767 11.1501L14.0696 9.1976C13.6726 8.86161 13.0843 8.88606 12.7165 9.25384L9.25379 12.7165C8.88601 13.0843 8.86156 13.6726 9.19755 14.0696L11.15 16.3768C11.4559 16.7384 11.4944 17.2557 11.2454 17.6585C10.1315 19.4602 9.32148 21.4137 8.83772 23.4649C8.729 23.9258 8.33602 24.2645 7.86417 24.3038L4.85436 24.5549C4.33611 24.5982 3.9375 25.0314 3.9375 25.5515V30.4487C3.9375 30.9688 4.33613 31.402 4.85439 31.4453L7.86417 31.6963C8.33602 31.7356 8.72911 32.0743 8.83772 32.5353C9.32148 34.5866 10.1315 36.5401 11.2454 38.3416C11.4944 38.7444 11.4559 39.2617 11.15 39.6233L9.19755 41.9305C8.86156 42.3275 8.88601 42.9158 9.25379 43.2836L12.7165 46.7463C13.0843 47.114 13.6726 47.1385 14.0696 46.8025L16.3767 44.8501C16.7382 44.5443 17.2555 44.5058 17.6585 44.7548C19.4602 45.8688 21.4138 46.6788 23.4649 47.1623C23.9258 47.271 24.2644 47.664 24.3038 48.136L24.715 53.0655C24.7652 53.6675 24.318 54.1961 23.716 54.2464C23.685 54.2488 23.6543 54.2502 23.6238 54.2502Z" fill="#B30000"/>
<path d="M53.1562 29.0938H31.2812C30.6772 29.0938 30.1875 28.604 30.1875 28C30.1875 27.396 30.6772 26.9063 31.2812 26.9063H53.1562C53.7602 26.9063 54.25 27.396 54.25 28C54.25 28.604 53.7602 29.0938 53.1562 29.0938ZM28 25.8125C27.3959 25.8125 26.9062 25.3229 26.9062 24.7188V2.8438C26.9062 2.23972 27.3959 1.75005 28 1.75005C28.604 1.75005 29.0938 2.23972 29.0938 2.8438V24.7188C29.0938 25.3229 28.604 25.8125 28 25.8125ZM28 54.25C27.3959 54.25 26.9062 53.7603 26.9062 53.1563V33.4688C26.9062 32.8648 27.3959 32.375 28 32.375C28.604 32.375 29.0938 32.8648 29.0938 33.4688V53.1563C29.0938 53.7603 28.604 54.25 28 54.25ZM23.6238 54.2502C23.061 54.2502 22.5827 53.8183 22.5351 53.2472L22.2466 49.7896C22.2118 49.3716 21.919 49.0219 21.5183 48.8977C20.2375 48.5009 18.997 47.9864 17.8079 47.3589C17.4368 47.163 16.9823 47.2033 16.6619 47.4744L14.012 49.7168C13.5777 50.0841 12.9345 50.0575 12.5321 49.6552L6.34473 43.4679C5.94245 43.0656 5.91577 42.4222 6.28327 41.9879L8.52566 39.3382C8.79678 39.0178 8.837 38.5633 8.64113 38.1921C8.01372 37.0032 7.4992 35.7626 7.10232 34.4818C6.97816 34.0812 6.62848 33.7884 6.21045 33.7535L2.75286 33.4651C2.18597 33.4177 1.75 32.9438 1.75 32.375V23.625C1.75 23.0562 2.18597 22.5824 2.75286 22.5351L6.21052 22.2467C6.62857 22.2118 6.97825 21.919 7.10241 21.5183C7.49925 20.2376 8.01383 18.997 8.64126 17.808C8.83713 17.4368 8.7969 16.9823 8.52578 16.662L6.28327 14.0121C5.91577 13.5779 5.94245 12.9343 6.34473 12.5321L12.5321 6.34478C12.9345 5.94261 13.5778 5.91593 14.012 6.28332L16.6619 8.52572C16.9822 8.79683 17.4368 8.83705 17.808 8.64116C18.9969 8.01369 20.2375 7.49917 21.5183 7.10235C21.919 6.9782 22.2118 6.62851 22.2466 6.21046L22.5351 2.7528C22.5853 2.15091 23.1131 1.70411 23.716 1.75377C24.318 1.80397 24.7652 2.33269 24.715 2.93469L24.3038 7.86422C24.2644 8.33607 23.9258 8.72916 23.4649 8.83777C21.4137 9.32153 19.4601 10.1316 17.6585 11.2454C17.2555 11.4945 16.7382 11.456 16.3767 11.1501L14.0696 9.1976C13.6726 8.86161 13.0843 8.88606 12.7165 9.25384L9.25379 12.7165C8.88601 13.0843 8.86156 13.6726 9.19755 14.0696L11.15 16.3768C11.4559 16.7384 11.4944 17.2557 11.2454 17.6585C10.1315 19.4602 9.32148 21.4137 8.83772 23.4649C8.729 23.9258 8.33602 24.2645 7.86417 24.3038L4.85436 24.5549C4.33611 24.5982 3.9375 25.0314 3.9375 25.5515V30.4487C3.9375 30.9688 4.33613 31.402 4.85439 31.4453L7.86417 31.6963C8.33602 31.7356 8.72911 32.0743 8.83772 32.5353C9.32148 34.5866 10.1315 36.5401 11.2454 38.3416C11.4944 38.7444 11.4559 39.2617 11.15 39.6233L9.19755 41.9305C8.86156 42.3275 8.88601 42.9158 9.25379 43.2836L12.7165 46.7463C13.0843 47.114 13.6726 47.1385 14.0696 46.8025L16.3767 44.8501C16.7382 44.5443 17.2555 44.5058 17.6585 44.7548C19.4602 45.8688 21.4138 46.6788 23.4649 47.1623C23.9258 47.271 24.2644 47.664 24.3038 48.136L24.715 53.0655C24.7652 53.6675 24.318 54.1961 23.716 54.2464C23.685 54.2488 23.6543 54.2502 23.6238 54.2502Z" stroke="#B30000"/>
<path d="M23.625 40.0312C16.991 40.0312 11.5938 34.634 11.5938 28C11.5938 21.366 16.991 15.9688 23.625 15.9688C24.2291 15.9688 24.7188 16.4584 24.7188 17.0625C24.7188 17.6666 24.2291 18.1562 23.625 18.1562C18.1972 18.1562 13.7812 22.5722 13.7812 28C13.7812 33.4278 18.1972 37.8438 23.625 37.8438C24.2291 37.8438 24.7188 38.3335 24.7188 38.9375C24.7188 39.5415 24.2291 40.0312 23.625 40.0312Z" fill="#B30000"/>
<path d="M23.625 40.0312C16.991 40.0312 11.5938 34.634 11.5938 28C11.5938 21.366 16.991 15.9688 23.625 15.9688C24.2291 15.9688 24.7188 16.4584 24.7188 17.0625C24.7188 17.6666 24.2291 18.1562 23.625 18.1562C18.1972 18.1562 13.7812 22.5722 13.7812 28C13.7812 33.4278 18.1972 37.8438 23.625 37.8438C24.2291 37.8438 24.7188 38.3335 24.7188 38.9375C24.7188 39.5415 24.2291 40.0312 23.625 40.0312Z" stroke="#B30000"/>
</svg>
