<svg width="48" height="48" viewBox="0 0 48 48" fill="none" xmlns="http://www.w3.org/2000/svg">
    <path opacity=".3" d="M45.563 24c0-3.04-5.197-5.656-12.669-6.834C31.652 8.607 28.14 2.437 24 2.437c11.91 0 21.563 9.654 21.563 21.563zm-12.669 6.834C40.366 29.656 45.563 27.04 45.563 24c0 11.91-9.654 21.563-21.563 21.563 4.14 0 7.652-6.17 8.894-14.729z" fill="red"/>
    <path d="M24.938 23.063h-1.875v1.875h1.875v-1.875z" fill="#004498"/>
    <path d="M24.938 23.063h-1.875v1.875h1.875v-1.875z" stroke="#004498"/>
    <path d="M24 46.5a.938.938 0 0 1 0-1.875c11.373 0 20.625-9.252 20.625-20.625S35.373 3.375 24 3.375A.937.937 0 1 1 24 1.5c6.01 0 11.66 2.34 15.91 6.59S46.5 17.99 46.5 24s-2.34 11.66-6.59 15.91S30.01 46.5 24 46.5z" fill="#004498"/>
    <path d="M24 46.5a.938.938 0 0 1 0-1.875c11.373 0 20.625-9.252 20.625-20.625S35.373 3.375 24 3.375A.937.937 0 1 1 24 1.5c6.01 0 11.66 2.34 15.91 6.59S46.5 17.99 46.5 24s-2.34 11.66-6.59 15.91S30.01 46.5 24 46.5z" stroke="#004498"/>
    <path d="M24 32.438a.938.938 0 0 1 0-1.876c3.052 0 5.995-.22 8.748-.654 6.993-1.103 11.877-3.532 11.877-5.908 0-2.376-4.884-4.805-11.877-5.908-2.753-.434-5.696-.654-8.748-.654a.937.937 0 1 1 0-1.875c3.15 0 6.19.227 9.04.677 3.826.603 7.086 1.577 9.429 2.816C45.8 20.82 46.5 22.718 46.5 24s-.7 3.181-4.031 4.944c-2.343 1.24-5.604 2.213-9.429 2.816-2.85.45-5.89.677-9.04.677z" fill="#004498"/>
    <path d="M24 32.438a.938.938 0 0 1 0-1.876c3.052 0 5.995-.22 8.748-.654 6.993-1.103 11.877-3.532 11.877-5.908 0-2.376-4.884-4.805-11.877-5.908-2.753-.434-5.696-.654-8.748-.654a.937.937 0 1 1 0-1.875c3.15 0 6.19.227 9.04.677 3.826.603 7.086 1.577 9.429 2.816C45.8 20.82 46.5 22.718 46.5 24s-.7 3.181-4.031 4.944c-2.343 1.24-5.604 2.213-9.429 2.816-2.85.45-5.89.677-9.04.677z" stroke="#004498"/>
    <path d="M24 46.5a.938.938 0 0 1 0-1.875c3.5 0 6.776-5.726 7.966-13.925.313-2.151.471-4.405.471-6.7 0-2.294-.158-4.549-.47-6.7C30.776 9.101 27.5 3.375 24 3.375A.937.937 0 1 1 24 1.5c2.355 0 4.548 1.595 6.34 4.614 1.643 2.767 2.847 6.543 3.482 10.917.325 2.24.49 4.585.49 6.969 0 2.384-.165 4.73-.49 6.97-.635 4.373-1.84 8.149-3.483 10.916C28.549 44.905 26.357 46.5 24 46.5z" fill="#004498"/>
    <path d="M24 46.5a.938.938 0 0 1 0-1.875c3.5 0 6.776-5.726 7.966-13.925.313-2.151.471-4.405.471-6.7 0-2.294-.158-4.549-.47-6.7C30.776 9.101 27.5 3.375 24 3.375A.937.937 0 1 1 24 1.5c2.355 0 4.548 1.595 6.34 4.614 1.643 2.767 2.847 6.543 3.482 10.917.325 2.24.49 4.585.49 6.969 0 2.384-.165 4.73-.49 6.97-.635 4.373-1.84 8.149-3.483 10.916C28.549 44.905 26.357 46.5 24 46.5z" stroke="#004498"/>
    <path d="M45.563 24.938h-18.75a.938.938 0 0 1 0-1.875h18.75a.938.938 0 0 1 0 1.875zM24 22.125a.937.937 0 0 1-.938-.938V2.438a.937.937 0 1 1 1.875 0v18.75c0 .518-.42.938-.937.938zM24 46.5a.938.938 0 0 1-.938-.938V28.689a.938.938 0 0 1 1.875 0v16.875c0 .517-.42.937-.937.937zm-3.751 0a.938.938 0 0 1-.933-.86l-.24-2.864a1.035 1.035 0 0 0-.727-.893 18.612 18.612 0 0 1-2.997-1.243 1.035 1.035 0 0 0-1.147.117l-2.195 1.857a.938.938 0 0 1-1.268-.052l-5.304-5.304a.938.938 0 0 1-.052-1.268l1.857-2.195c.271-.32.311-.775.117-1.147a18.62 18.62 0 0 1-1.243-2.997 1.035 1.035 0 0 0-.893-.728l-2.864-.239a.938.938 0 0 1-.86-.934v-7.5c0-.488.374-.894.86-.934l2.864-.24c.418-.034.767-.327.894-.727a18.613 18.613 0 0 1 1.242-2.997 1.035 1.035 0 0 0-.117-1.146L5.386 12.01a.938.938 0 0 1 .052-1.268l5.304-5.304a.938.938 0 0 1 1.268-.052l2.195 1.857c.32.271.775.311 1.147.117a18.612 18.612 0 0 1 2.997-1.242c.4-.127.693-.476.728-.894l.239-2.864a.937.937 0 1 1 1.868.155l-.352 4.226a.937.937 0 0 1-.72.834 16.77 16.77 0 0 0-4.976 2.064.937.937 0 0 1-1.099-.082L12.16 7.97a1 1 0 0 0-1.353.056l-2.782 2.782a1 1 0 0 0-.056 1.353l1.588 1.877c.262.31.295.754.082 1.099a16.767 16.767 0 0 0-2.064 4.977.938.938 0 0 1-.834.719l-2.45.204a1 1 0 0 0-.916.997v3.934a1 1 0 0 0 .917.997l2.449.204a.937.937 0 0 1 .834.72 16.765 16.765 0 0 0 2.064 4.976.938.938 0 0 1-.082 1.099L7.97 35.84a1 1 0 0 0 .056 1.353l2.782 2.782a1 1 0 0 0 1.353.056l1.877-1.588a.938.938 0 0 1 1.099-.082 16.763 16.763 0 0 0 4.977 2.064c.395.093.685.43.719.834l.352 4.226a.938.938 0 0 1-.935 1.015z" fill="#004498"/>
    <path d="M45.563 24.938h-18.75a.938.938 0 0 1 0-1.875h18.75a.938.938 0 0 1 0 1.875zM24 22.125a.937.937 0 0 1-.938-.938V2.438a.937.937 0 1 1 1.875 0v18.75c0 .518-.42.938-.937.938zM24 46.5a.938.938 0 0 1-.938-.938V28.689a.938.938 0 0 1 1.875 0v16.875c0 .517-.42.937-.937.937zm-3.751 0a.938.938 0 0 1-.933-.86l-.24-2.864a1.035 1.035 0 0 0-.727-.893 18.612 18.612 0 0 1-2.997-1.243 1.035 1.035 0 0 0-1.147.117l-2.195 1.857a.938.938 0 0 1-1.268-.052l-5.304-5.304a.938.938 0 0 1-.052-1.268l1.857-2.195c.271-.32.311-.775.117-1.147a18.62 18.62 0 0 1-1.243-2.997 1.035 1.035 0 0 0-.893-.728l-2.864-.239a.938.938 0 0 1-.86-.934v-7.5c0-.488.374-.894.86-.934l2.864-.24c.418-.034.767-.327.894-.727a18.613 18.613 0 0 1 1.242-2.997 1.035 1.035 0 0 0-.117-1.146L5.386 12.01a.938.938 0 0 1 .052-1.268l5.304-5.304a.938.938 0 0 1 1.268-.052l2.195 1.857c.32.271.775.311 1.147.117a18.612 18.612 0 0 1 2.997-1.242c.4-.127.693-.476.728-.894l.239-2.864a.937.937 0 1 1 1.868.155l-.352 4.226a.937.937 0 0 1-.72.834 16.77 16.77 0 0 0-4.976 2.064.937.937 0 0 1-1.099-.082L12.16 7.97a1 1 0 0 0-1.353.056l-2.782 2.782a1 1 0 0 0-.056 1.353l1.588 1.877c.262.31.295.754.082 1.099a16.767 16.767 0 0 0-2.064 4.977.938.938 0 0 1-.834.719l-2.45.204a1 1 0 0 0-.916.997v3.934a1 1 0 0 0 .917.997l2.449.204a.937.937 0 0 1 .834.72 16.765 16.765 0 0 0 2.064 4.976.938.938 0 0 1-.082 1.099L7.97 35.84a1 1 0 0 0 .056 1.353l2.782 2.782a1 1 0 0 0 1.353.056l1.877-1.588a.938.938 0 0 1 1.099-.082 16.763 16.763 0 0 0 4.977 2.064c.395.093.685.43.719.834l.352 4.226a.938.938 0 0 1-.935 1.015z" stroke="#004498"/>
    <path d="M20.25 34.313c-5.686 0-10.313-4.627-10.313-10.313 0-5.686 4.627-10.313 10.313-10.313a.937.937 0 1 1 0 1.876c-4.652 0-8.438 3.785-8.438 8.437 0 4.652 3.786 8.438 8.438 8.438a.938.938 0 0 1 0 1.874z" fill="#004498"/>
    <path d="M20.25 34.313c-5.686 0-10.313-4.627-10.313-10.313 0-5.686 4.627-10.313 10.313-10.313a.937.937 0 1 1 0 1.876c-4.652 0-8.438 3.785-8.438 8.437 0 4.652 3.786 8.438 8.438 8.438a.938.938 0 0 1 0 1.874z" stroke="#004498"/>
</svg>
