<svg width="56" height="56" viewBox="0 0 56 56" fill="none" xmlns="http://www.w3.org/2000/svg">
    <path opacity=".3" d="M42.219 28h-7.527c0-7.853-2.996-14.219-6.692-14.219 7.853 0 14.219 6.366 14.219 14.219zM28 42.219c-7.853 0-14.219-6.366-14.219-14.219h7.527c0 7.853 2.996 14.219 6.692 14.219zM34.692 28h7.527c0 7.853-6.366 14.219-14.219 14.219 3.696 0 6.692-6.366 6.692-14.219zM28 13.781c-3.696 0-6.692 6.366-6.692 14.219h-7.527c0-7.853 6.366-14.219 14.219-14.219z" fill="red"/>
    <path d="M48.781 18.156h-2.187v2.188h2.187v-2.188zM37.844 46.594h-2.188v2.187h2.188v-2.187zM37.844 7.219h-2.188v2.187h2.188V7.22zM21.438 45.5H19.25v2.188h2.188V45.5zM10.5 19.25H8.312v2.188H10.5V19.25zM8.313 34.563H6.124v2.187h2.188v-2.188zM28 43.313c-8.443 0-15.313-6.87-15.313-15.313 0-8.443 6.87-15.313 15.313-15.313 8.443 0 15.313 6.87 15.313 15.313 0 8.443-6.87 15.313-15.313 15.313zm0-28.438c-7.237 0-13.125 5.888-13.125 13.125S20.763 41.125 28 41.125 41.125 35.237 41.125 28 35.237 14.875 28 14.875z" fill="#004498"/>
    <path d="M28 43.313c-2.235 0-4.267-1.703-5.721-4.793-1.331-2.828-2.064-6.564-2.064-10.52 0-3.956.733-7.692 2.064-10.52 1.454-3.09 3.486-4.793 5.721-4.793s4.267 1.703 5.722 4.793c1.33 2.828 2.063 6.564 2.063 10.52 0 3.956-.733 7.692-2.063 10.52-1.455 3.09-3.487 4.792-5.722 4.792zm0-28.438c-1.32 0-2.684 1.289-3.742 3.536-1.197 2.543-1.856 5.949-1.856 9.589 0 3.64.66 7.046 1.856 9.589 1.058 2.247 2.422 3.536 3.742 3.536 1.32 0 2.684-1.289 3.742-3.536 1.197-2.543 1.856-5.949 1.856-9.589 0-3.64-.659-7.046-1.856-9.589-1.058-2.247-2.422-3.536-3.742-3.536z" fill="#004498"/>
    <path d="M42.531 29.188H14.094a1.094 1.094 0 0 1 0-2.188H42.53a1.094 1.094 0 0 1 0 2.188z" fill="#004498"/>
    <path d="M28 43.313c-.604 0-1.094-.49-1.094-1.094V13.78a1.094 1.094 0 0 1 2.188 0V42.22c0 .604-.49 1.093-1.094 1.093zm0-31.72c-.604 0-1.094-.489-1.094-1.093V7.219a1.094 1.094 0 0 1 2.188 0V10.5c0 .604-.49 1.094-1.094 1.094z" fill="#004498"/>
    <path d="M28 8.313a3.285 3.285 0 0 1-3.281-3.282A3.285 3.285 0 0 1 28 1.75a3.285 3.285 0 0 1 3.281 3.281A3.285 3.285 0 0 1 28 8.313zm0-4.376a1.095 1.095 0 1 0 1.094 1.094c0-.603-.49-1.093-1.094-1.093zm0 45.938c-.604 0-1.094-.49-1.094-1.094V45.5a1.094 1.094 0 0 1 2.188 0v3.281c0 .604-.49 1.094-1.094 1.094z" fill="#004498"/>
    <path d="M28 54.25a3.285 3.285 0 0 1-3.281-3.281A3.285 3.285 0 0 1 28 47.687a3.285 3.285 0 0 1 3.281 3.282A3.285 3.285 0 0 1 28 54.25zm0-4.375a1.095 1.095 0 0 0 0 2.188 1.095 1.095 0 0 0 0-2.188zm12.375-33.156a1.094 1.094 0 0 1-.773-1.867l2.32-2.32a1.094 1.094 0 0 1 1.546 1.547l-2.32 2.32a1.09 1.09 0 0 1-.773.32z" fill="#004498"/>
    <path d="M44.24 15.04a3.26 3.26 0 0 1-2.32-.961 3.285 3.285 0 0 1 0-4.64 3.26 3.26 0 0 1 2.32-.961c.877 0 1.7.341 2.32.96.62.62.962 1.444.962 2.32 0 .877-.342 1.702-.962 2.321-.62.62-1.443.96-2.32.96zm0-4.375a1.095 1.095 0 0 0 0 2.187c.292 0 .567-.113.773-.32.208-.207.322-.481.322-.773 0-.292-.114-.566-.321-.773a1.086 1.086 0 0 0-.774-.32zM13.305 43.788a1.094 1.094 0 0 1-.773-1.867l2.32-2.32a1.094 1.094 0 0 1 1.546 1.547l-2.32 2.32c-.213.213-.493.32-.773.32z" fill="#004498"/>
    <path d="M11.76 47.523c-.877 0-1.701-.342-2.321-.963a3.26 3.26 0 0 1-.96-2.319c0-.876.34-1.7.96-2.32a3.26 3.26 0 0 1 2.32-.96c.877 0 1.7.34 2.32.96.62.62.961 1.444.961 2.32 0 .876-.34 1.7-.96 2.32-.62.62-1.444.962-2.32.962zm0-4.375c-.293 0-.567.113-.774.32-.206.206-.32.481-.32.773 0 .292.114.567.32.773.207.207.482.321.773.321.292 0 .567-.114.773-.32.207-.208.321-.482.321-.774 0-.292-.114-.567-.32-.773a1.086 1.086 0 0 0-.774-.32zm37.022-14.054H45.5a1.094 1.094 0 0 1 0-2.188h3.28a1.094 1.094 0 0 1 0 2.188z" fill="#004498"/>
    <path d="M50.969 31.281A3.285 3.285 0 0 1 47.687 28a3.285 3.285 0 0 1 3.282-3.281A3.285 3.285 0 0 1 54.25 28a3.285 3.285 0 0 1-3.281 3.281zm0-4.375a1.095 1.095 0 0 0 0 2.188 1.095 1.095 0 0 0 0-2.188zM10.5 29.094H7.219a1.094 1.094 0 0 1 0-2.188H10.5a1.094 1.094 0 1 1 0 2.188z" fill="#004498"/>
    <path d="M5.031 31.281A3.285 3.285 0 0 1 1.75 28a3.285 3.285 0 0 1 3.281-3.281A3.285 3.285 0 0 1 8.313 28a3.285 3.285 0 0 1-3.282 3.281zm0-4.375a1.095 1.095 0 0 0 0 2.188 1.095 1.095 0 0 0 0-2.188zm37.663 16.882c-.28 0-.56-.107-.773-.32l-2.32-2.32a1.094 1.094 0 0 1 1.547-1.547l2.32 2.32a1.094 1.094 0 0 1-.774 1.867z" fill="#004498"/>
    <path d="M44.24 47.523a3.284 3.284 0 0 1-2.32-5.602 3.26 3.26 0 0 1 2.32-.96c.877 0 1.7.34 2.32.96.62.62.962 1.444.962 2.32 0 .877-.342 1.7-.962 2.32a3.257 3.257 0 0 1-2.32.962zm0-4.375a1.095 1.095 0 0 0 0 2.188c.292 0 .566-.114.773-.321.208-.208.322-.482.322-.774 0-.292-.114-.566-.321-.773a1.086 1.086 0 0 0-.774-.32zM15.624 16.719c-.28 0-.56-.107-.773-.32l-2.32-2.32a1.094 1.094 0 0 1 1.547-1.547l2.32 2.32a1.094 1.094 0 0 1-.774 1.867z" fill="#004498"/>
    <path d="M11.76 15.04a3.26 3.26 0 0 1-2.32-.961 3.26 3.26 0 0 1-.961-2.32c0-.877.34-1.7.96-2.32a3.26 3.26 0 0 1 2.32-.961c.877 0 1.7.341 2.32.96.62.62.961 1.444.961 2.32 0 .877-.34 1.701-.96 2.32a3.26 3.26 0 0 1-2.32.962zm0-4.375c-.293 0-.567.114-.774.32-.206.207-.32.482-.32.774 0 .292.114.566.32.773.207.207.481.32.773.32.293 0 .567-.113.774-.32.206-.207.32-.481.32-.773 0-.292-.114-.567-.32-.773a1.085 1.085 0 0 0-.774-.32z" fill="#004498"/>
</svg>
