<svg width="48" height="48" viewBox="0 0 48 48" fill="none" xmlns="http://www.w3.org/2000/svg">
    <path fill-rule="evenodd" clip-rule="evenodd" d="M23.262 39.13v-1.57l-2.871-1.985h-2.543c-2.38 0-4.348 1.819-4.348 3.968v.662h2.379v-.496c0-.414.328-.662.738-.662s.738.248.738.662v3.885h13.29V39.71c0-.414.328-.662.738-.662s.738.248.738.662v.496H34.5v-.662c0-2.15-1.969-3.968-4.348-3.968H27.61l-2.87 1.984v1.57c0 .91-1.477.91-1.477 0zM12.434 17.386c-.41 0-.82-.083-1.23-.165l-.575 1.24 1.805 1.157 1.722-1.157-.492-1.24c-.41.082-.82.165-1.23.165zm-2.543-.744c-1.559-.992-2.707-2.646-2.707-4.382v-1.82c-.329-.082-.575-.247-.82-.578-1.231-1.819 0-3.059.902-3.968C9.48 3.496 11.53 3 12.844 3c1.886 0 3.61.992 4.594 2.646.82 1.488.902 3.059.328 4.382v2.232c0 1.736-1.23 3.472-2.79 4.382l.493 1.323h1.722c.165 0 .41 0 .575.082 1.312-2.067 3.363-3.224 5.66-3.224 1.558 0 3.937.579 6.644 3.224.246-.082.492-.082.739-.082h1.722l.492-1.323c-1.558-.91-2.789-2.646-2.789-4.382v-2.232c-.574-1.323-.492-2.894.328-4.382C31.547 3.992 33.27 3 35.157 3c1.313 0 3.364.496 5.578 2.894.903.91 2.133 2.15.903 3.968-.246.33-.492.496-.82.579v1.819c0 1.736-1.149 3.39-2.708 4.382l.575 1.323h1.722c2.543 0 4.594 1.984 4.594 4.381v3.72c0 .332-.328.662-.738.662h-13.7c-.082 2.15-1.64 4.217-3.527 5.374l.82 1.985h2.297c3.2 0 5.742 2.48 5.742 5.456v4.796c0 .33-.328.661-.656.661H12.762c-.328 0-.657-.33-.657-.661v-4.796c0-2.976 2.543-5.456 5.743-5.456h2.297l.82-1.985c-1.969-1.074-3.527-3.224-3.61-5.374H3.738c-.41 0-.738-.33-.738-.661v-3.72c0-2.398 2.05-4.382 4.594-4.382h1.722l.575-1.323zm-2.215-7.69c1.394-.33 2.297-.743 3.199-1.157.82-.413 1.559-.744 2.46-.744.985 0 1.97.414 3.364 1.571.41-2.894-3.691-6.862-8.449-1.736-.82.91-1.313 1.323-.738 2.15l.164-.083zm.902 1.324v1.984c0 1.736 1.969 3.638 3.856 3.72 1.968-.082 3.855-1.984 3.855-3.72v-2.15c-1.312-1.157-2.215-1.653-2.953-1.653-.574 0-1.066.248-1.887.661-.738.33-1.64.744-2.87 1.158zm8.531 9.094h-1.886l-2.133 1.488v1.158c0 .413-.246.744-.656.744a.738.738 0 0 1-.739-.744v-1.158L9.562 19.37H7.595c-1.723 0-3.2 1.323-3.2 2.976v.331h1.56v-.165c0-.414.327-.744.737-.744s.657.33.657.744v2.81h10.007v-1.735c-.656-1.24-.738-2.729-.246-4.217zM4.395 24.083v1.24h1.558v-1.24H4.395zm31.171-6.697c-.41 0-.82-.083-1.23-.165l-.492 1.24 1.722 1.157 1.805-1.157-.574-1.24c-.41.082-.82.165-1.23.165zm-3.855-7.276v2.15c0 1.736 1.887 3.638 3.855 3.72 1.887-.082 3.856-1.984 3.856-3.72v-1.984c-1.23-.414-2.133-.827-2.871-1.158-.82-.413-1.313-.661-1.887-.661-.738 0-1.64.496-2.953 1.653zm8.613-1.157.164.082c.575-.826.082-1.24-.738-2.15-4.758-5.125-8.86-1.157-8.45 1.737 1.395-1.157 2.38-1.57 3.364-1.57.902 0 1.64.33 2.461.743a14 14 0 0 0 3.2 1.158zM29.168 23.835c-1.723-.496-2.871-1.075-3.855-1.571-.985-.496-1.723-.827-2.461-.827-1.067 0-2.297.661-4.102 2.315v2.728c0 2.48 2.625 4.96 5.168 5.044 2.625-.083 5.25-2.563 5.25-5.044v-2.645zm1.395 1.488h10.09v-2.811c0-.414.245-.744.656-.744.41 0 .738.33.738.744v.165h1.559v-.33c0-1.654-1.477-2.977-3.2-2.977h-1.968l-2.133 1.488v1.158a.738.738 0 0 1-.739.744c-.41 0-.656-.33-.656-.744v-1.158l-2.133-1.488h-1.476c.82.992 1.476 2.315.246 4.051-.164.248-.492.496-.985.579v1.323zm11.484 0h1.559v-1.24h-1.56v1.24zm2.215 9.342H34.09a.738.738 0 0 1-.738-.744v-5.374c0-.413.328-.744.738-.744h10.172c.41 0 .738.33.738.744v5.374a.738.738 0 0 1-.738.744zm-9.434-1.488h8.777v-3.886h-8.777v3.886zm7.383-1.24h-5.988c-.41 0-.739-.33-.739-.661 0-.414.328-.744.739-.744h5.988c.41 0 .656.33.656.744a.65.65 0 0 1-.656.661zm-28.3 2.728H3.737A.738.738 0 0 1 3 33.921v-5.374c0-.413.328-.744.738-.744H13.91c.41 0 .738.33.738.744v5.374a.738.738 0 0 1-.738.744zm-9.516-1.488h8.777v-3.886H4.395v3.886zm7.382-1.24H5.79a.65.65 0 0 1-.656-.661c0-.414.246-.744.656-.744h5.988c.41 0 .739.33.739.744 0 .33-.329.661-.739.661zm10.5.744-.82 1.902L24 36.319l2.543-1.736-.82-1.902c-1.23.33-2.215.413-3.446 0zm7.711-10.17c.492.166.575 0 .739-.495.328-.91-.329-1.571-1.23-2.48-6.481-7.028-12.06-1.24-11.157 2.645 1.805-1.488 3.2-2.15 4.512-2.15 1.066 0 1.968.414 3.035.993 1.066.496 2.297 1.074 4.101 1.488zM13.5 43.595h2.379V41.61H13.5v1.984zm18.621 0H34.5V41.61h-2.379v1.984z" fill="#004498" stroke="#004498" stroke-width=".3"/>
    <path fill-rule="evenodd" clip-rule="evenodd" d="M32.121 41.61v1.985H34.5V41.61h-2.379z" fill="#F9AFB3"/>
    <path fill-rule="evenodd" clip-rule="evenodd" d="M30.645 43.594V39.71c0-.414.328-.662.738-.662s.739.248.739.662v.496H34.5v-.662c0-2.15-1.97-3.968-4.348-3.968H27.61l-2.871 1.984v1.57c0 .91-1.477.91-1.477 0v-1.57l-2.87-1.984h-2.544c-2.379 0-4.347 1.819-4.347 3.968v.662h2.378v-.496c0-.414.329-.662.739-.662s.738.248.738.662v3.885h13.289z" fill="#F9AFB3"/>
    <path fill-rule="evenodd" clip-rule="evenodd" d="M15.88 43.595V41.61H13.5v1.985h2.38zM21.457 34.583 24 36.319l2.544-1.736-.82-1.902c-1.231.33-2.216.413-3.446 0l-.82 1.902zM34.83 29.29v3.886h8.777v-3.886h-8.777zm1.394 1.24h5.988c.41 0 .657.331.657.745a.65.65 0 0 1-.657.66h-5.988c-.41 0-.738-.33-.738-.66 0-.414.328-.745.738-.745zm-23.05 2.646v-3.886H4.394v3.886h8.777zM5.79 30.531h5.988c.41 0 .738.331.738.745 0 .33-.328.66-.738.66H5.79a.65.65 0 0 1-.657-.66c0-.414.246-.745.657-.745zM5.954 25.323v-1.24H4.395v1.24h1.559zM7.348 22.512v2.81h10.008v-1.735c-.656-1.24-.738-2.729-.246-4.217h-1.887l-2.133 1.488v1.158c0 .413-.246.744-.656.744a.738.738 0 0 1-.738-.744v-1.158L9.563 19.37H7.594c-1.722 0-3.199 1.323-3.199 2.976v.331h1.559v-.165c0-.413.328-.744.738-.744s.656.33.656.744z" fill="#F9AFB3"/>
    <path fill-rule="evenodd" clip-rule="evenodd" d="m10.63 18.46 1.804 1.158 1.723-1.157-.493-1.24c-.41.082-.82.165-1.23.165-.41 0-.82-.083-1.23-.165l-.575 1.24zm.245-10.665c.82-.413 1.559-.744 2.461-.744.985 0 1.969.414 3.364 1.571.41-2.893-3.692-6.862-8.45-1.736-.82.91-1.312 1.323-.738 2.15l.164-.083c1.395-.33 2.297-.744 3.2-1.158zm18.621 11.74c-6.48-7.027-12.058-1.24-11.156 2.646 1.805-1.488 3.2-2.15 4.512-2.15 1.066 0 1.969.414 3.035.993 1.066.496 2.297 1.075 4.101 1.488.493.165.575 0 .739-.496.328-.91-.328-1.571-1.23-2.48zM42.047 24.083v1.24h1.559v-1.24h-1.56zM40.653 25.323v-2.811c0-.413.246-.744.656-.744.41 0 .738.33.738.744v.165h1.559v-.33c0-1.654-1.477-2.977-3.2-2.977h-1.968l-2.133 1.488v1.158a.738.738 0 0 1-.738.744c-.41 0-.656-.33-.656-.744v-1.158l-2.133-1.488H31.3c.82.992 1.477 2.315.246 4.051-.164.248-.492.496-.984.579v1.323h10.09z" fill="#F9AFB3"/>
    <path fill-rule="evenodd" clip-rule="evenodd" d="m35.567 19.618 1.805-1.157-.575-1.24c-.41.082-.82.165-1.23.165-.41 0-.82-.083-1.23-.165l-.493 1.24 1.723 1.157zm-.902-12.567c.902 0 1.64.331 2.46.744a14 14 0 0 0 3.2 1.158l.164.083c.574-.827.082-1.24-.738-2.15-4.758-5.126-8.86-1.157-8.45 1.736 1.395-1.157 2.38-1.57 3.364-1.57z" fill="#F9AFB3"/>
</svg>
