<svg width="48" height="49" viewBox="0 0 48 49" fill="none" xmlns="http://www.w3.org/2000/svg">
    <path d="M37.249 36.32a1.875 1.875 0 0 0-.687-2.562L19.74 24.045a3 3 0 0 0-2.205-.318l-1.208.293c-1.3.314-2.66.28-3.942-.1L6.75 22.25l-3 11.25 7.45 2.936 15.264 8.813a1.877 1.877 0 0 0 2.758-2.11 1.876 1.876 0 0 0-.883-1.138l.65.375a1.876 1.876 0 1 0 1.874-3.248l.65.375a1.874 1.874 0 1 0 1.875-3.248l1.3.75a1.875 1.875 0 0 0 2.56-.686z" fill="#fff"/>
    <path d="M37.345 34.652a1.876 1.876 0 0 1-2.557.68l-5.521-3.188a1.5 1.5 0 0 0-2.05.549l7.47 4.313a1.87 1.87 0 0 0 2.658-2.354zM34.17 37.15a1.875 1.875 0 0 1-2.556.679l-4.223-2.438a1.5 1.5 0 0 0-2.048.55l6.17 3.559a1.87 1.87 0 0 0 2.657-2.353v.003zm-2.525 2.875a1.875 1.875 0 0 1-2.556.68l-3.572-2.063a1.5 1.5 0 0 0-2.05.549l5.522 3.188a1.87 1.87 0 0 0 2.656-2.354z" fill="#FB9EA1"/>
    <path d="M29.121 42.895a1.875 1.875 0 0 1-2.557.68l-4.871-2.813A10.5 10.5 0 0 1 17.85 26.42l1.478-2.561a2.987 2.987 0 0 0-1.794-.13l-1.208.292c-1.3.314-2.66.28-3.942-.1L6.75 22.25l-3 11.25 7.45 2.936 15.264 8.813a1.87 1.87 0 0 0 2.657-2.355z" fill="#FB9EA1"/>
    <path d="m22.527 25.655-.845.725a14.683 14.683 0 0 1-4.908 2.779 1.5 1.5 0 0 0-.97 1.8 1.48 1.48 0 0 0 .158 1.14 2.558 2.558 0 0 0 3.463.909L22.5 31.25l.624.25c1.054.421 2.2.563 3.325.41a3.14 3.14 0 0 0 2.276-1.511c.122-.068.247-.128.366-.204l6.09 3.516a4.483 4.483 0 0 0 1.964.583 1.868 1.868 0 0 0-.584-.536l-14.034-8.103z" fill="#FB9EA1"/>
    <path d="m2.25 19.25 7.5 2.25L6 36.5l-3.75-.75v-16.5z" fill="#FAA6AB"/>
    <path d="M14.565 38.388a1.875 1.875 0 0 0-3.248-1.875l-1.125 1.949a1.875 1.875 0 1 0 3.248 1.875l1.125-1.949z" fill="#fff"/>
    <path d="M18.188 39.613a1.875 1.875 0 1 0-3.248-1.875l-1.875 3.247a1.875 1.875 0 0 0 3.248 1.875l1.875-3.247z" fill="#fff"/>
    <path d="M21.06 42.138a1.875 1.875 0 1 0-3.247-1.875l-1.125 1.949a1.875 1.875 0 1 0 3.247 1.875l1.125-1.949z" fill="#fff"/>
    <path d="M23.933 44.663a1.875 1.875 0 0 0-3.248-1.875l-.375.65a1.875 1.875 0 1 0 3.248 1.874l.375-.649z" fill="#fff"/>
    <path d="M14.058 35.956c.002.327-.082.648-.243.932l-1.125 1.95a1.875 1.875 0 0 1-2.561.687 1.946 1.946 0 0 1-.18-.13 1.87 1.87 0 0 0 3.491.944l1.125-1.95a1.87 1.87 0 0 0-.507-2.433zm3.622 1.226c.003.326-.08.648-.242.931l-1.875 3.248a1.875 1.875 0 0 1-2.562.687 1.84 1.84 0 0 1-.179-.13 1.87 1.87 0 0 0 3.49.944l1.875-3.249a1.868 1.868 0 0 0-.507-2.431zm2.87 2.524c.003.327-.08.649-.243.932l-1.125 1.95a1.875 1.875 0 0 1-2.561.687 1.84 1.84 0 0 1-.18-.13 1.87 1.87 0 0 0 3.491.944l1.125-1.95a1.87 1.87 0 0 0-.507-2.433zm2.876 2.525c.003.327-.081.648-.243.932l-.375.65a1.875 1.875 0 0 1-2.558.686 1.84 1.84 0 0 1-.18-.13 1.869 1.869 0 0 0 3.488.944l.375-.65a1.869 1.869 0 0 0-.507-2.432z" fill="#FB9EA1"/>
    <path d="m29.093 29.445 7.432 4.29 6.975-.985-3-11.25-7.19 2.054a12.054 12.054 0 0 1-6.62 0 3.75 3.75 0 0 0-3.472.759l-1.536 1.317a14.684 14.684 0 0 1-4.908 2.779 1.501 1.501 0 0 0-.812 2.195 2.558 2.558 0 0 0 3.463.904L22.5 29.75l.624.25a6.577 6.577 0 0 0 5.969-.555z" fill="#fff"/>
    <path d="m40.5 21.5-3.15.9.163.655a4.583 4.583 0 0 1-5.488 5.575l-1.8-.42a3.306 3.306 0 0 0-2.06.225 6.58 6.58 0 0 1-5.043.066 2.963 2.963 0 0 0-2.442.65l-.504.427a3.9 3.9 0 0 1-2.41.51 2.3 2.3 0 0 1-1.813-1.004 1.49 1.49 0 0 0 .007 1.52 2.557 2.557 0 0 0 3.465.904L22.5 29.75l.624.25a6.578 6.578 0 0 0 5.969-.555l7.432 4.29 6.975-.985-3-11.25z" fill="#FB9EA1"/>
    <path d="M45.75 17.75 38.25 20 42 35l3.75-.75v-16.5z" fill="#FAA6AB"/>
    <path d="m45.6 33.515-3.049.61-3.401-13.612 6.814-2.044a.75.75 0 0 0-.43-1.437l-7.5 2.25a.75.75 0 0 0-.513.9l.324 1.296-4.742 1.354c-2.03.58-4.18.58-6.209 0a4.487 4.487 0 0 0-4.165.91l-.811.696-1.805-1.043A3.737 3.737 0 0 0 17.358 23l-1.208.293a6.847 6.847 0 0 1-3.553-.09l-2.325-.69.207-.83a.75.75 0 0 0-.512-.9l-7.5-2.25a.75.75 0 1 0-.43 1.438l6.813 2.042-3.404 13.612-3.046-.61a.75.75 0 0 0-.3 1.47l3.75.75a.75.75 0 0 0 .877-.553L7 35.587l3.246 1.275-.704 1.221a2.625 2.625 0 0 0 2.269 3.937c.087 0 .173-.008.26-.016.004.2.031.4.081.596a2.625 2.625 0 0 0 2.531 1.945c.434-.002.861-.11 1.244-.315a2.603 2.603 0 0 0 3.622 1.225A2.608 2.608 0 0 0 21.93 47a2.636 2.636 0 0 0 2.278-1.313l.375-.65v-.008l1.504.869a2.626 2.626 0 0 0 3.924-2.522 2.624 2.624 0 0 0 2.524-2.875 2.626 2.626 0 0 0 2.537-2.55 2.626 2.626 0 0 0 3.089-3.25 2.57 2.57 0 0 0-.158-.42l2.942-.416.328 1.314a.75.75 0 0 0 .878.556l3.75-.75a.75.75 0 0 0-.294-1.47H45.6zm-34.35 6.859a1.125 1.125 0 0 1-.412-1.537l1.125-1.95a1.125 1.125 0 1 1 1.95 1.125l-1.125 1.95a1.125 1.125 0 0 1-1.534.412h-.004zm4.336-2.26a1.124 1.124 0 0 1 1.947 1.124l-1.875 3.247a1.125 1.125 0 1 1-1.947-1.125l1.875-3.247zm3.696 5.598a1.127 1.127 0 0 1-1.95-1.125l1.125-1.95a1.124 1.124 0 0 1 2.062.27 1.126 1.126 0 0 1-.112.855l-1.125 1.95zm2.049-.549a1.124 1.124 0 0 1 2.062.27 1.126 1.126 0 0 1-.112.855l-.375.65a1.128 1.128 0 0 1-1.538.412 1.126 1.126 0 0 1-.412-1.537l.375-.65zm6.258-11.12a.75.75 0 1 0-.75 1.3l6.17 3.563a1.127 1.127 0 0 1-1.124 1.95l-6.17-3.563a.75.75 0 1 0-.75 1.3l5.52 3.187a1.126 1.126 0 0 1-1.126 1.95l-.648-.375-4.875-2.813a.75.75 0 1 0-.75 1.3l4.875 2.813a1.125 1.125 0 1 1-1.125 1.95l-1.921-1.11a2.6 2.6 0 0 0-2.864-2.369 2.602 2.602 0 0 0-2.875-2.524 2.607 2.607 0 0 0-3.853-2.225 2.6 2.6 0 0 0-4.223-.785L7.365 34.12l2.54-10.152 2.266.675a8.36 8.36 0 0 0 4.329.106l1.208-.292a2.234 2.234 0 0 1 1.65.238l1.32.762a13.836 13.836 0 0 1-4.147 2.24 2.25 2.25 0 0 0-1.218 3.292 3.325 3.325 0 0 0 4.476 1.17l2.763-1.575.287.115a7.344 7.344 0 0 0 6.251-.382l7.05 4.071c.014.008.03.01.044.017v.006a1.125 1.125 0 1 1-1.125 1.95l-7.47-4.317zm9.086.913-7.208-4.16a.75.75 0 0 0-.777.017 5.843 5.843 0 0 1-5.29.487l-.624-.25a.75.75 0 0 0-.65.046l-3.075 1.758a1.817 1.817 0 0 1-2.447-.64.749.749 0 0 1 .406-1.097 15.36 15.36 0 0 0 5.16-2.92l1.536-1.318a2.994 2.994 0 0 1 2.775-.607c2.298.658 4.735.658 7.033 0l4.694-1.34 2.367 9.473-3.9.551z" fill="#004498"/>
</svg>
