<svg width="923" height="387" viewBox="0 0 923 387" fill="none" xmlns="http://www.w3.org/2000/svg">
<g clip-path="url(#clip0_662_898)">
<path d="M181 0H10C4.47715 0 0 4.47715 0 10V62C0 67.5229 4.47715 72 10 72H181C186.523 72 191 67.5229 191 62V10C191 4.47715 186.523 0 181 0Z" fill="#C4EAFF"/>
<path d="M21.4385 42.9999V29.909H26.1047C27.1232 29.909 27.9669 30.0944 28.636 30.4651C29.305 30.8358 29.8057 31.3429 30.1381 31.9864C30.4705 32.6256 30.6367 33.3458 30.6367 34.1469C30.6367 34.9523 30.4683 35.6767 30.1317 36.3202C29.7993 36.9594 29.2965 37.4665 28.6232 37.8415C27.9541 38.2123 27.1125 38.3976 26.0983 38.3976H22.8895V36.7229H25.9193C26.5628 36.7229 27.0848 36.6121 27.4854 36.3905C27.886 36.1647 28.18 35.8579 28.3675 35.4701C28.555 35.0823 28.6487 34.6412 28.6487 34.1469C28.6487 33.6526 28.555 33.2137 28.3675 32.8302C28.18 32.4466 27.8838 32.1462 27.479 31.9289C27.0784 31.7115 26.55 31.6029 25.8938 31.6029H23.4137V42.9999H21.4385ZM39.0182 38.9282V33.1817H40.9358V42.9999H39.0566V41.2996H38.9543C38.7285 41.8238 38.3662 42.2606 37.8677 42.61C37.3733 42.9552 36.7576 43.1277 36.0204 43.1277C35.3897 43.1277 34.8314 42.9892 34.3456 42.7123C33.8641 42.431 33.4849 42.0155 33.2079 41.4658C32.9351 40.9161 32.7988 40.2364 32.7988 39.4267V33.1817H34.71V39.1966C34.71 39.8657 34.8954 40.3983 35.2661 40.7946C35.6368 41.191 36.1184 41.3891 36.7107 41.3891C37.0687 41.3891 37.4245 41.2996 37.7782 41.1206C38.1361 40.9417 38.4323 40.6711 38.6667 40.3088C38.9053 39.9466 39.0225 39.4864 39.0182 38.9282ZM43.6573 42.9999V29.909H45.5685V34.7733H45.6835C45.7943 34.5688 45.9541 34.3323 46.1629 34.0638C46.3717 33.7954 46.6615 33.561 47.0323 33.3607C47.403 33.1561 47.8931 33.0539 48.5024 33.0539C49.295 33.0539 50.0024 33.2542 50.6246 33.6547C51.2467 34.0553 51.7347 34.6327 52.0884 35.387C52.4463 36.1412 52.6253 37.0489 52.6253 38.11C52.6253 39.1711 52.4485 40.0809 52.0948 40.8394C51.7411 41.5936 51.2553 42.1753 50.6374 42.5844C50.0195 42.9892 49.3142 43.1917 48.5216 43.1917C47.925 43.1917 47.4371 43.0915 47.0578 42.8912C46.6828 42.691 46.3888 42.4566 46.1757 42.1881C45.9627 41.9196 45.7986 41.681 45.6835 41.4722H45.5237V42.9999H43.6573ZM45.5301 38.0908C45.5301 38.7811 45.6303 39.3863 45.8306 39.9061C46.0308 40.426 46.3206 40.833 46.6999 41.127C47.0791 41.4168 47.5436 41.5617 48.0933 41.5617C48.6644 41.5617 49.1416 41.4104 49.5252 41.1079C49.9087 40.801 50.1985 40.3856 50.3945 39.8614C50.5948 39.3373 50.6949 38.7471 50.6949 38.0908C50.6949 37.4431 50.5969 36.8614 50.4009 36.3458C50.2091 35.8302 49.9193 35.4232 49.5315 35.1249C49.148 34.8266 48.6686 34.6775 48.0933 34.6775C47.5394 34.6775 47.0706 34.8202 46.6871 35.1057C46.3078 35.3912 46.0202 35.7897 45.8242 36.301C45.6281 36.8124 45.5301 37.409 45.5301 38.0908ZM56.6827 29.909V42.9999H54.7714V29.909H56.6827ZM59.2539 42.9999V33.1817H61.1651V42.9999H59.2539ZM60.2191 31.6668C59.8867 31.6668 59.6012 31.556 59.3625 31.3344C59.1281 31.1086 59.011 30.8401 59.011 30.529C59.011 30.2137 59.1281 29.9452 59.3625 29.7236C59.6012 29.4978 59.8867 29.3848 60.2191 29.3848C60.5514 29.3848 60.8348 29.4978 61.0692 29.7236C61.3078 29.9452 61.4271 30.2137 61.4271 30.529C61.4271 30.8401 61.3078 31.1086 61.0692 31.3344C60.8348 31.556 60.5514 31.6668 60.2191 31.6668ZM71.0935 35.5787L69.3613 35.8856C69.2888 35.664 69.1738 35.453 69.0161 35.2527C68.8627 35.0525 68.6539 34.8884 68.3897 34.7606C68.1255 34.6327 67.7952 34.5688 67.3989 34.5688C66.8577 34.5688 66.406 34.6902 66.0438 34.9331C65.6816 35.1718 65.5005 35.4807 65.5005 35.86C65.5005 36.1881 65.6219 36.4523 65.8648 36.6526C66.1077 36.8529 66.4998 37.0169 67.041 37.1448L68.6006 37.5027C69.504 37.7115 70.1773 38.0333 70.6205 38.4679C71.0637 38.9026 71.2853 39.4672 71.2853 40.1618C71.2853 40.7499 71.1148 41.274 70.7739 41.7343C70.4373 42.1902 69.9664 42.5482 69.3613 42.8081C68.7604 43.0681 68.0637 43.1981 67.2711 43.1981C66.1716 43.1981 65.2746 42.9637 64.58 42.4949C63.8854 42.0219 63.4593 41.3508 63.3016 40.4814L65.1489 40.2002C65.264 40.6817 65.5005 41.0461 65.8584 41.2932C66.2164 41.5361 66.683 41.6576 67.2583 41.6576C67.8847 41.6576 68.3854 41.5276 68.7604 41.2677C69.1354 41.0035 69.3229 40.6817 69.3229 40.3025C69.3229 39.9956 69.2079 39.7378 68.9778 39.529C68.7519 39.3202 68.4046 39.1625 67.9358 39.056L66.2739 38.6917C65.3577 38.4829 64.6802 38.1505 64.2412 37.6945C63.8066 37.2385 63.5893 36.6611 63.5893 35.9623C63.5893 35.3827 63.7512 34.8756 64.0751 34.441C64.3989 34.0063 64.8464 33.6675 65.4174 33.4246C65.9884 33.1775 66.6425 33.0539 67.3797 33.0539C68.4408 33.0539 69.276 33.284 69.8854 33.7442C70.4948 34.2002 70.8975 34.8117 71.0935 35.5787ZM75.2979 37.1704V42.9999H73.3867V29.909H75.2723V34.7797H75.3938C75.6239 34.2513 75.9754 33.8316 76.4485 33.5205C76.9215 33.2094 77.5394 33.0539 78.3021 33.0539C78.9754 33.0539 79.5635 33.1924 80.0664 33.4694C80.5735 33.7463 80.9655 34.1597 81.2425 34.7094C81.5237 35.2549 81.6644 35.9367 81.6644 36.7549V42.9999H79.7531V36.985C79.7531 36.2648 79.5678 35.7066 79.197 35.3103C78.8263 34.9097 78.3107 34.7094 77.6502 34.7094C77.1985 34.7094 76.7936 34.8053 76.4357 34.9971C76.082 35.1888 75.8029 35.4701 75.5983 35.8408C75.398 36.2073 75.2979 36.6505 75.2979 37.1704ZM88.9785 33.1817H90.8897V43.6391C90.8897 44.2954 90.7704 44.8493 90.5317 45.301C90.2974 45.7527 89.9479 46.0958 89.4834 46.3302C89.0232 46.5645 88.4543 46.6817 87.7768 46.6817C87.7086 46.6817 87.6447 46.6817 87.585 46.6817C87.5211 46.6817 87.455 46.6796 87.3868 46.6753V45.0326C87.4465 45.0326 87.4998 45.0326 87.5466 45.0326C87.5893 45.0326 87.6383 45.0326 87.6937 45.0326C88.1454 45.0326 88.4714 44.9111 88.6716 44.6682C88.8762 44.4296 88.9785 44.0823 88.9785 43.6263V33.1817ZM89.9245 31.6668C89.5921 31.6668 89.3066 31.556 89.0679 31.3344C88.8336 31.1086 88.7164 30.8401 88.7164 30.529C88.7164 30.2137 88.8336 29.9452 89.0679 29.7236C89.3066 29.4978 89.5921 29.3848 89.9245 29.3848C90.2569 29.3848 90.5403 29.4978 90.7746 29.7236C91.0133 29.9452 91.1326 30.2137 91.1326 30.529C91.1326 30.8401 91.0133 31.1086 90.7746 31.3344C90.5403 31.556 90.2569 31.6668 89.9245 31.6668ZM97.5965 43.1981C96.6761 43.1981 95.8728 42.9871 95.1867 42.5652C94.5007 42.1434 93.968 41.5532 93.5887 40.7946C93.2095 40.0361 93.0198 39.1498 93.0198 38.1356C93.0198 37.1171 93.2095 36.2265 93.5887 35.4637C93.968 34.7009 94.5007 34.1086 95.1867 33.6867C95.8728 33.2648 96.6761 33.0539 97.5965 33.0539C98.517 33.0539 99.3203 33.2648 100.006 33.6867C100.692 34.1086 101.225 34.7009 101.604 35.4637C101.983 36.2265 102.173 37.1171 102.173 38.1356C102.173 39.1498 101.983 40.0361 101.604 40.7946C101.225 41.5532 100.692 42.1434 100.006 42.5652C99.3203 42.9871 98.517 43.1981 97.5965 43.1981ZM97.6029 41.5937C98.1995 41.5937 98.6938 41.436 99.0859 41.1206C99.4779 40.8053 99.7677 40.3856 99.9552 39.8614C100.147 39.3373 100.243 38.7598 100.243 38.1292C100.243 37.5027 100.147 36.9275 99.9552 36.4033C99.7677 35.8749 99.4779 35.4509 99.0859 35.1313C98.6938 34.8117 98.1995 34.6519 97.6029 34.6519C97.0021 34.6519 96.5035 34.8117 96.1072 35.1313C95.7151 35.4509 95.4232 35.8749 95.2315 36.4033C95.044 36.9275 94.9502 37.5027 94.9502 38.1292C94.9502 38.7598 95.044 39.3373 95.2315 39.8614C95.4232 40.3856 95.7151 40.8053 96.1072 41.1206C96.5035 41.436 97.0021 41.5937 97.6029 41.5937ZM104.46 42.9999V29.909H106.371V34.7733H106.486C106.597 34.5688 106.757 34.3323 106.965 34.0638C107.174 33.7954 107.464 33.561 107.835 33.3607C108.205 33.1561 108.695 33.0539 109.305 33.0539C110.097 33.0539 110.805 33.2542 111.427 33.6547C112.049 34.0553 112.537 34.6327 112.891 35.387C113.249 36.1412 113.428 37.0489 113.428 38.11C113.428 39.1711 113.251 40.0809 112.897 40.8394C112.544 41.5936 112.058 42.1753 111.44 42.5844C110.822 42.9892 110.117 43.1917 109.324 43.1917C108.727 43.1917 108.24 43.0915 107.86 42.8912C107.485 42.691 107.191 42.4566 106.978 42.1881C106.765 41.9196 106.601 41.681 106.486 41.4722H106.326V42.9999H104.46ZM106.333 38.0908C106.333 38.7811 106.433 39.3863 106.633 39.9061C106.833 40.426 107.123 40.833 107.502 41.127C107.882 41.4168 108.346 41.5617 108.896 41.5617C109.467 41.5617 109.944 41.4104 110.328 41.1079C110.711 40.801 111.001 40.3856 111.197 39.8614C111.397 39.3373 111.497 38.7471 111.497 38.0908C111.497 37.4431 111.399 36.8614 111.203 36.3458C111.012 35.8302 110.722 35.4232 110.334 35.1249C109.95 34.8266 109.471 34.6775 108.896 34.6775C108.342 34.6775 107.873 34.8202 107.49 35.1057C107.11 35.3912 106.823 35.7897 106.627 36.301C106.431 36.8124 106.333 37.409 106.333 38.0908ZM122.249 29.909V42.9999H120.338V29.909H122.249ZM124.82 42.9999V33.1817H126.731V42.9999H124.82ZM125.785 31.6668C125.453 31.6668 125.167 31.556 124.929 31.3344C124.694 31.1086 124.577 30.8401 124.577 30.529C124.577 30.2137 124.694 29.9452 124.929 29.7236C125.167 29.4978 125.453 29.3848 125.785 29.3848C126.118 29.3848 126.401 29.4978 126.635 29.7236C126.874 29.9452 126.993 30.2137 126.993 30.529C126.993 30.8401 126.874 31.1086 126.635 31.3344C126.401 31.556 126.118 31.6668 125.785 31.6668ZM136.66 35.5787L134.927 35.8856C134.855 35.664 134.74 35.453 134.582 35.2527C134.429 35.0525 134.22 34.8884 133.956 34.7606C133.692 34.6327 133.361 34.5688 132.965 34.5688C132.424 34.5688 131.972 34.6902 131.61 34.9331C131.248 35.1718 131.067 35.4807 131.067 35.86C131.067 36.1881 131.188 36.4523 131.431 36.6526C131.674 36.8529 132.066 37.0169 132.607 37.1448L134.167 37.5027C135.07 37.7115 135.743 38.0333 136.187 38.4679C136.63 38.9026 136.851 39.4672 136.851 40.1618C136.851 40.7499 136.681 41.274 136.34 41.7343C136.003 42.1902 135.532 42.5482 134.927 42.8081C134.327 43.0681 133.63 43.1981 132.837 43.1981C131.738 43.1981 130.841 42.9637 130.146 42.4949C129.452 42.0219 129.025 41.3508 128.868 40.4814L130.715 40.2002C130.83 40.6817 131.067 41.0461 131.425 41.2932C131.782 41.5361 132.249 41.6576 132.824 41.6576C133.451 41.6576 133.952 41.5276 134.327 41.2677C134.702 41.0035 134.889 40.6817 134.889 40.3025C134.889 39.9956 134.774 39.7378 134.544 39.529C134.318 39.3202 133.971 39.1625 133.502 39.056L131.84 38.6917C130.924 38.4829 130.246 38.1505 129.807 37.6945C129.373 37.2385 129.155 36.6611 129.155 35.9623C129.155 35.3827 129.317 34.8756 129.641 34.441C129.965 34.0063 130.412 33.6675 130.983 33.4246C131.555 33.1775 132.209 33.0539 132.946 33.0539C134.007 33.0539 134.842 33.284 135.452 33.7442C136.061 34.2002 136.464 34.8117 136.66 35.5787ZM143.536 33.1817V34.7158H138.173V33.1817H143.536ZM139.611 30.8294H141.522V40.1171C141.522 40.4878 141.578 40.7669 141.689 40.9544C141.799 41.1377 141.942 41.2634 142.117 41.3316C142.296 41.3955 142.49 41.4275 142.699 41.4275C142.852 41.4275 142.986 41.4168 143.101 41.3955C143.216 41.3742 143.306 41.3571 143.37 41.3444L143.715 42.9232C143.604 42.9658 143.446 43.0084 143.242 43.051C143.037 43.0979 142.782 43.1235 142.475 43.1277C141.972 43.1363 141.503 43.0468 141.069 42.8593C140.634 42.6718 140.282 42.382 140.014 41.99C139.745 41.5979 139.611 41.1057 139.611 40.5134V30.8294ZM145.65 42.9999V33.1817H147.561V42.9999H145.65ZM146.615 31.6668C146.283 31.6668 145.997 31.556 145.759 31.3344C145.524 31.1086 145.407 30.8401 145.407 30.529C145.407 30.2137 145.524 29.9452 145.759 29.7236C145.997 29.4978 146.283 29.3848 146.615 29.3848C146.948 29.3848 147.231 29.4978 147.465 29.7236C147.704 29.9452 147.823 30.2137 147.823 30.529C147.823 30.8401 147.704 31.1086 147.465 31.3344C147.231 31.556 146.948 31.6668 146.615 31.6668ZM152.044 37.1704V42.9999H150.132V33.1817H151.967V34.7797H152.088C152.314 34.2598 152.668 33.8422 153.15 33.5269C153.635 33.2115 154.247 33.0539 154.984 33.0539C155.653 33.0539 156.239 33.1945 156.742 33.4758C157.245 33.7527 157.635 34.1661 157.912 34.7158C158.189 35.2655 158.327 35.9452 158.327 36.7549V42.9999H156.416V36.985C156.416 36.2733 156.23 35.7172 155.86 35.3167C155.489 34.9118 154.98 34.7094 154.332 34.7094C153.889 34.7094 153.495 34.8053 153.15 34.9971C152.809 35.1888 152.538 35.4701 152.338 35.8408C152.142 36.2073 152.044 36.6505 152.044 37.1704ZM165.007 46.8863C164.227 46.8863 163.556 46.784 162.993 46.5794C162.435 46.3749 161.979 46.1043 161.625 45.7677C161.272 45.431 161.007 45.0624 160.833 44.6618L162.475 43.9843C162.591 44.1718 162.744 44.3699 162.936 44.5787C163.132 44.7918 163.396 44.9729 163.728 45.1221C164.065 45.2712 164.498 45.3458 165.026 45.3458C165.75 45.3458 166.349 45.1689 166.822 44.8152C167.295 44.4658 167.532 43.9076 167.532 43.1405V41.2101H167.41C167.295 41.4189 167.129 41.6512 166.912 41.9069C166.699 42.1625 166.404 42.3841 166.029 42.5716C165.654 42.7591 165.167 42.8529 164.566 42.8529C163.79 42.8529 163.091 42.6718 162.469 42.3096C161.851 41.9431 161.361 41.404 160.999 40.6924C160.641 39.9765 160.462 39.0965 160.462 38.0525C160.462 37.0084 160.639 36.1135 160.993 35.3678C161.35 34.6221 161.841 34.051 162.463 33.6547C163.085 33.2542 163.79 33.0539 164.578 33.0539C165.188 33.0539 165.68 33.1561 166.055 33.3607C166.43 33.561 166.722 33.7954 166.931 34.0638C167.144 34.3323 167.308 34.5688 167.423 34.7733H167.564V33.1817H169.436V43.2172C169.436 44.061 169.24 44.7535 168.848 45.2946C168.456 45.8358 167.926 46.2364 167.257 46.4963C166.592 46.7563 165.842 46.8863 165.007 46.8863ZM164.988 41.2677C165.537 41.2677 166.002 41.1398 166.381 40.8841C166.765 40.6242 167.054 40.2535 167.25 39.7719C167.451 39.2861 167.551 38.7044 167.551 38.0269C167.551 37.3664 167.453 36.7847 167.257 36.2819C167.061 35.779 166.773 35.387 166.394 35.1057C166.015 34.8202 165.546 34.6775 164.988 34.6775C164.412 34.6775 163.933 34.8266 163.549 35.1249C163.166 35.4189 162.876 35.8195 162.68 36.3266C162.488 36.8337 162.392 37.4005 162.392 38.0269C162.392 38.6704 162.49 39.235 162.686 39.7208C162.882 40.2066 163.172 40.5858 163.556 40.8586C163.944 41.1313 164.421 41.2677 164.988 41.2677Z" fill="#000247"/>
<path d="M180 315H10C4.47715 315 0 319.477 0 325V377C0 382.523 4.47715 387 10 387H180C185.523 387 190 382.523 190 377V325C190 319.477 185.523 315 180 315Z" fill="#FFB8BE"/>
<path d="M69.4385 358V344.909H74.1047C75.1189 344.909 75.9605 345.084 76.6296 345.433C77.3029 345.783 77.8057 346.266 78.1381 346.884C78.4705 347.498 78.6367 348.207 78.6367 349.013C78.6367 349.814 78.4683 350.519 78.1317 351.129C77.7993 351.734 77.2965 352.205 76.6232 352.541C75.9541 352.878 75.1125 353.046 74.0983 353.046H70.5635V351.346H73.9193C74.5585 351.346 75.0784 351.254 75.479 351.071C75.8838 350.888 76.18 350.621 76.3675 350.272C76.555 349.923 76.6487 349.503 76.6487 349.013C76.6487 348.518 76.5529 348.09 76.3611 347.728C76.1736 347.366 75.8774 347.089 75.4726 346.897C75.072 346.701 74.5458 346.603 73.8938 346.603H71.4137V358H69.4385ZM75.9009 352.094L79.1352 358H76.8852L73.7148 352.094H75.9009ZM84.9952 358.198C84.0278 358.198 83.1947 357.991 82.4959 357.578C81.8013 357.161 81.2643 356.575 80.8851 355.82C80.5101 355.062 80.3226 354.173 80.3226 353.155C80.3226 352.149 80.5101 351.263 80.8851 350.496C81.2643 349.729 81.7927 349.13 82.4703 348.7C83.1521 348.269 83.949 348.054 84.8609 348.054C85.4149 348.054 85.9518 348.146 86.4717 348.329C86.9916 348.512 87.4582 348.8 87.8716 349.192C88.2849 349.584 88.6109 350.093 88.8496 350.719C89.0882 351.342 89.2075 352.098 89.2075 352.989V353.666H81.4028V352.234H87.3346C87.3346 351.732 87.2324 351.286 87.0278 350.898C86.8233 350.506 86.5356 350.197 86.1649 349.972C85.7984 349.746 85.368 349.633 84.8737 349.633C84.3368 349.633 83.868 349.765 83.4675 350.029C83.0711 350.289 82.7643 350.63 82.547 351.052C82.3339 351.469 82.2274 351.923 82.2274 352.413V353.532C82.2274 354.188 82.3425 354.746 82.5726 355.207C82.8069 355.667 83.1329 356.018 83.5505 356.261C83.9682 356.5 84.4561 356.619 85.0143 356.619C85.3765 356.619 85.7068 356.568 86.0051 356.466C86.3034 356.359 86.5612 356.202 86.7785 355.993C86.9959 355.784 87.1621 355.526 87.2771 355.219L89.0861 355.545C88.9412 356.078 88.6812 356.545 88.3062 356.945C87.9355 357.342 87.4689 357.651 86.9064 357.872C86.3481 358.089 85.7111 358.198 84.9952 358.198ZM91.3281 348.182H93.2393V358.639C93.2393 359.295 93.12 359.849 92.8813 360.301C92.647 360.753 92.2975 361.096 91.833 361.33C91.3728 361.565 90.8039 361.682 90.1264 361.682C90.0582 361.682 89.9943 361.682 89.9346 361.682C89.8707 361.682 89.8046 361.68 89.7365 361.675V360.033C89.7961 360.033 89.8494 360.033 89.8963 360.033C89.9389 360.033 89.9879 360.033 90.0433 360.033C90.495 360.033 90.821 359.911 91.0213 359.668C91.2258 359.43 91.3281 359.082 91.3281 358.626V348.182ZM92.2741 346.667C91.9417 346.667 91.6562 346.556 91.4176 346.335C91.1832 346.109 91.066 345.84 91.066 345.529C91.066 345.214 91.1832 344.945 91.4176 344.724C91.6562 344.498 91.9417 344.385 92.2741 344.385C92.6065 344.385 92.8899 344.498 93.1242 344.724C93.3629 344.945 93.4822 345.214 93.4822 345.529C93.4822 345.84 93.3629 346.109 93.1242 346.335C92.8899 346.556 92.6065 346.667 92.2741 346.667ZM100.042 358.198C99.0747 358.198 98.2416 357.991 97.5427 357.578C96.8481 357.161 96.3112 356.575 95.9319 355.82C95.5569 355.062 95.3694 354.173 95.3694 353.155C95.3694 352.149 95.5569 351.263 95.9319 350.496C96.3112 349.729 96.8396 349.13 97.5172 348.7C98.199 348.269 98.9959 348.054 99.9078 348.054C100.461 348.054 100.998 348.146 101.518 348.329C102.038 348.512 102.505 348.8 102.918 349.192C103.331 349.584 103.657 350.093 103.896 350.719C104.135 351.342 104.254 352.098 104.254 352.989V353.666H96.4497V352.234H102.381C102.381 351.732 102.279 351.286 102.074 350.898C101.87 350.506 101.582 350.197 101.211 349.972C100.845 349.746 100.415 349.633 99.9206 349.633C99.3836 349.633 98.9149 349.765 98.5143 350.029C98.118 350.289 97.8112 350.63 97.5939 351.052C97.3808 351.469 97.2743 351.923 97.2743 352.413V353.532C97.2743 354.188 97.3893 354.746 97.6194 355.207C97.8538 355.667 98.1798 356.018 98.5974 356.261C99.015 356.5 99.503 356.619 100.061 356.619C100.423 356.619 100.753 356.568 101.052 356.466C101.35 356.359 101.608 356.202 101.825 355.993C102.042 355.784 102.209 355.526 102.324 355.219L104.133 355.545C103.988 356.078 103.728 356.545 103.353 356.945C102.982 357.342 102.515 357.651 101.953 357.872C101.395 358.089 100.758 358.198 100.042 358.198ZM110.51 358.198C109.56 358.198 108.742 357.983 108.056 357.553C107.374 357.118 106.85 356.519 106.483 355.756C106.117 354.994 105.934 354.12 105.934 353.136C105.934 352.138 106.121 351.259 106.496 350.496C106.871 349.729 107.4 349.13 108.081 348.7C108.763 348.269 109.566 348.054 110.491 348.054C111.237 348.054 111.902 348.192 112.485 348.469C113.069 348.742 113.54 349.126 113.898 349.62C114.26 350.114 114.475 350.692 114.544 351.352H112.684C112.581 350.892 112.347 350.496 111.98 350.163C111.618 349.831 111.132 349.665 110.523 349.665C109.99 349.665 109.524 349.805 109.123 350.087C108.727 350.364 108.418 350.76 108.196 351.276C107.975 351.787 107.864 352.392 107.864 353.091C107.864 353.807 107.973 354.425 108.19 354.945C108.407 355.464 108.714 355.867 109.11 356.153C109.511 356.438 109.982 356.581 110.523 356.581C110.885 356.581 111.213 356.515 111.507 356.383C111.806 356.246 112.055 356.053 112.255 355.801C112.46 355.55 112.603 355.247 112.684 354.893H114.544C114.475 355.528 114.269 356.095 113.924 356.594C113.578 357.092 113.116 357.484 112.537 357.77C111.961 358.055 111.286 358.198 110.51 358.198ZM121.171 348.182V349.716H115.808V348.182H121.171ZM117.246 345.83H119.157V355.117C119.157 355.488 119.213 355.767 119.323 355.955C119.434 356.138 119.577 356.263 119.752 356.332C119.931 356.396 120.124 356.428 120.333 356.428C120.487 356.428 120.621 356.417 120.736 356.396C120.851 356.374 120.941 356.357 121.004 356.344L121.35 357.923C121.239 357.966 121.081 358.009 120.877 358.051C120.672 358.098 120.416 358.124 120.11 358.128C119.607 358.136 119.138 358.047 118.703 357.859C118.269 357.672 117.917 357.382 117.649 356.99C117.38 356.598 117.246 356.106 117.246 355.513V345.83Z" fill="#000247"/>
<path d="M562 315H361C355.477 315 351 319.477 351 325V377C351 382.523 355.477 387 361 387H562C567.523 387 572 382.523 572 377V325C572 319.477 567.523 315 562 315Z" fill="#F5D83E"/>
<path d="M382.413 344.909V358H380.438V344.909H382.413ZM387.048 352.17V358H385.135V348.182H386.971V349.78H387.092C387.318 349.26 387.672 348.842 388.153 348.527C388.639 348.212 389.251 348.054 389.988 348.054C390.657 348.054 391.243 348.195 391.746 348.476C392.249 348.753 392.638 349.166 392.915 349.716C393.192 350.266 393.331 350.945 393.331 351.755V358H391.42V351.985C391.42 351.273 391.234 350.717 390.864 350.317C390.493 349.912 389.984 349.71 389.336 349.71C388.893 349.71 388.499 349.805 388.153 349.997C387.813 350.189 387.542 350.47 387.342 350.841C387.146 351.207 387.048 351.651 387.048 352.17ZM400.477 348.182V349.716H395.114V348.182H400.477ZM396.553 345.83H398.464V355.117C398.464 355.488 398.519 355.767 398.63 355.955C398.741 356.138 398.884 356.263 399.058 356.332C399.237 356.396 399.431 356.428 399.64 356.428C399.793 356.428 399.928 356.417 400.043 356.396C400.158 356.374 400.247 356.357 400.311 356.344L400.656 357.923C400.545 357.966 400.388 358.009 400.183 358.051C399.979 358.098 399.722 358.124 399.415 358.128C398.912 358.136 398.445 358.047 398.01 357.859C397.575 357.672 397.223 357.382 396.954 356.99C396.686 356.598 396.553 356.106 396.553 355.513V345.83ZM406.717 358.198C405.749 358.198 404.916 357.991 404.217 357.578C403.523 357.161 402.987 356.575 402.607 355.82C402.232 355.062 402.045 354.173 402.045 353.155C402.045 352.149 402.232 351.263 402.607 350.496C402.987 349.729 403.515 349.13 404.193 348.7C404.874 348.269 405.671 348.054 406.583 348.054C407.137 348.054 407.674 348.146 408.194 348.329C408.714 348.512 409.181 348.8 409.594 349.192C410.007 349.584 410.333 350.093 410.572 350.719C410.811 351.342 410.93 352.098 410.93 352.989V353.666H403.125V352.234H409.057C409.057 351.732 408.955 351.286 408.75 350.898C408.546 350.506 408.258 350.197 407.887 349.972C407.521 349.746 407.09 349.633 406.596 349.633C406.059 349.633 405.59 349.765 405.19 350.029C404.794 350.289 404.487 350.63 404.269 351.052C404.056 351.469 403.95 351.923 403.95 352.413V353.532C403.95 354.188 404.065 354.746 404.295 355.207C404.529 355.667 404.855 356.018 405.273 356.261C405.691 356.5 406.178 356.619 406.737 356.619C407.099 356.619 407.429 356.568 407.727 356.466C408.026 356.359 408.284 356.202 408.501 355.993C408.718 355.784 408.884 355.526 408.999 355.219L410.808 355.545C410.664 356.078 410.404 356.545 410.029 356.945C409.658 357.342 409.191 357.651 408.629 357.872C408.07 358.089 407.432 358.198 406.717 358.198ZM413.049 358V348.182H414.898V349.741H415C415.179 349.213 415.494 348.798 415.946 348.495C416.402 348.188 416.918 348.035 417.493 348.035C417.612 348.035 417.753 348.039 417.915 348.048C418.081 348.056 418.211 348.067 418.305 348.08V349.908C418.228 349.886 418.092 349.863 417.896 349.837C417.7 349.808 417.504 349.793 417.308 349.793C416.856 349.793 416.453 349.888 416.099 350.08C415.75 350.268 415.473 350.53 415.268 350.866C415.064 351.199 414.962 351.578 414.962 352.004V358H413.049ZM428.657 348.182L425.096 358H423.051L419.484 348.182H421.536L424.022 355.737H424.125L426.605 348.182H428.657ZM430.453 358V348.182H432.364V358H430.453ZM431.418 346.667C431.086 346.667 430.8 346.556 430.561 346.335C430.327 346.109 430.21 345.84 430.21 345.529C430.21 345.214 430.327 344.945 430.561 344.724C430.8 344.498 431.086 344.385 431.418 344.385C431.75 344.385 432.034 344.498 432.268 344.724C432.507 344.945 432.626 345.214 432.626 345.529C432.626 345.84 432.507 346.109 432.268 346.335C432.034 346.556 431.75 346.667 431.418 346.667ZM439.167 358.198C438.199 358.198 437.366 357.991 436.667 357.578C435.973 357.161 435.436 356.575 435.057 355.82C434.682 355.062 434.493 354.173 434.493 353.155C434.493 352.149 434.682 351.263 435.057 350.496C435.436 349.729 435.964 349.13 436.642 348.7C437.324 348.269 438.121 348.054 439.032 348.054C439.586 348.054 440.123 348.146 440.643 348.329C441.163 348.512 441.63 348.8 442.043 349.192C442.456 349.584 442.782 350.093 443.021 350.719C443.26 351.342 443.379 352.098 443.379 352.989V353.666H435.574V352.234H441.506C441.506 351.732 441.404 351.286 441.199 350.898C440.995 350.506 440.707 350.197 440.336 349.972C439.97 349.746 439.54 349.633 439.045 349.633C438.508 349.633 438.04 349.765 437.639 350.029C437.243 350.289 436.936 350.63 436.719 351.052C436.506 351.469 436.398 351.923 436.398 352.413V353.532C436.398 354.188 436.513 354.746 436.743 355.207C436.978 355.667 437.304 356.018 437.721 356.261C438.139 356.5 438.628 356.619 439.186 356.619C439.548 356.619 439.878 356.568 440.177 356.466C440.475 356.359 440.733 356.202 440.95 355.993C441.167 355.784 441.334 355.526 441.449 355.219L443.258 355.545C443.113 356.078 442.853 356.545 442.478 356.945C442.107 357.342 441.64 357.651 441.078 357.872C440.52 358.089 439.883 358.198 439.167 358.198ZM447.611 358L444.721 348.182H446.697L448.621 355.392H448.716L450.647 348.182H452.622L454.54 355.36H454.635L456.547 348.182H458.522L455.639 358H453.689L451.695 350.911H451.548L449.553 358H447.611ZM467.228 358L464.339 348.182H466.314L468.238 355.392H468.334L470.264 348.182H472.239L474.157 355.36H474.253L476.164 348.182H478.139L475.256 358H473.307L471.312 350.911H471.165L469.171 358H467.228ZM479.953 358V348.182H481.864V358H479.953ZM480.918 346.667C480.586 346.667 480.3 346.556 480.061 346.335C479.827 346.109 479.71 345.84 479.71 345.529C479.71 345.214 479.827 344.945 480.061 344.724C480.3 344.498 480.586 344.385 480.918 344.385C481.25 344.385 481.534 344.498 481.768 344.724C482.007 344.945 482.126 345.214 482.126 345.529C482.126 345.84 482.007 346.109 481.768 346.335C481.534 346.556 481.25 346.667 480.918 346.667ZM489.018 348.182V349.716H483.655V348.182H489.018ZM485.094 345.83H487.005V355.117C487.005 355.488 487.06 355.767 487.171 355.955C487.282 356.138 487.425 356.263 487.599 356.332C487.778 356.396 487.972 356.428 488.181 356.428C488.334 356.428 488.469 356.417 488.584 356.396C488.699 356.374 488.788 356.357 488.852 356.344L489.197 357.923C489.086 357.966 488.929 358.009 488.724 358.051C488.52 358.098 488.264 358.124 487.957 358.128C487.454 358.136 486.986 358.047 486.551 357.859C486.116 357.672 485.765 357.382 485.496 356.99C485.228 356.598 485.094 356.106 485.094 355.513V345.83ZM493.255 352.17V358H491.342V344.909H493.229V349.78H493.35C493.581 349.251 493.932 348.832 494.405 348.521C494.878 348.21 495.496 348.054 496.259 348.054C496.932 348.054 497.52 348.192 498.023 348.469C498.53 348.746 498.922 349.16 499.199 349.71C499.48 350.255 499.621 350.937 499.621 351.755V358H497.71V351.985C497.71 351.265 497.525 350.707 497.154 350.31C496.783 349.91 496.267 349.71 495.607 349.71C495.155 349.71 494.75 349.805 494.392 349.997C494.039 350.189 493.76 350.47 493.555 350.841C493.355 351.207 493.255 351.651 493.255 352.17ZM517.961 349.166H515.966C515.889 348.74 515.748 348.365 515.539 348.041C515.33 347.717 515.073 347.442 514.771 347.217C514.468 346.991 514.13 346.82 513.755 346.705C513.384 346.59 512.991 346.533 512.573 346.533C511.819 346.533 511.143 346.722 510.547 347.102C509.954 347.481 509.486 348.037 509.14 348.77C508.8 349.503 508.629 350.398 508.629 351.455C508.629 352.52 508.8 353.419 509.14 354.152C509.486 354.885 509.956 355.439 510.553 355.814C511.15 356.189 511.821 356.376 512.567 356.376C512.98 356.376 513.371 356.321 513.742 356.21C514.117 356.095 514.455 355.927 514.758 355.705C515.061 355.484 515.317 355.213 515.526 354.893C515.739 354.57 515.885 354.199 515.966 353.781L517.961 353.788C517.855 354.431 517.648 355.023 517.341 355.565C517.039 356.102 516.649 356.566 516.172 356.958C515.699 357.346 515.156 357.646 514.547 357.859C513.938 358.072 513.274 358.179 512.554 358.179C511.42 358.179 510.409 357.911 509.523 357.374C508.637 356.832 507.939 356.059 507.427 355.053C506.92 354.048 506.667 352.848 506.667 351.455C506.667 350.057 506.922 348.857 507.434 347.856C507.945 346.85 508.644 346.079 509.53 345.542C510.417 345.001 511.425 344.73 512.554 344.73C513.248 344.73 513.896 344.83 514.497 345.031C515.102 345.227 515.645 345.516 516.127 345.9C516.608 346.279 517.007 346.744 517.322 347.293C517.638 347.839 517.851 348.463 517.961 349.166ZM520.325 358V344.909H528.531V346.609H522.299V350.598H528.104V352.292H522.299V356.3H528.609V358H520.325ZM542.542 351.455C542.542 352.852 542.286 354.054 541.775 355.06C541.264 356.061 540.563 356.832 539.672 357.374C538.786 357.911 537.777 358.179 536.648 358.179C535.514 358.179 534.503 357.911 533.612 357.374C532.726 356.832 532.027 356.059 531.516 355.053C531.004 354.048 530.749 352.848 530.749 351.455C530.749 350.057 531.004 348.857 531.516 347.856C532.027 346.85 532.726 346.079 533.612 345.542C534.503 345.001 535.514 344.73 536.648 344.73C537.777 344.73 538.786 345.001 539.672 345.542C540.563 346.079 541.264 346.85 541.775 347.856C542.286 348.857 542.542 350.057 542.542 351.455ZM540.586 351.455C540.586 350.389 540.414 349.492 540.068 348.763C539.727 348.031 539.258 347.477 538.661 347.102C538.069 346.722 537.398 346.533 536.648 346.533C535.893 346.533 535.221 346.722 534.629 347.102C534.036 347.477 533.567 348.031 533.221 348.763C532.881 349.492 532.711 350.389 532.711 351.455C532.711 352.52 532.881 353.419 533.221 354.152C533.567 354.881 534.036 355.435 534.629 355.814C535.221 356.189 535.893 356.376 536.648 356.376C537.398 356.376 538.069 356.189 538.661 355.814C539.258 355.435 539.727 354.881 540.068 354.152C540.414 353.419 540.586 352.52 540.586 351.455Z" fill="#000247"/>
<path d="M913 315H743C737.477 315 733 319.477 733 325V377C733 382.523 737.477 387 743 387H913C918.523 387 923 382.523 923 377V325C923 319.477 918.523 315 913 315Z" fill="#A1E595"/>
<path d="M789.578 348.348C789.51 347.743 789.229 347.274 788.734 346.942C788.24 346.605 787.618 346.437 786.868 346.437C786.331 346.437 785.866 346.522 785.474 346.692C785.082 346.859 784.778 347.089 784.56 347.383C784.347 347.673 784.241 348.003 784.241 348.374C784.241 348.685 784.313 348.953 784.458 349.179C784.607 349.405 784.801 349.594 785.04 349.748C785.283 349.897 785.543 350.023 785.82 350.125C786.097 350.223 786.363 350.304 786.619 350.368L787.897 350.7C788.315 350.803 788.743 350.941 789.182 351.116C789.621 351.29 790.028 351.521 790.403 351.806C790.778 352.092 791.08 352.445 791.31 352.867C791.545 353.289 791.662 353.794 791.662 354.382C791.662 355.124 791.47 355.782 791.087 356.357C790.707 356.933 790.156 357.386 789.431 357.719C788.711 358.051 787.839 358.217 786.817 358.217C785.837 358.217 784.989 358.062 784.273 357.751C783.557 357.44 782.996 356.999 782.592 356.428C782.187 355.852 781.963 355.17 781.92 354.382H783.902C783.94 354.855 784.094 355.249 784.362 355.565C784.635 355.876 784.982 356.108 785.404 356.261C785.83 356.411 786.297 356.485 786.804 356.485C787.362 356.485 787.859 356.398 788.293 356.223C788.732 356.044 789.077 355.797 789.329 355.482C789.58 355.162 789.706 354.789 789.706 354.363C789.706 353.975 789.595 353.658 789.374 353.411C789.156 353.163 788.86 352.959 788.485 352.797C788.114 352.635 787.695 352.492 787.226 352.369L785.679 351.947C784.631 351.661 783.8 351.241 783.186 350.688C782.577 350.134 782.272 349.401 782.272 348.489C782.272 347.734 782.477 347.076 782.886 346.513C783.295 345.951 783.849 345.514 784.548 345.203C785.246 344.888 786.035 344.73 786.913 344.73C787.799 344.73 788.581 344.886 789.259 345.197C789.94 345.508 790.477 345.936 790.869 346.482C791.261 347.023 791.466 347.645 791.483 348.348H789.578ZM798.1 358.198C797.133 358.198 796.3 357.991 795.601 357.578C794.906 357.161 794.369 356.575 793.99 355.82C793.615 355.062 793.428 354.173 793.428 353.155C793.428 352.149 793.615 351.263 793.99 350.496C794.369 349.729 794.898 349.13 795.575 348.7C796.257 348.269 797.054 348.054 797.966 348.054C798.52 348.054 799.057 348.146 799.577 348.329C800.097 348.512 800.563 348.8 800.977 349.192C801.39 349.584 801.716 350.093 801.955 350.719C802.193 351.342 802.313 352.098 802.313 352.989V353.666H794.508V352.234H800.44C800.44 351.732 800.338 351.286 800.133 350.898C799.928 350.506 799.641 350.197 799.27 349.972C798.904 349.746 798.473 349.633 797.979 349.633C797.442 349.633 796.973 349.765 796.573 350.029C796.176 350.289 795.869 350.63 795.652 351.052C795.439 351.469 795.333 351.923 795.333 352.413V353.532C795.333 354.188 795.448 354.746 795.678 355.207C795.912 355.667 796.238 356.018 796.656 356.261C797.073 356.5 797.561 356.619 798.119 356.619C798.482 356.619 798.812 356.568 799.11 356.466C799.409 356.359 799.666 356.202 799.884 355.993C800.101 355.784 800.267 355.526 800.382 355.219L802.191 355.545C802.046 356.078 801.786 356.545 801.411 356.945C801.041 357.342 800.574 357.651 800.012 357.872C799.453 358.089 798.816 358.198 798.1 358.198ZM806.344 352.17V358H804.433V348.182H806.268V349.78H806.389C806.615 349.26 806.969 348.842 807.45 348.527C807.936 348.212 808.548 348.054 809.285 348.054C809.954 348.054 810.54 348.195 811.043 348.476C811.545 348.753 811.935 349.166 812.212 349.716C812.489 350.266 812.628 350.945 812.628 351.755V358H810.717V351.985C810.717 351.273 810.531 350.717 810.161 350.317C809.79 349.912 809.281 349.71 808.633 349.71C808.19 349.71 807.795 349.805 807.45 349.997C807.109 350.189 806.839 350.47 806.638 350.841C806.442 351.207 806.344 351.651 806.344 352.17ZM818.866 358.192C818.074 358.192 817.366 357.989 816.744 357.585C816.126 357.175 815.641 356.594 815.287 355.839C814.938 355.081 814.763 354.171 814.763 353.11C814.763 352.049 814.94 351.141 815.293 350.387C815.651 349.633 816.141 349.055 816.763 348.655C817.386 348.254 818.091 348.054 818.879 348.054C819.489 348.054 819.979 348.156 820.349 348.361C820.724 348.561 821.014 348.795 821.219 349.064C821.428 349.332 821.589 349.569 821.705 349.773H821.82V344.909H823.731V358H821.864V356.472H821.705C821.589 356.681 821.423 356.92 821.206 357.188C820.993 357.457 820.699 357.691 820.324 357.891C819.949 358.092 819.463 358.192 818.866 358.192ZM819.288 356.562C819.838 356.562 820.303 356.417 820.682 356.127C821.065 355.833 821.355 355.426 821.551 354.906C821.751 354.386 821.852 353.781 821.852 353.091C821.852 352.409 821.754 351.812 821.558 351.301C821.362 350.79 821.074 350.391 820.695 350.106C820.315 349.82 819.847 349.678 819.288 349.678C818.713 349.678 818.234 349.827 817.85 350.125C817.467 350.423 817.177 350.83 816.981 351.346C816.789 351.862 816.693 352.443 816.693 353.091C816.693 353.747 816.791 354.337 816.987 354.862C817.183 355.386 817.473 355.801 817.857 356.108C818.244 356.411 818.722 356.562 819.288 356.562ZM842.747 351.455C842.747 352.852 842.491 354.054 841.98 355.06C841.469 356.061 840.768 356.832 839.877 357.374C838.991 357.911 837.983 358.179 836.854 358.179C835.72 358.179 834.708 357.911 833.817 357.374C832.931 356.832 832.232 356.059 831.721 355.053C831.21 354.048 830.954 352.848 830.954 351.455C830.954 350.057 831.21 348.857 831.721 347.856C832.232 346.85 832.931 346.079 833.817 345.542C834.708 345.001 835.72 344.73 836.854 344.73C837.983 344.73 838.991 345.001 839.877 345.542C840.768 346.079 841.469 346.85 841.98 347.856C842.491 348.857 842.747 350.057 842.747 351.455ZM840.791 351.455C840.791 350.389 840.619 349.492 840.273 348.763C839.933 348.031 839.464 347.477 838.867 347.102C838.275 346.722 837.604 346.533 836.854 346.533C836.099 346.533 835.426 346.722 834.834 347.102C834.241 347.477 833.773 348.031 833.428 348.763C833.087 349.492 832.916 350.389 832.916 351.455C832.916 352.52 833.087 353.419 833.428 354.152C833.773 354.881 834.241 355.435 834.834 355.814C835.426 356.189 836.099 356.376 836.854 356.376C837.604 356.376 838.275 356.189 838.867 355.814C839.464 355.435 839.933 354.881 840.273 354.152C840.619 353.419 840.791 352.52 840.791 351.455ZM849.729 348.182V349.716H844.181V348.182H849.729ZM845.702 358V347.044C845.702 346.43 845.836 345.921 846.105 345.516C846.373 345.107 846.729 344.803 847.172 344.602C847.615 344.398 848.097 344.295 848.617 344.295C849 344.295 849.328 344.327 849.601 344.391C849.874 344.451 850.076 344.506 850.208 344.558L849.761 346.104C849.671 346.079 849.556 346.049 849.416 346.015C849.275 345.977 849.105 345.957 848.904 345.957C848.44 345.957 848.107 346.072 847.907 346.303C847.711 346.533 847.613 346.865 847.613 347.3V358H845.702ZM856.373 348.182V349.716H850.825V348.182H856.373ZM852.346 358V347.044C852.346 346.43 852.481 345.921 852.749 345.516C853.018 345.107 853.373 344.803 853.817 344.602C854.26 344.398 854.741 344.295 855.261 344.295C855.645 344.295 855.973 344.327 856.246 344.391C856.518 344.451 856.721 344.506 856.853 344.558L856.405 346.104C856.316 346.079 856.201 346.049 856.06 346.015C855.92 345.977 855.749 345.957 855.549 345.957C855.084 345.957 854.752 346.072 854.552 346.303C854.356 346.533 854.258 346.865 854.258 347.3V358H852.346ZM862.19 358.198C861.223 358.198 860.39 357.991 859.691 357.578C858.996 357.161 858.459 356.575 858.08 355.82C857.705 355.062 857.518 354.173 857.518 353.155C857.518 352.149 857.705 351.263 858.08 350.496C858.459 349.729 858.988 349.13 859.665 348.7C860.347 348.269 861.144 348.054 862.056 348.054C862.61 348.054 863.147 348.146 863.667 348.329C864.187 348.512 864.653 348.8 865.067 349.192C865.48 349.584 865.806 350.093 866.045 350.719C866.283 351.342 866.403 352.098 866.403 352.989V353.666H858.598V352.234H864.53C864.53 351.732 864.427 351.286 864.223 350.898C864.018 350.506 863.731 350.197 863.36 349.972C862.993 349.746 862.563 349.633 862.069 349.633C861.532 349.633 861.063 349.765 860.662 350.029C860.266 350.289 859.959 350.63 859.742 351.052C859.529 351.469 859.422 351.923 859.422 352.413V353.532C859.422 354.188 859.537 354.746 859.768 355.207C860.002 355.667 860.328 356.018 860.746 356.261C861.163 356.5 861.651 356.619 862.209 356.619C862.572 356.619 862.902 356.568 863.2 356.466C863.498 356.359 863.756 356.202 863.974 355.993C864.191 355.784 864.357 355.526 864.472 355.219L866.281 355.545C866.136 356.078 865.876 356.545 865.501 356.945C865.131 357.342 864.664 357.651 864.101 357.872C863.543 358.089 862.906 358.198 862.19 358.198ZM868.523 358V348.182H870.37V349.741H870.473C870.652 349.213 870.967 348.798 871.419 348.495C871.875 348.188 872.39 348.035 872.966 348.035C873.085 348.035 873.225 348.039 873.387 348.048C873.554 348.056 873.684 348.067 873.777 348.08V349.908C873.701 349.886 873.564 349.863 873.368 349.837C873.172 349.808 872.976 349.793 872.78 349.793C872.328 349.793 871.926 349.888 871.572 350.08C871.223 350.268 870.946 350.53 870.741 350.866C870.537 351.199 870.434 351.578 870.434 352.004V358H868.523Z" fill="#000247"/>
<path d="M180 139H12C5.92487 139 1 143.925 1 150V202C1 208.075 5.92487 213 12 213H180C186.075 213 191 208.075 191 202V150C191 143.925 186.075 139 180 139Z" stroke="#00306A" stroke-width="2"/>
<path d="M35.0785 173.348C35.0103 172.743 34.7291 172.274 34.2348 171.942C33.7405 171.605 33.1183 171.437 32.3683 171.437C31.8314 171.437 31.3669 171.522 30.9748 171.692C30.5828 171.859 30.2781 172.089 30.0608 172.383C29.8477 172.673 29.7412 173.003 29.7412 173.374C29.7412 173.685 29.8136 173.953 29.9585 174.179C30.1076 174.405 30.3015 174.594 30.5402 174.748C30.7831 174.897 31.043 175.023 31.32 175.125C31.597 175.223 31.8633 175.304 32.119 175.368L33.3974 175.7C33.815 175.803 34.2433 175.941 34.6822 176.116C35.1211 176.29 35.5281 176.521 35.9031 176.806C36.2781 177.092 36.5807 177.445 36.8108 177.867C37.0451 178.289 37.1623 178.794 37.1623 179.382C37.1623 180.124 36.9706 180.782 36.587 181.357C36.2078 181.933 35.6559 182.386 34.9315 182.719C34.2113 183.051 33.3399 183.217 32.3172 183.217C31.337 183.217 30.489 183.062 29.7731 182.751C29.0572 182.44 28.4968 181.999 28.092 181.428C27.6872 180.852 27.4635 180.17 27.4209 179.382H29.4024C29.4407 179.855 29.5942 180.249 29.8626 180.565C30.1353 180.876 30.4826 181.108 30.9045 181.261C31.3307 181.411 31.7973 181.485 32.3044 181.485C32.8626 181.485 33.3591 181.398 33.7937 181.223C34.2326 181.044 34.5778 180.797 34.8292 180.482C35.0807 180.162 35.2064 179.789 35.2064 179.363C35.2064 178.975 35.0956 178.658 34.874 178.411C34.6567 178.163 34.3605 177.959 33.9855 177.797C33.6147 177.635 33.195 177.492 32.7263 177.369L31.1794 176.947C30.1311 176.661 29.3001 176.241 28.6865 175.688C28.0771 175.134 27.7724 174.401 27.7724 173.489C27.7724 172.734 27.977 172.076 28.3861 171.513C28.7951 170.951 29.3491 170.514 30.048 170.203C30.7468 169.888 31.5352 169.73 32.413 169.73C33.2994 169.73 34.0814 169.886 34.7589 170.197C35.4407 170.508 35.9777 170.936 36.3697 171.482C36.7618 172.023 36.9663 172.645 36.9834 173.348H35.0785ZM43.5048 183.198C42.5546 183.198 41.7364 182.983 41.0503 182.553C40.3685 182.118 39.8443 181.519 39.4779 180.756C39.1114 179.994 38.9281 179.12 38.9281 178.136C38.9281 177.138 39.1156 176.259 39.4906 175.496C39.8656 174.729 40.394 174.13 41.0759 173.7C41.7577 173.269 42.5609 173.054 43.4857 173.054C44.2314 173.054 44.8962 173.192 45.48 173.469C46.0638 173.742 46.5347 174.126 46.8926 174.62C47.2548 175.114 47.47 175.692 47.5382 176.352H45.6781C45.5759 175.892 45.3415 175.496 44.975 175.163C44.6128 174.831 44.127 174.665 43.5176 174.665C42.985 174.665 42.5183 174.805 42.1178 175.087C41.7215 175.364 41.4125 175.76 41.1909 176.276C40.9693 176.787 40.8585 177.392 40.8585 178.091C40.8585 178.807 40.9672 179.425 41.1845 179.945C41.4019 180.464 41.7087 180.867 42.105 181.153C42.5055 181.438 42.9764 181.581 43.5176 181.581C43.8798 181.581 44.208 181.515 44.502 181.383C44.8003 181.246 45.0496 181.053 45.2499 180.801C45.4544 180.55 45.5972 180.247 45.6781 179.893H47.5382C47.47 180.528 47.2634 181.095 46.9182 181.594C46.573 182.092 46.1107 182.484 45.5311 182.77C44.9558 183.055 44.2804 183.198 43.5048 183.198ZM49.5821 183V173.182H51.4294V174.741H51.5316C51.7106 174.213 52.026 173.798 52.4777 173.495C52.9336 173.188 53.4493 173.035 54.0245 173.035C54.1439 173.035 54.2845 173.039 54.4464 173.048C54.6126 173.056 54.7426 173.067 54.8363 173.08V174.908C54.7596 174.886 54.6233 174.863 54.4272 174.837C54.2312 174.808 54.0352 174.793 53.8392 174.793C53.3875 174.793 52.9848 174.888 52.6311 175.08C52.2817 175.268 52.0047 175.53 51.8001 175.866C51.5956 176.199 51.4933 176.578 51.4933 177.004V183H49.5821ZM60.3703 183.198C59.4029 183.198 58.5698 182.991 57.871 182.578C57.1764 182.161 56.6394 181.575 56.2602 180.82C55.8852 180.062 55.6977 179.173 55.6977 178.155C55.6977 177.149 55.8852 176.263 56.2602 175.496C56.6394 174.729 57.1678 174.13 57.8454 173.7C58.5272 173.269 59.3241 173.054 60.236 173.054C60.79 173.054 61.3269 173.146 61.8468 173.329C62.3667 173.512 62.8333 173.8 63.2467 174.192C63.66 174.584 63.986 175.093 64.2247 175.719C64.4633 176.342 64.5826 177.098 64.5826 177.989V178.666H56.7779V177.234H62.7097C62.7097 176.732 62.6075 176.286 62.4029 175.898C62.1984 175.506 61.9107 175.197 61.54 174.972C61.1735 174.746 60.7431 174.633 60.2488 174.633C59.7119 174.633 59.2431 174.765 58.8426 175.029C58.4462 175.289 58.1394 175.63 57.9221 176.052C57.709 176.469 57.6025 176.923 57.6025 177.413V178.532C57.6025 179.188 57.7176 179.746 57.9477 180.207C58.182 180.667 58.508 181.018 58.9256 181.261C59.3433 181.5 59.8312 181.619 60.3894 181.619C60.7516 181.619 61.0819 181.568 61.3802 181.466C61.6785 181.359 61.9363 181.202 62.1536 180.993C62.371 180.784 62.5372 180.526 62.6522 180.219L64.4612 180.545C64.3163 181.078 64.0563 181.545 63.6813 181.945C63.3106 182.342 62.844 182.651 62.2815 182.872C61.7232 183.089 61.0862 183.198 60.3703 183.198ZM70.9347 183.198C69.9674 183.198 69.1343 182.991 68.4354 182.578C67.7408 182.161 67.2039 181.575 66.8246 180.82C66.4496 180.062 66.2621 179.173 66.2621 178.155C66.2621 177.149 66.4496 176.263 66.8246 175.496C67.2039 174.729 67.7323 174.13 68.4098 173.7C69.0917 173.269 69.8885 173.054 70.8005 173.054C71.3544 173.054 71.8914 173.146 72.4113 173.329C72.9312 173.512 73.3978 173.8 73.8111 174.192C74.2245 174.584 74.5505 175.093 74.7891 175.719C75.0277 176.342 75.1471 177.098 75.1471 177.989V178.666H67.3424V177.234H73.2742C73.2742 176.732 73.1719 176.286 72.9674 175.898C72.7628 175.506 72.4752 175.197 72.1044 174.972C71.738 174.746 71.3076 174.633 70.8133 174.633C70.2763 174.633 69.8076 174.765 69.407 175.029C69.0107 175.289 68.7039 175.63 68.4866 176.052C68.2735 176.469 68.1669 176.923 68.1669 177.413V178.532C68.1669 179.188 68.282 179.746 68.5121 180.207C68.7465 180.667 69.0725 181.018 69.4901 181.261C69.9077 181.5 70.3956 181.619 70.9539 181.619C71.3161 181.619 71.6464 181.568 71.9446 181.466C72.2429 181.359 72.5008 181.202 72.7181 180.993C72.9354 180.784 73.1016 180.526 73.2167 180.219L75.0256 180.545C74.8807 181.078 74.6208 181.545 74.2458 181.945C73.875 182.342 73.4084 182.651 72.8459 182.872C72.2877 183.089 71.6506 183.198 70.9347 183.198ZM79.1788 177.17V183H77.2676V173.182H79.1021V174.78H79.2236C79.4494 174.26 79.8031 173.842 80.2847 173.527C80.7705 173.212 81.382 173.054 82.1192 173.054C82.7882 173.054 83.3742 173.195 83.877 173.476C84.3798 173.753 84.7698 174.166 85.0467 174.716C85.3237 175.266 85.4622 175.945 85.4622 176.755V183H83.551V176.985C83.551 176.273 83.3656 175.717 82.9949 175.317C82.6242 174.912 82.1149 174.71 81.4672 174.71C81.024 174.71 80.6298 174.805 80.2847 174.997C79.9438 175.189 79.6732 175.47 79.4729 175.841C79.2769 176.207 79.1788 176.651 79.1788 177.17ZM92.7891 183V173.182H94.6364V174.741H94.7387C94.9177 174.213 95.233 173.798 95.6847 173.495C96.1407 173.188 96.6563 173.035 97.2316 173.035C97.3509 173.035 97.4915 173.039 97.6535 173.048C97.8196 173.056 97.9496 173.067 98.0434 173.08V174.908C97.9667 174.886 97.8303 174.863 97.6343 174.837C97.4383 174.808 97.2422 174.793 97.0462 174.793C96.5945 174.793 96.1918 174.888 95.8381 175.08C95.4887 175.268 95.2117 175.53 95.0071 175.866C94.8026 176.199 94.7003 176.578 94.7003 177.004V183H92.7891ZM103.577 183.198C102.61 183.198 101.776 182.991 101.078 182.578C100.383 182.161 99.8465 181.575 99.4672 180.82C99.0922 180.062 98.9047 179.173 98.9047 178.155C98.9047 177.149 99.0922 176.263 99.4672 175.496C99.8465 174.729 100.374 174.13 101.052 173.7C101.734 173.269 102.531 173.054 103.443 173.054C103.997 173.054 104.534 173.146 105.053 173.329C105.573 173.512 106.04 173.8 106.453 174.192C106.867 174.584 107.193 175.093 107.431 175.719C107.67 176.342 107.789 177.098 107.789 177.989V178.666H99.985V177.234H105.916C105.916 176.732 105.814 176.286 105.61 175.898C105.405 175.506 105.117 175.197 104.747 174.972C104.38 174.746 103.95 174.633 103.455 174.633C102.919 174.633 102.45 174.765 102.049 175.029C101.653 175.289 101.346 175.63 101.129 176.052C100.916 176.469 100.809 176.923 100.809 177.413V178.532C100.809 179.188 100.924 179.746 101.154 180.207C101.389 180.667 101.715 181.018 102.132 181.261C102.55 181.5 103.038 181.619 103.596 181.619C103.958 181.619 104.289 181.568 104.587 181.466C104.885 181.359 105.143 181.202 105.36 180.993C105.578 180.784 105.744 180.526 105.859 180.219L107.668 180.545C107.523 181.078 107.263 181.545 106.888 181.945C106.517 182.342 106.051 182.651 105.488 182.872C104.93 183.089 104.293 183.198 103.577 183.198ZM117.267 175.579L115.535 175.886C115.462 175.664 115.347 175.453 115.19 175.253C115.036 175.053 114.827 174.888 114.563 174.761C114.299 174.633 113.969 174.569 113.572 174.569C113.031 174.569 112.58 174.69 112.217 174.933C111.855 175.172 111.674 175.481 111.674 175.86C111.674 176.188 111.795 176.452 112.038 176.653C112.281 176.853 112.673 177.017 113.214 177.145L114.774 177.503C115.678 177.712 116.351 178.033 116.794 178.468C117.237 178.903 117.459 179.467 117.459 180.162C117.459 180.75 117.288 181.274 116.947 181.734C116.611 182.19 116.14 182.548 115.535 182.808C114.934 183.068 114.237 183.198 113.445 183.198C112.345 183.198 111.448 182.964 110.754 182.495C110.059 182.022 109.633 181.351 109.475 180.482L111.322 180.2C111.438 180.682 111.674 181.046 112.032 181.293C112.39 181.536 112.857 181.658 113.432 181.658C114.058 181.658 114.559 181.528 114.934 181.268C115.309 181.004 115.496 180.682 115.496 180.303C115.496 179.996 115.381 179.738 115.151 179.529C114.925 179.32 114.578 179.163 114.109 179.056L112.447 178.692C111.531 178.483 110.854 178.151 110.415 177.695C109.98 177.239 109.763 176.661 109.763 175.962C109.763 175.383 109.925 174.876 110.249 174.441C110.572 174.006 111.02 173.668 111.591 173.425C112.162 173.178 112.816 173.054 113.553 173.054C114.614 173.054 115.45 173.284 116.059 173.744C116.668 174.2 117.071 174.812 117.267 175.579ZM125.78 178.928V173.182H127.697V183H125.818V181.3H125.716C125.49 181.824 125.128 182.261 124.629 182.61C124.135 182.955 123.519 183.128 122.782 183.128C122.151 183.128 121.593 182.989 121.107 182.712C120.626 182.431 120.246 182.016 119.969 181.466C119.697 180.916 119.56 180.237 119.56 179.427V173.182H121.471V179.197C121.471 179.866 121.657 180.398 122.028 180.795C122.398 181.191 122.88 181.389 123.472 181.389C123.83 181.389 124.186 181.3 124.54 181.121C124.898 180.942 125.194 180.671 125.428 180.309C125.667 179.947 125.784 179.487 125.78 178.928ZM130.265 183V173.182H132.1V174.78H132.221C132.426 174.239 132.76 173.817 133.225 173.514C133.689 173.207 134.245 173.054 134.893 173.054C135.549 173.054 136.099 173.207 136.542 173.514C136.99 173.821 137.32 174.243 137.533 174.78H137.635C137.87 174.256 138.243 173.838 138.754 173.527C139.265 173.212 139.875 173.054 140.582 173.054C141.473 173.054 142.199 173.333 142.762 173.891C143.328 174.45 143.612 175.291 143.612 176.416V183H141.701V176.595C141.701 175.93 141.52 175.449 141.157 175.151C140.795 174.852 140.363 174.703 139.86 174.703C139.238 174.703 138.754 174.895 138.409 175.278C138.064 175.658 137.891 176.146 137.891 176.742V183H135.986V176.474C135.986 175.941 135.82 175.513 135.488 175.189C135.155 174.865 134.723 174.703 134.19 174.703C133.828 174.703 133.493 174.799 133.186 174.991C132.884 175.178 132.639 175.44 132.451 175.777C132.268 176.114 132.176 176.504 132.176 176.947V183H130.265ZM150.405 183.198C149.438 183.198 148.605 182.991 147.906 182.578C147.211 182.161 146.674 181.575 146.295 180.82C145.92 180.062 145.732 179.173 145.732 178.155C145.732 177.149 145.92 176.263 146.295 175.496C146.674 174.729 147.203 174.13 147.88 173.7C148.562 173.269 149.359 173.054 150.271 173.054C150.825 173.054 151.362 173.146 151.882 173.329C152.401 173.512 152.868 173.8 153.281 174.192C153.695 174.584 154.021 175.093 154.259 175.719C154.498 176.342 154.617 177.098 154.617 177.989V178.666H146.813V177.234H152.744C152.744 176.732 152.642 176.286 152.438 175.898C152.233 175.506 151.945 175.197 151.575 174.972C151.208 174.746 150.778 174.633 150.284 174.633C149.747 174.633 149.278 174.765 148.877 175.029C148.481 175.289 148.174 175.63 147.957 176.052C147.744 176.469 147.637 176.923 147.637 177.413V178.532C147.637 179.188 147.752 179.746 147.982 180.207C148.217 180.667 148.543 181.018 148.96 181.261C149.378 181.5 149.866 181.619 150.424 181.619C150.786 181.619 151.117 181.568 151.415 181.466C151.713 181.359 151.971 181.202 152.188 180.993C152.406 180.784 152.572 180.526 152.687 180.219L154.496 180.545C154.351 181.078 154.091 181.545 153.716 181.945C153.345 182.342 152.879 182.651 152.316 182.872C151.758 183.089 151.121 183.198 150.405 183.198ZM164.095 175.579L162.363 175.886C162.29 175.664 162.175 175.453 162.018 175.253C161.864 175.053 161.656 174.888 161.391 174.761C161.127 174.633 160.797 174.569 160.401 174.569C159.859 174.569 159.408 174.69 159.045 174.933C158.683 175.172 158.502 175.481 158.502 175.86C158.502 176.188 158.624 176.452 158.866 176.653C159.109 176.853 159.501 177.017 160.043 177.145L161.602 177.503C162.506 177.712 163.179 178.033 163.622 178.468C164.065 178.903 164.287 179.467 164.287 180.162C164.287 180.75 164.116 181.274 163.776 181.734C163.439 182.19 162.968 182.548 162.363 182.808C161.762 183.068 161.065 183.198 160.273 183.198C159.173 183.198 158.276 182.964 157.582 182.495C156.887 182.022 156.461 181.351 156.303 180.482L158.151 180.2C158.266 180.682 158.502 181.046 158.86 181.293C159.218 181.536 159.685 181.658 160.26 181.658C160.886 181.658 161.387 181.528 161.762 181.268C162.137 181.004 162.325 180.682 162.325 180.303C162.325 179.996 162.21 179.738 161.979 179.529C161.754 179.32 161.406 179.163 160.938 179.056L159.276 178.692C158.359 178.483 157.682 178.151 157.243 177.695C156.808 177.239 156.591 176.661 156.591 175.962C156.591 175.383 156.753 174.876 157.077 174.441C157.401 174.006 157.848 173.668 158.419 173.425C158.99 173.178 159.644 173.054 160.381 173.054C161.442 173.054 162.278 173.284 162.887 173.744C163.496 174.2 163.899 174.812 164.095 175.579Z" fill="#000247"/>
<path d="M562 139H364C357.925 139 353 143.925 353 150V202C353 208.075 357.925 213 364 213H562C568.075 213 573 208.075 573 202V150C573 143.925 568.075 139 562 139Z" stroke="#00306A" stroke-width="2"/>
<path d="M377.538 158.909V172H375.562V158.909H377.538ZM382.173 166.17V172H380.26V162.182H382.096V163.78H382.217C382.443 163.26 382.797 162.842 383.278 162.527C383.764 162.212 384.376 162.054 385.113 162.054C385.782 162.054 386.368 162.195 386.871 162.476C387.374 162.753 387.763 163.166 388.04 163.716C388.317 164.266 388.456 164.945 388.456 165.755V172H386.545V165.985C386.545 165.273 386.359 164.717 385.989 164.317C385.618 163.912 385.109 163.71 384.461 163.71C384.018 163.71 383.624 163.805 383.278 163.997C382.938 164.189 382.667 164.47 382.467 164.841C382.271 165.207 382.173 165.651 382.173 166.17ZM395.602 162.182V163.716H390.239V162.182H395.602ZM391.678 159.83H393.589V169.117C393.589 169.488 393.644 169.767 393.755 169.955C393.866 170.138 394.009 170.263 394.183 170.332C394.362 170.396 394.556 170.428 394.765 170.428C394.918 170.428 395.053 170.417 395.168 170.396C395.283 170.374 395.372 170.357 395.436 170.344L395.781 171.923C395.67 171.966 395.513 172.009 395.308 172.051C395.104 172.098 394.847 172.124 394.54 172.128C394.037 172.136 393.57 172.047 393.135 171.859C392.7 171.672 392.348 171.382 392.079 170.99C391.811 170.598 391.678 170.106 391.678 169.513V159.83ZM401.842 172.198C400.874 172.198 400.041 171.991 399.342 171.578C398.648 171.161 398.112 170.575 397.732 169.82C397.357 169.062 397.17 168.173 397.17 167.155C397.17 166.149 397.357 165.263 397.732 164.496C398.112 163.729 398.64 163.13 399.318 162.7C399.999 162.269 400.796 162.054 401.708 162.054C402.262 162.054 402.799 162.146 403.319 162.329C403.839 162.512 404.306 162.8 404.719 163.192C405.132 163.584 405.458 164.093 405.697 164.719C405.936 165.342 406.055 166.098 406.055 166.989V167.666H398.25V166.234H404.182C404.182 165.732 404.08 165.286 403.875 164.898C403.671 164.506 403.383 164.197 403.012 163.972C402.646 163.746 402.215 163.633 401.721 163.633C401.184 163.633 400.715 163.765 400.315 164.029C399.919 164.289 399.612 164.63 399.394 165.052C399.181 165.469 399.075 165.923 399.075 166.413V167.532C399.075 168.188 399.19 168.746 399.42 169.207C399.654 169.667 399.98 170.018 400.398 170.261C400.816 170.5 401.303 170.619 401.862 170.619C402.224 170.619 402.554 170.568 402.852 170.466C403.151 170.359 403.409 170.202 403.626 169.993C403.843 169.784 404.009 169.526 404.124 169.219L405.933 169.545C405.789 170.078 405.529 170.545 405.154 170.945C404.783 171.342 404.316 171.651 403.754 171.872C403.195 172.089 402.557 172.198 401.842 172.198ZM408.174 172V162.182H410.023V163.741H410.125C410.304 163.213 410.619 162.798 411.071 162.495C411.527 162.188 412.043 162.035 412.618 162.035C412.737 162.035 412.878 162.039 413.04 162.048C413.206 162.056 413.336 162.067 413.43 162.08V163.908C413.353 163.886 413.217 163.863 413.021 163.837C412.825 163.808 412.629 163.793 412.433 163.793C411.981 163.793 411.578 163.888 411.224 164.08C410.875 164.268 410.598 164.53 410.393 164.866C410.189 165.199 410.087 165.578 410.087 166.004V172H408.174ZM423.782 162.182L420.221 172H418.176L414.609 162.182H416.661L419.147 169.737H419.25L421.73 162.182H423.782ZM425.578 172V162.182H427.489V172H425.578ZM426.543 160.667C426.211 160.667 425.925 160.556 425.686 160.335C425.452 160.109 425.335 159.84 425.335 159.529C425.335 159.214 425.452 158.945 425.686 158.724C425.925 158.498 426.211 158.385 426.543 158.385C426.875 158.385 427.159 158.498 427.393 158.724C427.632 158.945 427.751 159.214 427.751 159.529C427.751 159.84 427.632 160.109 427.393 160.335C427.159 160.556 426.875 160.667 426.543 160.667ZM434.292 172.198C433.324 172.198 432.491 171.991 431.792 171.578C431.098 171.161 430.561 170.575 430.182 169.82C429.807 169.062 429.618 168.173 429.618 167.155C429.618 166.149 429.807 165.263 430.182 164.496C430.561 163.729 431.089 163.13 431.767 162.7C432.449 162.269 433.246 162.054 434.157 162.054C434.711 162.054 435.248 162.146 435.768 162.329C436.288 162.512 436.755 162.8 437.168 163.192C437.581 163.584 437.907 164.093 438.146 164.719C438.385 165.342 438.504 166.098 438.504 166.989V167.666H430.699V166.234H436.631C436.631 165.732 436.529 165.286 436.324 164.898C436.12 164.506 435.832 164.197 435.461 163.972C435.095 163.746 434.665 163.633 434.17 163.633C433.633 163.633 433.165 163.765 432.764 164.029C432.368 164.289 432.061 164.63 431.844 165.052C431.631 165.469 431.523 165.923 431.523 166.413V167.532C431.523 168.188 431.638 168.746 431.868 169.207C432.103 169.667 432.429 170.018 432.846 170.261C433.264 170.5 433.753 170.619 434.311 170.619C434.673 170.619 435.003 170.568 435.302 170.466C435.6 170.359 435.858 170.202 436.075 169.993C436.292 169.784 436.459 169.526 436.574 169.219L438.383 169.545C438.238 170.078 437.978 170.545 437.603 170.945C437.232 171.342 436.765 171.651 436.203 171.872C435.645 172.089 435.008 172.198 434.292 172.198ZM442.736 172L439.846 162.182H441.822L443.746 169.392H443.841L445.772 162.182H447.747L449.665 169.36H449.76L451.672 162.182H453.647L450.764 172H448.814L446.82 164.911H446.673L444.678 172H442.736ZM462.353 172L459.464 162.182H461.439L463.363 169.392H463.459L465.389 162.182H467.364L469.282 169.36H469.378L471.289 162.182H473.264L470.381 172H468.432L466.437 164.911H466.29L464.296 172H462.353ZM475.078 172V162.182H476.989V172H475.078ZM476.043 160.667C475.711 160.667 475.425 160.556 475.186 160.335C474.952 160.109 474.835 159.84 474.835 159.529C474.835 159.214 474.952 158.945 475.186 158.724C475.425 158.498 475.711 158.385 476.043 158.385C476.375 158.385 476.659 158.498 476.893 158.724C477.132 158.945 477.251 159.214 477.251 159.529C477.251 159.84 477.132 160.109 476.893 160.335C476.659 160.556 476.375 160.667 476.043 160.667ZM484.143 162.182V163.716H478.78V162.182H484.143ZM480.219 159.83H482.13V169.117C482.13 169.488 482.185 169.767 482.296 169.955C482.407 170.138 482.55 170.263 482.724 170.332C482.903 170.396 483.097 170.428 483.306 170.428C483.459 170.428 483.594 170.417 483.709 170.396C483.824 170.374 483.913 170.357 483.977 170.344L484.322 171.923C484.211 171.966 484.054 172.009 483.849 172.051C483.645 172.098 483.389 172.124 483.082 172.128C482.579 172.136 482.111 172.047 481.676 171.859C481.241 171.672 480.89 171.382 480.621 170.99C480.353 170.598 480.219 170.106 480.219 169.513V159.83ZM488.38 166.17V172H486.467V158.909H488.354V163.78H488.475C488.706 163.251 489.057 162.832 489.53 162.521C490.003 162.21 490.621 162.054 491.384 162.054C492.057 162.054 492.645 162.192 493.148 162.469C493.655 162.746 494.047 163.16 494.324 163.71C494.605 164.255 494.746 164.937 494.746 165.755V172H492.835V165.985C492.835 165.265 492.65 164.707 492.279 164.31C491.908 163.91 491.392 163.71 490.732 163.71C490.28 163.71 489.875 163.805 489.517 163.997C489.164 164.189 488.885 164.47 488.68 164.841C488.48 165.207 488.38 165.651 488.38 166.17ZM502.214 172V158.909H504.189V164.598H510.715V158.909H512.697V172H510.715V166.292H504.189V172H502.214ZM515.419 172V162.182H517.331V172H515.419ZM516.385 160.667C516.052 160.667 515.767 160.556 515.528 160.335C515.294 160.109 515.177 159.84 515.177 159.529C515.177 159.214 515.294 158.945 515.528 158.724C515.767 158.498 516.052 158.385 516.385 158.385C516.717 158.385 517 158.498 517.234 158.724C517.473 158.945 517.593 159.214 517.593 159.529C517.593 159.84 517.473 160.109 517.234 160.335C517 160.556 516.717 160.667 516.385 160.667ZM519.901 172V162.182H521.749V163.741H521.852C522.031 163.213 522.345 162.798 522.797 162.495C523.253 162.188 523.769 162.035 524.344 162.035C524.464 162.035 524.604 162.039 524.766 162.048C524.933 162.056 525.062 162.067 525.156 162.08V163.908C525.08 163.886 524.943 163.863 524.747 163.837C524.551 163.808 524.355 163.793 524.159 163.793C523.707 163.793 523.305 163.888 522.951 164.08C522.602 164.268 522.325 164.53 522.12 164.866C521.915 165.199 521.812 165.578 521.812 166.004V172H519.901ZM526.81 172V162.182H528.721V172H526.81ZM527.775 160.667C527.443 160.667 527.157 160.556 526.919 160.335C526.684 160.109 526.567 159.84 526.567 159.529C526.567 159.214 526.684 158.945 526.919 158.724C527.157 158.498 527.443 158.385 527.775 158.385C528.108 158.385 528.39 158.498 528.625 158.724C528.863 158.945 528.982 159.214 528.982 159.529C528.982 159.84 528.863 160.109 528.625 160.335C528.39 160.556 528.108 160.667 527.775 160.667ZM533.203 166.17V172H531.293V162.182H533.127V163.78H533.249C533.474 163.26 533.828 162.842 534.31 162.527C534.795 162.212 535.406 162.054 536.143 162.054C536.812 162.054 537.398 162.195 537.901 162.476C538.404 162.753 538.795 163.166 539.072 163.716C539.349 164.266 539.487 164.945 539.487 165.755V172H537.576V165.985C537.576 165.273 537.391 164.717 537.02 164.317C536.649 163.912 536.14 163.71 535.492 163.71C535.049 163.71 534.655 163.805 534.31 163.997C533.969 164.189 533.697 164.47 533.497 164.841C533.301 165.207 533.203 165.651 533.203 166.17ZM546.167 175.886C545.387 175.886 544.716 175.784 544.153 175.58C543.595 175.375 543.139 175.104 542.786 174.768C542.432 174.431 542.167 174.063 541.992 173.662L543.635 172.984C543.75 173.172 543.904 173.37 544.096 173.579C544.292 173.792 544.556 173.973 544.888 174.122C545.225 174.271 545.657 174.346 546.185 174.346C546.91 174.346 547.509 174.169 547.982 173.815C548.455 173.466 548.692 172.908 548.692 172.141V170.21H548.57C548.455 170.419 548.289 170.651 548.072 170.907C547.859 171.163 547.565 171.384 547.19 171.572C546.815 171.759 546.327 171.853 545.726 171.853C544.95 171.853 544.251 171.672 543.629 171.31C543.011 170.943 542.521 170.404 542.159 169.692C541.801 168.977 541.622 168.097 541.622 167.053C541.622 166.009 541.799 165.114 542.153 164.368C542.511 163.622 543 163.051 543.622 162.655C544.244 162.254 544.95 162.054 545.739 162.054C546.348 162.054 546.84 162.156 547.215 162.361C547.59 162.561 547.882 162.795 548.091 163.064C548.304 163.332 548.468 163.569 548.583 163.773H548.724V162.182H550.596V172.217C550.596 173.061 550.4 173.754 550.008 174.295C549.615 174.836 549.086 175.237 548.417 175.496C547.752 175.756 547.002 175.886 546.167 175.886ZM546.148 170.268C546.697 170.268 547.162 170.14 547.541 169.884C547.925 169.624 548.214 169.254 548.411 168.772C548.611 168.286 548.711 167.705 548.711 167.027C548.711 166.366 548.613 165.785 548.417 165.282C548.221 164.779 547.933 164.387 547.554 164.106C547.175 163.82 546.706 163.678 546.148 163.678C545.572 163.678 545.093 163.827 544.71 164.125C544.326 164.419 544.036 164.82 543.84 165.327C543.648 165.834 543.552 166.401 543.552 167.027C543.552 167.67 543.65 168.235 543.846 168.721C544.042 169.207 544.332 169.586 544.716 169.859C545.104 170.131 545.581 170.268 546.148 170.268ZM426.443 180.909H428.84L433.008 191.085H433.161L437.329 180.909H439.726V194H437.846V184.527H437.725L433.864 193.981H432.305L428.444 184.521H428.322V194H426.443V180.909ZM445.301 194.217C444.679 194.217 444.117 194.102 443.614 193.872C443.111 193.638 442.712 193.299 442.418 192.856C442.129 192.413 441.984 191.869 441.984 191.226C441.984 190.672 442.09 190.216 442.303 189.858C442.516 189.5 442.803 189.217 443.165 189.008C443.527 188.799 443.933 188.641 444.381 188.535C444.828 188.428 445.284 188.347 445.749 188.292C446.337 188.224 446.814 188.168 447.18 188.126C447.547 188.079 447.813 188.004 447.979 187.902C448.146 187.8 448.229 187.634 448.229 187.403V187.359C448.229 186.8 448.071 186.368 447.756 186.061C447.445 185.754 446.98 185.601 446.362 185.601C445.719 185.601 445.212 185.744 444.841 186.029C444.475 186.31 444.22 186.624 444.079 186.969L442.284 186.56C442.497 185.963 442.808 185.482 443.217 185.115C443.631 184.744 444.106 184.476 444.643 184.31C445.18 184.139 445.744 184.054 446.337 184.054C446.729 184.054 447.144 184.101 447.583 184.195C448.026 184.284 448.44 184.45 448.823 184.693C449.211 184.936 449.528 185.283 449.776 185.735C450.023 186.183 450.146 186.764 450.146 187.48V194H448.28V192.658H448.203C448.08 192.905 447.894 193.148 447.647 193.386C447.4 193.625 447.082 193.823 446.695 193.981C446.307 194.138 445.842 194.217 445.301 194.217ZM445.717 192.683C446.245 192.683 446.697 192.579 447.072 192.37C447.451 192.161 447.739 191.888 447.935 191.552C448.135 191.211 448.234 190.847 448.234 190.459V189.193C448.166 189.261 448.035 189.325 447.839 189.385C447.647 189.44 447.428 189.489 447.18 189.532C446.933 189.57 446.693 189.607 446.458 189.641C446.224 189.67 446.028 189.696 445.87 189.717C445.499 189.764 445.161 189.843 444.854 189.954C444.551 190.065 444.308 190.224 444.125 190.433C443.946 190.638 443.857 190.911 443.857 191.251C443.857 191.724 444.031 192.082 444.381 192.325C444.73 192.564 445.176 192.683 445.717 192.683ZM454.603 188.17V194H452.691V184.182H454.527V185.78H454.648C454.874 185.26 455.228 184.842 455.709 184.527C456.195 184.212 456.806 184.054 457.544 184.054C458.213 184.054 458.799 184.195 459.301 184.476C459.804 184.753 460.194 185.166 460.471 185.716C460.748 186.266 460.887 186.945 460.887 187.755V194H458.975V187.985C458.975 187.273 458.79 186.717 458.419 186.317C458.049 185.912 457.539 185.71 456.892 185.71C456.448 185.71 456.054 185.805 455.709 185.997C455.368 186.189 455.098 186.47 454.897 186.841C454.701 187.207 454.603 187.651 454.603 188.17ZM466.307 194.217C465.685 194.217 465.122 194.102 464.62 193.872C464.117 193.638 463.718 193.299 463.424 192.856C463.134 192.413 462.99 191.869 462.99 191.226C462.99 190.672 463.096 190.216 463.309 189.858C463.522 189.5 463.81 189.217 464.172 189.008C464.534 188.799 464.939 188.641 465.387 188.535C465.834 188.428 466.29 188.347 466.755 188.292C467.343 188.224 467.82 188.168 468.186 188.126C468.553 188.079 468.818 188.004 468.984 187.902C469.151 187.8 469.234 187.634 469.234 187.403V187.359C469.234 186.8 469.077 186.368 468.762 186.061C468.451 185.754 467.986 185.601 467.368 185.601C466.725 185.601 466.217 185.744 465.846 186.029C465.479 186.31 465.227 186.624 465.086 186.969L463.29 186.56C463.503 185.963 463.814 185.482 464.223 185.115C464.637 184.744 465.111 184.476 465.648 184.31C466.185 184.139 466.749 184.054 467.342 184.054C467.734 184.054 468.15 184.101 468.589 184.195C469.032 184.284 469.446 184.45 469.829 184.693C470.217 184.936 470.534 185.283 470.782 185.735C471.029 186.183 471.152 186.764 471.152 187.48V194H469.286V192.658H469.209C469.085 192.905 468.9 193.148 468.653 193.386C468.406 193.625 468.088 193.823 467.701 193.981C467.313 194.138 466.848 194.217 466.307 194.217ZM466.723 192.683C467.251 192.683 467.703 192.579 468.078 192.37C468.457 192.161 468.745 191.888 468.941 191.552C469.141 191.211 469.241 190.847 469.241 190.459V189.193C469.173 189.261 469.041 189.325 468.845 189.385C468.653 189.44 468.434 189.489 468.186 189.532C467.939 189.57 467.698 189.607 467.464 189.641C467.23 189.67 467.034 189.696 466.876 189.717C466.505 189.764 466.165 189.843 465.859 189.954C465.556 190.065 465.314 190.224 465.131 190.433C464.952 190.638 464.862 190.911 464.862 191.251C464.862 191.724 465.037 192.082 465.387 192.325C465.736 192.564 466.181 192.683 466.723 192.683ZM477.814 197.886C477.035 197.886 476.363 197.784 475.801 197.58C475.243 197.375 474.787 197.104 474.433 196.768C474.079 196.431 473.815 196.063 473.64 195.662L475.283 194.984C475.398 195.172 475.552 195.37 475.743 195.579C475.939 195.792 476.204 195.973 476.536 196.122C476.873 196.271 477.305 196.346 477.834 196.346C478.558 196.346 479.157 196.169 479.63 195.815C480.103 195.466 480.339 194.908 480.339 194.141V192.21H480.217C480.102 192.419 479.937 192.651 479.719 192.907C479.506 193.163 479.212 193.384 478.837 193.572C478.462 193.759 477.973 193.853 477.372 193.853C476.597 193.853 475.899 193.672 475.277 193.31C474.659 192.943 474.169 192.404 473.807 191.692C473.449 190.977 473.27 190.097 473.27 189.053C473.27 188.009 473.445 187.114 473.799 186.368C474.157 185.622 474.648 185.051 475.27 184.655C475.892 184.254 476.597 184.054 477.385 184.054C477.994 184.054 478.488 184.156 478.863 184.361C479.238 184.561 479.53 184.795 479.738 185.064C479.951 185.332 480.115 185.569 480.23 185.773H480.371V184.182H482.243V194.217C482.243 195.061 482.048 195.754 481.656 196.295C481.264 196.836 480.733 197.237 480.064 197.496C479.4 197.756 478.65 197.886 477.814 197.886ZM477.795 192.268C478.345 192.268 478.809 192.14 479.189 191.884C479.572 191.624 479.862 191.254 480.058 190.772C480.258 190.286 480.358 189.705 480.358 189.027C480.358 188.366 480.26 187.785 480.064 187.282C479.868 186.779 479.581 186.387 479.201 186.106C478.822 185.82 478.353 185.678 477.795 185.678C477.22 185.678 476.741 185.827 476.357 186.125C475.973 186.419 475.684 186.82 475.488 187.327C475.296 187.834 475.2 188.401 475.2 189.027C475.2 189.67 475.297 190.235 475.493 190.721C475.689 191.207 475.98 191.586 476.363 191.859C476.751 192.131 477.228 192.268 477.795 192.268ZM489.039 194.198C488.071 194.198 487.238 193.991 486.54 193.578C485.845 193.161 485.307 192.575 484.928 191.82C484.553 191.062 484.366 190.173 484.366 189.155C484.366 188.149 484.553 187.263 484.928 186.496C485.307 185.729 485.836 185.13 486.514 184.7C487.196 184.269 487.993 184.054 488.905 184.054C489.459 184.054 489.995 184.146 490.515 184.329C491.035 184.512 491.502 184.8 491.915 185.192C492.329 185.584 492.655 186.093 492.893 186.719C493.132 187.342 493.251 188.098 493.251 188.989V189.666H485.446V188.234H491.378C491.378 187.732 491.276 187.286 491.071 186.898C490.867 186.506 490.579 186.197 490.209 185.972C489.842 185.746 489.412 185.633 488.917 185.633C488.38 185.633 487.911 185.765 487.51 186.029C487.114 186.289 486.808 186.63 486.591 187.052C486.378 187.469 486.271 187.923 486.271 188.413V189.532C486.271 190.188 486.386 190.746 486.616 191.207C486.851 191.667 487.177 192.018 487.594 192.261C488.012 192.5 488.5 192.619 489.058 192.619C489.42 192.619 489.75 192.568 490.049 192.466C490.347 192.359 490.605 192.202 490.822 191.993C491.04 191.784 491.206 191.526 491.321 191.219L493.13 191.545C492.985 192.078 492.725 192.545 492.35 192.945C491.979 193.342 491.513 193.651 490.95 193.872C490.392 194.089 489.755 194.198 489.039 194.198ZM495.372 194V184.182H497.219V185.741H497.321C497.5 185.213 497.816 184.798 498.267 184.495C498.723 184.188 499.239 184.035 499.814 184.035C499.934 184.035 500.074 184.039 500.236 184.048C500.402 184.056 500.532 184.067 500.626 184.08V185.908C500.549 185.886 500.413 185.863 500.217 185.837C500.021 185.808 499.825 185.793 499.629 185.793C499.177 185.793 498.774 185.888 498.421 186.08C498.071 186.268 497.794 186.53 497.59 186.866C497.385 187.199 497.283 187.578 497.283 188.004V194H495.372Z" fill="#000247"/>
<path d="M94.2926 138.707C94.6831 139.098 95.3163 139.098 95.7068 138.707L102.071 132.343C102.462 131.953 102.462 131.319 102.071 130.929C101.681 130.538 101.047 130.538 100.657 130.929L94.9997 136.586L89.3428 130.929C88.9523 130.538 88.3192 130.538 87.9286 130.929C87.5381 131.319 87.5381 131.953 87.9286 132.343L94.2926 138.707ZM93.9997 72V138H95.9997V72H93.9997Z" fill="#00306A"/>
<path d="M192 175.16H232" stroke="#00306A" stroke-width="2"/>
<path d="M238.251 176.916H240.195L241.562 178.699L242.208 179.492L244.388 182.336H242.368L240.911 180.438L240.412 179.748L238.251 176.916ZM244.81 174.615C244.81 176.012 244.554 177.214 244.043 178.22C243.531 179.221 242.83 179.993 241.94 180.534C241.053 181.071 240.045 181.339 238.916 181.339C237.783 181.339 236.771 181.071 235.88 180.534C234.994 179.993 234.295 179.219 233.783 178.213C233.272 177.208 233.016 176.008 233.016 174.615C233.016 173.217 233.272 172.017 233.783 171.016C234.295 170.01 234.994 169.239 235.88 168.702C236.771 168.161 237.783 167.89 238.916 167.89C240.045 167.89 241.053 168.161 241.94 168.702C242.83 169.239 243.531 170.01 244.043 171.016C244.554 172.017 244.81 173.217 244.81 174.615ZM242.854 174.615C242.854 173.549 242.681 172.652 242.336 171.924C241.995 171.191 241.526 170.637 240.93 170.262C240.337 169.882 239.666 169.693 238.916 169.693C238.162 169.693 237.489 169.882 236.896 170.262C236.304 170.637 235.835 171.191 235.49 171.924C235.149 172.652 234.979 173.549 234.979 174.615C234.979 175.68 235.149 176.579 235.49 177.312C235.835 178.041 236.304 178.595 236.896 178.974C237.489 179.349 238.162 179.537 238.916 179.537C239.666 179.537 240.337 179.349 240.93 178.974C241.526 178.595 241.995 178.041 242.336 177.312C242.681 176.579 242.854 175.68 242.854 174.615ZM253.338 177.088V171.342H255.256V181.16H253.377V179.46H253.274C253.048 179.984 252.686 180.421 252.188 180.77C251.693 181.115 251.078 181.288 250.34 181.288C249.71 181.288 249.151 181.15 248.666 180.873C248.184 180.591 247.805 180.176 247.528 179.626C247.255 179.076 247.119 178.397 247.119 177.587V171.342H249.03V177.357C249.03 178.026 249.215 178.559 249.586 178.955C249.957 179.351 250.438 179.549 251.031 179.549C251.389 179.549 251.744 179.46 252.098 179.281C252.456 179.102 252.752 178.831 252.987 178.469C253.225 178.107 253.343 177.647 253.338 177.088ZM260.681 181.377C260.059 181.377 259.496 181.262 258.994 181.032C258.491 180.798 258.092 180.459 257.798 180.016C257.509 179.573 257.364 179.029 257.364 178.386C257.364 177.832 257.47 177.376 257.683 177.018C257.896 176.66 258.184 176.377 258.546 176.168C258.908 175.959 259.313 175.801 259.761 175.695C260.208 175.588 260.664 175.507 261.129 175.452C261.717 175.384 262.194 175.328 262.56 175.286C262.927 175.239 263.193 175.164 263.359 175.062C263.526 174.96 263.609 174.794 263.609 174.564V174.519C263.609 173.961 263.451 173.528 263.136 173.221C262.825 172.914 262.36 172.761 261.742 172.761C261.099 172.761 260.592 172.904 260.221 173.189C259.854 173.471 259.601 173.784 259.46 174.129L257.664 173.72C257.877 173.123 258.188 172.642 258.597 172.275C259.011 171.904 259.486 171.636 260.023 171.47C260.56 171.299 261.124 171.214 261.717 171.214C262.109 171.214 262.524 171.261 262.963 171.355C263.406 171.444 263.82 171.61 264.203 171.853C264.591 172.096 264.908 172.444 265.156 172.895C265.403 173.343 265.526 173.924 265.526 174.64V181.16H263.66V179.818H263.583C263.46 180.065 263.274 180.308 263.027 180.547C262.78 180.785 262.462 180.983 262.075 181.141C261.687 181.299 261.222 181.377 260.681 181.377ZM261.097 179.843C261.625 179.843 262.077 179.739 262.452 179.53C262.831 179.321 263.119 179.049 263.315 178.712C263.515 178.371 263.615 178.007 263.615 177.619V176.353C263.547 176.422 263.415 176.485 263.219 176.545C263.027 176.6 262.808 176.65 262.56 176.692C262.313 176.73 262.072 176.767 261.838 176.801C261.604 176.831 261.408 176.856 261.25 176.877C260.879 176.924 260.54 177.003 260.234 177.114C259.931 177.225 259.688 177.385 259.505 177.593C259.326 177.798 259.237 178.071 259.237 178.412C259.237 178.885 259.411 179.243 259.761 179.485C260.11 179.724 260.555 179.843 261.097 179.843ZM269.983 168.069V181.16H268.072V168.069H269.983ZM272.554 181.16V171.342H274.466V181.16H272.554ZM273.52 169.827C273.187 169.827 272.902 169.716 272.663 169.495C272.429 169.269 272.311 169 272.311 168.689C272.311 168.374 272.429 168.105 272.663 167.884C272.902 167.658 273.187 167.545 273.52 167.545C273.852 167.545 274.135 167.658 274.37 167.884C274.608 168.105 274.728 168.374 274.728 168.689C274.728 169 274.608 169.269 274.37 169.495C274.135 169.716 273.852 169.827 273.52 169.827ZM281.709 171.342V172.876H276.161V171.342H281.709ZM277.682 181.16V170.204C277.682 169.591 277.817 169.081 278.085 168.676C278.354 168.267 278.709 167.963 279.153 167.762C279.596 167.558 280.077 167.456 280.597 167.456C280.981 167.456 281.309 167.488 281.581 167.551C281.854 167.611 282.057 167.667 282.189 167.718L281.741 169.265C281.652 169.239 281.537 169.209 281.396 169.175C281.256 169.137 281.085 169.118 280.885 169.118C280.42 169.118 280.088 169.233 279.888 169.463C279.692 169.693 279.594 170.025 279.594 170.46V181.16H277.682ZM283.681 181.16V171.342H285.593V181.16H283.681ZM284.646 169.827C284.314 169.827 284.029 169.716 283.79 169.495C283.556 169.269 283.438 169 283.438 168.689C283.438 168.374 283.556 168.105 283.79 167.884C284.029 167.658 284.314 167.545 284.646 167.545C284.979 167.545 285.262 167.658 285.497 167.884C285.735 168.105 285.855 168.374 285.855 168.689C285.855 169 285.735 169.269 285.497 169.495C285.262 169.716 284.979 169.827 284.646 169.827ZM292.395 181.358C291.428 181.358 290.595 181.152 289.896 180.738C289.201 180.321 288.664 179.735 288.285 178.98C287.91 178.222 287.723 177.333 287.723 176.315C287.723 175.309 287.91 174.423 288.285 173.656C288.664 172.889 289.193 172.29 289.87 171.86C290.552 171.429 291.349 171.214 292.261 171.214C292.815 171.214 293.352 171.306 293.872 171.489C294.392 171.672 294.858 171.96 295.272 172.352C295.685 172.744 296.011 173.253 296.25 173.88C296.488 174.502 296.608 175.258 296.608 176.149V176.826H288.803V175.395H294.735C294.735 174.892 294.632 174.446 294.428 174.059C294.223 173.667 293.936 173.358 293.565 173.132C293.199 172.906 292.768 172.793 292.274 172.793C291.737 172.793 291.268 172.925 290.868 173.189C290.471 173.449 290.164 173.79 289.947 174.212C289.734 174.63 289.627 175.083 289.627 175.574V176.692C289.627 177.348 289.743 177.907 289.973 178.367C290.207 178.827 290.533 179.179 290.951 179.422C291.368 179.66 291.856 179.779 292.414 179.779C292.777 179.779 293.107 179.728 293.405 179.626C293.703 179.52 293.961 179.362 294.179 179.153C294.396 178.944 294.562 178.686 294.677 178.38L296.486 178.706C296.341 179.238 296.081 179.705 295.706 180.105C295.336 180.502 294.869 180.811 294.306 181.032C293.748 181.25 293.111 181.358 292.395 181.358ZM302.404 181.352C301.611 181.352 300.904 181.15 300.281 180.745C299.664 180.336 299.178 179.754 298.824 179C298.475 178.241 298.3 177.331 298.3 176.27C298.3 175.209 298.477 174.301 298.83 173.547C299.188 172.793 299.678 172.216 300.301 171.815C300.923 171.414 301.628 171.214 302.416 171.214C303.026 171.214 303.516 171.316 303.887 171.521C304.262 171.721 304.551 171.956 304.756 172.224C304.965 172.493 305.127 172.729 305.242 172.934H305.357V168.069H307.268V181.16H305.401V179.632H305.242C305.127 179.841 304.96 180.08 304.743 180.348C304.53 180.617 304.236 180.851 303.861 181.051C303.486 181.252 303 181.352 302.404 181.352ZM302.825 179.722C303.375 179.722 303.84 179.577 304.219 179.287C304.602 178.993 304.892 178.586 305.088 178.066C305.289 177.547 305.389 176.941 305.389 176.251C305.389 175.569 305.291 174.973 305.095 174.461C304.899 173.95 304.611 173.551 304.232 173.266C303.852 172.98 303.384 172.838 302.825 172.838C302.25 172.838 301.771 172.987 301.387 173.285C301.004 173.583 300.714 173.99 300.518 174.506C300.326 175.022 300.23 175.603 300.23 176.251C300.23 176.907 300.328 177.498 300.524 178.022C300.72 178.546 301.01 178.961 301.394 179.268C301.781 179.571 302.259 179.722 302.825 179.722Z" fill="#000247"/>
<path d="M351.707 176.867C352.098 176.477 352.098 175.844 351.707 175.453L345.343 169.089C344.953 168.699 344.319 168.699 343.929 169.089C343.538 169.48 343.538 170.113 343.929 170.503L349.586 176.16L343.929 181.817C343.538 182.208 343.538 182.841 343.929 183.231C344.319 183.622 344.953 183.622 345.343 183.231L351.707 176.867ZM308 177.16H351V175.16H308V177.16Z" fill="#00306A"/>
<path d="M572 350H631" stroke="#00306A" stroke-width="2"/>
<path d="M631.951 356V342.909H636.617C637.636 342.909 638.479 343.094 639.148 343.465C639.817 343.836 640.318 344.343 640.65 344.987C640.983 345.626 641.149 346.346 641.149 347.147C641.149 347.952 640.981 348.677 640.644 349.32C640.312 349.96 639.809 350.467 639.136 350.842C638.467 351.212 637.625 351.398 636.611 351.398H633.402V349.723H636.432C637.075 349.723 637.597 349.612 637.998 349.391C638.398 349.165 638.692 348.858 638.88 348.47C639.067 348.082 639.161 347.641 639.161 347.147C639.161 346.653 639.067 346.214 638.88 345.83C638.692 345.447 638.396 345.146 637.991 344.929C637.591 344.712 637.062 344.603 636.406 344.603H633.926V356H631.951ZM646.081 356.217C645.458 356.217 644.896 356.102 644.393 355.872C643.89 355.638 643.492 355.299 643.198 354.856C642.908 354.413 642.763 353.869 642.763 353.226C642.763 352.672 642.87 352.216 643.083 351.858C643.296 351.5 643.583 351.217 643.946 351.008C644.308 350.799 644.713 350.641 645.16 350.535C645.608 350.428 646.063 350.347 646.528 350.292C647.116 350.224 647.593 350.168 647.96 350.126C648.326 350.079 648.593 350.004 648.759 349.902C648.925 349.8 649.008 349.634 649.008 349.403V349.359C649.008 348.8 648.85 348.368 648.535 348.061C648.224 347.754 647.759 347.601 647.142 347.601C646.498 347.601 645.991 347.744 645.62 348.029C645.254 348.31 645 348.624 644.86 348.969L643.063 348.56C643.277 347.963 643.588 347.482 643.997 347.115C644.41 346.744 644.885 346.476 645.422 346.31C645.959 346.139 646.524 346.054 647.116 346.054C647.508 346.054 647.924 346.101 648.362 346.195C648.806 346.284 649.219 346.45 649.603 346.693C649.99 346.936 650.308 347.283 650.555 347.735C650.802 348.183 650.926 348.764 650.926 349.48V356H649.059V354.658H648.983C648.859 354.905 648.674 355.148 648.426 355.386C648.179 355.625 647.862 355.823 647.474 355.981C647.086 356.138 646.622 356.217 646.081 356.217ZM646.496 354.683C647.024 354.683 647.476 354.579 647.851 354.37C648.23 354.161 648.518 353.888 648.714 353.552C648.914 353.211 649.014 352.847 649.014 352.459V351.193C648.946 351.261 648.814 351.325 648.618 351.385C648.426 351.44 648.207 351.489 647.96 351.532C647.713 351.57 647.472 351.607 647.237 351.641C647.003 351.67 646.807 351.696 646.649 351.717C646.279 351.764 645.94 351.843 645.633 351.954C645.331 352.065 645.088 352.224 644.904 352.433C644.725 352.638 644.636 352.911 644.636 353.251C644.636 353.724 644.811 354.082 645.16 354.325C645.509 354.564 645.955 354.683 646.496 354.683ZM660.829 348.579L659.096 348.886C659.024 348.664 658.909 348.453 658.751 348.253C658.598 348.053 658.389 347.888 658.125 347.761C657.861 347.633 657.53 347.569 657.134 347.569C656.593 347.569 656.141 347.69 655.779 347.933C655.417 348.172 655.236 348.481 655.236 348.86C655.236 349.188 655.357 349.452 655.6 349.653C655.843 349.853 656.235 350.017 656.776 350.145L658.336 350.503C659.239 350.712 659.912 351.033 660.356 351.468C660.799 351.903 661.02 352.467 661.02 353.162C661.02 353.75 660.85 354.274 660.509 354.734C660.172 355.19 659.701 355.548 659.096 355.808C658.495 356.068 657.799 356.198 657.006 356.198C655.907 356.198 655.01 355.964 654.315 355.495C653.62 355.022 653.194 354.351 653.037 353.482L654.884 353.2C654.999 353.682 655.236 354.046 655.593 354.293C655.951 354.536 656.418 354.658 656.993 354.658C657.62 354.658 658.12 354.528 658.495 354.268C658.87 354.004 659.058 353.682 659.058 353.303C659.058 352.996 658.943 352.738 658.713 352.529C658.487 352.32 658.14 352.163 657.671 352.056L656.009 351.692C655.093 351.483 654.415 351.151 653.976 350.695C653.542 350.239 653.324 349.661 653.324 348.962C653.324 348.383 653.486 347.876 653.81 347.441C654.134 347.006 654.581 346.668 655.152 346.425C655.723 346.178 656.378 346.054 657.115 346.054C658.176 346.054 659.011 346.284 659.62 346.744C660.23 347.2 660.633 347.812 660.829 348.579ZM670.479 348.579L668.747 348.886C668.674 348.664 668.559 348.453 668.402 348.253C668.248 348.053 668.039 347.888 667.775 347.761C667.511 347.633 667.181 347.569 666.784 347.569C666.243 347.569 665.791 347.69 665.429 347.933C665.067 348.172 664.886 348.481 664.886 348.86C664.886 349.188 665.007 349.452 665.25 349.653C665.493 349.853 665.885 350.017 666.426 350.145L667.986 350.503C668.889 350.712 669.563 351.033 670.006 351.468C670.449 351.903 670.671 352.467 670.671 353.162C670.671 353.75 670.5 354.274 670.159 354.734C669.823 355.19 669.352 355.548 668.747 355.808C668.146 356.068 667.449 356.198 666.657 356.198C665.557 356.198 664.66 355.964 663.965 355.495C663.271 355.022 662.845 354.351 662.687 353.482L664.534 353.2C664.649 353.682 664.886 354.046 665.244 354.293C665.602 354.536 666.068 354.658 666.644 354.658C667.27 354.658 667.771 354.528 668.146 354.268C668.521 354.004 668.708 353.682 668.708 353.303C668.708 352.996 668.593 352.738 668.363 352.529C668.137 352.32 667.79 352.163 667.321 352.056L665.659 351.692C664.743 351.483 664.066 351.151 663.627 350.695C663.192 350.239 662.975 349.661 662.975 348.962C662.975 348.383 663.137 347.876 663.46 347.441C663.784 347.006 664.232 346.668 664.803 346.425C665.374 346.178 666.028 346.054 666.765 346.054C667.826 346.054 668.661 346.284 669.271 346.744C669.88 347.2 670.283 347.812 670.479 348.579Z" fill="#000247"/>
<path d="M732.707 351.707C733.098 351.317 733.098 350.683 732.707 350.293L726.343 343.929C725.953 343.538 725.319 343.538 724.929 343.929C724.538 344.319 724.538 344.953 724.929 345.343L730.586 351L724.929 356.657C724.538 357.047 724.538 357.681 724.929 358.071C725.319 358.462 725.953 358.462 726.343 358.071L732.707 351.707ZM671 352H732V350H671V352Z" fill="#00306A"/>
<path d="M96 212V253" stroke="#00306A" stroke-width="2"/>
<path d="M55.8568 257.909H57.8384V266.519C57.8384 267.435 57.6232 268.247 57.1928 268.955C56.7624 269.658 56.1573 270.212 55.3774 270.616C54.5976 271.017 53.6835 271.217 52.6352 271.217C51.5912 271.217 50.6793 271.017 49.8994 270.616C49.1196 270.212 48.5145 269.658 48.0841 268.955C47.6537 268.247 47.4385 267.435 47.4385 266.519V257.909H49.4137V266.359C49.4137 266.952 49.5436 267.478 49.8036 267.938C50.0678 268.398 50.4406 268.761 50.9222 269.025C51.4037 269.285 51.9747 269.415 52.6352 269.415C53.3 269.415 53.8732 269.285 54.3547 269.025C54.8405 268.761 55.2112 268.398 55.4669 267.938C55.7269 267.478 55.8568 266.952 55.8568 266.359V257.909ZM62.4678 265.17V271H60.5566V261.182H62.3911V262.78H62.5126C62.7384 262.26 63.0921 261.842 63.5736 261.527C64.0594 261.212 64.6709 261.054 65.4081 261.054C66.0772 261.054 66.6631 261.195 67.166 261.476C67.6688 261.753 68.0587 262.166 68.3357 262.716C68.6127 263.266 68.7512 263.945 68.7512 264.755V271H66.84V264.985C66.84 264.273 66.6546 263.717 66.2839 263.317C65.9131 262.912 65.4039 262.71 64.7562 262.71C64.313 262.71 63.9188 262.805 63.5736 262.997C63.2327 263.189 62.9621 263.47 62.7618 263.841C62.5658 264.207 62.4678 264.651 62.4678 265.17ZM77.9429 274.682V269.472H77.8279C77.7128 269.681 77.5466 269.92 77.3293 270.188C77.1162 270.457 76.8222 270.691 76.4472 270.891C76.0722 271.092 75.5864 271.192 74.9898 271.192C74.1972 271.192 73.4898 270.989 72.8677 270.585C72.2498 270.175 71.764 269.594 71.4103 268.839C71.0608 268.081 70.8861 267.171 70.8861 266.11C70.8861 265.049 71.063 264.141 71.4167 263.387C71.7746 262.633 72.2647 262.055 72.8868 261.655C73.509 261.254 74.2143 261.054 75.0026 261.054C75.612 261.054 76.102 261.156 76.4728 261.361C76.8478 261.561 77.1376 261.795 77.3421 262.064C77.5509 262.332 77.7128 262.569 77.8279 262.773H77.9877V261.182H79.8542V274.682H77.9429ZM75.4117 269.562C75.9614 269.562 76.4259 269.417 76.8052 269.127C77.1887 268.833 77.4785 268.426 77.6745 267.906C77.8748 267.386 77.9749 266.781 77.9749 266.091C77.9749 265.409 77.8769 264.812 77.6809 264.301C77.4849 263.79 77.1972 263.391 76.8179 263.106C76.4387 262.82 75.9699 262.678 75.4117 262.678C74.8364 262.678 74.357 262.827 73.9735 263.125C73.59 263.423 73.3002 263.83 73.1042 264.346C72.9124 264.862 72.8165 265.443 72.8165 266.091C72.8165 266.747 72.9145 267.337 73.1106 267.862C73.3066 268.386 73.5964 268.801 73.9799 269.108C74.3677 269.411 74.8449 269.562 75.4117 269.562ZM88.6432 266.928V261.182H90.5608V271H88.6816V269.3H88.5793C88.3535 269.824 87.9912 270.261 87.4927 270.61C86.9983 270.955 86.3826 271.128 85.6454 271.128C85.0147 271.128 84.4564 270.989 83.9706 270.712C83.4891 270.431 83.1099 270.016 82.8329 269.466C82.5601 268.916 82.4238 268.237 82.4238 267.427V261.182H84.335V267.197C84.335 267.866 84.5204 268.398 84.8911 268.795C85.2618 269.191 85.7434 269.389 86.3357 269.389C86.6937 269.389 87.0495 269.3 87.4032 269.121C87.7611 268.942 88.0573 268.671 88.2917 268.309C88.5303 267.947 88.6475 267.487 88.6432 266.928ZM95.9861 271.217C95.3639 271.217 94.8014 271.102 94.2986 270.872C93.7958 270.638 93.3973 270.299 93.1033 269.856C92.8135 269.413 92.6686 268.869 92.6686 268.226C92.6686 267.672 92.7752 267.216 92.9882 266.858C93.2013 266.5 93.4889 266.217 93.8512 266.008C94.2134 265.799 94.6182 265.641 95.0656 265.535C95.5131 265.428 95.9691 265.347 96.4335 265.292C97.0216 265.224 97.4989 265.168 97.8654 265.126C98.2318 265.079 98.4982 265.004 98.6644 264.902C98.8306 264.8 98.9137 264.634 98.9137 264.403V264.359C98.9137 263.8 98.756 263.368 98.4406 263.061C98.1296 262.754 97.6651 262.601 97.0472 262.601C96.4037 262.601 95.8966 262.744 95.5259 263.029C95.1594 263.31 94.9058 263.624 94.7652 263.969L92.9691 263.56C93.1821 262.963 93.4932 262.482 93.9023 262.115C94.3156 261.744 94.7908 261.476 95.3277 261.31C95.8646 261.139 96.4293 261.054 97.0216 261.054C97.4137 261.054 97.8291 261.101 98.2681 261.195C98.7112 261.284 99.1246 261.45 99.5081 261.693C99.8959 261.936 100.213 262.283 100.46 262.735C100.707 263.183 100.831 263.764 100.831 264.48V271H98.9648V269.658H98.8881C98.7645 269.905 98.5791 270.148 98.332 270.386C98.0848 270.625 97.7673 270.823 97.3796 270.981C96.9918 271.138 96.5273 271.217 95.9861 271.217ZM96.4016 269.683C96.93 269.683 97.3817 269.579 97.7567 269.37C98.136 269.161 98.4236 268.888 98.6196 268.552C98.8199 268.211 98.92 267.847 98.92 267.459V266.193C98.8519 266.261 98.7198 266.325 98.5237 266.385C98.332 266.44 98.1125 266.489 97.8654 266.532C97.6182 266.57 97.3774 266.607 97.1431 266.641C96.9087 266.67 96.7127 266.696 96.555 266.717C96.1842 266.764 95.8455 266.843 95.5387 266.954C95.2361 267.065 94.9932 267.224 94.81 267.433C94.631 267.638 94.5415 267.911 94.5415 268.251C94.5415 268.724 94.7162 269.082 95.0656 269.325C95.4151 269.564 95.8604 269.683 96.4016 269.683ZM105.288 257.909V271H103.377V257.909H105.288ZM107.859 271V261.182H109.77V271H107.859ZM108.824 259.667C108.492 259.667 108.206 259.556 107.968 259.335C107.733 259.109 107.616 258.84 107.616 258.529C107.616 258.214 107.733 257.945 107.968 257.724C108.206 257.498 108.492 257.385 108.824 257.385C109.157 257.385 109.44 257.498 109.674 257.724C109.913 257.945 110.032 258.214 110.032 258.529C110.032 258.84 109.913 259.109 109.674 259.335C109.44 259.556 109.157 259.667 108.824 259.667ZM117.014 261.182V262.716H111.466V261.182H117.014ZM112.987 271V260.044C112.987 259.43 113.121 258.921 113.39 258.516C113.658 258.107 114.014 257.803 114.457 257.602C114.9 257.398 115.382 257.295 115.902 257.295C116.285 257.295 116.613 257.327 116.886 257.391C117.159 257.451 117.361 257.506 117.493 257.558L117.046 259.104C116.956 259.079 116.841 259.049 116.701 259.015C116.56 258.977 116.39 258.957 116.189 258.957C115.725 258.957 115.393 259.072 115.192 259.303C114.996 259.533 114.898 259.865 114.898 260.3V271H112.987ZM118.986 271V261.182H120.897V271H118.986ZM119.951 259.667C119.619 259.667 119.333 259.556 119.095 259.335C118.86 259.109 118.743 258.84 118.743 258.529C118.743 258.214 118.86 257.945 119.095 257.724C119.333 257.498 119.619 257.385 119.951 257.385C120.284 257.385 120.567 257.498 120.801 257.724C121.04 257.945 121.159 258.214 121.159 258.529C121.159 258.84 121.04 259.109 120.801 259.335C120.567 259.556 120.284 259.667 119.951 259.667ZM127.7 271.198C126.733 271.198 125.9 270.991 125.201 270.578C124.506 270.161 123.969 269.575 123.59 268.82C123.215 268.062 123.027 267.173 123.027 266.155C123.027 265.149 123.215 264.263 123.59 263.496C123.969 262.729 124.498 262.13 125.175 261.7C125.857 261.269 126.654 261.054 127.566 261.054C128.12 261.054 128.657 261.146 129.176 261.329C129.696 261.512 130.163 261.8 130.576 262.192C130.99 262.584 131.316 263.093 131.554 263.719C131.793 264.342 131.912 265.098 131.912 265.989V266.666H124.108V265.234H130.039C130.039 264.732 129.937 264.286 129.733 263.898C129.528 263.506 129.24 263.197 128.87 262.972C128.503 262.746 128.073 262.633 127.578 262.633C127.042 262.633 126.573 262.765 126.172 263.029C125.776 263.289 125.469 263.63 125.252 264.052C125.039 264.469 124.932 264.923 124.932 265.413V266.532C124.932 267.188 125.047 267.746 125.277 268.207C125.512 268.667 125.838 269.018 126.255 269.261C126.673 269.5 127.161 269.619 127.719 269.619C128.081 269.619 128.412 269.568 128.71 269.466C129.008 269.359 129.266 269.202 129.483 268.993C129.701 268.784 129.867 268.526 129.982 268.219L131.791 268.545C131.646 269.078 131.386 269.545 131.011 269.945C130.64 270.342 130.174 270.651 129.611 270.872C129.053 271.089 128.416 271.198 127.7 271.198ZM137.708 271.192C136.916 271.192 136.208 270.989 135.586 270.585C134.968 270.175 134.482 269.594 134.129 268.839C133.779 268.081 133.605 267.171 133.605 266.11C133.605 265.049 133.781 264.141 134.135 263.387C134.493 262.633 134.983 262.055 135.605 261.655C136.227 261.254 136.933 261.054 137.721 261.054C138.33 261.054 138.82 261.156 139.191 261.361C139.566 261.561 139.856 261.795 140.061 262.064C140.269 262.332 140.431 262.569 140.546 262.773H140.661V257.909H142.573V271H140.706V269.472H140.546C140.431 269.681 140.265 269.92 140.048 270.188C139.835 270.457 139.541 270.691 139.166 270.891C138.791 271.092 138.305 271.192 137.708 271.192ZM138.13 269.562C138.68 269.562 139.144 269.417 139.524 269.127C139.907 268.833 140.197 268.426 140.393 267.906C140.593 267.386 140.693 266.781 140.693 266.091C140.693 265.409 140.595 264.812 140.399 264.301C140.203 263.79 139.916 263.391 139.536 263.106C139.157 262.82 138.688 262.678 138.13 262.678C137.555 262.678 137.075 262.827 136.692 263.125C136.308 263.423 136.019 263.83 135.823 264.346C135.631 264.862 135.535 265.443 135.535 266.091C135.535 266.747 135.633 267.337 135.829 267.862C136.025 268.386 136.315 268.801 136.698 269.108C137.086 269.411 137.563 269.562 138.13 269.562Z" fill="#000247"/>
<path d="M94.2926 314.707C94.6831 315.098 95.3163 315.098 95.7068 314.707L102.071 308.343C102.462 307.953 102.462 307.319 102.071 306.929C101.681 306.538 101.047 306.538 100.657 306.929L94.9997 312.586L89.3428 306.929C88.9523 306.538 88.3192 306.538 87.9286 306.929C87.5381 307.319 87.5381 307.953 87.9286 308.343L94.2926 314.707ZM93.9997 276V314H95.9997V276H93.9997Z" fill="#00306A"/>
<path d="M464 212V253" stroke="#00306A" stroke-width="2"/>
<path d="M444.451 271V257.909H449.117C450.136 257.909 450.979 258.094 451.648 258.465C452.317 258.836 452.818 259.343 453.15 259.987C453.483 260.626 453.649 261.346 453.649 262.147C453.649 262.952 453.481 263.677 453.144 264.32C452.812 264.96 452.309 265.467 451.636 265.842C450.967 266.212 450.125 266.398 449.111 266.398H445.902V264.723H448.932C449.575 264.723 450.097 264.612 450.498 264.391C450.898 264.165 451.192 263.858 451.38 263.47C451.567 263.082 451.661 262.641 451.661 262.147C451.661 261.653 451.567 261.214 451.38 260.83C451.192 260.447 450.896 260.146 450.491 259.929C450.091 259.712 449.562 259.603 448.906 259.603H446.426V271H444.451ZM458.581 271.217C457.958 271.217 457.396 271.102 456.893 270.872C456.39 270.638 455.992 270.299 455.698 269.856C455.408 269.413 455.263 268.869 455.263 268.226C455.263 267.672 455.37 267.216 455.583 266.858C455.796 266.5 456.083 266.217 456.446 266.008C456.808 265.799 457.213 265.641 457.66 265.535C458.108 265.428 458.563 265.347 459.028 265.292C459.616 265.224 460.093 265.168 460.46 265.126C460.826 265.079 461.093 265.004 461.259 264.902C461.425 264.8 461.508 264.634 461.508 264.403V264.359C461.508 263.8 461.35 263.368 461.035 263.061C460.724 262.754 460.259 262.601 459.642 262.601C458.998 262.601 458.491 262.744 458.12 263.029C457.754 263.31 457.5 263.624 457.36 263.969L455.563 263.56C455.777 262.963 456.088 262.482 456.497 262.115C456.91 261.744 457.385 261.476 457.922 261.31C458.459 261.139 459.024 261.054 459.616 261.054C460.008 261.054 460.424 261.101 460.862 261.195C461.306 261.284 461.719 261.45 462.103 261.693C462.49 261.936 462.808 262.283 463.055 262.735C463.302 263.183 463.426 263.764 463.426 264.48V271H461.559V269.658H461.483C461.359 269.905 461.174 270.148 460.926 270.386C460.679 270.625 460.362 270.823 459.974 270.981C459.586 271.138 459.122 271.217 458.581 271.217ZM458.996 269.683C459.524 269.683 459.976 269.579 460.351 269.37C460.73 269.161 461.018 268.888 461.214 268.552C461.414 268.211 461.514 267.847 461.514 267.459V266.193C461.446 266.261 461.314 266.325 461.118 266.385C460.926 266.44 460.707 266.489 460.46 266.532C460.213 266.57 459.972 266.607 459.737 266.641C459.503 266.67 459.307 266.696 459.149 266.717C458.779 266.764 458.44 266.843 458.133 266.954C457.831 267.065 457.588 267.224 457.404 267.433C457.225 267.638 457.136 267.911 457.136 268.251C457.136 268.724 457.311 269.082 457.66 269.325C458.009 269.564 458.455 269.683 458.996 269.683ZM473.329 263.579L471.596 263.886C471.524 263.664 471.409 263.453 471.251 263.253C471.098 263.053 470.889 262.888 470.625 262.761C470.361 262.633 470.03 262.569 469.634 262.569C469.093 262.569 468.641 262.69 468.279 262.933C467.917 263.172 467.736 263.481 467.736 263.86C467.736 264.188 467.857 264.452 468.1 264.653C468.343 264.853 468.735 265.017 469.276 265.145L470.836 265.503C471.739 265.712 472.412 266.033 472.856 266.468C473.299 266.903 473.52 267.467 473.52 268.162C473.52 268.75 473.35 269.274 473.009 269.734C472.672 270.19 472.201 270.548 471.596 270.808C470.995 271.068 470.299 271.198 469.506 271.198C468.407 271.198 467.51 270.964 466.815 270.495C466.12 270.022 465.694 269.351 465.537 268.482L467.384 268.2C467.499 268.682 467.736 269.046 468.093 269.293C468.451 269.536 468.918 269.658 469.493 269.658C470.12 269.658 470.62 269.528 470.995 269.268C471.37 269.004 471.558 268.682 471.558 268.303C471.558 267.996 471.443 267.738 471.213 267.529C470.987 267.32 470.64 267.163 470.171 267.056L468.509 266.692C467.593 266.483 466.915 266.151 466.476 265.695C466.042 265.239 465.824 264.661 465.824 263.962C465.824 263.383 465.986 262.876 466.31 262.441C466.634 262.006 467.081 261.668 467.652 261.425C468.223 261.178 468.878 261.054 469.615 261.054C470.676 261.054 471.511 261.284 472.12 261.744C472.73 262.2 473.133 262.812 473.329 263.579ZM482.979 263.579L481.247 263.886C481.174 263.664 481.059 263.453 480.902 263.253C480.748 263.053 480.539 262.888 480.275 262.761C480.011 262.633 479.681 262.569 479.284 262.569C478.743 262.569 478.291 262.69 477.929 262.933C477.567 263.172 477.386 263.481 477.386 263.86C477.386 264.188 477.507 264.452 477.75 264.653C477.993 264.853 478.385 265.017 478.926 265.145L480.486 265.503C481.389 265.712 482.063 266.033 482.506 266.468C482.949 266.903 483.171 267.467 483.171 268.162C483.171 268.75 483 269.274 482.659 269.734C482.323 270.19 481.852 270.548 481.247 270.808C480.646 271.068 479.949 271.198 479.157 271.198C478.057 271.198 477.16 270.964 476.465 270.495C475.771 270.022 475.345 269.351 475.187 268.482L477.034 268.2C477.149 268.682 477.386 269.046 477.744 269.293C478.102 269.536 478.568 269.658 479.144 269.658C479.77 269.658 480.271 269.528 480.646 269.268C481.021 269.004 481.208 268.682 481.208 268.303C481.208 267.996 481.093 267.738 480.863 267.529C480.637 267.32 480.29 267.163 479.821 267.056L478.159 266.692C477.243 266.483 476.566 266.151 476.127 265.695C475.692 265.239 475.475 264.661 475.475 263.962C475.475 263.383 475.637 262.876 475.96 262.441C476.284 262.006 476.732 261.668 477.303 261.425C477.874 261.178 478.528 261.054 479.265 261.054C480.326 261.054 481.161 261.284 481.771 261.744C482.38 262.2 482.783 262.812 482.979 263.579Z" fill="#000247"/>
<path d="M462.293 314.707C462.683 315.098 463.317 315.098 463.707 314.707L470.071 308.343C470.462 307.953 470.462 307.319 470.071 306.929C469.681 306.538 469.047 306.538 468.657 306.929L463 312.586L457.343 306.929C456.953 306.538 456.319 306.538 455.929 306.929C455.538 307.319 455.538 307.953 455.929 308.343L462.293 314.707ZM462 276V314H464V276H462Z" fill="#00306A"/>
</g>
<defs>
<clipPath id="clip0_662_898">
<rect width="923" height="387" fill="white"/>
</clipPath>
</defs>
</svg>
