<svg width="56" height="56" viewBox="0 0 56 56" fill="none" xmlns="http://www.w3.org/2000/svg">
    <path d="M40.102 53h-24.49A6.61 6.61 0 0 1 9 46.388V9.653a6.585 6.585 0 0 1 6.612-6.612H33.98c.123 0 .245.04.368.163L46.592 15.45a.608.608 0 0 1 .163.367V46.43A6.637 6.637 0 0 1 40.102 53zM15.612 4.02A5.644 5.644 0 0 0 9.98 9.654v36.735a5.644 5.644 0 0 0 5.632 5.632h24.49a5.644 5.644 0 0 0 5.633-5.632V15.98L33.775 4.02H15.612z" fill="#014598" stroke="#014598" stroke-width=".9"/>
    <path d="M40.102 46.877h-24.49a.496.496 0 0 1-.49-.49c0-.244.245-.49.49-.49h24.49c.286 0 .49.246.49.49 0 .246-.204.49-.49.49zm0-4.897h-24.49a.496.496 0 0 1-.49-.49c0-.245.245-.49.49-.49h24.49c.286 0 .49.245.49.49s-.204.49-.49.49zm0-4.898h-24.49a.496.496 0 0 1-.49-.49c0-.245.245-.49.49-.49h24.49c.286 0 .49.245.49.49s-.204.49-.49.49z" fill="#014598" stroke="#014598" stroke-width=".933"/>
    <path d="M33.98 9.653a6.114 6.114 0 0 0 6.122 6.123h6.123L33.98 3.53v6.122z" fill="#F9AFB2"/>
    <path d="M16.428 30.306c0 .49-.326.816-.816.816-.49 0-.776-.326-.776-.816a.75.75 0 0 1 .776-.776c.449 0 .816.327.816.776zm7.102.367c0 .327-.245.45-.53.45-.327 0-.53-.164-.53-.45V27c0-.98-.41-1.51-1.266-1.51-.653 0-1.143.285-1.551.816-.286.408-.408.735-.408 1.184v3.224c0 .327-.204.45-.49.45-.327 0-.53-.164-.53-.45V22.43c0-.286.203-.45.53-.45.286 0 .49.123.49.45v2.897c0 .164-.041.409-.082.572.367-.817 1.02-1.429 2.245-1.429 1.388 0 2.122.817 2.122 2.245v3.96zm2.286-7.428c0-.286.204-.45.53-.45.286 0 .531.164.531.45v1.387h1.47c.285 0 .408.205.408.45 0 .285-.163.448-.408.448h-1.47v3.878c0 .572.245.816.653.816.286 0 .49-.081.694-.204.082-.04.123-.04.204-.04.163 0 .327.122.368.285.04.082.04.163.04.245a.449.449 0 0 1-.244.408c-.327.163-.654.245-1.143.245-.94 0-1.633-.49-1.633-1.673V25.57h-.898c-.286 0-.408-.204-.408-.449 0-.245.122-.449.408-.449h.898v-1.428zm12.49 7.428c0 .327-.245.45-.53.45-.327 0-.532-.164-.532-.45V27c0-.98-.285-1.551-1.102-1.551-.612 0-1.02.367-1.306.775-.163.245-.326.694-.326 1.02v3.389c0 .326-.204.448-.53.448-.327 0-.531-.163-.531-.448v-3.674c0-.98-.286-1.55-1.102-1.55-.613 0-.98.366-1.266.775a2.163 2.163 0 0 0-.326 1.102v3.346c0 .327-.204.45-.49.45-.327 0-.53-.164-.53-.45v-5.591c0-.286.203-.45.53-.45.286 0 .49.164.49.45v.245c0 .163-.041.367-.082.571.286-.694.776-1.306 1.919-1.306 1.02 0 1.55.449 1.714 1.265.326-.612.734-1.265 2.04-1.265 1.348 0 1.919.816 1.919 2.245v3.877h.04zm1.592-8.204c0-.326.204-.449.53-.449.327 0 .53.164.53.45v8.203c0 .327-.203.45-.53.45-.326 0-.53-.164-.53-.45V22.47z" fill="#014598" stroke="#014598" stroke-width=".4"/>
    <path d="M46.223 16.265h-6.122a6.61 6.61 0 0 1-6.612-6.612V3.531a.53.53 0 0 1 .326-.49.505.505 0 0 1 .572.122l12.245 12.245a.505.505 0 0 1 .122.572c-.082.204-.326.285-.53.285zM34.468 4.755v4.898a5.644 5.644 0 0 0 5.633 5.633h4.898l-10.53-10.53z" fill="#014598" stroke="#014598" stroke-width=".933"/>
</svg>
