<svg width="586" height="354" viewBox="0 0 586 354" fill="none" xmlns="http://www.w3.org/2000/svg">
<g clip-path="url(#clip0_917_543)">
<path d="M555.338 6.80774C538.43 6.80774 524.675 20.5502 524.675 37.4424C524.675 54.3345 538.43 68.077 555.338 68.077C572.245 68.077 586 54.3345 586 37.4424C586 20.5502 572.245 6.80774 555.338 6.80774ZM555.338 63.5385C540.935 63.5385 529.218 51.8316 529.218 37.4424C529.218 23.0531 540.935 11.3462 555.338 11.3462C569.74 11.3462 581.458 23.0531 581.458 37.4424C581.458 51.8316 569.74 63.5385 555.338 63.5385Z" fill="black"/>
<path d="M536.618 31.4587H542.408V47.6542H546.346V31.4587H552.123V28.1615H536.618V31.4587Z" fill="black"/>
<path d="M564.047 41.4592L560.506 28.1615H554.612V47.6542H558.271V32.3096L562.13 47.6542H565.923L569.796 32.3096V47.6542H573.457V28.1615H567.547L564.047 41.4592Z" fill="black"/>
<path d="M15.4688 346.724C13.5681 346.724 11.7985 346.384 10.16 345.771C8.52144 345.09 7.14509 344.137 5.96535 342.98C4.7856 341.754 3.86803 340.325 3.21262 338.691C2.5572 337.057 2.22949 335.288 2.22949 333.313C2.22949 331.339 2.5572 329.569 3.21262 327.935C3.86803 326.301 4.85115 324.871 6.03089 323.714C7.21064 322.489 8.65254 321.536 10.2255 320.923C11.8641 320.242 13.6337 319.902 15.5344 319.902C17.435 319.902 19.2703 320.242 20.9087 320.923C22.5473 321.604 23.9892 322.625 25.1034 323.986L22.7439 326.369C21.7608 325.348 20.7122 324.531 19.5324 324.054C18.3527 323.51 17.0418 323.237 15.6655 323.237C14.2891 323.237 12.9127 323.51 11.6674 323.986C10.4877 324.463 9.43901 325.212 8.52144 326.097C7.60388 326.982 6.94844 328.072 6.42414 329.297C5.96535 330.522 5.70318 331.884 5.70318 333.313C5.70318 334.743 5.96535 336.104 6.42414 337.329C6.94844 338.555 7.60388 339.644 8.52144 340.529C9.43901 341.414 10.4877 342.095 11.6674 342.639C12.9127 343.116 14.2236 343.388 15.6655 343.388C17.1074 343.388 18.3527 343.116 19.5324 342.639C20.7122 342.095 21.8264 341.346 22.7439 340.257L25.1034 342.639C23.9236 344.001 22.5473 345.022 20.9087 345.703C19.2703 346.384 17.5006 346.724 15.4688 346.724ZM30.2156 346.452V320.242H40.0468C42.2752 320.242 44.1759 320.582 45.6834 321.331C47.2564 322.08 48.4361 323.101 49.2882 324.463C50.1402 325.824 50.5334 327.458 50.5334 329.364C50.5334 331.27 50.1402 332.904 49.2882 334.266C48.4361 335.627 47.2564 336.649 45.6834 337.397C44.1104 338.146 42.2097 338.487 40.0468 338.487H32.1819L33.8204 336.717V346.384H30.2156V346.452ZM33.8204 337.125L32.1819 335.219H39.9157C42.2097 335.219 43.9793 334.674 45.159 333.653C46.3387 332.632 46.9286 331.203 46.9286 329.297C46.9286 327.391 46.3387 325.961 45.159 324.939C43.9793 323.918 42.2097 323.374 39.9157 323.374H32.1819L33.8204 321.467V336.989V337.125ZM67.0498 346.452V342.231L66.8532 341.414V334.266C66.8532 332.768 66.3944 331.543 65.5424 330.726C64.6904 329.909 63.445 329.432 61.741 329.432C60.6268 329.432 59.5126 329.637 58.3984 330.045C57.3497 330.454 56.4321 330.931 55.6457 331.612L54.2038 328.888C55.1869 328.071 56.3666 327.458 57.743 327.05C59.1193 326.573 60.5612 326.369 62.1342 326.369C64.7559 326.369 66.7877 327.05 68.1637 328.343C69.6062 329.637 70.261 331.68 70.261 334.403V346.384H66.9843L67.0498 346.452ZM60.8234 346.656C59.3815 346.656 58.1362 346.384 57.0876 345.907C56.0389 345.431 55.1869 344.75 54.6625 343.865C54.0727 342.98 53.8105 341.959 53.8105 340.801C53.8105 339.644 54.0727 338.759 54.5314 337.874C55.0558 336.989 55.8422 336.308 56.9565 335.764C58.0707 335.219 59.5781 334.947 61.4788 334.947H67.5086V337.534H61.6099C59.9058 337.534 58.7261 337.807 58.1362 338.419C57.5463 339.032 57.2187 339.713 57.2187 340.597C57.2187 341.551 57.6119 342.367 58.3328 342.98C59.0538 343.524 60.1025 343.865 61.4133 343.865C62.7241 343.865 63.8383 343.592 64.8215 342.98C65.8046 342.367 66.5255 341.482 66.9187 340.393L67.5742 342.844C67.1154 344.001 66.3288 344.954 65.1491 345.635C63.9694 346.315 62.5275 346.656 60.7579 346.656H60.8234ZM88.6131 346.452V342.231L88.4161 341.414V334.266C88.4161 332.768 87.9576 331.543 87.1051 330.726C86.2534 329.909 85.0085 329.432 83.3043 329.432C82.1895 329.432 81.0755 329.637 79.9614 330.045C78.8473 330.454 77.9956 330.931 77.2085 331.612L75.7667 328.888C76.75 328.071 77.9295 327.458 79.3059 327.05C80.6823 326.573 82.1241 326.369 83.6975 326.369C86.3188 326.369 88.3507 327.05 89.7271 328.343C91.169 329.637 91.8245 331.68 91.8245 334.403V346.384H88.5476L88.6131 346.452ZM82.3211 346.656C80.8792 346.656 79.6336 346.384 78.585 345.907C77.5363 345.431 76.6845 344.75 76.1599 343.865C75.5705 342.98 75.3081 341.959 75.3081 340.801C75.3081 339.644 75.5705 338.759 76.029 337.874C76.553 336.989 77.34 336.308 78.4541 335.764C79.5682 335.219 81.0755 334.947 82.9766 334.947H89.0062V337.534H83.1074C81.4032 337.534 80.2237 337.807 79.6336 338.419C79.0435 339.032 78.7165 339.713 78.7165 340.597C78.7165 341.551 79.1096 342.367 79.8306 342.98C80.5515 343.524 81.6001 343.865 82.9111 343.865C84.2215 343.865 85.3355 343.592 86.3188 342.98C87.3021 342.367 88.023 341.482 88.4161 340.393L89.0716 342.844C88.6131 344.001 87.8267 344.954 86.6465 345.635C85.467 346.315 84.0252 346.656 82.2556 346.656H82.3211ZM106.178 346.724C104.277 346.724 102.442 346.452 100.672 345.839C98.9028 345.226 97.5264 344.409 96.5431 343.456L97.8541 340.529C98.8374 341.414 100.017 342.095 101.525 342.707C103.032 343.32 104.539 343.592 106.178 343.592C107.62 343.592 108.865 343.388 109.717 343.048C110.635 342.707 111.29 342.231 111.749 341.618C112.208 341.005 112.405 340.325 112.405 339.508C112.405 338.623 112.142 337.874 111.552 337.329C111.028 336.785 110.241 336.376 109.324 336.036C108.406 335.695 107.423 335.355 106.374 335.151C105.26 334.879 104.212 334.606 103.097 334.266C101.983 333.926 101 333.449 100.082 332.972C99.1651 332.428 98.4442 331.747 97.9196 330.862C97.3956 329.977 97.0678 328.82 97.0678 327.39C97.0678 325.961 97.3956 324.803 98.0511 323.714C98.772 322.557 99.8206 321.672 101.197 320.991C102.639 320.31 104.474 319.97 106.702 319.97C108.144 319.97 109.652 320.174 111.094 320.582C112.535 320.991 113.781 321.536 114.83 322.284L113.65 325.28C112.535 324.532 111.421 323.986 110.241 323.646C109.062 323.305 107.882 323.102 106.768 323.102C105.326 323.102 104.212 323.305 103.294 323.646C102.377 324.054 101.721 324.531 101.262 325.144C100.869 325.756 100.672 326.437 100.672 327.254C100.672 328.207 100.935 328.888 101.525 329.432C102.114 329.977 102.835 330.386 103.753 330.726C104.671 331.066 105.653 331.339 106.768 331.612C107.817 331.884 108.931 332.156 109.98 332.496C111.094 332.836 112.077 333.245 112.994 333.789C113.912 334.334 114.633 335.015 115.223 335.9C115.747 336.785 116.075 337.874 116.075 339.304C116.075 340.733 115.747 341.89 115.026 342.98C114.305 344.137 113.256 345.022 111.749 345.703C110.307 346.384 108.472 346.724 106.243 346.724H106.178ZM137.572 346.724C135.868 346.724 134.361 346.452 133.05 345.839C131.739 345.294 130.691 344.477 129.904 343.456C129.117 342.435 128.724 341.278 128.724 339.916C128.724 338.759 128.986 337.67 129.51 336.717C130.035 335.764 130.821 334.811 131.935 333.926C133.05 332.972 134.492 332.019 136.327 331.066C137.769 330.249 138.948 329.569 139.735 328.956C140.587 328.343 141.177 327.799 141.505 327.254C141.898 326.709 142.029 326.097 142.029 325.484C142.029 324.667 141.767 323.918 141.177 323.442C140.587 322.897 139.801 322.625 138.687 322.625C137.572 322.625 136.655 322.897 135.999 323.51C135.344 324.054 135.081 324.871 135.081 325.824C135.081 326.301 135.147 326.777 135.278 327.186C135.475 327.594 135.737 328.071 136.13 328.615C136.589 329.16 137.179 329.841 137.965 330.658L151.27 344.409L149.304 346.792L135.147 332.155C134.295 331.27 133.64 330.522 133.181 329.841C132.723 329.16 132.329 328.479 132.132 327.799C131.935 327.118 131.805 326.505 131.805 325.824C131.805 324.667 132.067 323.646 132.656 322.761C133.246 321.876 134.033 321.195 135.016 320.719C136.065 320.242 137.244 319.97 138.621 319.97C139.866 319.97 140.98 320.174 141.964 320.651C142.881 321.059 143.602 321.672 144.126 322.557C144.651 323.374 144.913 324.327 144.913 325.484C144.913 326.505 144.651 327.39 144.192 328.275C143.733 329.092 143.012 329.977 141.964 330.726C140.915 331.543 139.538 332.36 137.769 333.313C136.327 334.062 135.213 334.811 134.361 335.491C133.574 336.173 132.984 336.785 132.591 337.466C132.263 338.146 132.067 338.827 132.067 339.576C132.067 340.393 132.263 341.142 132.723 341.754C133.181 342.367 133.837 342.844 134.688 343.184C135.541 343.524 136.523 343.729 137.704 343.729C139.342 343.729 140.784 343.388 142.094 342.639C143.405 341.891 144.454 340.801 145.372 339.372C146.289 337.942 146.879 336.104 147.338 333.994L150.091 334.947C149.632 337.465 148.78 339.576 147.6 341.346C146.421 343.116 145.044 344.409 143.34 345.362C141.636 346.316 139.735 346.724 137.572 346.724ZM168.573 331.543H181.551V334.742H168.573V331.543ZM168.901 343.184H183.583V346.452H165.296V320.242H183.123V323.51H168.901V343.184ZM199.116 326.437C200.688 326.437 202.065 326.777 203.245 327.39C204.424 328.003 205.408 328.956 206.063 330.249C206.719 331.543 207.046 333.109 207.046 335.083V346.52H203.573V335.491C203.573 333.585 203.113 332.156 202.196 331.134C201.278 330.181 200.033 329.705 198.395 329.705C197.149 329.705 196.1 329.977 195.183 330.454C194.265 330.93 193.545 331.679 193.086 332.632C192.627 333.585 192.365 334.811 192.365 336.24V346.452H188.891V326.573H192.234V331.951L191.71 330.522C192.365 329.228 193.282 328.207 194.593 327.458C195.904 326.709 197.411 326.369 199.116 326.369V326.437ZM221.793 353.94C220.023 353.94 218.319 353.668 216.681 353.124C215.042 352.647 213.732 351.898 212.683 350.945L214.321 348.154C215.239 348.971 216.287 349.583 217.598 350.06C218.909 350.536 220.285 350.74 221.662 350.74C223.89 350.74 225.594 350.196 226.643 349.107C227.691 348.018 228.216 346.315 228.216 344.069V339.848L228.609 335.9L228.412 331.951V326.506H231.69V343.661C231.69 347.132 230.837 349.719 229.199 351.353C227.495 352.987 225.07 353.804 221.793 353.804V353.94ZM221.399 345.635C219.564 345.635 217.86 345.226 216.418 344.409C214.976 343.592 213.797 342.435 212.945 341.006C212.093 339.576 211.7 337.874 211.7 335.968C211.7 334.062 212.093 332.36 212.945 330.93C213.797 329.5 214.976 328.344 216.418 327.595C217.86 326.778 219.564 326.369 221.399 326.369C223.038 326.369 224.545 326.709 225.856 327.39C227.233 328.071 228.281 329.092 229.068 330.522C229.855 331.951 230.313 333.721 230.313 335.9C230.313 338.078 229.92 339.848 229.068 341.278C228.281 342.707 227.233 343.797 225.856 344.477C224.48 345.158 223.038 345.499 221.399 345.499V345.635ZM221.793 342.503C223.038 342.503 224.218 342.231 225.201 341.686C226.184 341.142 226.97 340.393 227.495 339.372C228.084 338.419 228.347 337.261 228.347 336.036C228.347 334.81 228.084 333.654 227.495 332.701C226.97 331.748 226.184 330.998 225.201 330.454C224.218 329.909 223.103 329.637 221.793 329.637C220.482 329.637 219.368 329.909 218.385 330.454C217.402 330.998 216.615 331.748 216.025 332.701C215.501 333.654 215.173 334.81 215.173 336.036C215.173 337.261 215.435 338.419 216.025 339.372C216.615 340.325 217.402 341.074 218.385 341.686C219.368 342.231 220.548 342.503 221.793 342.503ZM250.172 346.452V342.231L249.976 341.414V334.266C249.976 332.768 249.517 331.543 248.665 330.726C247.813 329.909 246.567 329.432 244.863 329.432C243.749 329.432 242.635 329.637 241.521 330.045C240.472 330.454 239.554 330.931 238.768 331.612L237.326 328.888C238.309 328.071 239.489 327.458 240.865 327.05C242.242 326.573 243.684 326.369 245.256 326.369C247.878 326.369 249.91 327.05 251.287 328.343C252.728 329.637 253.384 331.68 253.384 334.403V346.384H250.106L250.172 346.452ZM243.946 346.656C242.504 346.656 241.259 346.384 240.21 345.907C239.161 345.431 238.309 344.75 237.785 343.865C237.195 342.98 236.933 341.959 236.933 340.801C236.933 339.644 237.195 338.759 237.654 337.874C238.178 336.989 238.964 336.308 240.079 335.764C241.193 335.219 242.7 334.947 244.601 334.947H250.631V337.534H244.732C243.028 337.534 241.849 337.807 241.259 338.419C240.668 339.032 240.341 339.713 240.341 340.597C240.341 341.551 240.735 342.367 241.455 342.98C242.176 343.524 243.225 343.865 244.535 343.865C245.846 343.865 246.96 343.592 247.944 342.98C248.927 342.367 249.648 341.482 250.041 340.393L250.697 342.844C250.238 344.001 249.451 344.954 248.271 345.635C247.092 346.315 245.65 346.656 243.88 346.656H243.946ZM268.262 353.94C266.492 353.94 264.788 353.668 263.149 353.124C261.511 352.647 260.2 351.898 259.151 350.945L260.79 348.154C261.707 348.971 262.756 349.583 264.067 350.06C265.378 350.536 266.754 350.74 268.131 350.74C270.359 350.74 272.063 350.196 273.112 349.107C274.16 348.018 274.684 346.315 274.684 344.069V339.848L275.078 335.9L274.881 331.951V326.506H278.158V343.661C278.158 347.132 277.306 349.719 275.668 351.353C273.963 352.987 271.538 353.804 268.262 353.804V353.94ZM267.803 345.635C265.967 345.635 264.264 345.226 262.821 344.409C261.379 343.592 260.2 342.435 259.348 341.006C258.496 339.576 258.103 337.874 258.103 335.968C258.103 334.062 258.496 332.36 259.348 330.93C260.2 329.5 261.379 328.344 262.821 327.595C264.264 326.778 265.967 326.369 267.803 326.369C269.441 326.369 270.949 326.709 272.259 327.39C273.636 328.071 274.684 329.092 275.471 330.522C276.258 331.951 276.716 333.721 276.716 335.9C276.716 338.078 276.323 339.848 275.471 341.278C274.684 342.707 273.636 343.797 272.259 344.477C270.883 345.158 269.441 345.499 267.803 345.499V345.635ZM268.196 342.503C269.441 342.503 270.621 342.231 271.604 341.686C272.587 341.142 273.374 340.393 273.898 339.372C274.488 338.419 274.75 337.261 274.75 336.036C274.75 334.81 274.488 333.654 273.898 332.701C273.374 331.748 272.587 330.998 271.604 330.454C270.621 329.909 269.507 329.637 268.196 329.637C266.885 329.637 265.771 329.909 264.788 330.454C263.805 330.998 263.018 331.748 262.428 332.701C261.904 333.654 261.576 334.81 261.576 336.036C261.576 337.261 261.839 338.419 262.428 339.372C263.018 340.325 263.805 341.074 264.788 341.686C265.771 342.231 266.951 342.503 268.196 342.503ZM293.298 346.656C291.267 346.656 289.431 346.247 287.858 345.362C286.351 344.477 285.106 343.32 284.254 341.754C283.401 340.257 283.008 338.487 283.008 336.512C283.008 334.538 283.401 332.768 284.254 331.271C285.106 329.773 286.22 328.547 287.662 327.731C289.103 326.846 290.742 326.437 292.577 326.437C294.413 326.437 296.051 326.846 297.493 327.731C298.935 328.547 299.983 329.773 300.836 331.339C301.622 332.836 302.081 334.675 302.081 336.717C302.081 336.853 302.081 337.057 302.081 337.261C302.081 337.465 302.081 337.67 302.081 337.807H285.827V335.219H300.311L298.935 336.105C298.935 334.811 298.738 333.722 298.148 332.701C297.624 331.68 296.903 330.93 295.92 330.386C295.002 329.842 293.954 329.501 292.709 329.501C291.463 329.501 290.414 329.773 289.497 330.386C288.579 330.93 287.858 331.747 287.268 332.768C286.744 333.789 286.482 334.947 286.482 336.24V336.853C286.482 338.146 286.744 339.372 287.334 340.393C287.924 341.414 288.776 342.231 289.825 342.776C290.873 343.32 292.119 343.661 293.495 343.661C294.609 343.661 295.658 343.456 296.576 343.048C297.493 342.639 298.345 342.027 299.001 341.278L300.901 343.592C300.049 344.614 298.935 345.431 297.69 345.975C296.444 346.52 295.002 346.792 293.43 346.792L293.298 346.656ZM330.722 326.437C332.23 326.437 333.606 326.777 334.786 327.39C335.966 328.003 336.884 328.956 337.539 330.249C338.194 331.543 338.522 333.109 338.522 335.083V346.52H335.048V335.491C335.048 333.585 334.589 332.156 333.738 331.134C332.885 330.181 331.64 329.705 330.067 329.705C328.887 329.705 327.904 329.977 327.052 330.454C326.2 330.93 325.544 331.679 325.02 332.632C324.562 333.585 324.365 334.811 324.365 336.24V346.452H320.891V335.423C320.891 333.517 320.433 332.087 319.58 331.066C318.728 330.113 317.549 329.637 315.91 329.637C314.796 329.637 313.813 329.909 312.895 330.386C311.978 330.863 311.388 331.611 310.863 332.564C310.405 333.517 310.142 334.742 310.142 336.172V346.384H306.669V326.506H310.011V331.815L309.487 330.454C310.077 329.16 310.995 328.139 312.24 327.39C313.485 326.641 314.927 326.301 316.631 326.301C318.466 326.301 320.039 326.777 321.35 327.731C322.661 328.684 323.513 330.045 323.972 331.951L322.595 331.339C323.185 329.841 324.168 328.615 325.611 327.662C327.052 326.709 328.757 326.301 330.657 326.301L330.722 326.437ZM353.465 346.656C351.433 346.656 349.598 346.247 348.091 345.362C346.583 344.477 345.338 343.32 344.486 341.754C343.634 340.257 343.241 338.487 343.241 336.512C343.241 334.538 343.634 332.768 344.486 331.271C345.338 329.773 346.452 328.547 347.894 327.731C349.336 326.846 350.975 326.437 352.81 326.437C354.645 326.437 356.284 326.846 357.725 327.731C359.167 328.547 360.281 329.773 361.068 331.339C361.855 332.836 362.313 334.675 362.313 336.717C362.313 336.853 362.313 337.057 362.313 337.261C362.313 337.465 362.313 337.67 362.313 337.807H346.059V335.219H360.544L359.167 336.105C359.167 334.811 358.971 333.722 358.381 332.701C357.856 331.68 357.135 330.93 356.153 330.386C355.235 329.842 354.186 329.501 352.941 329.501C351.696 329.501 350.647 329.773 349.729 330.386C348.812 330.93 348.091 331.747 347.501 332.768C346.976 333.789 346.715 334.947 346.715 336.24V336.853C346.715 338.146 346.976 339.372 347.566 340.393C348.157 341.414 349.008 342.231 350.057 342.776C351.106 343.32 352.351 343.661 353.728 343.661C354.842 343.661 355.89 343.456 356.808 343.048C357.725 342.639 358.578 342.027 359.233 341.278L361.134 343.592C360.281 344.614 359.167 345.431 357.922 345.975C356.677 346.52 355.235 346.792 353.662 346.792L353.465 346.656ZM377.191 326.437C378.764 326.437 380.141 326.777 381.32 327.39C382.5 328.003 383.483 328.956 384.138 330.249C384.794 331.543 385.122 333.109 385.122 335.083V346.52H381.648V335.491C381.648 333.585 381.189 332.156 380.271 331.134C379.354 330.181 378.109 329.705 376.471 329.705C375.225 329.705 374.176 329.977 373.258 330.454C372.341 330.93 371.62 331.679 371.161 332.632C370.703 333.585 370.44 334.811 370.44 336.24V346.452H366.966V326.573H370.309V331.951L369.785 330.522C370.44 329.228 371.358 328.207 372.669 327.458C373.979 326.709 375.487 326.369 377.191 326.369V326.437ZM398.099 346.656C396.198 346.656 394.691 346.111 393.642 345.022C392.594 343.933 392.069 342.435 392.069 340.393V322.216H395.543V340.257C395.543 341.346 395.805 342.163 396.329 342.707C396.854 343.252 397.575 343.592 398.558 343.592C399.672 343.592 400.524 343.252 401.245 342.639L402.359 345.227C401.835 345.703 401.179 346.043 400.458 346.247C399.737 346.452 398.951 346.588 398.164 346.588L398.099 346.656ZM388.792 329.569V326.641H400.982V329.569H388.792ZM416.647 346.452V320.242H426.478C428.707 320.242 430.607 320.582 432.115 321.331C433.688 322.08 434.868 323.101 435.72 324.463C436.572 325.824 436.965 327.458 436.965 329.364C436.965 331.27 436.572 332.904 435.72 334.266C434.868 335.627 433.688 336.649 432.115 337.397C430.542 338.146 428.641 338.487 426.478 338.487H418.613L420.252 336.717V346.384H416.647V346.452ZM420.252 337.125L418.613 335.219H426.347C428.641 335.219 430.41 334.674 431.591 333.653C432.77 332.632 433.426 331.203 433.426 329.297C433.426 327.391 432.836 325.961 431.591 324.939C430.41 323.918 428.641 323.374 426.347 323.374H418.613L420.252 321.467V336.989V337.125ZM442.143 346.452V318.676H445.617V346.452H442.143ZM464.099 346.452V342.231L463.902 341.414V334.266C463.902 332.768 463.444 331.543 462.591 330.726C461.74 329.909 460.494 329.432 458.79 329.432C457.676 329.432 456.562 329.637 455.448 330.045C454.334 330.454 453.481 330.931 452.695 331.612L451.253 328.888C452.236 328.071 453.416 327.458 454.792 327.05C456.169 326.573 457.61 326.369 459.183 326.369C461.805 326.369 463.837 327.05 465.213 328.343C466.655 329.637 467.311 331.68 467.311 334.403V346.384H464.033L464.099 346.452ZM457.807 346.656C456.365 346.656 455.12 346.384 454.071 345.907C453.023 345.431 452.17 344.75 451.646 343.865C451.056 342.98 450.794 341.959 450.794 340.801C450.794 339.644 451.056 338.759 451.515 337.874C452.039 336.989 452.826 336.308 453.94 335.764C455.055 335.219 456.562 334.947 458.462 334.947H464.493V337.534H458.594C456.89 337.534 455.71 337.807 455.12 338.419C454.53 339.032 454.202 339.713 454.202 340.597C454.202 341.551 454.595 342.367 455.316 342.98C456.037 343.524 457.086 343.865 458.397 343.865C459.708 343.865 460.822 343.592 461.805 342.98C462.788 342.367 463.509 341.482 463.902 340.393L464.558 342.844C464.099 344.001 463.312 344.954 462.133 345.635C460.953 346.315 459.511 346.656 457.741 346.656H457.807ZM480.353 346.656C478.452 346.656 476.945 346.111 475.896 345.022C474.848 343.933 474.324 342.435 474.324 340.393V322.216H477.797V340.257C477.797 341.346 478.059 342.163 478.584 342.707C479.108 343.252 479.829 343.592 480.812 343.592C481.926 343.592 482.778 343.252 483.499 342.639L484.548 345.227C484.023 345.703 483.368 346.043 482.647 346.247C481.926 346.452 481.14 346.588 480.353 346.588V346.656ZM471.046 329.569V326.641H483.237V329.569H471.046ZM489.201 346.452V324.871C489.201 322.897 489.725 321.399 490.84 320.242C491.954 319.085 493.527 318.472 495.493 318.472C496.214 318.472 496.935 318.54 497.591 318.744C498.312 318.949 498.902 319.221 499.36 319.629L498.312 322.352C497.918 322.08 497.525 321.808 497.066 321.672C496.607 321.467 496.149 321.4 495.624 321.4C494.642 321.4 493.855 321.672 493.331 322.284C492.806 322.829 492.544 323.714 492.544 324.871V329.16L492.61 346.452H489.136H489.201ZM485.99 329.569V326.641H498.181V329.569H485.99ZM509.322 346.656C507.422 346.656 505.718 346.247 504.21 345.362C502.703 344.477 501.523 343.32 500.671 341.754C499.819 340.189 499.36 338.487 499.36 336.512C499.36 334.538 499.819 332.768 500.671 331.271C501.523 329.773 502.703 328.547 504.21 327.731C505.718 326.846 507.422 326.437 509.322 326.437C511.223 326.437 512.927 326.846 514.435 327.731C515.942 328.547 517.122 329.773 517.974 331.271C518.826 332.768 519.285 334.538 519.285 336.512C519.285 338.487 518.826 340.257 517.974 341.754C517.122 343.252 515.942 344.477 514.435 345.362C512.927 346.247 511.223 346.656 509.322 346.656ZM509.322 343.525C510.568 343.525 511.616 343.252 512.6 342.639C513.583 342.095 514.369 341.278 514.893 340.189C515.418 339.099 515.746 337.874 515.746 336.512C515.746 335.151 515.483 333.857 514.893 332.836C514.369 331.815 513.583 330.999 512.6 330.386C511.616 329.842 510.568 329.501 509.322 329.501C508.077 329.501 507.029 329.773 506.045 330.386C505.062 330.93 504.341 331.747 503.752 332.836C503.162 333.857 502.899 335.083 502.899 336.512C502.899 337.942 503.162 339.167 503.752 340.189C504.341 341.21 505.128 342.027 506.045 342.639C507.029 343.184 508.077 343.525 509.322 343.525ZM524.004 346.452V326.573H527.346V331.951L527.019 330.59C527.543 329.228 528.461 328.139 529.705 327.458C530.951 326.709 532.524 326.369 534.294 326.369V329.841C534.294 329.841 534.032 329.841 533.835 329.841H533.442C531.607 329.841 530.099 330.385 529.051 331.543C527.936 332.7 527.412 334.334 527.412 336.512V346.384H523.938L524.004 346.452ZM562.477 326.437C563.984 326.437 565.36 326.777 566.54 327.39C567.72 328.003 568.638 328.956 569.292 330.249C569.948 331.543 570.276 333.109 570.276 335.083V346.52H566.802V335.491C566.802 333.585 566.343 332.156 565.492 331.134C564.639 330.181 563.394 329.705 561.821 329.705C560.641 329.705 559.658 329.977 558.806 330.454C557.954 330.93 557.299 331.679 556.775 332.632C556.315 333.585 556.119 334.811 556.119 336.24V346.452H552.645V335.423C552.645 333.517 552.187 332.087 551.334 331.066C550.483 330.113 549.302 329.637 547.664 329.637C546.55 329.637 545.567 329.909 544.649 330.386C543.797 330.863 543.142 331.611 542.617 332.564C542.159 333.517 541.896 334.742 541.896 336.172V346.384H538.423V326.506H541.766V331.815L541.241 330.454C541.831 329.16 542.749 328.139 543.994 327.39C545.239 326.641 546.681 326.301 548.385 326.301C550.22 326.301 551.793 326.777 553.104 327.731C554.415 328.684 555.267 330.045 555.726 331.951L554.35 331.339C554.939 329.841 555.922 328.615 557.364 327.662C558.806 326.709 560.51 326.301 562.411 326.301L562.477 326.437Z" fill="black"/>
<path d="M0 299.538H572.372" stroke="black" stroke-width="0.5" stroke-miterlimit="10"/>
<path d="M347.511 88.5H224.86C209.807 88.5 197.604 100.692 197.604 115.731V238.269C197.604 253.308 209.807 265.5 224.86 265.5H347.511C362.564 265.5 374.767 253.308 374.767 238.269V115.731C374.767 100.692 362.564 88.5 347.511 88.5Z" fill="#004498"/>
<path d="M545.116 88.5H422.465C407.412 88.5 395.209 100.692 395.209 115.731V238.269C395.209 253.308 407.412 265.5 422.465 265.5H545.116C560.169 265.5 572.372 253.308 572.372 238.269V115.731C572.372 100.692 560.169 88.5 545.116 88.5Z" fill="#AA3556"/>
<path d="M284.824 227.409C298.048 227.409 305.922 218.153 308.446 199.64H319.802C316.673 225.496 305.013 238.372 284.824 238.269C272.205 238.165 262.464 233.097 255.599 223.066C248.735 213.033 245.303 198.813 245.303 180.404C245.303 161.891 248.684 147.619 255.448 137.586C262.212 127.554 271.852 122.538 284.369 122.538C304.963 122.538 316.925 135.466 320.256 161.322H308.899C306.679 142.706 298.351 133.398 283.915 133.398C275.435 133.398 268.874 137.483 264.231 145.653C259.688 153.72 257.417 165.304 257.417 180.404C257.417 195.4 259.789 206.983 264.533 215.154C269.278 223.324 276.041 227.409 284.824 227.409Z" fill="white"/>
<path d="M480.819 238.269C473.035 238.269 466.312 236.645 460.65 233.396C454.988 230.146 450.591 225.535 447.457 219.561C444.424 213.587 442.907 206.564 442.907 198.494H454.281C454.281 203.944 455.393 208.818 457.617 213.115C459.942 217.413 463.077 220.818 467.019 223.334C470.962 225.744 475.512 227.055 480.668 227.265C485.824 227.369 490.424 226.478 494.468 224.592C498.512 222.705 501.646 220.085 503.87 216.731C506.094 213.272 507.054 209.394 506.751 205.097C506.448 196.503 499.776 189.795 486.734 184.974L470.659 179C462.47 175.96 456.404 172.501 452.461 168.624C448.619 164.641 446.496 159.924 446.092 154.475C445.687 148.291 446.901 142.788 449.731 137.967C452.663 133.041 456.808 129.215 462.167 126.49C467.525 123.66 473.591 122.351 480.364 122.56C490.879 122.875 499.371 126.123 505.842 132.308C512.413 138.386 515.951 146.509 516.457 156.676H505.083C504.679 150.072 502.151 144.623 497.501 140.326C492.85 135.923 487.088 133.67 480.213 133.565C475.663 133.355 471.619 134.089 468.081 135.766C464.644 137.443 461.964 139.854 460.044 142.998C458.123 146.037 457.264 149.496 457.465 153.374C457.668 156.309 459.184 158.929 462.015 161.235C464.845 163.436 469.244 165.741 475.208 168.152L491.738 174.598C508.521 181.201 517.215 190.791 517.822 203.368C518.125 209.866 516.659 215.788 513.424 221.133C510.189 226.373 505.74 230.566 500.079 233.71C494.417 236.75 487.997 238.269 480.819 238.269Z" fill="white"/>
<path fill-rule="evenodd" clip-rule="evenodd" d="M62.191 88.5H27.2558C12.2028 88.5 0 100.692 0 115.731V238.269C0 253.308 12.2028 265.5 27.2558 265.5H149.907C164.96 265.5 177.163 253.308 177.163 238.269V115.731C177.163 100.692 164.96 88.5 149.907 88.5H114.972C113.764 93.1701 111.326 97.4787 107.854 100.947C102.743 106.054 95.8103 108.923 88.5814 108.923C81.3525 108.923 74.42 106.054 69.3088 100.947C65.8366 97.4787 63.3981 93.1701 62.191 88.5Z" fill="#FF0000"/>
<path d="M156.72 28.9714C153.545 32.7883 150.37 36.6052 146.805 40.8462C108.313 9.18012 69.8208 8.75607 30.745 40.8462C27.3752 36.9586 23.8759 33.071 20.4414 29.1834C53.2313 -9.62157 123.347 -9.76297 156.72 28.9714Z" fill="#FF0000"/>
<path d="M51.2931 61.1937C47.595 56.7427 44.2394 52.6689 40.8838 48.7459C58.4836 24.5293 106.147 16.3816 136.279 47.5389C132.992 51.839 129.636 56.2146 125.801 61.1183C101.285 40.9 76.7 40.221 51.2246 61.2692L51.2931 61.1937Z" fill="#FF0000"/>
<path d="M88.8113 60.5266C96.5874 60.5899 103.068 66.918 103.198 74.5116C103.327 82.3588 96.5227 88.6866 88.2281 88.4967C80.0629 88.3067 74.3603 82.4221 74.4905 74.3217C74.6199 66.6016 81.0353 60.4 88.8113 60.5266Z" fill="#FF0000"/>
<path d="M80.7451 238.269V239.29H81.7672H92.8603H93.8824V238.269V122.538V121.517H92.8603H81.7672H80.7451V122.538V238.269Z" fill="white" stroke="white" stroke-width="0.3"/>
</g>
<defs>
<clipPath id="clip0_917_543">
<rect width="586" height="354" fill="white"/>
</clipPath>
</defs>
</svg>
