<svg width="56" height="56" viewBox="0 0 56 56" fill="none" xmlns="http://www.w3.org/2000/svg">
    <path opacity=".3" d="M40.942 11.594H15.058a3.464 3.464 0 0 0-3.464 3.464v25.884a3.464 3.464 0 0 0 3.464 3.464h25.884a3.464 3.464 0 0 0 3.464-3.464V15.058a3.464 3.464 0 0 0-3.464-3.464z" fill="red"/>
    <path d="M38.938 20.526v14.948a3.464 3.464 0 0 1-3.464 3.464H20.526a3.464 3.464 0 0 1-3.463-3.464V20.526a3.464 3.464 0 0 1 3.463-3.463h14.948a3.464 3.464 0 0 1 3.464 3.463z" fill="#fff"/>
    <path d="M40.942 45.5H15.058a4.563 4.563 0 0 1-4.558-4.558V15.058a4.563 4.563 0 0 1 4.558-4.558h25.884a4.563 4.563 0 0 1 4.558 4.558v25.884a4.563 4.563 0 0 1-4.558 4.558zM15.058 12.687a2.373 2.373 0 0 0-2.37 2.37v25.885a2.373 2.373 0 0 0 2.37 2.37h25.884a2.373 2.373 0 0 0 2.37-2.37V15.058a2.373 2.373 0 0 0-2.37-2.37H15.058z" fill="#004498"/>
    <path d="M35.474 40.031H20.526a4.563 4.563 0 0 1-4.557-4.557V20.526a4.563 4.563 0 0 1 4.557-4.557h14.948a4.563 4.563 0 0 1 4.557 4.557v14.948a4.563 4.563 0 0 1-4.557 4.557zM20.526 18.156a2.373 2.373 0 0 0-2.37 2.37v14.948a2.373 2.373 0 0 0 2.37 2.37h14.948a2.373 2.373 0 0 0 2.37-2.37V20.526a2.373 2.373 0 0 0-2.37-2.37H20.526zm-2.37-5.468c-.604 0-1.093-.49-1.093-1.094v-8.75a1.094 1.094 0 1 1 2.187 0v8.75c0 .604-.49 1.094-1.094 1.094zm6.563 0c-.604 0-1.094-.49-1.094-1.094v-8.75a1.094 1.094 0 0 1 2.188 0v8.75c0 .604-.49 1.094-1.094 1.094zm6.562 0c-.604 0-1.093-.49-1.093-1.094v-8.75a1.094 1.094 0 0 1 2.187 0v8.75c0 .604-.49 1.094-1.094 1.094zm6.563 0c-.604 0-1.094-.49-1.094-1.094v-8.75a1.094 1.094 0 0 1 2.188 0v8.75c0 .604-.49 1.094-1.094 1.094zM18.156 54.25c-.604 0-1.093-.49-1.093-1.094v-8.75a1.094 1.094 0 0 1 2.187 0v8.75c0 .604-.49 1.094-1.094 1.094zm6.563 0c-.604 0-1.094-.49-1.094-1.094v-8.75a1.094 1.094 0 0 1 2.188 0v8.75c0 .604-.49 1.094-1.094 1.094zm6.562 0c-.604 0-1.093-.49-1.093-1.094v-8.75a1.094 1.094 0 0 1 2.187 0v8.75c0 .604-.49 1.094-1.094 1.094zm6.563 0c-.604 0-1.094-.49-1.094-1.094v-8.75a1.094 1.094 0 0 1 2.188 0v8.75c0 .604-.49 1.094-1.094 1.094zm15.312-35h-8.75a1.094 1.094 0 0 1 0-2.188h8.75a1.094 1.094 0 0 1 0 2.188zm0 6.563h-8.75a1.094 1.094 0 0 1 0-2.188h8.75a1.094 1.094 0 0 1 0 2.188zm0 6.562h-8.75a1.094 1.094 0 0 1 0-2.188h8.75a1.094 1.094 0 0 1 0 2.188zm0 6.563h-8.75a1.094 1.094 0 0 1 0-2.188h8.75a1.094 1.094 0 0 1 0 2.188zM11.594 19.25h-8.75a1.094 1.094 0 0 1 0-2.188h8.75a1.094 1.094 0 0 1 0 2.188zm0 6.563h-8.75a1.094 1.094 0 1 1 0-2.188h8.75a1.094 1.094 0 0 1 0 2.188zm0 6.562h-8.75a1.094 1.094 0 0 1 0-2.188h8.75a1.094 1.094 0 0 1 0 2.188zm0 6.563h-8.75a1.094 1.094 0 0 1 0-2.188h8.75a1.094 1.094 0 0 1 0 2.188z" fill="#004498"/>
    <path d="M33.469 25.813H22.53a1.094 1.094 0 0 1 0-2.188H33.47a1.094 1.094 0 0 1 0 2.188zm-3.282 5.468h-7.656a1.094 1.094 0 0 1 0-2.187h7.657a1.094 1.094 0 0 1 0 2.187z" fill="#004498"/>
</svg>
