<svg width="62" height="56" viewBox="0 0 62 56" fill="none" xmlns="http://www.w3.org/2000/svg">
<g clip-path="url(#clip0_405_432)">
<path d="M30.9905 0.609375C25.5468 0.608776 20.2251 2.22374 15.6986 5.25003C11.1721 8.27631 7.64396 12.578 5.56047 17.611C3.47697 22.6441 2.93168 28.1824 3.99355 33.5256C5.05542 38.8688 7.67675 43.7768 11.526 47.629C15.3753 51.4812 20.2797 54.1046 25.6188 55.1672C30.958 56.2299 36.4921 55.6842 41.5213 53.5991C46.5505 51.514 50.8489 47.9833 53.8729 43.4533C56.8969 38.9233 58.5107 33.5977 58.5101 28.1498C58.5093 20.8459 55.6096 13.8413 50.4489 8.67667C45.2881 3.51201 38.2889 0.610179 30.9905 0.609375ZM30.9905 53.7686C25.9274 53.7686 20.9781 52.266 16.7683 49.451C12.5585 46.636 9.27735 42.6349 7.3398 37.9537C5.40225 33.2725 4.89529 28.1214 5.88305 23.1519C6.8708 18.1823 9.30891 13.6175 12.889 10.0346C16.4692 6.45179 21.0305 4.01185 25.9963 3.02334C30.9621 2.03484 36.1093 2.54217 40.7869 4.48119C45.4646 6.42021 49.4627 9.70383 52.2756 13.9168C55.0884 18.1298 56.5898 23.0829 56.5898 28.1498C56.5898 31.5141 55.9277 34.8455 54.6412 37.9537C53.3547 41.0619 51.4691 43.8861 49.0919 46.265C46.7148 48.6439 43.8928 50.531 40.7869 51.8184C37.6811 53.1059 34.3522 53.7686 30.9905 53.7686Z" fill="white"/>
<path d="M30.9893 4.73329C35.6176 4.73329 40.142 6.10681 43.9902 8.68017C47.8384 11.2535 50.8377 14.9111 52.6088 19.1904C54.3798 23.4697 54.843 28.1785 53.9399 32.7212C53.0367 37.264 50.8077 41.4367 47.5348 44.7117C44.2619 47.9866 40.0921 50.2168 35.5526 51.12C31.0132 52.0233 26.3081 51.5591 22.0322 49.7861C17.7564 48.0132 14.102 45.0112 11.5311 41.1597C8.96018 37.3082 7.58827 32.7802 7.58887 28.1484C7.59529 21.9398 10.0628 15.9873 14.45 11.5974C18.8371 7.20756 24.7854 4.73891 30.9893 4.73329ZM30.9893 3.71484C26.1605 3.71484 21.4401 5.14785 17.425 7.83264C13.41 10.5174 10.2806 14.3334 8.43272 18.7981C6.5848 23.2627 6.1013 28.1755 7.04336 32.9152C7.98542 37.6548 10.3107 42.0085 13.7252 45.4256C17.1397 48.8427 21.4901 51.1697 26.2262 52.1125C30.9622 53.0553 35.8713 52.5714 40.3325 50.7221C44.7938 48.8728 48.6069 45.7411 51.2897 41.723C53.9724 37.7049 55.4044 32.9809 55.4044 28.1484C55.4044 21.6682 52.8321 15.4535 48.2534 10.8713C43.6746 6.28909 37.4646 3.71484 30.9893 3.71484Z" fill="white"/>
<path d="M30.9883 13.625V28.1227" stroke="white" stroke-width="1.02261" stroke-miterlimit="10"/>
<path d="M34.741 14.1211L30.9883 28.1247" stroke="white" stroke-width="1.02261" stroke-miterlimit="10"/>
<path d="M38.2331 15.5703L30.9883 28.1251" stroke="white" stroke-width="1.02261" stroke-miterlimit="10"/>
<path d="M41.2347 17.8711L30.9883 28.1222" stroke="white" stroke-width="1.02261" stroke-miterlimit="10"/>
<path d="M44.9843 24.3711L30.9883 28.1236" stroke="white" stroke-width="1.02261" stroke-miterlimit="10"/>
<path d="M45.478 28.1211H30.9883" stroke="white" stroke-width="1.02261" stroke-miterlimit="10"/>
<path d="M44.9843 31.8766L30.9883 28.1211" stroke="white" stroke-width="1.02261" stroke-miterlimit="10"/>
<path d="M43.5366 35.3715L30.9883 28.1211" stroke="white" stroke-width="1.02261" stroke-miterlimit="10"/>
<path d="M41.2347 38.3753L30.9883 28.1211" stroke="white" stroke-width="1.02261" stroke-miterlimit="10"/>
<path d="M38.2331 40.6789L30.9883 28.1211" stroke="white" stroke-width="1.02261" stroke-miterlimit="10"/>
<path d="M34.741 42.1277L30.9883 28.1211" stroke="white" stroke-width="1.02261" stroke-miterlimit="10"/>
<path d="M30.9883 42.6218V28.1211" stroke="white" stroke-width="1.02261" stroke-miterlimit="10"/>
<path d="M27.2383 42.1277L30.9879 28.1211" stroke="white" stroke-width="1.02261" stroke-miterlimit="10"/>
<path d="M23.7461 40.6789L30.9879 28.1211" stroke="white" stroke-width="1.02261" stroke-miterlimit="10"/>
<path d="M20.7441 38.3753L30.9875 28.1211" stroke="white" stroke-width="1.02261" stroke-miterlimit="10"/>
<path d="M18.4414 35.3715L30.9867 28.1211" stroke="white" stroke-width="1.02261" stroke-miterlimit="10"/>
<path d="M16.9961 31.8766L30.9891 28.1211" stroke="white" stroke-width="1.02261" stroke-miterlimit="10"/>
<path d="M16.5 28.1211H30.9867" stroke="white" stroke-width="1.02261" stroke-miterlimit="10"/>
<path d="M16.9961 24.3711L30.9891 28.1236" stroke="white" stroke-width="1.02261" stroke-miterlimit="10"/>
<path d="M18.4414 20.875L30.9867 28.1223" stroke="white" stroke-width="1.02261" stroke-miterlimit="10"/>
<path d="M20.7441 17.8711L30.9875 28.1222" stroke="white" stroke-width="1.02261" stroke-miterlimit="10"/>
<path d="M23.7461 15.5703L30.9879 28.1251" stroke="white" stroke-width="1.02261" stroke-miterlimit="10"/>
<path d="M27.2383 14.1211L30.9879 28.1247" stroke="white" stroke-width="1.02261" stroke-miterlimit="10"/>
<path d="M43.5366 20.875L30.9883 28.1223" stroke="white" stroke-width="1.02261" stroke-miterlimit="10"/>
<path d="M30.9898 43.1877C28.0178 43.1883 25.1125 42.3069 22.6411 40.655C20.1697 39.003 18.2433 36.6547 17.1056 33.9071C15.9679 31.1595 15.6699 28.1359 16.2493 25.2187C16.8287 22.3016 18.2596 19.622 20.3608 17.5187C22.4621 15.4154 25.1395 13.9829 28.0543 13.4024C30.9691 12.822 33.9904 13.1196 36.7362 14.2576C39.482 15.3957 41.8289 17.323 43.4801 19.796C45.1313 22.2689 46.0126 25.1763 46.0126 28.1505C46.0078 32.1366 44.4236 35.9581 41.6074 38.777C38.7912 41.5959 34.9729 43.1821 30.9898 43.1877ZM30.9898 14.1317C28.2192 14.1317 25.5109 14.9539 23.2073 16.4943C20.9037 18.0347 19.1082 20.2242 18.048 22.7858C16.9877 25.3473 16.7103 28.1661 17.2508 30.8854C17.7913 33.6048 19.1255 36.1027 21.0845 38.0633C23.0436 40.0238 25.5396 41.359 28.2569 41.8999C30.9743 42.4408 33.7908 42.1632 36.3505 41.1022C38.9101 40.0411 41.0979 38.2443 42.6371 35.9389C44.1764 33.6335 44.9979 30.9232 44.9979 28.1505C44.9931 24.434 43.5157 20.871 40.8897 18.243C38.2637 15.6151 34.7035 14.1365 30.9898 14.1317Z" fill="white"/>
<path d="M15.4859 15.9876C15.3081 15.8218 15.1649 15.627 15.0564 15.4031C14.9452 15.1767 14.8784 14.9355 14.8561 14.6794C14.8338 14.4234 14.8657 14.1667 14.9519 13.9095C15.0352 13.6497 15.184 13.4048 15.3981 13.1748C15.6529 12.901 15.9322 12.719 16.2359 12.6288C16.5422 12.5358 16.8356 12.5281 17.1162 12.6055L16.9956 13.4597C16.8509 13.4066 16.7154 13.3902 16.5891 13.4106C16.4654 13.4282 16.3518 13.4706 16.2483 13.5379C16.1447 13.5998 16.0559 13.6704 15.982 13.7498C15.8622 13.8785 15.7837 14.015 15.7465 14.1593C15.7066 14.3011 15.6997 14.443 15.7259 14.585C15.7521 14.7271 15.8032 14.8616 15.8791 14.9887C15.955 15.1157 16.045 15.2277 16.149 15.3246C16.2639 15.4318 16.3913 15.5173 16.5311 15.5812C16.671 15.645 16.8125 15.6824 16.9558 15.6932C17.1016 15.7013 17.2437 15.6803 17.3822 15.6304C17.5179 15.5779 17.6393 15.4942 17.7463 15.3792C17.8228 15.2971 17.8868 15.2008 17.9385 15.0904C17.9901 14.98 18.0203 14.8624 18.0291 14.7377C18.0378 14.6076 18.012 14.4788 17.9519 14.3512L18.7885 14.1031C18.8772 14.2932 18.9111 14.5012 18.89 14.727C18.8689 14.9528 18.8079 15.1748 18.7072 15.3928C18.6063 15.6055 18.4806 15.7927 18.3302 15.9542C18.134 16.1651 17.9106 16.32 17.6601 16.4189C17.4095 16.5125 17.1531 16.5573 16.891 16.5534C16.6288 16.5441 16.3756 16.4922 16.1315 16.3976C15.8872 16.2977 15.672 16.161 15.4859 15.9876Z" fill="white"/>
<path d="M22.0856 11.964L22.539 12.6364L20.2101 14.2089L17.975 10.8936L20.2619 9.34952L20.7152 10.0219L19.1937 11.0492L19.6281 11.6936L20.9349 10.8112L21.3536 11.4322L20.0468 12.3146L20.5222 13.0197L22.0856 11.964Z" fill="white"/>
<path d="M23.4719 12.2599L22.0353 8.54578L23.7089 7.89743C23.8833 7.82989 24.0578 7.80437 24.2326 7.82088C24.4095 7.83255 24.5756 7.87847 24.7309 7.95866C24.8849 8.03536 25.0205 8.13721 25.1378 8.26421C25.2585 8.38985 25.3486 8.5294 25.4079 8.68285C25.4673 8.8363 25.4995 8.99222 25.5047 9.15063C25.5085 9.30555 25.4866 9.45637 25.4392 9.60309C25.3903 9.74632 25.3166 9.87712 25.2181 9.9955L26.5682 11.0604L25.6215 11.4272L24.4468 10.5048L23.8663 10.7297L24.3297 11.9276L23.4719 12.2599ZM23.577 9.98163L24.3615 9.67771C24.4312 9.6507 24.4841 9.60614 24.5202 9.54403C24.5585 9.47708 24.5802 9.39849 24.5854 9.30826C24.5906 9.21803 24.5736 9.12234 24.5345 9.02121C24.4954 8.92007 24.4408 8.84099 24.3706 8.78396C24.3026 8.7221 24.2308 8.68172 24.1553 8.66283C24.0799 8.64395 24.009 8.64734 23.9428 8.673L23.1844 8.96678L23.577 9.98163Z" fill="white"/>
<path d="M29.9151 7.36347L28.7133 7.54086L29.1774 10.6902L28.2649 10.8249L27.8008 7.67554L26.5934 7.85376L26.4753 7.05251L29.797 6.56221L29.9151 7.36347Z" fill="white"/>
<path d="M31.1916 10.6147L31.3113 6.62142L32.2337 6.64911L32.114 10.6424L31.1916 10.6147Z" fill="white"/>
<path d="M33.6003 10.7804L34.3984 6.86686L37.055 7.40945L36.8932 8.20318L35.1405 7.84521L34.9685 8.68855L36.4125 8.98348L36.263 9.71658L34.819 9.42165L34.5042 10.965L33.6003 10.7804Z" fill="white"/>
<path d="M37.2585 11.7488L38.7351 8.0347L39.5928 8.37621L38.1163 12.0903L37.2585 11.7488Z" fill="white"/>
<path d="M42.2478 13.514L41.8269 14.2026L39.4418 12.7424L41.5172 9.34738L43.8592 10.7813L43.4383 11.4698L41.8801 10.5159L41.4767 11.1757L42.815 11.9951L42.4263 12.631L41.088 11.8117L40.6466 12.5337L42.2478 13.514Z" fill="white"/>
<path d="M42.6108 14.8528L45.4481 12.0428L46.4961 13.1026C46.8046 13.4146 46.9977 13.7379 47.0754 14.0725C47.1585 14.4071 47.1449 14.7346 47.0345 15.055C46.9268 15.3727 46.7425 15.6608 46.4814 15.9194C46.1936 16.2044 45.8852 16.3937 45.5561 16.4875C45.2269 16.5812 44.8983 16.5795 44.5702 16.4823C44.2447 16.3878 43.9409 16.1979 43.6588 15.9126L42.6108 14.8528ZM45.8209 15.2515C45.9861 15.0879 46.1023 14.9148 46.1695 14.7322C46.2394 14.5469 46.2536 14.3639 46.2122 14.1833C46.1734 14.0001 46.0762 13.8299 45.9207 13.6726L45.5212 13.2686L43.8348 14.9388L44.2342 15.3427C44.3924 15.5027 44.5615 15.6017 44.7415 15.6398C44.9269 15.6779 45.1125 15.6629 45.2984 15.5949C45.4869 15.5243 45.6611 15.4098 45.8209 15.2515Z" fill="white"/>
<path d="M1.69531 32.9048L4.23647 28.1521L1.69531 23.4023H60.2812L57.74 28.1521L60.2812 32.9048H1.69531Z" fill="#560000"/>
<path d="M59.1523 24.0767L57.3168 27.5109L56.9746 28.1505L57.3168 28.79L59.1523 32.2242H2.84103L4.6583 28.79L5.00055 28.1505L4.6583 27.5109L2.84103 24.0767H59.1765M61.436 22.7188H0.566406L3.46799 28.1505L0.566406 33.5822H61.4117L58.5102 28.1505L61.4117 22.7188H61.436Z" fill="white"/>
<path d="M42.7893 26.9387L42.0018 29.3453L42.2623 31.8642L40.5662 33.7434L39.7817 36.1501L37.4677 37.1777L35.7746 39.0569L33.2426 39.0509L30.9316 40.0784L28.6206 39.0448L26.0916 39.0418L24.4015 37.1564L22.0906 36.1228L21.3122 33.7162L19.6221 31.8308L19.8917 29.315L19.1133 26.9053L20.3823 24.7138L20.6489 22.195L22.6994 20.7128L23.9684 18.5213L26.443 17.9969L28.4904 16.5117L30.9649 17.0422L33.4425 16.5208L35.4869 18.0121L37.9584 18.5425L39.2214 20.7371L41.2658 22.2283L41.5263 24.7441L42.7893 26.9387Z" fill="white"/>
<path d="M41.1792 27.1056L40.4977 29.1879L40.7249 31.3673L39.2559 32.995L38.5775 35.0773L36.5754 35.9654L35.1095 37.5901L32.9197 37.5871L30.9177 38.4752L28.9187 37.581L26.7289 37.578L25.266 35.9472L23.267 35.0561L22.5946 32.9707L21.1317 31.34L21.3649 29.1606L20.6895 27.0753L21.7889 25.1808L22.0191 23.0015L23.794 21.7163L24.8904 19.8219L27.0348 19.3672L28.8066 18.082L30.948 18.5428L33.0893 18.0881L34.8581 19.3793L36.9995 19.8401L38.0898 21.7375L39.8617 23.0288L40.0858 25.2081L41.1792 27.1056Z" fill="#560000"/>
<path d="M17.0575 37.6245C17.2599 37.9247 17.3756 38.2239 17.4046 38.522C17.4356 38.8231 17.3753 39.1131 17.2237 39.3919C17.0772 39.6718 16.8312 39.9283 16.4857 40.1616C16.116 40.4113 15.7518 40.5513 15.393 40.5817C15.0393 40.6132 14.7085 40.5476 14.4004 40.385C14.0943 40.2254 13.8279 39.9773 13.601 39.6408C13.4824 39.4649 13.3891 39.2808 13.3212 39.0884C13.2502 38.8981 13.2112 38.7193 13.2042 38.5519L14.0705 38.4435C14.0682 38.5774 14.0876 38.7011 14.1288 38.8145C14.175 38.9289 14.2329 39.0376 14.3024 39.1407C14.468 39.3863 14.6741 39.5317 14.9207 39.577C15.1673 39.6223 15.433 39.5487 15.7179 39.3564C15.7694 39.3216 15.8225 39.2858 15.877 39.2489C15.9346 39.21 15.9891 39.1666 16.0406 39.1186L16.0044 39.4673C15.8555 39.4885 15.7135 39.4807 15.5785 39.4439C15.4434 39.4071 15.3164 39.3429 15.1972 39.2513C15.0781 39.1596 14.9674 39.038 14.8652 38.8864C14.7303 38.6863 14.6476 38.4752 14.617 38.2532C14.5914 38.0322 14.6192 37.8215 14.7002 37.6212C14.7843 37.4188 14.9279 37.2491 15.1309 37.112C15.3522 36.9626 15.5809 36.8898 15.8171 36.8935C16.0564 36.8952 16.2834 36.9604 16.498 37.089C16.7157 37.2156 16.9022 37.3941 17.0575 37.6245ZM16.4564 38.1165C16.3992 38.0316 16.3324 37.9685 16.2562 37.9274C16.1799 37.8862 16.0982 37.8664 16.011 37.8679C15.9289 37.8704 15.8454 37.9003 15.7605 37.9576C15.6393 38.0394 15.5689 38.1443 15.5493 38.2723C15.5318 38.4032 15.567 38.5339 15.6549 38.6643C15.7141 38.7522 15.7829 38.8183 15.8613 38.8625C15.9396 38.9067 16.0213 38.9265 16.1064 38.922C16.1916 38.9174 16.275 38.8875 16.3569 38.8323C16.4357 38.7791 16.4916 38.7148 16.5246 38.6396C16.5607 38.5623 16.573 38.479 16.5613 38.3898C16.5527 38.2985 16.5177 38.2074 16.4564 38.1165Z" fill="white"/>
<path d="M17.4021 43.9928C17.159 43.7724 16.9954 43.5185 16.9115 43.2309C16.8303 42.9457 16.8347 42.6447 16.9247 42.3278C17.0148 42.0109 17.2017 41.6956 17.4854 41.382C17.7691 41.0684 18.0641 40.8511 18.3703 40.73C18.6765 40.6089 18.9753 40.5747 19.2669 40.6274C19.5612 40.6825 19.83 40.8202 20.0731 41.0405C20.3136 41.2584 20.4744 41.5099 20.5556 41.7951C20.6396 42.0827 20.6365 42.3849 20.5465 42.7018C20.4564 43.0187 20.2695 43.334 19.9858 43.6476C19.7021 43.9612 19.4071 44.1785 19.1009 44.2996C18.7947 44.4207 18.4945 44.4537 18.2002 44.3986C17.9086 44.3459 17.6426 44.2106 17.4021 43.9928ZM17.9965 43.3358C18.083 43.4141 18.1831 43.4557 18.2968 43.4603C18.4133 43.4675 18.5442 43.4287 18.6897 43.344C18.8376 43.2566 19.0008 43.1142 19.1793 42.9169C19.3603 42.7168 19.4857 42.5402 19.5555 42.3869C19.6253 42.2337 19.6509 42.0995 19.6323 41.9842C19.6164 41.8714 19.5652 41.7758 19.4787 41.6975C19.3923 41.6191 19.2908 41.5764 19.1744 41.5693C19.0606 41.5646 18.9297 41.6034 18.7815 41.6856C18.6361 41.7703 18.4728 41.9127 18.2918 42.1127C18.1133 42.3101 17.9879 42.4867 17.9156 42.6427C17.8486 42.7983 17.823 42.9326 17.8389 43.0454C17.8575 43.1607 17.9101 43.2575 17.9965 43.3358Z" fill="white"/>
<path d="M21.7975 46.8522C21.505 46.7009 21.2811 46.4965 21.1258 46.2391C20.9738 45.9833 20.9008 45.6901 20.9068 45.3596C20.9128 45.029 21.0131 44.6752 21.2079 44.298C21.4027 43.9209 21.6331 43.6343 21.8991 43.4382C22.165 43.2422 22.4463 43.1322 22.7427 43.1084C23.0424 43.0863 23.3385 43.1509 23.631 43.3022C23.9202 43.4518 24.1409 43.6545 24.2929 43.9103C24.4482 44.1677 24.5229 44.4617 24.5169 44.7923C24.5109 45.1229 24.4105 45.4767 24.2157 45.8538C24.0209 46.2309 23.7906 46.5175 23.5246 46.7136C23.2586 46.9097 22.9757 47.0188 22.676 47.0409C22.3796 47.0647 22.0868 47.0018 21.7975 46.8522ZM22.2055 46.0622C22.3095 46.116 22.4173 46.1306 22.5289 46.1059C22.6437 46.0829 22.7608 46.0117 22.8802 45.8922C23.0012 45.7694 23.123 45.5894 23.2456 45.352C23.3699 45.1115 23.4462 44.9079 23.4745 44.7413C23.5029 44.5747 23.4933 44.4379 23.4456 44.3309C23.4012 44.2255 23.327 44.1459 23.223 44.0921C23.119 44.0384 23.0096 44.023 22.8947 44.046C22.7832 44.0706 22.6661 44.1419 22.5434 44.2597C22.4241 44.3792 22.3023 44.5593 22.178 44.7998C22.0554 45.0371 21.9791 45.2407 21.9491 45.4105C21.924 45.5788 21.9336 45.7156 21.978 45.821C22.0257 45.928 22.1015 46.0084 22.2055 46.0622Z" fill="white"/>
<path d="M25.6524 48.2353L26.4246 44.8772L26.7777 45.4195L25.6299 45.1551L25.8178 44.3383L27.5688 44.7415L26.7094 48.4788L25.6524 48.2353Z" fill="white"/>
<path d="M30.3406 47.7374L30.3565 46.9376L31.9562 46.9696L31.9402 47.7694L30.3406 47.7374Z" fill="white"/>
<path d="M34.2305 48.6848L34.083 48.0217L35.1925 46.3995C35.2717 46.2845 35.3265 46.1863 35.357 46.1046C35.3911 46.0222 35.4089 45.9509 35.4104 45.8907C35.4148 45.8261 35.4114 45.7689 35.4003 45.7189C35.3733 45.5977 35.3113 45.5124 35.2143 45.4629C35.1208 45.4127 34.9938 45.4054 34.8334 45.4411C34.6979 45.4713 34.5781 45.5298 34.474 45.6166C34.3698 45.7034 34.2938 45.8158 34.2459 45.9537L33.3623 45.6903C33.449 45.424 33.6084 45.1902 33.8405 44.9888C34.0725 44.7875 34.3722 44.6459 34.7393 44.5641C35.0281 44.4998 35.2915 44.4897 35.5296 44.534C35.7676 44.5782 35.9663 44.6724 36.1256 44.8165C36.2884 44.9598 36.3956 45.1474 36.4471 45.3791C36.4741 45.5003 36.485 45.6251 36.4799 45.7535C36.474 45.8782 36.4397 46.0187 36.3772 46.1748C36.3174 46.3266 36.2166 46.5043 36.0749 46.708L35.1911 47.9825L34.9313 47.6475L36.9579 47.196L37.1447 48.0356L34.2305 48.6848Z" fill="white"/>
<path d="M40.8119 46.4917C40.5193 46.6415 40.2235 46.7048 39.9245 46.6815C39.6287 46.6565 39.3484 46.5456 39.0837 46.3488C38.819 46.152 38.5902 45.865 38.3973 45.4878C38.2045 45.1106 38.1057 44.757 38.101 44.4271C38.0964 44.0971 38.1705 43.8048 38.3233 43.5501C38.4793 43.2937 38.7036 43.0906 38.9962 42.9408C39.2855 42.7926 39.578 42.731 39.8738 42.756C40.1729 42.7793 40.4548 42.8893 40.7195 43.0861C40.9842 43.2829 41.213 43.5699 41.4059 43.9471C41.5987 44.3243 41.6975 44.6779 41.7022 45.0079C41.7068 45.3379 41.6311 45.631 41.4751 45.8874C41.3223 46.1421 41.1012 46.3435 40.8119 46.4917ZM40.4078 45.7015C40.5119 45.6482 40.5863 45.5691 40.631 45.4641C40.679 45.3575 40.6892 45.2209 40.6616 45.0546C40.6322 44.8849 40.5569 44.6814 40.4355 44.444C40.3125 44.2034 40.1916 44.0232 40.073 43.9035C39.9543 43.7837 39.8377 43.7121 39.7232 43.6887C39.6119 43.6636 39.5042 43.6777 39.4002 43.731C39.2962 43.7842 39.2202 43.8642 39.1722 43.9708C39.1274 44.0758 39.1172 44.2124 39.1416 44.3804C39.1693 44.5468 39.2446 44.7503 39.3677 44.9909C39.489 45.2283 39.6099 45.4085 39.7302 45.5315C39.8522 45.6496 39.9688 45.7212 40.08 45.7463C40.1945 45.7697 40.3038 45.7548 40.4078 45.7015Z" fill="white"/>
<path d="M44.1689 44.1418L41.8956 41.5566L42.5411 41.5861L41.658 42.3638L41.1051 41.735L42.4523 40.5485L44.9822 43.4256L44.1689 44.1418Z" fill="white"/>
<path d="M48.2387 39.7379C48.0905 39.9551 47.9142 40.1553 47.7096 40.3385C47.5051 40.5216 47.2986 40.6592 47.09 40.7511L46.6352 39.9693C46.8081 39.8973 46.9686 39.8013 47.1168 39.6813C47.267 39.5583 47.3935 39.4214 47.4964 39.2706C47.5993 39.1197 47.654 38.978 47.6605 38.8453C47.664 38.7106 47.613 38.6071 47.5075 38.535C47.4441 38.4918 47.376 38.4717 47.303 38.475C47.2271 38.4762 47.1472 38.5123 47.0634 38.5833C46.9766 38.6522 46.8776 38.7682 46.7664 38.9311L46.1799 39.791L44.4379 38.3686L45.8147 36.3502L46.5068 36.823L45.346 38.5246L45.2643 37.7987L46.4418 38.7557L45.7364 38.9439L46.2149 38.2425C46.429 37.9287 46.6461 37.7077 46.8662 37.5794C47.0833 37.4491 47.2971 37.3917 47.5075 37.4072C47.715 37.4207 47.9122 37.4912 48.0992 37.619C48.2861 37.7467 48.4286 37.917 48.5265 38.1299C48.6235 38.3377 48.6543 38.5777 48.619 38.8499C48.5836 39.1221 48.4569 39.4181 48.2387 39.7379Z" fill="white"/>
<path d="M24.2498 31.2969V25.1406H25.6718V31.2969H24.2498ZM30.5431 26.9441C30.5258 26.9152 30.4651 26.8718 30.361 26.814C30.257 26.7504 30.1269 26.684 29.9709 26.6146C29.8148 26.5452 29.6443 26.4845 29.4593 26.4325C29.2743 26.3805 29.0893 26.3545 28.9043 26.3545C28.6616 26.3545 28.4737 26.3978 28.3407 26.4845C28.2078 26.5655 28.1413 26.6926 28.1413 26.8661C28.1413 27.0048 28.1904 27.1146 28.2887 27.1956C28.3928 27.2765 28.5402 27.3487 28.7309 27.4123C28.9217 27.4701 29.1558 27.5395 29.4333 27.6204C29.8263 27.7245 30.1674 27.8516 30.4564 28.0019C30.7455 28.1465 30.9651 28.3343 31.1154 28.5656C31.2715 28.7968 31.3495 29.1031 31.3495 29.4847C31.3495 29.8315 31.2859 30.1263 31.1588 30.3691C31.0316 30.6061 30.8582 30.7997 30.6385 30.95C30.4246 31.0946 30.179 31.2015 29.9015 31.2709C29.624 31.3344 29.3379 31.3662 29.0431 31.3662C28.7425 31.3662 28.4332 31.3373 28.1153 31.2795C27.8031 31.2159 27.5025 31.1292 27.2135 31.0194C26.9245 30.9038 26.6586 30.7651 26.4158 30.6032L27.0401 29.3633C27.0632 29.3922 27.1384 29.4471 27.2655 29.528C27.3927 29.6032 27.5488 29.6841 27.7338 29.7708C27.9245 29.8517 28.1355 29.924 28.3667 29.9876C28.598 30.0512 28.8321 30.083 29.0691 30.083C29.3234 30.083 29.5113 30.0425 29.6327 29.9616C29.7599 29.8806 29.8235 29.7679 29.8235 29.6234C29.8235 29.4673 29.757 29.3459 29.624 29.2592C29.4968 29.1725 29.3205 29.0945 29.0951 29.0251C28.8754 28.9557 28.6211 28.8777 28.3321 28.791C27.9563 28.6754 27.6442 28.5453 27.3956 28.4008C27.1528 28.2563 26.9707 28.08 26.8493 27.8719C26.7337 27.6638 26.6759 27.4037 26.6759 27.0915C26.6759 26.658 26.7771 26.2938 26.9794 25.999C27.1875 25.6984 27.465 25.4729 27.8118 25.3226C28.1586 25.1666 28.5373 25.0885 28.9477 25.0885C29.2367 25.0885 29.5142 25.1232 29.7801 25.1926C30.0518 25.2619 30.3032 25.3487 30.5345 25.4527C30.7715 25.5568 30.9825 25.6608 31.1674 25.7649L30.5431 26.9441ZM34.8806 31.3489C34.4182 31.3489 33.9991 31.2622 33.6233 31.0888C33.2534 30.9096 32.9325 30.6726 32.6609 30.3778C32.395 30.0772 32.1897 29.7419 32.0452 29.3719C31.9007 28.9962 31.8285 28.6089 31.8285 28.21C31.8285 27.7996 31.9036 27.4094 32.0539 27.0395C32.21 26.6695 32.4239 26.34 32.6955 26.051C32.973 25.7562 33.2996 25.525 33.6753 25.3573C34.0511 25.1897 34.4615 25.1059 34.9066 25.1059C35.3633 25.1059 35.7766 25.1955 36.1465 25.3747C36.5223 25.5481 36.8431 25.7851 37.109 26.0857C37.3807 26.3863 37.5888 26.7244 37.7333 27.1002C37.8778 27.4701 37.9501 27.8488 37.9501 28.2361C37.9501 28.6465 37.8749 29.0367 37.7246 29.4066C37.5743 29.7766 37.3605 30.109 37.083 30.4038C36.8055 30.6928 36.4789 30.924 36.1032 31.0974C35.7332 31.2651 35.3257 31.3489 34.8806 31.3489ZM33.2765 28.2274C33.2765 28.4644 33.3112 28.6956 33.3805 28.9211C33.4499 29.1407 33.5511 29.3373 33.684 29.5107C33.8228 29.6841 33.9933 29.8228 34.1956 29.9269C34.3979 30.0309 34.6291 30.083 34.8893 30.083C35.161 30.083 35.398 30.0309 35.6003 29.9269C35.8026 29.817 35.9702 29.6725 36.1032 29.4933C36.2361 29.3141 36.3344 29.1147 36.398 28.895C36.4674 28.6696 36.5021 28.4413 36.5021 28.21C36.5021 27.973 36.4674 27.7447 36.398 27.525C36.3286 27.3054 36.2246 27.1088 36.0859 26.9354C35.9471 26.7562 35.7766 26.6175 35.5743 26.5192C35.3719 26.421 35.1436 26.3718 34.8893 26.3718C34.6176 26.3718 34.3806 26.4238 34.1783 26.5279C33.9817 26.6319 33.8141 26.7736 33.6753 26.9528C33.5424 27.1262 33.4412 27.3256 33.3719 27.5511C33.3083 27.7707 33.2765 27.9962 33.2765 28.2274Z" fill="white"/>
<path d="M8.78892 25.8398L9.39468 27.7009H11.3513L9.76722 28.8527L10.373 30.7169L8.78892 29.565L7.20486 30.7169L7.81062 28.8527L6.22656 27.7009H8.18619L8.78892 25.8398Z" fill="white"/>
<path d="M15.1346 25.8398L15.7373 27.7009H17.697L16.1129 28.8527L16.7187 30.7169L15.1346 29.565L13.5506 30.7169L14.1563 28.8527L12.5723 27.7009H14.5289L15.1346 25.8398Z" fill="white"/>
<path d="M46.7342 25.8398L47.34 27.7009H49.2966L47.7125 28.8527L48.3183 30.7169L46.7342 29.565L45.1502 30.7169L45.7559 28.8527L44.1719 27.7009H46.1285L46.7342 25.8398Z" fill="white"/>
<path d="M53.0799 25.8398L53.6827 27.7009H55.6423L54.0582 28.8527L54.664 30.7169L53.0799 29.565L51.4959 30.7169L52.1016 28.8527L50.5176 27.7009H52.4742L53.0799 25.8398Z" fill="white"/>
</g>
<defs>
<clipPath id="clip0_405_432">
<rect width="62" height="56" fill="white"/>
</clipPath>
</defs>
</svg>
