<svg width="62" height="56" viewBox="0 0 62 56" fill="none" xmlns="http://www.w3.org/2000/svg">
<path d="M31.2584 0.683594C25.876 0.682999 20.6144 2.28469 16.1389 5.2861C11.6633 8.28751 8.17499 12.5538 6.11497 17.5455C4.05496 22.5371 3.51581 28.0299 4.56571 33.3292C5.61562 38.6285 8.2074 43.4962 12.0133 47.3167C15.8192 51.1373 20.6683 53.739 25.9472 54.793C31.2262 55.8469 36.698 55.3057 41.6705 53.2378C46.643 51.1698 50.893 47.6681 53.8829 43.1753C56.8728 38.6826 58.4684 33.4007 58.4678 27.9977C58.467 20.7538 55.6 13.8068 50.4975 8.68458C45.3949 3.56237 38.4745 0.684391 31.2584 0.683594ZM31.2584 53.4058C26.2524 53.4058 21.3588 51.9156 17.1965 49.1238C13.0341 46.3319 9.78996 42.3637 7.87425 37.7209C5.95853 33.0782 5.45729 27.9695 6.43392 23.0408C7.41054 18.1121 9.82116 13.5848 13.3609 10.0314C16.9007 6.47799 21.4107 4.0581 26.3205 3.07772C31.2303 2.09734 36.3195 2.6005 40.9444 4.52358C45.5693 6.44667 49.5224 9.7033 52.3035 13.8816C55.0847 18.06 56.5692 22.9724 56.5692 27.9977C56.5692 31.3343 55.9145 34.6383 54.6425 37.7209C53.3705 40.8036 51.5061 43.6046 49.1558 45.9639C46.8055 48.3233 44.0152 50.1948 40.9444 51.4717C37.8736 52.7486 34.5822 53.4058 31.2584 53.4058Z" fill="white"/>
<path d="M31.2578 4.68832C35.8274 4.68832 40.2943 6.04861 44.0938 8.59716C47.8932 11.1457 50.8545 14.7681 52.603 19.0061C54.3516 23.2442 54.809 27.9076 53.9173 32.4065C53.0256 36.9055 50.8249 41.038 47.5934 44.2814C44.362 47.5248 40.2451 49.7335 35.7632 50.628C31.2814 51.5226 26.6359 51.0629 22.4143 49.307C18.1927 47.5512 14.5846 44.5781 12.0463 40.7637C9.50804 36.9493 8.15354 32.465 8.15413 27.8778C8.16046 21.729 10.5967 15.8339 14.9282 11.4863C19.2597 7.13874 25.1325 4.69388 31.2578 4.68832ZM31.2578 3.67969C26.4902 3.67969 21.8296 5.09888 17.8655 7.75781C13.9014 10.4167 10.8118 14.196 8.98727 18.6176C7.16279 23.0392 6.68542 27.9047 7.61553 32.5986C8.54565 37.2926 10.8415 41.6043 14.2127 44.9885C17.5839 48.3726 21.879 50.6773 26.555 51.611C31.231 52.5447 36.0778 52.0655 40.4825 50.234C44.8872 48.4025 48.6519 45.3009 51.3007 41.3216C53.9494 37.3422 55.3632 32.6637 55.3632 27.8778C55.3632 21.4601 52.8235 15.3052 48.3029 10.7672C43.7822 6.22913 37.6509 3.67969 31.2578 3.67969Z" fill="white"/>
<path d="M31.2539 13.4922V27.8502" stroke="white" stroke-width="1.00863" stroke-miterlimit="10"/>
<path d="M34.959 13.9805L31.2539 27.8491" stroke="white" stroke-width="1.00863" stroke-miterlimit="10"/>
<path d="M38.4069 15.418L31.2539 27.8517" stroke="white" stroke-width="1.00863" stroke-miterlimit="10"/>
<path d="M41.3703 17.6992L31.2539 27.8516" stroke="white" stroke-width="1.00863" stroke-miterlimit="10"/>
<path d="M45.0724 24.1367L31.2539 27.853" stroke="white" stroke-width="1.00863" stroke-miterlimit="10"/>
<path d="M45.5599 27.8516H31.2539" stroke="white" stroke-width="1.00863" stroke-miterlimit="10"/>
<path d="M45.0724 31.5709L31.2539 27.8516" stroke="white" stroke-width="1.00863" stroke-miterlimit="10"/>
<path d="M43.643 35.0321L31.2539 27.8516" stroke="white" stroke-width="1.00863" stroke-miterlimit="10"/>
<path d="M41.3703 38.0069L31.2539 27.8516" stroke="white" stroke-width="1.00863" stroke-miterlimit="10"/>
<path d="M38.4069 40.2883L31.2539 27.8516" stroke="white" stroke-width="1.00863" stroke-miterlimit="10"/>
<path d="M34.959 41.7232L31.2539 27.8516" stroke="white" stroke-width="1.00863" stroke-miterlimit="10"/>
<path d="M31.2539 42.2125V27.8516" stroke="white" stroke-width="1.00863" stroke-miterlimit="10"/>
<path d="M27.5508 41.7232L31.2529 27.8516" stroke="white" stroke-width="1.00863" stroke-miterlimit="10"/>
<path d="M24.1055 40.2883L31.2555 27.8516" stroke="white" stroke-width="1.00863" stroke-miterlimit="10"/>
<path d="M21.1406 38.0069L31.2541 27.8516" stroke="white" stroke-width="1.00863" stroke-miterlimit="10"/>
<path d="M18.8672 35.0321L31.2533 27.8516" stroke="white" stroke-width="1.00863" stroke-miterlimit="10"/>
<path d="M17.4375 31.5709L31.253 27.8516" stroke="white" stroke-width="1.00863" stroke-miterlimit="10"/>
<path d="M16.9512 27.8516H31.2541" stroke="white" stroke-width="1.00863" stroke-miterlimit="10"/>
<path d="M17.4375 24.1367L31.253 27.853" stroke="white" stroke-width="1.00863" stroke-miterlimit="10"/>
<path d="M18.8672 20.6719L31.2533 27.8494" stroke="white" stroke-width="1.00863" stroke-miterlimit="10"/>
<path d="M21.1406 17.6992L31.2541 27.8516" stroke="white" stroke-width="1.00863" stroke-miterlimit="10"/>
<path d="M24.1055 15.418L31.2555 27.8517" stroke="white" stroke-width="1.00863" stroke-miterlimit="10"/>
<path d="M27.5508 13.9805L31.2529 27.8491" stroke="white" stroke-width="1.00863" stroke-miterlimit="10"/>
<path d="M43.643 20.6719L31.2539 27.8494" stroke="white" stroke-width="1.00863" stroke-miterlimit="10"/>
<path d="M31.2562 42.769C28.322 42.7696 25.4534 41.8967 23.0134 40.2607C20.5733 38.6246 18.6714 36.299 17.5481 33.5778C16.4248 30.8566 16.1306 27.8622 16.7027 24.9732C17.2747 22.0842 18.6874 19.4303 20.7621 17.3473C22.8367 15.2643 25.4801 13.8456 28.3579 13.2708C31.2358 12.6959 34.2188 12.9906 36.9297 14.1177C39.6407 15.2448 41.9578 17.1536 43.5881 19.6027C45.2183 22.0517 46.0885 24.9311 46.0885 27.8767C46.0837 31.8244 44.5196 35.6091 41.7391 38.4008C38.9587 41.1926 35.1888 42.7634 31.2562 42.769ZM31.2562 13.993C28.5208 13.993 25.8468 14.8073 23.5724 16.3328C21.298 17.8584 19.5253 20.0267 18.4785 22.5636C17.4317 25.1005 17.1578 27.8921 17.6915 30.5853C18.2251 33.2784 19.5424 35.7523 21.4766 37.6939C23.4108 39.6356 25.8752 40.9579 28.558 41.4936C31.2409 42.0293 34.0217 41.7544 36.5489 40.7035C39.0761 39.6527 41.2361 37.8732 42.7558 35.59C44.2756 33.3069 45.0867 30.6226 45.0867 27.8767C45.082 24.196 43.6233 20.6674 41.0306 18.0647C38.4379 15.462 34.9228 13.9978 31.2562 13.993Z" fill="white"/>
<path d="M15.9936 15.8745C15.8185 15.7107 15.6774 15.5182 15.5706 15.2971C15.461 15.0734 15.3953 14.8351 15.3733 14.5822C15.3513 14.3292 15.3827 14.0757 15.4675 13.8216C15.5495 13.565 15.696 13.3231 15.9068 13.0959C16.1578 12.8254 16.4328 12.6457 16.7319 12.5566C17.0335 12.4648 17.3225 12.4572 17.5988 12.5337L17.4802 13.3775C17.3376 13.325 17.2041 13.3088 17.0798 13.3289C16.9579 13.3463 16.8461 13.3882 16.7442 13.4546C16.6422 13.5158 16.5547 13.5856 16.482 13.664C16.364 13.7911 16.2867 13.9259 16.2501 14.0685C16.2107 14.2085 16.204 14.3487 16.2298 14.489C16.2556 14.6293 16.3059 14.7623 16.3807 14.8878C16.4555 15.0133 16.5441 15.1239 16.6466 15.2197C16.7597 15.3255 16.8852 15.41 17.0229 15.4731C17.1607 15.5362 17.3001 15.5731 17.4411 15.5838C17.5847 15.5918 17.7247 15.5712 17.861 15.5219C17.9947 15.47 18.1142 15.3873 18.2196 15.2737C18.2949 15.1926 18.358 15.0975 18.4088 14.9885C18.4597 14.8794 18.4895 14.7633 18.4981 14.6401C18.5066 14.5116 18.4812 14.3843 18.422 14.2583L19.2458 14.0133C19.3333 14.2011 19.3666 14.4065 19.3459 14.6296C19.3251 14.8527 19.2651 15.0719 19.1659 15.2873C19.0666 15.4974 18.9428 15.6823 18.7948 15.8419C18.6015 16.0501 18.3816 16.2031 18.1349 16.3007C17.888 16.3932 17.6356 16.4375 17.3775 16.4335C17.1192 16.4244 16.8698 16.3731 16.6294 16.2796C16.3888 16.1809 16.1769 16.0458 15.9936 15.8745Z" fill="white"/>
<path d="M22.4896 11.8957L22.9357 12.5595L20.6409 14.1138L18.4411 10.8407L20.6945 9.31448L21.1407 9.97831L19.6414 10.9937L20.069 11.6299L21.3567 10.7578L21.7688 11.3709L20.4811 12.243L20.949 12.9391L22.4896 11.8957Z" fill="white"/>
<path d="M23.8527 12.1852L22.4395 8.52034L24.0896 7.87914C24.2615 7.81234 24.4336 7.78703 24.6058 7.80319C24.7802 7.81457 24.9439 7.85977 25.0969 7.9388C25.2486 8.01439 25.3822 8.11481 25.4977 8.24007C25.6166 8.364 25.7053 8.50167 25.7636 8.65308C25.822 8.80449 25.8537 8.95836 25.8586 9.11471C25.8623 9.26762 25.8406 9.4165 25.7937 9.56134C25.7455 9.70275 25.6727 9.83191 25.5755 9.94883L26.9054 10.9989L25.9721 11.3616L24.815 10.4521L24.2426 10.6745L24.6984 11.8565L23.8527 12.1852ZM23.958 9.93638L24.7314 9.63582C24.8002 9.6091 24.8524 9.56508 24.888 9.50375C24.9258 9.43764 24.9473 9.36005 24.9524 9.27099C24.9576 9.18193 24.941 9.0875 24.9025 8.9877C24.864 8.88791 24.8102 8.8099 24.7411 8.75366C24.6741 8.69265 24.6034 8.65285 24.529 8.63427C24.4547 8.61569 24.3848 8.61908 24.3195 8.64447L23.5718 8.93501L23.958 9.93638Z" fill="white"/>
<path d="M30.2003 7.35339L29.0149 7.52888L29.4714 10.6354L28.5714 10.7686L28.115 7.66213L26.9241 7.83844L26.808 7.04809L30.0841 6.56304L30.2003 7.35339Z" fill="white"/>
<path d="M31.4544 10.5599L31.5721 6.6212L32.4819 6.64859L32.3642 10.5873L31.4544 10.5599Z" fill="white"/>
<path d="M33.8227 10.7216L34.6076 6.86107L37.2276 7.39782L37.0684 8.1808L35.3398 7.82668L35.1707 8.65859L36.5949 8.95035L36.4478 9.67352L35.0237 9.38176L34.7142 10.9042L33.8227 10.7216Z" fill="white"/>
<path d="M37.4264 11.6789L38.8789 8.014L39.7245 8.35174L38.272 12.0166L37.4264 11.6789Z" fill="white"/>
<path d="M42.3385 13.4254L41.9243 14.1051L39.5738 12.6616L41.6162 9.31025L43.9243 10.7277L43.5101 11.4074L41.9745 10.4644L41.5775 11.1158L42.8964 11.9257L42.5138 12.5535L41.1949 11.7436L40.7605 12.4563L42.3385 13.4254Z" fill="white"/>
<path d="M42.6883 14.7495L45.4826 11.9736L46.5146 13.0205C46.8184 13.3287 47.0086 13.648 47.0851 13.9786C47.1669 14.3091 47.1535 14.6327 47.0448 14.9491C46.9388 15.263 46.7572 15.5476 46.5001 15.8031C46.2167 16.0846 45.9129 16.2716 45.5888 16.3643C45.2647 16.4569 44.941 16.4552 44.6179 16.3592C44.2973 16.2658 43.9981 16.0782 43.7203 15.7964L42.6883 14.7495ZM45.8497 15.1433C46.0124 14.9817 46.1268 14.8107 46.193 14.6303C46.2618 14.4472 46.2758 14.2665 46.235 14.0881C46.1968 13.9071 46.1011 13.7389 45.9479 13.5835L45.5546 13.1845L43.8937 14.8344L44.2871 15.2334C44.4428 15.3914 44.6094 15.4892 44.7867 15.5268C44.9692 15.5645 45.152 15.5497 45.335 15.4826C45.5207 15.4128 45.6923 15.2997 45.8497 15.1433Z" fill="white"/>
<path d="M2.33594 32.5867L4.84486 27.8797L2.33594 23.1758H60.1788L57.6698 27.8797L60.1788 32.5867H2.33594Z" fill="#560000"/>
<path d="M59.0616 23.8448L57.2494 27.246L56.9115 27.8794L57.2494 28.5128L59.0616 31.9139H3.46452L5.25874 28.5128L5.59666 27.8794L5.25874 27.246L3.46452 23.8448H59.0855M61.3163 22.5H1.21875L4.08353 27.8794L1.21875 33.2587H61.2924L58.4276 27.8794L61.2924 22.5H61.3163Z" fill="white"/>
<path d="M42.907 26.6819L42.1295 29.0654L42.3867 31.56L40.7121 33.4211L39.9376 35.8046L37.6529 36.8223L35.9813 38.6834L33.4813 38.6774L31.1997 39.6951L28.918 38.6714L26.4211 38.6684L24.7524 36.8012L22.4708 35.7776L21.7023 33.3941L20.0336 31.527L20.2998 29.0354L19.5312 26.6489L20.7842 24.4785L21.0474 21.984L23.0719 20.5161L24.3248 18.3457L26.768 17.8264L28.7894 16.3555L31.2326 16.8808L33.6787 16.3645L35.6972 17.8414L38.1374 18.3667L39.3843 20.5401L41.4029 22.017L41.66 24.5086L42.907 26.6819Z" fill="white"/>
<path d="M41.2533 26.8428L40.5805 28.9051L40.8048 31.0635L39.3544 32.6755L38.6846 34.7378L36.708 35.6173L35.2606 37.2263L33.0986 37.2233L31.1219 38.1029L29.1483 37.2173L26.9862 37.2143L25.5419 35.5993L23.5682 34.7168L22.9044 32.6515L21.46 31.0365L21.6903 28.8781L21.0234 26.8128L22.1089 24.9366L22.3362 22.7783L24.0886 21.5055L25.1711 19.6293L27.2883 19.179L29.0376 17.9062L31.1518 18.3625L33.266 17.9123L35.0124 19.1911L37.1266 19.6473L38.2031 21.5265L39.9525 22.8053L40.1738 24.9637L41.2533 26.8428Z" fill="#560000"/>
<path d="M12.2891 35.9706L12.8884 35.671L14.7016 36.3474C14.8302 36.3958 14.9371 36.425 15.0224 36.4347C15.1092 36.4477 15.1816 36.4477 15.2396 36.4349C15.3024 36.4236 15.3563 36.4067 15.4014 36.3842C15.511 36.3294 15.578 36.2496 15.6024 36.1448C15.6284 36.0432 15.6054 35.9198 15.5333 35.7746C15.4725 35.6519 15.3883 35.5511 15.2807 35.472C15.1731 35.3928 15.0477 35.3468 14.9045 35.3338L14.9479 34.4241C15.223 34.4437 15.4842 34.5406 15.7315 34.715C15.9789 34.8894 16.185 35.1428 16.3499 35.4752C16.4795 35.7366 16.5513 35.9866 16.5651 36.2253C16.579 36.4641 16.5358 36.6769 16.4356 36.864C16.3369 37.0542 16.1829 37.2017 15.9735 37.3064C15.8639 37.3611 15.7472 37.4014 15.6232 37.4271C15.5025 37.4512 15.3601 37.4519 15.196 37.4292C15.0368 37.4081 14.843 37.3539 14.6148 37.2667L13.1874 36.7237L13.4465 36.3948L14.3565 38.2294L13.5976 38.6087L12.2891 35.9706Z" fill="white"/>
<path d="M15.2915 40.9022L18.8112 39.7941L18.6561 40.3088L17.4021 38.8572L18.0591 38.8656L17.2481 39.5716L16.6512 38.8805L17.7312 37.9404L19.7799 40.312L19.2745 40.7519L16.0545 41.7854L15.2915 40.9022Z" fill="white"/>
<path d="M19.8853 45.1644C19.6193 44.9791 19.4268 44.7507 19.3079 44.4792C19.192 44.2097 19.1579 43.9138 19.2055 43.5914C19.2532 43.269 19.3958 42.936 19.6333 42.5922C19.8709 42.2484 20.1317 41.9977 20.4159 41.84C20.7 41.6823 20.9881 41.6108 21.2801 41.6254C21.5751 41.6421 21.8556 41.743 22.1217 41.9283C22.3848 42.1115 22.5743 42.3379 22.6902 42.6073C22.809 42.8789 22.8446 43.1758 22.797 43.4982C22.7494 43.8206 22.6068 44.1537 22.3692 44.4974C22.1316 44.8412 21.8708 45.0919 21.5867 45.2496C21.3025 45.4073 21.013 45.4778 20.718 45.4612C20.426 45.4465 20.1484 45.3476 19.8853 45.1644ZM20.3829 44.4443C20.4775 44.5102 20.5808 44.5382 20.6927 44.5283C20.8076 44.5205 20.9307 44.4658 21.0622 44.3642C21.1958 44.2597 21.3373 44.0993 21.4868 43.8829C21.6383 43.6636 21.7385 43.4744 21.7872 43.3152C21.8359 43.156 21.8438 43.021 21.8109 42.9103C21.7809 42.8016 21.7186 42.7143 21.624 42.6484C21.5294 42.5826 21.4247 42.5535 21.3098 42.5613C21.1979 42.5712 21.0747 42.6259 20.9403 42.7254C20.8088 42.827 20.6673 42.9874 20.5157 43.2067C20.3662 43.423 20.2661 43.6123 20.2153 43.7745C20.1695 43.9357 20.1617 44.0707 20.1916 44.1794C20.2246 44.2901 20.2884 44.3784 20.3829 44.4443Z" fill="white"/>
<path d="M24.539 47.4546C24.235 47.342 23.9915 47.1692 23.8085 46.9362C23.6289 46.7044 23.5218 46.4266 23.4874 46.1027C23.453 45.7788 23.5079 45.4207 23.6521 45.0285C23.7963 44.6363 23.9863 44.3283 24.2221 44.1046C24.458 43.8808 24.7191 43.7394 25.0056 43.6803C25.2956 43.6226 25.5925 43.65 25.8965 43.7627C26.1971 43.874 26.4373 44.0456 26.6169 44.2774C26.7999 44.5103 26.9086 44.7888 26.943 45.1127C26.9774 45.4366 26.9225 45.7947 26.7783 46.1869C26.6341 46.5791 26.4441 46.8871 26.2083 47.1109C25.9724 47.3346 25.7096 47.4754 25.4197 47.5332C25.1332 47.5922 24.8396 47.566 24.539 47.4546ZM24.841 46.6331C24.9491 46.6731 25.0562 46.6744 25.1621 46.6368C25.2714 46.6004 25.377 46.5167 25.479 46.3854C25.5823 46.2508 25.6793 46.0601 25.77 45.8133C25.862 45.5631 25.9117 45.3549 25.9191 45.1886C25.9265 45.0223 25.9004 44.8897 25.8409 44.7908C25.7847 44.6931 25.7025 44.6243 25.5944 44.5842C25.4863 44.5442 25.3776 44.5423 25.2683 44.5786C25.1624 44.6162 25.0567 44.7 24.9514 44.83C24.8494 44.9612 24.7524 45.1519 24.6604 45.4021C24.5696 45.6489 24.5199 45.8572 24.5113 46.0268C24.5073 46.1944 24.5333 46.327 24.5895 46.4246C24.6491 46.5235 24.733 46.593 24.841 46.6331Z" fill="white"/>
<path d="M28.5175 48.3182L28.8526 44.936L29.266 45.4226L28.11 45.3071L28.1915 44.4845L29.955 44.6605L29.5821 48.4245L28.5175 48.3182Z" fill="white"/>
<path d="M33.0105 47.263L32.9148 46.4799L34.4807 46.2869L34.5765 47.07L33.0105 47.263Z" fill="white"/>
<path d="M36.996 47.6892L36.7693 47.0586L37.6526 45.3307C37.7158 45.2082 37.7572 45.1051 37.7769 45.0214C37.7999 44.9364 37.8085 44.8643 37.8025 44.8052C37.7987 44.7414 37.7883 44.6858 37.7713 44.6384C37.7298 44.5231 37.6586 44.4474 37.5575 44.4112C37.4599 44.3738 37.3348 44.3827 37.1824 44.4379C37.0537 44.4845 36.9438 44.5568 36.8528 44.6549C36.7617 44.7531 36.7014 44.8726 36.6717 45.0136L35.775 44.8672C35.8266 44.5956 35.9534 44.3466 36.1553 44.1202C36.3572 43.8939 36.6326 43.7175 36.9814 43.5911C37.2558 43.4918 37.5121 43.4488 37.7504 43.4621C37.9887 43.4754 38.1946 43.5425 38.3683 43.6635C38.5453 43.7833 38.6734 43.9534 38.7526 44.1737C38.794 44.289 38.8202 44.4098 38.8312 44.5361C38.8409 44.659 38.8249 44.8008 38.7831 44.9615C38.7435 45.1176 38.6671 45.3043 38.5538 45.5215L37.848 46.8806L37.5524 46.5854L39.4778 45.888L39.7648 46.6863L36.996 47.6892Z" fill="white"/>
<path d="M43.1764 44.7111C42.9076 44.8931 42.6255 44.9906 42.3299 45.0034C42.0374 45.0143 41.7499 44.9389 41.4675 44.7773C41.185 44.6158 40.9271 44.3614 40.6938 44.0141C40.4604 43.6669 40.3219 43.3316 40.2784 43.0082C40.2349 42.6848 40.2729 42.389 40.3924 42.1207C40.515 41.8504 40.7106 41.6243 40.9794 41.4422C41.2452 41.2622 41.5243 41.1668 41.8169 41.156C42.1124 41.1431 42.4014 41.2175 42.6838 41.379C42.9663 41.5406 43.2242 41.795 43.4575 42.1422C43.6909 42.4895 43.8294 42.8248 43.8729 43.1482C43.9164 43.4715 43.8769 43.7684 43.7544 44.0387C43.6348 44.3069 43.4422 44.5311 43.1764 44.7111ZM42.6875 43.9837C42.7831 43.919 42.8466 43.8324 42.878 43.724C42.9124 43.6136 42.9063 43.4783 42.8595 43.3183C42.8108 43.1553 42.713 42.9645 42.5661 42.746C42.4173 42.5245 42.2777 42.362 42.1473 42.2586C42.017 42.1552 41.8944 42.0989 41.7795 42.0896C41.6676 42.0782 41.5638 42.1049 41.4683 42.1697C41.3727 42.2344 41.3077 42.322 41.2733 42.4324C41.2419 42.5408 41.248 42.676 41.2918 42.8381C41.3385 42.9981 41.4363 43.1889 41.5852 43.4104C41.732 43.6289 41.8716 43.7914 42.004 43.8978C42.1373 43.9991 42.2599 44.0555 42.3718 44.0668C42.4867 44.0761 42.5919 44.0484 42.6875 43.9837Z" fill="white"/>
<path d="M45.8018 42.416L45.3007 41.9713L45.2463 40.0301C45.2429 39.8923 45.2297 39.7819 45.2068 39.6989C45.1862 39.6132 45.1592 39.5459 45.1256 39.4968C45.0917 39.4426 45.0559 39.3988 45.0182 39.3653C44.9265 39.284 44.8278 39.2518 44.7218 39.2685C44.6183 39.2825 44.5129 39.3504 44.4058 39.472C44.3153 39.5748 44.2537 39.6911 44.2209 39.8209C44.1881 39.9508 44.1926 40.0847 44.2342 40.2228L43.3778 40.5248C43.2928 40.2615 43.2846 39.9821 43.353 39.6864C43.4214 39.3907 43.5782 39.1036 43.8234 38.8252C44.0163 38.6062 44.2203 38.4454 44.4356 38.3426C44.6509 38.2399 44.8637 38.2 45.074 38.2228C45.2866 38.243 45.4805 38.3308 45.6556 38.4862C45.7472 38.5675 45.8281 38.661 45.8983 38.7666C45.9658 38.8698 46.0197 39.002 46.0602 39.1632C46.1004 39.3192 46.1229 39.5198 46.1278 39.765L46.1609 41.297L45.7602 41.1798L47.1137 39.643L47.7482 40.2061L45.8018 42.416Z" fill="white"/>
<path d="M48.9692 38.3106L48.3734 38.0041L47.8398 36.1377C47.8023 36.005 47.7622 35.9013 47.7195 35.8267C47.6783 35.7488 47.6354 35.6903 47.5907 35.6511C47.5444 35.607 47.4989 35.5734 47.454 35.5504C47.3451 35.4944 47.2414 35.4876 47.1429 35.5301C47.046 35.5694 46.9607 35.6612 46.887 35.8056C46.8247 35.9275 46.7938 36.0554 46.7943 36.1893C46.7947 36.3232 46.8321 36.4518 46.9067 36.5752L46.1515 37.08C46.004 36.8462 45.9267 36.5775 45.9198 36.2742C45.9128 35.9709 45.9937 35.654 46.1624 35.3235C46.295 35.0636 46.453 34.8572 46.6362 34.7044C46.8193 34.5515 47.0156 34.46 47.2251 34.43C47.4362 34.3968 47.6458 34.4338 47.854 34.5409C47.9629 34.5969 48.0645 34.6674 48.1587 34.7523C48.2496 34.8355 48.3347 34.9501 48.4138 35.0962C48.4914 35.2374 48.563 35.4261 48.6284 35.6623L49.04 37.1378L48.6226 37.1236L49.5536 35.2996L50.308 35.6877L48.9692 38.3106Z" fill="white"/>
<path d="M24.3355 30.4688V24.3966H25.7381V30.4688H24.3355ZM30.5428 26.1755C30.5257 26.147 30.4658 26.1042 30.3632 26.0472C30.2606 25.9845 30.1323 25.9189 29.9783 25.8505C29.8244 25.7821 29.6562 25.7222 29.4738 25.6709C29.2913 25.6196 29.1089 25.5939 28.9264 25.5939C28.6869 25.5939 28.5016 25.6367 28.3705 25.7222C28.2394 25.802 28.1738 25.9275 28.1738 26.0985C28.1738 26.2353 28.2223 26.3437 28.3192 26.4235C28.4218 26.5033 28.5672 26.5746 28.7554 26.6373C28.9435 26.6943 29.1744 26.7627 29.4481 26.8426C29.8358 26.9452 30.1722 27.0706 30.4573 27.2189C30.7424 27.3614 30.959 27.5467 31.1073 27.7748C31.2612 28.0028 31.3382 28.305 31.3382 28.6813C31.3382 29.0234 31.2754 29.3142 31.15 29.5536C31.0246 29.7874 30.8535 29.9784 30.6369 30.1267C30.4259 30.2692 30.1836 30.3747 29.9099 30.4431C29.6362 30.5058 29.354 30.5372 29.0632 30.5372C28.7668 30.5372 28.4617 30.5087 28.1481 30.4516C27.8403 30.3889 27.5438 30.3034 27.2587 30.1951C26.9736 30.081 26.7113 29.9442 26.4719 29.7846L27.0877 28.5616C27.1105 28.5901 27.1846 28.6442 27.31 28.7241C27.4354 28.7982 27.5894 28.878 27.7718 28.9635C27.96 29.0434 28.1681 29.1146 28.3962 29.1773C28.6242 29.2401 28.8551 29.2714 29.0889 29.2714C29.3398 29.2714 29.5251 29.2315 29.6448 29.1517C29.7702 29.0719 29.833 28.9607 29.833 28.8181C29.833 28.6642 29.7674 28.5445 29.6362 28.4589C29.5108 28.3734 29.3369 28.2965 29.1146 28.228C28.8979 28.1596 28.647 28.0826 28.3619 27.9971C27.9913 27.8831 27.6835 27.7548 27.4383 27.6123C27.1988 27.4697 27.0192 27.2958 26.8995 27.0906C26.7855 26.8853 26.7285 26.6287 26.7285 26.3209C26.7285 25.8932 26.8282 25.534 27.0278 25.2433C27.233 24.9468 27.5067 24.7244 27.8488 24.5762C28.1909 24.4222 28.5644 24.3453 28.9692 24.3453C29.2542 24.3453 29.5279 24.3795 29.7902 24.4479C30.0582 24.5163 30.3062 24.6018 30.5342 24.7045C30.768 24.8071 30.9761 24.9097 31.1586 25.0124L30.5428 26.1755ZM34.821 30.5201C34.3648 30.5201 33.9515 30.4345 33.5809 30.2635C33.216 30.0867 32.8995 29.853 32.6316 29.5622C32.3693 29.2657 32.1669 28.935 32.0244 28.5701C31.8818 28.1995 31.8105 27.8175 31.8105 27.4241C31.8105 27.0193 31.8847 26.6344 32.0329 26.2695C32.1869 25.9046 32.3978 25.5797 32.6658 25.2946C32.9395 25.0038 33.2616 24.7757 33.6322 24.6104C34.0028 24.445 34.4076 24.3624 34.8466 24.3624C35.2971 24.3624 35.7047 24.4508 36.0696 24.6275C36.4402 24.7985 36.7567 25.0323 37.0189 25.3288C37.2869 25.6253 37.4922 25.9588 37.6347 26.3294C37.7772 26.6943 37.8485 27.0678 37.8485 27.4498C37.8485 27.8546 37.7744 28.2394 37.6261 28.6043C37.4779 28.9692 37.2669 29.2971 36.9933 29.5879C36.7196 29.8729 36.3975 30.101 36.0269 30.272C35.662 30.4374 35.26 30.5201 34.821 30.5201ZM33.2388 27.4412C33.2388 27.675 33.273 27.903 33.3414 28.1254C33.4098 28.3421 33.5096 28.5359 33.6408 28.707C33.7776 28.878 33.9458 29.0149 34.1453 29.1175C34.3449 29.2201 34.573 29.2714 34.8295 29.2714C35.0975 29.2714 35.3313 29.2201 35.5308 29.1175C35.7304 29.0091 35.8957 28.8666 36.0269 28.6899C36.158 28.5131 36.2549 28.3164 36.3176 28.0998C36.3861 27.8774 36.4203 27.6522 36.4203 27.4241C36.4203 27.1904 36.3861 26.9651 36.3176 26.7485C36.2492 26.5318 36.1466 26.338 36.0098 26.1669C35.8729 25.9902 35.7047 25.8533 35.5052 25.7564C35.3056 25.6595 35.0804 25.611 34.8295 25.611C34.5616 25.611 34.3278 25.6623 34.1282 25.765C33.9344 25.8676 33.769 26.0073 33.6322 26.184C33.5011 26.3551 33.4013 26.5518 33.3329 26.7741C33.2701 26.9908 33.2388 27.2132 33.2388 27.4412Z" fill="white"/>
<path d="M9.33845 25.5898L9.93653 27.433H11.8683L10.3043 28.5737L10.9024 30.4199L9.33845 29.2791L7.77448 30.4199L8.37256 28.5737L6.80859 27.433H8.74337L9.33845 25.5898Z" fill="white"/>
<path d="M15.6021 25.5898L16.1972 27.433H18.132L16.568 28.5737L17.1661 30.4199L15.6021 29.2791L14.0382 30.4199L14.6362 28.5737L13.0723 27.433H15.004L15.6021 25.5898Z" fill="white"/>
<path d="M46.8013 25.5898L47.3994 27.433H49.3312L47.7672 28.5737L48.3653 30.4199L46.8013 29.2791L45.2374 30.4199L45.8354 28.5737L44.2715 27.433H46.2033L46.8013 25.5898Z" fill="white"/>
<path d="M53.065 25.5898L53.6601 27.433H55.5949L54.0309 28.5737L54.629 30.4199L53.065 29.2791L51.501 30.4199L52.0991 28.5737L50.5352 27.433H52.4669L53.065 25.5898Z" fill="white"/>
</svg>
