<svg width="150" height="92" viewBox="0 0 150 92" fill="none" xmlns="http://www.w3.org/2000/svg">
<g filter="url(#filter0_d_591_206)">
<rect x="10" y="6" width="130" height="72" rx="8" fill="white"/>
<path d="M37.7656 30.998C41.4939 32.2959 44.1486 35.644 44.1486 39.5697C44.1486 43.4954 41.4939 46.8436 37.7656 48.1414V30.998Z" fill="#F47D20"/>
<path d="M44.1494 49.2129C42.6998 51.0904 38.9599 52.4273 34.5749 52.4273C30.19 52.4273 26.4501 51.0904 25.0005 49.2129L44.1494 49.2129Z" fill="#2B8E44"/>
<path d="M36.702 48.1417H28.1914L36.702 35.2842V48.1417Z" fill="#2A3485"/>
<path d="M125.001 48.1456H122.873V35.2881H125.001V48.1456Z" fill="#2B3980"/>
<path d="M119.681 37.0475H115.286V48.1456H113.42V37.0475H109.043V35.2881H119.681V37.0475Z" fill="#2B3980"/>
<path d="M106.915 35.2881V48.1456H104.91V42.5192H97.1986V48.1456H95.2129V35.2881H97.1986V40.7791H104.91V35.2881H106.915Z" fill="#2B3980"/>
<path d="M86.9106 48.1456C84.6529 48.1456 82.4494 47.2499 81.3838 46.5034L82.4494 45.1411C83.6776 45.9996 85.3032 46.4288 86.9287 46.4288C88.7529 46.4288 90.0895 45.757 90.0895 44.488C90.0895 43.1631 88.5723 42.9018 87.0913 42.6592L86.7481 42.6032C82.8287 41.9501 81.8173 40.9797 81.8173 39.1509C81.8173 36.1465 84.6891 35.2881 87.1274 35.2881C88.8071 35.2881 90.5952 35.9039 91.9679 36.7063L90.8481 38.0313C89.5838 37.3221 88.4098 37.0049 87.0913 37.0049C84.8877 37.0049 83.7318 37.77 83.7318 39.039C83.7318 40.0653 84.5265 40.5319 87.0913 40.9051C88.8252 41.185 92.0221 41.6329 92.0221 44.4507C92.0221 46.6527 90.0534 48.1456 86.9106 48.1456Z" fill="#2B3980"/>
<path d="M76.7029 45.0134H70.1631L68.7013 48.1456H66.4893L72.3559 35.2881H74.4524L80.319 48.1456H78.1263L76.7029 45.0134ZM75.9143 43.2733L73.4138 37.5696L70.971 43.2733H75.9143Z" fill="#2B3980"/>
<path d="M57.8031 42.5192L55.6963 44.6654V48.1456H53.7236V35.2881H55.6963V41.9392L62.2656 35.2881H64.8703L59.1629 41.1271L65.4258 48.1456H62.8785L57.8031 42.5192Z" fill="#2B3980"/>
</g>
<defs>
<filter id="filter0_d_591_206" x="0" y="0" width="150" height="92" filterUnits="userSpaceOnUse" color-interpolation-filters="sRGB">
<feFlood flood-opacity="0" result="BackgroundImageFix"/>
<feColorMatrix in="SourceAlpha" type="matrix" values="0 0 0 0 0 0 0 0 0 0 0 0 0 0 0 0 0 0 127 0" result="hardAlpha"/>
<feOffset dy="4"/>
<feGaussianBlur stdDeviation="5"/>
<feComposite in2="hardAlpha" operator="out"/>
<feColorMatrix type="matrix" values="0 0 0 0 0.858824 0 0 0 0 0.894118 0 0 0 0 0.941176 0 0 0 0.4 0"/>
<feBlend mode="normal" in2="BackgroundImageFix" result="effect1_dropShadow_591_206"/>
<feBlend mode="normal" in="SourceGraphic" in2="effect1_dropShadow_591_206" result="shape"/>
</filter>
</defs>
</svg>
