<svg width="48" height="48" viewBox="0 0 48 48" fill="none" xmlns="http://www.w3.org/2000/svg">
    <path opacity=".3" d="M44 29H4v5h40v-5zM41 4H7l-.5 3h35.328L41 4z" fill="red"/>
    <circle opacity=".3" cx="24" cy="42.113" r="2.264" fill="red"/>
    <ellipse opacity=".3" cx="42.565" cy="42.113" rx="1.811" ry="2.264" fill="red"/>
    <ellipse opacity=".3" cx="5.434" cy="42.113" rx="1.811" ry="2.264" fill="red"/>
    <mask id="0pkoe5jpea" maskUnits="userSpaceOnUse" x="23" y="34" width="2" height="6" fill="#000">
        <path fill="#fff" d="M23 34h2v6h-2z"/>
        <path d="M24 40v-6 6z"/>
    </mask>
    <path d="M24 40v-6 6z" fill="#004498"/>
    <path d="M24 40h.5V39.881h-1V40h.5zm.5-.118V39.596h-1V39.881h1zm0-.285v-5.194h-1v5.194h1zm0-5.194V34.119h-1V34.404h1zm0-.285V34h-1V34.119h1zM24 34h-.5V34.119h1V34H24zm-.5.118V34.404h1V34.119h-1zm0 .285v5.194h1v-5.194h-1zm0 5.194V39.881h1V39.596h-1zm0 .285V40h1V39.881h-1z" fill="#004498" mask="url(#0pkoe5jpea)"/>
    <path d="M21.56 43.233h-.002L7.941 43.1H7.94V43l13.62.233zm0 0a.516.516 0 0 0 .386-.18.637.637 0 0 0 .154-.42.637.637 0 0 0-.154-.42.516.516 0 0 0-.386-.18m0 1.2v-1.2m0 0zm5.089 1.067h13.91a.516.516 0 0 0 .387-.18.637.637 0 0 0 .154-.42.637.637 0 0 0-.154-.42.516.516 0 0 0-.386-.18H26.648a.516.516 0 0 0-.387.18.637.637 0 0 0-.154.42c0 .155.055.306.154.42.1.113.24.18.387.18z" fill="#004498" stroke="#004498" stroke-width=".2"/>
    <path d="M25.642 31.07a2.87 2.87 0 0 0 2.469-1.416c.26-.445.742-.722 1.256-.722h12.9a.703.703 0 0 0 .702-.703V7.5a4.24 4.24 0 0 0-4.235-4.235h-2.829a.703.703 0 1 0 0 1.406h2.83c1.56 0 2.829 1.27 2.829 2.829v20.028H29.367a2.866 2.866 0 0 0-2.469 1.416 1.46 1.46 0 0 1-1.256.72h-4.191a1.46 1.46 0 0 1-1.255-.72 2.872 2.872 0 0 0-2.47-1.416H6.435V7.49a2.824 2.824 0 0 1 2.82-2.82h23.306a.703.703 0 1 0 0-1.406H9.255A4.231 4.231 0 0 0 5.03 7.49v20.739a.703.703 0 0 0 .703.702h11.993a1.461 1.461 0 0 1 1.257.722l.216-.127-.216.127a2.869 2.869 0 0 0 2.468 1.417h4.192z" fill="#004498" stroke="#004498" stroke-width=".5"/>
    <path d="M37.837 25.31h.25v-.023a1.513 1.513 0 0 0 1.26-1.489V8.395c0-.832-.678-1.51-1.51-1.51H10.163c-.833 0-1.51.678-1.51 1.51v15.403a1.511 1.511 0 0 0 1.51 1.51h4.794a.703.703 0 0 0 .497-.206l-.177-.177.177.177a.703.703 0 0 0-.497-1.2h-4.794a.105.105 0 0 1-.105-.104V8.395a.105.105 0 0 1 .105-.105h27.674a.105.105 0 0 1 .104.105V23.8a.105.105 0 0 1-.105.105H18.18a.703.703 0 0 0 0 1.406h19.658zm2.628 9.4a5.074 5.074 0 0 0 5.068-5.068v-.507a1.61 1.61 0 0 0-1.609-1.608H29.368a2.866 2.866 0 0 0-2.47 1.416 1.46 1.46 0 0 1-1.255.72H21.45a1.46 1.46 0 0 1-1.255-.72 2.872 2.872 0 0 0-2.47-1.416H4.076a1.61 1.61 0 0 0-1.61 1.608v.507a5.074 5.074 0 0 0 5.069 5.067h27.648a.703.703 0 0 0 .497-.205l-.177-.177.177.177a.703.703 0 0 0-.497-1.2H7.535a3.667 3.667 0 0 1-3.663-3.663v-.507a.203.203 0 0 1 .203-.203h13.65a1.463 1.463 0 0 1 1.257.722 2.87 2.87 0 0 0 2.469 1.416h4.192a2.87 2.87 0 0 0 2.468-1.416 1.46 1.46 0 0 1 1.257-.72h14.556a.203.203 0 0 1 .203.202v.507a3.667 3.667 0 0 1-3.662 3.663h-1.81a.703.703 0 1 0 0 1.405h1.81z" fill="#004498" stroke="#004498" stroke-width=".5"/>
    <path d="M21.407 41.932a2.652 2.652 0 0 0 2.644 2.654 2.657 2.657 0 0 0 2.654-2.654 2.653 2.653 0 0 0-2.654-2.645 2.648 2.648 0 0 0-2.644 2.645zm0 0h.1-.1zm18.604 0a2.652 2.652 0 0 0 2.645 2.654 2.657 2.657 0 0 0 2.654-2.654 2.653 2.653 0 0 0-2.654-2.645 2.648 2.648 0 0 0-2.645 2.645zm0 0h.1-.1zM5.337 44.586a2.652 2.652 0 0 1-2.645-2.654l2.645 2.654zm0 0a2.657 2.657 0 0 0 2.654-2.654m-2.654 2.654 2.654-2.654m0 0a2.653 2.653 0 0 0-2.654-2.645 2.648 2.648 0 0 0-2.645 2.645H7.99zm14.522 0a1.545 1.545 0 0 1 3.088 0 1.55 1.55 0 0 1-1.549 1.548c-.848 0-1.539-.693-1.539-1.548zm18.605 0c0-.849.69-1.54 1.54-1.54.854 0 1.548.692 1.548 1.54a1.55 1.55 0 0 1-1.549 1.548c-.848 0-1.539-.693-1.539-1.548zm-37.32 0c0-.849.69-1.54 1.539-1.54.854 0 1.548.692 1.548 1.54a1.55 1.55 0 0 1-1.548 1.548c-.848 0-1.54-.693-1.54-1.548z" fill="#004498" stroke="#004498" stroke-width=".2"/>
</svg>
