<svg width="32" height="32" viewBox="0 0 32 32" fill="none" xmlns="http://www.w3.org/2000/svg">
<path opacity="0.3" d="M16.2578 30.2861C16.6022 30.2861 16.9326 30.1493 17.1761 29.9057L24.0225 23.0593C26.5348 20.5471 27.9461 17.1398 27.9461 13.587C27.9461 10.4455 26.7202 7.42823 24.5307 5.20008C23.6239 4.27715 22.5824 3.52097 21.4526 2.95166L20.6667 5.33447L21.4526 13.4029C21.4526 15.8557 20.2978 18.1652 18.3357 19.6367L17.2968 20.4159C16.6427 20.9065 16.2578 21.6763 16.2578 22.4939V30.2861Z" fill="#FF0000"/>
<path fill-rule="evenodd" clip-rule="evenodd" d="M7.98572 5.20023C10.1759 2.9713 13.1513 1.71484 16.2586 1.71484C19.366 1.71484 22.3414 2.97131 24.5315 5.20023C26.721 7.42839 27.9469 10.4456 27.9469 13.5871C27.9469 17.1399 26.5356 20.5473 24.0233 23.0595L17.1769 29.9059C16.9334 30.1494 16.603 30.2863 16.2586 30.2863C15.9142 30.2863 15.5838 30.1494 15.3403 29.9059L8.49391 23.0595C5.98168 20.5473 4.57031 17.1399 4.57031 13.5871C4.57031 10.4456 5.79633 7.42839 7.98572 5.20023ZM16.2586 4.31225C13.855 4.31225 11.5451 5.28378 9.8384 7.02069C8.13094 8.75838 7.16772 11.12 7.16772 13.5871C7.16772 16.4511 8.30542 19.1977 10.3306 21.2229L16.2586 27.1509L22.1867 21.2229C24.2119 19.1977 25.3495 16.4511 25.3495 13.5871C25.3495 11.12 24.3863 8.75838 22.6789 7.02069C20.9721 5.28378 18.6623 4.31225 16.2586 4.31225Z" fill="#B30000"/>
<path d="M16.2612 10.3514C14.5756 10.3514 13.2093 11.7178 13.2093 13.4033C13.2093 15.0889 14.5756 16.4552 16.2612 16.4552C17.9468 16.4552 19.3132 15.0889 19.3132 13.4033C19.3132 11.7178 17.9468 10.3514 16.2612 10.3514ZM11.521 13.4033C11.521 10.7853 13.6432 8.66304 16.2612 8.66304C18.8791 8.66304 21.0015 10.7853 21.0015 13.4033C21.0015 16.0212 18.8791 18.1436 16.2612 18.1436C13.6432 18.1436 11.521 16.0212 11.521 13.4033Z" fill="#B30000" stroke="#F8FBFF" stroke-width="0.909091"/>
</svg>
