<svg width="56" height="56" viewBox="0 0 56 56" fill="none" xmlns="http://www.w3.org/2000/svg">
    <path opacity=".3" d="M28.455 53c.602 0 1.18-.24 1.607-.666l11.98-11.981a23.442 23.442 0 0 0 6.867-16.577c0-5.497-2.145-10.778-5.977-14.677a20.458 20.458 0 0 0-5.387-3.935v18.29c0 4.292-2.02 8.334-5.454 10.91l-1.818 1.363a4.545 4.545 0 0 0-1.818 3.636V53z" fill="red"/>
    <path d="m28.213 47.755.241.24.242-.24L39.07 37.38a19.238 19.238 0 0 0 5.635-13.603c0-4.406-1.72-8.625-4.772-11.73l-.243.239.243-.24c-3.05-3.104-7.18-4.841-11.479-4.841-4.298 0-8.428 1.737-11.478 4.842-3.051 3.105-4.771 7.324-4.771 11.73 0 5.102 2.026 9.995 5.634 13.603l.241-.24-.24.24 10.373 10.375zM14.22 9.339C17.99 5.503 23.11 3.34 28.454 3.34c5.346 0 10.466 2.162 14.235 5.998 3.768 3.835 5.88 9.029 5.88 14.438a23.102 23.102 0 0 1-6.767 16.335L29.82 52.094a1.932 1.932 0 0 1-2.731 0L15.107 40.112a23.102 23.102 0 0 1-6.766-16.335c0-5.41 2.11-10.603 5.88-14.438z" fill="#004498" stroke="#F8FBFF" stroke-width=".682"/>
    <path d="M28.455 18.569a4.886 4.886 0 1 0 0 9.773 4.886 4.886 0 0 0 0-9.773zm-8.75 4.886a8.75 8.75 0 1 1 17.5 0 8.75 8.75 0 0 1-17.5 0z" fill="#004498" stroke="#F8FBFF" stroke-width=".682"/>
</svg>
