<svg width="56" height="56" viewBox="0 0 56 56" fill="none" xmlns="http://www.w3.org/2000/svg">
    <path d="m46.435 24.61-1.69 1.69c-.224.223-.454.448-.678.677a5.303 5.303 0 0 0-1.345 2.308c-.268.98-.186 2.046-.186 3.052v1.673c0 .142-.011.285-.022.421-.006.126.016-.104.016-.104-.016.044-.016.099-.022.148a2.77 2.77 0 0 1-.065.29c-.022.071-.093.46-.159.487.022-.011.099-.208.022-.06l-.066.13a3.76 3.76 0 0 1-.142.252c-.044.071-.087.143-.136.214l-.083.114c-.065.104.06-.087.06-.082.023.055-.344.372-.388.416-.06.055-.13.104-.186.164-.098.104.175-.115.055-.038-.027.016-.06.044-.087.065-.159.11-.323.208-.492.296-.044.022-.28.136-.132.065.148-.07-.093.033-.142.05a3.48 3.48 0 0 1-.569.147l-.11.017c-.147.027.22-.017.067-.011-.088.005-.175.016-.268.016-.066 0-.132 0-.192.006H37.635c-1.055 0-2.154-.082-3.16.29a5.518 5.518 0 0 0-2.013 1.268l-.793.793c-.585.585-1.148 1.225-1.782 1.767l-.093.076c-.115.099.158-.11.032-.027-.076.049-.147.104-.224.153-.076.05-.153.093-.235.137-.044.022-.093.049-.137.07-.093.044-.186.028.017 0-.164.023-.34.127-.503.165-.088.022-.17.044-.258.06-.049.01-.098.016-.147.027-.142.028.279-.022.033-.005-.175.01-.35.022-.525.016l-.263-.016c-.126-.006.104.016.104.016-.06-.016-.126-.022-.186-.033a3.841 3.841 0 0 1-.547-.147c-.043-.017-.3-.126-.153-.055l-.18-.093c-.06-.033-.46-.323-.492-.306.005 0 .158.131.065.05-.038-.034-.082-.067-.12-.105-.071-.06-.137-.126-.208-.191l-.175-.175-.973-.974c-.69-.689-1.362-1.476-2.199-1.99a5.23 5.23 0 0 0-2.701-.755h-.92c-.814 0-1.629.005-2.438 0-.142 0-.323-.05-.46-.027 0 0 .225.038.104.016-.049-.01-.098-.016-.147-.027-.099-.017-.192-.044-.29-.066a4.218 4.218 0 0 1-.246-.076l-.137-.05c-.159-.054.05.033.06.028-.06.032-.415-.214-.476-.252-.07-.044-.142-.087-.207-.137-.022-.016-.11-.065-.115-.082-.006-.01.17.148.082.06-.137-.13-.285-.251-.416-.393-.027-.028-.175-.164-.164-.192 0 0 .159.225.038.05a.855.855 0 0 1-.06-.088 3.479 3.479 0 0 1-.29-.498l-.049-.098c-.093-.186.022.06.022.06-.038-.016-.071-.197-.088-.24a3.998 3.998 0 0 1-.142-.575c-.043-.257.006.153-.005-.044l-.017-.267v-1.236c0-.832.044-1.674-.01-2.505-.066-1-.389-1.99-.996-2.79a9.712 9.712 0 0 0-.87-.967l-1.94-1.941a6.535 6.535 0 0 1-.329-.35c-.164-.197.06.098-.044-.06-.049-.077-.104-.148-.147-.23a1.987 1.987 0 0 1-.132-.235c-.021-.044-.043-.093-.065-.137-.066-.131.01-.011.016.049-.022-.175-.131-.366-.175-.541a4.31 4.31 0 0 1-.054-.257c-.011-.05-.011-.104-.022-.148.016.06.022.219.01.066-.01-.186-.021-.372-.01-.564 0-.038-.006-.251.022-.262 0 0-.05.284-.011.065.01-.049.016-.098.027-.147.033-.175.082-.345.137-.509.016-.05.032-.093.049-.142.044-.12.066-.027-.022.05.06-.055.098-.203.137-.274.027-.055.306-.421.29-.46.016.033-.137.159-.028.033.033-.038.066-.082.104-.12.055-.06.11-.12.164-.175.203-.208.41-.41.613-.613.585-.585 1.175-1.165 1.755-1.755a5.24 5.24 0 0 0 1.362-2.39c.131-.525.164-1.06.164-1.597v-3.051c0-.148.044-.318.027-.46.022.186-.027.17-.005.066.01-.05.016-.099.027-.148.022-.098.044-.191.071-.284.022-.082.05-.164.077-.246.016-.044.038-.093.049-.137.038-.12-.038.104-.038.093-.038-.06.23-.448.268-.509.043-.07.093-.136.142-.207.153-.22-.104.109.027-.033.126-.142.257-.285.4-.41.038-.033.207-.225.109-.099-.071.093-.044.033.005 0l.115-.082c.159-.11.328-.202.498-.29.033-.016.066-.027.098-.043.126-.072-.202.065-.06.027.082-.022.159-.06.24-.088.187-.06.378-.104.575-.136.197-.039-.235.022.044 0 .087-.006.175-.011.268-.011h3.303c1.465 0 2.822-.53 3.86-1.57l1.904-1.903c.235-.235.465-.476.716-.689.148-.126-.164.115.06-.044l.23-.147c.077-.044.159-.088.235-.132.044-.022.093-.043.137-.065.131-.071-.191.07-.05.022a4.763 4.763 0 0 1 .8-.225c.037-.005.076-.01.109-.016-.258.071-.115.016-.028.01.186-.015.372-.015.564-.005.038 0 .076.006.114.006.055.005.192-.022.039 0-.12.016-.06-.011.005 0l.186.033c.186.038.366.093.541.153.039.01.072.027.104.038.142.05-.186-.087-.049-.022.093.05.186.088.274.137.076.044.158.087.23.137.043.027.262.175.142.093-.126-.088.098.087.136.115.06.054.12.109.175.169l.197.197 1.969 1.969c.383.382.787.743 1.258 1.017a5.306 5.306 0 0 0 2.636.71c.836.006 1.673 0 2.504 0h.848c.076 0 .153 0 .23.006.06.006.317 0 .153.011s.093.017.147.028c.11.021.22.049.323.082.082.021.164.049.246.076a.654.654 0 0 1 .137.05c.005.01-.203-.1-.093-.039.17.093.344.17.508.273.072.044.137.093.208.143.159.11-.153-.137.033.027.142.126.279.257.41.4.022.027.044.054.071.081.137.153-.032-.054-.038-.054.044.01.126.175.142.202.099.148.192.306.268.47 0-.005.066.12.06.131 0 0-.098-.257-.027-.06.027.082.06.159.082.241.055.175.093.355.126.541.038.214-.006-.065-.006-.065.011.005.017.158.017.153.005.087.01.18.01.268v2.762c0 .328-.01.661.017.99.088 1.033.438 1.995 1.072 2.816.552.71 1.252 1.323 1.887 1.958l.847.847c.12.12.236.24.345.372.131.159-.011-.022-.027-.033.027.017.076.11.087.126a4.89 4.89 0 0 1 .268.465c.016.033.044.12.066.137-.039-.033-.077-.197-.022-.05.065.18.12.356.164.542.022.087.038.17.049.257.038.197-.022-.235 0 .044.017.175.016.35.011.525-.006.076-.033.18-.022.262-.027-.186.028-.17.011-.066-.01.05-.016.099-.027.148a3.86 3.86 0 0 1-.137.509c-.016.049-.12.29-.055.153.077-.148-.054.11-.076.148-.088.175-.203.328-.306.492-.066.098.043-.06.054-.066-.016 0-.082.104-.098.12-.071.104-.143.18-.219.258-.4.41-.438 1.142 0 1.547.432.4 1.121.438 1.548 0 1.301-1.329 1.832-3.276 1.329-5.075a5.311 5.311 0 0 0-1.33-2.27c-.213-.218-.431-.431-.65-.65-.574-.574-1.154-1.143-1.728-1.723a4.01 4.01 0 0 1-.257-.284c.082.104-.006-.011-.017-.028a5.852 5.852 0 0 1-.35-.596c-.093-.18-.01-.005.006.022-.028-.049-.044-.115-.06-.164a2.55 2.55 0 0 1-.088-.29c-.027-.098-.05-.197-.071-.295-.006-.038-.038-.137-.027-.17l.016.12c-.005-.043-.01-.087-.01-.13-.028-.329-.012-.662-.012-.996 0-.886.006-1.766 0-2.652-.01-1.69-.804-3.21-2.144-4.222-1.044-.787-2.27-.995-3.543-.995h-3.003c-.043 0-.087-.006-.13-.006a1.06 1.06 0 0 1-.132-.01c-.082-.012-.06-.006.076.01-.147.038-.448-.093-.59-.136-.099-.028-.192-.066-.285-.099-.147-.05.165.082.022.011-.065-.033-.131-.06-.191-.098-.18-.093-.345-.208-.514-.323.202.137-.06-.055-.115-.104-.044-.038-.088-.082-.131-.126l-.219-.219c-.678-.667-1.34-1.334-2.007-2.001-1.045-1.045-2.4-1.7-3.9-1.674a5.23 5.23 0 0 0-2.635.76c-.438.269-.81.608-1.17.969a377715.933 377715.933 0 0 1-2.199 2.198c-.071.071-.153.137-.23.208-.038.033-.164.115.017-.011-.038.027-.071.05-.104.076-.191.132-.394.236-.602.345-.136.077.175-.06.022-.01a1.07 1.07 0 0 1-.12.043c-.11.038-.219.07-.328.104-.099.027-.197.049-.296.065-.038.006-.224.028-.07.011.169-.016-.11.006-.116.006-.136.01-.278.01-.415.01H16.87c-.476 0-.935.017-1.405.105-.87.153-1.663.58-2.347 1.132-1.197.973-1.837 2.499-1.837 4.03v3.292c0 .06 0 .12-.006.18 0 .06-.005.116-.01.176-.011.147.021.033.01-.033.039.159-.098.476-.147.634-.028.082-.05.214-.104.285.115-.153.044-.088.005-.022-.032.065-.065.131-.098.191-.05.088-.099.175-.153.263-.038.06-.24.317-.082.131-.099.115-.192.224-.296.334-.596.607-1.203 1.203-1.804 1.804-.208.208-.421.41-.624.624a5.206 5.206 0 0 0-1.318 2.395c-.41 1.76.11 3.61 1.378 4.895.597.607 1.204 1.203 1.805 1.804.208.208.421.416.629.63.071.076.137.152.202.229.082.093-.027-.038-.038-.05.033.05.066.094.098.143.115.17.296.399.34.607-.006-.033-.083-.219-.011-.022.016.038.027.082.043.12.039.11.071.219.099.334l.066.295c.032.153.038.011-.006-.033.022.022.01.142.016.175.055.848.011 1.707.011 2.56v1.05c.006.81.192 1.57.53 2.302.761 1.63 2.38 2.663 4.13 2.877.858.103 1.755.032 2.62.032H19.84c.072 0 .148 0 .22.006.043 0 .087.005.13.01.28.017-.142-.032.011 0 .214.045.421.088.63.154.054.016.109.038.163.06.022.006.154.066.028.011-.131-.06.033.016.065.033.066.033.132.066.192.098.087.05.175.104.257.159.07.05.251.197.093.06.115.099.224.197.333.3.082.077.159.16.236.236l1.038 1.04c.717.715 1.412 1.53 2.325 2 1.619.843 3.625.81 5.184-.174.831-.525 1.504-1.313 2.193-2.002l.968-.968.208-.208a3.41 3.41 0 0 1 .262-.23c-.164.137.028-.016.093-.06.082-.054.17-.109.257-.158.05-.028.104-.055.154-.082.027-.017.246-.12.103-.055-.13.06.039-.01.072-.027.038-.017.081-.028.12-.044a3.32 3.32 0 0 1 .333-.093c.099-.022.197-.038.296-.06.131-.027-.077.01-.077.01.022-.021.23-.016.263-.021.12-.005.235-.005.355-.005h1.34c.968 0 1.969.07 2.926-.115 1.739-.34 3.133-1.635 3.779-3.26.393-.99.333-2.056.333-3.095V30.664a4.188 4.188 0 0 1 .022-.394c.006-.137-.038.197 0-.011.044-.214.093-.421.159-.63.016-.038.027-.081.043-.12.072-.196-.005-.01-.01.022.027-.114.12-.246.175-.344a4.11 4.11 0 0 1 .158-.257c.033-.05.066-.093.099-.142-.006.01-.12.142-.039.049.093-.099.18-.203.274-.301.235-.24.476-.476.71-.71l1.658-1.658c.404-.405.437-1.148 0-1.548-.427-.41-1.105-.443-1.537-.01z" fill="#F9AFB2"/>
    <path d="M36.247 22.482c0 .24-.011.481-.027.722l-.033.339c-.006.033-.006.115-.017.148.022-.17.028-.192.006-.072-.006.022-.006.05-.011.072a9.68 9.68 0 0 1-.328 1.361c-.071.219-.159.432-.235.651-.055.153.115-.252.01-.027-.021.043-.038.087-.06.13a9.73 9.73 0 0 1-.859 1.493c-.054.078-.13.236-.212.29.12-.081.109-.136.038-.054l-.115.137c-.153.18-.312.36-.476.53-.147.153-.3.301-.465.443-.082.071-.158.142-.24.213l-.11.093c-.038.028-.076.06-.109.088.12-.093.142-.11.082-.06-.372.262-.738.52-1.143.738-.191.104-.383.202-.58.295-.054.028-.109.05-.164.077-.126.055 0 .05.06-.027-.054.065-.295.114-.371.142a8.747 8.747 0 0 1-1.346.372c-.11.022-.219.043-.328.06 0 0-.137.033-.147.022.081.049.224-.028.032-.006a9.094 9.094 0 0 1-2.198 0c-.192-.022-.05.055.033.006-.011.01-.148-.022-.148-.022l-.366-.066a13.65 13.65 0 0 1-.679-.164 13.47 13.47 0 0 1-.661-.213c-.093-.033-.18-.071-.274-.104-.23-.087.17.082.028.01a8.715 8.715 0 0 1-1.39-.75c-.087-.058-.18-.119-.267-.179-.072-.049-.241-.137-.29-.213.01.016.202.164.055.038-.039-.033-.077-.06-.11-.087-.11-.093-.219-.186-.323-.28-.333-.3-.65-.628-.935-.978-.033-.038-.06-.077-.087-.11-.126-.153.027.044.038.055-.076-.049-.159-.213-.213-.29a9.42 9.42 0 0 1-.913-1.624c-.093-.197.082.213 0-.005-.165-.432-.312-.87-.422-1.324a13.84 13.84 0 0 1-.13-.656c-.006-.05-.012-.098-.023-.148.066.268.017.115.006.033a9.729 9.729 0 0 1-.006-2.165c.006-.028.006-.05.011-.077.017-.12.011-.098-.01.066-.012-.011.021-.148.021-.148.038-.246.088-.487.148-.727.055-.214.115-.427.18-.635.033-.104.071-.208.104-.311.027-.072.082-.329.142-.372-.01.005-.109.246-.027.06.027-.055.05-.11.077-.164a10.157 10.157 0 0 1 .492-.919c.11-.186.23-.366.355-.541.06-.088.131-.17.192-.258.093-.13-.17.208-.017.022.044-.054.088-.109.137-.164.29-.344.607-.672.946-.973.082-.071.159-.142.246-.208.044-.038.093-.076.137-.115.087-.07.027-.082-.055.039.05-.072.192-.143.257-.192.11-.076.213-.147.328-.219a9.1 9.1 0 0 1 1.198-.656c.044-.022.087-.038.131-.06.224-.104-.18.066-.027.01.104-.037.202-.081.306-.12a8.515 8.515 0 0 1 1.34-.377c.12-.027.246-.049.366-.065.05-.006.099-.011.148-.022-.29.07-.071.01.006 0a9.82 9.82 0 0 1 1.443-.055c.23.011.454.027.678.055.033.005.252.06.077.01-.175-.054.044.012.076.012l.367.065a9.57 9.57 0 0 1 1.34.378c.076.027.295.07.339.13-.006-.01-.246-.108-.06-.027.043.022.087.039.13.06.22.1.433.209.646.323a8.226 8.226 0 0 1 .848.536c.082.055.235.132.29.214-.104-.165-.115-.093-.028-.017l.137.115a10.96 10.96 0 0 1 .727.678c.148.153.29.312.432.476.039.044.077.093.115.137.077.093.148.082-.016-.028.087.055.153.203.213.29.263.372.498.76.7 1.17.055.11.104.214.159.323.022.044.038.088.06.131.082.186-.016-.054-.027-.06.054.038.109.274.13.34.045.114.083.229.121.344.142.443.252.902.328 1.361.006.033.066.252.011.077-.054-.175.006.044.011.077.011.098.022.202.027.3.006.268.017.525.017.777 0 .574.503 1.121 1.094 1.094.59-.028 1.093-.482 1.093-1.094-.01-2.122-.65-4.255-1.892-5.988a10.686 10.686 0 0 0-5.037-3.84c-4.024-1.476-8.788-.174-11.506 3.14a10.614 10.614 0 0 0-2.4 5.928c-.175 2.127.36 4.326 1.465 6.152 1.072 1.761 2.68 3.238 4.567 4.08a10.7 10.7 0 0 0 6.496.744c4.13-.826 7.515-4.326 8.16-8.493.087-.575.147-1.143.147-1.723 0-.574-.503-1.121-1.093-1.094-.596.027-1.089.481-1.094 1.094zm-.798 15.635v15.805l1.383-1.056-7.514-3.068c-.334-.136-.673-.3-1.017-.415-.443-.143-.853.104-1.242.262-1.46.596-2.914 1.192-4.375 1.783-1.17.481-2.346.957-3.516 1.438l1.384 1.056V38.117l-1.094 1.094h.339c.071 0 .137 0 .208.005.06 0 .115.011.175.011.284.017-.224-.049.054.006.241.044.482.104.711.191.066.028.247.055.017.006.049.01.115.054.158.076.132.066.257.137.378.213.07.044.306.23.131.082.098.082.202.17.295.263l.093.093.405.405 1.29 1.29c.296.296.586.618.914.886 1.695 1.4 4.101 1.668 6.015.53.515-.306.947-.716 1.362-1.137l1.264-1.263c.35-.35.7-.706 1.066-1.04.126-.114-.213.137.022-.016.06-.038.12-.082.18-.12.12-.077.246-.148.378-.213.054-.027.224-.126.016-.011.06-.033.137-.055.202-.077.137-.049.274-.087.416-.12.071-.016.142-.027.213-.044.208-.043-.126.006.011 0 .131-.005.263-.016.4-.022h.366c.574 0 1.12-.503 1.093-1.093-.027-.591-.48-1.094-1.093-1.094-1.006 0-1.947.153-2.844.629-.569.3-1.044.738-1.493 1.187-.695.694-1.378 1.394-2.078 2.078-.06.054-.115.114-.175.164l-.12.104c-.192.17.136-.088.005-.006-.208.131-.41.257-.634.372-.077.044-.104.098.049-.016-.033.021-.11.043-.142.054a4.464 4.464 0 0 1-.29.093c-.11.033-.219.055-.328.077-.038.005-.153.049-.186.033.055.027.24-.028.027-.011a4.928 4.928 0 0 1-.634.005c.005 0-.148-.005-.148-.01.017.038.252.038.033 0a3.972 3.972 0 0 1-.69-.187c-.037-.016-.103-.049-.141-.054.027.005.224.103.049.016a6.604 6.604 0 0 1-.602-.35c-.213-.137.126.11 0 .006-.038-.033-.082-.066-.12-.104-.071-.06-.137-.126-.208-.192l-.076-.076-.438-.438-1.296-1.296c-.454-.454-.891-.902-1.427-1.258-.957-.629-2.051-.826-3.178-.826-.59 0-1.093.504-1.093 1.094v15.805c0 .64.71 1.329 1.383 1.055l7.482-3.051c.355-.142.71-.29 1.06-.432h-.58l7.482 3.051c.355.142.71.29 1.06.432.674.274 1.384-.415 1.384-1.055V38.106c0-.574-.503-1.12-1.093-1.094-.585.039-1.088.493-1.088 1.105z" fill="#004498"/>
</svg>
