<svg width="56" height="56" viewBox="0 0 56 56" fill="none" xmlns="http://www.w3.org/2000/svg">
    <path d="M49.929 28.031v23.891a2.566 2.566 0 0 1-2.567 2.566H8.638a2.566 2.566 0 0 1-2.567-2.566v-23.89a2.566 2.566 0 0 1 2.567-2.567h38.724a2.566 2.566 0 0 1 2.567 2.566z" fill="#fff"/>
    <path opacity=".3" d="M49.821 32.963H6.125v8.223h43.696v-8.223z" fill="red"/>
    <path d="M38.59 25.47c0 5.86-4.751 10.612-10.622 10.612-5.86 0-10.612-4.751-10.612-10.612 0-5.87 4.751-10.622 10.612-10.622 5.87 0 10.622 4.751 10.622 10.622z" fill="#fff"/>
    <path opacity=".3" d="m27.973 20.637 1.569 3.178 3.508.51L30.51 26.8l.6 3.494-3.138-1.65-3.137 1.65.599-3.494-2.538-2.474 3.507-.51 1.569-3.178z" fill="red"/>
    <path d="M5.217 51.922a3.425 3.425 0 0 0 3.42 3.42h38.725a3.425 3.425 0 0 0 3.421-3.42v-23.89a3.425 3.425 0 0 0-3.42-3.422H39.4c-.443-5.926-5.396-10.616-11.433-10.616-6.032 0-10.98 4.69-11.422 10.616H8.638a3.425 3.425 0 0 0-3.421 3.421v23.891zm42.145 1.712H8.639a1.714 1.714 0 0 1-1.712-1.712v-9.881h42.148v9.881c0 .944-.768 1.712-1.712 1.712zm-27.23-19.817a11.412 11.412 0 0 0 7.836 3.119c3.034 0 5.789-1.19 7.843-3.119h13.156v6.515H6.98v-6.515h13.152zm28.942-5.786v4.077H37.308A11.377 11.377 0 0 0 39.4 26.32h7.961c.944 0 1.712.768 1.712 1.711zM27.968 15.703c5.385 0 9.767 4.382 9.767 9.768 0 5.38-4.381 9.756-9.767 9.756-5.38 0-9.757-4.376-9.757-9.756 0-5.386 4.377-9.768 9.757-9.768zM8.638 26.32h7.907c.159 2.148.908 4.13 2.091 5.788H6.927v-4.077c0-.943.768-1.711 1.712-1.711z" fill="#004498"/>
    <path d="M17.008 47.668H10.64a.854.854 0 0 0 0 1.709h6.368a.854.854 0 0 0 0-1.709zm7.508-20.57-.523 3.05a.855.855 0 0 0 1.24.901l2.74-1.44 2.74 1.44a.855.855 0 0 0 1.24-.9l-.523-3.052 2.216-2.16a.855.855 0 0 0-.474-1.458l-3.063-.444-1.37-2.776c-.288-.583-1.245-.583-1.533 0l-1.37 2.776-3.062.444a.855.855 0 0 0-.474 1.458l2.216 2.16zm2.01-2.437a.855.855 0 0 0 .645-.467l.802-1.626.802 1.626a.855.855 0 0 0 .644.467l1.794.26-1.298 1.266a.856.856 0 0 0-.246.757l.307 1.787-1.605-.844a.855.855 0 0 0-.796 0l-1.605.844.307-1.787a.856.856 0 0 0-.246-.757l-1.298-1.265 1.794-.26zm.71-23.15v7.365a.855.855 0 0 0 1.71 0V1.512a.854.854 0 0 0-1.71 0zm14.789 3.333-3.547 6.454a.854.854 0 1 0 1.497.823l3.547-6.454a.854.854 0 1 0-1.497-.823zm-29.267-.15a.855.855 0 0 0-.327 1.163l3.606 6.421a.856.856 0 0 0 1.49-.837l-3.606-6.42a.856.856 0 0 0-1.163-.327z" fill="#004498"/>
</svg>
