<svg width="56" height="56" viewBox="0 0 56 56" fill="none" xmlns="http://www.w3.org/2000/svg">
<path d="M46.4369 24.6092C45.8737 25.1725 45.3104 25.7358 44.7471 26.2991C44.5229 26.5233 44.2932 26.7475 44.069 26.9772C43.4346 27.617 42.9643 28.4155 42.7237 29.285C42.4557 30.2639 42.5377 31.3303 42.5377 32.3366C42.5377 32.7959 42.5377 33.2608 42.5377 33.7202C42.5377 33.8186 42.5377 33.917 42.5377 34.01C42.5377 34.1522 42.5268 34.2944 42.5158 34.4311C42.5104 34.5569 42.5322 34.3272 42.5322 34.3272C42.5158 34.3709 42.5158 34.4256 42.5104 34.4748C42.494 34.5733 42.4721 34.6663 42.4447 34.7647C42.4229 34.8358 42.3518 35.2241 42.2862 35.2514C42.308 35.2405 42.3846 35.0436 42.308 35.1913C42.2862 35.235 42.2643 35.2788 42.2424 35.3225C42.1987 35.41 42.1494 35.492 42.1002 35.5741C42.0565 35.6452 42.0127 35.7163 41.9635 35.7873C41.9362 35.8256 41.9088 35.8639 41.8815 35.9022C41.8158 36.0061 41.9416 35.8147 41.9416 35.8202C41.9635 35.8748 41.5971 36.192 41.5533 36.2358C41.4932 36.2905 41.4221 36.3397 41.3674 36.3998C41.269 36.5037 41.5424 36.285 41.4221 36.3616C41.3947 36.378 41.3619 36.4053 41.3346 36.4272C41.176 36.5366 41.0119 36.635 40.8424 36.7225C40.7987 36.7444 40.5635 36.8592 40.7112 36.7881C40.8588 36.717 40.6182 36.8209 40.569 36.8373C40.383 36.903 40.1916 36.9522 40.0002 36.985C39.9619 36.9905 39.9291 36.9959 39.8908 37.0014C39.7432 37.0287 40.1096 36.985 39.9565 36.9905C39.869 36.9959 39.7815 37.0069 39.6885 37.0069C39.6229 37.0069 39.5572 37.0069 39.4971 37.0123C39.3658 37.0123 39.2346 37.0123 39.0979 37.0123C38.6112 37.0123 38.1244 37.0123 37.6377 37.0123C36.5822 37.0123 35.483 36.9303 34.4768 37.3022C33.7166 37.5811 33.044 37.9967 32.4643 38.5709C32.2018 38.8334 31.9393 39.0959 31.6713 39.3639C31.0862 39.9491 30.5229 40.5889 29.8885 41.1303C29.8557 41.1577 29.8283 41.1795 29.7955 41.2069C29.6807 41.3053 29.9541 41.0975 29.8283 41.1795C29.7518 41.2288 29.6807 41.2834 29.6041 41.3327C29.5276 41.3819 29.451 41.4256 29.369 41.4694C29.3252 41.4913 29.276 41.5186 29.2322 41.5405C29.1393 41.5842 29.0463 41.5678 29.2487 41.5405C29.0846 41.5623 28.9096 41.6662 28.7455 41.7045C28.658 41.7264 28.576 41.7483 28.4885 41.7647C28.4393 41.7756 28.3901 41.7811 28.3408 41.792C28.1987 41.8194 28.6197 41.7702 28.3737 41.7866C28.1987 41.7975 28.0237 41.8084 27.8487 41.803C27.7612 41.7975 27.6737 41.792 27.5862 41.7866C27.4604 41.7811 27.6901 41.803 27.6901 41.803C27.6299 41.7866 27.5643 41.7811 27.5041 41.7702C27.3182 41.7319 27.1377 41.6881 26.9572 41.6225C26.9135 41.6061 26.6565 41.4967 26.8041 41.5678C26.9408 41.6389 26.6783 41.5022 26.6237 41.4748C26.5635 41.442 26.1643 41.1522 26.1315 41.1686C26.1369 41.1686 26.2901 41.2998 26.1971 41.2178C26.1588 41.185 26.1151 41.1522 26.0768 41.1139C26.0057 41.0538 25.9401 40.9881 25.869 40.9225C25.8088 40.8623 25.7541 40.8077 25.694 40.7475C25.3713 40.4248 25.0432 40.0967 24.7205 39.7741C24.0315 39.085 23.3588 38.2975 22.5221 37.7834C21.7127 37.2858 20.7666 37.0342 19.8205 37.0287C19.5143 37.0287 19.208 37.0287 18.9018 37.0287C18.0869 37.0287 17.2721 37.0342 16.4627 37.0287C16.3205 37.0287 16.1401 36.9795 16.0033 37.0014C16.0033 37.0014 16.2276 37.0397 16.1072 37.0178C16.058 37.0069 16.0088 37.0014 15.9596 36.9905C15.8612 36.9741 15.7682 36.9467 15.6697 36.9248C15.5877 36.903 15.5057 36.8756 15.4237 36.8483C15.3799 36.8319 15.3307 36.8155 15.2869 36.7991C15.1283 36.7444 15.3362 36.8319 15.3471 36.8264C15.2869 36.8592 14.9315 36.6131 14.8713 36.5748C14.8002 36.5311 14.7291 36.4873 14.6635 36.4381C14.6416 36.4217 14.5541 36.3725 14.5487 36.3561C14.5432 36.3452 14.7182 36.5038 14.6307 36.4163C14.494 36.285 14.3463 36.1647 14.2151 36.0225C14.1877 35.9952 14.0401 35.8584 14.051 35.8311C14.051 35.8311 14.2096 36.0553 14.0893 35.8803C14.0674 35.853 14.0455 35.8202 14.0291 35.7928C13.9197 35.6342 13.8213 35.4702 13.7393 35.2952C13.7229 35.2623 13.7065 35.2295 13.6901 35.1967C13.5971 35.0108 13.7119 35.2569 13.7119 35.2569C13.6737 35.2405 13.6408 35.06 13.6244 35.0163C13.5643 34.8303 13.5151 34.6389 13.4822 34.442C13.4385 34.185 13.4877 34.5952 13.4768 34.3983C13.4713 34.3108 13.4658 34.2233 13.4604 34.1303C13.4604 34.0811 13.4604 34.0264 13.4604 33.9772C13.4604 33.6163 13.4604 33.2553 13.4604 32.8944C13.4604 32.0631 13.5041 31.2209 13.4494 30.3897C13.3838 29.3889 13.0612 28.3991 12.4541 27.6006C12.1862 27.2506 11.8963 26.9444 11.5846 26.6327C10.9393 25.9873 10.2885 25.3366 9.64318 24.6913C9.52834 24.5764 9.41897 24.4616 9.31506 24.3413C9.151 24.1444 9.37522 24.4397 9.27131 24.2811C9.22209 24.2045 9.1674 24.1334 9.12365 24.0514C9.07443 23.9748 9.03068 23.8983 8.9924 23.8163C8.97053 23.7725 8.94865 23.7233 8.92678 23.6795C8.86115 23.5483 8.93772 23.6686 8.94318 23.7288C8.92131 23.5538 8.81193 23.3623 8.76818 23.1873C8.74631 23.0998 8.7299 23.0178 8.7135 22.9303C8.70256 22.8811 8.70256 22.8264 8.69162 22.7827C8.70803 22.8428 8.7135 23.0014 8.70256 22.8483C8.69162 22.6623 8.68068 22.4764 8.69162 22.285C8.69162 22.2467 8.68615 22.0334 8.7135 22.0225C8.7135 22.0225 8.66428 22.3069 8.70256 22.0881C8.7135 22.0389 8.71897 21.9897 8.7299 21.9405C8.76272 21.7655 8.81193 21.5959 8.86662 21.4319C8.88303 21.3827 8.89943 21.3389 8.91584 21.2897C8.95959 21.1694 8.98147 21.2623 8.89397 21.3389C8.95412 21.2842 8.9924 21.1366 9.03068 21.0655C9.05803 21.0108 9.33693 20.6444 9.32053 20.6061C9.33693 20.6389 9.18381 20.7647 9.29318 20.6389C9.326 20.6006 9.35881 20.5569 9.39709 20.5186C9.45178 20.4584 9.50647 20.3983 9.56115 20.3436C9.7635 20.1358 9.97131 19.9334 10.1737 19.7311C10.7588 19.1459 11.3494 18.5663 11.9291 17.9756C12.5799 17.3139 13.0666 16.4881 13.2908 15.5858C13.4221 15.0608 13.4549 14.5248 13.4549 13.9889C13.4549 13.0592 13.4549 12.1295 13.4549 11.1998C13.4549 11.1123 13.4549 11.0248 13.4549 10.9373C13.4549 10.7897 13.4987 10.6202 13.4822 10.478C13.5041 10.6639 13.4549 10.6475 13.4768 10.5436C13.4877 10.4944 13.4932 10.4452 13.5041 10.3959C13.526 10.2975 13.5479 10.2045 13.5752 10.1116C13.5971 10.0295 13.6244 9.9475 13.6518 9.86547C13.6682 9.82172 13.6901 9.7725 13.701 9.72875C13.7393 9.60844 13.6627 9.83266 13.6627 9.82172C13.6244 9.76157 13.8924 9.37328 13.9307 9.31313C13.9744 9.24203 14.0237 9.17641 14.0729 9.10531C14.226 8.88656 13.969 9.21469 14.1002 9.0725C14.226 8.93031 14.3572 8.78813 14.4994 8.66235C14.5377 8.62953 14.7072 8.43813 14.6088 8.56391C14.5377 8.65688 14.5651 8.59672 14.6143 8.56391C14.6526 8.53657 14.6908 8.50922 14.7291 8.48188C14.8877 8.3725 15.0572 8.27953 15.2268 8.19203C15.2596 8.17563 15.2924 8.16469 15.3252 8.14828C15.451 8.07719 15.1229 8.21391 15.2651 8.17563C15.3471 8.15375 15.4237 8.11547 15.5057 8.08813C15.6916 8.02797 15.883 7.98422 16.0799 7.95141C16.2768 7.91313 15.8447 7.97328 16.1237 7.95141C16.2112 7.94594 16.2987 7.94047 16.3916 7.94047C16.4354 7.94047 16.4737 7.94047 16.5174 7.94047C16.6541 7.94047 16.7908 7.94047 16.9276 7.94047C17.8518 7.94047 18.7705 7.94047 19.6947 7.94047C21.1604 7.94047 22.5166 7.41 23.5557 6.37094C24.1901 5.73656 24.8244 5.10219 25.4588 4.46781C25.694 4.23266 25.9237 3.99203 26.1752 3.77875C26.3229 3.65297 26.0112 3.8936 26.2354 3.735C26.3119 3.68578 26.3885 3.63656 26.4651 3.58735C26.5416 3.5436 26.6237 3.49985 26.7002 3.4561C26.744 3.43422 26.7932 3.41235 26.8369 3.39047C26.9682 3.31938 26.6455 3.46157 26.7877 3.41235C26.9682 3.34672 27.1432 3.28656 27.3291 3.24281C27.4166 3.22094 27.4987 3.20453 27.5862 3.18813C27.6244 3.18266 27.6627 3.17719 27.6955 3.17172C27.4385 3.24281 27.5807 3.18813 27.6682 3.18266C27.8541 3.16625 28.0401 3.16625 28.2315 3.17719C28.2697 3.17719 28.308 3.18266 28.3463 3.18266C28.401 3.18813 28.5377 3.16078 28.3846 3.18266C28.2643 3.19907 28.3244 3.17172 28.3901 3.18266C28.4502 3.1936 28.5158 3.20453 28.576 3.21547C28.7619 3.25375 28.9424 3.30844 29.1174 3.3686C29.1557 3.37953 29.1885 3.39594 29.2213 3.40688C29.3635 3.4561 29.0354 3.31938 29.1721 3.385C29.2651 3.43422 29.358 3.4725 29.4455 3.52172C29.5221 3.56547 29.6041 3.60922 29.6752 3.65844C29.719 3.68578 29.9377 3.83344 29.8174 3.75141C29.6916 3.66391 29.9158 3.83891 29.9541 3.86625C30.0143 3.92094 30.0744 3.97563 30.1291 4.03578C30.1947 4.10141 30.2604 4.16703 30.326 4.23266C30.9822 4.88891 31.6385 5.54516 32.2947 6.20141C32.6776 6.58422 33.0822 6.94516 33.5526 7.2186C34.351 7.68344 35.2643 7.92406 36.1885 7.92953C37.0252 7.935 37.8619 7.92953 38.6932 7.92953C38.9776 7.92953 39.2565 7.92953 39.5408 7.92953C39.6174 7.92953 39.694 7.92953 39.7705 7.935C39.8307 7.94047 40.0877 7.935 39.9237 7.94594C39.7596 7.95688 40.0166 7.96235 40.0713 7.97328C40.1807 7.99516 40.2901 8.0225 40.394 8.05532C40.476 8.07719 40.558 8.10453 40.6401 8.13188C40.6619 8.13735 40.7713 8.17016 40.7768 8.1811C40.7822 8.19203 40.5744 8.08266 40.6838 8.14281C40.8533 8.23578 41.0283 8.31235 41.1924 8.41625C41.2635 8.46 41.3291 8.50922 41.4002 8.55844C41.5588 8.66781 41.2471 8.42172 41.433 8.58578C41.5752 8.71156 41.7119 8.84282 41.8432 8.985C41.8651 9.01235 41.8869 9.03969 41.9143 9.06703C42.051 9.22016 41.8815 9.01235 41.876 9.01235C41.9197 9.02328 42.0018 9.18735 42.0182 9.21469C42.1166 9.36235 42.2096 9.52094 42.2862 9.685C42.2862 9.67953 42.3518 9.80531 42.3463 9.81625C42.3463 9.81625 42.2479 9.55922 42.319 9.7561C42.3463 9.83813 42.3791 9.91469 42.401 9.99672C42.4557 10.1717 42.494 10.3522 42.5268 10.5381C42.5651 10.7514 42.5213 10.4725 42.5213 10.4725C42.5322 10.478 42.5377 10.6311 42.5377 10.6256C42.5432 10.7131 42.5487 10.8061 42.5487 10.8936C42.5487 10.9264 42.5487 10.9538 42.5487 10.9866C42.5487 11.878 42.5487 12.7639 42.5487 13.6553C42.5487 13.9834 42.5377 14.317 42.5651 14.6452C42.6526 15.6788 43.0026 16.6413 43.6369 17.4616C44.1893 18.1725 44.8893 18.785 45.5237 19.4194C45.808 19.7038 46.0869 19.9827 46.3713 20.267C46.4916 20.3873 46.6065 20.5077 46.7158 20.6389C46.8471 20.7975 46.7049 20.617 46.6885 20.6061C46.7158 20.6225 46.7651 20.7155 46.776 20.7319C46.8252 20.8084 46.8744 20.885 46.9182 20.9616C46.9619 21.0381 47.0057 21.1202 47.044 21.1967C47.0604 21.2295 47.0877 21.317 47.1096 21.3334C47.0713 21.3006 47.033 21.1366 47.0877 21.2842C47.1533 21.4647 47.208 21.6397 47.2518 21.8256C47.2737 21.9131 47.2901 21.9952 47.301 22.0827C47.3393 22.2795 47.2791 21.8475 47.301 22.1264C47.3174 22.3014 47.3174 22.4764 47.3119 22.6514C47.3065 22.728 47.2791 22.8319 47.2901 22.9139C47.2627 22.728 47.3174 22.7444 47.301 22.8483C47.2901 22.8975 47.2846 22.9467 47.2737 22.9959C47.2408 23.1709 47.1916 23.3405 47.1369 23.5045C47.1205 23.5538 47.0166 23.7944 47.0822 23.6577C47.1588 23.51 47.0276 23.767 47.0057 23.8053C46.9182 23.9803 46.8033 24.1334 46.6994 24.2975C46.6338 24.3959 46.7432 24.2373 46.7541 24.2319C46.7377 24.2319 46.6721 24.3358 46.6557 24.3522C46.5846 24.4561 46.5135 24.5327 46.4369 24.6092C46.0377 25.0194 45.9994 25.7522 46.4369 26.1569C46.869 26.5561 47.558 26.5944 47.9846 26.1569C49.2862 24.828 49.8166 22.8811 49.3135 21.0819C49.0729 20.2288 48.608 19.4467 47.9846 18.8123C47.7713 18.5936 47.5526 18.3803 47.3338 18.1616C46.7596 17.5873 46.1799 17.0186 45.6057 16.4389C45.5346 16.3678 45.4635 16.2913 45.3979 16.2147C45.376 16.1873 45.2612 16.0452 45.3487 16.1545C45.4307 16.2584 45.3432 16.1436 45.3322 16.1272C45.201 15.9358 45.0916 15.7389 44.9822 15.5311C44.8893 15.3506 44.9713 15.5256 44.9877 15.553C44.9604 15.5038 44.944 15.4381 44.9276 15.3889C44.8947 15.2959 44.8619 15.1975 44.8401 15.0991C44.8127 15.0006 44.7908 14.9022 44.769 14.8038C44.7635 14.7655 44.7307 14.667 44.7416 14.6342C44.7471 14.6725 44.7526 14.7108 44.758 14.7545C44.7526 14.7108 44.7471 14.667 44.7471 14.6233C44.7197 14.2952 44.7362 13.9616 44.7362 13.628C44.7362 12.742 44.7416 11.8616 44.7362 10.9756C44.7252 9.28578 43.9322 7.76547 42.5924 6.75375C41.5479 5.96625 40.3229 5.75844 39.0487 5.75844C38.1244 5.75844 37.2002 5.75844 36.276 5.75844C36.2432 5.75844 36.2158 5.75844 36.183 5.75844C36.1393 5.75844 36.0901 5.75844 36.0463 5.75844C36.0026 5.75844 35.9588 5.75297 35.9151 5.75297C35.8713 5.75297 35.8276 5.7475 35.7838 5.74203C35.7018 5.7311 35.7237 5.73656 35.8604 5.75297C35.7127 5.79125 35.4119 5.66 35.2697 5.61625C35.1713 5.58891 35.0783 5.55063 34.9854 5.51782C34.8377 5.4686 35.1494 5.59985 35.0072 5.52875C34.9416 5.49594 34.876 5.4686 34.8158 5.43032C34.6354 5.33735 34.4713 5.2225 34.3018 5.10766C34.5041 5.24438 34.2416 5.05297 34.1869 5.00375C34.1432 4.96547 34.0994 4.92172 34.0557 4.87797C33.9846 4.80688 33.908 4.73031 33.8369 4.65922C33.1588 3.99203 32.4971 3.32485 31.8299 2.65766C30.7854 1.61313 29.4291 0.956877 27.9307 0.984221C27.0119 1.00063 26.0822 1.25766 25.2947 1.74438C24.8572 2.01235 24.4854 2.35141 24.1244 2.71235C23.4572 3.37953 22.7901 4.04672 22.1229 4.71391C22.0572 4.77953 21.9916 4.84516 21.926 4.91078C21.8549 4.98188 21.7729 5.0475 21.6963 5.1186C21.658 5.15141 21.5322 5.23344 21.7127 5.10766C21.6744 5.135 21.6416 5.15688 21.6088 5.18422C21.4174 5.31547 21.2151 5.41938 21.0072 5.52875C20.8705 5.60531 21.1822 5.4686 21.0291 5.51782C20.9908 5.53422 20.9471 5.55063 20.9088 5.56156C20.7994 5.59985 20.6901 5.63266 20.5807 5.66547C20.4822 5.69281 20.3838 5.71469 20.2854 5.7311C20.2471 5.73657 20.0612 5.75844 20.2143 5.74203C20.3838 5.72563 20.1049 5.7475 20.0994 5.7475C19.9627 5.75844 19.8205 5.75844 19.6838 5.75844C18.7487 5.75844 17.808 5.75844 16.8729 5.75844C16.3971 5.75844 15.9377 5.77485 15.4674 5.86235C14.5979 6.01547 13.8049 6.44203 13.1213 6.99438C11.9237 7.96782 11.2838 9.4936 11.2838 11.0248C11.2838 11.9381 11.2838 12.8514 11.2838 13.7647C11.2838 13.9233 11.2838 14.0764 11.2838 14.235C11.2838 14.2623 11.2838 14.2897 11.2838 14.317C11.2838 14.3772 11.2838 14.4373 11.2783 14.4975C11.2783 14.5577 11.2729 14.6123 11.2674 14.6725C11.2565 14.8202 11.2893 14.7053 11.2783 14.6397C11.3166 14.7983 11.1799 15.1155 11.1307 15.2741C11.1033 15.3561 11.0815 15.4873 11.0268 15.5584C11.1416 15.4053 11.0705 15.4709 11.0322 15.5366C10.9994 15.6022 10.9666 15.6678 10.9338 15.728C10.8846 15.8155 10.8354 15.903 10.7807 15.9905C10.7424 16.0506 10.5401 16.3077 10.6987 16.1217C10.6002 16.2366 10.5072 16.3459 10.4033 16.4553C9.80725 17.0623 9.20022 17.6584 8.59865 18.26C8.39084 18.4678 8.17756 18.6702 7.97522 18.8834C7.34084 19.5452 6.86506 20.3819 6.65725 21.2788C6.24709 23.0397 6.76662 24.8881 8.03537 26.1733C8.63147 26.7803 9.2385 27.3764 9.84006 27.978C10.0479 28.1858 10.2612 28.3936 10.469 28.6069C10.5401 28.6834 10.6057 28.76 10.6713 28.8366C10.7533 28.9295 10.644 28.7983 10.633 28.7873C10.6658 28.8366 10.6987 28.8803 10.7315 28.9295C10.8463 29.0991 11.0268 29.3287 11.0705 29.5366C11.0651 29.5037 10.9885 29.3178 11.0596 29.5147C11.076 29.553 11.0869 29.5967 11.1033 29.635C11.1416 29.7444 11.1744 29.8538 11.2018 29.9686C11.2237 30.067 11.2455 30.1655 11.2674 30.2639C11.3002 30.417 11.3057 30.2748 11.2619 30.2311C11.2838 30.253 11.2729 30.3733 11.2783 30.4061C11.333 31.2538 11.2893 32.1123 11.2893 32.9655C11.2893 33.3155 11.2893 33.6655 11.2893 34.0155C11.2947 34.8248 11.4807 35.585 11.8197 36.3178C12.5799 37.9475 14.1987 38.9811 15.9487 39.1944C16.8072 39.2983 17.7041 39.2272 18.5682 39.2272C18.9674 39.2272 19.3666 39.2272 19.7658 39.2272C19.7932 39.2272 19.8205 39.2272 19.8424 39.2272C19.9135 39.2272 19.9901 39.2272 20.0612 39.2327C20.1049 39.2327 20.1487 39.2381 20.1924 39.2436C20.4713 39.26 20.0502 39.2108 20.2033 39.2436C20.4166 39.2873 20.6244 39.3311 20.8322 39.3967C20.8869 39.4131 20.9416 39.435 20.9963 39.4569C21.0182 39.4623 21.1494 39.5225 21.0237 39.4678C20.8924 39.4077 21.0565 39.4842 21.0893 39.5006C21.1549 39.5334 21.2205 39.5662 21.2807 39.5991C21.3682 39.6483 21.4557 39.703 21.5377 39.7577C21.6088 39.8069 21.7893 39.9545 21.6307 39.8178C21.7455 39.9162 21.8549 40.0147 21.9643 40.1186C22.0463 40.1952 22.1229 40.2772 22.1994 40.3538C22.544 40.6983 22.894 41.0483 23.2385 41.3928C23.9549 42.1092 24.6494 42.9241 25.5627 43.3944C27.1815 44.2366 29.1885 44.2038 30.7471 43.2194C31.5783 42.6944 32.251 41.9069 32.9401 41.2178C33.2627 40.8952 33.5854 40.5725 33.908 40.2498C33.9791 40.1788 34.0447 40.1131 34.1158 40.042C34.1979 39.96 34.2908 39.8834 34.3783 39.8123C34.2143 39.9491 34.4057 39.7959 34.4713 39.7522C34.5533 39.6975 34.6408 39.6428 34.7283 39.5936C34.7776 39.5663 34.8322 39.5389 34.8815 39.5116C34.9088 39.4952 35.1276 39.3913 34.9854 39.4569C34.8541 39.517 35.0237 39.4459 35.0565 39.4295C35.0947 39.4131 35.1385 39.4022 35.1768 39.3858C35.2862 39.3475 35.3955 39.3202 35.5104 39.2928C35.6088 39.2709 35.7072 39.2545 35.8057 39.2327C35.9369 39.2053 35.7291 39.2436 35.7291 39.2436C35.751 39.2217 35.9588 39.2272 35.9916 39.2217C36.1119 39.2163 36.2268 39.2162 36.3471 39.2162C36.7955 39.2162 37.2385 39.2162 37.6869 39.2162C38.6549 39.2162 39.6557 39.2873 40.6127 39.1014C42.3518 38.7623 43.7463 37.4663 44.3916 35.842C44.7854 34.8522 44.7252 33.7858 44.7252 32.7467C44.7252 32.2327 44.7252 31.7131 44.7252 31.1991C44.7252 31.0459 44.7252 30.8873 44.7252 30.7342C44.7252 30.7123 44.7252 30.6905 44.7252 30.6631C44.7252 30.5756 44.7307 30.4881 44.7362 30.4006C44.7416 30.3569 44.7471 30.3131 44.7471 30.2694C44.7526 30.1327 44.7088 30.4663 44.7471 30.2584C44.7908 30.0452 44.8401 29.8373 44.9057 29.6295C44.9221 29.5913 44.933 29.5475 44.9494 29.5092C45.0205 29.3123 44.944 29.4983 44.9385 29.5311C44.9658 29.4163 45.0588 29.285 45.1135 29.1866C45.1627 29.0991 45.2174 29.0116 45.2721 28.9295C45.3049 28.8803 45.3377 28.8366 45.3705 28.7873C45.3651 28.7983 45.2502 28.9295 45.3322 28.8366C45.4252 28.7381 45.5127 28.6342 45.6057 28.5358C45.8408 28.2952 46.0815 28.06 46.3166 27.8248C46.869 27.2725 47.4213 26.7202 47.9737 26.1678C48.3783 25.7631 48.4112 25.0194 47.9737 24.6202C47.5471 24.21 46.869 24.1772 46.4369 24.6092Z" fill="#F9AFB2"/>
<path d="M36.2474 22.4819C36.2474 22.7226 36.2365 22.9632 36.2201 23.2038C36.2091 23.3187 36.1982 23.428 36.1873 23.5429C36.1818 23.5757 36.1818 23.6577 36.1709 23.6905C36.1927 23.521 36.1982 23.4991 36.1763 23.6194C36.1709 23.6413 36.1709 23.6687 36.1654 23.6905C36.0888 24.1499 35.9795 24.6093 35.8373 25.0523C35.7662 25.271 35.6787 25.4843 35.6021 25.703C35.5474 25.8562 35.717 25.4515 35.613 25.6757C35.5912 25.7194 35.5748 25.7632 35.5529 25.8069C35.5037 25.9163 35.449 26.0257 35.3943 26.1296C35.1865 26.5343 34.9568 26.928 34.6943 27.2999C34.6396 27.3765 34.563 27.5351 34.481 27.5898C34.6013 27.5077 34.5904 27.453 34.5193 27.5351C34.481 27.5788 34.4427 27.628 34.4045 27.6718C34.2513 27.8523 34.0927 28.0327 33.9287 28.2023C33.781 28.3554 33.6279 28.503 33.4638 28.6452C33.3818 28.7163 33.3052 28.7874 33.2232 28.8585C33.1849 28.8913 33.1521 28.9187 33.1138 28.9515C33.0755 28.9788 33.0373 29.0116 33.0045 29.039C33.1248 28.946 33.1466 28.9296 33.0865 28.9788C32.7146 29.2413 32.3482 29.4983 31.9435 29.7171C31.7521 29.821 31.5607 29.9194 31.3638 30.0124C31.3091 30.0397 31.2545 30.0616 31.1998 30.089C31.074 30.1437 31.1998 30.1382 31.2599 30.0616C31.2052 30.1273 30.9646 30.1765 30.888 30.2038C30.4505 30.3624 30.0021 30.4882 29.5427 30.5757C29.4334 30.5976 29.324 30.6194 29.2146 30.6358C29.2146 30.6358 29.0779 30.6687 29.067 30.6577C29.149 30.7069 29.2912 30.6304 29.0998 30.6523C28.8482 30.6796 28.5966 30.7015 28.3451 30.7124C27.8638 30.7288 27.3771 30.7124 26.9013 30.6523C26.7099 30.6304 26.8521 30.7069 26.9341 30.6577C26.9232 30.6687 26.7865 30.6358 26.7865 30.6358C26.6662 30.614 26.5404 30.5921 26.4201 30.5702C26.1904 30.521 25.9662 30.4663 25.742 30.4062C25.5177 30.3405 25.299 30.2694 25.0802 30.1929C24.9873 30.1601 24.8998 30.1218 24.8068 30.089C24.5771 30.0015 24.9763 30.171 24.8341 30.0999C24.7685 30.0671 24.7029 30.0397 24.6373 30.0124C24.2216 29.821 23.8224 29.6023 23.4451 29.3507C23.3576 29.2905 23.2646 29.2304 23.1771 29.1702C23.106 29.121 22.9365 29.0335 22.8873 28.9569C22.8982 28.9733 23.0896 29.121 22.942 28.9952C22.9037 28.9624 22.8654 28.9351 22.8326 28.9077C22.7232 28.8147 22.6138 28.7218 22.5099 28.6288C22.1763 28.328 21.8591 27.9999 21.5748 27.6499C21.542 27.6116 21.5146 27.5733 21.4873 27.5405C21.3615 27.3874 21.5146 27.5843 21.5255 27.5952C21.449 27.546 21.367 27.3819 21.3123 27.3054C21.1755 27.1085 21.0443 26.9116 20.924 26.7038C20.8146 26.5179 20.7107 26.3319 20.6123 26.1351C20.5685 26.0476 20.5248 25.9601 20.4865 25.878C20.4537 25.8124 20.4263 25.7468 20.399 25.6812C20.306 25.4843 20.481 25.8944 20.399 25.6757C20.2349 25.2437 20.0873 24.8062 19.9779 24.3522C19.9287 24.1335 19.8849 23.9147 19.8466 23.696C19.8412 23.6468 19.8357 23.5976 19.8248 23.5483C19.8904 23.8163 19.8412 23.6632 19.8302 23.5812C19.8138 23.4444 19.8029 23.3077 19.792 23.1655C19.7591 22.6843 19.7591 22.1976 19.7974 21.7163C19.8029 21.6179 19.8138 21.514 19.8248 21.4155C19.8302 21.3882 19.8302 21.3663 19.8357 21.339C19.8521 21.2187 19.8466 21.2405 19.8248 21.4046C19.8138 21.3937 19.8466 21.2569 19.8466 21.2569C19.8849 21.0108 19.9341 20.7702 19.9943 20.5296C20.049 20.3163 20.1091 20.103 20.1748 19.8952C20.2076 19.7913 20.2459 19.6874 20.2787 19.5835C20.306 19.5124 20.3607 19.2554 20.4209 19.2116C20.4099 19.2171 20.3115 19.4577 20.3935 19.2718C20.4209 19.2171 20.4427 19.1624 20.4701 19.1077C20.5138 19.0093 20.563 18.9108 20.6123 18.8179C20.7216 18.6046 20.8365 18.3968 20.9623 18.189C21.0716 18.003 21.192 17.8226 21.3177 17.6476C21.3779 17.5601 21.449 17.478 21.5091 17.3905C21.6021 17.2593 21.3396 17.5983 21.4927 17.4124C21.5365 17.3577 21.5802 17.303 21.6295 17.2483C21.9193 16.9038 22.2365 16.5757 22.5755 16.2749C22.6576 16.2038 22.7341 16.1327 22.8216 16.0671C22.8654 16.0288 22.9146 15.9905 22.9584 15.9523C23.0459 15.8812 22.9857 15.8702 22.9037 15.9905C22.9529 15.9194 23.0951 15.8483 23.1607 15.7991C23.2701 15.7226 23.374 15.6515 23.4888 15.5804C23.8716 15.3343 24.2709 15.1101 24.6865 14.9241C24.7302 14.9022 24.774 14.8858 24.8177 14.864C25.042 14.7601 24.6373 14.9296 24.7904 14.8749C24.8943 14.8366 24.9927 14.7929 25.0966 14.7546C25.3263 14.6726 25.556 14.596 25.7912 14.5304C26.0045 14.4702 26.2177 14.421 26.4365 14.3772C26.5568 14.3499 26.6826 14.328 26.8029 14.3116C26.8521 14.3062 26.9013 14.3007 26.9505 14.2897C26.6607 14.3608 26.8795 14.3007 26.956 14.2897C27.4373 14.2351 27.9185 14.2187 28.3998 14.2351C28.6295 14.246 28.8537 14.2624 29.0779 14.2897C29.1107 14.2952 29.3295 14.3499 29.1545 14.3007C28.9795 14.246 29.1982 14.3116 29.231 14.3116C29.3513 14.3335 29.4771 14.3554 29.5974 14.3772C30.0513 14.4702 30.4998 14.596 30.9373 14.7546C31.0138 14.7819 31.2326 14.8257 31.2763 14.8858C31.2709 14.8749 31.0302 14.7765 31.2162 14.8585C31.2599 14.8804 31.3037 14.8968 31.3474 14.9187C31.5662 15.0171 31.7795 15.1265 31.9927 15.2413C32.1787 15.3452 32.3646 15.4546 32.5451 15.5749C32.6435 15.6405 32.742 15.7062 32.8404 15.7772C32.9224 15.8319 33.0755 15.9085 33.1302 15.9905C33.0263 15.8265 33.0154 15.8976 33.1029 15.9741C33.1466 16.0124 33.1959 16.0507 33.2396 16.089C33.3107 16.1491 33.3873 16.2147 33.4529 16.2749C33.6279 16.4335 33.8029 16.5976 33.967 16.7671C34.1146 16.9202 34.2568 17.0788 34.399 17.2429C34.4373 17.2866 34.4755 17.3358 34.5138 17.3796C34.5904 17.4726 34.6615 17.4616 34.4974 17.3522C34.5849 17.4069 34.6505 17.5546 34.7107 17.6421C34.9732 18.014 35.2084 18.4022 35.4107 18.8124C35.4654 18.9218 35.5146 19.0257 35.5693 19.1351C35.5912 19.1788 35.6076 19.2226 35.6295 19.2663C35.7115 19.4522 35.613 19.2116 35.6021 19.2062C35.6568 19.2444 35.7115 19.4796 35.7334 19.5452C35.7771 19.6601 35.8154 19.7749 35.8537 19.8898C35.9959 20.3327 36.1052 20.7921 36.1818 21.2515C36.1873 21.2843 36.2474 21.503 36.1927 21.328C36.138 21.153 36.1982 21.3718 36.2037 21.4046C36.2146 21.503 36.2255 21.6069 36.231 21.7054C36.2365 21.9733 36.2474 22.2304 36.2474 22.4819C36.2474 23.0562 36.7505 23.603 37.3412 23.5757C37.9318 23.5483 38.4349 23.0944 38.4349 22.4819C38.424 20.3601 37.7841 18.2273 36.5427 16.4937C35.2795 14.7273 33.5459 13.4038 31.506 12.6546C27.481 11.178 22.7177 12.4796 19.9998 15.7937C18.6052 17.4944 17.774 19.5288 17.599 21.7218C17.424 23.8491 17.9599 26.0476 19.0646 27.8741C20.1365 29.6351 21.7443 31.1116 23.631 31.9538C25.6818 32.8726 27.924 33.1351 30.1279 32.6976C34.2568 31.8718 37.642 28.3718 38.2873 24.2046C38.3748 23.6304 38.4349 23.0616 38.4349 22.4819C38.4349 21.9077 37.9318 21.3608 37.3412 21.3882C36.7451 21.4155 36.2529 21.8694 36.2474 22.4819ZM35.449 38.1171C35.449 39.8999 35.449 41.6827 35.449 43.4655C35.449 46.3038 35.449 49.1421 35.449 51.9804C35.449 52.6257 35.449 53.2765 35.449 53.9218C35.9084 53.5718 36.3732 53.2163 36.8326 52.8663C34.3279 51.8437 31.8232 50.821 29.3185 49.7983C28.9849 49.6616 28.6459 49.4976 28.3013 49.3827C27.8584 49.2405 27.4482 49.4866 27.0599 49.6452C25.5998 50.2413 24.1451 50.8374 22.6849 51.428C21.5146 51.9093 20.3388 52.3851 19.1685 52.8663C19.6279 53.2163 20.0927 53.5718 20.5521 53.9218C20.5521 52.139 20.5521 50.3562 20.5521 48.5733C20.5521 45.7351 20.5521 42.8968 20.5521 40.0585C20.5521 39.4132 20.5521 38.7624 20.5521 38.1171C20.1857 38.4835 19.8248 38.8444 19.4584 39.2108C19.5732 39.2108 19.6826 39.2108 19.7974 39.2108C19.8685 39.2108 19.9341 39.2108 20.0052 39.2163C20.0654 39.2163 20.1201 39.2272 20.1802 39.2272C20.4646 39.2437 19.956 39.178 20.2349 39.2327C20.4755 39.2765 20.7162 39.3366 20.9459 39.4241C21.0115 39.4515 21.192 39.4788 20.9623 39.4296C21.0115 39.4405 21.0771 39.4843 21.1209 39.5062C21.2521 39.5718 21.3779 39.6429 21.4982 39.7194C21.5693 39.7632 21.8045 39.9491 21.6295 39.8015C21.7279 39.8835 21.8318 39.971 21.9248 40.064C21.9576 40.0968 21.9849 40.1241 22.0177 40.1569C22.1545 40.2937 22.2912 40.4304 22.4224 40.5616C22.8545 40.9937 23.281 41.4202 23.713 41.8522C24.0084 42.1476 24.2982 42.4702 24.6263 42.7382C26.3216 44.1382 28.7279 44.4062 30.642 43.2687C31.156 42.9624 31.588 42.5522 32.0037 42.1312C32.4248 41.7101 32.8459 41.289 33.267 40.8679C33.617 40.5179 33.967 40.1624 34.3334 39.8288C34.4591 39.714 34.1201 39.9655 34.3552 39.8124C34.4154 39.7741 34.4755 39.7304 34.5357 39.6921C34.656 39.6155 34.7818 39.5444 34.913 39.4788C34.9677 39.4515 35.1373 39.353 34.9295 39.4679C34.9896 39.4351 35.0662 39.4132 35.1318 39.3913C35.2685 39.3421 35.4052 39.3038 35.5474 39.271C35.6185 39.2546 35.6896 39.2437 35.7607 39.2272C35.9685 39.1835 35.6349 39.2327 35.7716 39.2272C35.9029 39.2218 36.0341 39.2108 36.1709 39.2054C36.2912 39.2054 36.417 39.2054 36.5373 39.2054C37.1115 39.2054 37.6584 38.7023 37.631 38.1116C37.6037 37.521 37.1498 37.0179 36.5373 37.0179C35.531 37.0179 34.5904 37.171 33.6935 37.6468C33.1248 37.9476 32.649 38.3851 32.2005 38.8335C31.506 39.528 30.8224 40.228 30.1224 40.9116C30.0623 40.9663 30.0076 41.0265 29.9474 41.0757C29.9091 41.1085 29.8654 41.1468 29.8271 41.1796C29.6357 41.3491 29.9638 41.0921 29.8326 41.1741C29.6248 41.3054 29.4224 41.4312 29.1982 41.546C29.1216 41.5897 29.0943 41.6444 29.2474 41.5296C29.2146 41.5515 29.138 41.5733 29.1052 41.5843C29.0123 41.6171 28.9138 41.6499 28.8154 41.6772C28.706 41.7101 28.5966 41.7319 28.4873 41.7538C28.449 41.7593 28.3341 41.803 28.3013 41.7866C28.356 41.814 28.542 41.7593 28.3287 41.7757C28.1154 41.7921 27.9021 41.7921 27.6943 41.7812C27.6998 41.7812 27.5466 41.7757 27.5466 41.7702C27.563 41.8085 27.7982 41.8085 27.5795 41.7702C27.4537 41.7483 27.3334 41.721 27.213 41.6882C27.1037 41.6608 26.9943 41.6226 26.8904 41.5843C26.8521 41.5679 26.7865 41.5351 26.7482 41.5296C26.7755 41.5351 26.9724 41.6335 26.7974 41.546C26.5896 41.4421 26.3927 41.3218 26.1959 41.196C25.9826 41.0593 26.3216 41.3054 26.1959 41.2015C26.1576 41.1687 26.1138 41.1358 26.0755 41.0976C26.0045 41.0374 25.9388 40.9718 25.8677 40.9062C25.8404 40.8788 25.8185 40.8569 25.7912 40.8296C25.6435 40.6819 25.4959 40.5343 25.3537 40.3921C24.9216 39.9601 24.4896 39.528 24.0576 39.096C23.6037 38.6421 23.1662 38.1937 22.6302 37.8382C21.6732 37.2093 20.5795 37.0124 19.4529 37.0124C18.8623 37.0124 18.3591 37.5155 18.3591 38.1062C18.3591 39.889 18.3591 41.6718 18.3591 43.4546C18.3591 46.2929 18.3591 49.1312 18.3591 51.9694C18.3591 52.6147 18.3591 53.2655 18.3591 53.9108C18.3591 54.5507 19.0701 55.2397 19.7427 54.9663C22.2365 53.9491 24.7302 52.9319 27.224 51.9147C27.5795 51.7726 27.9349 51.6249 28.2849 51.4827C28.0935 51.4827 27.8966 51.4827 27.7052 51.4827C30.199 52.4999 32.6927 53.5171 35.1865 54.5343C35.542 54.6765 35.8974 54.8241 36.2474 54.9663C36.9201 55.2397 37.631 54.5507 37.631 53.9108C37.631 52.128 37.631 50.3452 37.631 48.5624C37.631 45.7241 37.631 42.8858 37.631 40.0476C37.631 39.4022 37.631 38.7515 37.631 38.1062C37.631 37.5319 37.1279 36.9851 36.5373 37.0124C35.9521 37.0507 35.449 37.5046 35.449 38.1171Z" fill="#B30000"/>
</svg>
