<svg width="48" height="49" viewBox="0 0 48 49" fill="none" xmlns="http://www.w3.org/2000/svg">
    <g clip-path="url(#t6yx5kzona)">
        <path opacity=".3" d="M23.361 47.731c-8.946-.338-15.894-7.973-15.894-16.926v-9.593h7.497v9.734c0 4.702 3.483 8.818 8.165 9.259 5.371.505 9.905-3.725 9.905-8.994v-9.999h7.498v9.999c0 9.328-7.765 16.876-17.17 16.52z" fill="red"/>
        <path d="m22.504 27.595.68-6.678h-3.696l6.055-8.588-.398 7.01h3.37l-6.011 8.256zM12.38 2.945v.915a1.689 1.689 0 0 1-3.377 0v-.915a1.689 1.689 0 0 1 3.378 0zm26.615 0v.915a1.689 1.689 0 0 1-3.377 0v-.915a1.689 1.689 0 0 1 3.377 0z" fill="#fff"/>
        <path opacity=".3" d="M14.831 11.177c-2.759 1.125-5.518 1.125-8.277 0 0-1.968 1.854-3.563 4.136-3.563 2.287 0 4.141 1.595 4.141 3.563zm26.615 0c-2.76 1.125-5.518 1.125-8.277 0 0-1.968 1.853-3.563 4.136-3.563 2.287 0 4.14 1.595 4.14 3.563z" fill="red"/>
        <path d="M38.929 16.287h-4.29a2.357 2.357 0 0 0-2.353 2.354v12.57c0 4.714-4.03 8.71-9.086 8.247-4.197-.395-7.484-4.134-7.484-8.512V18.641a2.357 2.357 0 0 0-2.355-2.354H9.072a2.357 2.357 0 0 0-2.354 2.354v12.163c0 9.4 7.454 17.33 16.616 17.676 9.757.38 17.95-7.436 17.95-17.27V18.64a2.357 2.357 0 0 0-2.355-2.353zm-5.144 2.354c0-.471.384-.855.855-.855h4.29c.47 0 .854.384.854.855v2.57h-5.999v-2.57zm-25.567 0c0-.471.383-.855.854-.855h4.29c.47 0 .854.384.854.855v2.57H8.218v-2.57zM23.39 46.982c-8.367-.316-15.173-7.574-15.173-16.178V22.71h5.998v8.236c0 5.143 3.884 9.538 8.844 10.005 5.924.56 10.725-4.147 10.725-9.74v-8.5h5.998v8.5c0 8.906-7.379 16.092-16.392 15.771z" fill="#004498"/>
        <path d="M19.486 21.666h2.866l-.596 5.853c-.077.759.903 1.134 1.352.518l6.011-8.257a.75.75 0 0 0-.606-1.191h-2.576l.353-6.217c.043-.75-.927-1.09-1.361-.475l-6.056 8.588a.75.75 0 0 0 .613 1.181zm5.159-6.763-.25 4.393a.75.75 0 0 0 .748.792h1.897l-3.511 4.823.399-3.918a.75.75 0 0 0-.746-.826h-2.25l3.713-5.264zM10.692 6.299a2.441 2.441 0 0 0 2.438-2.44v-.914A2.441 2.441 0 0 0 10.692.507a2.441 2.441 0 0 0-2.438 2.438v.915a2.441 2.441 0 0 0 2.438 2.438zm-.939-3.354a.94.94 0 0 1 1.878 0v.915a.94.94 0 0 1-.939.939.94.94 0 0 1-.939-.94v-.914zm5.361 8.926a.75.75 0 0 0 .466-.694c0-2.378-2.193-4.312-4.89-4.312-2.695 0-4.886 1.934-4.886 4.312 0 .304.184.579.466.694 2.872 1.17 5.844 1.223 8.844 0zm-7.758-1.19c.284-1.316 1.67-2.317 3.334-2.317 1.666 0 3.055 1.001 3.338 2.316-2.24.795-4.433.795-6.672 0zm29.95-4.382a2.441 2.441 0 0 0 2.44-2.44v-.914a2.441 2.441 0 0 0-2.44-2.438 2.441 2.441 0 0 0-2.437 2.438v.915a2.441 2.441 0 0 0 2.438 2.438zm-.938-3.354a.94.94 0 0 1 1.878 0v.915a.94.94 0 0 1-.94.939.94.94 0 0 1-.938-.94v-.914zm.937 3.92c-2.695 0-4.886 1.934-4.886 4.312 0 .304.184.579.466.694 2.871 1.17 5.844 1.223 8.844 0a.75.75 0 0 0 .466-.694c0-2.378-2.194-4.313-4.89-4.313zM33.97 10.68c.283-1.315 1.67-2.316 3.334-2.316 1.666 0 3.054 1.001 3.338 2.316-2.24.795-4.433.795-6.672 0z" fill="#004498"/>
    </g>
    <defs>
        <clipPath id="t6yx5kzona">
            <path fill="#fff" transform="translate(0 .5)" d="M0 0h48v48H0z"/>
        </clipPath>
    </defs>
</svg>
