<svg width="56" height="56" viewBox="0 0 56 56" fill="none" xmlns="http://www.w3.org/2000/svg">
<path opacity="0.3" d="M27.2548 55.1035C16.8172 54.7086 8.71094 45.8007 8.71094 35.3556V24.1641H17.4584V35.5208C17.4584 41.0065 21.5219 45.8082 26.9835 46.3221C33.2504 46.9117 38.5398 41.9768 38.5398 35.8293V24.1641H47.2873V35.8293C47.2875 46.7119 38.228 55.5185 27.2548 55.1035Z" fill="#FF0000"/>
<path d="M26.2524 31.6112L27.0452 23.8193H22.7344L29.7986 13.8003L29.3342 21.9782H33.265L26.2524 31.6112Z" fill="white"/>
<path d="M14.4443 2.8525V3.91934C14.4443 5.0074 13.5621 5.88951 12.4741 5.88951C11.386 5.88951 10.5039 5.0074 10.5039 3.91934V2.8525C10.5039 1.76443 11.386 0.882324 12.4741 0.882324C13.5621 0.882324 14.4443 1.76443 14.4443 2.8525ZM45.4946 2.8525V3.91934C45.4946 5.0074 44.6125 5.88951 43.5244 5.88951C42.4364 5.88951 41.5543 5.0074 41.5543 3.91934V2.8525C41.5543 1.76443 42.4364 0.882324 43.5244 0.882324C44.6125 0.882324 45.4946 1.76443 45.4946 2.8525Z" fill="white"/>
<path opacity="0.3" d="M17.3053 12.4565C14.0864 13.769 10.8675 13.769 7.64844 12.4565C7.64844 10.1606 9.81122 8.2998 12.4741 8.2998C15.1424 8.2998 17.3053 10.1606 17.3053 12.4565ZM48.3556 12.4565C45.1367 13.769 41.9178 13.769 38.6988 12.4565C38.6988 10.1606 40.8616 8.2998 43.5244 8.2998C46.1928 8.2998 48.3556 10.1606 48.3556 12.4565Z" fill="#FF0000"/>
<path d="M45.4154 18.418H40.4112C38.8966 18.418 37.6648 19.6499 37.6648 21.1644C37.6648 24.645 37.6648 32.3487 37.6648 35.8294C37.6648 41.3293 32.9627 45.9916 27.0652 45.4518C22.1685 44.9904 18.333 40.6286 18.333 35.521C18.333 32.1193 18.333 24.5373 18.333 21.1644C18.333 19.6498 17.1011 18.418 15.5866 18.418H10.5823C9.06772 18.418 7.83594 19.6499 7.83594 21.1644C7.83594 24.4919 7.83594 32.0273 7.83594 35.3552C7.83594 46.3222 16.5322 55.5729 27.2216 55.977C38.6042 56.4205 48.162 47.3019 48.162 35.8294C48.162 32.3485 48.162 24.6449 48.162 21.1644C48.162 19.6498 46.9301 18.418 45.4154 18.418ZM39.4144 21.1644C39.4144 20.6151 39.862 20.1674 40.4113 20.1674H45.4155C45.9648 20.1674 46.4125 20.6151 46.4125 21.1644V24.1628H39.4144V21.1644ZM9.58539 21.1644C9.58539 20.6151 10.0331 20.1674 10.5823 20.1674H15.5866C16.1359 20.1674 16.5835 20.6151 16.5835 21.1644V24.1628H9.58539V21.1644ZM27.2882 54.2292C17.5266 53.8602 9.58539 45.3928 9.58539 35.3552V25.9122H16.5834V35.5209C16.5834 41.5212 21.1153 46.6485 26.9011 47.1935C33.8134 47.8474 39.4143 42.3552 39.4143 35.8294V25.9123H46.4123V35.8294C46.4124 46.2201 37.8035 54.6034 27.2882 54.2292Z" fill="#B30000"/>
<path d="M22.736 24.694H26.0795L25.3841 31.522C25.2939 32.4074 26.4374 32.8449 26.962 32.126L33.9746 22.4935C34.3942 21.9167 33.9821 21.1036 33.2672 21.1036H30.2619L30.6737 13.8501C30.7235 12.9764 29.5925 12.5786 29.0857 13.2965L22.021 23.3153C21.6132 23.8935 22.0282 24.694 22.736 24.694ZM28.7542 16.8032L28.4629 21.9288C28.4344 22.4296 28.8334 22.8531 29.336 22.8531H31.5485L27.4523 28.4792L27.9179 23.9081C27.9701 23.3897 27.5626 22.9445 27.0474 22.9445H24.4232L28.7542 16.8032ZM12.4764 6.76489C14.0448 6.76489 15.321 5.48859 15.321 3.91939V2.85244C15.321 1.284 14.0447 0.0078125 12.4764 0.0078125C10.908 0.0078125 9.63162 1.284 9.63162 2.85244V3.91939C9.63162 5.48859 10.9079 6.76489 12.4764 6.76489ZM11.3812 2.85244C11.3812 2.24847 11.8724 1.75727 12.4764 1.75727C13.0803 1.75727 13.5715 2.24847 13.5715 2.85244V3.91939C13.5715 4.52336 13.0803 5.01544 12.4764 5.01544C11.8724 5.01544 11.3812 4.52336 11.3812 3.91939V2.85244ZM17.6353 13.2658C17.9641 13.1317 18.1794 12.8114 18.1794 12.456C18.1794 9.68225 15.62 7.4253 12.4738 7.4253C9.33019 7.4253 6.77344 9.68225 6.77344 12.456C6.77344 12.8114 6.98869 13.1317 7.31758 13.2658C10.6674 14.6315 14.1355 14.6926 17.6353 13.2658ZM8.58436 11.8768C8.915 10.3425 10.5329 9.17475 12.4737 9.17475C14.4172 9.17475 16.0377 10.3425 16.3683 11.8768C13.7543 12.8045 11.1967 12.8045 8.58436 11.8768ZM43.5268 6.76489C45.0953 6.76489 46.3715 5.48859 46.3715 3.91939V2.85244C46.3715 1.284 45.0952 0.0078125 43.5268 0.0078125C41.9584 0.0078125 40.6822 1.28411 40.6822 2.85244V3.91939C40.6822 5.48859 41.9584 6.76489 43.5268 6.76489ZM42.4317 2.85244C42.4317 2.24847 42.9229 1.75727 43.5268 1.75727C44.1308 1.75727 44.622 2.24847 44.622 2.85244V3.91939C44.622 4.52336 44.1308 5.01544 43.5268 5.01544C42.9229 5.01544 42.4317 4.52336 42.4317 3.91939V2.85244ZM43.5243 7.42519C40.3807 7.42519 37.8239 9.68214 37.8239 12.4559C37.8239 12.8113 38.0392 13.1316 38.368 13.2657C41.718 14.6315 45.1859 14.6925 48.6857 13.2657C49.0146 13.1316 49.2299 12.8113 49.2299 12.4559C49.2299 9.68214 46.6705 7.42519 43.5243 7.42519ZM39.6348 11.8768C39.9655 10.3425 41.5833 9.17475 43.5242 9.17475C45.4677 9.17475 47.0882 10.3425 47.4187 11.8768C44.8048 12.8045 42.2471 12.8045 39.6348 11.8768Z" fill="#B30000"/>
</svg>
