<svg width="56" height="56" viewBox="0 0 56 56" fill="none" xmlns="http://www.w3.org/2000/svg">
    <path d="m44.658 30.257 4.647-4.539-4.647-5.542L35.69 9.478l-5.947-7.097a2.282 2.282 0 0 0-3.498 0l-5.948 7.097-8.943 10.674-4.659 5.566 4.66 4.563 33.303-.024z" fill="#F9F9F9"/>
    <path d="M44.66 13.172v35.69l-33.308.023V13.172a3.69 3.69 0 0 1 3.693-3.692h25.923a3.69 3.69 0 0 1 3.693 3.692z" fill="#fff"/>
    <path opacity=".3" d="M11.187 54.435a4.444 4.444 0 0 1-3.286-1.44 4.441 4.441 0 0 1-1.204-3.05V25.722l18.748 18.34a3.645 3.645 0 0 0 5.096.001l5.536-5.408 13.226-12.933v24.223a4.44 4.44 0 0 1-1.204 3.05 4.444 4.444 0 0 1-3.286 1.44H11.187z" fill="red"/>
    <path d="M19.047 17.205h17.917a.913.913 0 1 0 0-1.827H19.047a.913.913 0 1 0 0 1.827zm0 6.787h17.917a.913.913 0 1 0 0-1.827H19.047a.913.913 0 1 0 0 1.827zm0 6.787h17.917a.913.913 0 1 0 0-1.827H19.047a.913.913 0 1 0 0 1.826z" fill="#004498" stroke="#004498" stroke-width=".2"/>
    <mask id="zq3hgollka" maskUnits="userSpaceOnUse" x="4.883" y="-.249" width="46" height="56" fill="#000">
        <path fill="#fff" d="M4.883-.249h46v56h-46z"/>
        <path d="M50.117 25.761v-.006c-.021-.082-.005-.34-.19-.56l-4.456-5.315v-6.711a4.509 4.509 0 0 0-4.504-4.504h-4.896l-5.704-6.807a3.096 3.096 0 0 0-4.746 0l-5.703 6.807h-4.873a4.51 4.51 0 0 0-4.504 4.504v6.687l-4.47 5.34c-.26.467-.167.472-.188.558v24.191c0 2.959 2.418 5.304 5.304 5.304h33.626c2.895 0 5.303-2.355 5.303-5.304V25.761zM37.183 38.708 48.49 27.655v22.29c0 .61-.163 1.193-.446 1.719L37.183 38.708zm11.014-13.044-2.726 2.661v-5.913l2.726 3.252zM26.868 2.903c.56-.667 1.691-.668 2.251 0l4.828 5.762H22.04l4.828-5.762zm-11.823 7.389h25.922a2.88 2.88 0 0 1 2.877 2.877v16.753l-13.872 13.56a2.849 2.849 0 0 1-3.959-.002L12.167 29.936V13.17a2.88 2.88 0 0 1 2.877-2.877zm-7.09 41.372a3.63 3.63 0 0 1-.445-1.719V27.656c4.352 4.26 1.856 1.819 11.295 11.049L7.955 51.664zm2.586-29.273v5.954L7.8 25.664l2.74-3.273zm.646 31.231a3.656 3.656 0 0 1-2.157-.709l10.94-13.068 4.906 4.798c1.718 1.68 4.514 1.682 6.233.002l4.907-4.796L46.97 52.914a3.657 3.657 0 0 1-2.156.708H11.187z"/>
    </mask>
    <path d="M50.117 25.761v-.006c-.021-.082-.005-.34-.19-.56l-4.456-5.315v-6.711a4.509 4.509 0 0 0-4.504-4.504h-4.896l-5.704-6.807a3.096 3.096 0 0 0-4.746 0l-5.703 6.807h-4.873a4.51 4.51 0 0 0-4.504 4.504v6.687l-4.47 5.34c-.26.467-.167.472-.188.558v24.191c0 2.959 2.418 5.304 5.304 5.304h33.626c2.895 0 5.303-2.355 5.303-5.304V25.761zM37.183 38.708 48.49 27.655v22.29c0 .61-.163 1.193-.446 1.719L37.183 38.708zm11.014-13.044-2.726 2.661v-5.913l2.726 3.252zM26.868 2.903c.56-.667 1.691-.668 2.251 0l4.828 5.762H22.04l4.828-5.762zm-11.823 7.389h25.922a2.88 2.88 0 0 1 2.877 2.877v16.753l-13.872 13.56a2.849 2.849 0 0 1-3.959-.002L12.167 29.936V13.17a2.88 2.88 0 0 1 2.877-2.877zm-7.09 41.372a3.63 3.63 0 0 1-.445-1.719V27.656c4.352 4.26 1.856 1.819 11.295 11.049L7.955 51.664zm2.586-29.273v5.954L7.8 25.664l2.74-3.273zm.646 31.231a3.656 3.656 0 0 1-2.157-.709l10.94-13.068 4.906 4.798c1.718 1.68 4.514 1.682 6.233.002l4.907-4.796L46.97 52.914a3.657 3.657 0 0 1-2.156.708H11.187z" fill="#004498"/>
    <path d="M50.117 25.761v.2h.189l.01-.189-.2-.01zm0-.006.2.012v-.03l-.006-.03-.194.048zm-.19-.56-.152.13.153-.13zm-4.456-5.315h-.2v.073l.047.055.153-.128zm-9.4-11.215-.154.128.06.072h.094v-.2zm-5.704-6.807.153-.128-.154.128zm-4.746 0 .154.129-.154-.129zm-5.703 6.807v.2h.093l.06-.072-.153-.128zM10.54 19.856l.153.129.047-.056v-.073h-.2zm-4.47 5.34-.153-.128-.012.015-.01.016.175.098zm-.188.558-.194-.047-.007.027.002.028.2-.008zm0 .008h.2v-.008l-.2.008zm44.234 0v-.2h-.2v.2h.2zM37.183 38.707l-.14-.143-.133.13.12.142.153-.129zM48.49 27.655h.2v-.475l-.34.332.14.143zm-.446 24.009-.153.128.19.227.14-.26-.177-.095zm.153-26 .14.143.132-.13-.119-.142-.153.129zm-2.726 2.661h-.2v.475l.34-.332-.14-.143zm0-5.913.153-.128-.353-.422v.55h.2zM26.868 2.902l-.153-.128.153.129zm2.251.002-.153.128.153-.128zm4.828 5.76v.2h.429l-.275-.328-.154.129zm-11.907 0-.153-.127-.275.328h.429v-.2zm21.804 21.258.14.143.06-.06v-.083h-.2zm-13.872 13.56.14.143-.14-.143zm-3.959-.002-.14.143.14-.143zM12.167 29.936h-.2v.084l.06.06.14-.144zm0-16.767h.2-.2zM7.956 51.664l-.176.094.14.261.19-.227-.154-.128zM7.51 27.656l.14-.143-.34-.333v.476h.2zm11.295 11.049.153.128.12-.142-.133-.13-.14.144zM10.54 22.39h.2v-.55l-.354.422.154.128zm0 5.954-.14.143.34.332v-.475h-.2zM7.8 25.664l-.14.143.155.151.14-.166-.154-.128zm1.23 27.249-.154-.128-.137.163.172.127.118-.162zm10.94-13.068.14-.143-.155-.151-.139.166.154.128zm4.905 4.798-.14.143.14-.143zm6.233.002.14.143-.14-.143zm4.907-4.796.153-.129-.138-.165-.155.15.14.144zM46.97 52.914l.119.161.172-.126-.137-.164-.154.129zm3.347-27.142v-.019V25.766l-.4-.022v.02V25.751l.4.021zm-.005-.065-.002-.015-.006-.05a1.56 1.56 0 0 0-.023-.156.944.944 0 0 0-.199-.419l-.306.258a.544.544 0 0 1 .113.244c.009.04.014.08.018.117.003.028.007.08.017.118l.388-.097zm-.23-.64-4.457-5.316-.306.257 4.457 5.316.306-.257zm-4.41-5.187v-6.711h-.4v6.71h.4zm0-6.711a4.709 4.709 0 0 0-4.704-4.704v.4a4.31 4.31 0 0 1 4.304 4.304h.4zm-4.704-4.704h-4.896v.4h4.896v-.4zm-4.743.071L30.52 1.73l-.307.257 5.704 6.806.307-.257zM30.52 1.73a3.296 3.296 0 0 0-5.052 0l.306.257a2.896 2.896 0 0 1 4.44 0l.306-.257zm-5.052 0-5.704 6.807.307.256 5.703-6.806-.306-.257zm-5.55 6.735h-4.873v.4h4.873v-.4zm-4.873 0a4.71 4.71 0 0 0-4.704 4.704h.4a4.31 4.31 0 0 1 4.303-4.304v-.4zm-4.704 4.704v6.687h.4V13.17h-.4zm.046 6.56-4.47 5.34.308.256 4.469-5.34-.307-.257zm-4.49 5.37c-.133.237-.189.38-.207.486a.48.48 0 0 0-.004.129c.002.025 0 .009.003-.007l.389.094c.014-.058.007-.108.006-.122a.087.087 0 0 1 0-.028c.007-.035.034-.128.162-.357l-.35-.195zm-.213.663v-.008a.272.272 0 0 0 0 .016l.4-.016v.008-.016l-.4.016zm0 0v24.183h.4V25.762h-.4zm0 24.183c0 3.07 2.509 5.504 5.503 5.504v-.4c-2.777 0-5.104-2.258-5.104-5.104h-.4zm5.503 5.504h33.626v-.4H11.187v.4zm33.626 0c3.004 0 5.503-2.443 5.503-5.504h-.4c0 2.838-2.317 5.104-5.103 5.104v.4zm5.503-5.504V25.761h-.4v24.184h.4zm-.2-23.984v-.4.4zm-12.793 12.89 11.306-11.053-.28-.286-11.306 11.053.28.286zM48.29 27.655v22.29h.4v-22.29h-.4zm0 22.29c0 .574-.154 1.124-.422 1.624l.352.19c.297-.553.47-1.168.47-1.814h-.4zm-.093 1.59L37.337 38.58l-.306.257L47.89 51.792l.306-.257zm-.14-26.014-2.726 2.661.28.287 2.726-2.662-.28-.286zm-2.386 2.804v-5.913h-.4v5.913h.4zm-.353-5.784 2.726 3.251.306-.257-2.726-3.251-.306.257zM27.022 3.03c.479-.572 1.464-.572 1.944.001l.307-.257c-.64-.764-1.919-.763-2.558 0l.306.256zm1.944.001 4.828 5.761.307-.257-4.828-5.76-.307.256zm4.981 5.433H22.04v.4h11.907v-.4zm-11.753.328 4.828-5.762-.307-.257-4.828 5.763.307.256zm-7.15 1.699h25.923v-.4H15.045v.4zm25.923 0a2.68 2.68 0 0 1 2.677 2.677h.4a3.08 3.08 0 0 0-3.077-3.077v.4zm2.677 2.677v16.753h.4V13.169h-.4zm.06 16.61-13.871 13.56.28.286 13.87-13.56-.279-.286zm-13.871 13.56a2.65 2.65 0 0 1-3.68-.002l-.28.286a3.05 3.05 0 0 0 4.24.002l-.28-.286zm-3.68-.002L12.307 29.793l-.28.286 13.846 13.544.28-.286zm-13.785-13.4V13.168h-.4v16.767h.4zm0-16.768a2.68 2.68 0 0 1 2.676-2.677v-.4a3.08 3.08 0 0 0-3.077 3.077h.4zm-4.237 38.4a3.43 3.43 0 0 1-.42-1.624h-.4c0 .647.172 1.263.468 1.813l.352-.189zm-.42-1.624V27.656h-.4v22.29h.4zM7.37 27.8c4.351 4.26 1.855 1.819 11.294 11.049l.28-.286c-9.439-9.23-6.943-6.788-11.295-11.049l-.28.286zm11.28 10.777-10.85 12.96.307.256 10.85-12.959-.306-.257zm-8.31-16.185v5.954h.4V22.39h-.4zm.34 5.81c-.044-.041-.773-.756-1.47-1.438l-.93-.91-.277-.271-.062-.061-.008-.008c.002.283-.28.286-.28.286l.002.002.006.006.28-.286-.007-.006-.001-.002s-.283.003-.28.285l.008.009.062.06.277.272.93.91 1.47 1.439.28-.286zm-2.726-2.409 2.739-3.272-.307-.257-2.739 3.272.307.257zm3.232 27.63c-.738 0-1.45-.24-2.039-.67l-.236.322c.655.48 1.45.748 2.275.748v-.4zm-2.004-.38 10.941-13.069-.306-.256L8.876 52.785l.306.256zm10.648-13.054 4.905 4.798.28-.286-4.905-4.798-.28.286zm4.905 4.798c1.796 1.756 4.716 1.758 6.513.002l-.28-.286c-1.64 1.604-4.313 1.602-5.954-.002l-.28.286zm6.513.002 4.907-4.796-.28-.286-4.907 4.796.28.286zm4.614-4.81 10.953 13.064.307-.257L36.169 39.72l-.306.257zM46.85 52.751c-.586.43-1.3.67-2.038.67v.4c.826 0 1.622-.269 2.275-.747l-.237-.323zm-2.038.67H11.187v.4h33.626v-.4z" fill="#004498" mask="url(#zq3hgollka)"/>
</svg>
