<svg width="56" height="56" viewBox="0 0 56 56" fill="none" xmlns="http://www.w3.org/2000/svg">
    <path opacity=".3" d="M40.6 24.5c0-7.732-5.642-14-12.6-14-6.958 0-12.6 6.268-12.6 14a33.095 33.095 0 0 1-2.117 12.25h29.435A33.1 33.1 0 0 1 40.6 24.5zM23.072 43.75a5.25 5.25 0 1 0 9.856 0h-9.856z" fill="red"/>
    <path d="M16.824 9.574a1.552 1.552 0 0 0-.5-3.061l.5 3.061zm0 0c-1.26.207-2.466 1.28-3.34 2.497m3.34-2.497-3.34 2.497M41.729 38.3l.053.118c.061.138.117.281.17.419l.025.066c.062.16.123.31.193.452v.001l-.441-1.056zm0 0h-.13m.13 0h-.13m0 0H14.274m27.324 0H14.274m0 0-.053.117m.053-.117-.053.117m0 0a8.054 8.054 0 0 0-.177.434m.177-.434-.177.434m-.56-26.78a9.17 9.17 0 0 0-1.055 1.902m1.056-1.902-1.056 1.902m0 0c-.25.625-.394 1.23-.379 1.73m.379-1.73-.379 1.73m0 0a1.555 1.555 0 0 1-1.504 1.598 1.55 1.55 0 0 1-1.596-1.505c-.051-1.75.78-3.91 2.146-5.72 1.365-1.812 3.236-3.237 5.227-3.563l-4.273 9.19zm1.994 23.148-.02.052m.02-.052-.02.052m0 0c-.062.16-.122.31-.192.452l.192-.452zM39.178 9.574a1.551 1.551 0 0 1 .501-3.061c1.99.326 3.861 1.752 5.226 3.563 1.366 1.811 2.197 3.97 2.145 5.72a1.55 1.55 0 0 1-3.098-.094c.015-.5-.13-1.104-.38-1.729a9.187 9.187 0 0 0-1.055-1.902c-.874-1.216-2.08-2.29-3.339-2.497zm5.765 28.397.002.004a5.081 5.081 0 0 1-4.503 7.325H34.8v.2a6.8 6.8 0 1 1-13.6 0v-.2H15.56a5.082 5.082 0 0 1-4.504-7.325l.002-.004a30.112 30.112 0 0 0 2.792-13.476 15.586 15.586 0 0 1 9.092-14.501l.145-.067-.032-.156a5.05 5.05 0 0 1 2.778-5.582l-.086-.18.086.18a5.05 5.05 0 0 1 4.335 0l.086-.18-.086.18a5.05 5.05 0 0 1 2.778 5.582l-.032.156.145.067a15.587 15.587 0 0 1 9.092 14.5 30.111 30.111 0 0 0 2.792 13.477zM26.086 8.888l.017.212.21-.03a12.118 12.118 0 0 1 3.375 0l.21.03.017-.212a1.92 1.92 0 1 0-3.829 0zM15.501 34.944l-.075.256h25.147l-.075-.256A36.544 36.544 0 0 1 39.05 24.5V24.5c0-6.842-4.934-12.45-11.05-12.45-6.115 0-11.05 5.608-11.05 12.45a36.546 36.546 0 0 1-1.45 10.444zM31.7 45.5v-.2h-7.4v.2a3.7 3.7 0 1 0 7.4 0z" fill="#004498" stroke="#fff" stroke-width=".4"/>
</svg>
