<svg width="56" height="56" viewBox="0 0 56 56" fill="none" xmlns="http://www.w3.org/2000/svg">
    <path d="M7.83 32.127a4.124 4.124 0 0 1-4.082-4.164 4.13 4.13 0 0 1 4.157-4.09 4.136 4.136 0 0 1 4.09 4.164 4.131 4.131 0 0 1-4.165 4.09zM23.875 7.829a4.125 4.125 0 0 1 4.164-4.082 4.13 4.13 0 0 1 4.09 4.156 4.136 4.136 0 0 1-4.165 4.09 4.131 4.131 0 0 1-4.09-4.164z" fill="#fff"/>
    <path opacity=".3" d="M45.179 39.343a4.133 4.133 0 0 1-.053 5.836c-1.626 1.59-4.238 1.575-5.828-.052a4.117 4.117 0 0 1 .045-5.829 4.126 4.126 0 0 1 5.836.045zm-5.88-22.686a4.126 4.126 0 0 1 .044-5.836 4.133 4.133 0 0 1 5.836.052c1.59 1.627 1.574 4.24-.053 5.829a4.117 4.117 0 0 1-5.828-.045zM16.7 39.343a4.126 4.126 0 0 1-.044 5.836 4.133 4.133 0 0 1-5.836-.052c-1.59-1.627-1.575-4.239.052-5.829a4.117 4.117 0 0 1 5.828.045zm0-28.47a4.117 4.117 0 0 1-.044 5.829 4.126 4.126 0 0 1-5.836-.045 4.133 4.133 0 0 1 .052-5.836c1.627-1.59 4.239-1.575 5.828.052z" fill="red"/>
    <path d="M52.254 28.037a4.13 4.13 0 0 1-4.157 4.09 4.136 4.136 0 0 1-4.09-4.164 4.131 4.131 0 0 1 4.165-4.09 4.125 4.125 0 0 1 4.082 4.164zM32.127 48.172a4.125 4.125 0 0 1-4.164 4.082 4.13 4.13 0 0 1-4.09-4.157 4.136 4.136 0 0 1 4.164-4.09 4.131 4.131 0 0 1 4.09 4.165z" fill="#fff"/>
    <mask id="ve03liifea" maskUnits="userSpaceOnUse" x="2" y="2" width="52" height="52" fill="#000">
        <path fill="#fff" d="M2 2h52v52H2z"/>
        <path d="m35.434 21.606 3.955-3.895a4.853 4.853 0 0 0 6.259-.476c1.921-1.876 1.947-4.957.062-6.886a4.886 4.886 0 0 0-6.89-.06c-1.751 1.718-1.916 4.448-.491 6.371l-3.943 3.883a.746.746 0 1 0 1.048 1.063zm4.432-10.252a3.389 3.389 0 0 1 4.779.04c1.294 1.324 1.302 3.462-.043 4.776a3.37 3.37 0 0 1-4.771-.036 3.383 3.383 0 0 1 .035-4.78zM16.61 38.289c-1.966-1.426-4.628-1.134-6.26.475-1.915 1.872-1.944 4.96-.062 6.887a4.886 4.886 0 0 0 6.89.06c1.751-1.718 1.917-4.448.492-6.371l3.95-3.883a.746.746 0 0 0-1.047-1.064L16.61 38.29zm-.477 6.357a3.39 3.39 0 0 1-4.78-.04c-1.304-1.336-1.286-3.477.043-4.776a3.37 3.37 0 0 1 4.772.036 3.384 3.384 0 0 1-.035 4.78zM7.82 32.873c.01.002.023 0 .035 0a4.89 4.89 0 0 0 4.824-4.158l5.53.046h.006a.747.747 0 0 0 .006-1.492l-5.552-.047c-.376-2.298-2.36-4.071-4.762-4.095h-.032A4.885 4.885 0 0 0 3 27.955a4.868 4.868 0 0 0 4.821 4.918zm.052-8.254h.023a3.389 3.389 0 0 1 3.343 3.335v.01c.001.022.007.043.007.066a3.394 3.394 0 0 1-3.39 3.35h-.02a3.376 3.376 0 0 1-3.343-3.41 3.39 3.39 0 0 1 3.38-3.35zM27.285 12.68l-.046 5.53a.747.747 0 0 0 .74.753h.006c.41 0 .743-.33.746-.74l.047-5.553c2.298-.376 4.071-2.36 4.095-4.762A4.885 4.885 0 0 0 28.044 3h-.05a4.868 4.868 0 0 0-4.867 4.821v.003a4.889 4.889 0 0 0 4.158 4.856zm.745-8.187a3.389 3.389 0 0 1 3.35 3.403 3.39 3.39 0 0 1-3.33 3.345l-.007-.002h-.006c-.01 0-.018.005-.028.005l-.017.002h-.022a3.394 3.394 0 0 1-3.35-3.412 3.378 3.378 0 0 1 3.41-3.341zm10.734 41.155c1.873 1.917 4.961 1.944 6.886.062a4.886 4.886 0 0 0 .061-6.89c-1.72-1.75-4.447-1.915-6.37-.49l-3.884-3.95a.745.745 0 1 0-1.064 1.046l3.896 3.963a4.852 4.852 0 0 0 .475 6.259zm5.882-5.782a3.39 3.39 0 0 1-.041 4.78 3.373 3.373 0 0 1-4.776-.043 3.37 3.37 0 0 1 .037-4.772 3.384 3.384 0 0 1 4.78.035zM16.66 17.67l3.875 3.942a.746.746 0 1 0 1.064-1.047l-3.889-3.955a4.853 4.853 0 0 0-.476-6.26 4.862 4.862 0 0 0-6.885-.061 4.886 4.886 0 0 0-.061 6.89 4.866 4.866 0 0 0 6.372.491zm-5.265-6.316c1.327-1.297 3.466-1.298 4.773.04l.002.002a3.37 3.37 0 0 1-.036 4.772 3.383 3.383 0 0 1-4.78-.035 3.39 3.39 0 0 1 .04-4.779zm31.925 15.93-5.53-.046h-.007a.746.746 0 0 0-.006 1.492l5.553.047c.376 2.298 2.359 4.072 4.762 4.095h.032c2.665 0 4.85-2.16 4.876-4.828a4.876 4.876 0 0 0-4.824-4.918h-.032a4.889 4.889 0 0 0-4.824 4.158zm4.821-2.666h.023a3.382 3.382 0 0 1 3.343 3.411 3.39 3.39 0 0 1-3.38 3.35h-.023c-1.873-.018-3.362-1.573-3.35-3.41a3.393 3.393 0 0 1 3.387-3.35zM27.955 53l.049.001a4.869 4.869 0 0 0 4.869-4.821v-.003a4.889 4.889 0 0 0-4.158-4.856l.046-5.53a.747.747 0 0 0-.74-.753h-.006c-.41 0-.743.33-.747.74l-.046 5.553c-2.298.376-4.071 2.36-4.095 4.762A4.885 4.885 0 0 0 27.955 53zm.001-8.238c1.231-.268 3.438 1.146 3.424 3.403a3.378 3.378 0 0 1-3.41 3.343 3.39 3.39 0 0 1-3.35-3.403c.03-3.197 3.64-3.481 3.336-3.343zM21.03 26.35a.746.746 0 1 0 1.056 1.055c3.261-3.26 8.567-3.26 11.828 0a.746.746 0 1 0 1.055-1.055c-3.842-3.842-10.096-3.843-13.939 0z"/>
    </mask>
    <path d="m35.434 21.606 3.955-3.895a4.853 4.853 0 0 0 6.259-.476c1.921-1.876 1.947-4.957.062-6.886a4.886 4.886 0 0 0-6.89-.06c-1.751 1.718-1.916 4.448-.491 6.371l-3.943 3.883a.746.746 0 1 0 1.048 1.063zm4.432-10.252a3.389 3.389 0 0 1 4.779.04c1.294 1.324 1.302 3.462-.043 4.776a3.37 3.37 0 0 1-4.771-.036 3.383 3.383 0 0 1 .035-4.78zM16.61 38.289c-1.966-1.426-4.628-1.134-6.26.475-1.915 1.872-1.944 4.96-.062 6.887a4.886 4.886 0 0 0 6.89.06c1.751-1.718 1.917-4.448.492-6.371l3.95-3.883a.746.746 0 0 0-1.047-1.064L16.61 38.29zm-.477 6.357a3.39 3.39 0 0 1-4.78-.04c-1.304-1.336-1.286-3.477.043-4.776a3.37 3.37 0 0 1 4.772.036 3.384 3.384 0 0 1-.035 4.78zM7.82 32.873c.01.002.023 0 .035 0a4.89 4.89 0 0 0 4.824-4.158l5.53.046h.006a.747.747 0 0 0 .006-1.492l-5.552-.047c-.376-2.298-2.36-4.071-4.762-4.095h-.032A4.885 4.885 0 0 0 3 27.955a4.868 4.868 0 0 0 4.821 4.918zm.052-8.254h.023a3.389 3.389 0 0 1 3.343 3.335v.01c.001.022.007.043.007.066a3.394 3.394 0 0 1-3.39 3.35h-.02a3.376 3.376 0 0 1-3.343-3.41 3.39 3.39 0 0 1 3.38-3.35zM27.285 12.68l-.046 5.53a.747.747 0 0 0 .74.753h.006c.41 0 .743-.33.746-.74l.047-5.553c2.298-.376 4.071-2.36 4.095-4.762A4.885 4.885 0 0 0 28.044 3h-.05a4.868 4.868 0 0 0-4.867 4.821v.003a4.889 4.889 0 0 0 4.158 4.856zm.745-8.187a3.389 3.389 0 0 1 3.35 3.403 3.39 3.39 0 0 1-3.33 3.345l-.007-.002h-.006c-.01 0-.018.005-.028.005l-.017.002h-.022a3.394 3.394 0 0 1-3.35-3.412 3.378 3.378 0 0 1 3.41-3.341zm10.734 41.155c1.873 1.917 4.961 1.944 6.886.062a4.886 4.886 0 0 0 .061-6.89c-1.72-1.75-4.447-1.915-6.37-.49l-3.884-3.95a.745.745 0 1 0-1.064 1.046l3.896 3.963a4.852 4.852 0 0 0 .475 6.259zm5.882-5.782a3.39 3.39 0 0 1-.041 4.78 3.373 3.373 0 0 1-4.776-.043 3.37 3.37 0 0 1 .037-4.772 3.384 3.384 0 0 1 4.78.035zM16.66 17.67l3.875 3.942a.746.746 0 1 0 1.064-1.047l-3.889-3.955a4.853 4.853 0 0 0-.476-6.26 4.862 4.862 0 0 0-6.885-.061 4.886 4.886 0 0 0-.061 6.89 4.866 4.866 0 0 0 6.372.491zm-5.265-6.316c1.327-1.297 3.466-1.298 4.773.04l.002.002a3.37 3.37 0 0 1-.036 4.772 3.383 3.383 0 0 1-4.78-.035 3.39 3.39 0 0 1 .04-4.779zm31.925 15.93-5.53-.046h-.007a.746.746 0 0 0-.006 1.492l5.553.047c.376 2.298 2.359 4.072 4.762 4.095h.032c2.665 0 4.85-2.16 4.876-4.828a4.876 4.876 0 0 0-4.824-4.918h-.032a4.889 4.889 0 0 0-4.824 4.158zm4.821-2.666h.023a3.382 3.382 0 0 1 3.343 3.411 3.39 3.39 0 0 1-3.38 3.35h-.023c-1.873-.018-3.362-1.573-3.35-3.41a3.393 3.393 0 0 1 3.387-3.35zM27.955 53l.049.001a4.869 4.869 0 0 0 4.869-4.821v-.003a4.889 4.889 0 0 0-4.158-4.856l.046-5.53a.747.747 0 0 0-.74-.753h-.006c-.41 0-.743.33-.747.74l-.046 5.553c-2.298.376-4.071 2.36-4.095 4.762A4.885 4.885 0 0 0 27.955 53zm.001-8.238c1.231-.268 3.438 1.146 3.424 3.403a3.378 3.378 0 0 1-3.41 3.343 3.39 3.39 0 0 1-3.35-3.403c.03-3.197 3.64-3.481 3.336-3.343zM21.03 26.35a.746.746 0 1 0 1.056 1.055c3.261-3.26 8.567-3.26 11.828 0a.746.746 0 1 0 1.055-1.055c-3.842-3.842-10.096-3.843-13.939 0z" fill="#004498"/>
    <path d="m35.434 21.606 3.955-3.895a4.853 4.853 0 0 0 6.259-.476c1.921-1.876 1.947-4.957.062-6.886a4.886 4.886 0 0 0-6.89-.06c-1.751 1.718-1.916 4.448-.491 6.371l-3.943 3.883a.746.746 0 1 0 1.048 1.063zm4.432-10.252a3.389 3.389 0 0 1 4.779.04c1.294 1.324 1.302 3.462-.043 4.776a3.37 3.37 0 0 1-4.771-.036 3.383 3.383 0 0 1 .035-4.78zM16.61 38.289c-1.966-1.426-4.628-1.134-6.26.475-1.915 1.872-1.944 4.96-.062 6.887a4.886 4.886 0 0 0 6.89.06c1.751-1.718 1.917-4.448.492-6.371l3.95-3.883a.746.746 0 0 0-1.047-1.064L16.61 38.29zm-.477 6.357a3.39 3.39 0 0 1-4.78-.04c-1.304-1.336-1.286-3.477.043-4.776a3.37 3.37 0 0 1 4.772.036 3.384 3.384 0 0 1-.035 4.78zM7.82 32.873c.01.002.023 0 .035 0a4.89 4.89 0 0 0 4.824-4.158l5.53.046h.006a.747.747 0 0 0 .006-1.492l-5.552-.047c-.376-2.298-2.36-4.071-4.762-4.095h-.032A4.885 4.885 0 0 0 3 27.955a4.868 4.868 0 0 0 4.821 4.918zm.052-8.254h.023a3.389 3.389 0 0 1 3.343 3.335v.01c.001.022.007.043.007.066a3.394 3.394 0 0 1-3.39 3.35h-.02a3.376 3.376 0 0 1-3.343-3.41 3.39 3.39 0 0 1 3.38-3.35zM27.285 12.68l-.046 5.53a.747.747 0 0 0 .74.753h.006c.41 0 .743-.33.746-.74l.047-5.553c2.298-.376 4.071-2.36 4.095-4.762A4.885 4.885 0 0 0 28.044 3h-.05a4.868 4.868 0 0 0-4.867 4.821v.003a4.889 4.889 0 0 0 4.158 4.856zm.745-8.187a3.389 3.389 0 0 1 3.35 3.403 3.39 3.39 0 0 1-3.33 3.345l-.007-.002h-.006c-.01 0-.018.005-.028.005l-.017.002h-.022a3.394 3.394 0 0 1-3.35-3.412 3.378 3.378 0 0 1 3.41-3.341zm10.734 41.155c1.873 1.917 4.961 1.944 6.886.062a4.886 4.886 0 0 0 .061-6.89c-1.72-1.75-4.447-1.915-6.37-.49l-3.884-3.95a.745.745 0 1 0-1.064 1.046l3.896 3.963a4.852 4.852 0 0 0 .475 6.259zm5.882-5.782a3.39 3.39 0 0 1-.041 4.78 3.373 3.373 0 0 1-4.776-.043 3.37 3.37 0 0 1 .037-4.772 3.384 3.384 0 0 1 4.78.035zM16.66 17.67l3.875 3.942a.746.746 0 1 0 1.064-1.047l-3.889-3.955a4.853 4.853 0 0 0-.476-6.26 4.862 4.862 0 0 0-6.885-.061 4.886 4.886 0 0 0-.061 6.89 4.866 4.866 0 0 0 6.372.491zm-5.265-6.316c1.327-1.297 3.466-1.298 4.773.04l.002.002a3.37 3.37 0 0 1-.036 4.772 3.383 3.383 0 0 1-4.78-.035 3.39 3.39 0 0 1 .04-4.779zm31.925 15.93-5.53-.046h-.007a.746.746 0 0 0-.006 1.492l5.553.047c.376 2.298 2.359 4.072 4.762 4.095h.032c2.665 0 4.85-2.16 4.876-4.828a4.876 4.876 0 0 0-4.824-4.918h-.032a4.889 4.889 0 0 0-4.824 4.158zm4.821-2.666h.023a3.382 3.382 0 0 1 3.343 3.411 3.39 3.39 0 0 1-3.38 3.35h-.023c-1.873-.018-3.362-1.573-3.35-3.41a3.393 3.393 0 0 1 3.387-3.35zM27.955 53l.049.001a4.869 4.869 0 0 0 4.869-4.821v-.003a4.889 4.889 0 0 0-4.158-4.856l.046-5.53a.747.747 0 0 0-.74-.753h-.006c-.41 0-.743.33-.747.74l-.046 5.553c-2.298.376-4.071 2.36-4.095 4.762A4.885 4.885 0 0 0 27.955 53zm.001-8.238c1.231-.268 3.438 1.146 3.424 3.403a3.378 3.378 0 0 1-3.41 3.343 3.39 3.39 0 0 1-3.35-3.403c.03-3.197 3.64-3.481 3.336-3.343zM21.03 26.35a.746.746 0 1 0 1.056 1.055c3.261-3.26 8.567-3.26 11.828 0a.746.746 0 1 0 1.055-1.055c-3.842-3.842-10.096-3.843-13.939 0z" stroke="#004498" stroke-width=".6" mask="url(#ve03liifea)"/>
    <path d="m28.219 33.1-.106.105a.896.896 0 1 0 1.267-1.267 1.953 1.953 0 0 0-2.76 0 .896.896 0 1 0 1.268 1.267l-.106-.106m.437 0-.106.107a.16.16 0 0 0-.226 0l-.105-.107m.437 0a.746.746 0 1 0 1.055-1.055 1.803 1.803 0 0 0-2.548 0 .746.746 0 1 0 1.056 1.055m.437 0a.31.31 0 0 0-.437 0m4.446-2.741a.896.896 0 0 0 0-1.268 5.981 5.981 0 0 0-8.455 0 .896.896 0 1 0 1.267 1.268 4.192 4.192 0 0 1 5.921 0c.35.35.917.35 1.267 0z" fill="#004498" stroke="#004498" stroke-width=".3"/>
</svg>
