<svg width="56" height="56" viewBox="0 0 56 56" fill="none" xmlns="http://www.w3.org/2000/svg">
<path d="M7.83221 32.1266C5.55615 32.1042 3.72773 30.2386 3.75021 27.9624C3.77258 25.6863 5.63081 23.8579 7.90687 23.8729C10.1829 23.8952 12.0114 25.7609 11.9964 28.0371C11.9739 30.3131 10.1158 32.1414 7.83221 32.1266ZM23.8768 7.82831C23.8991 5.55224 25.7648 3.72382 28.041 3.7463C30.317 3.76868 32.1454 5.6269 32.1305 7.90297C32.1081 10.179 30.2425 12.0075 27.9663 11.9925C25.6902 11.97 23.8619 10.1119 23.8768 7.82831Z" fill="white"/>
<path opacity="0.3" d="M45.1789 39.343C46.7758 40.9698 46.746 43.5817 45.1266 45.1788C43.4998 46.7683 40.8879 46.7534 39.2983 45.1265C37.6938 43.4997 37.7236 40.8877 39.343 39.2981C40.97 37.7012 43.5819 37.7162 45.1789 39.343ZM39.2984 16.6566C37.7014 15.0297 37.7163 12.4178 39.3431 10.8208C40.97 9.22388 43.5819 9.25368 45.1789 10.8731C46.7684 12.4999 46.7535 15.1118 45.1266 16.7014C43.4998 18.3059 40.8879 18.276 39.2984 16.6566ZM16.7016 39.343C18.2986 40.9698 18.2836 43.5817 16.6568 45.1788C15.03 46.7757 12.4181 46.7459 10.821 45.1265C9.23155 43.4997 9.2464 40.8877 10.8733 39.2981C12.5 37.6937 15.112 37.7236 16.7016 39.343ZM16.7016 10.8731C18.306 12.4999 18.2762 15.1118 16.6568 16.7014C15.03 18.2984 12.4181 18.2835 10.821 16.6567C9.22412 15.0298 9.25393 12.4179 10.8733 10.8209C12.5 9.23131 15.112 9.24626 16.7016 10.8731Z" fill="#FF2B2B"/>
<path d="M52.2555 28.0373C52.2331 30.3134 50.3749 32.1417 48.0988 32.1269C45.8228 32.1045 43.9943 30.2388 44.0093 27.9627C44.0317 25.6866 45.8898 23.8582 48.1735 23.8731C50.4495 23.8956 52.2779 25.7613 52.2555 28.0373ZM32.1288 48.1715C32.1064 50.4476 30.2408 52.2759 27.9646 52.2535C25.6885 52.2312 23.8601 50.3729 23.8751 48.0969C23.8975 45.8208 25.7631 43.9924 28.0393 44.0073C30.3154 44.0297 32.1437 45.8878 32.1288 48.1715Z" fill="white"/>
<mask id="path-4-outside-1_283_6607" maskUnits="userSpaceOnUse" x="2" y="2" width="52" height="52" fill="black">
<rect fill="white" x="2" y="2" width="52" height="52"/>
<path d="M35.4337 21.6062L39.389 17.7109C41.2685 19.0746 43.9205 18.9387 45.6478 17.2354C47.569 15.3586 47.5947 12.278 45.7097 10.3492C43.8247 8.4376 40.7347 8.4099 38.8199 10.2884C37.0687 12.0072 36.9037 14.7368 38.3289 16.6602L34.3863 20.5428C34.0926 20.8318 34.089 21.3044 34.3783 21.5981C34.6677 21.8917 35.1398 21.8957 35.4337 21.6062ZM39.8658 11.3539C41.1936 10.0501 43.3388 10.0697 44.6447 11.3947C45.9386 12.7184 45.9474 14.8558 44.6024 16.1703C43.2704 17.4833 41.1327 17.4614 39.8308 16.1339C38.5223 14.801 38.538 12.6566 39.8658 11.3539ZM16.6108 38.2893C14.6453 36.8626 11.9833 37.1553 10.3517 38.7644C8.43603 40.6363 8.40693 43.7245 10.2893 45.6506C12.1757 47.5636 15.2665 47.589 17.1795 45.7114C18.9301 43.9925 19.0955 41.263 17.6708 39.34L21.6202 35.4573C21.9139 35.1683 21.9179 34.6961 21.6289 34.402C21.3396 34.108 20.8674 34.104 20.5737 34.3933L16.6108 38.2893ZM16.1337 44.6464C14.8066 45.9502 12.6604 45.9301 11.3544 44.6052C10.0495 43.2697 10.0678 41.1286 11.3971 39.8296C12.7117 38.533 14.8505 38.5227 16.1687 39.866C17.4773 41.1985 17.4612 43.3432 16.1337 44.6464ZM7.821 32.8731C7.83013 32.8746 7.84398 32.8731 7.85602 32.8731C10.2961 32.8731 12.3283 31.0661 12.6799 28.7148L18.21 28.7613C18.2122 28.7613 18.214 28.7613 18.2162 28.7613C18.6255 28.7613 18.9589 28.4312 18.9625 28.0213C18.9658 27.6092 18.6346 27.2725 18.2225 27.2688L12.6698 27.222C12.2939 24.924 10.3108 23.1507 7.9078 23.1269C7.89686 23.1269 7.88663 23.1269 7.87569 23.1269C5.21058 23.1269 3.02643 25.2862 3.00024 27.9554C2.97385 30.6455 5.1306 32.8467 7.821 32.8731ZM7.87308 24.6193C7.88041 24.6193 7.88803 24.6193 7.89566 24.6193C9.7295 24.6376 11.2097 26.128 11.239 27.9541C11.239 27.9549 11.2385 27.9556 11.2385 27.9564C11.2385 27.9589 11.2399 27.961 11.2399 27.9636C11.2402 27.9863 11.2463 28.0072 11.2462 28.03C11.228 29.8822 9.70923 31.3805 7.85562 31.3805C7.8491 31.3805 7.84218 31.3805 7.83555 31.3805C5.97131 31.3624 4.47383 29.8361 4.4927 27.9698C4.51096 26.1177 6.0261 24.6193 7.87308 24.6193ZM27.285 12.6802L27.2387 18.2102C27.2354 18.6223 27.5667 18.959 27.9788 18.9627C27.981 18.9627 27.9832 18.9627 27.985 18.9627C28.3942 18.9627 28.728 18.6325 28.7313 18.2226L28.7777 12.6695C31.0758 12.2937 32.8493 10.3109 32.8729 7.90796C32.8904 5.2283 30.7245 3.02669 28.0444 3.0004C28.028 3.0004 28.0116 3 27.9948 3C25.3312 3 23.1537 5.14301 23.1266 7.82116C23.1266 7.82187 23.1266 7.82267 23.1266 7.82367C23.1107 10.2788 24.9231 12.3274 27.285 12.6802ZM28.0299 4.49286C29.8897 4.51112 31.3928 6.0386 31.3803 7.89582C31.3623 9.72816 29.8743 11.209 28.0502 11.2405C28.0477 11.2405 28.0458 11.239 28.0433 11.239C28.0411 11.239 28.0389 11.239 28.0371 11.239C28.0272 11.239 28.0191 11.2442 28.0094 11.2445C28.0036 11.2445 27.9981 11.2462 27.9923 11.2462C27.9847 11.2462 27.9774 11.2462 27.9697 11.2462C26.1103 11.2279 24.6075 9.69725 24.6193 7.83411C24.6388 5.96605 26.1659 4.47992 28.0299 4.49286ZM38.7643 45.648C40.6374 47.5651 43.725 47.5915 45.6505 45.7103C47.5624 43.8246 47.5898 40.7339 45.7113 38.8202C43.9917 37.07 41.2635 36.9049 39.3402 38.3291L35.4571 34.3798C35.1678 34.0853 34.6956 34.0817 34.4019 34.371C34.1082 34.66 34.1042 35.1323 34.3932 35.4263L38.2892 39.3889C36.9099 41.2891 37.0781 43.939 38.7643 45.648ZM44.6458 39.8659C45.9492 41.1934 45.9295 43.3385 44.6049 44.6452C43.2601 45.9583 41.1283 45.9316 39.8293 44.6026C38.5038 43.258 38.5511 41.121 39.8658 39.831C41.1976 38.5235 43.3419 38.5374 44.6458 39.8659ZM16.6596 17.6712L20.5352 21.6128C20.8241 21.9069 21.2964 21.9105 21.5904 21.6216C21.8841 21.3326 21.8881 20.8603 21.5991 20.5663L17.7103 16.6112C19.0879 14.7132 18.9238 12.0646 17.2337 10.3504C15.4145 8.48937 12.3395 8.34387 10.3491 10.2899C8.43723 12.1749 8.40984 15.2656 10.2879 17.1797C11.9914 18.9146 14.7087 19.1161 16.6596 17.6712ZM11.3946 11.355C12.722 10.0577 14.8605 10.0573 16.1677 11.3947C16.1684 11.3958 16.1695 11.3965 16.1702 11.3972C17.4902 12.7363 17.454 14.874 16.1337 16.1688C14.8011 17.478 12.656 17.4617 11.3534 16.1338C10.05 14.8064 10.0697 12.6613 11.3946 11.355ZM43.3196 27.2851L37.7896 27.2389C37.7874 27.2389 37.7852 27.2389 37.7834 27.2389C37.3742 27.2389 37.0404 27.569 37.0371 27.9789C37.0338 28.3911 37.365 28.7277 37.7771 28.7314L43.3298 28.7779C43.7056 31.0762 45.6888 32.8496 48.0918 32.8731C48.1027 32.8731 48.113 32.8731 48.1239 32.8731C50.789 32.8731 52.9732 30.7137 52.9998 28.0446C53.026 25.3594 50.8634 23.1535 48.176 23.1269C48.1655 23.1269 48.1545 23.1269 48.1436 23.1269C45.7031 23.1269 43.6709 24.9338 43.3196 27.2851ZM48.1414 24.6193C48.1487 24.6193 48.1563 24.6193 48.1639 24.6193C50.0256 24.6379 51.5254 26.168 51.5072 28.03C51.4889 29.8822 49.9735 31.3805 48.1264 31.3805C48.1188 31.3805 48.1111 31.3805 48.1038 31.3805C46.2308 31.3621 44.7422 29.8071 44.7534 27.9698C44.7715 26.1177 46.2903 24.6193 48.1414 24.6193ZM27.9551 52.9998C27.9715 52.9998 27.9875 53.0002 28.004 53.0002C30.6732 53.0002 32.8467 50.8515 32.8729 48.1787C32.8729 48.178 32.8729 48.1772 32.8729 48.1762C32.8889 45.7215 31.0765 43.6729 28.7146 43.3198L28.7609 37.7897C28.7642 37.3775 28.433 37.0409 28.0208 37.0372C28.0186 37.0372 28.0164 37.0372 28.0146 37.0372C27.6054 37.0372 27.2716 37.3673 27.2683 37.7772L27.2219 43.3303C24.9241 43.7062 23.1506 45.6891 23.1267 48.0919C23.1091 50.7716 25.275 52.9732 27.9551 52.9998ZM27.9562 44.7612C29.1871 44.4934 31.3936 45.9071 31.3803 48.1641C31.3622 50.034 29.8391 51.5143 27.9696 51.5074C26.1098 51.4888 24.6067 49.9613 24.6192 48.104C24.6507 44.9072 28.2608 44.6225 27.9562 44.7612ZM21.0304 26.3491C20.7389 26.6406 20.7389 27.1128 21.0304 27.4044C21.3219 27.6959 21.7941 27.6959 22.0856 27.4044C25.3472 24.1431 30.653 24.1438 33.9139 27.4044C34.2054 27.6959 34.6776 27.6959 34.9691 27.4044C35.2606 27.1128 35.2606 26.6406 34.9691 26.3491C31.1268 22.5066 24.8735 22.5059 21.0304 26.3491Z"/>
</mask>
<path d="M35.4337 21.6062L39.389 17.7109C41.2685 19.0746 43.9205 18.9387 45.6478 17.2354C47.569 15.3586 47.5947 12.278 45.7097 10.3492C43.8247 8.4376 40.7347 8.4099 38.8199 10.2884C37.0687 12.0072 36.9037 14.7368 38.3289 16.6602L34.3863 20.5428C34.0926 20.8318 34.089 21.3044 34.3783 21.5981C34.6677 21.8917 35.1398 21.8957 35.4337 21.6062ZM39.8658 11.3539C41.1936 10.0501 43.3388 10.0697 44.6447 11.3947C45.9386 12.7184 45.9474 14.8558 44.6024 16.1703C43.2704 17.4833 41.1327 17.4614 39.8308 16.1339C38.5223 14.801 38.538 12.6566 39.8658 11.3539ZM16.6108 38.2893C14.6453 36.8626 11.9833 37.1553 10.3517 38.7644C8.43603 40.6363 8.40693 43.7245 10.2893 45.6506C12.1757 47.5636 15.2665 47.589 17.1795 45.7114C18.9301 43.9925 19.0955 41.263 17.6708 39.34L21.6202 35.4573C21.9139 35.1683 21.9179 34.6961 21.6289 34.402C21.3396 34.108 20.8674 34.104 20.5737 34.3933L16.6108 38.2893ZM16.1337 44.6464C14.8066 45.9502 12.6604 45.9301 11.3544 44.6052C10.0495 43.2697 10.0678 41.1286 11.3971 39.8296C12.7117 38.533 14.8505 38.5227 16.1687 39.866C17.4773 41.1985 17.4612 43.3432 16.1337 44.6464ZM7.821 32.8731C7.83013 32.8746 7.84398 32.8731 7.85602 32.8731C10.2961 32.8731 12.3283 31.0661 12.6799 28.7148L18.21 28.7613C18.2122 28.7613 18.214 28.7613 18.2162 28.7613C18.6255 28.7613 18.9589 28.4312 18.9625 28.0213C18.9658 27.6092 18.6346 27.2725 18.2225 27.2688L12.6698 27.222C12.2939 24.924 10.3108 23.1507 7.9078 23.1269C7.89686 23.1269 7.88663 23.1269 7.87569 23.1269C5.21058 23.1269 3.02643 25.2862 3.00024 27.9554C2.97385 30.6455 5.1306 32.8467 7.821 32.8731ZM7.87308 24.6193C7.88041 24.6193 7.88803 24.6193 7.89566 24.6193C9.7295 24.6376 11.2097 26.128 11.239 27.9541C11.239 27.9549 11.2385 27.9556 11.2385 27.9564C11.2385 27.9589 11.2399 27.961 11.2399 27.9636C11.2402 27.9863 11.2463 28.0072 11.2462 28.03C11.228 29.8822 9.70923 31.3805 7.85562 31.3805C7.8491 31.3805 7.84218 31.3805 7.83555 31.3805C5.97131 31.3624 4.47383 29.8361 4.4927 27.9698C4.51096 26.1177 6.0261 24.6193 7.87308 24.6193ZM27.285 12.6802L27.2387 18.2102C27.2354 18.6223 27.5667 18.959 27.9788 18.9627C27.981 18.9627 27.9832 18.9627 27.985 18.9627C28.3942 18.9627 28.728 18.6325 28.7313 18.2226L28.7777 12.6695C31.0758 12.2937 32.8493 10.3109 32.8729 7.90796C32.8904 5.2283 30.7245 3.02669 28.0444 3.0004C28.028 3.0004 28.0116 3 27.9948 3C25.3312 3 23.1537 5.14301 23.1266 7.82116C23.1266 7.82187 23.1266 7.82267 23.1266 7.82367C23.1107 10.2788 24.9231 12.3274 27.285 12.6802ZM28.0299 4.49286C29.8897 4.51112 31.3928 6.0386 31.3803 7.89582C31.3623 9.72816 29.8743 11.209 28.0502 11.2405C28.0477 11.2405 28.0458 11.239 28.0433 11.239C28.0411 11.239 28.0389 11.239 28.0371 11.239C28.0272 11.239 28.0191 11.2442 28.0094 11.2445C28.0036 11.2445 27.9981 11.2462 27.9923 11.2462C27.9847 11.2462 27.9774 11.2462 27.9697 11.2462C26.1103 11.2279 24.6075 9.69725 24.6193 7.83411C24.6388 5.96605 26.1659 4.47992 28.0299 4.49286ZM38.7643 45.648C40.6374 47.5651 43.725 47.5915 45.6505 45.7103C47.5624 43.8246 47.5898 40.7339 45.7113 38.8202C43.9917 37.07 41.2635 36.9049 39.3402 38.3291L35.4571 34.3798C35.1678 34.0853 34.6956 34.0817 34.4019 34.371C34.1082 34.66 34.1042 35.1323 34.3932 35.4263L38.2892 39.3889C36.9099 41.2891 37.0781 43.939 38.7643 45.648ZM44.6458 39.8659C45.9492 41.1934 45.9295 43.3385 44.6049 44.6452C43.2601 45.9583 41.1283 45.9316 39.8293 44.6026C38.5038 43.258 38.5511 41.121 39.8658 39.831C41.1976 38.5235 43.3419 38.5374 44.6458 39.8659ZM16.6596 17.6712L20.5352 21.6128C20.8241 21.9069 21.2964 21.9105 21.5904 21.6216C21.8841 21.3326 21.8881 20.8603 21.5991 20.5663L17.7103 16.6112C19.0879 14.7132 18.9238 12.0646 17.2337 10.3504C15.4145 8.48937 12.3395 8.34387 10.3491 10.2899C8.43723 12.1749 8.40984 15.2656 10.2879 17.1797C11.9914 18.9146 14.7087 19.1161 16.6596 17.6712ZM11.3946 11.355C12.722 10.0577 14.8605 10.0573 16.1677 11.3947C16.1684 11.3958 16.1695 11.3965 16.1702 11.3972C17.4902 12.7363 17.454 14.874 16.1337 16.1688C14.8011 17.478 12.656 17.4617 11.3534 16.1338C10.05 14.8064 10.0697 12.6613 11.3946 11.355ZM43.3196 27.2851L37.7896 27.2389C37.7874 27.2389 37.7852 27.2389 37.7834 27.2389C37.3742 27.2389 37.0404 27.569 37.0371 27.9789C37.0338 28.3911 37.365 28.7277 37.7771 28.7314L43.3298 28.7779C43.7056 31.0762 45.6888 32.8496 48.0918 32.8731C48.1027 32.8731 48.113 32.8731 48.1239 32.8731C50.789 32.8731 52.9732 30.7137 52.9998 28.0446C53.026 25.3594 50.8634 23.1535 48.176 23.1269C48.1655 23.1269 48.1545 23.1269 48.1436 23.1269C45.7031 23.1269 43.6709 24.9338 43.3196 27.2851ZM48.1414 24.6193C48.1487 24.6193 48.1563 24.6193 48.1639 24.6193C50.0256 24.6379 51.5254 26.168 51.5072 28.03C51.4889 29.8822 49.9735 31.3805 48.1264 31.3805C48.1188 31.3805 48.1111 31.3805 48.1038 31.3805C46.2308 31.3621 44.7422 29.8071 44.7534 27.9698C44.7715 26.1177 46.2903 24.6193 48.1414 24.6193ZM27.9551 52.9998C27.9715 52.9998 27.9875 53.0002 28.004 53.0002C30.6732 53.0002 32.8467 50.8515 32.8729 48.1787C32.8729 48.178 32.8729 48.1772 32.8729 48.1762C32.8889 45.7215 31.0765 43.6729 28.7146 43.3198L28.7609 37.7897C28.7642 37.3775 28.433 37.0409 28.0208 37.0372C28.0186 37.0372 28.0164 37.0372 28.0146 37.0372C27.6054 37.0372 27.2716 37.3673 27.2683 37.7772L27.2219 43.3303C24.9241 43.7062 23.1506 45.6891 23.1267 48.0919C23.1091 50.7716 25.275 52.9732 27.9551 52.9998ZM27.9562 44.7612C29.1871 44.4934 31.3936 45.9071 31.3803 48.1641C31.3622 50.034 29.8391 51.5143 27.9696 51.5074C26.1098 51.4888 24.6067 49.9613 24.6192 48.104C24.6507 44.9072 28.2608 44.6225 27.9562 44.7612ZM21.0304 26.3491C20.7389 26.6406 20.7389 27.1128 21.0304 27.4044C21.3219 27.6959 21.7941 27.6959 22.0856 27.4044C25.3472 24.1431 30.653 24.1438 33.9139 27.4044C34.2054 27.6959 34.6776 27.6959 34.9691 27.4044C35.2606 27.1128 35.2606 26.6406 34.9691 26.3491C31.1268 22.5066 24.8735 22.5059 21.0304 26.3491Z" fill="#B30000"/>
<path d="M35.4337 21.6062L39.389 17.7109C41.2685 19.0746 43.9205 18.9387 45.6478 17.2354C47.569 15.3586 47.5947 12.278 45.7097 10.3492C43.8247 8.4376 40.7347 8.4099 38.8199 10.2884C37.0687 12.0072 36.9037 14.7368 38.3289 16.6602L34.3863 20.5428C34.0926 20.8318 34.089 21.3044 34.3783 21.5981C34.6677 21.8917 35.1398 21.8957 35.4337 21.6062ZM39.8658 11.3539C41.1936 10.0501 43.3388 10.0697 44.6447 11.3947C45.9386 12.7184 45.9474 14.8558 44.6024 16.1703C43.2704 17.4833 41.1327 17.4614 39.8308 16.1339C38.5223 14.801 38.538 12.6566 39.8658 11.3539ZM16.6108 38.2893C14.6453 36.8626 11.9833 37.1553 10.3517 38.7644C8.43603 40.6363 8.40693 43.7245 10.2893 45.6506C12.1757 47.5636 15.2665 47.589 17.1795 45.7114C18.9301 43.9925 19.0955 41.263 17.6708 39.34L21.6202 35.4573C21.9139 35.1683 21.9179 34.6961 21.6289 34.402C21.3396 34.108 20.8674 34.104 20.5737 34.3933L16.6108 38.2893ZM16.1337 44.6464C14.8066 45.9502 12.6604 45.9301 11.3544 44.6052C10.0495 43.2697 10.0678 41.1286 11.3971 39.8296C12.7117 38.533 14.8505 38.5227 16.1687 39.866C17.4773 41.1985 17.4612 43.3432 16.1337 44.6464ZM7.821 32.8731C7.83013 32.8746 7.84398 32.8731 7.85602 32.8731C10.2961 32.8731 12.3283 31.0661 12.6799 28.7148L18.21 28.7613C18.2122 28.7613 18.214 28.7613 18.2162 28.7613C18.6255 28.7613 18.9589 28.4312 18.9625 28.0213C18.9658 27.6092 18.6346 27.2725 18.2225 27.2688L12.6698 27.222C12.2939 24.924 10.3108 23.1507 7.9078 23.1269C7.89686 23.1269 7.88663 23.1269 7.87569 23.1269C5.21058 23.1269 3.02643 25.2862 3.00024 27.9554C2.97385 30.6455 5.1306 32.8467 7.821 32.8731ZM7.87308 24.6193C7.88041 24.6193 7.88803 24.6193 7.89566 24.6193C9.7295 24.6376 11.2097 26.128 11.239 27.9541C11.239 27.9549 11.2385 27.9556 11.2385 27.9564C11.2385 27.9589 11.2399 27.961 11.2399 27.9636C11.2402 27.9863 11.2463 28.0072 11.2462 28.03C11.228 29.8822 9.70923 31.3805 7.85562 31.3805C7.8491 31.3805 7.84218 31.3805 7.83555 31.3805C5.97131 31.3624 4.47383 29.8361 4.4927 27.9698C4.51096 26.1177 6.0261 24.6193 7.87308 24.6193ZM27.285 12.6802L27.2387 18.2102C27.2354 18.6223 27.5667 18.959 27.9788 18.9627C27.981 18.9627 27.9832 18.9627 27.985 18.9627C28.3942 18.9627 28.728 18.6325 28.7313 18.2226L28.7777 12.6695C31.0758 12.2937 32.8493 10.3109 32.8729 7.90796C32.8904 5.2283 30.7245 3.02669 28.0444 3.0004C28.028 3.0004 28.0116 3 27.9948 3C25.3312 3 23.1537 5.14301 23.1266 7.82116C23.1266 7.82187 23.1266 7.82267 23.1266 7.82367C23.1107 10.2788 24.9231 12.3274 27.285 12.6802ZM28.0299 4.49286C29.8897 4.51112 31.3928 6.0386 31.3803 7.89582C31.3623 9.72816 29.8743 11.209 28.0502 11.2405C28.0477 11.2405 28.0458 11.239 28.0433 11.239C28.0411 11.239 28.0389 11.239 28.0371 11.239C28.0272 11.239 28.0191 11.2442 28.0094 11.2445C28.0036 11.2445 27.9981 11.2462 27.9923 11.2462C27.9847 11.2462 27.9774 11.2462 27.9697 11.2462C26.1103 11.2279 24.6075 9.69725 24.6193 7.83411C24.6388 5.96605 26.1659 4.47992 28.0299 4.49286ZM38.7643 45.648C40.6374 47.5651 43.725 47.5915 45.6505 45.7103C47.5624 43.8246 47.5898 40.7339 45.7113 38.8202C43.9917 37.07 41.2635 36.9049 39.3402 38.3291L35.4571 34.3798C35.1678 34.0853 34.6956 34.0817 34.4019 34.371C34.1082 34.66 34.1042 35.1323 34.3932 35.4263L38.2892 39.3889C36.9099 41.2891 37.0781 43.939 38.7643 45.648ZM44.6458 39.8659C45.9492 41.1934 45.9295 43.3385 44.6049 44.6452C43.2601 45.9583 41.1283 45.9316 39.8293 44.6026C38.5038 43.258 38.5511 41.121 39.8658 39.831C41.1976 38.5235 43.3419 38.5374 44.6458 39.8659ZM16.6596 17.6712L20.5352 21.6128C20.8241 21.9069 21.2964 21.9105 21.5904 21.6216C21.8841 21.3326 21.8881 20.8603 21.5991 20.5663L17.7103 16.6112C19.0879 14.7132 18.9238 12.0646 17.2337 10.3504C15.4145 8.48937 12.3395 8.34387 10.3491 10.2899C8.43723 12.1749 8.40984 15.2656 10.2879 17.1797C11.9914 18.9146 14.7087 19.1161 16.6596 17.6712ZM11.3946 11.355C12.722 10.0577 14.8605 10.0573 16.1677 11.3947C16.1684 11.3958 16.1695 11.3965 16.1702 11.3972C17.4902 12.7363 17.454 14.874 16.1337 16.1688C14.8011 17.478 12.656 17.4617 11.3534 16.1338C10.05 14.8064 10.0697 12.6613 11.3946 11.355ZM43.3196 27.2851L37.7896 27.2389C37.7874 27.2389 37.7852 27.2389 37.7834 27.2389C37.3742 27.2389 37.0404 27.569 37.0371 27.9789C37.0338 28.3911 37.365 28.7277 37.7771 28.7314L43.3298 28.7779C43.7056 31.0762 45.6888 32.8496 48.0918 32.8731C48.1027 32.8731 48.113 32.8731 48.1239 32.8731C50.789 32.8731 52.9732 30.7137 52.9998 28.0446C53.026 25.3594 50.8634 23.1535 48.176 23.1269C48.1655 23.1269 48.1545 23.1269 48.1436 23.1269C45.7031 23.1269 43.6709 24.9338 43.3196 27.2851ZM48.1414 24.6193C48.1487 24.6193 48.1563 24.6193 48.1639 24.6193C50.0256 24.6379 51.5254 26.168 51.5072 28.03C51.4889 29.8822 49.9735 31.3805 48.1264 31.3805C48.1188 31.3805 48.1111 31.3805 48.1038 31.3805C46.2308 31.3621 44.7422 29.8071 44.7534 27.9698C44.7715 26.1177 46.2903 24.6193 48.1414 24.6193ZM27.9551 52.9998C27.9715 52.9998 27.9875 53.0002 28.004 53.0002C30.6732 53.0002 32.8467 50.8515 32.8729 48.1787C32.8729 48.178 32.8729 48.1772 32.8729 48.1762C32.8889 45.7215 31.0765 43.6729 28.7146 43.3198L28.7609 37.7897C28.7642 37.3775 28.433 37.0409 28.0208 37.0372C28.0186 37.0372 28.0164 37.0372 28.0146 37.0372C27.6054 37.0372 27.2716 37.3673 27.2683 37.7772L27.2219 43.3303C24.9241 43.7062 23.1506 45.6891 23.1267 48.0919C23.1091 50.7716 25.275 52.9732 27.9551 52.9998ZM27.9562 44.7612C29.1871 44.4934 31.3936 45.9071 31.3803 48.1641C31.3622 50.034 29.8391 51.5143 27.9696 51.5074C26.1098 51.4888 24.6067 49.9613 24.6192 48.104C24.6507 44.9072 28.2608 44.6225 27.9562 44.7612ZM21.0304 26.3491C20.7389 26.6406 20.7389 27.1128 21.0304 27.4044C21.3219 27.6959 21.7941 27.6959 22.0856 27.4044C25.3472 24.1431 30.653 24.1438 33.9139 27.4044C34.2054 27.6959 34.6776 27.6959 34.9691 27.4044C35.2606 27.1128 35.2606 26.6406 34.9691 26.3491C31.1268 22.5066 24.8735 22.5059 21.0304 26.3491Z" stroke="#B30000" stroke-width="0.6" mask="url(#path-4-outside-1_283_6607)"/>
<path d="M32.2283 29.0905C32.5784 29.4406 32.5784 30.0078 32.2283 30.3579C31.8783 30.708 31.3111 30.708 30.961 30.3579C29.3295 28.7264 26.673 28.7257 25.0401 30.3579L32.2283 29.0905ZM32.2283 29.0905C29.8959 26.7574 26.1063 26.7562 23.7727 29.0905C23.4226 29.4406 23.4226 30.0078 23.7727 30.3579C24.1228 30.708 24.69 30.708 25.0401 30.3579L32.2283 29.0905ZM26.6204 31.9378L26.6204 31.9378C26.2703 32.2879 26.2703 32.8551 26.6204 33.2052C26.9704 33.5553 27.5377 33.5553 27.8877 33.2052L27.7817 33.0992L27.8874 33.2056C27.9499 33.1435 28.0506 33.1435 28.1131 33.2054C28.4632 33.5553 29.0303 33.5553 29.3803 33.2052C29.7304 32.8551 29.7304 32.2879 29.3803 31.9378C28.6192 31.1767 27.3816 31.1767 26.6204 31.9378Z" fill="#B30000" stroke="#B30000" stroke-width="0.3"/>
</svg>
