<svg width="1440" height="781" viewBox="0 0 1440 781" fill="none" xmlns="http://www.w3.org/2000/svg">
<rect opacity="0.3" y="21" width="1440" height="760" fill="#FFE6E6"/>
<g opacity="0.6">
<circle opacity="0.4" cx="-105.5" cy="365.5" r="109.815" stroke="#FF9799" stroke-width="4.9171"/>
<circle opacity="0.4" cx="-104.498" cy="366.502" r="129.864" stroke="#FF9799" stroke-width="4.9171"/>
<circle opacity="0.4" cx="-105" cy="366" r="146.405" stroke="#FF9799" stroke-width="4.9171"/>
<circle opacity="0.4" cx="-104.499" cy="366.501" r="162.945" stroke="#FF9799" stroke-width="4.9171"/>
<circle opacity="0.4" cx="-104.998" cy="365.998" r="182.493" stroke="#FF9799" stroke-width="4.9171"/>
<circle opacity="0.4" cx="-105" cy="366" r="202.541" stroke="#FF9799" stroke-width="4.9171"/>
<g filter="url(#filter0_f_206_67)">
<rect x="-310" y="161" width="410" height="410" fill="white"/>
<rect x="-309.606" y="161.394" width="409.212" height="409.212" stroke="#FF9799" stroke-width="0.787997"/>
</g>
</g>
<path opacity="0.4" d="M1455.75 61.7529H1427.82C1425.09 61.7529 1423.73 58.4521 1425.66 56.5227L1445.41 36.7748C1446.28 35.8975 1446.28 34.4723 1445.41 33.5983C1444.53 32.721 1443.1 32.721 1442.23 33.5983L1422.48 53.3462C1420.55 55.2756 1417.25 53.9109 1417.25 51.1781V23.2487C1417.25 22.005 1416.24 21 1415 21C1413.76 21 1412.75 22.005 1412.75 23.2487V51.1781C1412.75 53.9076 1409.45 55.2756 1407.52 53.3462L1387.77 33.5983C1386.9 32.721 1385.47 32.721 1384.59 33.5983C1383.72 34.4756 1383.72 35.8975 1384.59 36.7748L1404.34 56.5227C1406.27 58.4521 1404.91 61.7529 1402.18 61.7529H1374.25C1373.01 61.7529 1372 62.758 1372 64.0017C1372 65.2454 1373.01 66.2504 1374.25 66.2504H1402.18C1404.91 66.2504 1406.27 69.5513 1404.34 71.4807L1384.59 91.2286C1383.72 92.1059 1383.72 93.5277 1384.59 94.4051C1385.47 95.2824 1386.89 95.2824 1387.77 94.4051L1407.52 74.6572C1409.45 72.7278 1412.75 74.0924 1412.75 76.8218V104.751C1412.75 105.992 1413.76 107 1415 107C1416.24 107 1417.25 105.992 1417.25 104.751V76.8218C1417.25 74.0924 1420.55 72.7244 1422.48 74.6538L1442.23 94.4017C1443.1 95.279 1444.52 95.279 1445.41 94.4017C1446.28 93.5244 1446.28 92.0992 1445.41 91.2252L1425.66 71.4773C1423.73 69.5479 1425.09 66.2471 1427.82 66.2471H1455.75C1456.99 66.2471 1458 65.2421 1458 63.9984C1458 62.7547 1456.99 61.7496 1455.75 61.7496V61.7529Z" fill="#FF9696"/>
<defs>
<filter id="filter0_f_206_67" x="-470.751" y="0.248581" width="731.503" height="731.503" filterUnits="userSpaceOnUse" color-interpolation-filters="sRGB">
<feFlood flood-opacity="0" result="BackgroundImageFix"/>
<feBlend mode="normal" in="SourceGraphic" in2="BackgroundImageFix" result="shape"/>
<feGaussianBlur stdDeviation="80.3757" result="effect1_foregroundBlur_206_67"/>
</filter>
</defs>
</svg>
