<svg width="1440" height="745" viewBox="0 0 1440 745" fill="none" xmlns="http://www.w3.org/2000/svg">
<rect opacity="0.3" width="1440" height="734" fill="#FFE6E6"/>
<path opacity="0.4" d="M1453.75 60.7529H1425.82C1423.09 60.7529 1421.73 57.4521 1423.66 55.5227L1443.41 35.7748C1444.28 34.8975 1444.28 33.4723 1443.41 32.5983C1442.53 31.721 1441.1 31.721 1440.23 32.5983L1420.48 52.3462C1418.55 54.2756 1415.25 52.9109 1415.25 50.1781V22.2487C1415.25 21.005 1414.24 20 1413 20C1411.76 20 1410.75 21.005 1410.75 22.2487V50.1781C1410.75 52.9076 1407.45 54.2756 1405.52 52.3462L1385.77 32.5983C1384.9 31.721 1383.47 31.721 1382.59 32.5983C1381.72 33.4756 1381.72 34.8975 1382.59 35.7748L1402.34 55.5227C1404.27 57.4521 1402.91 60.7529 1400.18 60.7529H1372.25C1371.01 60.7529 1370 61.758 1370 63.0017C1370 64.2454 1371.01 65.2504 1372.25 65.2504H1400.18C1402.91 65.2504 1404.27 68.5513 1402.34 70.4807L1382.59 90.2286C1381.72 91.1059 1381.72 92.5277 1382.59 93.4051C1383.47 94.2824 1384.89 94.2824 1385.77 93.4051L1405.52 73.6572C1407.45 71.7278 1410.75 73.0924 1410.75 75.8218V103.751C1410.75 104.992 1411.76 106 1413 106C1414.24 106 1415.25 104.992 1415.25 103.751V75.8218C1415.25 73.0924 1418.55 71.7244 1420.48 73.6538L1440.23 93.4017C1441.1 94.279 1442.52 94.279 1443.41 93.4017C1444.28 92.5244 1444.28 91.0992 1443.41 90.2252L1423.66 70.4773C1421.73 68.5479 1423.09 65.2471 1425.82 65.2471H1453.75C1454.99 65.2471 1456 64.2421 1456 62.9984C1456 61.7547 1454.99 60.7496 1453.75 60.7496V60.7529Z" fill="#FF9696"/>
<g opacity="0.6">
<circle opacity="0.4" cx="1578" cy="379" r="146.405" stroke="#FF9799" stroke-width="4.9171"/>
<circle opacity="0.4" cx="1578.5" cy="379.501" r="162.945" stroke="#FF9799" stroke-width="4.9171"/>
<circle opacity="0.4" cx="1578" cy="378.998" r="182.493" stroke="#FF9799" stroke-width="4.9171"/>
<circle opacity="0.4" cx="1578" cy="379" r="202.541" stroke="#FF9799" stroke-width="4.9171"/>
<g filter="url(#filter0_f_256_67)">
<rect x="1373" y="174" width="410" height="410" fill="white"/>
<rect x="1373.39" y="174.394" width="409.212" height="409.212" stroke="#FF9799" stroke-width="0.787997"/>
</g>
</g>
<defs>
<filter id="filter0_f_256_67" x="1212.25" y="13.2486" width="731.503" height="731.503" filterUnits="userSpaceOnUse" color-interpolation-filters="sRGB">
<feFlood flood-opacity="0" result="BackgroundImageFix"/>
<feBlend mode="normal" in="SourceGraphic" in2="BackgroundImageFix" result="shape"/>
<feGaussianBlur stdDeviation="80.3757" result="effect1_foregroundBlur_256_67"/>
</filter>
</defs>
</svg>
