<svg width="378" height="424" viewBox="0 0 378 424" fill="none" xmlns="http://www.w3.org/2000/svg">
<g filter="url(#filter0_d_526_216)">
<g clip-path="url(#clip0_526_216)">
<rect x="25" y="25.2725" width="328" height="373" rx="16" fill="white"/>
<g clip-path="url(#clip1_526_216)">
<g opacity="0.3">
<path d="M-234.535 362.866C-177.873 346.941 -137.883 296.289 -111.676 252.438C-85.1746 208.092 -66.0882 159.445 -31.2117 133.291C7.25533 104.23 32.3896 117.249 42.3308 124.572C56.1135 134.744 55.257 141.66 77.8042 165.257C121.116 210.591 129.345 190.423 148.751 220.471C180.928 270.281 171.333 345.866 204.989 429.705C229.362 490.441 269.716 538.768 306.219 505.262C340.593 473.702 344.461 394.455 380.626 383.209C395.482 378.588 407.837 388.846 432.539 409.363C464.197 435.517 485.455 467.774 493.968 479.107C519.189 512.73 559.897 533.886 626.345 467.483" stroke="#FF9696" stroke-width="0.743289" stroke-miterlimit="10"/>
<path d="M-234.535 387.235C-179.75 373.569 -138.793 327.976 -110.22 282.788C-87.0089 245.574 -69.3065 204.777 -44.9105 175.625C-39.5747 169.268 -33.9535 163.114 -27.8999 157.798C10.2465 124.34 35.2737 129.859 45.7205 133.239C59.7303 137.746 59.7303 142.889 81.8173 165.686C97.3837 181.721 108.47 190.88 117.058 196.89C131.656 207.089 138.963 207.782 150.482 227.4C154.781 234.66 158.814 243.551 162.503 253.895C179.566 301.713 178.839 362.329 207.144 426.587C231.782 482.523 271.848 524.822 307.712 491.74C310.553 489.113 313.353 486.008 316.1 482.437C343.826 446.35 350.052 382.872 381.825 372.904C385.173 371.838 388.539 371.519 391.9 371.951C403.194 373.28 414.869 382.699 433.358 397.954C463.99 423.38 484.909 454.844 494.292 467.297C501.165 476.333 508.252 483.427 515.48 488.504C540.49 506.302 575.843 508.151 625.578 462.732" stroke="#FF9696" stroke-width="0.743289" stroke-miterlimit="10"/>
<path d="M-236.066 415.536C-183.117 403.959 -141.113 363.44 -110.182 316.033C-85.6198 278.408 -67.0876 235.429 -43.1307 204.75C-37.6627 197.717 -31.9958 190.597 -25.9135 184.49C11.9469 146.373 36.8555 141.771 47.8606 143.971C62.0409 146.865 62.984 146.315 84.5963 168.456C99.7283 183.998 110.777 194.504 119.204 201.884C133.401 214.243 140.227 216.732 151.008 237.136C155.115 244.994 158.976 254.215 162.532 264.66C179.022 312.241 179.836 369.316 208.188 427.895C233.114 479.441 272.929 516.053 308.185 483.146C311.17 480.251 313.93 477.357 316.517 473.884C345.129 437.069 351.462 376.435 382.081 366.798C385.404 365.703 388.745 365.345 392.082 365.727C403.572 366.855 415.234 376.03 433.282 391.167C462.923 415.942 483.506 446.939 493.776 460.31C500.596 469.28 507.621 476.403 514.782 481.612C539.579 499.845 574.783 503.695 624.046 462.712" stroke="#FF9696" stroke-width="0.743289" stroke-miterlimit="10"/>
<path d="M-236.066 445.484C-184.999 436.141 -142.01 400.419 -108.723 351.305C-82.8651 313.124 -63.4934 268.204 -40.0138 236.039C-34.4098 228.345 -28.6934 220.304 -22.6051 213.391C14.9363 170.756 39.6613 161.818 51.2584 156.959C65.6056 150.971 67.4823 151.984 88.6096 173.417C103.311 188.371 114.312 200.23 122.614 208.966C136.39 223.428 142.747 227.767 152.779 248.882C156.661 257.333 160.323 266.864 163.727 277.373C179.631 324.578 182.035 377.945 210.34 430.675C235.567 477.706 275.063 508.569 309.681 475.884C312.639 472.992 315.38 470.099 317.949 466.715C347.404 429.113 353.864 371.581 383.285 362.007C386.583 360.886 389.9 360.49 393.213 360.821C404.888 361.718 416.563 370.684 434.128 385.523C462.735 409.559 482.981 439.988 494.119 454.48C500.896 463.308 507.86 470.434 514.953 475.797C539.513 494.425 574.538 500.297 623.279 463.822" stroke="#FF9696" stroke-width="0.743289" stroke-miterlimit="10"/>
<path d="M-236.066 473.896C-186.828 466.687 -142.833 435.642 -107.152 384.511C-79.9681 345.53 -59.7485 298.381 -36.7084 264.604C-30.9721 256.203 -25.2099 247.163 -19.093 239.431C18.1623 192.108 42.6732 176.004 54.9243 166.76C69.399 155.831 72.2282 154.406 92.9237 175.248C107.243 189.782 118.153 202.979 126.32 213.037C139.687 229.664 145.571 235.943 154.872 257.86C158.525 266.935 161.993 276.821 165.254 287.452C180.594 334.484 184.591 384.452 212.883 431.776C238.432 474.506 277.634 499.795 311.653 467.181C314.578 464.274 317.303 461.367 319.864 458.024C350.198 419.451 356.773 365.006 385.031 355.268C388.307 354.157 391.601 353.72 394.894 353.96C406.747 354.658 418.392 363.436 435.558 378.057C463.175 401.545 483.092 431.601 495.109 447.211C501.84 455.997 508.747 463.175 515.779 468.692C540.134 487.848 575.01 495.726 623.279 463.634" stroke="#FF9696" stroke-width="0.743289" stroke-miterlimit="10"/>
<path d="M-236.836 493.107C-189.47 488.091 -144.5 461.996 -106.465 409.225C-77.987 369.705 -56.9288 320.588 -34.3485 285.562C-28.4937 276.487 -22.6735 266.629 -16.542 258.046C20.3769 206.378 44.6782 183.356 57.5379 169.583C72.136 153.984 75.9671 149.896 96.1519 170.018C107.299 181.171 118.24 194.512 128.92 209.973C141.892 228.617 147.28 236.851 155.815 259.264C159.543 269.093 162.5 279.56 165.7 289.738C180.463 336.129 186.058 382.521 214.285 423.926C240.161 461.996 279.017 481.538 312.398 449.238C315.296 446.339 318.002 443.439 320.545 440.163C351.739 400.991 358.424 349.554 385.492 340.131C388.742 339.019 392.008 338.554 395.274 338.739C407.312 339.29 418.935 347.727 435.626 361.935C462.219 384.609 481.798 414.125 494.675 430.739C501.36 439.41 508.211 446.578 515.18 452.196C539.3 471.738 573.987 481.625 621.742 454.109" stroke="#FF9696" stroke-width="0.743289" stroke-miterlimit="10"/>
<path d="M-236.836 508.529C-191.311 505.628 -145.327 484.362 -104.897 429.849C-75.1009 389.667 -53.2034 338.374 -31.0464 302.196C-25.0594 292.39 -19.1936 281.656 -13.0336 272.256C23.6237 216.176 47.7447 186.207 61.2154 167.813C75.9233 147.65 80.751 140.745 100.477 160.183C111.53 171.076 122.285 185.111 132.627 202.134C145.18 222.791 150.112 233.061 157.907 256.271C161.368 266.512 164.093 277.42 167.268 287.719C181.474 333.848 188.681 376.264 216.851 412.21C243.092 445.689 281.626 459.615 314.399 427.499C317.263 424.598 319.945 421.696 322.488 418.476C354.569 378.672 361.395 330.164 387.264 321.083C390.491 319.941 393.735 319.438 396.98 319.574C409.196 319.923 420.824 328.104 437.063 342.146C462.655 364.166 481.905 393.149 495.67 410.875C502.311 419.44 509.104 426.62 516.01 432.373C539.923 452.362 574.461 464.286 621.742 441.221" stroke="#FF9696" stroke-width="0.743289" stroke-miterlimit="10"/>
<path d="M-237.602 521.382C-193.954 520.716 -147.011 504.199 -104.202 448.039C-73.1206 407.239 -50.4103 353.804 -28.6945 316.364C-22.5802 305.787 -16.6561 294.196 -10.4813 284.054C25.8673 223.722 49.8056 186.978 63.8504 163.796C78.7513 139.223 84.4851 129.428 103.727 148.148C114.696 158.914 125.269 173.766 135.25 192.426C147.358 215 151.838 227.402 158.895 251.164C162.06 261.828 164.568 273.071 167.707 283.561C181.354 329.143 190.193 367.742 218.265 398.111C244.858 426.886 283.014 435.202 315.125 403.385C317.962 400.487 320.625 397.589 323.151 394.402C356.092 353.833 362.993 308.424 387.71 299.412C390.91 298.271 394.126 297.729 397.344 297.789C409.746 297.789 421.352 305.845 437.126 319.639C461.704 340.879 480.601 369.365 495.242 388.084C501.835 396.567 508.569 403.765 515.41 409.644C539.089 429.928 573.448 443.867 620.209 425.408" stroke="#FF9696" stroke-width="0.743289" stroke-miterlimit="10"/>
<path d="M-237.602 536.683C-195.788 538.187 -147.841 526.474 -102.636 468.716C-70.2354 427.329 -46.6943 371.77 -25.3939 333.274C-19.1648 322.024 -13.1692 309.674 -6.98323 298.568C29.0941 234.043 52.8862 190.573 67.5074 162.634C82.5959 133.712 89.2491 120.986 108.032 138.976C118.921 149.598 129.322 165.168 138.944 185.251C150.684 209.748 154.638 224.267 160.963 248.562C163.844 259.668 166.154 271.179 169.251 281.851C182.349 326.883 192.809 361.56 220.806 386.433C247.791 410.41 285.59 413.244 317.116 381.69C319.928 378.798 322.575 375.905 325.084 372.811C358.921 331.713 365.92 289.284 389.479 280.463C392.657 279.321 395.851 278.742 399.047 278.727C411.635 278.467 423.272 286.334 438.577 299.812C462.144 320.317 480.719 348.256 496.24 367.981C502.787 376.389 509.464 383.62 516.243 389.643C539.714 410.41 573.923 426.23 620.209 412.318" stroke="#FF9696" stroke-width="0.743289" stroke-miterlimit="10"/>
<path d="M-238.371 548.884C-198.394 552.479 -149.425 545.491 -101.823 485.907C-68.0691 443.719 -43.7488 385.758 -22.8473 346.093C-16.4946 334.031 -10.4362 320.868 -4.23068 308.922C31.5659 240.001 55.2197 189.637 70.409 156.67C85.7195 123.412 93.2665 107.581 111.58 124.92C122.398 135.532 132.629 151.964 141.872 173.574C153.21 200.017 156.672 216.834 162.263 241.741C164.86 253.339 166.945 265.14 170.053 276.071C182.619 320.723 194.719 351.457 222.622 371.116C249.998 390.339 287.43 387.759 318.354 356.357C321.132 353.458 323.763 350.558 326.265 347.659C360.988 305.819 368.094 266.183 390.475 257.572C393.636 256.367 396.814 255.747 399.995 255.716C412.77 255.426 424.368 262.878 439.263 276.013C461.826 295.874 480.07 323.39 496.48 344.209C502.409 351.747 508.978 359.199 516.326 365.868C539.581 387.092 573.638 404.982 619.44 395.53" stroke="#FF9696" stroke-width="0.743289" stroke-miterlimit="10"/>
<path d="M-238.371 562.957C-200.304 568.759 -150.358 566.554 -100.377 505.28C-65.3722 462.371 -40.2218 402.053 -19.726 361.32C-13.2632 348.467 -7.13778 334.541 -0.917229 321.718C34.6065 248.519 58.1218 191.365 73.8073 153.445C89.3284 115.729 97.7551 96.987 115.595 113.64C126.345 124.231 136.41 141.471 145.27 164.47C156.214 192.844 159.113 211.964 164.018 237.378C166.328 249.448 168.206 261.546 171.242 272.687C183.268 316.815 196.99 343.709 224.77 357.983C252.551 372.258 289.563 364.366 319.852 333.178C322.604 330.277 325.216 327.375 327.699 324.474C363.292 281.971 370.499 245.212 391.722 236.798C394.849 235.573 397.995 234.924 401.143 234.854C414.121 234.303 425.68 241.556 440.076 254.525C461.627 273.673 479.519 300.742 496.805 322.588C502.705 330.073 509.22 337.501 516.479 344.319C539.501 365.962 573.381 385.865 618.673 380.961" stroke="#FF9696" stroke-width="0.743289" stroke-miterlimit="10"/>
<path d="M-239.137 576.379C-202.876 584.405 -151.961 586.868 -99.5566 524.051C-63.2008 480.589 -37.2844 417.888 -17.1762 376.28C-10.5889 362.633 -4.39107 348.001 1.86731 334.325C37.1324 256.963 60.5386 193.219 76.7255 150.249C92.5057 108.468 101.828 86.5052 119.141 102.47C130.636 113.075 141.075 135.009 148.217 155.378C158.786 185.569 161.201 207.011 165.347 232.885C167.355 245.402 169.035 257.774 172.03 269.132C183.534 312.594 198.864 335.455 226.563 344.466C254.722 353.709 291.398 340.613 321.079 309.697C323.797 306.799 326.394 303.902 328.87 301.004C365.356 257.89 372.661 224.077 392.7 215.906C395.806 214.664 398.93 213.977 402.058 213.849C415.206 213.008 426.771 220.078 440.768 232.769C461.317 251.197 478.855 277.738 497.033 300.599C502.91 307.987 509.376 315.434 516.544 322.33C539.361 344.379 573.094 366.255 617.907 365.792" stroke="#FF9696" stroke-width="0.743289" stroke-miterlimit="10"/>
<path d="M-239.137 586.778C-204.747 596.983 -152.916 603.777 -98.1182 539.798C-60.545 495.392 -33.7948 430.806 -14.0782 388.278C-7.39059 373.823 -1.101 358.529 5.13669 344.016C40.1404 262.749 63.4215 192.265 80.0928 144.533C96.1239 98.6234 106.237 73.6447 123.142 88.8516C134.225 98.9125 144.607 121.954 151.58 143.782C161.762 175.757 163.596 199.463 167.066 225.801C168.796 238.753 170.258 251.329 173.217 262.893C184.187 305.796 201.135 324.415 228.716 328.433C257.266 332.568 293.524 314.383 322.567 283.738C325.26 280.866 327.835 277.975 330.292 275.064C367.649 231.467 375.046 200.562 393.898 192.64C396.976 191.368 400.071 190.644 403.172 190.472C416.495 189.402 428.054 196.254 441.593 208.628C461.111 226.292 478.319 252.427 497.378 276.163C503.226 283.506 509.628 290.878 516.714 297.875C539.294 320.309 572.844 344.132 617.14 348.237" stroke="#FF9696" stroke-width="0.743289" stroke-miterlimit="10"/>
<path d="M-239.906 601.783C-207.362 614.145 -154.513 625.725 -97.3104 559.977C-58.4135 514.843 -30.8637 447.676 -11.5278 404.249C-4.73341 388.992 1.62823 372.924 7.89466 357.522C42.663 272.001 65.8851 194.643 82.9966 141.807C99.3118 91.577 110.261 63.3786 126.663 77.941C137.352 87.466 147.695 111.727 154.489 135.148C164.313 169.021 165.568 195.135 168.338 222.002C169.74 235.464 171.047 248.318 173.955 260.102C184.471 302.486 203.045 319.857 230.526 315.948C259.417 311.837 295.371 291.658 323.813 261.202C326.479 258.326 329.035 255.431 331.481 252.516C369.755 208.453 377.233 180.139 394.916 172.438C397.972 171.153 401.046 170.399 404.125 170.179C417.636 168.906 429.226 175.506 442.278 187.55C460.757 204.689 477.669 230.542 497.611 255.18C503.436 262.476 509.789 269.858 516.782 276.98C539.156 299.88 572.557 325.734 616.37 334.361" stroke="#FF9696" stroke-width="0.743289" stroke-miterlimit="10"/>
<path d="M-239.906 618.921C-209.23 633.469 -155.42 649.967 -95.8666 582.171C-55.6825 536.139 -27.411 466.16 -8.4306 421.525C-1.50978 405.347 4.91793 388.528 11.1813 372.059C45.6989 281.858 68.7799 197.476 86.376 139.281C102.995 84.5782 114.786 53.2114 130.721 67.1199C140.999 76.14 151.293 101.687 157.911 126.798C167.367 162.646 168.016 191.278 170.135 218.746C171.225 232.771 172.359 245.923 175.222 258.027C185.171 300.044 205.276 310.402 232.691 304.35C261.949 297.978 297.504 269.666 325.309 239.288C327.904 236.379 330.5 233.469 332.913 230.559C372.042 185.604 379.629 160.027 396.126 152.549C399.154 151.223 402.201 150.427 405.253 150.163C418.939 148.65 430.479 155.081 443.11 166.953C460.611 183.334 477.143 208.678 497.949 234.633C503.754 241.907 510.06 249.182 516.981 256.601C539.119 279.879 572.348 308.016 615.603 321.226" stroke="#FF9696" stroke-width="0.743289" stroke-miterlimit="10"/>
<path d="M-240.672 625.533C-211.84 642.243 -157.024 663.384 -95.0417 594.228C-53.4949 547.747 -24.4987 475.492 -5.88921 430.286C1.1045 413.315 7.66545 395.939 13.9321 378.737C48.2861 285.139 71.232 193.973 89.2357 131.072C106.131 72.2543 118.708 38.0237 134.245 51.2294C144.121 59.6567 154.395 86.2419 160.835 112.769C169.94 150.417 169.966 181.115 171.438 208.974C172.191 223.454 173.169 236.747 175.982 249.026C185.434 290.264 207.142 296.172 234.468 285.37C264.096 273.786 299.333 240.627 326.52 210.596C329.116 207.7 331.653 204.804 334.067 202.139C374.1 156.73 381.777 134.055 397.115 126.844C400.142 125.542 403.187 124.769 406.238 124.527C418.936 122.927 431.626 128.308 443.803 140.455C460.3 156.064 476.504 180.796 498.203 207.671C503.985 214.824 510.235 222.151 517.046 229.565C548.893 263.66 581.638 287.525 614.837 300.835" stroke="#FF9696" stroke-width="0.743289" stroke-miterlimit="10"/>
<path d="M-240.672 639.581C-213.706 658.45 -157.931 684.351 -93.6009 613.535C-50.8032 566.421 -21.0517 491.786 -2.76294 445.684C78.4116 240.877 104.106 12.1365 138.252 40.5265C147.717 48.3981 157.96 76.1225 164.206 104.194C177.546 164.1 169.137 209.535 177.183 245.999C196.908 335.423 285.635 235.552 335.5 179.438C384.12 124.712 385.92 107.088 407.306 104.194C444.636 99.0718 464.04 149.225 517.176 208.378C548.769 243.379 581.179 269.516 614.07 286.515" stroke="#FF9696" stroke-width="0.743289" stroke-miterlimit="10"/>
<path d="M-240.672 651.528C-212.986 672.268 -158.939 696.033 -97.4338 627.908C-54.9798 580.757 -26.4896 505.011 -6.85886 456.289C71.5604 261.893 96.0189 51.353 130.807 70.1439C144.399 77.4741 158.199 92.1636 167.309 114.678C185.21 158.95 178.556 198.539 188.938 233.939C211.667 311.488 294.429 224.427 341.91 172.679C388.162 122.095 390.031 107.784 412.638 110.693C450.203 115.521 468.727 160.143 518.786 217.213C550.018 252.801 582.177 278.424 614.837 293.744" stroke="#FF9696" stroke-width="0.743289" stroke-miterlimit="10"/>
<path d="M-240.672 658.539C-194.496 694.111 -146.296 686.853 -101.262 637.545C-59.1495 590.839 -31.9717 514.654 -10.9459 463.807C64.617 281.208 88.2732 87.7789 123.385 100.404C141.201 106.832 157.952 108.454 170.429 125.393C191.836 154.35 187.665 186.491 200.713 220.949C225.641 286.709 303.246 212.436 348.352 165.556C392.16 119.602 394.107 108.454 418.006 117.43C455.714 131.561 473.443 171.116 520.426 225.293C551.289 261.1 583.19 285.965 615.604 299.479" stroke="#FF9696" stroke-width="0.743289" stroke-miterlimit="10"/>
<path d="M-240.672 673.12C-195.838 709.238 -148.896 702.821 -105.086 654.586C-63.3254 607.929 -37.4524 530.711 -15.0407 477.373C57.5074 304.75 80.7671 147.408 115.942 133.841C137.947 125.358 157.408 128.844 173.546 139.477C197.931 155.513 196.512 178.377 212.485 212.105C238.93 267.942 312.066 204.843 354.769 162.166C396.201 120.768 398.13 112.14 423.346 127.479C461.177 150.488 478.129 185.785 522.052 237.525C552.549 273.874 584.201 298.188 616.372 309.979" stroke="#FF9696" stroke-width="0.743289" stroke-miterlimit="10"/>
<path d="M-240.672 695.555C-197.183 731.989 -151.501 726.423 -108.917 679.502C-67.5001 633.137 -42.9405 555.332 -19.1338 499.839C50.3478 337.882 73.367 195.92 108.51 178.186C134.619 165.03 157.673 144.919 176.659 164.421C202.785 191.255 203.763 193.109 224.255 213.683C248.91 276.304 320.884 207.627 361.202 169.492C400.231 132.69 402.152 126.605 428.702 148.483C466.632 179.75 482.814 211.162 523.678 260.048C553.81 296.716 585.218 320.331 617.139 330.319" stroke="#FF9696" stroke-width="0.743289" stroke-miterlimit="10"/>
<path d="M-240.672 720.41C-198.528 757.284 -154.102 752.634 -112.727 707.019C-71.6514 660.874 -48.4131 582.179 -23.2015 524.411C43.1465 372.354 65.9088 244.036 101.047 223.688C131.339 206.181 156.542 178.413 179.807 190.558C209.804 206.21 212.461 200.065 236.063 216.645C261.932 272.384 329.717 211.514 367.617 178.036C404.244 145.718 406.165 141.863 434.043 170.616C472.124 209.804 487.486 237.891 525.299 284.007C555.068 321.098 586.239 344.084 617.906 352.296" stroke="#FF9696" stroke-width="0.743289" stroke-miterlimit="10"/>
<path d="M-240.672 747.824C-199.921 785.164 -156.803 781.373 -116.689 736.923C-75.9921 690.848 -54.1132 611.053 -27.5039 550.879C35.6249 408.119 58.1091 292.452 93.3489 270.359C127.707 248.819 155.492 231.145 182.525 217.686C215.905 201.058 220.696 207.947 247.383 220.593C274.485 269.749 338.012 216.523 373.537 187.512C407.731 159.605 409.65 157.803 438.828 193.703C476.947 240.621 491.536 265.883 526.24 309.254C555.621 346.855 586.527 369.27 617.906 375.736" stroke="#FF9696" stroke-width="0.743289" stroke-miterlimit="10"/>
<path d="M-240.672 770.101C-208.475 801.321 -165.002 811.844 -120.516 761.782C-80.1386 716.328 -59.6342 635.539 -31.6059 573.359C28.2989 440.478 50.5503 337.686 85.8948 314.64C124.43 289.537 155.079 264.984 185.624 242.721C222.205 216.023 230.161 197.384 259.132 222.429C289.149 248.374 346.788 219.531 379.928 195.065C411.718 171.7 413.655 171.874 444.139 214.805C482.45 268.926 496.166 291.566 527.869 331.859C547.578 356.905 577.31 389.662 618.674 396.155" stroke="#FF9696" stroke-width="0.743289" stroke-miterlimit="10"/>
<path d="M-240.672 792.562C-207.72 825.37 -166.008 833.659 -124.347 786.785C-84.3121 741.731 -65.1639 660.201 -35.6978 596.173C20.9425 473.054 42.8756 382.86 78.465 359.351C121.19 331.105 154.764 299.539 188.736 268.377C228.615 231.785 238.57 203.944 270.898 225.055C301.714 245.272 355.586 223.092 386.359 203.395C415.764 184.565 417.771 186.298 449.494 236.608C487.998 297.633 500.815 317.936 529.494 355.019C548.919 380.145 578.213 412.78 619.441 417.112" stroke="#FF9696" stroke-width="0.743289" stroke-miterlimit="10"/>
<path d="M-240.672 819.915C-206.939 854.69 -167.014 860.66 -128.178 816.669C-88.4863 771.693 -70.7118 688.812 -39.7904 622.507C13.5589 508.096 35.1996 429.736 71.0253 405.885C117.983 374.617 154.492 335.581 191.848 295.213C235.095 248.498 246.988 211.897 282.667 228.56C314.323 243.34 364.386 227.662 392.782 212.448C419.75 197.958 421.887 201.291 454.841 259.365C493.59 327.612 505.457 345.927 531.12 379.978C550.269 405.393 579.106 438.256 620.208 440.284" stroke="#FF9696" stroke-width="0.743289" stroke-miterlimit="10"/>
<path d="M-240.672 844.92C-206.188 881.293 -167.947 885.084 -131.913 844.197C-92.5293 799.491 -76.1316 715.576 -43.7083 647.432C6.35935 542.162 27.1379 461.923 63.864 452.114C115.932 438.195 154.597 371.671 195.349 322.249C242.04 265.65 257.685 192.036 294.913 232.547C326.012 266.489 373.698 232.547 399.784 222.072C424.355 212.089 426.623 216.806 460.821 282.461C499.876 357.493 510.75 373.986 533.434 404.716C552.316 430.325 580.74 463.167 621.743 462.965" stroke="#FF9696" stroke-width="0.743289" stroke-miterlimit="10"/>
<path d="M-240.672 869.844C-205.433 907.979 -168.955 909.426 -135.742 871.812C-96.7101 827.311 -81.7226 742.129 -47.808 672.167C-1.05307 575.73 19.4411 509.644 56.4121 497.839C112.691 479.813 154.381 407.189 198.469 348.626C248.601 282.078 265.458 203.638 306.698 235.783C339.409 261.303 382.527 236.883 406.208 230.923C428.365 225.338 430.832 231.414 466.167 304.878C505.536 386.703 515.372 401.547 535.061 428.918C553.65 454.785 581.634 487.597 622.51 485.166" stroke="#FF9696" stroke-width="0.743289" stroke-miterlimit="10"/>
<path d="M-240.672 902.409C-204.685 942.395 -169.971 941.612 -139.578 906.758C-100.89 862.365 -87.3388 775.608 -51.9063 703.784C-8.55944 615.896 11.7372 563.934 48.9708 550.103C109.48 527.631 154.186 449.051 201.585 381.199C255.202 304.446 273.455 222.647 318.481 244.917C352.719 261.85 391.321 246.946 412.648 245.642C432.373 244.424 435.066 251.847 471.529 333.355C511.23 422.113 520.019 435.51 536.687 459.49C554.984 485.76 582.58 518.526 623.277 513.858" stroke="#FF9696" stroke-width="0.743289" stroke-miterlimit="10"/>
<path d="M-240.672 929.869C-203.962 971.658 -171.041 968.582 -143.502 936.776C-105.191 892.52 -93.1129 804.126 -56.1691 730.734C-16.2403 651.393 3.78894 613.754 41.2692 597.968C105.917 570.747 153.658 486.589 204.307 409.512C261.409 322.655 281.188 238.787 329.76 249.902C365.406 258.057 399.555 252.804 418.494 256.257C435.763 259.362 438.722 268.068 476.246 357.653C516.296 453.216 523.901 465.404 537.623 485.718C555.593 512.446 582.7 545.064 623.277 538.128" stroke="#FF9696" stroke-width="0.743289" stroke-miterlimit="10"/>
<path d="M-240.672 960.086C-203.205 1003.51 -172.071 998.009 -147.332 969.494C-109.389 925.26 -98.7893 835.546 -60.2576 761.06C-23.7248 690.424 -3.93551 667.264 33.8433 649.605C102.652 617.443 153.514 528.308 207.404 442.242C267.975 345.581 289.772 273.063 341.525 259.862C378.404 250.483 408.335 263.626 424.923 271.818C439.78 279.171 443.007 289.188 481.599 386.515C522.043 488.59 528.481 499.417 539.245 516.063C556.88 543.362 583.601 575.524 624.045 566.376" stroke="#FF9696" stroke-width="0.743289" stroke-miterlimit="10"/>
<path d="M-240.672 992.647C-202.459 1037.91 -173.082 1030.14 -151.163 1004.62C-113.574 960.518 -104.531 868.508 -64.3631 792.939C-31.2387 730.623 -11.6998 721.894 26.3829 702.321C99.338 664.827 153.343 570.584 210.54 475.239C274.652 368.324 298.5 289.653 353.318 269.354C391.392 255.319 417.152 273.791 431.352 286.927C443.804 298.526 447.326 309.835 486.949 415.416C527.827 524.332 533.036 534.105 540.876 547.009C558.113 575.368 584.497 606.773 624.812 595.377" stroke="#FF9696" stroke-width="0.743289" stroke-miterlimit="10"/>
<path d="M-240.672 1022.65C-201.73 1069.73 -174.037 1059.71 -154.999 1037.18C-117.787 993.206 -110.328 898.441 -68.4602 822.263C-38.7428 768.186 -19.462 774.052 18.9438 752.561C96.0064 709.433 153.2 610.253 213.656 505.7C281.311 388.543 307.282 303.594 365.098 276.266C404.516 257.649 425.995 281.261 437.79 299.499C447.855 315.066 451.637 327.932 492.31 441.807C533.632 557.599 537.569 566.399 542.502 575.402C559.178 605.868 585.391 635.52 625.579 621.87" stroke="#FF9696" stroke-width="0.743289" stroke-miterlimit="10"/>
</g>
</g>
</g>
</g>
<defs>
<filter id="filter0_d_526_216" x="0" y="0.272461" width="378" height="423" filterUnits="userSpaceOnUse" color-interpolation-filters="sRGB">
<feFlood flood-opacity="0" result="BackgroundImageFix"/>
<feColorMatrix in="SourceAlpha" type="matrix" values="0 0 0 0 0 0 0 0 0 0 0 0 0 0 0 0 0 0 127 0" result="hardAlpha"/>
<feMorphology radius="5" operator="erode" in="SourceAlpha" result="effect1_dropShadow_526_216"/>
<feOffset/>
<feGaussianBlur stdDeviation="15"/>
<feComposite in2="hardAlpha" operator="out"/>
<feColorMatrix type="matrix" values="0 0 0 0 0.752941 0 0 0 0 0.858824 0 0 0 0 0.964706 0 0 0 0.3 0"/>
<feBlend mode="normal" in2="BackgroundImageFix" result="effect1_dropShadow_526_216"/>
<feBlend mode="normal" in="SourceGraphic" in2="effect1_dropShadow_526_216" result="shape"/>
</filter>
<clipPath id="clip0_526_216">
<rect x="25" y="25.2725" width="328" height="373" rx="16" fill="white"/>
</clipPath>
<clipPath id="clip1_526_216">
<rect width="328" height="373" fill="white" transform="translate(25 25)"/>
</clipPath>
</defs>
</svg>
