<svg width="181" height="43" viewBox="0 0 181 43" fill="none" xmlns="http://www.w3.org/2000/svg">
    <g opacity=".5" clip-path="url(#qy4eprmsaa)">
        <path opacity=".6" fill-rule="evenodd" clip-rule="evenodd" d="M-188-29c0 46.944 37.909 85 84.672 85h212.656C156.091 56 194 17.944 194-29s-37.909-85-84.672-85h-212.656C-150.091-114-188-75.944-188-29zm84.672 33.353c-18.349 0-33.224-14.933-33.224-33.353s14.875-33.353 33.224-33.353h212.656c18.349 0 33.224 14.933 33.224 33.353S127.677 4.353 109.328 4.353h-212.656z" fill="#DBE4F0" stroke="#fff" stroke-width="26"/>
    </g>
    <defs>
        <clipPath id="qy4eprmsaa">
            <path fill="#fff" transform="matrix(1 0 0 -1 0 43)" d="M0 0h181v43H0z"/>
        </clipPath>
    </defs>
</svg>
