<svg width="56" height="56" viewBox="0 0 56 56" fill="none" xmlns="http://www.w3.org/2000/svg">
    <path d="M36.615 17.328V6.462a1.079 1.079 0 0 0-1.532-.976l-15.938 7.437h-6.222c-5.938 0-10.77 4.831-10.77 10.77 0 5.237 3.761 9.609 8.724 10.568l1.807 13.551a3.239 3.239 0 0 0 3.202 2.803h4.422a2.154 2.154 0 0 0 2.135-2.438L20.695 35.07l14.444 5.778a1.088 1.088 0 0 0 1.004-.11 1.08 1.08 0 0 0 .472-.89v-9.79C39.666 29.542 42 26.889 42 23.692c0-3.196-2.334-5.85-5.385-6.364zM4.308 23.692c0-4.75 3.865-8.615 8.615-8.615h5.385v17.23h-5.385c-4.75 0-8.615-3.864-8.615-8.615zm11.578 24.77a1.08 1.08 0 0 1-1.068-.934l-1.742-13.066h5.365l1.867 14h-4.422zm18.576-10.206-14-5.602V14.686l14-6.534v30.104zm2.153-10.409v-8.31c1.854.482 3.231 2.153 3.231 4.155 0 2.002-1.377 3.674-3.23 4.155z" fill="#004498"/>
    <path d="M48.461 23.692c0-3.602-1.788-6.95-4.785-8.954a1.077 1.077 0 1 0-1.2 1.79 8.604 8.604 0 0 1 3.831 7.164 8.605 8.605 0 0 1-3.83 7.165 1.077 1.077 0 1 0 1.2 1.79 10.758 10.758 0 0 0 4.784-8.955z" fill="#F9AFB2"/>
    <path d="M46.923 10.434a1.078 1.078 0 0 0-1.233 1.768 14.016 14.016 0 0 1 6.002 11.49 14.02 14.02 0 0 1-6 11.491 1.078 1.078 0 0 0 .617 1.961c.212 0 .426-.063.614-.194a16.177 16.177 0 0 0 6.923-13.258 16.177 16.177 0 0 0-6.922-13.258z" fill="#F9AFB2"/>
</svg>
