<svg width="31" height="29" viewBox="0 0 31 29" fill="none" xmlns="http://www.w3.org/2000/svg">
<path d="M27.7142 16.849L27.7144 16.8488C29.4354 15.1155 30.4998 12.7221 30.4998 10.0774C30.4998 8.50726 30.1253 7.02763 29.4623 5.72179C29.1921 8.17042 28.0918 10.3668 26.4515 12.0189L27.7142 16.849ZM27.7142 16.849C25.9957 18.5819 23.6187 19.6526 20.996 19.6526H14.5145H14.0145V20.1526V27.7301C14.0145 27.7377 14.0134 27.7412 14.0133 27.7418L14.0127 27.743C14.0121 27.7438 14.0092 27.7472 14.0027 27.7499C13.998 27.7518 13.9947 27.752 13.9935 27.752L13.992 27.7511C13.9909 27.7502 13.989 27.7487 13.9864 27.746L13.6656 28.0609L13.9864 27.746L3.48451 17.043L3.48451 17.043L3.48258 17.041L3.46723 17.0256L3.46735 17.0254L3.45799 17.0165C2.10655 15.723 1.13276 14.0344 0.719399 12.1346M27.7142 16.849L0.719399 12.1346M0.719399 12.1346C2.61048 13.9811 5.18874 15.1183 8.0309 15.1183H19.0232C21.9239 15.1183 24.5532 13.9329 26.4513 12.0191L0.719399 12.1346Z" fill="#FF9999" stroke="#B30000"/>
<path d="M25.7419 11.3145L25.7417 11.3147C24.0232 13.0476 21.6463 14.1183 19.0235 14.1183H8.03112C4.97052 14.1183 2.24607 12.6605 0.505024 10.39C0.501871 10.2853 0.5 10.181 0.5 10.0774C0.5 7.43048 1.56444 5.03695 3.28537 3.30374C5.00628 1.57055 7.38118 0.5 10.0038 0.5H20.9962C24.0591 0.5 26.7834 1.95789 28.5223 4.22812C28.5254 4.33285 28.5273 4.43722 28.5273 4.54086C28.5273 7.1878 27.4629 9.58128 25.7419 11.3145Z" fill="#FF9999" stroke="#B30000"/>
<rect x="1" y="1" width="29" height="18" rx="9" fill="#FF9999"/>
</svg>
