<svg width="24" height="21" viewBox="0 0 24 21" fill="none" xmlns="http://www.w3.org/2000/svg">
<path d="M1.6953 13.7969L3.8047 15.2031C4.0829 15.3886 4.25 15.7008 4.25 16.0352V17.6315C4.25 18.4302 5.14015 18.9066 5.8047 18.4635L9.99808 15.6679C10.1623 15.5584 10.3554 15.5 10.5528 15.5H20.75C21.3023 15.5 21.75 15.0523 21.75 14.5V2C21.75 1.44772 21.3023 1 20.75 1H2.25C1.69772 1 1.25 1.44772 1.25 2V12.9648C1.25 13.2992 1.4171 13.6114 1.6953 13.7969Z" fill="#EF8989"/>
<path d="M3.825 20.4565C3.825 18.9504 3.825 17.5173 3.825 16.0547C3.53103 15.9999 3.27223 15.9678 3.02215 15.9024C1.70915 15.5588 0.764617 14.3678 0.759883 12.9994C0.748374 9.67358 0.744721 6.34759 0.761005 3.02174C0.769515 1.28194 2.15117 0.0113958 4.01772 0.00531467C7.09569 -0.00470485 10.1737 0.00251851 13.2517 0.00251851C15.38 0.0024981 17.5082 -0.000562866 19.6364 0.00339597C21.7519 0.0073548 23.0241 1.27626 23.0262 3.38479C23.0293 6.46433 23.0291 9.5439 23.0263 12.6235C23.0244 14.7408 21.7583 16.0192 19.6518 16.023C16.6618 16.0284 13.6717 16.0177 10.6817 16.0356C10.406 16.0372 10.0899 16.1346 9.86244 16.29C8.01957 17.5488 6.19363 18.8326 4.36164 20.1074C4.20807 20.2143 4.048 20.3118 3.825 20.4565ZM5.0904 17.9916C5.30054 17.861 5.41986 17.7941 5.53168 17.7163C6.83 16.8134 8.11868 15.8962 9.43199 15.0158C9.68838 14.8439 10.0386 14.7317 10.3465 14.7296C13.4413 14.7089 16.5363 14.7193 19.6313 14.7159C21.0543 14.7144 21.723 14.0427 21.7249 12.6089C21.7291 9.54755 21.7288 6.48623 21.725 3.42491C21.7232 1.97669 21.0424 1.30132 19.5895 1.3C16.7407 1.2974 13.8919 1.29916 11.0432 1.29922C8.70436 1.29926 6.36551 1.29073 4.02678 1.30297C2.73948 1.30971 2.04095 2.02428 2.03914 3.31023C2.03469 6.45952 2.03365 9.60881 2.03975 12.7581C2.04212 13.983 2.74905 14.6924 3.96531 14.7154C4.32948 14.7223 4.69392 14.7165 5.09038 14.7165C5.0904 15.8195 5.0904 16.8534 5.0904 17.9916Z" fill="#B30000"/>
</svg>
