<svg width="41" height="40" viewBox="0 0 41 40" fill="none" xmlns="http://www.w3.org/2000/svg">
<path d="M10.128 9.92651H19.1518H29.9802V18.0479V27.5228L28.6267 28.8763H24.566L27.7243 31.5835L29.9802 35.193V38.8024H6.51855V36.0953L8.77449 31.5835L11.9328 28.8763H7.87211L6.51855 27.5228V13.536L10.128 9.92651Z" fill="#DD7777" fill-opacity="0.44"/>
<path opacity="0.4" d="M33.4164 18.144H30.4766V23.8362H33.4164V18.144Z" fill="#FF0000"/>
<path opacity="0.4" d="M6.22399 18.144H3.28418V23.8362H6.22399V18.144Z" fill="#FF0000"/>
<path d="M27.0231 14.0407L23.2353 14.0014C23.0817 14.0002 22.9299 13.9686 22.7894 13.9085C22.6489 13.8484 22.5225 13.7611 22.4182 13.6519C22.1829 13.4111 22.0531 13.0915 22.0557 12.7601V2.13099C22.0557 1.44652 22.5884 0.889648 23.2432 0.889648H38.784C39.4388 0.889648 39.9716 1.44652 39.9716 2.13099V12.7601C39.9716 13.4446 39.4388 14.0014 38.784 14.0014H29.8986L27.0069 17.0093L27.0231 14.0407Z" fill="#DD7777"/>
<path d="M38.7837 0H23.2429C22.0815 0 21.1367 0.95585 21.1367 2.13075V12.7599C21.1367 13.9347 22.0815 14.8906 23.235 14.8906L26.0993 14.9204L26.0854 17.4601C26.0846 17.6034 26.1285 17.7435 26.2113 17.8622C26.2941 17.9808 26.412 18.0726 26.5495 18.1253C26.6871 18.1781 26.8379 18.1895 26.9821 18.158C27.1265 18.1265 27.2576 18.0534 27.3583 17.9486L30.2983 14.8906H38.7837C39.9451 14.8906 40.8899 13.9347 40.8899 12.7599V2.13075C40.8899 0.95585 39.9451 0 38.7837 0ZM39.42 12.7599C39.42 13.1501 39.1345 13.4675 38.7837 13.4675H29.9783C29.8774 13.4675 29.7775 13.4877 29.6849 13.5267C29.5924 13.5657 29.5091 13.6228 29.4403 13.6944L27.5653 15.6447L27.573 14.2202C27.5741 14.0322 27.4982 13.8514 27.362 13.7174C27.2258 13.5834 27.0403 13.507 26.846 13.505L23.2429 13.4675C22.892 13.4675 22.6066 13.1501 22.6066 12.7599V2.13075C22.6066 1.7405 22.892 1.42305 23.2429 1.42305H38.7837C39.1345 1.42305 39.42 1.74051 39.42 2.13075V12.7599Z" fill="#B30000"/>
<path d="M36.1138 3.54614H26.026C25.8311 3.54614 25.6442 3.62111 25.5063 3.75454C25.3684 3.88798 25.291 4.06896 25.291 4.25767C25.291 4.44638 25.3684 4.62735 25.5063 4.76079C25.6442 4.89423 25.8311 4.96919 26.026 4.96919H36.1138C36.3088 4.96919 36.4957 4.89423 36.6336 4.76079C36.7714 4.62735 36.8488 4.44638 36.8488 4.25767C36.8488 4.06896 36.7714 3.88798 36.6336 3.75454C36.4957 3.62111 36.3088 3.54614 36.1138 3.54614ZM36.1138 6.57498H26.026C25.8311 6.57498 25.6442 6.64991 25.5063 6.78339C25.3684 6.91678 25.291 7.09779 25.291 7.28649C25.291 7.47518 25.3684 7.65619 25.5063 7.78958C25.6442 7.92306 25.8311 7.99801 26.026 7.99801H36.1138C36.3088 7.99801 36.4957 7.92306 36.6336 7.78958C36.7714 7.65619 36.8488 7.47518 36.8488 7.28649C36.8488 7.09779 36.7714 6.91678 36.6336 6.78339C36.4957 6.64991 36.3088 6.57498 36.1138 6.57498ZM31.0699 9.69229H26.026C25.8311 9.69229 25.6442 9.76723 25.5063 9.90072C25.3684 10.0341 25.291 10.2151 25.291 10.4038C25.291 10.5925 25.3684 10.7735 25.5063 10.9069C25.6442 11.0404 25.8311 11.1153 26.026 11.1153H31.0699C31.2648 11.1153 31.4518 11.0404 31.5897 10.9069C31.7274 10.7735 31.8049 10.5925 31.8049 10.4038C31.8049 10.2151 31.7274 10.0341 31.5897 9.90072C31.4518 9.76723 31.2648 9.69229 31.0699 9.69229Z" fill="white"/>
<path d="M13.8617 13.7163C12.5797 13.7177 11.3507 14.2113 10.4441 15.0889C9.5377 15.9665 9.02784 17.1564 9.02637 18.3975V20.2545C9.02774 21.4956 9.5377 22.6855 10.4441 23.5631C11.3507 24.4407 12.5797 24.9344 13.8617 24.9357H22.8298C23.4648 24.936 24.0936 24.815 24.6804 24.5798C25.2672 24.3447 25.8003 23.9999 26.2493 23.5651C26.6984 23.1304 27.0545 22.6142 27.2974 22.0462C27.5403 21.4782 27.6653 20.8694 27.665 20.2545C27.665 20.0658 27.5876 19.8848 27.4498 19.7514C27.3119 19.618 27.125 19.543 26.93 19.543C26.7351 19.543 26.5482 19.618 26.4104 19.7514C26.2726 19.8848 26.1951 20.0658 26.1951 20.2545C26.1954 20.6825 26.1084 21.1063 25.9394 21.5017C25.7704 21.897 25.5225 22.2563 25.2099 22.5589C24.8974 22.8615 24.5263 23.1015 24.1179 23.2651C23.7095 23.4288 23.2717 23.5129 22.8298 23.5126H13.8617C12.9694 23.5117 12.114 23.1682 11.4831 22.5573C10.8522 21.9465 10.4973 21.1183 10.4963 20.2545V18.3975C10.4973 17.5337 10.8522 16.7055 11.4831 16.0947C12.1141 15.4839 12.9694 15.1403 13.8617 15.1394H18.944C19.1389 15.1394 19.3259 15.0644 19.4637 14.9309C19.6016 14.7975 19.679 14.6165 19.679 14.4278C19.679 14.2391 19.6016 14.0581 19.4637 13.9247C19.3259 13.7913 19.1389 13.7163 18.944 13.7163H13.8617Z" fill="#B30000"/>
<circle cx="14.5" cy="19.5" r="1.5" fill="#D9D9D9"/>
<circle cx="21.5" cy="19.5" r="1.5" fill="#D9D9D9"/>
<path d="M12.4775 19.1751C12.4775 20.2822 13.382 21.1829 14.4938 21.1829C15.6055 21.1829 16.5099 20.2822 16.5099 19.1751C16.5099 18.0679 15.6055 17.1672 14.4938 17.1672C13.382 17.1672 12.4775 18.0679 12.4775 19.1751ZM15.04 19.1751C15.04 19.4975 14.795 19.7598 14.4938 19.7598C14.1925 19.7598 13.9474 19.4975 13.9474 19.1751C13.9474 18.8526 14.1925 18.5903 14.4938 18.5903C14.795 18.5903 15.04 18.8526 15.04 19.1751ZM21.3132 21.1829C22.425 21.1829 23.3294 20.2822 23.3294 19.1751C23.3294 18.0679 22.425 17.1672 21.3132 17.1672C20.2015 17.1672 19.297 18.0679 19.297 19.1751C19.297 20.2822 20.2015 21.1829 21.3132 21.1829ZM21.3132 18.5903C21.6145 18.5903 21.8595 18.8526 21.8595 19.1751C21.8595 19.4975 21.6145 19.7598 21.3132 19.7598C21.012 19.7598 20.7669 19.4975 20.7669 19.1751C20.7669 18.8526 21.012 18.5903 21.3132 18.5903Z" fill="#B30000"/>
<path d="M32.2947 16.9156H30.1701C30.0736 16.9156 29.978 16.934 29.8889 16.9698C29.7997 17.0055 29.7187 17.0579 29.6504 17.124C29.5822 17.19 29.528 17.2685 29.4911 17.3548C29.4542 17.4412 29.4352 17.5337 29.4352 17.6271V26.5274C29.4347 26.9339 29.2677 27.3236 28.9708 27.611C28.6739 27.8985 28.2713 28.0601 27.8515 28.0606H8.84228C8.42238 28.0601 8.01992 27.8985 7.723 27.611C7.42608 27.3236 7.2591 26.9339 7.25861 26.5274V14.9939C7.26008 13.7466 7.77259 12.5508 8.68353 11.6688C9.59458 10.7869 10.8297 10.2907 12.1181 10.2894H18.6523C18.8472 10.2894 19.0342 10.2144 19.1721 10.081C19.3099 9.9475 19.3873 9.76658 19.3873 9.57789C19.3873 9.38919 19.3099 9.20818 19.1721 9.0747C19.0342 8.94131 18.8472 8.86636 18.6523 8.86636H12.1181C10.44 8.86817 8.83121 9.51432 7.6446 10.6631C6.45807 11.8118 5.79061 13.3694 5.78871 14.9939V16.9156H4.39906C4.17159 16.9156 3.9456 16.9509 3.72965 17.02V12.1744C4.32278 12.0027 4.84226 11.6492 5.20982 11.1669C5.5774 10.6846 5.77316 10.0999 5.76762 9.50047C5.76762 7.97127 4.52367 6.72705 2.99468 6.72705C1.46571 6.72705 0.221794 7.97127 0.221794 9.50047C0.216257 10.0998 0.41201 10.6846 0.779574 11.1669C1.14714 11.6492 1.6666 12.0027 2.25974 12.1744V22.8879C2.26037 23.4307 2.48337 23.9511 2.87983 24.3349C3.27628 24.7187 3.8138 24.9346 4.37448 24.9352H5.78871V26.5274C5.78963 27.3112 6.11164 28.0626 6.6841 28.6168C7.25655 29.171 8.03276 29.4828 8.84228 29.4836H10.0754C8.76164 30.2977 7.68047 31.4187 6.93131 32.7434C6.18224 34.068 5.78931 35.5538 5.78871 37.0639V39.1334C5.78871 39.2269 5.80772 39.3194 5.84466 39.4058C5.88159 39.4921 5.93572 39.5705 6.00397 39.6366C6.07222 39.7026 6.15324 39.7551 6.24241 39.7909C6.33158 39.8266 6.42715 39.845 6.52366 39.8449H30.1701C30.2667 39.845 30.3622 39.8266 30.4514 39.7909C30.5405 39.7551 30.6216 39.7026 30.6898 39.6366C30.758 39.5705 30.8122 39.4921 30.8491 39.4058C30.8861 39.3194 30.9051 39.2269 30.9051 39.1334V36.9705C30.9045 35.4805 30.5179 34.0145 29.7809 32.7066C29.0438 31.3987 27.9797 30.2906 26.686 29.4836H27.8515C28.661 29.4828 29.4372 29.171 30.0097 28.6168C30.5821 28.0626 30.9041 27.3112 30.9051 26.5274V24.9352H32.3193C32.88 24.9346 33.4174 24.7187 33.8139 24.3349C34.2104 23.9511 34.4333 23.4307 34.434 22.8879V18.9867C34.4333 18.4376 34.2078 17.9111 33.8067 17.5229C33.4057 17.1346 32.8619 16.9162 32.2947 16.9156ZM1.6917 9.50047C1.6917 8.75593 2.2762 8.1501 2.99469 8.1501C3.71318 8.1501 4.29772 8.75593 4.29772 9.50047C4.29772 10.2451 3.71317 10.8509 2.99468 10.8509C2.27619 10.8509 1.6917 10.2451 1.6917 9.50047ZM4.37448 23.5122C4.20352 23.512 4.03962 23.4461 3.91874 23.3292C3.79785 23.2121 3.72984 23.0534 3.72965 22.8879V18.9867C3.72984 18.8149 3.80043 18.6502 3.92593 18.5287C4.05143 18.4072 4.22158 18.3388 4.39906 18.3386H5.78871V23.5122H4.37448ZM21.7018 29.4836C22.4864 29.4831 23.2666 29.5986 24.0152 29.8261L21.9305 32.2752C21.8684 32.3484 21.7902 32.4073 21.7016 32.4478C21.6131 32.4883 21.5164 32.5091 21.4184 32.509H14.659C14.5547 32.5088 14.4518 32.4849 14.3588 32.4392C14.2658 32.3935 14.1852 32.3273 14.1235 32.2459L12.3874 29.9489C13.2523 29.6404 14.1669 29.4829 15.0886 29.4836H21.7018ZM29.4352 36.9705V38.4219H7.25861V37.0639C7.25929 35.759 7.60786 34.4763 8.27049 33.34C8.93303 32.2036 9.88739 31.2521 11.0411 30.5773L12.9371 33.0862C13.1357 33.3479 13.395 33.5609 13.6941 33.7077C13.9931 33.8547 14.3237 33.9315 14.659 33.9321H21.4184C21.7333 33.9326 22.0443 33.8653 22.329 33.7353C22.6137 33.6053 22.8651 33.4156 23.0649 33.1801L25.4231 30.4098C26.6372 31.0557 27.6498 32.0052 28.3556 33.1592C29.0612 34.3132 29.4341 35.6294 29.4352 36.9705ZM32.9641 22.8879C32.9639 23.0534 32.8959 23.2121 32.775 23.3292C32.6542 23.4461 32.4902 23.512 32.3193 23.5122H30.9051V18.3386H32.2947C32.4722 18.3388 32.6423 18.4072 32.7678 18.5287C32.8934 18.6502 32.9639 18.8149 32.9641 18.9867V22.8879Z" fill="#B30000"/>
<path d="M32.2947 16.9156H30.1701C30.0736 16.9156 29.978 16.934 29.8889 16.9698C29.7997 17.0055 29.7187 17.0579 29.6504 17.124C29.5822 17.19 29.528 17.2685 29.4911 17.3548C29.4542 17.4412 29.4352 17.5337 29.4352 17.6271V26.5274C29.4347 26.9339 29.2677 27.3236 28.9708 27.611C28.6739 27.8985 28.2713 28.0601 27.8515 28.0606H8.84228C8.42238 28.0601 8.01992 27.8985 7.723 27.611C7.42608 27.3236 7.2591 26.9339 7.25861 26.5274V14.9939C7.26008 13.7466 7.77259 12.5508 8.68353 11.6688C9.59458 10.7869 10.8297 10.2907 12.1181 10.2894H18.6523C18.8472 10.2894 19.0342 10.2144 19.1721 10.081C19.3099 9.9475 19.3873 9.76658 19.3873 9.57789C19.3873 9.38919 19.3099 9.20818 19.1721 9.0747C19.0342 8.94131 18.8472 8.86636 18.6523 8.86636H12.1181C10.44 8.86817 8.83121 9.51432 7.6446 10.6631C6.45807 11.8118 5.79061 13.3694 5.78871 14.9939V16.9156H4.39906C4.17159 16.9156 3.9456 16.9509 3.72965 17.02V12.1744C4.32278 12.0027 4.84226 11.6492 5.20982 11.1669C5.5774 10.6846 5.77316 10.0999 5.76762 9.50047C5.76762 7.97127 4.52367 6.72705 2.99468 6.72705C1.46571 6.72705 0.221794 7.97127 0.221794 9.50047C0.216257 10.0998 0.41201 10.6846 0.779574 11.1669C1.14714 11.6492 1.6666 12.0027 2.25974 12.1744V22.8879C2.26037 23.4307 2.48337 23.9511 2.87983 24.3349C3.27628 24.7187 3.8138 24.9346 4.37448 24.9352H5.78871V26.5274C5.78963 27.3112 6.11164 28.0626 6.6841 28.6168C7.25655 29.171 8.03276 29.4828 8.84228 29.4836H10.0754C8.76164 30.2977 7.68047 31.4187 6.93131 32.7434C6.18224 34.068 5.78931 35.5538 5.78871 37.0639V39.1334C5.78871 39.2269 5.80772 39.3194 5.84466 39.4058C5.88159 39.4921 5.93572 39.5705 6.00397 39.6366C6.07222 39.7026 6.15324 39.7551 6.24241 39.7909C6.33158 39.8266 6.42715 39.845 6.52366 39.8449H30.1701C30.2667 39.845 30.3622 39.8266 30.4514 39.7909C30.5405 39.7551 30.6216 39.7026 30.6898 39.6366C30.758 39.5705 30.8122 39.4921 30.8491 39.4058C30.8861 39.3194 30.9051 39.2269 30.9051 39.1334V36.9705C30.9045 35.4805 30.5179 34.0145 29.7809 32.7066C29.0438 31.3987 27.9797 30.2906 26.686 29.4836H27.8515C28.661 29.4828 29.4372 29.171 30.0097 28.6168C30.5821 28.0626 30.9041 27.3112 30.9051 26.5274V24.9352H32.3193C32.88 24.9346 33.4174 24.7187 33.8139 24.3349C34.2104 23.9511 34.4333 23.4307 34.434 22.8879V18.9867C34.4333 18.4376 34.2078 17.9111 33.8067 17.5229C33.4057 17.1346 32.8619 16.9162 32.2947 16.9156ZM1.6917 9.50047C1.6917 8.75593 2.2762 8.1501 2.99469 8.1501C3.71318 8.1501 4.29772 8.75593 4.29772 9.50047C4.29772 10.2451 3.71317 10.8509 2.99468 10.8509C2.27619 10.8509 1.6917 10.2451 1.6917 9.50047ZM4.37448 23.5122C4.20352 23.512 4.03962 23.4461 3.91874 23.3292C3.79785 23.2121 3.72984 23.0534 3.72965 22.8879V18.9867C3.72984 18.8149 3.80043 18.6502 3.92593 18.5287C4.05143 18.4072 4.22158 18.3388 4.39906 18.3386H5.78871V23.5122H4.37448ZM21.7018 29.4836C22.4864 29.4831 23.2666 29.5986 24.0152 29.8261L21.9305 32.2752C21.8684 32.3484 21.7902 32.4073 21.7016 32.4478C21.6131 32.4883 21.5164 32.5091 21.4184 32.509H14.659C14.5547 32.5088 14.4518 32.4849 14.3588 32.4392C14.2658 32.3935 14.1852 32.3273 14.1235 32.2459L12.3874 29.9489C13.2523 29.6404 14.1669 29.4829 15.0886 29.4836H21.7018ZM29.4352 36.9705V38.4219H7.25861V37.0639C7.25929 35.759 7.60786 34.4763 8.27049 33.34C8.93303 32.2036 9.88739 31.2521 11.0411 30.5773L12.9371 33.0862C13.1357 33.3479 13.395 33.5609 13.6941 33.7077C13.9931 33.8547 14.3237 33.9315 14.659 33.9321H21.4184C21.7333 33.9326 22.0443 33.8653 22.329 33.7353C22.6137 33.6053 22.8651 33.4156 23.0649 33.1801L25.4231 30.4098C26.6372 31.0557 27.6498 32.0052 28.3556 33.1592C29.0612 34.3132 29.4341 35.6294 29.4352 36.9705ZM32.9641 22.8879C32.9639 23.0534 32.8959 23.2121 32.775 23.3292C32.6542 23.4461 32.4902 23.512 32.3193 23.5122H30.9051V18.3386H32.2947C32.4722 18.3388 32.6423 18.4072 32.7678 18.5287C32.8934 18.6502 32.9639 18.8149 32.9641 18.9867V22.8879Z" fill="black" fill-opacity="0.2"/>
</svg>
