<svg width="468" height="406" viewBox="0 0 468 406" fill="none" xmlns="http://www.w3.org/2000/svg">
    <path d="M30.72 259.42v-15.885c0-5.287 4.286-9.573 9.573-9.573H214.78a9.573 9.573 0 0 0 9.573-9.573v-36.624a9.571 9.571 0 0 1 9.572-9.572H367.9" stroke="#6B93C3" stroke-width="2.328" stroke-linecap="round" stroke-dasharray="9.57 9.57"/>
    <g filter="url(#balwash2aa)">
        <rect x="70.553" y="42.454" width="45.594" height="45.594" rx="6.839" fill="#F8F9FC" shape-rendering="crispEdges"/>
        <path d="M93.35 58.643v-6.608h-6.608" stroke="#004498" stroke-width="1.858" stroke-linecap="round" stroke-linejoin="round"/>
        <path d="M103.262 58.643H83.439a3.304 3.304 0 0 0-3.304 3.304v13.215a3.304 3.304 0 0 0 3.303 3.304h19.824a3.304 3.304 0 0 0 3.304-3.303V61.946a3.304 3.304 0 0 0-3.304-3.304zM76.83 68.554h3.304M106.564 68.554h3.304M98.305 66.902v3.304M88.394 66.902v3.304" stroke="#004498" stroke-width="1.858" stroke-linecap="round" stroke-linejoin="round"/>
    </g>
    <g filter="url(#b32uur7mcb)">
        <rect x="418.053" y="40.272" width="43.314" height="43.314" rx="6.839" fill="#F8F9FC" shape-rendering="crispEdges"/>
        <path d="M432.871 58.51v15.957M442.471 53.116l-1.265 5.166h7.373a2.545 2.545 0 0 1 2.023 1.003 2.49 2.49 0 0 1 .405 2.206l-2.947 10.031c-.153.52-.472.978-.91 1.304-.438.326-.97.502-1.518.502h-17.071a2.542 2.542 0 0 1-1.789-.735 2.498 2.498 0 0 1-.741-1.773V60.79c0-.666.267-1.304.741-1.774a2.542 2.542 0 0 1 1.789-.734h3.49c.47 0 .932-.131 1.331-.377.4-.246.723-.597.932-1.015l4.363-8.639a3.98 3.98 0 0 1 3.083 1.524 3.894 3.894 0 0 1 .711 3.341z" stroke="#004498" stroke-width="1.934" stroke-linecap="round" stroke-linejoin="round"/>
    </g>
    <g filter="url(#53ix3z3qdc)">
        <rect x="333.705" y="3.797" width="36.475" height="36.475" rx="4.559" fill="#F8F9FC" shape-rendering="crispEdges"/>
        <path d="M362.154 27.114v3.075a2.059 2.059 0 0 1-.666 1.519 2.046 2.046 0 0 1-1.573.53 20.35 20.35 0 0 1-8.863-3.146 20.003 20.003 0 0 1-6.162-6.15 20.253 20.253 0 0 1-3.153-8.886 2.04 2.04 0 0 1 .529-1.567 2.05 2.05 0 0 1 1.515-.668h3.081a2.056 2.056 0 0 1 2.054 1.763c.13.984.371 1.95.719 2.88a2.047 2.047 0 0 1-.463 2.163l-1.304 1.302a16.417 16.417 0 0 0 6.162 6.15l1.304-1.302a2.059 2.059 0 0 1 2.167-.461c.932.347 1.9.588 2.886.717a2.053 2.053 0 0 1 1.767 2.08zM354.131 11.821a9 9 0 0 1 5.413 2.59 9.12 9.12 0 0 1 2.611 5.435M354.131 16.198a5.56 5.56 0 0 1 2.87 1.524 5.444 5.444 0 0 1 1.507 2.853" stroke="#004498" stroke-width="1.622" stroke-linecap="round" stroke-linejoin="round"/>
    </g>
    <g filter="url(#02pxuy3axd)">
        <rect x="55.014" y="136.588" width="29.636" height="29.636" rx="4.559" fill="#F8F9FC" shape-rendering="crispEdges"/>
        <path d="M78.723 154.589a1.904 1.904 0 0 1-1.903 1.903H65.405l-3.805 3.805v-15.22a1.904 1.904 0 0 1 1.902-1.903H76.82a1.906 1.906 0 0 1 1.903 1.903v9.512zM71.478 147.784h-5.927M74.771 151.736h-9.22" stroke="#004498" stroke-width="1.482" stroke-linecap="round" stroke-linejoin="round"/>
    </g>
    <g filter="url(#2xg9dnkyfe)">
        <rect x="312.047" y="69.908" width="47.873" height="47.873" rx="6.839" fill="#F8F9FC" shape-rendering="crispEdges"/>
        <path d="M345.863 80.166h-18.617a2.66 2.66 0 0 0-2.66 2.66v18.617a2.66 2.66 0 0 0 2.66 2.66h18.617a2.66 2.66 0 0 0 2.66-2.66V82.826a2.66 2.66 0 0 0-2.66-2.66z" stroke="#004498" stroke-width="2.027" stroke-linecap="round" stroke-linejoin="round"/>
        <path d="M331.994 91.565a2.85 2.85 0 1 0 0-5.7 2.85 2.85 0 0 0 0 5.7zM348.523 96.325l-4.221-4.001a2.815 2.815 0 0 0-1.934-.76c-.726 0-1.421.274-1.934.76l-12.428 11.779" stroke="#004498" stroke-width="2.027" stroke-linecap="round" stroke-linejoin="round"/>
    </g>
    <g filter="url(#1xruer5lef)">
        <rect x="375.566" y="155.95" width="43.314" height="43.314" rx="6.839" fill="#F8F9FC" shape-rendering="crispEdges"/>
        <path d="M397.225 190.499c7.12 0 12.891-5.772 12.891-12.891 0-7.12-5.771-12.891-12.891-12.891-7.119 0-12.891 5.771-12.891 12.891 0 7.119 5.772 12.891 12.891 12.891z" stroke="#004498" stroke-width="2.03" stroke-linecap="round" stroke-linejoin="round"/>
        <path d="m393.359 177.607 2.579 2.578 5.156-5.156" stroke="#004498" stroke-width="2.03" stroke-linecap="round" stroke-linejoin="round"/>
    </g>
    <g filter="url(#hq1lq7yabg)">
        <rect x="6" y="258.446" width="45.594" height="45.594" rx="6.839" fill="#F8F9FC" shape-rendering="crispEdges"/>
        <path d="m42.7 273.255-26.306 7.432-1.377-3.567c-.459-1.636.459-3.271 1.988-3.717l20.648-5.945c1.682-.446 3.364.446 3.823 1.932l1.224 3.865zM21.57 271.791l4.448 5.56M30.467 269.566l4.448 6.673M16.01 280.687h27.8v12.455c0 .826-.325 1.618-.904 2.202a3.076 3.076 0 0 1-2.184.912H19.099c-.82 0-1.605-.328-2.184-.912a3.127 3.127 0 0 1-.905-2.202v-12.455z" stroke="#004498" stroke-width="1.704" stroke-linecap="round" stroke-linejoin="round"/>
    </g>
    <path d="M306.348 94.984H166.197a9.119 9.119 0 0 0-9.119 9.119v37.615a9.12 9.12 0 0 1-9.119 9.119H93.197M364.48 98.404h15.29a9.12 9.12 0 0 0 9.119-9.12V73.328a9.118 9.118 0 0 1 9.118-9.118h16.626M329.145 23.174h-91.18a9.12 9.12 0 0 0-9.119 9.12V56.23a9.118 9.118 0 0 1-9.119 9.119h-99.173" stroke="#6B93C3" stroke-width="2.28" stroke-linecap="round" stroke-dasharray="9.57 9.57"/>
    <path d="M422.613 179.333h12.085a9.572 9.572 0 0 1 9.572 9.572v15.05c0 5.287-4.286 9.573-9.572 9.573h-2.512c-5.287 0-9.573 4.286-9.573 9.572v30.322" stroke="#6B93C3" stroke-width="2.28" stroke-linecap="round" stroke-dasharray="9.12 9.12"/>
    <path d="M423.966 206.881c.466-.987 1.871-.987 2.338 0l1.475 3.117c.23.487.738.78 1.274.737l3.438-.282c1.088-.089 1.79 1.127 1.169 2.025l-1.963 2.836a1.295 1.295 0 0 0 0 1.472l1.963 2.836c.621.898-.081 2.114-1.169 2.025l-3.438-.282a1.292 1.292 0 0 0-1.274.736l-1.475 3.118c-.467.987-1.872.987-2.338 0l-1.475-3.118a1.293 1.293 0 0 0-1.275-.736l-3.437.282c-1.088.089-1.791-1.127-1.169-2.025l1.962-2.836a1.291 1.291 0 0 0 0-1.472l-1.962-2.836c-.622-.898.081-2.114 1.169-2.025l3.437.282a1.295 1.295 0 0 0 1.275-.737l1.475-3.117z" fill="#6B93C3"/>
    <g filter="url(#va4su4idah)">
        <rect x="399.816" y="257.981" width="47.873" height="47.873" rx="6.839" fill="#F8F9FC" shape-rendering="crispEdges"/>
        <path d="M414.775 275.934a8.976 8.976 0 0 1 17.953 0c0 10.472 4.488 13.464 4.488 13.464h-26.929s4.488-2.992 4.488-13.464zM421.209 295.382a2.895 2.895 0 0 0 2.543 1.504 2.901 2.901 0 0 0 2.544-1.504M411.783 266.958c-1.795 2.543-2.992 5.535-2.992 8.976M438.713 275.934c0-3.441-1.197-6.433-2.992-8.976" stroke="#004498" stroke-width="2.244" stroke-linecap="round" stroke-linejoin="round"/>
    </g>
    <path d="M277.465 81.407h-7.836a.229.229 0 0 0-.169.077.28.28 0 0 0-.07.188v9.839c0 .07.025.138.07.188.045.05.106.077.169.077h7.836c.333 0 .653-.147.889-.409.236-.261.368-.616.368-.987v-7.55a1.511 1.511 0 0 0-.088-.542 1.428 1.428 0 0 0-.271-.463 1.262 1.262 0 0 0-.411-.31 1.15 1.15 0 0 0-.487-.108z" fill="#002029"/>
    <path d="M262.131 68.963v35.256a12.916 12.916 0 0 0 5.162-1.062 13.43 13.43 0 0 0 4.377-3.055 14.154 14.154 0 0 0 2.922-4.58 14.644 14.644 0 0 0 1.019-5.402v-7.057a14.613 14.613 0 0 0-1.025-5.4 14.116 14.116 0 0 0-2.927-4.574 13.366 13.366 0 0 0-4.37-3.061 12.87 12.87 0 0 0-5.158-1.065z" fill="#00306A"/>
    <path d="M262.131 68.963v35.256a10.57 10.57 0 0 0 3.111-.464V69.428a10.577 10.577 0 0 0-3.111-.465z" fill="#002029"/>
    <path d="M252.765 47.188h-75.63c-5.172 0-9.365 4.22-9.365 9.428v58.914c0 5.207 4.193 9.428 9.365 9.428h75.63c5.173 0 9.366-4.221 9.366-9.428V56.616c0-5.207-4.193-9.428-9.366-9.428z" fill="#A5C2FB"/>
    <path d="M262.126 103.183v10.831a9.55 9.55 0 0 1-2.6 6.859 9.744 9.744 0 0 1-6.729 3.048h-75.694a9.744 9.744 0 0 1-6.729-3.048 9.55 9.55 0 0 1-2.599-6.859v-10.831h94.351z" fill="#6B93C3"/>
    <path d="M190.583 86.591c-2.2 0-4.31-.912-5.866-2.536-1.556-1.625-2.43-3.828-2.43-6.125v-4.453c0-2.297.874-4.5 2.43-6.124 1.556-1.625 3.666-2.537 5.866-2.537 2.2 0 4.31.912 5.865 2.537 1.556 1.624 2.43 3.827 2.43 6.124v4.453c0 2.297-.874 4.5-2.43 6.125-1.555 1.624-3.665 2.536-5.865 2.536z" fill="#002029"/>
    <path d="M190.583 84.518c-1.649-.004-3.23-.698-4.396-1.93s-1.822-2.902-1.826-4.645v-4.479c0-1.743.656-3.416 1.823-4.649 1.166-1.233 2.749-1.925 4.399-1.925s3.233.692 4.399 1.925c1.167 1.233 1.823 2.906 1.823 4.65v4.478c-.004 1.743-.66 3.413-1.826 4.645-1.167 1.232-2.747 1.926-4.396 1.93z" fill="#00306A"/>
    <path d="M194.73 73.118v4.202a4.14 4.14 0 0 1-.88 2.488 4.18 4.18 0 0 1-4.848 1.296 4.163 4.163 0 0 1-2.012-1.714 4.077 4.077 0 0 1-.554-2.07v-4.202a4.137 4.137 0 0 1 .7-2.306 4.165 4.165 0 0 1 4.273-1.77 4.176 4.176 0 0 1 2.689 1.813c.428.677.648 1.463.632 2.263z" fill="#fff"/>
    <path d="M195.765 73.483v4.543a4.5 4.5 0 0 1-.943 2.69 4.445 4.445 0 0 1-5.196 1.401 4.473 4.473 0 0 1-2.155-1.854l7.617-9.226c.458.732.694 1.582.677 2.446z" fill="#DEDBDB"/>
    <path d="M239.319 86.591c-2.199-.003-4.307-.917-5.862-2.54-1.555-1.624-2.43-3.825-2.434-6.12v-4.454c0-2.297.874-4.5 2.43-6.124 1.556-1.625 3.666-2.537 5.866-2.537 2.2 0 4.31.912 5.866 2.537 1.555 1.624 2.429 3.827 2.429 6.124v4.453c0 2.297-.874 4.5-2.429 6.125-1.556 1.624-3.666 2.536-5.866 2.536z" fill="#002029"/>
    <path d="M239.313 84.518a6.106 6.106 0 0 1-4.391-1.899 6.595 6.595 0 0 1-1.818-4.566V73.65a6.702 6.702 0 0 1 .389-2.563 6.503 6.503 0 0 1 1.328-2.197 6.226 6.226 0 0 1 2.052-1.479 6.02 6.02 0 0 1 4.893 0 6.226 6.226 0 0 1 2.052 1.479 6.5 6.5 0 0 1 1.327 2.197c.295.818.428 1.69.389 2.563v4.404a6.593 6.593 0 0 1-1.822 4.571 6.105 6.105 0 0 1-4.399 1.894z" fill="#00306A"/>
    <path d="M243.467 73.125v4.215a4.176 4.176 0 0 1-3.095 3.924 4.183 4.183 0 0 1-4.645-1.849 4.222 4.222 0 0 1-.555-2.075v-4.215a4.171 4.171 0 0 1 2.578-3.843 4.183 4.183 0 0 1 4.543.89c.205.208.387.437.542.684.426.679.646 1.467.632 2.269z" fill="#fff"/>
    <path d="M243.467 73.49v4.557a4.54 4.54 0 0 1-.96 2.676 4.48 4.48 0 0 1-2.357 1.566 4.444 4.444 0 0 1-2.818-.166 4.488 4.488 0 0 1-2.16-1.832l7.617-9.254c.458.734.693 1.587.678 2.453z" fill="#DEDBDB"/>
    <path d="M216.505 23.338h-3.11v22.813h3.11V23.338z" fill="#00306A"/>
    <path d="M227.92 123.921h-25.941c-.568 0-1.028.441-1.028.985v5.289c0 .544.46.985 1.028.985h25.941c.568 0 1.029-.441 1.029-.985v-5.289c0-.544-.461-.985-1.029-.985z" fill="#002029"/>
    <path d="M227.92 132.217h-25.941c-.568 0-1.028.441-1.028.984v5.29c0 .544.46.984 1.028.984h25.941c.568 0 1.029-.44 1.029-.984v-5.29c0-.543-.461-.984-1.029-.984z" fill="#00306A"/>
    <path d="M262.001 138.438h-94.102c-7.517 0-13.61 6.07-13.61 13.557v89.024c0 7.487 6.093 13.557 13.61 13.557h94.102c7.517 0 13.61-6.07 13.61-13.557v-89.024c0-7.487-6.093-13.557-13.61-13.557z" fill="#A5C2FB"/>
    <path d="M245.541 138.438a32.893 32.893 0 0 1-3.909 4.104c-4.792 4.277-13.292 9.377-26.571 9.377-13.278 0-21.497-5.113-26.035-9.403a30.928 30.928 0 0 1-3.628-4.078h3.427a27.356 27.356 0 0 0 2.142 2.245c6.077 5.698 14.176 8.579 24.094 8.579 9.919 0 18.232-2.895 24.684-8.606a27.531 27.531 0 0 0 2.275-2.218h3.521zM275.611 230.418v2.753h-38.15l-8.734 8.961h-23.536l-9.43-9.69h-41.472v-2.753h42.584l9.417 9.69h21.339l8.72-8.961h39.262z" fill="#6B93C3"/>
    <path d="M267.316 147.771a2.073 2.073 0 1 1-4.146-.001 2.073 2.073 0 0 1 4.146.001zM267.316 244.206a2.073 2.073 0 0 1-2.479 2.034 2.075 2.075 0 1 1 2.479-2.034zM165.696 147.821a2.075 2.075 0 0 1-3.54 1.416 2.078 2.078 0 0 1-.459-2.237c.151-.377.409-.701.743-.932a2.062 2.062 0 0 1 1.953-.222 2.066 2.066 0 0 1 1.303 1.975zM165.697 244.218a2.08 2.08 0 0 1-1.289 1.908 2.077 2.077 0 0 1-2.256-.458 2.07 2.07 0 0 1-.444-2.258 2.07 2.07 0 0 1 2.711-1.119 2.064 2.064 0 0 1 1.278 1.927z" fill="#002029"/>
    <path d="M255.528 172.657h-77.007c-4.219 0-7.64 3.396-7.64 7.586v33.566c0 4.189 3.421 7.585 7.64 7.585h77.007c4.22 0 7.64-3.396 7.64-7.585v-33.566c0-4.19-3.42-7.586-7.64-7.586z" fill="#00306A"/>
    <path d="M253.692 175.768h-74.369c-.653 0-1.182.506-1.182 1.129v8.111c0 .624.529 1.129 1.182 1.129h74.369c.653 0 1.182-.505 1.182-1.129v-8.111c0-.623-.529-1.129-1.182-1.129z" fill="#6B93C3"/>
    <path d="M242.956 182.99a3.486 3.486 0 0 1-1.456-.306 3.057 3.057 0 0 1-1.128-.867 1.824 1.824 0 0 0-.654-.483 2.064 2.064 0 0 0-1.663 0 1.807 1.807 0 0 0-.654.483c-.285.373-.67.678-1.121.889-.45.211-.953.321-1.463.321a3.46 3.46 0 0 1-1.464-.321 3.016 3.016 0 0 1-1.121-.889 1.807 1.807 0 0 0-.654-.483 2.063 2.063 0 0 0-1.662 0 1.807 1.807 0 0 0-.654.483 3.06 3.06 0 0 1-1.129.867c-.45.204-.95.309-1.456.306a3.486 3.486 0 0 1-1.456-.306 3.057 3.057 0 0 1-1.128-.867 1.82 1.82 0 0 0-.655-.483 2.063 2.063 0 0 0-1.662 0 1.807 1.807 0 0 0-.654.483c-.285.373-.67.678-1.121.889a3.46 3.46 0 0 1-1.464.321 3.46 3.46 0 0 1-1.463-.321 3.008 3.008 0 0 1-1.121-.889 1.807 1.807 0 0 0-.654-.483 2.063 2.063 0 0 0-1.662 0 1.82 1.82 0 0 0-.655.483 3.057 3.057 0 0 1-1.128.867c-.45.204-.95.309-1.456.306a3.486 3.486 0 0 1-1.456-.306 3.049 3.049 0 0 1-1.128-.867 1.82 1.82 0 0 0-.655-.483 2.06 2.06 0 0 0-1.662 0 1.807 1.807 0 0 0-.654.483 3.057 3.057 0 0 1-1.128.867c-.451.204-.95.309-1.457.306a3.486 3.486 0 0 1-1.456-.306 3.057 3.057 0 0 1-1.128-.867 1.71 1.71 0 0 0-.64-.511 1.948 1.948 0 0 0-.839-.181 1.968 1.968 0 0 0-.846.178 1.703 1.703 0 0 0-.646.514c-.285.373-.67.678-1.121.889-.45.211-.953.321-1.463.321a3.46 3.46 0 0 1-1.464-.321 3.024 3.024 0 0 1-1.121-.889 1.677 1.677 0 0 0-.639-.512 1.936 1.936 0 0 0-.839-.18 1.97 1.97 0 0 0-.847.178c-.26.121-.482.298-.645.514-.29.366-.677.664-1.128.868-.45.204-.95.309-1.457.305a3.496 3.496 0 0 1-1.296-.25 3.145 3.145 0 0 1-1.062-.7h-1.705a.714.714 0 0 1-.471-.172.552.552 0 0 1-.195-.414c0-.156.07-.305.195-.415a.714.714 0 0 1 .471-.172h2.038c.109 0 .215.023.31.068a.646.646 0 0 1 .237.19c.162.214.382.389.64.51.258.12.546.183.838.182.294.001.584-.062.844-.182.26-.121.483-.296.648-.51a3.002 3.002 0 0 1 1.126-.87 3.436 3.436 0 0 1 1.459-.303c.506-.005 1.007.1 1.458.304.45.204.837.503 1.126.869.171.204.394.369.651.483.256.115.54.174.828.174.287 0 .571-.059.828-.174.257-.114.48-.279.65-.483a3.057 3.057 0 0 1 1.135-.869 3.486 3.486 0 0 1 1.463-.304 3.471 3.471 0 0 1 1.457.305c.451.205.838.503 1.128.868.171.204.393.369.65.483.257.115.541.174.828.174.288 0 .572-.059.828-.174.257-.114.48-.279.651-.483a3.053 3.053 0 0 1 1.134-.869 3.49 3.49 0 0 1 1.464-.304 3.475 3.475 0 0 1 1.457.305c.45.205.837.503 1.127.868.163.214.383.389.641.51.258.12.546.183.838.182.292.001.58-.062.838-.182a1.72 1.72 0 0 0 .641-.51 3.042 3.042 0 0 1 1.124-.888 3.474 3.474 0 0 1 1.467-.321c.511 0 1.014.11 1.466.321.452.211.838.516 1.125.888a1.8 1.8 0 0 0 .65.483c.257.115.541.174.828.174.288 0 .572-.059.829-.174a1.8 1.8 0 0 0 .65-.483 3.037 3.037 0 0 1 1.125-.888 3.473 3.473 0 0 1 1.466-.321c.512 0 1.015.11 1.467.321.451.211.837.516 1.124.888.171.204.394.369.651.483.257.115.54.174.828.174.288 0 .571-.059.828-.174.257-.114.48-.279.651-.483.29-.365.677-.663 1.127-.868.45-.204.951-.309 1.457-.305a3.471 3.471 0 0 1 1.457.305c.451.205.838.503 1.128.868.171.204.393.369.65.483.257.115.541.174.828.174.288 0 .572-.059.828-.174.257-.114.48-.279.651-.483a3.045 3.045 0 0 1 1.134-.869 3.49 3.49 0 0 1 1.464-.304 3.478 3.478 0 0 1 1.457.305c.45.205.837.503 1.127.868.171.204.394.369.651.483.257.115.54.174.828.174.288 0 .571-.059.828-.174.257-.114.48-.279.651-.483a3.045 3.045 0 0 1 1.134-.869 3.486 3.486 0 0 1 1.463-.304c.447-.001.888.082 1.295.244.407.162.77.399 1.063.695h1.719c.176 0 .346.061.471.171.125.11.195.259.195.415a.567.567 0 0 1-.199.411.724.724 0 0 1-.467.175h-2.052a.76.76 0 0 1-.306-.065.669.669 0 0 1-.24-.181 1.685 1.685 0 0 0-.639-.512 1.937 1.937 0 0 0-.84-.18 1.936 1.936 0 0 0-.839.18 1.677 1.677 0 0 0-.639.512 3.103 3.103 0 0 1-1.132.861 3.538 3.538 0 0 1-1.453.312z" fill="#fff"/>
    <path d="M239.723 209.987h-58.874c-.441 0-.864.163-1.177.453-.313.29-.491.685-.494 1.097 0 .414.176.811.489 1.104a1.73 1.73 0 0 0 1.182.457h58.874c.443 0 .868-.164 1.182-.457.313-.293.489-.69.489-1.104a1.512 1.512 0 0 0-.494-1.097 1.734 1.734 0 0 0-1.177-.453zM239.736 200.655h-58.9c-.916 0-1.658.693-1.658 1.549v.012c0 .856.742 1.55 1.658 1.55h58.9c.916 0 1.658-.694 1.658-1.55v-.012c0-.856-.742-1.549-1.658-1.549zM239.723 192.359h-58.874a1.73 1.73 0 0 0-1.177.455 1.52 1.52 0 0 0-.494 1.101c.003.413.181.809.494 1.1.313.292.736.455 1.177.455h58.874c.441 0 .864-.163 1.177-.455.313-.291.491-.687.494-1.1a1.52 1.52 0 0 0-.494-1.101 1.73 1.73 0 0 0-1.177-.455zM252.282 209.987c-.413 0-.808.163-1.1.454a1.546 1.546 0 0 0-.455 1.096 1.541 1.541 0 0 0 .957 1.442 1.553 1.553 0 0 0 1.196 0 1.552 1.552 0 0 0 .957-1.442 1.55 1.55 0 0 0-1.555-1.55zM252.282 200.655c-.413 0-.808.163-1.1.454-.292.29-.455.684-.455 1.095a1.56 1.56 0 0 0 1.555 1.562 1.56 1.56 0 0 0 1.555-1.562c0-.411-.163-.805-.455-1.095a1.559 1.559 0 0 0-1.1-.454zM252.307 192.359c-.419 0-.821.166-1.117.46a1.557 1.557 0 0 0-.463 1.108c.006.403.168.788.453 1.076a1.59 1.59 0 0 0 1.077.467c.419 0 .821-.165 1.117-.459a1.56 1.56 0 0 0 .463-1.109 1.558 1.558 0 0 0-.453-1.075 1.59 1.59 0 0 0-1.077-.468z" fill="#6B93C3"/>
    <path d="M177.103 116.663a2.073 2.073 0 1 1-4.146-.001 2.073 2.073 0 0 1 4.146.001zM177.103 53.41a2.073 2.073 0 1 1-4.147-.002 2.073 2.073 0 0 1 4.147.001zM256.947 116.675a2.074 2.074 0 1 1-4.148-.025 2.074 2.074 0 0 1 4.148.025zM256.947 53.422a2.082 2.082 0 0 1-1.289 1.907 2.073 2.073 0 1 1 1.289-1.907zM151.401 81.407h7.835c.063 0 .124.028.169.077a.28.28 0 0 1 .07.188v9.839a.28.28 0 0 1-.07.188.229.229 0 0 1-.169.077h-7.835a1.2 1.2 0 0 1-.89-.409 1.476 1.476 0 0 1-.368-.987v-7.55c-.004-.185.027-.37.088-.542.062-.173.154-.33.271-.463.117-.132.257-.237.411-.31.155-.071.32-.108.488-.108z" fill="#002029"/>
    <path d="M166.734 68.963v35.256a12.916 12.916 0 0 1-5.162-1.062 13.43 13.43 0 0 1-4.377-3.055 14.154 14.154 0 0 1-2.922-4.58 14.644 14.644 0 0 1-1.019-5.402v-7.057a14.633 14.633 0 0 1 1.025-5.4 14.102 14.102 0 0 1 2.928-4.574 13.372 13.372 0 0 1 4.369-3.061 12.87 12.87 0 0 1 5.158-1.065z" fill="#00306A"/>
    <path d="M166.734 68.963v35.256a10.575 10.575 0 0 1-3.111-.464V69.428a10.582 10.582 0 0 1 3.111-.465z" fill="#002029"/>
    <path d="M214.951 28.523a7.777 7.777 0 1 0 0-15.554 7.777 7.777 0 0 0 0 15.554z" fill="#00306A"/>
    <path d="M218.982 24.78a5.704 5.704 0 0 1-9.734-4.034 5.699 5.699 0 0 1 3.52-5.269 5.7 5.7 0 0 1 7.886 5.269 5.701 5.701 0 0 1-1.672 4.035z" fill="#A5C2FB"/>
    <path d="M219.062 24.847a5.473 5.473 0 0 1-7.74 0l7.74-7.73a5.489 5.489 0 0 1 0 7.73z" fill="#6B93C3"/>
    <path d="M214.491 115.626c-15.394 0-21.9-7.696-24.413-12.276a4.307 4.307 0 0 1 .074-4.274 4.317 4.317 0 0 1 3.721-2.115h41.13a4.347 4.347 0 0 1 3.703 2.109 4.328 4.328 0 0 1 .106 4.253c-2.46 4.594-8.927 12.303-24.321 12.303z" fill="#00306A"/>
    <path d="M237.242 101.191a2.11 2.11 0 0 1-.265 1.171 19.412 19.412 0 0 1-1.692 2.629c-3.107 4.011-9.189 8.561-20.798 8.561-11.609 0-17.731-4.55-20.878-8.561a18.62 18.62 0 0 1-1.719-2.629 2.143 2.143 0 0 1-.264-1.184 2.243 2.243 0 0 1 .694-1.518 2.266 2.266 0 0 1 1.554-.625h41.12c.582.003 1.14.228 1.558.63.419.402.666.948.69 1.526z" fill="#fff"/>
    <path d="M237.246 101.109h-45.625a2.143 2.143 0 0 1 .694-1.47 2.309 2.309 0 0 1 1.554-.604h41.129c.58.002 1.136.219 1.555.605.418.386.666.912.693 1.469z" fill="#DEDBDB"/>
    <path d="M295.855 268.056a3.829 3.829 0 0 1-1.594-.354 3.668 3.668 0 0 1-1.138-.852 3.594 3.594 0 0 1-.913-2.613c.029-.474.153-.937.363-1.363l6.165-12.489a3.639 3.639 0 0 1 2.095-1.833 3.698 3.698 0 0 1 2.794.166 3.629 3.629 0 0 1 1.856 2.069 3.566 3.566 0 0 1-.169 2.759l-6.178 12.489a3.593 3.593 0 0 1-1.345 1.479 3.668 3.668 0 0 1-1.936.542z" fill="#00306A"/>
    <path d="M311.384 277.388a3.732 3.732 0 0 1-2.299-.789 3.608 3.608 0 0 1-1.294-2.022l-4.09-17.656a3.554 3.554 0 0 1 .476-2.729 3.69 3.69 0 0 1 2.306-1.6 3.757 3.757 0 0 1 2.786.466 3.624 3.624 0 0 1 1.633 2.26l4.022 17.656a3.546 3.546 0 0 1-.475 2.724 3.684 3.684 0 0 1-2.3 1.599 3.579 3.579 0 0 1-.765.091zM321.872 277.388a3.462 3.462 0 0 1-2.17-.77 3.681 3.681 0 0 1-1.261-1.985l-4.395-17.768a3.77 3.77 0 0 1 .481-2.658 3.543 3.543 0 0 1 2.112-1.591 3.427 3.427 0 0 1 2.59.346 3.632 3.632 0 0 1 1.653 2.093l4.395 17.768a3.795 3.795 0 0 1-.39 2.783 3.622 3.622 0 0 1-.928 1.064c-.375.287-.8.495-1.252.612-.273.07-.554.106-.835.106zM331.009 272.204a3.654 3.654 0 0 1-3.502-2.653l-5.092-17.559a3.668 3.668 0 0 1 1.256-3.884 3.692 3.692 0 0 1 2.705-.766 3.67 3.67 0 0 1 3.107 2.647l5.093 17.546a3.661 3.661 0 0 1-2.48 4.523c-.354.098-.72.147-1.087.146z" fill="#00306A"/>
    <path d="m274.576 155.027 6.489 24.57 1.964 7.438 4.876 18.468c.149.572.455 1.093.884 1.504.43.412.967.698 1.551.828s1.194.098 1.761-.092a3.253 3.253 0 0 0 1.453-.985c5.644-6.819 12.688-8.599 21.131-5.341a3.32 3.32 0 0 0 1.767.185 3.292 3.292 0 0 0 1.604-.755c.453-.393.787-.902.964-1.471a3.17 3.17 0 0 0 .041-1.751l-3.468-13.3-1.734-6.597a31.997 31.997 0 0 0-2.235-5.956c-3.264-6.579-8.738-11.841-15.491-14.893a32.594 32.594 0 0 0-21.557-1.852zM318.598 262.369c4.081-1.043 7.577-3.627 9.73-7.191a15.502 15.502 0 0 0 1.769-11.84l-4.732-18.7a2.904 2.904 0 0 0-.839-1.411 3.006 3.006 0 0 0-3.135-.589c-.525.205-.98.555-1.31 1.006-5.675 7.62-12.846 9.516-21.568 5.579a3.013 3.013 0 0 0-1.641-.247 3.011 3.011 0 0 0-1.522.654 2.935 2.935 0 0 0-.928 1.354 2.879 2.879 0 0 0-.047 1.632l4.651 18.276a15.627 15.627 0 0 0 2.681 5.601 15.907 15.907 0 0 0 4.669 4.154 16.22 16.22 0 0 0 5.936 2.065c2.098.296 4.234.179 6.286-.343z" fill="#A5C2FB"/>
    <path d="M311.162 231.501c8.559-2.353 13.561-11.192 11.174-19.741-2.388-8.55-11.262-13.573-19.821-11.219-8.559 2.354-13.562 11.192-11.174 19.742 2.388 8.549 11.262 13.572 19.821 11.218z" fill="#00306A"/>
    <path d="M308.426 224.222a8.802 8.802 0 0 0 4.363-2.672 8.813 8.813 0 0 0-2.124-13.46 8.811 8.811 0 0 0-12.787 4.705 8.816 8.816 0 0 0-.206 5.113 8.826 8.826 0 0 0 10.754 6.314z" fill="#6B93C3"/>
    <path d="M273.004 161.663a16.077 16.077 0 0 0 13.343 11.877 16.083 16.083 0 0 0 16.084-7.777 16.063 16.063 0 0 0-1.033-17.829 16.073 16.073 0 0 0-7.548-5.492 16.079 16.079 0 0 0-9.328-.376 16.147 16.147 0 0 0-9.795 7.428 16.134 16.134 0 0 0-1.723 12.169z" fill="#00306A"/>
    <path d="M290.797 166.154a8.811 8.811 0 0 0 6.507-7.319 8.81 8.81 0 0 0-4.268-8.814 8.819 8.819 0 0 0-9.776.569 8.816 8.816 0 0 0-3.217 9.249 8.826 8.826 0 0 0 10.754 6.315z" fill="#6B93C3"/>
    <path d="M134.047 268.056a3.83 3.83 0 0 0 1.595-.354 3.664 3.664 0 0 0 1.137-.852 3.578 3.578 0 0 0 .55-3.976l-6.165-12.489a3.636 3.636 0 0 0-2.095-1.833 3.698 3.698 0 0 0-2.794.166 3.632 3.632 0 0 0-1.856 2.069 3.57 3.57 0 0 0 .169 2.759l6.178 12.489a3.6 3.6 0 0 0 1.345 1.479 3.668 3.668 0 0 0 1.936.542z" fill="#00306A"/>
    <path d="M118.518 277.388a3.73 3.73 0 0 0 2.299-.789 3.61 3.61 0 0 0 1.295-2.022l4.089-17.656a3.554 3.554 0 0 0-.476-2.729 3.688 3.688 0 0 0-2.306-1.6 3.754 3.754 0 0 0-2.785.466 3.62 3.62 0 0 0-1.633 2.26l-4.023 17.656a3.555 3.555 0 0 0 .475 2.724 3.684 3.684 0 0 0 2.301 1.599c.25.058.507.088.764.091zM108.031 277.388c.786 0 1.549-.271 2.17-.77a3.687 3.687 0 0 0 1.261-1.985l4.394-17.768a3.77 3.77 0 0 0-.481-2.658 3.54 3.54 0 0 0-2.112-1.591 3.424 3.424 0 0 0-2.589.346 3.634 3.634 0 0 0-1.654 2.093l-4.394 17.768a3.775 3.775 0 0 0 .389 2.783c.239.415.555.776.929 1.064a3.49 3.49 0 0 0 1.252.612c.273.07.553.106.835.106zM98.894 272.204a3.65 3.65 0 0 0 3.501-2.653l5.093-17.559a3.687 3.687 0 0 0-.327-2.793 3.688 3.688 0 0 0-3.635-1.857 3.676 3.676 0 0 0-3.107 2.647l-5.093 17.546a3.662 3.662 0 0 0 2.48 4.523c.354.098.72.147 1.088.146z" fill="#00306A"/>
    <path d="m155.326 155.027-6.488 24.57-1.964 7.438-4.877 18.468a3.185 3.185 0 0 1-.884 1.504 3.291 3.291 0 0 1-3.311.736 3.256 3.256 0 0 1-1.454-.985c-5.644-6.819-12.687-8.599-21.131-5.341a3.32 3.32 0 0 1-1.767.185 3.284 3.284 0 0 1-1.603-.755 3.205 3.205 0 0 1-.965-1.471 3.178 3.178 0 0 1-.04-1.751l3.467-13.3 1.734-6.597a32.068 32.068 0 0 1 2.235-5.956c3.265-6.579 8.738-11.841 15.491-14.893a32.594 32.594 0 0 1 21.557-1.852zM111.304 262.369c-4.08-1.043-7.577-3.627-9.73-7.191a15.502 15.502 0 0 1-1.768-11.84l4.731-18.7a2.906 2.906 0 0 1 .84-1.411 3.006 3.006 0 0 1 3.134-.589c.525.205.98.555 1.31 1.006 5.675 7.62 12.847 9.516 21.568 5.579a3.016 3.016 0 0 1 3.163.407c.434.356.756.825.928 1.354.173.529.189 1.095.047 1.632l-4.65 18.276a15.643 15.643 0 0 1-2.681 5.601 15.932 15.932 0 0 1-4.669 4.154 16.226 16.226 0 0 1-5.936 2.065 16.283 16.283 0 0 1-6.287-.343z" fill="#A5C2FB"/>
    <path d="M118.74 231.501c-8.558-2.353-13.561-11.192-11.173-19.741 2.388-8.55 11.262-13.573 19.821-11.219 8.558 2.354 13.561 11.192 11.173 19.742-2.388 8.549-11.262 13.572-19.821 11.218z" fill="#00306A"/>
    <path d="M121.476 224.222a8.807 8.807 0 0 1-4.363-2.672 8.821 8.821 0 0 1 2.125-13.46 8.81 8.81 0 0 1 12.786 4.705 8.816 8.816 0 0 1 .207 5.113 8.83 8.83 0 0 1-10.755 6.314z" fill="#6B93C3"/>
    <path d="M156.898 161.663a16.077 16.077 0 0 1-13.343 11.877 16.083 16.083 0 0 1-16.084-7.777 16.063 16.063 0 0 1 1.034-17.829 16.08 16.08 0 0 1 16.875-5.868 16.144 16.144 0 0 1 9.795 7.428 16.13 16.13 0 0 1 1.723 12.169z" fill="#00306A"/>
    <path d="M139.105 166.154a8.816 8.816 0 1 1 7.537-15.564 8.821 8.821 0 0 1 3.218 9.249 8.828 8.828 0 0 1-10.755 6.315z" fill="#6B93C3"/>
    <path d="M192.657 261.834v51.753c0 .585-.165 1.158-.476 1.657a3.231 3.231 0 0 1-1.289 1.172 3.306 3.306 0 0 1-3.378-.247c-7.219-5.147-14.487-5.147-21.805 0a3.305 3.305 0 0 1-1.659.612 3.33 3.33 0 0 1-1.741-.329 3.239 3.239 0 0 1-1.308-1.171 3.129 3.129 0 0 1-.489-1.667v-51.78h32.145z" fill="#A5C2FB"/>
    <path d="M192.657 287.758v13.353c-18.854 0-28.274 1.167-32.145-3.572v-9.781h32.145z" fill="#6B93C3"/>
    <path d="M192.657 342.602v51.96h-32.145v-52.027a2.905 2.905 0 0 1 .471-1.568 2.985 2.985 0 0 1 1.25-1.08 3.058 3.058 0 0 1 3.178.378c7.472 5.988 14.889 6.055 22.36.066a3.037 3.037 0 0 1 3.175-.381c.512.237.944.613 1.247 1.082.303.47.464 1.014.464 1.57z" fill="#A5C2FB"/>
    <path d="M192.657 363.803v2.583h-5.549l-4.535 4.327H169.77l-4.914-4.676h-4.344v-2.583h5.481l4.9 4.676h10.543l4.548-4.327h6.673z" fill="#6B93C3"/>
    <path d="M194.394 389.378h-35.622c-4.194 0-7.594 3.442-7.594 7.688v1.215c0 4.246 3.4 7.688 7.594 7.688h35.622c4.194 0 7.594-3.442 7.594-7.688v-1.215c0-4.246-3.4-7.688-7.594-7.688zM191.71 330.983c1.427-8.761-4.519-17.02-13.28-18.448-8.761-1.427-17.02 4.519-18.447 13.28-1.426 8.761 4.52 17.02 13.281 18.448 8.761 1.427 17.02-4.519 18.446-13.28z" fill="#00306A"/>
    <path d="M176.597 337.531a8.816 8.816 0 0 1-6.251-15.042 8.814 8.814 0 1 1 6.251 15.042z" fill="#6B93C3"/>
    <path d="M270.428 261.834v51.75a3.126 3.126 0 0 1-.474 1.664c-.312.501-.76.908-1.294 1.176a3.316 3.316 0 0 1-3.388-.258c-7.219-5.146-14.487-5.146-21.805 0a3.304 3.304 0 0 1-3.397.286 3.216 3.216 0 0 1-1.305-1.173 3.128 3.128 0 0 1-.482-1.668v-51.777h32.145z" fill="#A5C2FB"/>
    <path d="M270.428 287.758v7.832c-2.111 6.81-11.545 5.557-32.145 5.557v-13.389h32.145z" fill="#6B93C3"/>
    <path d="M270.428 342.605v51.957h-32.145v-52.023c0-.556.161-1.1.464-1.569.303-.47.735-.845 1.247-1.083a3.046 3.046 0 0 1 1.644-.261c.562.068 1.093.29 1.531.642 7.471 5.989 14.889 6.055 22.36.067a3.058 3.058 0 0 1 3.178-.378 2.98 2.98 0 0 1 1.25 1.081c.305.468.468 1.012.471 1.567z" fill="#A5C2FB"/>
    <path d="M270.428 363.803v2.583h-4.872l-4.534 4.327h-12.791l-4.913-4.676h-5.035v-2.583h6.159l4.899 4.676h10.557l4.548-4.327h5.982z" fill="#6B93C3"/>
    <path d="M274.24 389.378h-35.623c-4.194 0-7.594 3.442-7.594 7.688v1.215c0 4.246 3.4 7.688 7.594 7.688h35.623c4.194 0 7.593-3.442 7.593-7.688v-1.215c0-4.246-3.399-7.688-7.593-7.688zM270.517 330.983c1.426-8.761-4.52-17.02-13.281-18.448-8.761-1.427-17.02 4.519-18.446 13.28-1.427 8.761 4.519 17.02 13.281 18.448 8.761 1.427 17.019-4.519 18.446-13.28z" fill="#00306A"/>
    <path d="M254.369 337.531a8.82 8.82 0 0 1-8.153-5.432 8.81 8.81 0 0 1 1.902-9.61 8.81 8.81 0 0 1 9.607-1.917 8.811 8.811 0 0 1 2.867 14.372 8.813 8.813 0 0 1-6.223 2.587z" fill="#6B93C3"/>
    <path d="M275.611 258.535v21.725a14.667 14.667 0 0 1-4.39 10.431 15.103 15.103 0 0 1-10.586 4.325h-91.37a15.103 15.103 0 0 1-10.586-4.325 14.667 14.667 0 0 1-4.39-10.431v-21.725c0-1.05.423-2.057 1.177-2.799a4.049 4.049 0 0 1 2.842-1.16h113.244a4.068 4.068 0 0 1 2.868 1.145c.377.369.677.807.881 1.29a3.9 3.9 0 0 1 .31 1.524z" fill="#A5C2FB"/>
    <path d="M271.464 261.822a2.068 2.068 0 0 1-1.272 1.925 2.08 2.08 0 0 1-2.835-1.504 2.072 2.072 0 0 1 2.033-2.483 2.074 2.074 0 0 1 2.074 2.062zM161.548 262.871a2.073 2.073 0 1 0 .001-4.147 2.073 2.073 0 0 0-.001 4.147z" fill="#00306A"/>
    <path d="M275.611 275.314v5.625a15.202 15.202 0 0 1-4.39 10.683 14.918 14.918 0 0 1-10.586 4.431h-91.37a14.918 14.918 0 0 1-10.586-4.431 15.202 15.202 0 0 1-4.39-10.683v-5.625h121.322z" fill="#6B93C3"/>
    <defs>
        <filter id="balwash2aa" x="66.057" y="38.708" width="54.584" height="54.584" filterUnits="userSpaceOnUse" color-interpolation-filters="sRGB">
            <feFlood flood-opacity="0" result="BackgroundImageFix"/>
            <feColorMatrix in="SourceAlpha" values="0 0 0 0 0 0 0 0 0 0 0 0 0 0 0 0 0 0 127 0" result="hardAlpha"/>
            <feMorphology radius="1.498" operator="dilate" in="SourceAlpha" result="effect1_dropShadow_5_5993"/>
            <feOffset dy=".749"/>
            <feGaussianBlur stdDeviation="1.498"/>
            <feComposite in2="hardAlpha" operator="out"/>
            <feColorMatrix values="0 0 0 0 0.814532 0 0 0 0 0.878375 0 0 0 0 0.956406 0 0 0 1 0"/>
            <feBlend in2="BackgroundImageFix" result="effect1_dropShadow_5_5993"/>
            <feBlend in="SourceGraphic" in2="effect1_dropShadow_5_5993" result="shape"/>
        </filter>
        <filter id="b32uur7mcb" x="412.28" y="35.462" width="54.858" height="54.858" filterUnits="userSpaceOnUse" color-interpolation-filters="sRGB">
            <feFlood flood-opacity="0" result="BackgroundImageFix"/>
            <feColorMatrix in="SourceAlpha" values="0 0 0 0 0 0 0 0 0 0 0 0 0 0 0 0 0 0 127 0" result="hardAlpha"/>
            <feMorphology radius="1.924" operator="dilate" in="SourceAlpha" result="effect1_dropShadow_5_5993"/>
            <feOffset dy=".962"/>
            <feGaussianBlur stdDeviation="1.924"/>
            <feComposite in2="hardAlpha" operator="out"/>
            <feColorMatrix values="0 0 0 0 0.814532 0 0 0 0 0.878375 0 0 0 0 0.956406 0 0 0 1 0"/>
            <feBlend in2="BackgroundImageFix" result="effect1_dropShadow_5_5993"/>
            <feBlend in="SourceGraphic" in2="effect1_dropShadow_5_5993" result="shape"/>
        </filter>
        <filter id="53ix3z3qdc" x="330.011" y=".718" width="43.864" height="43.863" filterUnits="userSpaceOnUse" color-interpolation-filters="sRGB">
            <feFlood flood-opacity="0" result="BackgroundImageFix"/>
            <feColorMatrix in="SourceAlpha" values="0 0 0 0 0 0 0 0 0 0 0 0 0 0 0 0 0 0 127 0" result="hardAlpha"/>
            <feMorphology radius="1.231" operator="dilate" in="SourceAlpha" result="effect1_dropShadow_5_5993"/>
            <feOffset dy=".616"/>
            <feGaussianBlur stdDeviation="1.231"/>
            <feComposite in2="hardAlpha" operator="out"/>
            <feColorMatrix values="0 0 0 0 0.814532 0 0 0 0 0.878375 0 0 0 0 0.956406 0 0 0 1 0"/>
            <feBlend in2="BackgroundImageFix" result="effect1_dropShadow_5_5993"/>
            <feBlend in="SourceGraphic" in2="effect1_dropShadow_5_5993" result="shape"/>
        </filter>
        <filter id="02pxuy3axd" x="51.679" y="133.809" width="36.306" height="36.306" filterUnits="userSpaceOnUse" color-interpolation-filters="sRGB">
            <feFlood flood-opacity="0" result="BackgroundImageFix"/>
            <feColorMatrix in="SourceAlpha" values="0 0 0 0 0 0 0 0 0 0 0 0 0 0 0 0 0 0 127 0" result="hardAlpha"/>
            <feMorphology radius="1.112" operator="dilate" in="SourceAlpha" result="effect1_dropShadow_5_5993"/>
            <feOffset dy=".556"/>
            <feGaussianBlur stdDeviation="1.112"/>
            <feComposite in2="hardAlpha" operator="out"/>
            <feColorMatrix values="0 0 0 0 0.814532 0 0 0 0 0.878375 0 0 0 0 0.956406 0 0 0 1 0"/>
            <feBlend in2="BackgroundImageFix" result="effect1_dropShadow_5_5993"/>
            <feBlend in="SourceGraphic" in2="effect1_dropShadow_5_5993" result="shape"/>
        </filter>
        <filter id="2xg9dnkyfe" x="306.275" y="65.097" width="59.418" height="59.418" filterUnits="userSpaceOnUse" color-interpolation-filters="sRGB">
            <feFlood flood-opacity="0" result="BackgroundImageFix"/>
            <feColorMatrix in="SourceAlpha" values="0 0 0 0 0 0 0 0 0 0 0 0 0 0 0 0 0 0 127 0" result="hardAlpha"/>
            <feMorphology radius="1.924" operator="dilate" in="SourceAlpha" result="effect1_dropShadow_5_5993"/>
            <feOffset dy=".962"/>
            <feGaussianBlur stdDeviation="1.924"/>
            <feComposite in2="hardAlpha" operator="out"/>
            <feColorMatrix values="0 0 0 0 0.814532 0 0 0 0 0.878375 0 0 0 0 0.956406 0 0 0 1 0"/>
            <feBlend in2="BackgroundImageFix" result="effect1_dropShadow_5_5993"/>
            <feBlend in="SourceGraphic" in2="effect1_dropShadow_5_5993" result="shape"/>
        </filter>
        <filter id="1xruer5lef" x="369.794" y="151.14" width="54.858" height="54.858" filterUnits="userSpaceOnUse" color-interpolation-filters="sRGB">
            <feFlood flood-opacity="0" result="BackgroundImageFix"/>
            <feColorMatrix in="SourceAlpha" values="0 0 0 0 0 0 0 0 0 0 0 0 0 0 0 0 0 0 127 0" result="hardAlpha"/>
            <feMorphology radius="1.924" operator="dilate" in="SourceAlpha" result="effect1_dropShadow_5_5993"/>
            <feOffset dy=".962"/>
            <feGaussianBlur stdDeviation="1.924"/>
            <feComposite in2="hardAlpha" operator="out"/>
            <feColorMatrix values="0 0 0 0 0.814532 0 0 0 0 0.878375 0 0 0 0 0.956406 0 0 0 1 0"/>
            <feBlend in2="BackgroundImageFix" result="effect1_dropShadow_5_5993"/>
            <feBlend in="SourceGraphic" in2="effect1_dropShadow_5_5993" result="shape"/>
        </filter>
        <filter id="hq1lq7yabg" x=".369" y="253.753" width="56.857" height="56.857" filterUnits="userSpaceOnUse" color-interpolation-filters="sRGB">
            <feFlood flood-opacity="0" result="BackgroundImageFix"/>
            <feColorMatrix in="SourceAlpha" values="0 0 0 0 0 0 0 0 0 0 0 0 0 0 0 0 0 0 127 0" result="hardAlpha"/>
            <feMorphology radius="1.877" operator="dilate" in="SourceAlpha" result="effect1_dropShadow_5_5993"/>
            <feOffset dy=".939"/>
            <feGaussianBlur stdDeviation="1.877"/>
            <feComposite in2="hardAlpha" operator="out"/>
            <feColorMatrix values="0 0 0 0 0.814532 0 0 0 0 0.878375 0 0 0 0 0.956406 0 0 0 1 0"/>
            <feBlend in2="BackgroundImageFix" result="effect1_dropShadow_5_5993"/>
            <feBlend in="SourceGraphic" in2="effect1_dropShadow_5_5993" result="shape"/>
        </filter>
        <filter id="va4su4idah" x="394.044" y="253.171" width="59.418" height="59.418" filterUnits="userSpaceOnUse" color-interpolation-filters="sRGB">
            <feFlood flood-opacity="0" result="BackgroundImageFix"/>
            <feColorMatrix in="SourceAlpha" values="0 0 0 0 0 0 0 0 0 0 0 0 0 0 0 0 0 0 127 0" result="hardAlpha"/>
            <feMorphology radius="1.924" operator="dilate" in="SourceAlpha" result="effect1_dropShadow_5_5993"/>
            <feOffset dy=".962"/>
            <feGaussianBlur stdDeviation="1.924"/>
            <feComposite in2="hardAlpha" operator="out"/>
            <feColorMatrix values="0 0 0 0 0.814532 0 0 0 0 0.878375 0 0 0 0 0.956406 0 0 0 1 0"/>
            <feBlend in2="BackgroundImageFix" result="effect1_dropShadow_5_5993"/>
            <feBlend in="SourceGraphic" in2="effect1_dropShadow_5_5993" result="shape"/>
        </filter>
    </defs>
</svg>
