<svg width="48" height="48" viewBox="0 0 48 48" fill="none" xmlns="http://www.w3.org/2000/svg">
    <path opacity=".4" d="M37.125 22.125h-3v6h3v-6zM9.375 22.125h-3v6h3v-6zM33.375 30.375h-23.25V33h23.25v-2.625zM33.75 42.375h-24v1.875h24v-1.875zM30.6 17.8l-3.865-.042a1.15 1.15 0 0 1-.834-.368 1.353 1.353 0 0 1-.37-.94V5.246c0-.722.544-1.309 1.212-1.309h15.86c.667 0 1.211.587 1.211 1.309V16.45c0 .721-.544 1.308-1.212 1.308h-9.067l-2.951 3.17.016-3.128z" fill="red"/>
    <path d="M42.602 3H26.743c-1.185 0-2.15 1.008-2.15 2.246V16.45c0 1.238.965 2.246 2.142 2.246l2.923.031-.014 2.677a.75.75 0 0 0 1.299.515l3-3.223h8.66c1.184 0 2.148-1.008 2.148-2.246V5.246c0-1.238-.964-2.246-2.149-2.246zm.65 13.45c0 .411-.292.746-.65.746h-8.986a.75.75 0 0 0-.549.239l-1.913 2.056.008-1.502a.75.75 0 0 0-.742-.754l-3.677-.04c-.358 0-.65-.334-.65-.745V5.246c0-.411.292-.746.65-.746h15.86c.357 0 .648.335.648.746V16.45z" fill="#004498"/>
    <path d="M39.876 6.738H29.58a.75.75 0 1 0 0 1.5h10.295a.75.75 0 1 0 0-1.5zm0 3.193H29.58a.75.75 0 0 0 0 1.5h10.295a.75.75 0 1 0 0-1.5zm-5.148 3.285h-5.147a.75.75 0 1 0 0 1.5h5.147a.75.75 0 1 0 0-1.5z" fill="#fff"/>
    <path d="M17.169 17.458a4.94 4.94 0 0 0-4.935 4.934v1.958a4.94 4.94 0 0 0 4.935 4.934h9.151a4.933 4.933 0 0 0 4.935-4.934.75.75 0 0 0-1.5 0 3.432 3.432 0 0 1-3.435 3.434H17.17a3.438 3.438 0 0 1-3.435-3.434v-1.958a3.438 3.438 0 0 1 3.435-3.434h5.186a.75.75 0 0 0 0-1.5H17.17z" fill="#004498"/>
    <path d="M15.758 23.212c0 1.167.923 2.117 2.057 2.117 1.135 0 2.058-.95 2.058-2.117s-.923-2.116-2.058-2.116c-1.134 0-2.057.95-2.057 2.116zm2.615 0c0 .34-.25.617-.558.617-.307 0-.557-.277-.557-.617 0-.34.25-.616.557-.616.308 0 .558.276.558.616zm6.401 2.117c1.135 0 2.058-.95 2.058-2.117s-.923-2.116-2.058-2.116c-1.134 0-2.057.95-2.057 2.116 0 1.167.923 2.117 2.057 2.117zm0-2.733c.308 0 .558.276.558.616 0 .34-.25.617-.558.617-.307 0-.557-.277-.557-.617 0-.34.25-.616.557-.616z" fill="#004498"/>
    <path d="M35.978 20.83H33.81a.75.75 0 0 0-.75.75v9.382a1.618 1.618 0 0 1-1.617 1.616H12.046a1.618 1.618 0 0 1-1.616-1.616V18.805a4.964 4.964 0 0 1 4.959-4.959h6.668a.75.75 0 0 0 0-1.5h-6.668a6.467 6.467 0 0 0-6.459 6.459v2.026H7.511c-.232 0-.463.037-.683.11v-5.108a2.915 2.915 0 0 0 2.08-2.818c0-1.612-1.27-2.924-2.83-2.924s-2.83 1.312-2.83 2.924a2.914 2.914 0 0 0 2.08 2.818v11.293a2.16 2.16 0 0 0 2.158 2.158h1.443v1.678a3.12 3.12 0 0 0 3.116 3.116h1.259a9.49 9.49 0 0 0-4.375 7.99v2.182a.75.75 0 0 0 .75.75h24.13a.75.75 0 0 0 .75-.75v-2.28a9.392 9.392 0 0 0-4.305-7.892h1.19a3.12 3.12 0 0 0 3.116-3.116v-1.678h1.443a2.16 2.16 0 0 0 2.158-2.158v-4.112a2.185 2.185 0 0 0-2.183-2.183zm-31.23-7.815c0-.785.597-1.424 1.33-1.424.733 0 1.33.639 1.33 1.424 0 .784-.597 1.423-1.33 1.423-.733 0-1.33-.639-1.33-1.423zm2.738 14.769a.659.659 0 0 1-.658-.658v-4.112a.684.684 0 0 1 .683-.683h1.418v5.453H7.486zm17.682 6.294c.8 0 1.597.122 2.36.361l-2.127 2.582a.675.675 0 0 1-.522.246H17.98a.679.679 0 0 1-.547-.277l-1.771-2.421a7.95 7.95 0 0 1 2.756-.49h6.749zm7.892 7.892v1.53H10.43v-1.431a7.993 7.993 0 0 1 3.859-6.838l1.935 2.645a2.185 2.185 0 0 0 1.757.891h6.898a2.17 2.17 0 0 0 1.68-.792l2.406-2.92a7.896 7.896 0 0 1 4.095 6.915zm3.6-14.844a.659.659 0 0 1-.657.658H34.56v-5.453h1.418a.684.684 0 0 1 .683.683v4.112z" fill="#004498"/>
</svg>
