<svg width="48" height="49" viewBox="0 0 48 49" fill="none" xmlns="http://www.w3.org/2000/svg">
    <path opacity=".4" d="M20.871 3.312h2.177c.503 0 .911.408.911.911v3.043a17.457 17.457 0 0 1 6.467 2.677l2.15-2.15a.911.911 0 0 1 1.29 0l3.45 3.45a.911.911 0 0 1 0 1.289l-2.15 2.15a17.464 17.464 0 0 1 2.676 6.467h3.043c.504 0 .912.408.912.911v4.88a.911.911 0 0 1-.912.912h-3.042a17.46 17.46 0 0 1-2.676 6.468l2.15 2.149a.911.911 0 0 1 0 1.289l-3.452 3.45a.911.911 0 0 1-1.289 0l-2.149-2.149a17.456 17.456 0 0 1-6.468 2.676v3.043a.911.911 0 0 1-.911.91H20.87V3.313z" fill="red"/>
    <path d="M20.871 11.755c6.928.141 12.496 5.783 12.496 12.745 0 6.962-5.568 12.604-12.496 12.746V11.755z" fill="#fff"/>
    <path opacity=".4" d="M8.732 27.047a2.546 2.546 0 1 0 0-5.093 2.546 2.546 0 0 0 0 5.093zM11.278 11.847a2.546 2.546 0 1 0 0-5.093 2.546 2.546 0 0 0 0 5.093zM11.278 42.246a2.546 2.546 0 1 0 0-5.092 2.546 2.546 0 0 0 0 5.092z" fill="red"/>
    <path d="M8.732 27.889a3.386 3.386 0 0 0 3.27-2.547h8.028v5.385h-8.752a.842.842 0 0 0-.842.842v4.861A3.385 3.385 0 0 0 7.89 39.7a3.392 3.392 0 0 0 3.388 3.388 3.392 3.392 0 0 0 3.389-3.388 3.385 3.385 0 0 0-2.546-3.27v-4.019h7.909V45.69c0 .465.377.842.842.842h2.177c.967 0 1.753-.786 1.753-1.753v-2.36a18.188 18.188 0 0 0 5.513-2.281l1.666 1.666c.662.664 1.817.663 2.48 0l3.452-3.45a1.756 1.756 0 0 0 0-2.48l-1.668-1.667a18.186 18.186 0 0 0 2.28-5.512h2.361c.967 0 1.754-.787 1.754-1.754v-4.88c0-.967-.787-1.753-1.754-1.753h-2.36a18.175 18.175 0 0 0-2.282-5.511l1.669-1.67a1.756 1.756 0 0 0 0-2.48l-3.452-3.45a1.755 1.755 0 0 0-2.48 0l-1.668 1.669a18.181 18.181 0 0 0-5.51-2.282v-2.36c0-.968-.787-1.754-1.754-1.754h-2.177a.842.842 0 0 0-.842.842V16.59h-7.91V12.57a3.385 3.385 0 0 0 2.547-3.27 3.392 3.392 0 0 0-3.389-3.389A3.392 3.392 0 0 0 7.89 9.301a3.385 3.385 0 0 0 2.546 3.27v4.86c0 .465.377.843.842.843h8.752v5.384h-8.028a3.385 3.385 0 0 0-3.27-2.546A3.392 3.392 0 0 0 5.344 24.5a3.392 3.392 0 0 0 3.388 3.389zm4.25 11.81c0 .94-.764 1.705-1.704 1.705s-1.704-.765-1.704-1.704c0-.94.765-1.704 1.704-1.704.94 0 1.704.764 1.704 1.704zM9.574 9.302c0-.94.765-1.704 1.704-1.704.94 0 1.704.764 1.704 1.704s-.764 1.704-1.704 1.704S9.574 10.24 9.574 9.3zm12.14 3.345c6.035.564 10.81 5.711 10.81 11.854 0 6.143-4.775 11.29-10.81 11.855v-23.71zm1.335-8.492c.038 0 .069.03.069.07v3.042c0 .403.286.75.682.827a16.529 16.529 0 0 1 6.155 2.548.84.84 0 0 0 1.067-.103l2.15-2.15a.07.07 0 0 1 .099 0l3.45 3.45a.07.07 0 0 1 0 .098l-2.15 2.151a.842.842 0 0 0-.103 1.067 16.537 16.537 0 0 1 2.548 6.155.843.843 0 0 0 .827.682h3.043c.038 0 .07.031.07.07v4.88c0 .038-.032.069-.07.069h-3.042a.843.843 0 0 0-.827.682 16.545 16.545 0 0 1-2.547 6.157.841.841 0 0 0 .102 1.067l2.15 2.149a.07.07 0 0 1 0 .098l-3.451 3.45c-.023.023-.075.023-.098 0l-2.15-2.149a.842.842 0 0 0-1.066-.102 16.545 16.545 0 0 1-6.157 2.547.842.842 0 0 0-.682.827v3.042a.07.07 0 0 1-.07.07h-1.334V38.03c6.96-.572 12.495-6.466 12.495-13.53 0-7.063-5.535-12.957-12.495-13.528V4.154h1.335zM8.732 22.796c.94 0 1.704.765 1.704 1.704 0 .94-.764 1.704-1.704 1.704S7.028 25.44 7.028 24.5s.765-1.704 1.704-1.704z" fill="#004498"/>
</svg>
