<svg width="48" height="48" viewBox="0 0 48 48" fill="none" xmlns="http://www.w3.org/2000/svg">
<path opacity="0.4" d="M20.8711 2.81152H23.0479C23.5512 2.81152 23.9592 3.21975 23.9592 3.72303V6.7658C26.3166 7.22169 28.5072 8.14563 30.426 9.44257L32.5762 7.29214C32.9321 6.93624 33.5092 6.93624 33.8651 7.29214L37.3158 10.7429C37.6717 11.0988 37.6717 11.6756 37.3158 12.0318L35.1654 14.1825C36.4623 16.1016 37.3865 18.2922 37.8424 20.6488H40.8852C41.3885 20.6488 41.7967 21.0567 41.7967 21.56V26.4403C41.7967 26.9436 41.3885 27.3516 40.8852 27.3516H37.8429C37.3873 29.7097 36.4636 31.9006 35.167 33.8197L37.3161 35.9688C37.672 36.3247 37.672 36.9016 37.3161 37.2577L33.8651 40.7082C33.5092 41.0641 32.9321 41.0641 32.5762 40.7082L30.4271 38.5593C28.5079 39.856 26.3171 40.7797 23.9592 41.2351V44.2776C23.9592 44.7808 23.5512 45.1888 23.0479 45.1888H20.8711V2.81152Z" fill="#FF0000"/>
<path d="M20.8711 11.2549C27.799 11.3963 33.3665 17.0384 33.3665 24.0005C33.3665 30.9623 27.799 36.6044 20.8711 36.7458V11.2549Z" fill="white"/>
<path opacity="0.4" d="M8.73372 26.5465C10.14 26.5465 11.2799 25.4066 11.2799 24.0003C11.2799 22.5941 10.14 21.4541 8.73372 21.4541C7.32748 21.4541 6.1875 22.5941 6.1875 24.0003C6.1875 25.4066 7.32748 26.5465 8.73372 26.5465Z" fill="#FF0000"/>
<path opacity="0.4" d="M11.2806 11.3468C12.6868 11.3468 13.8268 10.2068 13.8268 8.80061C13.8268 7.39437 12.6868 6.25439 11.2806 6.25439C9.87435 6.25439 8.73438 7.39437 8.73438 8.80061C8.73438 10.2068 9.87435 11.3468 11.2806 11.3468Z" fill="#FF0000"/>
<path opacity="0.4" d="M11.2806 41.7462C12.6868 41.7462 13.8268 40.6063 13.8268 39.2C13.8268 37.7938 12.6868 36.6538 11.2806 36.6538C9.87435 36.6538 8.73438 37.7938 8.73438 39.2C8.73438 40.6063 9.87435 41.7462 11.2806 41.7462Z" fill="#FF0000"/>
<path d="M8.73207 27.3887C10.3082 27.3887 11.6249 26.3021 12.002 24.8422H20.0297V30.2271H11.2785C10.8133 30.2271 10.4362 30.6042 10.4362 31.0694V35.9303C8.97606 36.3072 7.88971 37.6238 7.88971 39.1997C7.88971 41.0683 9.40967 42.5883 11.2783 42.5883C13.1466 42.5883 14.6666 41.0683 14.6666 39.1997C14.6666 37.6238 13.5802 36.3074 12.1206 35.9303V31.9115H20.0297V36.7457V45.1889C20.0297 45.6541 20.4068 46.0312 20.8721 46.0312H23.0486C24.0156 46.0312 24.8022 45.2446 24.8022 44.2776V41.9172C26.7615 41.4618 28.6099 40.6974 30.3146 39.6367L31.9814 41.303C32.6432 41.9666 33.7982 41.9664 34.4616 41.3035L37.9128 37.8528C38.5958 37.169 38.5958 36.0565 37.9123 35.3734L36.2452 33.7063C37.3059 32.0017 38.0703 30.1533 38.5257 28.194H40.8861C41.8531 28.194 42.6398 27.4073 42.6398 26.4404V21.5601C42.6398 20.5932 41.8531 19.8065 40.8861 19.8065H38.5251C38.0695 17.8478 37.3046 15.9996 36.2436 14.2958L37.9125 12.6269C38.5961 11.9438 38.5961 10.8313 37.9125 10.1469L34.4613 6.6957C33.7769 6.01213 32.6647 6.01265 31.9819 6.69622L30.3135 8.3646C28.6097 7.30389 26.7615 6.53899 24.8025 6.08336V3.72235C24.8025 2.75541 24.0158 1.96875 23.0489 1.96875H20.8723C20.4071 1.96875 20.03 2.34589 20.03 2.8111V11.2543V16.0885H12.1206V12.0705C13.5802 11.6933 14.6666 10.377 14.6666 8.8008C14.6666 6.93245 13.1466 5.41249 11.2783 5.41249C9.40967 5.41249 7.88971 6.93245 7.88971 8.8008C7.88971 10.377 8.97606 11.6936 10.4362 12.0705V16.9313C10.4362 17.3965 10.8133 17.7737 11.2785 17.7737H20.0297V23.158H12.0017C11.6246 21.6984 10.3082 20.6121 8.73207 20.6121C6.86372 20.6121 5.34375 22.132 5.34375 24.0004C5.34401 25.8687 6.86372 27.3887 8.73207 27.3887ZM12.9824 39.1997C12.9824 40.1395 12.218 40.9038 11.2785 40.9038C10.3388 40.9038 9.57441 40.1395 9.57441 39.1997C9.57441 38.2605 10.3388 37.4959 11.2785 37.4959C12.2178 37.4959 12.9824 38.2605 12.9824 39.1997ZM9.57441 8.80054C9.57441 7.86131 10.3388 7.09667 11.2785 7.09667C12.2178 7.09667 12.9824 7.86105 12.9824 8.80054C12.9824 9.74028 12.218 10.5047 11.2785 10.5047C10.3388 10.5049 9.57441 9.74028 9.57441 8.80054ZM21.7141 12.1456C27.7492 12.7103 32.5248 17.8573 32.5248 24.0004C32.5248 30.1434 27.7492 35.2903 21.7141 35.8549V12.1456ZM23.0486 3.65397C23.087 3.65397 23.1178 3.68479 23.1178 3.72313V6.76589C23.1178 7.1692 23.404 7.51603 23.8001 7.59296C26.0184 8.02191 28.089 8.87902 29.955 10.1407C30.2902 10.3676 30.7375 10.3239 31.0222 10.0384L33.1726 7.88799C33.1998 7.86079 33.2434 7.86157 33.2705 7.88799L36.7208 11.3382C36.748 11.3654 36.748 11.4094 36.7213 11.4364L34.5706 13.5871C34.2852 13.8725 34.2424 14.3198 34.4683 14.6542C35.73 16.5208 36.5874 18.5914 37.0163 20.8089C37.0932 21.205 37.4398 21.4912 37.8434 21.4912H40.8861C40.9245 21.4912 40.9553 21.522 40.9553 21.5604V26.4407C40.9553 26.479 40.9245 26.5098 40.8861 26.5098H37.8439C37.4406 26.5098 37.0935 26.796 37.0168 27.1921C36.5884 29.4104 35.7313 31.4813 34.4701 33.3489C34.2442 33.6827 34.287 34.1306 34.5724 34.4155L36.7215 36.5647C36.7482 36.5919 36.7482 36.6359 36.7215 36.6626L33.2708 40.1128C33.2478 40.1358 33.196 40.1358 33.1729 40.1128L31.0238 37.9642C30.7383 37.6787 30.2905 37.636 29.9571 37.8619C28.0895 39.123 26.0186 39.9802 23.8003 40.4086C23.4043 40.485 23.1181 40.8321 23.1181 41.2357V44.2779C23.1181 44.3162 23.0872 44.3471 23.0489 44.3471H21.7144V37.5298C28.6744 36.9581 34.2095 31.0645 34.2095 24.0009C34.2095 16.937 28.6744 11.0432 21.7144 10.4718V3.65397H23.0486ZM8.73207 22.2963C9.67181 22.2963 10.4362 23.0606 10.4362 24.0001C10.4362 24.9399 9.67181 25.7043 8.73207 25.7043C7.79284 25.7043 7.0282 24.9399 7.0282 24.0001C7.02846 23.0609 7.79284 22.2963 8.73207 22.2963Z" fill="#B30000"/>
</svg>
