<svg width="56" height="56" viewBox="0 0 56 56" fill="none" xmlns="http://www.w3.org/2000/svg">
    <path d="M42.838 22.54c0 5.033-2.515 9.484-6.358 12.163-1.58 1.101-2.456 2.964-2.456 4.89v3.554H21.976v-3.49c0-1.954-.884-3.843-2.484-4.964a14.81 14.81 0 0 1-6.328-12.425c.139-7.724 6.413-14.2 14.13-14.555 8.51-.391 15.544 6.392 15.544 14.827z" fill="#FEFDFE"/>
    <path opacity=".3" d="M42.838 22.54c0 5.03-2.52 9.487-6.355 12.16-1.582 1.102-2.459 2.969-2.459 4.897v3.55H21.976v-3.49c0-.499-.061-.999-.173-1.489 7.386-1.387 12.976-7.865 12.976-15.659a15.9 15.9 0 0 0-9.477-14.557 14.299 14.299 0 0 1 1.99-.235c8.517-.397 15.546 6.386 15.546 14.823z" fill="red"/>
    <path opacity=".3" d="M37.158 45.949a2.802 2.802 0 0 1-2.802 2.801H21.643a2.802 2.802 0 1 1 0-5.603h12.713a2.802 2.802 0 0 1 2.802 2.802zm-3.986 2.801v.432a5.172 5.172 0 0 1-10.344 0v-.432h10.344zm1.542-26.375a2.72 2.72 0 0 1 1.44-2.402 8.897 8.897 0 0 0-.687-1.671c-.934.28-1.984.06-2.72-.676a2.726 2.726 0 0 1-.677-2.72 8.5 8.5 0 0 0-1.665-.688 2.733 2.733 0 0 1-2.402 1.44 2.72 2.72 0 0 1-2.402-1.44 8.414 8.414 0 0 0-1.671.687c.28.934.06 1.984-.676 2.72a2.726 2.726 0 0 1-2.721.677 8.897 8.897 0 0 0-.687 1.671 2.72 2.72 0 0 1 0 4.799c.176.588.401 1.143.687 1.67a2.726 2.726 0 0 1 2.72.677c.737.736.957 1.786.677 2.72a8.411 8.411 0 0 0 1.67.688 2.73 2.73 0 0 1 2.403-1.44c1.039 0 1.935.587 2.402 1.44a8.5 8.5 0 0 0 1.665-.688 2.726 2.726 0 0 1 .676-2.72 2.726 2.726 0 0 1 2.721-.677 8.411 8.411 0 0 0 .687-1.67 2.717 2.717 0 0 1-1.44-2.397zm-6.711 3.298a3.297 3.297 0 0 1-3.298-3.298 3.294 3.294 0 0 1 3.298-3.298 3.297 3.297 0 1 1 0 6.596z" fill="red"/>
    <path d="M27.25 6.714c-8.173.376-14.938 7.344-15.085 15.537a15.827 15.827 0 0 0 6.754 13.261c1.285.9 2.058 2.448 2.058 4.145v2.564c-1.777.318-3.135 1.859-3.135 3.728a3.806 3.806 0 0 0 3.802 3.802h.217c.29 3.136 2.928 5.603 6.14 5.603 3.211 0 5.85-2.467 6.139-5.603h.217a3.806 3.806 0 0 0 3.801-3.802c0-1.87-1.357-3.41-3.133-3.728v-2.628c0-1.667.76-3.187 2.027-4.07a15.837 15.837 0 0 0 6.787-12.983c0-9.001-7.476-16.234-16.59-15.826zm8.658 27.169c-1.808 1.26-2.884 3.396-2.884 5.71v2.554H22.977v-2.49c0-2.341-1.085-4.505-2.91-5.783l-.086.122.086-.123a13.826 13.826 0 0 1-5.902-11.587c.128-7.156 6.04-13.246 13.176-13.573 7.958-.352 14.497 5.952 14.497 13.827 0 4.515-2.216 8.755-5.93 11.343zm-7.907 19.47a4.178 4.178 0 0 1-4.134-3.602h8.267a4.179 4.179 0 0 1-4.133 3.602zm8.157-7.404c0 .993-.808 1.802-1.8 1.802H21.643a1.804 1.804 0 0 1-1.801-1.802c0-.993.808-1.802 1.801-1.802H34.357c.993 0 1.801.809 1.801 1.802zM27 1.646v1.349a1 1 0 1 0 2 0V1.646a1 1 0 1 0-2 0zM41.95 7.01l-.953.953a1 1 0 1 0 1.414 1.414l.953-.953a1 1 0 1 0-1.414-1.414z" fill="#004498" stroke="#004498" stroke-width=".3"/>
    <path d="M15.005 35.367a1 1 0 0 0-1.415 0l-.953.954a1 1 0 1 0 1.414 1.414l.954-.953a1 1 0 0 0 0-1.415zm33.72-13.995h-1.348a1 1 0 1 0 0 2h1.348a1 1 0 1 0 0-2zm-40.103 0H7.274a1 1 0 1 0 0 2h1.348a1 1 0 1 0 0-2zm33.786 13.995a1 1 0 1 0-1.414 1.415l.953.953a1 1 0 1 0 1.415-1.414l-.954-.954zM12.637 7.011a1 1 0 0 0 0 1.414l.953.953a1 1 0 1 0 1.414-1.414l-.953-.953a1 1 0 0 0-1.414 0zm15.365 11.066a4.303 4.303 0 0 0-4.298 4.298 4.303 4.303 0 0 0 4.298 4.298 4.303 4.303 0 0 0 4.298-4.298 4.302 4.302 0 0 0-4.298-4.298zm0 6.596a2.3 2.3 0 0 1-2.298-2.298 2.3 2.3 0 0 1 2.298-2.298 2.3 2.3 0 0 1 2.298 2.298 2.301 2.301 0 0 1-2.298 2.298z" fill="#004498" stroke="#004498" stroke-width=".3"/>
    <path d="M36.628 20.854a1.719 1.719 0 0 0 0 3.036 1 1 0 0 1 .487 1.159l-.144-.042a9.31 9.31 0 0 1-.755 1.84l.412-5.993zm0 0a1 1 0 0 0 .484-1.17m-.484 1.17.484-1.17m-10.63-5.94a1 1 0 0 0-1.158-.487 9.467 9.467 0 0 0-1.871.77 1 1 0 0 0-.48 1.166 1.718 1.718 0 0 1-2.152 2.15 1.003 1.003 0 0 0-1.167.482 9.89 9.89 0 0 0-.765 1.86 1 1 0 0 0 .483 1.169 1.72 1.72 0 0 1 0 3.037c-.417.225-.62.711-.484 1.166.2.67.45 1.279.766 1.862.226.418.715.616 1.167.482 1.335-.4 2.55.822 2.15 2.151a1 1 0 0 0 .483 1.168 9.493 9.493 0 0 0 1.87.767c.45.128.932-.07 1.157-.484a1.725 1.725 0 0 1 3.047.005 1.001 1.001 0 0 0 1.158.478l-.042-.144-1.116-17.602.131.071-.132-.071a1.725 1.725 0 0 1-3.045.005zm0 0-.132.072.132-.072zm10.63 5.94a9.933 9.933 0 0 0-.764-1.858 1.004 1.004 0 0 0-1.166-.483h-.001a1.718 1.718 0 0 1-2.152-2.15 1 1 0 0 0-.482-1.166 9.503 9.503 0 0 0-1.861-.769l6.426 6.426zm-1.888-2.197a1.868 1.868 0 0 1-2.339-2.337l3.331 2.748a.854.854 0 0 0-.992-.41zm-.256 7.668-.073.177a3.714 3.714 0 0 0-3.936 3.935c-.058.025-.117.05-.175.073a3.717 3.717 0 0 0-5.565 0 6.809 6.809 0 0 1-.178-.073 3.712 3.712 0 0 0-3.934-3.936 7.35 7.35 0 0 1-.072-.178 3.716 3.716 0 0 0 0-5.56l.074-.18a3.712 3.712 0 0 0 3.932-3.935c.059-.025.118-.05.178-.073a3.719 3.719 0 0 0 5.566 0l.175.073a3.712 3.712 0 0 0 3.932 3.935c.025.059.05.119.073.18a3.715 3.715 0 0 0 .003 5.562z" fill="#004498" stroke="#004498" stroke-width=".3"/>
</svg>
