<svg width="56" height="56" viewBox="0 0 56 56" fill="none" xmlns="http://www.w3.org/2000/svg">
    <path opacity=".3" fill="red" d="M11 23.088h6v16h-6zM39 23.088h6v16h-6zM25 50v-5h7v5z"/>
    <path d="M41.832 41.036c.325 0 .65.014.976-.02.754-.075 1.452-.258 2.117-.625a5.146 5.146 0 0 0 2.446-3.14c.264-1.007.17-2.122.17-3.153v-7.704c0-.96-.24-1.925-.754-2.744-.717-1.14-1.89-2.024-3.22-2.302-1-.207-2.235-.216-3.21.094-1.288.41-2.452 1.328-3.051 2.556a5.49 5.49 0 0 0-.561 2.461v9.24c0 .654.056 1.317.292 1.934.486 1.261 1.396 2.367 2.654 2.913.684.306 1.382.48 2.14.49.741.004 1.448-.655 1.415-1.412-.033-.772-.622-1.408-1.414-1.412a3.85 3.85 0 0 1-.519-.038c.127.019.25.033.377.052a3.787 3.787 0 0 1-.91-.254l.34.14a4.053 4.053 0 0 1-.599-.32.874.874 0 0 1-.15-.108c0 .005.31.26.117.09-.085-.075-.17-.146-.25-.226a3.172 3.172 0 0 1-.207-.226c-.08-.094-.156-.259.066.094-.033-.051-.07-.099-.108-.15a3.65 3.65 0 0 1-.321-.598l.141.339a3.771 3.771 0 0 1-.254-.909c.019.127.033.25.052.377-.057-.438-.038-.89-.038-1.332v-7.785c0-.517-.033-1.05.038-1.562-.02.127-.033.25-.052.376.047-.315.132-.616.254-.908l-.141.339c.09-.207.198-.41.32-.598a.877.877 0 0 1 .109-.15c-.005 0-.26.31-.09.117.076-.085.147-.17.227-.25.07-.07.146-.14.226-.206.094-.08.26-.156-.094.066.051-.033.099-.071.15-.109.19-.127.392-.23.6-.32l-.34.142c.292-.123.594-.208.91-.255-.128.02-.25.033-.377.052a6.49 6.49 0 0 1 1.654 0c-.127-.019-.25-.033-.377-.052.316.047.618.132.91.255l-.34-.142c.208.09.41.198.6.32.009.005.15.095.15.109 0-.005-.311-.26-.118-.09.085.075.17.146.25.226.07.07.142.146.208.226.08.094.155.259-.066-.094.033.052.07.099.108.15.127.189.231.391.32.598l-.14-.339c.122.292.207.593.254.909-.02-.127-.033-.25-.052-.377.056.438.038.89.038 1.332v7.785c0 .517.033 1.05-.038 1.562.019-.127.033-.25.052-.376a3.771 3.771 0 0 1-.255.908l.142-.339c-.09.207-.198.41-.321.598a.872.872 0 0 1-.108.15c.004 0 .259-.31.09-.117-.076.085-.147.17-.227.25-.07.07-.146.14-.226.206-.095.08-.26.156.094-.066-.052.034-.1.071-.151.109-.189.127-.391.23-.599.32l.34-.141a3.787 3.787 0 0 1-.91.254c.127-.019.25-.033.377-.052-.377.052-.754.038-1.136.038-.74 0-1.447.65-1.415 1.412.033.762.618 1.412 1.415 1.412zm-28.306 0c.326 0 .65.014.976-.02.755-.075 1.452-.258 2.117-.625a5.146 5.146 0 0 0 2.447-3.14c.264-1.007.17-2.122.17-3.153v-7.704c0-.96-.24-1.925-.755-2.744-.716-1.14-1.89-2.024-3.22-2.302-1-.207-2.234-.216-3.21.094-1.287.41-2.452 1.328-3.05 2.556a5.49 5.49 0 0 0-.562 2.461v9.24c0 .654.057 1.317.293 1.934.485 1.261 1.395 2.367 2.654 2.913.684.306 1.381.48 2.14.49.74.004 1.448-.655 1.415-1.412-.033-.772-.623-1.408-1.415-1.412a3.85 3.85 0 0 1-.518-.038c.127.019.25.033.377.052a3.787 3.787 0 0 1-.91-.254l.34.14a4.05 4.05 0 0 1-.6-.32.873.873 0 0 1-.15-.108c0 .005.311.26.118.09-.085-.075-.17-.146-.25-.226a3.15 3.15 0 0 1-.208-.226c-.08-.094-.155-.259.066.094-.033-.051-.07-.099-.108-.15a3.65 3.65 0 0 1-.32-.598l.14.339a3.771 3.771 0 0 1-.254-.909c.02.127.033.25.052.377-.056-.438-.038-.89-.038-1.332v-7.785c0-.517-.033-1.05.038-1.562-.019.127-.033.25-.052.376.047-.315.132-.616.255-.908l-.142.339c.09-.207.198-.41.321-.598a.877.877 0 0 1 .108-.15c-.004 0-.259.31-.09.117.076-.085.147-.17.227-.25.07-.07.146-.14.226-.206.095-.08.26-.156-.094.066.052-.033.1-.071.151-.109.189-.127.391-.23.599-.32l-.34.142c.293-.123.594-.208.91-.255-.127.02-.25.033-.377.052a6.49 6.49 0 0 1 1.655 0c-.127-.019-.25-.033-.377-.052.316.047.617.132.91.255l-.34-.142c.207.09.41.198.599.32.01.005.15.095.15.109 0-.005-.31-.26-.117-.09.085.075.17.146.25.226.07.07.141.146.207.226.08.094.156.259-.066-.094.033.052.07.099.109.15.127.189.23.391.32.598l-.141-.339c.122.292.207.593.254.909-.019-.127-.033-.25-.052-.377.057.438.038.89.038 1.332v7.785c0 .517.033 1.05-.038 1.562.02-.127.033-.25.052-.376a3.771 3.771 0 0 1-.254.908l.141-.339c-.09.207-.198.41-.32.598a.878.878 0 0 1-.109.15c.005 0 .26-.31.09-.117-.076.085-.146.17-.227.25-.07.07-.146.14-.226.206-.094.08-.26.156.094-.066-.052.034-.099.071-.15.109-.189.127-.392.23-.6.32l.34-.141a3.787 3.787 0 0 1-.91.254c.128-.019.25-.033.377-.052-.377.052-.754.038-1.136.038-.74 0-1.447.65-1.414 1.412.033.762.622 1.412 1.414 1.412z" fill="#004498"/>
    <path d="M11.263 35.647V24.789c0-1.017.029-2.029.165-3.04-.019.126-.033.249-.052.376a18.056 18.056 0 0 1 1.264-4.594l-.141.34c.358-.843.782-1.662 1.263-2.443.236-.382.48-.749.745-1.111.066-.094.137-.184.203-.273.023-.033.051-.066.075-.1.151-.202-.226.288-.07.09.14-.179.282-.357.433-.527a18.24 18.24 0 0 1 1.89-1.925c.166-.14.33-.282.5-.423.08-.066.16-.132.24-.193.08-.066.284-.212-.089.066l.151-.113a18.356 18.356 0 0 1 3.838-2.207l-.34.14a18.132 18.132 0 0 1 4.601-1.26c-.127.018-.25.032-.377.05a18.198 18.198 0 0 1 4.851 0c-.127-.018-.25-.032-.377-.05 1.584.216 3.13.64 4.602 1.26l-.34-.14c.844.357 1.664.78 2.447 1.26.382.236.75.48 1.113.744.094.066.183.137.273.203.033.023.066.051.099.075.203.15-.288-.226-.09-.07.18.14.359.282.528.432a18.241 18.241 0 0 1 2.546 2.627c.066.08.212.282-.066-.09.038.052.076.099.113.15a18.318 18.318 0 0 1 2.211 3.831l-.141-.338a18.056 18.056 0 0 1 1.263 4.593c-.018-.127-.032-.249-.051-.376.141 1.054.165 2.108.165 3.168v11.907c0 .904.037 1.826-.08 2.725.018-.127.032-.25.051-.377a8.906 8.906 0 0 1-.584 2.142l.141-.339a8.753 8.753 0 0 1-.797 1.478c-.075.113-.155.221-.23.33-.175.244.207-.255.051-.066-.037.047-.075.098-.118.145a8.703 8.703 0 0 1-1.178 1.177c-.047.038-.094.08-.146.118-.194.155.278-.207.09-.07-.119.084-.236.169-.354.248-.467.311-.962.58-1.48.796l.339-.141a8.889 8.889 0 0 1-2.145.583l.377-.051c-.764.103-1.537.08-2.306.08h-3.597c-.74 0-1.447.65-1.414 1.412.033.767.622 1.411 1.414 1.411h3.579c.448 0 .9.01 1.348 0a9.891 9.891 0 0 0 3.498-.71c2.258-.932 4.191-2.603 5.285-4.806.759-1.52 1.094-3.139 1.094-4.828V24.182c-.005-2.217-.377-4.462-1.141-6.547A20.037 20.037 0 0 0 42.91 11.6a19.589 19.589 0 0 0-5.077-4.278 19.295 19.295 0 0 0-6.37-2.353 20.08 20.08 0 0 0-7.231.051 19.242 19.242 0 0 0-6.299 2.429 19.44 19.44 0 0 0-5.02 4.34 20.083 20.083 0 0 0-3.428 6.108 19.45 19.45 0 0 0-1.047 6.293v11.456c0 .739.651 1.445 1.415 1.412.759-.038 1.41-.622 1.41-1.412z" fill="#004498"/>
    <path d="M31.323 47.017c0 .132-.01.26-.028.386.019-.127.033-.249.052-.376a3.24 3.24 0 0 1-.198.725l.141-.34c-.07.16-.15.316-.245.462a.664.664 0 0 1-.085.127c-.004 0 .236-.287.109-.141-.061.07-.123.136-.184.202a2.975 2.975 0 0 1-.18.165c-.089.08-.216.108.119-.09-.033.02-.066.048-.1.071-.155.104-.32.189-.49.264l.34-.141a3.25 3.25 0 0 1-.726.197l.377-.051c-.637.08-1.306.028-1.947.028-.655 0-1.334.052-1.99-.024.128.02.25.033.378.052a3.417 3.417 0 0 1-.717-.188l.34.141a2.987 2.987 0 0 1-.515-.273c-.132-.09-.155-.193.052.047-.061-.07-.146-.127-.212-.193-.056-.056-.16-.141-.193-.212.042.057.09.113.132.174l-.085-.117a2.974 2.974 0 0 1-.273-.513l.141.339a3.075 3.075 0 0 1-.189-.716c.02.127.033.25.052.377a3.212 3.212 0 0 1 0-.767c-.019.127-.033.25-.052.376.038-.25.104-.49.198-.725l-.141.34c.07-.16.15-.316.245-.462a.661.661 0 0 1 .085-.127c.005 0-.236.287-.108.141.06-.07.122-.136.183-.202.057-.057.118-.113.18-.165.09-.08.216-.108-.118.09.033-.02.066-.048.099-.071.155-.104.32-.188.49-.264l-.34.141a3.25 3.25 0 0 1 .727-.197c-.128.019-.25.033-.378.052.637-.08 1.306-.029 1.948-.029.655 0 1.334-.052 1.989.024-.127-.019-.25-.033-.377-.052.245.038.485.099.716.188l-.339-.14c.18.074.354.164.514.272.132.09.155.193-.052-.047.061.07.146.127.212.193.057.056.16.141.194.212-.043-.057-.09-.113-.133-.174.029.037.057.08.085.117.109.16.198.335.274.513l-.142-.339c.09.231.156.466.189.716-.019-.127-.033-.25-.052-.377.019.127.028.255.028.381.01.74.646 1.445 1.415 1.412.759-.032 1.423-.62 1.414-1.412-.019-1.58-.92-3.167-2.38-3.854-.632-.297-1.264-.461-1.967-.466h-2.71c-.896 0-1.745.108-2.546.55-1.264.693-2.027 1.977-2.192 3.38-.19 1.6.66 3.149 1.975 4.024.825.55 1.777.682 2.744.682h2.743a4.524 4.524 0 0 0 2.065-.522c1.396-.73 2.254-2.245 2.273-3.798.01-.74-.656-1.445-1.415-1.412-.777.042-1.41.626-1.419 1.416z" fill="#004498"/>
</svg>
