<svg width="452" height="378" viewBox="0 0 452 378" fill="none" xmlns="http://www.w3.org/2000/svg">
    <g opacity=".25">
        <g opacity=".31">
            <path opacity=".4" d="M412.956 88.52c3.091-10.316-2.766-21.185-13.082-24.276-10.317-3.091-21.186 2.766-24.277 13.082-3.091 10.317 2.766 21.186 13.082 24.277 10.317 3.091 21.186-2.766 24.277-13.083z" fill="#53D0F7"/>
        </g>
        <path d="M356.345 69.824a7 7 0 1 0-.347-13.996 7 7 0 0 0 .347 13.996z" fill="#E9F0FE" opacity=".31"/>
        <path d="M136.586 95.377a9 9 0 1 0-17.519-4.135 9 9 0 0 0 17.519 4.135z" fill="#53D0F7" opacity=".31"/>
    </g>
    <path opacity=".58" d="M63.5 79a4.5 4.5 0 1 0 0-9 4.5 4.5 0 0 0 0 9z" fill="#DBE4F0"/>
    <path opacity=".58" d="M5 303a1.999 1.999 0 1 1-1.989-2A1.995 1.995 0 0 1 5 303z" fill="#FFA000"/>
    <path opacity=".58" d="M427 118.989a2.007 2.007 0 0 1-1.229 1.857 2.005 2.005 0 0 1-2.185-.432 1.996 1.996 0 0 1-.432-2.185 2.005 2.005 0 0 1 1.857-1.229 1.996 1.996 0 0 1 1.403.586c.373.372.583.876.586 1.403zM32 45.989A2 2 0 1 1 30 44a1.99 1.99 0 0 1 2 1.989zM431 237.989a2.007 2.007 0 0 1-1.229 1.857 2.005 2.005 0 0 1-2.185-.432 1.996 1.996 0 0 1-.432-2.185 2.005 2.005 0 0 1 1.857-1.229 1.996 1.996 0 0 1 1.403.586c.373.372.583.876.586 1.403zM188 45.989a2.005 2.005 0 0 1-2.387 1.973 1.999 1.999 0 0 1 .398-3.962A1.988 1.988 0 0 1 188 45.989z" fill="#E9F0FE"/>
    <path opacity=".58" d="M310.879 52.648a5.503 5.503 0 0 1-4.38 4.26 5.5 5.5 0 1 1 4.38-4.26z" fill="#DBE4F0"/>
    <g opacity=".25">
        <g opacity=".47">
            <path opacity=".4" d="M50.176 105.428a17.912 17.912 0 0 0-4.474-5.387 18.105 18.105 0 0 0-6.217-3.28 18.208 18.208 0 0 0-13.747 1.365c-8.787 4.668-18.191 18.749-13.479 27.452 4.712 8.703 18.73 1.855 28.702 1.973 13.908.158 13.928-13.42 9.215-22.123z" fill="#53D0F7"/>
        </g>
    </g>
    <path d="M367.275 166.711a2.35 2.35 0 0 0 2.769 0L403 142.74a6.96 6.96 0 0 0-2.402-1.879 6.964 6.964 0 0 0-2.976-.675h-59.13a5.67 5.67 0 0 0-2.498.57 5.672 5.672 0 0 0-1.994 1.606s.08 0 .11.05l33.165 24.299z" fill="#DBE4F0"/>
    <path d="M371.981 167.869a4.381 4.381 0 0 1-5.168 0l-5.087-3.705-25.666 22.621H336a4.467 4.467 0 0 0 1.789.358h63.206a4.418 4.418 0 0 0 1.005-.119l-25.485-22.452-4.534 3.297zM360 163.458l-26.707-19.276a5.582 5.582 0 0 0-.293 1.793v37.027a4.499 4.499 0 0 0 1.291 3.142.995.995 0 0 1 .273-.456L360 163.458zM403.202 185.965a.731.731 0 0 1 .128.179 4.532 4.532 0 0 0 1.67-3.513v-35.81a7.077 7.077 0 0 0-.514-2.639L378 163.58l25.202 22.385z" fill="#DBE4F0"/>
    <g opacity=".6" fill="#DBE4F0">
        <path d="M414.4 331.012h-51.83a5.543 5.543 0 0 1-3.936-1.658 5.702 5.702 0 0 1-1.634-3.992v-30.514a6.862 6.862 0 0 1 1.969-4.807 6.669 6.669 0 0 1 4.743-1.99h48.345c2.106 0 4.127.849 5.616 2.359a8.116 8.116 0 0 1 2.327 5.697v29.286a5.727 5.727 0 0 1-.435 2.159 5.669 5.669 0 0 1-1.218 1.827 5.574 5.574 0 0 1-1.813 1.215 5.507 5.507 0 0 1-2.134.418zm-50.698-40.947a4.694 4.694 0 0 0-3.338 1.4 4.832 4.832 0 0 0-1.388 3.383v30.514c0 .478.093.951.273 1.392.18.441.444.842.777 1.179a3.58 3.58 0 0 0 1.163.788c.434.183.901.277 1.371.277h51.83c.471 0 .937-.094 1.372-.277a3.58 3.58 0 0 0 1.163-.788 3.66 3.66 0 0 0 1.049-2.571v-29.285a6.09 6.09 0 0 0-1.744-4.273 5.918 5.918 0 0 0-4.213-1.769l-48.315.03z"/>
        <path d="M381.256 307.918 359 328.016l1.319 1.502 22.256-20.098-1.319-1.502zM395.315 308.526 394 310.031l22.302 20.048 1.315-1.505-22.302-20.048z"/>
        <path d="M388.517 314.027a3.787 3.787 0 0 1-2.269-.754L358 292.293l1.184-1.62 28.238 20.98a1.832 1.832 0 0 0 2.18 0l27.233-21.604 1.165 1.63-27.253 21.564a3.826 3.826 0 0 1-2.23.784z"/>
    </g>
    <path d="M404.5 152.175c6.904 0 12.5-5.592 12.5-12.489 0-6.897-5.596-12.489-12.5-12.489s-12.5 5.592-12.5 12.489c0 6.897 5.596 12.489 12.5 12.489z" fill="#7FA8FA"/>
    <path d="M402 145.18h-1.495v-8.464l-1.505.875v-1.445l1.505-.957H402v9.991zM404.764 144.43a2.762 2.762 0 0 1-.599-.947 2.6 2.6 0 0 1-.159-1.089v-4.43c.03-.548.225-1.078.563-1.529.339-.45.807-.802 1.351-1.016a3.366 3.366 0 0 1 1.725-.192 3.242 3.242 0 0 1 1.57.692c.269.276.475.599.607.95.132.352.187.724.162 1.095v4.43c.044.374-.003.754-.138 1.109a2.484 2.484 0 0 1-.64.945 2.75 2.75 0 0 1-1.018.593c-.383.124-.79.166-1.193.123a3.153 3.153 0 0 1-1.198-.15 3.031 3.031 0 0 1-1.033-.584zm3.373-.994c.267-.308.4-.697.374-1.092v-4.429c.03-.394-.1-.784-.363-1.093a1.924 1.924 0 0 0-1.153-.378c-.419 0-.826.133-1.153.378a1.517 1.517 0 0 0-.373 1.093v4.429c-.026.395.107.784.373 1.092.325.245.73.378 1.148.378.417 0 .822-.133 1.147-.378z" fill="#F8F9FC"/>
    <path d="M321.523 190a4.417 4.417 0 0 1-3.21-1.386l-14.698-15.208a5.204 5.204 0 0 0-3.749-1.594l-144.342-.173a14.572 14.572 0 0 1-10.26-4.257A14.518 14.518 0 0 1 141 157.14v-44.624a14.52 14.52 0 0 1 4.264-10.259A14.57 14.57 0 0 1 155.542 98h153.921a16.587 16.587 0 0 1 11.689 4.851A16.53 16.53 0 0 1 326 114.525v71.006a4.448 4.448 0 0 1-2.794 4.14 4.849 4.849 0 0 1-1.683.329zm-165.981-88.536a11.087 11.087 0 0 0-7.829 3.237 11.044 11.044 0 0 0-3.242 7.815v44.624a11.043 11.043 0 0 0 3.248 7.804 11.086 11.086 0 0 0 7.823 3.23l144.324.174a8.675 8.675 0 0 1 6.247 2.65l14.698 15.226a1.013 1.013 0 0 0 1.103.24 1.012 1.012 0 0 0 .633-.933v-71.006c0-3.461-1.376-6.78-3.826-9.229a13.099 13.099 0 0 0-9.241-3.832H155.542z" fill="#DBE4F0"/>
    <path d="M303.362 117.744h-56.631a2.31 2.31 0 0 1-1.515-.548c-.402-.352-.628-.828-.628-1.324 0-.497.226-.973.628-1.324a2.31 2.31 0 0 1 1.515-.548h56.631a2.31 2.31 0 0 1 1.515.548c.402.351.628.827.628 1.324 0 .496-.226.972-.628 1.324a2.31 2.31 0 0 1-1.515.548zM230.926 117.744h-71.728a2.405 2.405 0 0 1-1.554-.548c-.412-.352-.644-.828-.644-1.324 0-.497.232-.973.644-1.324a2.405 2.405 0 0 1 1.554-.548h71.728c.583 0 1.142.197 1.554.548.412.351.644.827.644 1.324 0 .496-.232.972-.644 1.324a2.405 2.405 0 0 1-1.554.548zM305.825 135.214H189.126c-.577 0-1.13-.197-1.538-.548-.408-.351-.637-.827-.637-1.323 0-.497.229-.973.637-1.324a2.366 2.366 0 0 1 1.538-.548h116.699c.577 0 1.13.197 1.538.548.408.351.637.827.637 1.324 0 .496-.229.972-.637 1.323a2.366 2.366 0 0 1-1.538.548zM305.806 150.189h-77.975c-.582 0-1.14-.197-1.552-.548-.411-.351-.642-.827-.642-1.324 0-.496.231-.972.642-1.323.412-.351.97-.549 1.552-.549h77.975c.582 0 1.14.198 1.552.549.411.351.642.827.642 1.323 0 .497-.231.973-.642 1.324-.412.351-.97.548-1.552.548z" fill="#DBE4F0"/>
    <path d="M124.934 132.365H95.967a3.387 3.387 0 0 0-2.446.993l-7.206 7.413a1.349 1.349 0 0 1-1.474.316 1.339 1.339 0 0 1-.612-.492 1.324 1.324 0 0 1-.229-.749V100.43c0-1.91.766-3.743 2.128-5.094a7.299 7.299 0 0 1 5.139-2.11h34.819a5.94 5.94 0 0 1 4.182 1.718A5.837 5.837 0 0 1 132 99.089v26.271a6.97 6.97 0 0 1-2.07 4.953 7.095 7.095 0 0 1-4.996 2.052z" fill="#FFE6E6"/>
    <path d="M99 113.709a2.492 2.492 0 0 1-1.543 2.307 2.497 2.497 0 0 1-2.725-.541 2.499 2.499 0 1 1 3.536-3.532c.469.468.732 1.103.732 1.766zM111 113.709a2.496 2.496 0 0 1-1.546 2.308 2.499 2.499 0 1 1 1.546-2.308zM119.5 116.206a2.498 2.498 0 1 0 0-4.995 2.499 2.499 0 1 0 0 4.995z" fill="#FF2B2B"/>
    <path d="M93.045 262c15.465 0 27.992-12.536 27.98-28-.012-15.464-12.558-28-28.023-28s-27.992 12.536-27.98 28c.011 15.464 12.558 28 28.023 28z" fill="#FFE6E6"/>
    <path d="M93 251a7.05 7.05 0 0 1-4.602-1.692 6.614 6.614 0 0 1-2.268-4.225L86 244h14l-.13 1.083a6.621 6.621 0 0 1-2.27 4.222A7.057 7.057 0 0 1 93 251zm-4.63-5.066a4.793 4.793 0 0 0 1.805 2.269c.829.56 1.815.86 2.825.86 1.01 0 1.996-.3 2.825-.86a4.793 4.793 0 0 0 1.805-2.269h-9.26zM105.929 239H81v-11.251a11.65 11.65 0 0 1 3.517-8.302 12.132 12.132 0 0 1 8.47-3.447h1.015a12.135 12.135 0 0 1 8.477 3.443 11.65 11.65 0 0 1 3.521 8.306L105.929 239zm-22.95-1.989h20.92v-9.262a9.675 9.675 0 0 0-2.923-6.902 10.075 10.075 0 0 0-7.045-2.857h-1.015a10.071 10.071 0 0 0-6.992 2.885 9.672 9.672 0 0 0-2.894 6.874l-.05 9.262z" fill="#FF2B2B"/>
    <path d="M104.823 246H82.167a4.101 4.101 0 0 1-2.944-1.271A4.424 4.424 0 0 1 78 241.672v-.344c0-1.148.439-2.249 1.22-3.06A4.088 4.088 0 0 1 82.167 237h22.656a4.1 4.1 0 0 1 2.95 1.267 4.427 4.427 0 0 1 1.227 3.061v.302a4.49 4.49 0 0 1-.309 1.67 4.373 4.373 0 0 1-.904 1.418c-.388.406-.85.729-1.359.949a4.038 4.038 0 0 1-1.605.333zm-22.596-6.877a2.102 2.102 0 0 0-.836.151c-.266.107-.51.268-.716.473-.206.205-.372.45-.487.721a2.336 2.336 0 0 0-.185.86v.302c0 .596.228 1.168.634 1.589a2.12 2.12 0 0 0 1.53.658h22.656c.575 0 1.126-.236 1.534-.657.407-.421.637-.993.64-1.59v-.302a2.303 2.303 0 0 0-.64-1.589 2.132 2.132 0 0 0-1.534-.658l-22.596.042z" fill="#FF2B2B"/>
    <path d="M144.305 79.249c11.04 0 19.982-8.95 19.971-19.991-.01-11.04-8.969-19.991-20.01-19.991-11.04 0-19.982 8.95-19.972 19.99.011 11.042 8.97 19.992 20.011 19.992z" fill="#FFE6E6"/>
    <path d="M143 51.266h2v11.888h-2V51.266zm0 13.745h2v2.24h-2v-2.24z" fill="#FF2B2B"/>
    <path d="M139.5 317.81c.001.534.164 1.057.467 1.501.304.444.735.789 1.239.991a2.768 2.768 0 0 0 2.99-.619l.001-.001 17.295-17.76L139.5 317.81zm0 0V232c0-9.665 7.835-17.5 17.5-17.5h178c9.665 0 17.5 7.835 17.5 17.5v49.606c0 9.657-7.823 17.489-17.481 17.5l-167.268.185M139.5 317.81l28.251-18.519m0 0h-.001.001z" fill="#fff" stroke="#DBE4F0"/>
    <path d="m152.3 268 2.58-7h.89l2.57 7h-.89l-.64-1.8h-2.98l-.65 1.8h-.88zm1.78-2.48h2.48l-1.24-3.46-1.24 3.46zm5.251 2.48v-4.96h.76l.05.89c.16-.313.39-.56.69-.74.3-.18.64-.27 1.02-.27.586 0 1.053.18 1.4.54.353.353.53.9.53 1.64v2.9h-.84v-2.81c0-1.033-.427-1.55-1.28-1.55a1.39 1.39 0 0 0-1.07.47c-.28.307-.42.747-.42 1.32V268h-.84zm5.722 0v-4.96h.76l.05.89c.16-.313.39-.56.69-.74.3-.18.64-.27 1.02-.27.587 0 1.054.18 1.4.54.354.353.53.9.53 1.64v2.9h-.84v-2.81c0-1.033-.426-1.55-1.28-1.55-.426 0-.783.157-1.07.47-.28.307-.42.747-.42 1.32V268h-.84zm7.983.12c-.467 0-.887-.107-1.26-.32a2.354 2.354 0 0 1-.89-.9c-.213-.393-.32-.853-.32-1.38 0-.527.11-.983.33-1.37a2.34 2.34 0 0 1 .89-.91c.38-.213.803-.32 1.27-.32.467 0 .887.107 1.26.32.373.213.667.517.88.91.22.387.33.843.33 1.37 0 .527-.11.987-.33 1.38a2.33 2.33 0 0 1-.9.9c-.373.213-.793.32-1.26.32zm0-.72c.287 0 .553-.07.8-.21.247-.14.447-.35.6-.63.153-.28.23-.627.23-1.04 0-.413-.077-.76-.23-1.04a1.503 1.503 0 0 0-.59-.63c-.247-.14-.51-.21-.79-.21-.287 0-.553.07-.8.21-.247.14-.447.35-.6.63-.153.28-.23.627-.23 1.04 0 .413.077.76.23 1.04.153.28.35.49.59.63.247.14.51.21.79.21zm5.468.72c-.587 0-1.053-.177-1.4-.53-.347-.36-.52-.91-.52-1.65v-2.9h.84v2.81c0 1.033.423 1.55 1.27 1.55.433 0 .79-.153 1.07-.46.287-.313.43-.757.43-1.33v-2.57h.84V268h-.76l-.06-.89c-.153.313-.383.56-.69.74-.3.18-.64.27-1.02.27zm3.913-.12v-4.96h.76l.05.89c.16-.313.39-.56.69-.74.3-.18.64-.27 1.02-.27.586 0 1.053.18 1.4.54.353.353.53.9.53 1.64v2.9h-.84v-2.81c0-1.033-.427-1.55-1.28-1.55a1.39 1.39 0 0 0-1.07.47c-.28.307-.42.747-.42 1.32V268h-.84zm8.002.12c-.473 0-.9-.107-1.28-.32a2.43 2.43 0 0 1-.89-.91c-.213-.393-.32-.85-.32-1.37 0-.52.107-.973.32-1.36a2.34 2.34 0 0 1 .89-.91c.38-.22.807-.33 1.28-.33.587 0 1.08.153 1.48.46.407.307.664.717.77 1.23h-.86a1.082 1.082 0 0 0-.49-.71 1.604 1.604 0 0 0-.91-.26c-.28 0-.543.07-.79.21-.246.14-.446.35-.6.63-.153.28-.23.627-.23 1.04 0 .413.077.76.23 1.04.154.28.354.493.6.64.247.14.51.21.79.21.347 0 .65-.083.91-.25.26-.173.424-.417.49-.73h.86c-.1.5-.353.907-.76 1.22-.406.313-.903.47-1.49.47zm3.933-6.18a.59.59 0 0 1-.42-.16.591.591 0 0 1-.16-.42c0-.16.054-.293.16-.4a.59.59 0 0 1 .42-.16c.16 0 .297.053.41.16.114.107.17.24.17.4a.567.567 0 0 1-.17.42.575.575 0 0 1-.41.16zm-.42 6.06v-4.96h.84V268h-.84zm2.303 0v-4.96h.76l.05.89c.16-.313.39-.56.69-.74.3-.18.64-.27 1.02-.27.587 0 1.053.18 1.4.54.353.353.53.9.53 1.64v2.9h-.84v-2.81c0-1.033-.427-1.55-1.28-1.55-.427 0-.783.157-1.07.47-.28.307-.42.747-.42 1.32V268h-.84zm7.683-1.56c-.28 0-.537-.037-.77-.11l-.5.47c.073.053.163.1.27.14a4.1 4.1 0 0 0 .48.1c.206.027.496.057.87.09.666.047 1.143.2 1.43.46.286.26.43.6.43 1.02 0 .287-.08.56-.24.82-.154.26-.394.473-.72.64-.32.167-.734.25-1.24.25-.447 0-.844-.06-1.19-.18-.347-.113-.617-.29-.81-.53-.194-.233-.29-.53-.29-.89 0-.187.05-.39.15-.61.1-.213.286-.417.56-.61a2.442 2.442 0 0 1-.38-.19 2.3 2.3 0 0 1-.28-.24v-.23l.85-.84c-.394-.333-.59-.773-.59-1.32 0-.327.076-.623.23-.89.153-.267.376-.477.67-.63.293-.16.65-.24 1.07-.24.286 0 .546.04.78.12h1.83v.63l-.93.04c.193.28.29.603.29.97 0 .327-.08.623-.24.89-.154.267-.377.48-.67.64-.287.153-.64.23-1.06.23zm0-.69c.353 0 .633-.09.84-.27.213-.187.32-.453.32-.8 0-.34-.107-.6-.32-.78-.207-.187-.487-.28-.84-.28-.36 0-.647.093-.86.28-.207.18-.31.44-.31.78 0 .347.103.613.31.8.213.18.5.27.86.27zm-1.46 2.89c0 .333.14.58.42.74.28.167.63.25 1.05.25.413 0 .743-.09.99-.27.253-.18.38-.42.38-.72 0-.213-.087-.4-.26-.56-.174-.153-.494-.243-.96-.27-.367-.027-.684-.06-.95-.1-.274.147-.454.303-.54.47a1.05 1.05 0 0 0-.13.46zm9.314-.52c-.414 0-.757-.07-1.03-.21a1.424 1.424 0 0 1-.61-.56 1.5 1.5 0 0 1-.2-.76c0-.507.193-.897.58-1.17.386-.273.913-.41 1.58-.41h1.34v-.06c0-.433-.114-.76-.34-.98-.227-.227-.53-.34-.91-.34-.327 0-.61.083-.85.25-.234.16-.38.397-.44.71h-.86c.033-.36.153-.663.36-.91.213-.247.476-.433.79-.56a2.53 2.53 0 0 1 1-.2c.693 0 1.213.187 1.56.56.353.367.53.857.53 1.47V268h-.75l-.05-.89c-.14.28-.347.52-.62.72-.267.193-.627.29-1.08.29zm.13-.71c.32 0 .593-.083.82-.25.233-.167.41-.383.53-.65.12-.267.18-.547.18-.84v-.01h-1.27c-.494 0-.844.087-1.05.26-.2.167-.3.377-.3.63 0 .26.093.47.28.63.193.153.463.23.81.23zm6.546.59v-4.25h-.75v-.71h.75v-.86c0-.48.12-.83.36-1.05.24-.22.59-.33 1.05-.33h.5v.72h-.37c-.253 0-.433.053-.54.16-.106.1-.16.273-.16.52v.84h1.22v.71h-1.22V268h-.84zm3.06 0v-7.2h.84v7.2h-.84zm3.867.12c-.413 0-.757-.07-1.03-.21a1.43 1.43 0 0 1-.81-1.32c0-.507.193-.897.58-1.17.387-.273.913-.41 1.58-.41h1.34v-.06c0-.433-.113-.76-.34-.98-.227-.227-.53-.34-.91-.34-.327 0-.61.083-.85.25-.233.16-.38.397-.44.71h-.86c.033-.36.153-.663.36-.91.213-.247.477-.433.79-.56.313-.133.647-.2 1-.2.693 0 1.213.187 1.56.56.353.367.53.857.53 1.47V268h-.75l-.05-.89c-.14.28-.347.52-.62.72-.267.193-.627.29-1.08.29zm.13-.71c.32 0 .593-.083.82-.25.233-.167.41-.383.53-.65.12-.267.18-.547.18-.84v-.01h-1.27c-.493 0-.843.087-1.05.26-.2.167-.3.377-.3.63 0 .26.093.47.28.63.193.153.463.23.81.23zm5.53.71c-.593 0-1.086-.15-1.48-.45-.393-.3-.623-.707-.69-1.22h.86c.054.26.19.487.41.68.227.187.53.28.91.28.354 0 .614-.073.78-.22a.71.71 0 0 0 .25-.54c0-.3-.11-.5-.33-.6-.213-.1-.516-.19-.91-.27a5.152 5.152 0 0 1-.8-.23c-.266-.1-.49-.24-.67-.42-.18-.187-.27-.43-.27-.73 0-.433.16-.787.48-1.06.327-.28.767-.42 1.32-.42.527 0 .957.133 1.29.4.34.26.537.633.59 1.12h-.83a.839.839 0 0 0-.33-.59c-.18-.147-.423-.22-.73-.22-.3 0-.533.063-.7.19a.607.607 0 0 0-.24.5c0 .2.104.357.31.47.214.113.5.21.86.29.307.067.597.15.87.25.28.093.507.237.68.43.18.187.27.46.27.82.007.447-.163.817-.51 1.11-.34.287-.803.43-1.39.43zm3.1-.12v-7.2h.84v3.09a1.74 1.74 0 0 1 .71-.71c.307-.173.64-.26 1-.26.574 0 1.034.18 1.38.54.347.353.52.9.52 1.64v2.9h-.83v-2.81c0-1.033-.416-1.55-1.25-1.55-.433 0-.796.157-1.09.47-.293.307-.44.747-.44 1.32V268h-.84zm10.269.12c-.593 0-1.086-.15-1.48-.45-.393-.3-.623-.707-.69-1.22h.86c.054.26.19.487.41.68.227.187.53.28.91.28.354 0 .614-.073.78-.22a.71.71 0 0 0 .25-.54c0-.3-.11-.5-.33-.6-.213-.1-.516-.19-.91-.27a5.152 5.152 0 0 1-.8-.23c-.266-.1-.49-.24-.67-.42-.18-.187-.27-.43-.27-.73 0-.433.16-.787.48-1.06.327-.28.767-.42 1.32-.42.527 0 .957.133 1.29.4.34.26.537.633.59 1.12h-.83a.839.839 0 0 0-.33-.59c-.18-.147-.423-.22-.73-.22-.3 0-.533.063-.7.19a.607.607 0 0 0-.24.5c0 .2.104.357.31.47.214.113.5.21.86.29.307.067.597.15.87.25.28.093.507.237.68.43.18.187.27.46.27.82.007.447-.163.817-.51 1.11-.34.287-.803.43-1.39.43zm4.75 0c-.413 0-.756-.07-1.03-.21a1.435 1.435 0 0 1-.61-.56 1.51 1.51 0 0 1-.2-.76c0-.507.194-.897.58-1.17.387-.273.914-.41 1.58-.41h1.34v-.06c0-.433-.113-.76-.34-.98-.226-.227-.53-.34-.91-.34-.326 0-.61.083-.85.25-.233.16-.38.397-.44.71h-.86a1.62 1.62 0 0 1 .36-.91c.214-.247.477-.433.79-.56.314-.133.647-.2 1-.2.694 0 1.214.187 1.56.56.354.367.53.857.53 1.47V268h-.75l-.05-.89c-.14.28-.346.52-.62.72-.266.193-.626.29-1.08.29zm.13-.71c.32 0 .594-.083.82-.25.234-.167.41-.383.53-.65.12-.267.18-.547.18-.84v-.01h-1.27c-.493 0-.843.087-1.05.26-.2.167-.3.377-.3.63 0 .26.094.47.28.63.194.153.464.23.81.23zm3.631.59v-7.2h.84v7.2h-.84zm4.446.12c-.473 0-.893-.107-1.26-.32a2.387 2.387 0 0 1-.87-.91c-.206-.387-.31-.843-.31-1.37 0-.52.104-.973.31-1.36a2.23 2.23 0 0 1 .86-.91c.374-.22.804-.33 1.29-.33.48 0 .894.11 1.24.33.354.213.624.497.81.85a2.398 2.398 0 0 1 .27 1.36v.25h-3.95c.02.38.107.697.26.95.16.247.357.433.59.56.24.127.494.19.76.19.347 0 .637-.08.87-.24.234-.16.404-.377.51-.65h.83c-.133.46-.39.843-.77 1.15-.373.3-.853.45-1.44.45zm0-4.49c-.4 0-.756.123-1.07.37-.306.24-.483.593-.53 1.06h3.12c-.02-.447-.173-.797-.46-1.05-.286-.253-.64-.38-1.06-.38zm6.01 1.82v-.71h3.96v.71h-3.96zm10.934 2.67c-.654 0-1.227-.15-1.72-.45a3.115 3.115 0 0 1-1.15-1.27c-.274-.547-.41-1.177-.41-1.89 0-.713.136-1.343.41-1.89.28-.547.673-.973 1.18-1.28.513-.307 1.116-.46 1.81-.46.786 0 1.44.19 1.96.57.526.38.866.903 1.02 1.57h-.97a1.609 1.609 0 0 0-.67-1c-.347-.247-.794-.37-1.34-.37-.514 0-.96.117-1.34.35-.38.227-.677.553-.89.98-.207.427-.31.937-.31 1.53s.103 1.103.31 1.53c.206.427.493.757.86.99.366.227.793.34 1.28.34.746 0 1.31-.217 1.69-.65.38-.44.596-1.04.65-1.8h-2.02v-.66h2.88V268h-.77l-.07-1.15c-.254.407-.564.72-.93.94-.367.22-.854.33-1.46.33zm6.738 0c-.473 0-.893-.107-1.26-.32a2.373 2.373 0 0 1-.87-.91c-.207-.387-.31-.843-.31-1.37 0-.52.103-.973.31-1.36.207-.393.493-.697.86-.91.373-.22.803-.33 1.29-.33.48 0 .893.11 1.24.33.353.213.623.497.81.85a2.398 2.398 0 0 1 .27 1.36v.25h-3.95c.02.38.107.697.26.95.16.247.357.433.59.56.24.127.493.19.76.19.347 0 .637-.08.87-.24.233-.16.403-.377.51-.65h.83c-.133.46-.39.843-.77 1.15-.373.3-.853.45-1.44.45zm0-4.49c-.4 0-.757.123-1.07.37-.307.24-.483.593-.53 1.06h3.12c-.02-.447-.173-.797-.46-1.05-.287-.253-.64-.38-1.06-.38zM286.3 268c-.453 0-.81-.11-1.07-.33-.26-.22-.39-.617-.39-1.19v-2.73h-.86v-.71h.86l.11-1.19h.73v1.19h1.46v.71h-1.46v2.73c0 .313.064.527.19.64.127.107.35.16.67.16h.52v.72h-.76zm4.824 0v-4.25h-.75v-.71h.75v-.86c0-.48.12-.83.36-1.05.24-.22.59-.33 1.05-.33h.5v.72h-.37c-.253 0-.433.053-.54.16-.107.1-.16.273-.16.52v.84h1.22v.71h-1.22V268h-.84zm3.06 0v-7.2h.84v7.2h-.84zm3.867.12c-.413 0-.757-.07-1.03-.21a1.43 1.43 0 0 1-.81-1.32c0-.507.193-.897.58-1.17.387-.273.913-.41 1.58-.41h1.34v-.06c0-.433-.113-.76-.34-.98-.227-.227-.53-.34-.91-.34-.327 0-.61.083-.85.25-.233.16-.38.397-.44.71h-.86c.033-.36.153-.663.36-.91.213-.247.477-.433.79-.56.313-.133.647-.2 1-.2.693 0 1.213.187 1.56.56.353.367.53.857.53 1.47V268h-.75l-.05-.89c-.14.28-.347.52-.62.72-.267.193-.627.29-1.08.29zm.13-.71c.32 0 .593-.083.82-.25.233-.167.41-.383.53-.65.12-.267.18-.547.18-.84v-.01h-1.27c-.493 0-.843.087-1.05.26-.2.167-.3.377-.3.63 0 .26.093.47.28.63.193.153.463.23.81.23zm5.453.59c-.453 0-.81-.11-1.07-.33-.26-.22-.39-.617-.39-1.19v-2.73h-.86v-.71h.86l.11-1.19h.73v1.19h1.46v.71h-1.46v2.73c0 .313.064.527.19.64.127.107.35.16.67.16h.52v.72h-.76zm6.424.87v-.77c-.653-.073-1.17-.307-1.55-.7-.38-.393-.57-.893-.57-1.5h.88c0 .353.103.67.31.95.213.273.523.45.93.53v-2.71c-.047-.013-.097-.027-.15-.04a1.119 1.119 0 0 0-.14-.05c-.54-.187-.94-.417-1.2-.69-.26-.28-.39-.643-.39-1.09-.007-.52.157-.953.49-1.3.34-.347.803-.547 1.39-.6v-.81h.69v.81c.56.067 1.007.277 1.34.63.333.353.503.783.51 1.29h-.88c0-.247-.08-.483-.24-.71-.16-.233-.403-.39-.73-.47v2.42c.053.013.107.03.16.05.053.02.11.037.17.05.333.12.633.26.9.42.267.16.473.367.62.62.153.253.23.577.23.97 0 .313-.077.61-.23.89-.153.28-.387.517-.7.71-.307.193-.69.307-1.15.34v.76h-.69zm-1.01-6.15c0 .307.09.54.27.7.18.153.427.287.74.4v-2.2c-.3.047-.543.167-.73.36-.187.187-.28.433-.28.74zm2.91 3.5c0-.387-.113-.673-.34-.86a2.745 2.745 0 0 0-.87-.46v2.5c.387-.047.683-.18.89-.4.213-.22.32-.48.32-.78zm1.951 1.78v-.59c.474-.373.92-.75 1.34-1.13.427-.387.804-.767 1.13-1.14a5.36 5.36 0 0 0 .78-1.1c.194-.36.29-.707.29-1.04 0-.247-.043-.477-.13-.69a1.046 1.046 0 0 0-.4-.51c-.186-.133-.44-.2-.76-.2-.306 0-.563.07-.77.21a1.278 1.278 0 0 0-.47.54c-.1.227-.15.47-.15.73h-.81c0-.46.097-.853.29-1.18.194-.333.457-.587.79-.76.334-.173.71-.26 1.13-.26.62 0 1.127.177 1.52.53.4.347.6.867.6 1.56 0 .413-.103.823-.31 1.23-.206.4-.47.79-.79 1.17-.32.373-.663.723-1.03 1.05-.36.327-.696.62-1.01.88h3.38v.7h-4.62zm8.465.12c-.62 0-1.156-.15-1.61-.45a2.961 2.961 0 0 1-1.03-1.27c-.24-.547-.36-1.18-.36-1.9s.12-1.35.36-1.89c.24-.547.584-.97 1.03-1.27.454-.307.99-.46 1.61-.46.62 0 1.154.153 1.6.46.447.3.79.723 1.03 1.27.24.54.36 1.17.36 1.89s-.12 1.353-.36 1.9c-.24.54-.583.963-1.03 1.27-.446.3-.98.45-1.6.45zm0-.74c.407 0 .77-.113 1.09-.34.327-.233.58-.563.76-.99.187-.433.28-.95.28-1.55 0-.6-.093-1.113-.28-1.54-.18-.427-.433-.753-.76-.98a1.805 1.805 0 0 0-1.09-.35c-.413 0-.78.117-1.1.35-.32.227-.573.553-.76.98-.186.427-.28.94-.28 1.54 0 .6.094 1.117.28 1.55.187.427.44.757.76.99.32.227.687.34 1.1.34zm9.06.74a2.5 2.5 0 0 1-1.26-.32 2.354 2.354 0 0 1-.89-.9c-.213-.393-.32-.853-.32-1.38 0-.527.11-.983.33-1.37a2.34 2.34 0 0 1 .89-.91c.38-.213.804-.32 1.27-.32.467 0 .887.107 1.26.32.374.213.667.517.88.91.22.387.33.843.33 1.37 0 .527-.11.987-.33 1.38a2.33 2.33 0 0 1-.9.9c-.373.213-.793.32-1.26.32zm0-.72c.287 0 .554-.07.8-.21.247-.14.447-.35.6-.63.154-.28.23-.627.23-1.04 0-.413-.076-.76-.23-1.04a1.496 1.496 0 0 0-.59-.63c-.246-.14-.51-.21-.79-.21-.286 0-.553.07-.8.21-.246.14-.446.35-.6.63-.153.28-.23.627-.23 1.04 0 .413.077.76.23 1.04.154.28.35.49.59.63.247.14.51.21.79.21zm3.928.6v-4.25h-.75v-.71h.75v-.86c0-.48.12-.83.36-1.05.24-.22.59-.33 1.05-.33h.5v.72h-.37c-.253 0-.433.053-.54.16-.106.1-.16.273-.16.52v.84h1.22v.71h-1.22V268h-.84zm3.33 0v-4.25h-.75v-.71h.75v-.86c0-.48.12-.83.36-1.05.24-.22.59-.33 1.05-.33h.5v.72h-.37c-.253 0-.433.053-.54.16-.106.1-.16.273-.16.52v.84h1.22v.71h-1.22V268h-.84zM154.34 283.12c-.413 0-.757-.07-1.03-.21a1.43 1.43 0 0 1-.81-1.32c0-.507.193-.897.58-1.17.387-.273.913-.41 1.58-.41H156v-.06c0-.433-.113-.76-.34-.98-.227-.227-.53-.34-.91-.34-.327 0-.61.083-.85.25-.233.16-.38.397-.44.71h-.86c.033-.36.153-.663.36-.91.213-.247.477-.433.79-.56.313-.133.647-.2 1-.2.693 0 1.213.187 1.56.56.353.367.53.857.53 1.47V283h-.75l-.05-.89c-.14.28-.347.52-.62.72-.267.193-.627.29-1.08.29zm.13-.71c.32 0 .593-.083.82-.25.233-.167.41-.383.53-.65.12-.267.18-.547.18-.84v-.01h-1.27c-.493 0-.843.087-1.05.26-.2.167-.3.377-.3.63 0 .26.093.47.28.63.193.153.463.23.81.23zm3.63.59v-7.2h.84v7.2h-.84zm2.217 0v-7.2h.84v7.2h-.84zm4.863 2.2v-7.16h.76l.08.82c.16-.24.387-.457.68-.65.3-.193.68-.29 1.14-.29.494 0 .924.113 1.29.34.367.227.65.537.85.93.207.393.31.84.31 1.34 0 .5-.103.947-.31 1.34a2.28 2.28 0 0 1-.86.92c-.366.22-.796.33-1.29.33-.406 0-.77-.083-1.09-.25a1.742 1.742 0 0 1-.72-.7v3.03h-.84zm2.56-2.81c.334 0 .627-.077.88-.23.254-.16.454-.38.6-.66.147-.28.22-.607.22-.98s-.073-.7-.22-.98a1.607 1.607 0 0 0-.6-.65 1.61 1.61 0 0 0-.88-.24 1.62 1.62 0 0 0-1.48.89c-.146.28-.22.607-.22.98s.074.7.22.98c.147.28.347.5.6.66.254.153.547.23.88.23zm5.53.73c-.587 0-1.054-.177-1.4-.53-.347-.36-.52-.91-.52-1.65v-2.9h.84v2.81c0 1.033.423 1.55 1.27 1.55.433 0 .79-.153 1.07-.46.286-.313.43-.757.43-1.33v-2.57h.84V283h-.76l-.06-.89c-.154.313-.384.56-.69.74-.3.18-.64.27-1.02.27zm3.912-.12v-4.96h.76l.07.95a1.8 1.8 0 0 1 .7-.78c.314-.193.7-.29 1.16-.29v.88h-.23c-.293 0-.563.053-.81.16-.246.1-.443.273-.59.52-.146.247-.22.587-.22 1.02v2.5h-.84zm5.727.12c-.473 0-.9-.107-1.28-.32a2.43 2.43 0 0 1-.89-.91c-.213-.393-.32-.85-.32-1.37 0-.52.107-.973.32-1.36a2.34 2.34 0 0 1 .89-.91c.38-.22.807-.33 1.28-.33.587 0 1.08.153 1.48.46.407.307.664.717.77 1.23h-.86a1.082 1.082 0 0 0-.49-.71 1.604 1.604 0 0 0-.91-.26c-.28 0-.543.07-.79.21-.246.14-.446.35-.6.63-.153.28-.23.627-.23 1.04 0 .413.077.76.23 1.04.154.28.354.493.6.64.247.14.51.21.79.21.347 0 .65-.083.91-.25.26-.173.424-.417.49-.73h.86c-.1.5-.353.907-.76 1.22-.406.313-.903.47-1.49.47zm3.424-.12v-7.2h.84v3.09c.166-.307.403-.543.71-.71a2 2 0 0 1 1-.26c.573 0 1.033.18 1.38.54.346.353.52.9.52 1.64v2.9h-.83v-2.81c0-1.033-.417-1.55-1.25-1.55-.434 0-.797.157-1.09.47-.294.307-.44.747-.44 1.32V283h-.84zm7.372.12c-.413 0-.756-.07-1.03-.21a1.435 1.435 0 0 1-.61-.56 1.51 1.51 0 0 1-.2-.76c0-.507.194-.897.58-1.17.387-.273.914-.41 1.58-.41h1.34v-.06c0-.433-.113-.76-.34-.98-.226-.227-.53-.34-.91-.34-.326 0-.61.083-.85.25-.233.16-.38.397-.44.71h-.86a1.62 1.62 0 0 1 .36-.91c.214-.247.477-.433.79-.56.314-.133.647-.2 1-.2.694 0 1.214.187 1.56.56.354.367.53.857.53 1.47V283h-.75l-.05-.89c-.14.28-.346.52-.62.72-.266.193-.626.29-1.08.29zm.13-.71c.32 0 .594-.083.82-.25.234-.167.41-.383.53-.65.12-.267.18-.547.18-.84v-.01h-1.27c-.493 0-.843.087-1.05.26-.2.167-.3.377-.3.63 0 .26.094.47.28.63.194.153.464.23.81.23zm5.53.71c-.593 0-1.086-.15-1.48-.45-.393-.3-.623-.707-.69-1.22h.86c.054.26.19.487.41.68.227.187.53.28.91.28.354 0 .614-.073.78-.22a.71.71 0 0 0 .25-.54c0-.3-.11-.5-.33-.6-.213-.1-.516-.19-.91-.27a5.152 5.152 0 0 1-.8-.23c-.266-.1-.49-.24-.67-.42-.18-.187-.27-.43-.27-.73 0-.433.16-.787.48-1.06.327-.28.767-.42 1.32-.42.527 0 .957.133 1.29.4.34.26.537.633.59 1.12h-.83a.839.839 0 0 0-.33-.59c-.18-.147-.423-.22-.73-.22-.3 0-.533.063-.7.19a.607.607 0 0 0-.24.5c0 .2.104.357.31.47.214.113.5.21.86.29.307.067.597.15.87.25.28.093.507.237.68.43.18.187.27.46.27.82.007.447-.163.817-.51 1.11-.34.287-.803.43-1.39.43zm5.33 0c-.473 0-.893-.107-1.26-.32a2.387 2.387 0 0 1-.87-.91c-.206-.387-.31-.843-.31-1.37 0-.52.104-.973.31-1.36a2.23 2.23 0 0 1 .86-.91c.374-.22.804-.33 1.29-.33.48 0 .894.11 1.24.33.354.213.624.497.81.85a2.398 2.398 0 0 1 .27 1.36v.25h-3.95c.02.38.107.697.26.95.16.247.357.433.59.56.24.127.494.19.76.19.347 0 .637-.08.87-.24.234-.16.404-.377.51-.65h.83c-.133.46-.39.843-.77 1.15-.373.3-.853.45-1.44.45zm0-4.49c-.4 0-.756.123-1.07.37-.306.24-.483.593-.53 1.06h3.12c-.02-.447-.173-.797-.46-1.05-.286-.253-.64-.38-1.06-.38zm5.364 4.49c-.594 0-1.087-.15-1.48-.45-.394-.3-.624-.707-.69-1.22h.86c.053.26.19.487.41.68.226.187.53.28.91.28.353 0 .613-.073.78-.22a.713.713 0 0 0 .25-.54c0-.3-.11-.5-.33-.6-.214-.1-.517-.19-.91-.27a5.09 5.09 0 0 1-.8-.23c-.267-.1-.49-.24-.67-.42-.18-.187-.27-.43-.27-.73 0-.433.16-.787.48-1.06.326-.28.766-.42 1.32-.42.526 0 .956.133 1.29.4.34.26.536.633.59 1.12h-.83a.846.846 0 0 0-.33-.59c-.18-.147-.424-.22-.73-.22-.3 0-.534.063-.7.19a.607.607 0 0 0-.24.5c0 .2.103.357.31.47.213.113.5.21.86.29.306.067.596.15.87.25.28.093.506.237.68.43.18.187.27.46.27.82.006.447-.164.817-.51 1.11-.34.287-.804.43-1.39.43zm3.39-.07a.587.587 0 0 1-.42-.16.575.575 0 0 1-.16-.41c0-.16.053-.293.16-.4a.57.57 0 0 1 .42-.17c.16 0 .293.057.4.17.113.107.17.24.17.4a.56.56 0 0 1-.17.41.542.542 0 0 1-.4.16zm4.309-.05v-7.2h.84v3.09a1.74 1.74 0 0 1 .71-.71c.307-.173.64-.26 1-.26.574 0 1.034.18 1.38.54.347.353.52.9.52 1.64v2.9h-.83v-2.81c0-1.033-.416-1.55-1.25-1.55-.433 0-.796.157-1.09.47-.293.307-.44.747-.44 1.32V283h-.84zm7.683 0c-.453 0-.81-.11-1.07-.33-.26-.22-.39-.617-.39-1.19v-2.73h-.86v-.71h.86l.11-1.19h.73v1.19h1.46v.71h-1.46v2.73c0 .313.063.527.19.64.127.107.35.16.67.16h.52v.72h-.76zm3.867 0c-.453 0-.81-.11-1.07-.33-.26-.22-.39-.617-.39-1.19v-2.73h-.86v-.71h.86l.11-1.19h.73v1.19h1.46v.71h-1.46v2.73c0 .313.064.527.19.64.127.107.35.16.67.16h.52v.72h-.76zm1.907 2.2v-7.16h.76l.08.82c.16-.24.387-.457.68-.65.3-.193.68-.29 1.14-.29.494 0 .924.113 1.29.34.367.227.65.537.85.93.207.393.31.84.31 1.34 0 .5-.103.947-.31 1.34a2.28 2.28 0 0 1-.86.92c-.366.22-.796.33-1.29.33-.406 0-.77-.083-1.09-.25a1.742 1.742 0 0 1-.72-.7v3.03h-.84zm2.56-2.81c.334 0 .627-.077.88-.23.254-.16.454-.38.6-.66.147-.28.22-.607.22-.98s-.073-.7-.22-.98a1.607 1.607 0 0 0-.6-.65 1.61 1.61 0 0 0-.88-.24 1.62 1.62 0 0 0-1.48.89c-.146.28-.22.607-.22.98s.074.7.22.98c.147.28.347.5.6.66.254.153.547.23.88.23zm4.01.66a.587.587 0 0 1-.42-.16.575.575 0 0 1-.16-.41c0-.16.053-.293.16-.4a.57.57 0 0 1 .42-.17c.16 0 .293.057.4.17.113.107.17.24.17.4a.56.56 0 0 1-.17.41.542.542 0 0 1-.4.16zm0-3.99a.587.587 0 0 1-.42-.16.575.575 0 0 1-.16-.41c0-.16.053-.293.16-.4a.57.57 0 0 1 .42-.17c.16 0 .293.057.4.17.113.107.17.24.17.4a.56.56 0 0 1-.17.41.542.542 0 0 1-.4.16zm1.292 4.89 2.51-8.59h.83l-2.51 8.59h-.83zm2.705 0 2.51-8.59h.83l-2.51 8.59h-.83zm6.077-.83c-.473 0-.893-.107-1.26-.32a2.387 2.387 0 0 1-.87-.91c-.206-.387-.31-.843-.31-1.37 0-.52.104-.973.31-1.36a2.23 2.23 0 0 1 .86-.91c.374-.22.804-.33 1.29-.33.48 0 .894.11 1.24.33.354.213.624.497.81.85a2.398 2.398 0 0 1 .27 1.36v.25h-3.95c.02.38.107.697.26.95.16.247.357.433.59.56.24.127.494.19.76.19.347 0 .637-.08.87-.24.234-.16.404-.377.51-.65h.83c-.133.46-.39.843-.77 1.15-.373.3-.853.45-1.44.45zm0-4.49c-.4 0-.756.123-1.07.37-.306.24-.483.593-.53 1.06h3.12c-.02-.447-.173-.797-.46-1.05-.286-.253-.64-.38-1.06-.38zm5.364 4.49c-.594 0-1.087-.15-1.48-.45-.394-.3-.624-.707-.69-1.22h.86c.053.26.19.487.41.68.226.187.53.28.91.28.353 0 .613-.073.78-.22a.713.713 0 0 0 .25-.54c0-.3-.11-.5-.33-.6-.214-.1-.517-.19-.91-.27a5.09 5.09 0 0 1-.8-.23c-.267-.1-.49-.24-.67-.42-.18-.187-.27-.43-.27-.73 0-.433.16-.787.48-1.06.326-.28.766-.42 1.32-.42.526 0 .956.133 1.29.4.34.26.536.633.59 1.12h-.83a.846.846 0 0 0-.33-.59c-.18-.147-.424-.22-.73-.22-.3 0-.534.063-.7.19a.607.607 0 0 0-.24.5c0 .2.103.357.31.47.213.113.5.21.86.29.306.067.596.15.87.25.28.093.506.237.68.43.18.187.27.46.27.82.006.447-.164.817-.51 1.11-.34.287-.804.43-1.39.43zm3.1-.12v-7.2h.84v3.09c.166-.307.403-.543.71-.71a2 2 0 0 1 1-.26c.573 0 1.033.18 1.38.54.346.353.52.9.52 1.64v2.9h-.83v-2.81c0-1.033-.417-1.55-1.25-1.55-.434 0-.797.157-1.09.47-.294.307-.44.747-.44 1.32V283h-.84zm7.982.12a2.5 2.5 0 0 1-1.26-.32 2.354 2.354 0 0 1-.89-.9c-.213-.393-.32-.853-.32-1.38 0-.527.11-.983.33-1.37a2.34 2.34 0 0 1 .89-.91c.38-.213.804-.32 1.27-.32.467 0 .887.107 1.26.32.374.213.667.517.88.91.22.387.33.843.33 1.37 0 .527-.11.987-.33 1.38a2.33 2.33 0 0 1-.9.9c-.373.213-.793.32-1.26.32zm0-.72c.287 0 .554-.07.8-.21.247-.14.447-.35.6-.63.154-.28.23-.627.23-1.04 0-.413-.076-.76-.23-1.04a1.496 1.496 0 0 0-.59-.63c-.246-.14-.51-.21-.79-.21-.286 0-.553.07-.8.21-.246.14-.446.35-.6.63-.153.28-.23.627-.23 1.04 0 .413.077.76.23 1.04.154.28.35.49.59.63.247.14.51.21.79.21zm3.658 2.8v-7.16h.76l.08.82c.16-.24.387-.457.68-.65.3-.193.68-.29 1.14-.29.494 0 .924.113 1.29.34.367.227.65.537.85.93.207.393.31.84.31 1.34 0 .5-.103.947-.31 1.34a2.28 2.28 0 0 1-.86.92c-.366.22-.796.33-1.29.33-.406 0-.77-.083-1.09-.25a1.742 1.742 0 0 1-.72-.7v3.03h-.84zm2.56-2.81c.334 0 .627-.077.88-.23.254-.16.454-.38.6-.66.147-.28.22-.607.22-.98s-.073-.7-.22-.98a1.607 1.607 0 0 0-.6-.65 1.61 1.61 0 0 0-.88-.24 1.62 1.62 0 0 0-1.48.89c-.146.28-.22.607-.22.98s.074.7.22.98c.147.28.347.5.6.66.254.153.547.23.88.23zm4.01.66a.587.587 0 0 1-.42-.16.575.575 0 0 1-.16-.41c0-.16.053-.293.16-.4a.57.57 0 0 1 .42-.17c.16 0 .293.057.4.17.113.107.17.24.17.4a.56.56 0 0 1-.17.41.542.542 0 0 1-.4.16zm3.943.07c-.473 0-.9-.107-1.28-.32a2.43 2.43 0 0 1-.89-.91c-.213-.393-.32-.85-.32-1.37 0-.52.107-.973.32-1.36a2.34 2.34 0 0 1 .89-.91c.38-.22.807-.33 1.28-.33.587 0 1.08.153 1.48.46.407.307.663.717.77 1.23h-.86a1.085 1.085 0 0 0-.49-.71 1.604 1.604 0 0 0-.91-.26 1.562 1.562 0 0 0-1.39.84c-.153.28-.23.627-.23 1.04 0 .413.077.76.23 1.04.153.28.353.493.6.64.247.14.51.21.79.21.347 0 .65-.083.91-.25.26-.173.423-.417.49-.73h.86c-.1.5-.353.907-.76 1.22-.407.313-.903.47-1.49.47zm5.683 0c-.467 0-.887-.107-1.26-.32a2.354 2.354 0 0 1-.89-.9c-.213-.393-.32-.853-.32-1.38 0-.527.11-.983.33-1.37a2.34 2.34 0 0 1 .89-.91c.38-.213.803-.32 1.27-.32.467 0 .887.107 1.26.32.373.213.667.517.88.91.22.387.33.843.33 1.37 0 .527-.11.987-.33 1.38a2.33 2.33 0 0 1-.9.9c-.373.213-.793.32-1.26.32zm0-.72c.287 0 .553-.07.8-.21.247-.14.447-.35.6-.63.153-.28.23-.627.23-1.04 0-.413-.077-.76-.23-1.04a1.503 1.503 0 0 0-.59-.63c-.247-.14-.51-.21-.79-.21-.287 0-.553.07-.8.21-.247.14-.447.35-.6.63-.153.28-.23.627-.23 1.04 0 .413.077.76.23 1.04.153.28.35.49.59.63.247.14.51.21.79.21zm3.658.6v-4.96h.76l.06.72c.16-.267.373-.473.64-.62.267-.147.567-.22.9-.22.393 0 .73.08 1.01.24.287.16.507.403.66.73.173-.3.41-.537.71-.71.307-.173.637-.26.99-.26.593 0 1.067.18 1.42.54.353.353.53.9.53 1.64v2.9h-.83v-2.81c0-.513-.103-.9-.31-1.16-.207-.26-.503-.39-.89-.39-.4 0-.733.157-1 .47-.26.307-.39.747-.39 1.32V283h-.84v-2.81c0-.513-.103-.9-.31-1.16-.207-.26-.503-.39-.89-.39-.393 0-.723.157-.99.47-.26.307-.39.747-.39 1.32V283h-.84zm8.535.95 2.51-8.59h.83l-2.51 8.59h-.83zm4.947-.95 2.78-6.28h-3.84V276h4.7v.63l-2.75 6.37h-.89zm6.366.12c-.494 0-.927-.113-1.3-.34a2.36 2.36 0 0 1-.86-.93c-.2-.393-.3-.84-.3-1.34 0-.5.103-.943.31-1.33.206-.393.493-.7.86-.92.366-.227.8-.34 1.3-.34.406 0 .766.083 1.08.25.313.167.556.4.73.7v-3.07h.84v7.2h-.76l-.08-.82c-.16.24-.39.457-.69.65-.3.193-.677.29-1.13.29zm.09-.73c.333 0 .626-.077.88-.23.26-.16.46-.38.6-.66.146-.28.22-.607.22-.98s-.074-.7-.22-.98c-.14-.28-.34-.497-.6-.65a1.615 1.615 0 0 0-.88-.24c-.327 0-.62.08-.88.24-.254.153-.454.37-.6.65-.14.28-.21.607-.21.98s.07.7.21.98c.146.28.346.5.6.66.26.153.553.23.88.23zm5.839.73c-.593 0-1.087-.15-1.48-.45-.393-.3-.623-.707-.69-1.22h.86c.053.26.19.487.41.68.227.187.53.28.91.28.353 0 .613-.073.78-.22a.71.71 0 0 0 .25-.54c0-.3-.11-.5-.33-.6-.213-.1-.517-.19-.91-.27a5.121 5.121 0 0 1-.8-.23c-.267-.1-.49-.24-.67-.42-.18-.187-.27-.43-.27-.73 0-.433.16-.787.48-1.06.327-.28.767-.42 1.32-.42.527 0 .957.133 1.29.4.34.26.537.633.59 1.12h-.83a.839.839 0 0 0-.33-.59c-.18-.147-.423-.22-.73-.22-.3 0-.533.063-.7.19a.607.607 0 0 0-.24.5c0 .2.103.357.31.47.213.113.5.21.86.29.307.067.597.15.87.25.28.093.507.237.68.43.18.187.27.46.27.82.007.447-.163.817-.51 1.11-.34.287-.803.43-1.39.43zm5.06-1.68c-.28 0-.537-.037-.77-.11l-.5.47c.073.053.163.1.27.14a4.1 4.1 0 0 0 .48.1c.207.027.497.057.87.09.667.047 1.143.2 1.43.46.287.26.43.6.43 1.02 0 .287-.08.56-.24.82-.153.26-.393.473-.72.64-.32.167-.733.25-1.24.25a3.63 3.63 0 0 1-1.19-.18c-.347-.113-.617-.29-.81-.53-.193-.233-.29-.53-.29-.89 0-.187.05-.39.15-.61.1-.213.287-.417.56-.61a2.488 2.488 0 0 1-.38-.19 2.378 2.378 0 0 1-.28-.24v-.23l.85-.84c-.393-.333-.59-.773-.59-1.32 0-.327.077-.623.23-.89.153-.267.377-.477.67-.63.293-.16.65-.24 1.07-.24.287 0 .547.04.78.12h1.83v.63l-.93.04c.193.28.29.603.29.97 0 .327-.08.623-.24.89-.153.267-.377.48-.67.64-.287.153-.64.23-1.06.23zm0-.69c.353 0 .633-.09.84-.27.213-.187.32-.453.32-.8 0-.34-.107-.6-.32-.78-.207-.187-.487-.28-.84-.28-.36 0-.647.093-.86.28-.207.18-.31.44-.31.78 0 .347.103.613.31.8.213.18.5.27.86.27zm-1.46 2.89c0 .333.14.58.42.74.28.167.63.25 1.05.25.413 0 .743-.09.99-.27.253-.18.38-.42.38-.72 0-.213-.087-.4-.26-.56-.173-.153-.493-.243-.96-.27-.367-.027-.683-.06-.95-.1-.273.147-.453.303-.54.47a1.05 1.05 0 0 0-.13.46z" fill="#000"/>
    <path fill-rule="evenodd" clip-rule="evenodd" d="M352 245H140v-13c0-9.389 7.611-17 17-17h178c9.389 0 17 7.611 17 17v13z" fill="#FF2B2B"/>
    <path d="M243 123.482a2.503 2.503 0 0 0 1.543 2.308 2.508 2.508 0 0 0 2.725-.542 2.495 2.495 0 0 0-.379-3.843 2.506 2.506 0 0 0-3.157.311 2.495 2.495 0 0 0-.732 1.766zM231 123.482a2.503 2.503 0 0 0 1.543 2.308 2.508 2.508 0 0 0 2.725-.542 2.495 2.495 0 0 0-.379-3.843 2.506 2.506 0 0 0-3.157.311 2.495 2.495 0 0 0-.732 1.766zM219 123.472a2.495 2.495 0 0 0 1.536 2.315 2.496 2.496 0 0 0 2.354-4.381 2.5 2.5 0 0 0-3.89 2.066z" fill="#fff"/>
    <path d="M353.015 230c8.828 0 15.978-7.163 15.97-16-.009-8.837-7.172-16-16-16s-15.978 7.163-15.97 16c.009 8.837 7.172 16 16 16z" fill="#7FA8FA"/>
    <path d="M354.567 221.238h-2.262v-12.907L350 209.662v-2.221l2.305-1.441h2.262v15.238z" fill="#F8F9FC"/>
    <g opacity=".61" fill="#E9F0FE">
        <path d="M283.006 336.008h-26.012a.99.99 0 0 1-.703-.293 1.002 1.002 0 0 1 .703-1.705h26.012a.993.993 0 0 1 .994.999c0 .265-.105.519-.291.706a.99.99 0 0 1-.703.293zM339.002 336.008h-40.004a.999.999 0 0 1 0-1.998h40.004c.264 0 .518.105.706.292a1.002 1.002 0 0 1 0 1.413.999.999 0 0 1-.706.293zM322.999 346h-65.998a1 1 0 1 1 0-1.998h65.998a1.001 1.001 0 0 1 1.001.999 1 1 0 0 1-1.001.999zM114.995 322.022h-67.99a1.01 1.01 0 0 1-.71-.293.994.994 0 0 1 0-1.413 1.01 1.01 0 0 1 .71-.293h67.99a.998.998 0 1 1 0 1.999zM114.995 301.039h-67.99a.998.998 0 1 1 0-1.998h67.99c.267 0 .522.105.711.293a.996.996 0 0 1-.711 1.705zM114.012 311.031H77.988a.983.983 0 0 1-.699-.292 1.007 1.007 0 0 1 0-1.413.98.98 0 0 1 .699-.293h36.024c.262 0 .513.105.699.293a1.004 1.004 0 0 1 0 1.413.986.986 0 0 1-.699.292zM114.012 290.049H77.988a.98.98 0 0 1-.699-.293 1.003 1.003 0 0 1 0-1.413.983.983 0 0 1 .699-.292h36.024c.262 0 .513.105.699.292a1.008 1.008 0 0 1 0 1.413.982.982 0 0 1-.699.293zM114.985 280.059h-24.97c-.27 0-.527-.106-.718-.293a.99.99 0 0 1 0-1.413c.19-.187.449-.292.718-.292h24.97c.269 0 .527.105.718.292a.99.99 0 0 1 0 1.413 1.027 1.027 0 0 1-.718.293z"/>
    </g>
    <circle opacity=".5" cx="160" cy="230" r="9" fill="#FFE6E6"/>
    <path d="M176.684 234.144c-.616 0-1.16-.104-1.632-.312a2.682 2.682 0 0 1-1.116-.912c-.272-.4-.412-.884-.42-1.452h1.62c.016.392.156.724.42.996.272.264.644.396 1.116.396.408 0 .732-.096.972-.288a.98.98 0 0 0 .36-.792c0-.344-.108-.612-.324-.804-.208-.192-.488-.348-.84-.468l-1.128-.384c-.648-.224-1.144-.512-1.488-.864-.336-.352-.504-.82-.504-1.404-.008-.496.108-.92.348-1.272.248-.36.584-.636 1.008-.828.424-.2.912-.3 1.464-.3.56 0 1.052.1 1.476.3.432.2.768.48 1.008.84.248.36.38.788.396 1.284h-1.644a1.115 1.115 0 0 0-.348-.78c-.216-.232-.52-.348-.912-.348-.336-.008-.62.076-.852.252-.224.168-.336.416-.336.744 0 .28.088.504.264.672.176.16.416.296.72.408.304.112.652.232 1.044.36a7.1 7.1 0 0 1 1.14.504c.344.192.62.448.828.768.208.312.312.716.312 1.212 0 .44-.112.848-.336 1.224-.224.376-.556.68-.996.912-.44.224-.98.336-1.62.336zm7.148 0c-.6 0-1.132-.128-1.596-.384a2.78 2.78 0 0 1-1.092-1.08c-.264-.464-.396-1-.396-1.608 0-.616.128-1.164.384-1.644.264-.48.624-.852 1.08-1.116.464-.272 1.008-.408 1.632-.408.584 0 1.1.128 1.548.384.448.256.796.608 1.044 1.056.256.44.384.932.384 1.476 0 .088-.004.18-.012.276 0 .096-.004.196-.012.3h-4.524c.032.464.192.828.48 1.092a1.55 1.55 0 0 0 1.068.396c.312 0 .572-.068.78-.204.216-.144.376-.328.48-.552h1.56c-.112.376-.3.72-.564 1.032a2.712 2.712 0 0 1-.96.72 2.995 2.995 0 0 1-1.284.264zm.012-4.992c-.376 0-.708.108-.996.324-.288.208-.472.528-.552.96h2.964c-.024-.392-.168-.704-.432-.936-.264-.232-.592-.348-.984-.348zm6.32 4.992c-.512 0-.932-.08-1.26-.24a1.74 1.74 0 0 1-.732-.66 1.742 1.742 0 0 1-.24-.9c0-.552.216-1 .648-1.344.432-.344 1.08-.516 1.944-.516h1.512v-.144c0-.408-.116-.708-.348-.9-.232-.192-.52-.288-.864-.288-.312 0-.584.076-.816.228a.935.935 0 0 0-.432.648h-1.5c.04-.432.184-.808.432-1.128a2.45 2.45 0 0 1 .984-.732c.4-.176.848-.264 1.344-.264.848 0 1.516.212 2.004.636.488.424.732 1.024.732 1.8V234h-1.308l-.144-.96a2.2 2.2 0 0 1-.744.792c-.312.208-.716.312-1.212.312zm.348-1.2c.44 0 .78-.144 1.02-.432.248-.288.404-.644.468-1.068h-1.308c-.408 0-.7.076-.876.228a.67.67 0 0 0-.264.54c0 .232.088.412.264.54.176.128.408.192.696.192zm7.096 1.056c-.624 0-1.124-.152-1.5-.456-.376-.304-.564-.844-.564-1.62v-2.592h-1.02v-1.284h1.02l.18-1.596h1.356v1.596h1.608v1.284h-1.608v2.604c0 .288.06.488.18.6.128.104.344.156.648.156h.744V234h-1.044zm5.294 0v-8.4h2.868c.984 0 1.792.176 2.424.528.64.344 1.112.832 1.416 1.464.312.624.468 1.36.468 2.208 0 .848-.156 1.588-.468 2.22a3.291 3.291 0 0 1-1.416 1.464c-.632.344-1.44.516-2.424.516h-2.868zm1.536-1.32h1.26c.704 0 1.26-.112 1.668-.336.408-.232.7-.56.876-.984.176-.432.264-.952.264-1.56 0-.6-.088-1.116-.264-1.548a1.972 1.972 0 0 0-.876-.996c-.408-.232-.964-.348-1.668-.348h-1.26v5.772zm6.959 1.32v-5.952h1.368l.144 1.116a2.46 2.46 0 0 1 .876-.912c.376-.232.816-.348 1.32-.348v1.62h-.432a2.44 2.44 0 0 0-.9.156 1.241 1.241 0 0 0-.624.54c-.144.256-.216.612-.216 1.068V234h-1.536zm7.509.144a3.098 3.098 0 0 1-1.56-.396 2.979 2.979 0 0 1-1.092-1.092c-.264-.472-.396-1.016-.396-1.632 0-.616.136-1.156.408-1.62.272-.472.636-.84 1.092-1.104a3.098 3.098 0 0 1 1.56-.396c.568 0 1.08.132 1.536.396a2.84 2.84 0 0 1 1.092 1.104c.272.464.408 1.004.408 1.62 0 .616-.136 1.16-.408 1.632a2.864 2.864 0 0 1-1.092 1.092c-.464.264-.98.396-1.548.396zm0-1.332c.4 0 .748-.148 1.044-.444.296-.304.444-.752.444-1.344 0-.592-.148-1.036-.444-1.332-.296-.304-.64-.456-1.032-.456-.408 0-.76.152-1.056.456-.288.296-.432.74-.432 1.332 0 .592.144 1.04.432 1.344.296.296.644.444 1.044.444zm5.249-5.688a.993.993 0 0 1-.696-.252.842.842 0 0 1-.264-.636c0-.256.088-.464.264-.624a.993.993 0 0 1 .696-.252c.28 0 .508.084.684.252.184.16.276.368.276.624a.824.824 0 0 1-.276.636c-.176.168-.404.252-.684.252zm-.768 6.876v-5.952h1.536V234h-1.536zm5.875.144c-.56 0-1.06-.136-1.5-.408a2.923 2.923 0 0 1-1.044-1.116c-.256-.472-.384-1.008-.384-1.608 0-.6.128-1.132.384-1.596.256-.472.604-.84 1.044-1.104.44-.272.94-.408 1.5-.408.448 0 .84.084 1.176.252.336.168.608.404.816.708v-3.504h1.536V234h-1.368l-.168-.852a2.706 2.706 0 0 1-.768.696c-.312.2-.72.3-1.224.3zm.324-1.344c.496 0 .9-.164 1.212-.492.32-.336.48-.764.48-1.284s-.16-.944-.48-1.272c-.312-.336-.716-.504-1.212-.504-.488 0-.892.164-1.212.492-.32.328-.48.752-.48 1.272s.16.948.48 1.284c.32.336.724.504 1.212.504zM314.552 236.096c-.411 0-.765-.072-1.064-.216a1.763 1.763 0 0 1-.696-.592 1.857 1.857 0 0 1-.288-.864h1a.996.996 0 0 0 .352.576c.187.149.419.224.696.224a.911.911 0 0 0 .728-.328c.192-.219.288-.491.288-.816 0-.336-.096-.603-.288-.8a.94.94 0 0 0-.712-.296c-.24 0-.448.059-.624.176a.99.99 0 0 0-.376.44h-.984l.48-3.2h3.104v.896h-2.336l-.256 1.296c.117-.128.277-.232.48-.312.203-.085.429-.128.68-.128.4 0 .733.091 1 .272.267.176.469.411.608.704.139.288.208.603.208.944 0 .389-.085.736-.256 1.04-.165.304-.4.544-.704.72a2.01 2.01 0 0 1-1.04.264zm2.929-.096v-3.968h.904l.088.536c.128-.192.296-.344.504-.456.213-.117.459-.176.736-.176.613 0 1.048.237 1.304.712.144-.219.336-.392.576-.52.245-.128.512-.192.8-.192.517 0 .915.155 1.192.464.277.309.416.763.416 1.36V236h-1.024v-2.144c0-.341-.067-.603-.2-.784-.128-.181-.328-.272-.6-.272a.836.836 0 0 0-.672.304c-.165.203-.248.485-.248.848V236h-1.024v-2.144c0-.341-.067-.603-.2-.784-.133-.181-.339-.272-.616-.272a.827.827 0 0 0-.664.304c-.165.203-.248.485-.248.848V236h-1.024zm10.766.096c-.341 0-.621-.053-.84-.16a1.168 1.168 0 0 1-.488-.44 1.166 1.166 0 0 1-.16-.6c0-.368.144-.667.432-.896.288-.229.72-.344 1.296-.344h1.008v-.096c0-.272-.077-.472-.232-.6a.87.87 0 0 0-.576-.192.973.973 0 0 0-.544.152.628.628 0 0 0-.288.432h-1c.027-.288.123-.539.288-.752.171-.213.39-.376.656-.488a2.21 2.21 0 0 1 .896-.176c.566 0 1.011.141 1.336.424.326.283.488.683.488 1.2V236h-.872l-.096-.64a1.464 1.464 0 0 1-.496.528c-.208.139-.477.208-.808.208zm.232-.8c.294 0 .52-.096.68-.288.166-.192.27-.429.312-.712h-.872c-.272 0-.466.051-.584.152a.448.448 0 0 0-.176.36.42.42 0 0 0 .176.36.775.775 0 0 0 .464.128zm4.698-.48c-.192 0-.371-.021-.536-.064l-.296.296c.09.048.213.088.368.12.154.032.405.064.752.096.528.048.912.173 1.152.376.24.203.36.483.36.84 0 .235-.064.456-.192.664a1.347 1.347 0 0 1-.592.512c-.267.133-.608.2-1.024.2-.566 0-1.022-.107-1.368-.32-.347-.208-.52-.523-.52-.944 0-.357.173-.667.52-.928a1.957 1.957 0 0 1-.28-.152 1.466 1.466 0 0 1-.2-.168v-.184l.696-.736a1.33 1.33 0 0 1-.464-1.048c0-.267.064-.509.192-.728.133-.219.32-.392.56-.52.24-.128.53-.192.872-.192.224 0 .432.032.624.096h1.504v.624l-.68.048c.106.203.16.427.16.672a1.357 1.357 0 0 1-.752 1.248c-.24.128-.526.192-.856.192zm0-.784a.77.77 0 0 0 .512-.168c.138-.112.208-.272.208-.48 0-.208-.07-.368-.208-.48a.77.77 0 0 0-.512-.168c-.219 0-.395.056-.528.168-.134.112-.2.272-.2.48 0 .208.066.368.2.48.133.112.309.168.528.168zm-.96 2.456c0 .197.09.344.272.44.186.101.413.152.68.152.256 0 .464-.053.624-.16a.47.47 0 0 0 .24-.416.466.466 0 0 0-.16-.36c-.102-.096-.307-.155-.616-.176a6.315 6.315 0 0 1-.608-.072.951.951 0 0 0-.336.28.576.576 0 0 0-.096.312zm5.582-.392c-.384 0-.731-.088-1.04-.264a1.986 1.986 0 0 1-.728-.728 2.191 2.191 0 0 1-.264-1.088c0-.411.091-.771.272-1.08.181-.315.424-.56.728-.736a2.065 2.065 0 0 1 1.04-.264c.379 0 .72.088 1.024.264.309.176.552.421.728.736.181.309.272.669.272 1.08 0 .411-.091.773-.272 1.088a1.914 1.914 0 0 1-.728.728 2.048 2.048 0 0 1-1.032.264zm0-.888a.953.953 0 0 0 .696-.296c.197-.203.296-.501.296-.896s-.099-.691-.296-.888a.947.947 0 0 0-1.392 0c-.192.197-.288.493-.288.888s.096.693.288.896a.953.953 0 0 0 .696.296z" fill="#F8F9FC"/>
</svg>
