<svg width="56" height="56" viewBox="0 0 56 56" fill="none" xmlns="http://www.w3.org/2000/svg">
    <g clip-path="url(#gbqbpnpg0a)">
        <path opacity=".3" d="M38.784 13.576v25.157c-8.773 0-15.875-7.11-15.875-15.875v-9.282h15.875z" fill="#B9D7FF"/>
        <path d="M39.675 9.75v41.914c0 1.46-1.18 2.639-2.639 2.639h-21.89a2.636 2.636 0 0 1-2.64-2.639V9.75c0-1.46 1.18-2.639 2.64-2.639h21.89a2.642 2.642 0 0 1 2.64 2.64z" fill="#fff"/>
        <path opacity=".3" d="m37 46.5-22.091.339c-.506 0-1.551-.537-1.909 0-.358.537 0 2.105 0 2.864V54l26-.5.5-4c0-.76-.142-1.963-.5-2.5-.358-.538-1.494-.5-2-.5zM54.303 16.248V2.468c-8.804 0-11.879 3.637-11.879 10.123v6.076h9.432a2.426 2.426 0 0 0 2.447-2.419z" fill="red"/>
        <path d="M7.89 33.548a5.24 5.24 0 1 1 10.48 0H7.89z" fill="#fff"/>
        <path d="M15.663 25.776c0 1.4-1.137 2.537-2.537 2.537a2.538 2.538 0 0 1-2.537-2.537c0-1.4 1.137-2.537 2.537-2.537s2.537 1.137 2.537 2.537zm8.841 2.614v-6.228a2.104 2.104 0 0 0-2.104-2.105H11.42c0 1.01.815 1.825 1.825 1.825h9.435v4.7c0 1.002.814 1.808 1.824 1.808z" fill="#fff"/>
        <path d="M12.507 13.828h18.989a.735.735 0 1 0 0-1.472h-18.99a.741.741 0 0 0-.736.736c0 .403.333.736.737.736zm0 33.38h27.168a.741.741 0 0 0 .736-.737.74.74 0 0 0-.736-.736H12.507a.741.741 0 0 0-.737.736c0 .403.333.737.737.737z" fill="#004498" stroke="#004498" stroke-width=".2"/>
        <path d="m11.764 37.137.006 14.527a3.377 3.377 0 0 0 3.375 3.375h21.891a3.377 3.377 0 0 0 3.375-3.375V18.5a.741.741 0 0 0-.736-.736.741.741 0 0 0-.736.736v33.164a1.906 1.906 0 0 1-1.903 1.903h-21.89a1.906 1.906 0 0 1-1.903-1.903l-.006-14.527a.741.741 0 0 0-.736-.737.74.74 0 0 0-.737.737zm.006-17.079c0 .403.333.737.737.737a.737.737 0 0 0 .736-.745V9.75c0-1.049.854-1.903 1.902-1.903h16.35a.74.74 0 0 0 .737-.737.74.74 0 0 0-.736-.736h-16.35a3.377 3.377 0 0 0-3.376 3.375v10.31z" fill="#004498" stroke="#004498" stroke-width=".2"/>
        <path d="M24.147 51.12h3.878a.735.735 0 1 0 0-1.473h-3.878a.741.741 0 0 0-.736.736c0 .403.333.737.736.737zm2.13-40.286h2.707a.735.735 0 1 0 0-1.473h-2.707a.741.741 0 0 0-.736.736c0 .404.333.737.736.737zm-3.088 0h.398a.735.735 0 1 0 0-1.473h-.398a.741.741 0 0 0-.737.736c0 .404.333.737.737.737z" fill="#004498" stroke="#004498" stroke-width=".2"/>
        <path d="M42.38 3.95h1.93c.126 0 .246.054.334.149a.521.521 0 0 1 .137.355v2.43c0 .133-.049.26-.137.355a.457.457 0 0 1-.335.149h-1.124a.808.808 0 0 0-.59.265.943.943 0 0 0-.246.64v.485h2.23c.072 0 .144.018.208.052.065.034.12.084.164.144a.524.524 0 0 1 .084.437l-.562 2.418-.048-.01a.458.458 0 0 1-.15.247.404.404 0 0 1-.258.097L42.38 3.95zm0 0c-.901.001-1.766.387-2.402 1.072a3.796 3.796 0 0 0-.995 2.579v1.135M42.38 3.95l-3.398 4.786m0 0h-1.56a.457.457 0 0 0-.336.149.522.522 0 0 0-.137.354v2.47c0 .133.05.26.137.355a.457.457 0 0 0 .335.149h1.56v4.334c0 .132.05.26.138.354a.457.457 0 0 0 .335.15h2.566a.457.457 0 0 0 .335-.15.521.521 0 0 0 .137-.354v-4.334l-3.51-3.477zm3.398-3.779h1.445V6.37h-.641c-.474 0-.926.203-1.26.562-.332.36-.519.845-.519 1.35v1.01c0 .132.049.26.137.355a.457.457 0 0 0 .335.148h2.098l-.33 1.412H42.02a.457.457 0 0 0-.335.149.521.521 0 0 0-.137.354v4.334h-1.623V11.71a.521.521 0 0 0-.137-.355.457.457 0 0 0-.334-.149h-1.561V9.743h1.56a.457.457 0 0 0 .335-.149.522.522 0 0 0 .137-.355V7.601c0-.702.26-1.375.721-1.87a2.372 2.372 0 0 1 1.734-.774z" fill="#004498" stroke="#004498" stroke-width=".1"/>
        <path d="M31.872 25.088c.225.1.459.144.692.144.46 0 .91-.18 1.259-.53l5.583-5.583a.74.74 0 0 0 0-1.04.74.74 0 0 0-1.041 0l-5.583 5.582a.307.307 0 0 1-.347.073.31.31 0 0 1-.195-.299V3.801c0-.75.609-1.368 1.368-1.368h18.53c.76 0 1.377.61 1.377 1.368v12.694c0 .75-.617 1.367-1.376 1.367h-9.537a.741.741 0 0 0-.737.737c0 .403.334.736.737.736h9.537a2.847 2.847 0 0 0 2.849-2.84V3.8a2.852 2.852 0 0 0-2.85-2.84h-18.53a2.845 2.845 0 0 0-2.84 2.84v19.634a1.78 1.78 0 0 0 1.104 1.654z" fill="#004498" stroke="#004498" stroke-width=".2"/>
        <path d="M16.462 29.804c.57.34.682.314.682.658 0 .315-.744 1.333-1.587 1.333-1.233 0-2.58-.75-3.639-1.766-1.029-1.045-1.788-2.376-1.788-3.594 0-.833 1.031-1.567 1.35-1.567.348 0 .322.11.666.674.192.313.646.903.56 1.123-.123.314-.87.682-.87.907 0 .748 1.813 2.538 2.57 2.538.227 0 .6-.738.918-.859.223-.085.82.364 1.138.553z" stroke="#004498" stroke-width=".5" stroke-miterlimit="2.613" stroke-linecap="round" stroke-linejoin="round"/>
        <path d="M17.821 24.156c2.438 2.408 2.489 6.262.113 8.609-2.07 2.044-5.298 2.27-7.707.702L7.32 34.684l1.112-2.97c-1.63-2.385-1.416-5.61.67-7.67 2.377-2.347 6.28-2.297 8.718.112zm-.677 6.306c0-.344-.111-.319-.682-.658-.318-.19-.915-.638-1.138-.553-.318.12-.69.859-.918.86-.758-.001-2.57-1.79-2.57-2.54 0-.224.747-.592.87-.906.086-.22-.368-.81-.56-1.123-.344-.564-.318-.674-.667-.674-.318 0-1.35.734-1.35 1.567.001 1.218.76 2.549 1.79 3.594 1.057 1.016 2.405 1.766 3.638 1.766.843 0 1.587-1.018 1.587-1.333z" stroke="#004498" stroke-width=".5" stroke-miterlimit="2.613" stroke-linecap="round" stroke-linejoin="round"/>
        <path d="M15.558 32.111c-1.228 0-2.636-.677-3.863-1.856l-.006-.006c-1.194-1.212-1.879-2.602-1.88-3.814 0-.446.232-.916.652-1.322.29-.28.716-.561 1.018-.561.466 0 .59.216.777.545.045.08.097.171.164.281.038.062.09.14.144.221.343.517.559.878.44 1.18-.092.235-.337.428-.574.615-.088.07-.213.168-.269.228.043.236.356.736.903 1.276.545.539 1.05.848 1.29.89.06-.054.16-.177.23-.263.19-.235.386-.478.625-.569a.501.501 0 0 1 .18-.032c.272 0 .592.194 1.015.467.083.054.161.105.223.142.112.066.204.118.285.163.333.185.553.307.553.766 0 .299-.286.72-.57 1.006-.41.415-.886.643-1.337.643zm-3.413-2.306c1.092 1.048 2.367 1.673 3.412 1.674.633 0 1.234-.81 1.267-1.022a.484.484 0 0 0-.005-.077 2.056 2.056 0 0 0-.221-.133c-.081-.045-.182-.101-.301-.172a8.216 8.216 0 0 1-.245-.155c-.165-.107-.498-.323-.64-.359-.087.061-.24.251-.328.358-.22.272-.409.507-.677.508-.651-.001-1.54-.828-1.796-1.082-.257-.254-1.095-1.13-1.095-1.773 0-.266.238-.454.515-.672.108-.085.299-.236.36-.322-.036-.14-.254-.469-.363-.632-.058-.087-.112-.17-.156-.241a10.927 10.927 0 0 1-.174-.298 2.01 2.01 0 0 0-.135-.218.514.514 0 0 0-.078-.005c-.214.032-1.035.626-1.035 1.251 0 1.032.634 2.292 1.695 3.37z" stroke="#004498" stroke-width=".5" stroke-miterlimit="2.613" stroke-linecap="round" stroke-linejoin="round"/>
        <path d="M7.32 35c-.08 0-.16-.03-.22-.087a.313.313 0 0 1-.08-.339l1.056-2.82a6.467 6.467 0 0 1-1.021-4.022 6.206 6.206 0 0 1 1.822-3.912A6.33 6.33 0 0 1 13.358 22c1.762 0 3.428.686 4.69 1.932 2.559 2.528 2.61 6.59.112 9.057a6.33 6.33 0 0 1-4.48 1.82 6.642 6.642 0 0 1-3.484-.986l-2.75 1.152A.323.323 0 0 1 7.32 35zm2.907-1.85c.061 0 .123.018.176.052.979.637 2.112.974 3.277.974 1.53 0 2.96-.58 4.028-1.635 2.247-2.22 2.196-5.88-.113-8.162a5.997 5.997 0 0 0-4.237-1.747c-1.53 0-2.96.581-4.028 1.635-1.937 1.914-2.203 4.971-.632 7.27.058.085.07.192.035.287l-.855 2.283 2.223-.932a.324.324 0 0 1 .126-.025z" stroke="#004498" stroke-width=".5" stroke-miterlimit="2.613" stroke-linecap="round" stroke-linejoin="round"/>
        <path d="M22.175 43.063a1.772 1.772 0 0 0 1.96.386 1.76 1.76 0 0 0 1.105-1.654V22.161a2.845 2.845 0 0 0-2.841-2.84H3.869a2.845 2.845 0 0 0-2.842 2.84v12.694a2.845 2.845 0 0 0 2.841 2.84h6.55a.74.74 0 0 0 .737-.736.741.741 0 0 0-.737-.736h-6.55A1.368 1.368 0 0 1 2.5 34.855V22.162c0-.752.61-1.368 1.368-1.368H22.4c.751 0 1.368.609 1.368 1.367v19.634c0 .19-.126.268-.191.297-.073.024-.22.061-.351-.07l-5.583-5.583a.735.735 0 0 0-.52-.216h-2.724a.741.741 0 0 0-.737.736.74.74 0 0 0 .737.736h2.41l5.367 5.367z" fill="#004498" stroke="#004498" stroke-width=".2"/>
    </g>
    <defs>
        <clipPath id="gbqbpnpg0a">
            <path fill="#fff" d="M0 0h56v56H0z"/>
        </clipPath>
    </defs>
</svg>
