<svg width="228" height="114" viewBox="0 0 228 114" fill="none" xmlns="http://www.w3.org/2000/svg">
    <path fill-rule="evenodd" clip-rule="evenodd" d="M114 78.441c-43.322 0-78.441-35.12-78.441-78.441h20.035c0 32.257 26.15 58.406 58.406 58.406 32.257 0 58.406-26.15 58.406-58.406h20.035c0 43.322-35.119 78.441-78.441 78.441z" fill="#00306A"/>
    <path fill-rule="evenodd" clip-rule="evenodd" d="M114 114C51.04 114 0 62.96 0 0h20.035c0 51.895 42.07 93.965 93.965 93.965S207.965 51.895 207.965 0H228c0 62.96-51.04 114-114 114z" fill="#00306A"/>
    <path fill-rule="evenodd" clip-rule="evenodd" d="M114 44.499C89.424 44.499 69.501 24.576 69.501 0h20.035c0 13.51 10.953 24.464 24.464 24.464S138.464 13.51 138.464 0h20.035c0 24.576-19.923 44.499-44.499 44.499z" fill="#00306A"/>
</svg>
