<svg width="32" height="32" viewBox="0 0 32 32" fill="none" xmlns="http://www.w3.org/2000/svg">
<path d="M6.0013 29.3337V22.667M6.0013 9.33366V2.66699M2.66797 6.00033H9.33464M2.66797 26.0003H9.33464M17.3346 4.00033L15.0224 10.0121C14.6464 10.9898 14.4584 11.4786 14.166 11.8898C13.9069 12.2542 13.5885 12.5726 13.2241 12.8317C12.8129 13.1241 12.3241 13.3121 11.3464 13.6881L5.33464 16.0003L11.3465 18.3126C12.3241 18.6886 12.8129 18.8766 13.2241 19.169C13.5885 19.4281 13.9069 19.7465 14.166 20.1109C14.4584 20.522 14.6464 21.0109 15.0224 21.9885L17.3346 28.0003L19.6469 21.9885C20.0229 21.0109 20.2109 20.522 20.5033 20.1109C20.7624 19.7465 21.0808 19.4281 21.4452 19.169C21.8564 18.8766 22.3452 18.6886 23.3228 18.3126L29.3346 16.0003L23.3228 13.6881C22.3452 13.3121 21.8564 13.1241 21.4452 12.8317C21.0808 12.5726 20.7624 12.2542 20.5033 11.8898C20.2109 11.4786 20.0229 10.9898 19.6469 10.0121L17.3346 4.00033Z" stroke="#B30000" stroke-width="2.2" stroke-linecap="round" stroke-linejoin="round"/>
</svg>
