<svg width="56" height="56" viewBox="0 0 56 56" fill="none" xmlns="http://www.w3.org/2000/svg">
    <path d="M42 52.5H14a4.375 4.375 0 0 1-4.375-4.375v-36.75A4.375 4.375 0 0 1 14 7h4.375v1.75H14a2.625 2.625 0 0 0-2.625 2.625v36.75A2.625 2.625 0 0 0 14 50.75h28a2.625 2.625 0 0 0 2.625-2.625v-36.75A2.625 2.625 0 0 0 42 8.75h-4.375V7H42a4.375 4.375 0 0 1 4.375 4.375v36.75A4.375 4.375 0 0 1 42 52.5zm.875-4.375v-36.75A.875.875 0 0 0 42 10.5h-4.375v1.75h3.5v35h-26.25v-35h3.5V10.5H14a.875.875 0 0 0-.875.875v36.75A.875.875 0 0 0 14 49h28a.875.875 0 0 0 .875-.875zm-7-33.25v-7A.875.875 0 0 0 35 7h-3.5a3.5 3.5 0 1 0-7 0H21a.875.875 0 0 0-.875.875v7a.875.875 0 0 0 .875.875h14a.875.875 0 0 0 .875-.875zm-14-6.125h3.5a.875.875 0 0 0 .875-.875V7a1.75 1.75 0 0 1 3.5 0v.875a.875.875 0 0 0 .875.875h3.5V14h-12.25V8.75zm8.75 1.75h-5.25v1.75h5.25V10.5z" fill="#004498"/>
    <path d="M37.625 20.125h-8.75v1.75h8.75v-1.75zm0 5.25h-8.75v1.75h8.75v-1.75zm0 5.25h-8.75v1.75h8.75v-1.75zm0 5.25h-8.75v1.75h8.75v-1.75zM25.375 42v-5.25a.875.875 0 0 0-.875-.875h-5.25a.875.875 0 0 0-.875.875V42a.875.875 0 0 0 .875.875h5.25a.875.875 0 0 0 .875-.875zm-5.25-4.375h3.5v3.5h-3.5v-3.5zm17.5-1.75h-8.75v1.75h8.75v-1.75zM25.375 42v-5.25a.875.875 0 0 0-.875-.875h-5.25a.875.875 0 0 0-.875.875V42a.875.875 0 0 0 .875.875h5.25a.875.875 0 0 0 .875-.875zm-5.25-4.375h3.5v3.5h-3.5v-3.5zm17.5 3.5h-8.75v1.75h8.75v-1.75zM21.62 25.121l3.5-3.5-1.242-1.242-2.993 2.992-2.03-1.347-.962 1.452 2.625 1.75a.874.874 0 0 0 1.102-.105zm0 7 3.5-3.5-1.242-1.242-2.993 2.992-2.03-1.347-.962 1.452 2.625 1.75a.875.875 0 0 0 1.102-.105z" fill="#F9AFB2"/>
</svg>
