<svg width="1100" height="156" viewBox="0 0 1100 156" fill="none" xmlns="http://www.w3.org/2000/svg">
    <g opacity=".3" stroke="#A5C2FB" stroke-width=".743" stroke-miterlimit="10" clip-path="url(#mqlpxbqq0a)">
        <path d="M-2 131.333c73.849-6.195 125.968-25.9 160.125-42.96 34.539-17.252 59.415-36.177 104.87-46.351 50.135-11.306 82.893-6.24 95.849-3.392 17.964 3.957 16.847 6.648 46.233 15.827 56.45 17.637 67.174 9.79 92.467 21.48 41.937 19.377 29.431 48.782 73.296 81.398 31.766 23.628 84.359 42.429 131.934 29.394 44.801-12.278 49.841-43.107 96.977-47.482 19.361-1.798 35.464 2.193 67.658 10.174 41.26 10.175 68.966 22.724 80.062 27.133 32.871 13.08 85.929 21.31 172.529-4.522"/>
        <path d="M-2 140.813c71.402-5.317 124.782-23.054 162.022-40.633 30.252-14.477 53.323-30.348 85.119-41.69 6.954-2.472 14.281-4.866 22.17-6.935 49.717-13.016 82.336-10.869 95.951-9.554 18.259 1.754 18.259 3.755 47.046 12.623 20.288 6.238 34.737 9.801 45.929 12.14C475.263 70.73 484.787 71 499.8 78.632a81.738 81.738 0 0 1 15.667 10.307c22.238 18.602 21.291 42.184 58.181 67.182 32.112 21.76 84.331 38.216 131.072 25.346a114.383 114.383 0 0 0 10.933-3.619c36.135-14.039 44.25-38.734 85.66-42.611a98.735 98.735 0 0 1 13.131-.371c14.72.517 29.936 4.181 54.033 10.116 39.923 9.891 67.187 22.131 79.417 26.976a172.471 172.471 0 0 0 27.614 8.25c32.592 6.924 78.672 7.643 143.492-10.026"/>
        <path d="M-4 151.823c69.01-4.504 123.755-20.267 164.067-38.709 32.013-14.638 56.166-31.358 87.39-43.293 7.126-2.736 14.512-5.505 22.439-7.881 49.344-14.829 81.808-16.619 96.151-15.763 18.482 1.126 19.711.912 47.878 9.525 19.722 6.046 34.122 10.134 45.105 13.005 18.504 4.807 27.4 5.776 41.45 13.714a91.894 91.894 0 0 1 15.02 10.707c21.492 18.511 22.552 40.714 59.504 63.503 32.486 20.053 84.379 34.296 130.329 21.494 3.89-1.126 7.487-2.252 10.859-3.603 37.29-14.322 45.544-37.91 85.45-41.66a98.83 98.83 0 0 1 13.035-.416c14.975.439 30.175 4.008 53.697 9.897 38.632 9.638 65.457 21.697 78.842 26.898a178.568 178.568 0 0 0 27.378 8.287c32.316 7.094 78.196 8.591 142.406-7.352"/>
        <path d="M-4 163.473c66.557-3.634 122.586-17.531 165.969-36.638 33.701-14.854 58.948-32.329 89.55-44.842 7.304-2.993 14.754-6.121 22.689-8.81 48.928-16.587 81.153-20.064 96.268-21.954 18.699-2.33 21.144-1.935 48.68 6.403 19.161 5.817 33.498 10.43 44.318 13.829 17.956 5.626 26.24 7.314 39.315 15.529a107.476 107.476 0 0 1 14.269 11.083c20.728 18.364 23.861 39.125 60.752 59.639 32.878 18.297 84.354 30.303 129.473 17.588 3.854-1.126 7.427-2.251 10.775-3.567 38.39-14.629 46.809-37.01 85.154-40.735a98.941 98.941 0 0 1 12.939-.461c15.217.349 30.433 3.837 53.325 9.61 37.285 9.35 63.671 21.188 78.188 26.826a190.972 190.972 0 0 0 27.153 8.293c32.013 7.246 77.663 9.531 141.183-4.659"/>
        <path d="M-4 174.526c64.173-2.804 121.513-14.882 168.016-34.773 35.43-15.165 61.782-33.507 91.811-46.647 7.476-3.268 14.986-6.785 22.958-9.793 48.556-18.41 80.501-24.675 96.468-28.27 18.865-4.253 22.553-4.807 49.526 3.301 18.662 5.654 32.881 10.788 43.526 14.701 17.422 6.468 25.089 8.911 37.211 17.438a132.869 132.869 0 0 1 13.532 11.511c19.993 18.297 25.202 37.736 62.075 56.146 33.299 16.624 84.392 26.462 128.73 13.774 3.811-1.131 7.363-2.262 10.701-3.562 39.534-15.006 48.104-36.187 84.933-39.975 4.27-.433 8.563-.602 12.854-.509 15.449.271 30.627 3.686 52.999 9.375 35.993 9.137 61.951 20.83 77.614 26.902a199.437 199.437 0 0 0 26.939 8.357c31.747 7.452 77.197 10.517 140.107-1.968"/>
        <path d="M-5 182c61.733-1.951 120.343-12.103 169.914-32.632 37.117-15.375 64.562-34.483 93.991-48.109 7.631-3.53 15.217-7.365 23.208-10.704 48.117-20.1 79.789-29.057 96.55-34.415 19.026-6.068 24.019-7.659 50.326.17a386.433 386.433 0 0 1 42.707 15.543c16.907 7.253 23.929 10.456 35.053 19.176 4.858 3.823 8.713 7.895 12.883 11.855 19.24 18.047 26.533 36.095 63.322 52.202 33.724 14.811 84.366 22.413 127.873 9.848 3.776-1.128 7.304-2.256 10.617-3.531 40.656-15.239 49.368-35.249 84.648-38.915 4.234-.433 8.491-.614 12.747-.542 15.69.215 30.839 3.497 52.592 9.024 34.659 8.821 60.177 20.304 76.96 26.767a210.219 210.219 0 0 0 26.724 8.347c31.435 7.603 76.645 11.449 138.885.745"/>
        <path d="M-5 188c59.334-1.129 119.265-9.402 171.958-30.609 38.834-15.631 67.373-35.586 96.251-49.66 7.803-3.815 15.448-7.99 23.477-11.648 47.776-21.816 79.213-33.475 96.77-40.63 19.169-7.845 25.461-10.531 51.17-2.97a263.907 263.907 0 0 1 41.901 16.321c16.361 8.036 22.789 12.031 32.948 21.06 4.511 3.985 8.062 8.228 12.201 12.235 18.515 17.945 27.908 34.446 64.622 48.43 34.2 13.025 84.423 18.442 127.136 5.948 3.732-1.129 7.228-2.257 10.543-3.51 41.811-15.485 50.708-34.356 84.423-37.889a107.54 107.54 0 0 1 12.663-.586c15.921.135 31.076 3.318 52.241 8.78 33.354 8.567 58.443 19.842 76.383 26.738a224.815 224.815 0 0 0 26.51 8.363c31.163 7.776 76.183 12.415 137.803 3.442"/>
        <path d="M-6 193c56.887-.259 118.068-6.685 173.862-28.532 40.509-15.873 70.108-36.661 98.41-51.226 7.969-4.114 15.69-8.624 23.738-12.569 47.374-23.471 78.573-37.765 96.878-46.784 19.42-9.56 26.893-13.37 51.972-6.088a199.314 199.314 0 0 1 41.084 17.226c15.78 8.782 21.619 13.607 30.816 22.85 4.126 4.15 7.394 8.523 11.486 12.604 17.786 17.733 29.306 32.749 65.893 44.563 34.659 11.194 84.389 14.43 126.239 2.052 3.697-1.128 7.169-2.255 10.46-3.495 42.933-15.782 51.928-33.448 84.141-36.954 4.171-.443 8.363-.654 12.557-.631 16.163 0 31.289 3.134 51.848 8.5 32.034 8.263 56.662 19.345 75.744 26.627a238.858 238.858 0 0 0 26.285 8.388c30.857 7.891 75.647 13.313 136.587 6.132"/>
        <path d="M-6 198.952c54.496.585 116.987-3.972 175.903-26.441 42.228-16.101 72.91-37.715 100.671-52.69 8.119-4.377 15.933-9.182 23.995-13.502 47.02-25.102 78.029-42.013 97.085-52.882 19.665-11.252 28.336-16.202 52.816-9.204a161.662 161.662 0 0 1 40.289 18.003c15.301 9.53 20.454 15.178 28.697 24.629 3.754 4.32 6.765 8.799 10.802 12.95 17.071 17.519 30.704 31.01 67.193 40.686 35.169 9.327 84.433 10.43 125.522-1.845 3.665-1.126 7.115-2.251 10.385-3.455 44.1-15.988 53.222-32.494 83.926-35.926a118.51 118.51 0 0 1 12.472-.675c16.406-.101 31.572 2.959 51.519 8.203 30.715 7.977 54.925 18.846 75.153 26.519a257 257 0 0 0 26.07 8.428c30.592 8.078 75.172 14.233 135.502 8.821"/>
        <path d="M-7 203.699c52.103 1.399 115.925-1.32 177.965-24.5 43.993-16.412 75.69-38.96 102.931-54.391 8.279-4.693 16.175-9.814 24.263-14.461 46.655-26.812 77.483-46.405 97.279-59.23 19.955-12.938 29.791-19.097 53.66-12.351a135.568 135.568 0 0 1 39.48 18.927c14.777 10.287 19.289 16.83 26.576 26.519 3.384 4.512 6.102 9.103 10.152 13.355 16.378 17.371 32.148 29.328 68.515 36.975 35.679 7.479 84.465 6.475 124.768-5.741a347.495 347.495 0 0 0 10.31-3.384c45.256-16.277 54.517-31.696 83.687-35.046 4.12-.47 8.262-.71 12.408-.722 16.65-.113 31.765 2.786 51.178 7.896 29.407 7.726 53.185 18.431 74.572 26.53 7.727 2.932 16.289 5.831 25.865 8.426 30.311 8.257 74.701 15.216 134.391 11.539"/>
        <path d="M-7 209.173c49.614 2.258 114.71 1.4 179.85-22.437 45.623-16.693 78.401-40.158 105.114-56.005 8.423-5 16.406-10.417 24.514-15.406 46.299-28.476 76.946-50.711 97.39-65.463 20.229-14.672 31.211-21.964 54.462-15.485a117.063 117.063 0 0 1 38.676 19.774c14.264 11.038 18.042 18.476 24.435 28.363 3.011 4.696 5.458 9.402 9.416 13.736 15.673 17.167 33.557 27.63 69.763 33.183 36.207 5.553 84.446 2.483 123.922-9.65a352.598 352.598 0 0 0 10.228-3.386c46.389-16.535 55.781-30.835 83.441-34.108 4.076-.477 8.176-.73 12.28-.756 16.913-.215 31.978 2.607 50.741 7.652 28.088 7.45 51.407 17.98 73.936 26.478a302.834 302.834 0 0 0 25.641 8.454c30.001 8.42 74.161 16.163 133.191 14.255"/>
        <path d="M-8 214.396c47.259 3.122 113.618 4.08 181.917-20.358 47.383-16.907 81.161-41.3 107.368-57.486 8.585-5.309 16.663-11.002 24.82-16.322 45.961-30.096 76.467-54.894 97.564-71.61 20.566-16.255 32.717-24.799 55.28-18.588 14.982 4.125 28.588 12.658 37.895 20.582 13.775 11.746 16.923 20.087 22.327 30.153 2.617 4.87 4.806 9.683 8.709 14.101 14.994 16.908 34.973 25.801 71.075 29.307 36.699 3.596 84.5-1.499 123.185-13.526a382.1 382.1 0 0 0 10.153-3.382c47.552-16.772 57.074-29.927 83.191-33.105 4.048-.484 8.119-.75 12.196-.8 17.137-.328 32.209 2.423 50.452 7.36 26.782 7.169 49.639 17.494 73.33 26.387 7.661 2.875 16.088 5.772 25.429 8.454 29.739 8.578 73.699 17.089 132.109 16.908"/>
        <path d="M-8 218.441c44.82 3.97 112.372 6.613 183.792-18.277 48.97-17.275 83.834-42.401 109.531-58.945 8.716-5.624 16.913-11.573 25.043-17.219 45.621-31.616 75.963-59.036 97.691-77.605 20.894-17.86 34.075-27.577 56.108-21.661 14.444 3.913 27.974 12.877 37.063 21.369 13.271 12.439 15.661 21.662 20.183 31.908 2.255 5.038 4.16 9.93 8.017 14.43 14.297 16.69 36.386 23.933 72.333 25.496 37.209 1.609 84.465-5.466 122.317-17.387a336.648 336.648 0 0 0 10.069-3.375c48.688-16.96 58.329-28.983 82.898-32.065 4.011-.495 8.046-.776 12.088-.843 17.364-.416 32.428 2.25 50.074 7.063 25.438 6.872 47.865 17.039 72.705 26.273a366.786 366.786 0 0 0 25.201 8.446c29.427 8.728 73.157 17.996 130.887 19.593"/>
        <path d="M-9 224.278c42.415 4.81 111.294 9.315 185.848-16.263 50.695-17.559 86.601-43.688 111.802-60.583 8.855-5.935 17.146-12.186 25.313-18.178 45.314-33.27 75.58-63.364 97.882-83.919 21.264-19.54 35.534-30.51 56.91-24.846 13.932 3.706 27.412 13.144 36.268 22.256 12.803 13.177 14.439 23.336 18.049 33.788 1.827 5.237 3.53 10.238 7.321 14.822 13.706 16.489 37.914 23.246 73.73 21.726 37.654-1.599 84.514-9.45 121.582-21.298a350.517 350.517 0 0 0 9.994-3.379c49.883-17.142 59.63-28.157 82.676-31.153 3.983-.5 7.989-.793 12.002-.878 17.609-.496 32.714 2.072 49.725 6.757 24.084 6.668 46.127 16.726 72.117 26.31a418.732 418.732 0 0 0 24.987 8.481c29.164 8.909 72.694 18.967 129.794 22.323"/>
        <path d="M-9 230.945c39.981 5.66 110.112 12.078 187.729-14.297 52.373-17.907 89.22-45.131 113.957-62.495 9.02-6.294 17.398-12.837 25.561-19.244 44.987-35.09 75.069-67.918 98.002-90.557 21.66-21.28 37.028-33.483 57.796-28.073 13.395 3.51 26.812 13.448 35.438 23.217 12.323 13.946 13.169 25.084 15.931 35.77 1.421 5.456 2.898 10.573 6.63 15.282 12.966 16.345 39.17 20.375 74.9 18.02 38.132-2.479 84.473-13.493 120.711-25.31 3.382-1.132 6.765-2.264 9.911-3.396 50.997-17.489 60.885-27.439 82.386-30.348 3.947-.516 7.917-.826 11.895-.928 17.838-.589 32.878 1.913 49.34 6.531 22.809 6.373 44.356 16.233 71.472 26.33 7.566 2.83 15.785 5.66 24.805 8.546 28.856 9.056 72.156 20.002 128.536 25.141"/>
        <path d="M-10 233.518c37.577 6.5 109.02 14.725 189.802-12.179 54.149-18.082 91.94-46.191 116.194-63.778 9.115-6.602 17.666-13.362 25.834-20.054 44.774-36.412 74.68-71.878 98.144-96.348 22.021-22.882 38.412-36.198 58.661-31.061 12.872 3.278 26.262 13.62 34.655 23.94 11.868 14.647 11.902 26.589 13.82 37.427.981 5.633 2.256 10.804 5.922 15.581 12.319 16.043 40.612 18.341 76.226 14.139 38.614-4.506 84.539-17.406 119.973-29.09 3.384-1.126 6.689-2.252 9.837-3.289 52.174-17.665 62.181-26.487 82.17-29.292a114.76 114.76 0 0 1 11.891-.901 151.596 151.596 0 0 1 48.959 6.196c21.502 6.073 42.619 15.694 70.901 26.149a653.402 653.402 0 0 0 24.559 8.517A686.675 686.675 0 0 0 1105 107.201"/>
        <path d="M-10 238.983c35.145 7.34 107.837 17.416 191.68-10.133 55.779-18.329 94.555-47.364 118.391-65.299C405.867 83.876 439.355-5.111 483.858 5.934c12.335 3.062 25.685 13.848 33.826 24.768 17.387 23.305 6.427 40.98 16.913 55.166 25.708 34.789 141.347-4.064 206.338-25.894 63.367-21.29 65.713-28.146 93.585-29.272 48.653-1.992 73.944 17.518 143.197 40.53A781.757 781.757 0 0 0 1104 101.63"/>
        <path d="M-10 243.63c36.083 8.069 106.524 17.314 186.685-9.188 55.331-18.344 92.462-47.811 118.048-66.765C396.938 92.052 428.815 10.146 474.156 17.456c17.714 2.852 35.699 8.566 47.573 17.325 23.33 17.223 14.659 32.624 28.19 46.396 29.622 30.168 137.487-3.7 199.37-23.832C809.57 37.667 812.006 32.1 841.47 33.231c48.96 1.878 73.102 19.237 138.344 41.44A682.779 682.779 0 0 0 1105 104.442"/>
        <path d="M-10 246.358a339.79 339.79 0 0 0 181.696-8.167c54.885-18.17 90.307-47.808 117.71-67.589C387.888 99.566 418.72 24.317 464.482 29.228c23.22 2.501 45.052 3.132 61.313 9.722 27.9 11.265 22.464 23.768 39.47 37.174 32.489 25.582 133.633-3.312 192.421-21.55 57.095-17.877 59.633-22.214 90.78-18.722 49.145 5.497 72.252 20.885 133.486 41.961A608.89 608.89 0 0 0 1106 106.674"/>
        <path d="M-10 252.03a323.619 323.619 0 0 0 176.712-7.21c54.427-18.151 88.148-48.191 117.357-68.941 94.553-67.155 124.868-128.365 170.712-133.643 28.68-3.3 54.044-1.944 75.077 2.193 31.781 6.238 29.931 15.133 50.75 28.254 34.465 21.722 129.785-2.826 185.441-19.428 53.998-16.105 56.513-19.461 89.377-13.494 49.306 8.951 71.4 22.683 128.646 42.811A542.878 542.878 0 0 0 1107 110.759"/>
        <path d="M-10 260.758a309.396 309.396 0 0 0 171.718-6.245c53.98-18.037 85.989-48.306 117.016-69.894 90.557-63.006 120.558-118.233 166.361-125.132 34.028-5.118 64.074-12.942 88.82-5.355 34.05 10.44 35.325 11.16 62.033 19.165 32.133 24.36 125.937-2.356 178.485-17.192 50.867-14.317 53.371-16.684 87.974-8.173 49.434 12.164 70.525 24.384 123.783 43.402A490.397 490.397 0 0 0 1108 118.67"/>
        <path d="M-10 270.427a294.987 294.987 0 0 0 166.752-5.21c53.535-17.951 83.822-48.566 116.681-71.039 86.473-59.154 116.139-109.074 161.936-116.99 39.48-6.81 72.327-17.613 102.648-12.888 39.096 6.089 42.559 3.699 73.32 10.148 33.716 21.684 122.061-1.995 171.456-15.02 47.737-12.572 50.241-14.072 86.574-2.886 49.632 15.245 69.654 26.172 118.937 44.112A444.702 444.702 0 0 0 1109 127.221"/>
        <path d="M-10 281.092a279.604 279.604 0 0 0 161.59-4.241c53.04-17.924 81.555-48.967 116.236-72.376 82.276-55.537 111.581-100.535 157.509-109.13 44.779-8.38 80.992-15.255 116.225-20.491 43.505-6.469 49.749-3.789 84.531 1.13 35.323 19.124 118.118-1.583 164.418-12.869 44.565-10.856 47.067-11.557 85.095 2.409 49.682 18.252 68.696 28.08 113.925 44.952A404.327 404.327 0 0 0 1109 136.34"/>
        <path d="M-10 289.758c41.962 12.146 98.622 16.239 156.601-3.236 52.625-17.683 79.349-49.112 115.878-73.302 78.075-51.694 107.076-91.683 153.141-100.649 50.224-9.766 90.169-19.317 129.979-27.978 47.676-10.386 58.046-17.638 95.804-7.894 39.122 10.093 114.244-1.128 157.435-10.646 41.433-9.09 43.957-9.022 83.688 7.68 49.931 21.054 67.807 29.862 109.127 45.537 25.687 9.744 64.437 22.487 118.347 25.013"/>
        <path d="M-10 298.496c42.946 12.764 97.311 15.988 151.608-2.247 52.178-17.527 77.135-49.245 115.538-74.153 73.821-47.897 102.406-82.985 148.791-92.131 55.683-10.988 99.441-23.268 143.718-35.391 51.975-14.235 64.949-25.066 107.084-16.853 40.162 7.865 110.375-.764 150.481-8.427 38.325-7.325 40.94-6.651 82.285 12.921 50.183 23.74 66.888 31.639 104.266 46.065 25.319 9.775 63.499 22.471 117.229 24.156"/>
        <path d="M-10 309.137c43.964 13.529 96 15.851 146.615-1.263 51.731-17.497 74.897-49.74 115.197-75.534 69.531-44.509 97.736-74.993 144.428-84.272 61.201-12.164 108.784-27.35 157.471-43.054 56.365-18.174 71.865-32.412 118.365-25.93 41.259 5.75 106.506-.35 143.515-6.268 35.149-5.637 37.933-4.34 80.883 18.252 50.502 26.55 65.969 33.675 99.415 46.922 24.961 9.887 62.541 22.671 116.111 23.46"/>
        <path d="M-10 318.865c44.943 14.15 94.784 15.625 141.747-.281 51.33-17.392 72.701-50.037 114.959-76.547 65.254-40.953 92.335-72.168 140.201-75.984 67.861-5.415 118.254-31.295 171.367-50.521 60.853-22.019 81.243-50.656 129.763-34.897 40.532 13.204 102.683 0 136.681-4.075 32.023-3.883 34.979-2.049 79.55 23.493 50.902 29.19 65.074 35.606 94.637 47.561 24.615 9.962 61.655 22.739 115.095 22.66"/>
        <path d="M-10 328.561c45.928 14.836 93.47 15.398 136.757.765 50.871-17.312 70.404-50.45 114.606-77.667 60.936-37.517 87.647-63.226 135.832-67.818 73.349-7.013 127.684-35.266 185.145-58.048 65.337-25.89 87.308-56.405 141.057-43.9 42.633 9.929 98.83.429 129.693-1.89 28.877-2.173 32.093.191 78.145 28.771 51.311 31.832 64.13 37.606 89.795 48.255 24.22 10.063 60.7 22.827 113.97 21.882"/>
        <path d="M-10 341.23c46.902 15.555 92.145 15.251 131.757 1.692 50.423-17.27 68.085-51.021 114.265-78.963 56.494-34.191 82.947-54.405 131.474-59.786 78.863-8.742 137.129-39.312 198.905-65.708 69.88-29.859 93.669-61.681 152.353-53.018 44.623 6.588 94.933.79 122.729.282 25.708-.474 29.218 2.414 76.74 34.123 51.744 34.53 63.199 39.741 84.927 49.07 23.84 10.22 59.81 22.967 112.85 21.151"/>
        <path d="M-10 351.913c47.845 16.257 90.751 15.06 126.643 2.687 49.932-17.217 65.673-51.605 113.823-80.156 52.04-30.866 78.144-45.508 126.993-51.65 84.256-10.59 146.478-43.329 212.489-73.314 74.423-33.79 100.201-66.417 163.506-62.093 46.458 3.172 90.965 1.129 115.649 2.472 22.507 1.208 26.364 4.595 75.269 39.446 52.197 37.177 62.109 41.918 79.998 49.821 23.42 10.398 58.74 23.087 111.63 20.389"/>
        <path d="M-10 363.667c48.832 16.893 89.409 14.754 121.651 3.66 49.452-17.208 63.267-52.109 113.486-81.086 47.614-27.479 73.406-36.489 122.643-43.359 89.68-12.512 155.969-47.188 226.206-80.67 78.943-37.604 107.351-65.815 174.802-70.95 48.065-3.65 87.074 1.463 108.693 4.65 19.363 2.861 23.57 6.758 73.868 44.621 52.711 39.71 61.102 43.922 75.131 50.397 22.98 10.62 57.81 23.133 110.52 19.574"/>
        <path d="M-10 376.335c49.803 17.61 88.091 14.586 116.658 4.659 48.991-17.158 60.777-52.953 113.128-82.351 43.172-24.243 68.637-27.638 118.271-35.253 95.084-14.586 165.469-51.249 240.016-88.341 83.557-41.593 114.639-72.198 186.084-80.095 49.623-5.46 83.197 1.726 101.704 6.836 16.229 4.513 20.819 8.912 72.46 49.986 53.277 42.372 60.066 46.173 70.279 51.193 22.47 11.033 56.86 23.25 109.4 18.817"/>
        <path d="M-10 388.009c50.754 18.314 86.846 14.417 111.659 5.649 48.499-17.105 58.221-53.972 112.788-83.607 38.731-21.038 63.86-18.755 113.915-27.116 100.437-16.778 174.978-55.362 253.771-96.036 88.177-45.577 122.024-78.624 197.377-89.256 51.375-7.242 79.369 1.943 94.742 9.039 13.117 6.056 18.046 11.061 71.056 55.361 53.856 45.047 58.992 48.47 65.412 51.972 21.74 11.852 55.9 23.388 108.28 18.078"/>
    </g>
    <defs>
        <clipPath id="mqlpxbqq0a">
            <path fill="#fff" d="M0 0h1100v156H0z"/>
        </clipPath>
    </defs>
</svg>
