<svg width="1150" height="206" viewBox="0 0 1150 206" fill="none" xmlns="http://www.w3.org/2000/svg">
<g filter="url(#filter0_d_189_860)">
<g clip-path="url(#clip0_189_860)">
<rect x="25" y="25" width="1100" height="156" rx="16" fill="white"/>
<g clip-path="url(#clip1_189_860)">
<g opacity="0.3">
<path d="M23 156.333C96.849 150.138 148.968 130.433 183.125 113.373C217.664 96.1213 242.54 77.1964 287.995 67.0217C338.13 55.7164 370.888 60.7812 383.844 63.6301C401.808 67.5869 400.691 70.2776 430.077 79.4574C486.527 97.0936 497.251 89.2478 522.544 100.937C564.481 120.315 551.975 149.719 595.84 182.335C627.606 205.963 680.199 224.764 727.774 211.729C772.575 199.451 777.615 168.622 824.751 164.247C844.112 162.449 860.215 166.44 892.409 174.421C933.669 184.596 961.375 197.145 972.471 201.554C1005.34 214.634 1058.4 222.864 1145 197.032" stroke="#FF9696" stroke-width="0.743289" stroke-miterlimit="10"/>
<path d="M23 165.813C94.4023 160.496 147.782 142.759 185.022 125.18C215.274 110.703 238.345 94.8317 270.141 83.4905C277.095 81.0177 284.422 78.6236 292.311 76.5554C342.028 63.5394 374.647 65.6863 388.262 67.0014C406.521 68.7548 406.521 70.7555 435.308 79.6239C455.596 85.8622 470.045 89.4253 481.237 91.7632C500.263 95.731 509.787 96.0007 524.8 103.633C530.402 106.457 535.659 109.916 540.467 113.94C562.705 132.542 561.758 156.124 598.648 181.122C630.76 202.882 682.979 219.338 729.72 206.468C733.423 205.446 737.072 204.238 740.653 202.849C776.788 188.81 784.903 164.115 826.313 160.238C830.677 159.823 835.064 159.699 839.444 159.867C854.164 160.384 869.38 164.048 893.477 169.983C933.4 179.874 960.664 192.114 972.894 196.959C981.851 200.474 991.088 203.234 1000.51 205.209C1033.1 212.133 1079.18 212.852 1144 195.183" stroke="#FF9696" stroke-width="0.743289" stroke-miterlimit="10"/>
<path d="M21 176.823C90.0096 172.319 144.755 156.556 185.067 138.114C217.08 123.476 241.233 106.756 272.457 94.8214C279.583 92.0854 286.969 89.3156 294.896 86.9398C344.24 72.1113 376.704 70.321 391.047 71.1768C409.529 72.3027 410.758 72.0888 438.925 80.7022C458.647 86.7484 473.047 90.8356 484.03 93.7067C502.534 98.5144 511.43 99.4827 525.48 107.421C530.834 110.478 535.866 114.065 540.5 118.128C561.992 136.639 563.052 158.842 600.004 181.631C632.49 201.684 684.383 215.927 730.333 203.125C734.223 201.999 737.82 200.873 741.192 199.522C778.482 185.2 786.736 161.612 826.642 157.862C830.973 157.437 835.328 157.297 839.677 157.446C854.652 157.885 869.852 161.454 893.374 167.343C932.006 176.981 958.831 189.04 972.216 194.241C981.105 197.731 990.261 200.502 999.594 202.528C1031.91 209.622 1077.79 211.119 1142 195.176" stroke="#FF9696" stroke-width="0.743289" stroke-miterlimit="10"/>
<path d="M21 188.473C87.5566 184.839 143.586 170.942 186.969 151.835C220.67 136.981 245.917 119.506 276.519 106.993C283.823 104 291.273 100.872 299.208 98.1827C348.136 81.5964 380.361 78.1194 395.476 76.2289C414.175 73.8997 416.62 74.2935 444.156 82.6316C463.317 88.4492 477.654 93.0628 488.474 96.461C506.43 102.087 514.714 103.775 527.789 111.99C532.848 115.277 537.622 118.985 542.058 123.073C562.786 141.437 565.919 162.198 602.81 182.712C635.688 201.009 687.164 213.015 732.283 200.3C736.137 199.174 739.71 198.049 743.058 196.733C781.448 182.104 789.867 159.723 828.212 155.998C832.51 155.562 836.833 155.408 841.151 155.537C856.368 155.886 871.584 159.374 894.476 165.147C931.761 174.497 958.147 186.335 972.664 191.973C981.496 195.407 990.572 198.179 999.817 200.266C1031.83 207.512 1077.48 209.797 1141 195.607" stroke="#FF9696" stroke-width="0.743289" stroke-miterlimit="10"/>
<path d="M21 199.526C85.173 196.722 142.513 184.644 189.016 164.753C224.446 149.588 250.798 131.246 280.827 118.106C288.303 114.838 295.813 111.321 303.785 108.313C352.341 89.903 384.286 83.6382 400.253 80.0421C419.118 75.7902 422.806 75.2361 449.779 83.3442C468.441 88.9984 482.66 94.1324 493.305 98.045C510.727 104.513 518.394 106.956 530.516 115.483C535.278 119.013 539.798 122.859 544.048 126.994C564.041 145.291 569.25 164.73 606.123 183.14C639.422 199.764 690.515 209.602 734.853 196.914C738.664 195.783 742.216 194.652 745.554 193.352C785.088 178.346 793.658 157.165 830.487 153.377C834.757 152.944 839.05 152.775 843.341 152.868C858.79 153.139 873.968 156.554 896.34 162.243C932.333 171.38 958.291 183.073 973.954 189.145C982.726 192.563 991.728 195.356 1000.89 197.502C1032.64 204.954 1078.09 208.019 1141 195.534" stroke="#FF9696" stroke-width="0.743289" stroke-miterlimit="10"/>
<path d="M20 207C81.7327 205.049 140.343 194.897 189.914 174.368C227.031 158.993 254.476 139.885 283.905 126.259C291.536 122.729 299.122 118.894 307.113 115.555C355.23 95.4542 386.902 86.4981 403.663 81.1402C422.689 75.0717 427.682 73.4812 453.989 81.3094C468.517 85.6481 482.777 90.8382 496.696 96.8529C513.603 104.106 520.625 107.309 531.749 116.029C536.607 119.852 540.462 123.924 544.632 127.884C563.872 145.931 571.165 163.979 607.954 180.086C641.678 194.897 692.32 202.499 735.827 189.934C739.603 188.806 743.131 187.678 746.444 186.403C787.1 171.164 795.812 151.154 831.092 147.488C835.326 147.055 839.583 146.874 843.839 146.946C859.529 147.161 874.678 150.443 896.431 155.97C931.09 164.791 956.608 176.274 973.391 182.737C982.104 186.11 991.032 188.899 1000.12 191.084C1031.55 198.687 1076.76 202.533 1139 191.829" stroke="#FF9696" stroke-width="0.743289" stroke-miterlimit="10"/>
<path d="M20 213C79.3339 211.871 139.265 203.598 191.958 182.391C230.792 166.76 259.331 146.805 288.209 132.731C296.012 128.916 303.657 124.74 311.686 121.083C359.462 99.2667 390.899 87.6078 408.456 80.4522C427.625 72.6081 433.917 69.922 459.626 77.4839C474.031 81.7216 488.049 87.1815 501.527 93.804C517.888 101.84 524.316 105.835 534.475 114.865C538.986 118.849 542.537 123.092 546.676 127.099C565.191 145.044 574.584 161.545 611.298 175.529C645.498 188.554 695.721 193.971 738.434 181.477C742.166 180.348 745.662 179.22 748.977 177.967C790.788 162.482 799.685 143.611 833.4 140.078C837.606 139.634 841.834 139.438 846.063 139.492C861.984 139.627 877.139 142.81 898.304 148.272C931.658 156.839 956.747 168.114 974.687 175.01C983.343 178.342 992.197 181.135 1001.2 183.373C1032.36 191.149 1077.38 195.788 1139 186.815" stroke="#FF9696" stroke-width="0.743289" stroke-miterlimit="10"/>
<path d="M19 218C75.8868 217.741 137.068 211.315 192.862 189.468C233.371 173.595 262.97 152.807 291.272 138.242C299.241 134.128 306.962 129.618 315.01 125.673C362.384 102.202 393.583 87.9076 411.888 78.889C431.308 69.3294 438.781 65.519 463.86 72.8015C478.155 76.9899 491.936 82.7678 504.944 90.0269C520.724 98.8087 526.563 103.634 535.76 112.878C539.886 117.026 543.154 121.4 547.246 125.481C565.032 143.214 576.552 158.23 613.139 170.044C647.798 181.238 697.528 184.474 739.378 172.096C743.075 170.968 746.547 169.841 749.838 168.601C792.771 152.819 801.766 135.153 833.979 131.647C838.15 131.204 842.342 130.993 846.536 131.016C862.699 131.016 877.825 134.15 898.384 139.516C930.418 147.779 955.046 158.861 974.128 166.143C982.721 169.443 991.497 172.244 1000.41 174.531C1031.27 182.422 1076.06 187.844 1137 180.663" stroke="#FF9696" stroke-width="0.743289" stroke-miterlimit="10"/>
<path d="M19 223.952C73.4962 224.537 135.987 219.98 194.903 197.511C237.131 181.41 267.813 159.796 295.574 144.821C303.693 140.444 311.507 135.639 319.569 131.319C366.589 106.217 397.598 89.3058 416.654 78.4369C436.319 67.1854 444.99 62.2348 469.47 69.2332C483.662 73.3653 497.218 79.4227 509.759 87.2355C525.06 96.7655 530.213 102.414 538.456 111.865C542.21 116.186 545.221 120.664 549.258 124.815C566.329 142.334 579.962 155.825 616.451 165.501C651.62 174.828 700.884 175.931 741.973 163.656C745.638 162.53 749.088 161.405 752.358 160.201C796.458 144.213 805.58 127.707 836.284 124.275C840.427 123.831 844.59 123.606 848.756 123.6C865.162 123.499 880.328 126.559 900.275 131.803C930.99 139.78 955.2 150.649 975.428 158.322C983.962 161.593 992.664 164.406 1001.5 166.75C1032.09 174.828 1076.67 180.983 1137 175.571" stroke="#FF9696" stroke-width="0.743289" stroke-miterlimit="10"/>
<path d="M18 228.699C70.1026 230.098 133.925 227.379 195.965 204.199C239.958 187.787 271.655 165.239 298.896 149.808C307.175 145.115 315.071 139.994 323.159 135.347C369.814 108.535 400.642 88.942 420.438 76.1169C440.393 63.1789 450.229 57.0202 474.098 63.7655C488.196 67.8936 501.53 74.2862 513.578 82.693C528.355 92.9802 532.867 99.5225 540.154 109.212C543.538 113.724 546.256 118.315 550.306 122.567C566.684 139.938 582.454 151.895 618.821 159.542C654.5 167.021 703.286 166.017 743.589 153.801C747.21 152.673 750.64 151.545 753.899 150.417C799.155 134.14 808.416 118.721 837.586 115.371C841.706 114.902 845.848 114.661 849.994 114.649C866.644 114.536 881.759 117.435 901.172 122.545C930.579 130.271 954.357 140.976 975.744 149.075C983.471 152.007 992.033 154.906 1001.61 157.501C1031.92 165.758 1076.31 172.717 1136 169.04" stroke="#FF9696" stroke-width="0.743289" stroke-miterlimit="10"/>
<path d="M18 234.173C67.6139 236.431 132.71 235.573 197.85 211.736C243.473 195.043 276.251 171.578 302.964 155.731C311.387 150.731 319.37 145.314 327.478 140.325C373.777 111.849 404.424 89.6139 424.868 74.8622C445.097 60.1895 456.079 52.8984 479.33 59.3769C493.341 63.497 506.459 70.2037 518.006 79.1511C532.27 90.1895 536.048 97.6274 542.441 107.515C545.452 112.21 547.899 116.916 551.857 121.25C567.53 138.417 585.414 148.88 621.62 154.433C657.827 159.986 706.066 156.916 745.542 144.783C749.128 143.654 752.533 142.526 755.77 141.397C802.159 124.862 811.551 110.562 839.211 107.289C843.287 106.812 847.387 106.56 851.491 106.533C868.404 106.318 883.469 109.14 902.232 114.185C930.32 121.634 953.639 132.165 976.168 140.663C983.858 143.575 992.349 146.465 1001.81 149.117C1031.81 157.537 1075.97 165.28 1135 163.372" stroke="#FF9696" stroke-width="0.743289" stroke-miterlimit="10"/>
<path d="M17 239.396C64.259 242.518 130.618 243.476 198.917 219.038C246.3 202.131 280.078 177.738 306.285 161.552C314.87 156.243 322.948 150.55 331.105 145.23C377.066 115.134 407.572 90.3356 428.669 73.6193C449.235 57.3652 461.386 48.8211 483.949 55.0319C498.931 59.1575 512.537 67.6903 521.844 75.6145C535.619 87.3598 538.767 95.7011 544.171 105.767C546.788 110.636 548.977 115.449 552.88 119.868C567.874 136.776 587.853 145.669 623.955 149.175C660.654 152.771 708.455 147.676 747.14 135.649C750.682 134.522 754.067 133.394 757.293 132.267C804.845 115.495 814.367 102.34 840.484 99.1615C844.532 98.6784 848.603 98.4112 852.68 98.3612C869.817 98.0343 884.889 100.785 903.132 105.722C929.914 112.891 952.771 123.216 976.462 132.109C984.123 134.984 992.55 137.881 1001.89 140.563C1031.63 149.141 1075.59 157.652 1134 157.471" stroke="#FF9696" stroke-width="0.743289" stroke-miterlimit="10"/>
<path d="M17 243.441C61.8204 247.411 129.372 250.054 200.792 225.164C249.762 207.889 284.626 182.763 310.323 166.219C319.039 160.595 327.236 154.646 335.366 149C380.987 117.384 411.329 89.964 433.057 71.3953C453.951 53.535 467.132 43.8176 489.165 49.7336C503.609 53.6475 517.139 62.6114 526.228 71.1028C539.499 83.542 541.889 92.7646 546.411 103.011C548.666 108.049 550.571 112.942 554.428 117.44C568.725 134.131 590.814 141.374 626.761 142.937C663.97 144.546 711.226 137.471 749.078 125.55C752.588 124.432 755.945 123.308 759.147 122.175C807.835 105.215 817.476 93.1919 842.045 90.1103C846.056 89.6152 850.091 89.3336 854.133 89.2667C871.497 88.8506 886.561 91.5161 904.207 96.3298C929.645 103.202 952.072 113.369 976.912 122.603C984.535 125.46 992.879 128.328 1002.11 131.049C1031.54 139.777 1075.27 149.045 1133 150.642" stroke="#FF9696" stroke-width="0.743289" stroke-miterlimit="10"/>
<path d="M16 249.278C58.415 254.088 127.294 258.593 201.848 233.015C252.543 215.456 288.449 189.327 313.65 172.432C322.505 166.497 330.796 160.246 338.963 154.254C384.277 120.984 414.543 90.8898 436.845 70.3352C458.109 50.7943 472.379 39.8243 493.755 45.4895C507.687 49.1949 521.167 58.6332 530.023 67.7447C542.826 80.9222 544.462 91.0812 548.072 101.533C549.899 106.77 551.602 111.771 555.393 116.355C569.099 132.844 593.307 139.601 629.123 138.081C666.777 136.482 713.637 128.631 750.705 116.783C754.179 115.664 757.511 114.538 760.699 113.404C810.582 96.2621 820.329 85.2471 843.375 82.2512C847.358 81.7514 851.364 81.4582 855.377 81.3727C872.986 80.8772 888.091 83.4451 905.102 88.1304C929.186 94.798 951.229 104.856 977.219 114.44C984.811 117.278 993.091 120.15 1002.21 122.921C1031.37 131.83 1074.9 141.888 1132 145.244" stroke="#FF9696" stroke-width="0.743289" stroke-miterlimit="10"/>
<path d="M16 255.945C55.9813 261.605 126.112 268.023 203.729 241.648C256.102 223.741 292.949 196.517 317.686 179.153C326.706 172.859 335.084 166.316 343.247 159.909C388.234 124.818 418.316 91.9914 441.249 69.3521C462.909 48.0712 478.277 35.8686 499.045 41.2794C512.44 44.7885 525.857 54.7272 534.483 64.496C546.806 78.4418 547.652 89.5803 550.414 100.266C551.835 105.722 553.312 110.839 557.044 115.548C570.01 131.893 596.214 135.923 631.944 133.568C670.076 131.089 716.417 120.075 752.655 108.258C756.037 107.126 759.42 105.994 762.566 104.862C813.563 87.373 823.451 77.423 844.952 74.5139C848.899 73.9979 852.869 73.6881 856.847 73.5857C874.685 72.9971 889.725 75.4987 906.187 80.1171C928.996 86.4901 950.543 96.3495 977.659 106.447C985.225 109.277 993.444 112.106 1002.46 114.993C1031.32 124.049 1074.62 134.995 1131 140.134" stroke="#FF9696" stroke-width="0.743289" stroke-miterlimit="10"/>
<path d="M15 258.518C52.5769 265.018 124.019 273.243 204.802 246.339C258.951 228.257 296.742 200.148 320.996 182.561C330.111 175.959 338.662 169.199 346.83 162.507C391.604 126.095 421.51 90.629 444.974 66.1588C466.995 43.2772 483.386 29.9605 503.635 35.0979C516.507 38.3764 529.897 48.7187 538.29 59.0386C550.158 73.6846 550.192 85.6268 552.11 96.4649C553.091 102.098 554.366 107.269 558.032 112.046C570.351 128.089 598.644 130.387 634.258 126.185C672.872 121.679 718.797 108.779 754.231 97.0958C757.615 95.9692 760.92 94.8426 764.068 93.8061C816.242 76.1407 826.249 67.3192 846.238 64.5139C850.183 64.0077 854.152 63.7068 858.129 63.6127C874.678 62.9902 891.217 65.0835 907.088 69.8091C928.59 75.8815 949.707 85.5029 977.989 95.9579C985.525 98.7407 993.669 101.591 1002.55 104.475C1044.05 117.739 1086.73 127.023 1130 132.201" stroke="#FF9696" stroke-width="0.743289" stroke-miterlimit="10"/>
<path d="M15 263.983C50.1451 271.323 122.837 281.399 206.68 253.85C262.459 235.521 301.235 206.486 325.071 188.551C430.867 108.876 464.355 19.8894 508.858 30.9339C521.193 33.9961 534.543 44.7817 542.684 55.7023C560.071 79.0072 549.111 96.6829 559.597 110.868C585.305 145.657 700.944 106.804 765.935 84.9741C829.302 63.6845 831.648 56.8282 859.52 55.7023C908.173 53.7096 933.464 73.2204 1002.72 96.2325C1043.89 109.849 1086.13 120.017 1129 126.63" stroke="#FF9696" stroke-width="0.743289" stroke-miterlimit="10"/>
<path d="M15 268.63C51.083 276.699 121.524 285.944 201.685 259.442C257.016 241.098 294.147 211.631 319.733 192.677C421.938 117.052 453.815 35.1458 499.156 42.456C516.87 45.3077 534.855 51.0223 546.729 59.7809C570.059 77.004 561.388 92.4052 574.919 106.177C604.541 136.345 712.406 102.476 774.289 82.3452C834.57 62.6665 837.006 57.099 866.47 58.2306C915.43 60.1091 939.572 77.468 1004.81 99.6701C1045.52 113.515 1087.43 123.483 1130 129.443" stroke="#FF9696" stroke-width="0.743289" stroke-miterlimit="10"/>
<path d="M15 271.358C75.1814 285.197 138.002 282.373 196.696 263.191C251.581 245.021 287.003 215.383 314.406 195.602C412.888 124.566 443.72 49.3167 489.482 54.2282C512.702 56.729 534.534 57.3598 550.795 63.9497C578.695 75.2146 573.259 87.7185 590.265 101.124C622.754 126.706 723.898 97.8118 782.686 79.5741C839.781 61.6968 842.319 57.3598 873.466 60.8519C922.611 66.3491 945.718 81.7369 1006.95 102.813C1047.18 116.743 1088.75 126.416 1131 131.674" stroke="#FF9696" stroke-width="0.743289" stroke-miterlimit="10"/>
<path d="M15 277.03C73.4329 291.081 134.612 288.585 191.712 269.82C246.139 251.669 279.86 221.629 309.069 200.879C403.622 133.724 433.937 72.514 479.781 67.2361C508.461 63.9359 533.825 65.2922 554.858 69.4286C586.639 75.6672 584.789 84.5616 605.608 97.683C640.073 119.405 735.393 94.8575 791.049 78.2553C845.047 62.1503 847.562 58.7936 880.426 64.761C929.732 73.712 951.826 87.4436 1009.07 107.572C1048.82 121.712 1090.07 131.172 1132 135.759" stroke="#FF9696" stroke-width="0.743289" stroke-miterlimit="10"/>
<path d="M15 285.758C71.6803 299.932 131.218 297.766 186.718 279.513C240.698 261.476 272.707 231.207 303.734 209.619C394.291 146.613 424.292 91.3861 470.095 84.487C504.123 79.3689 534.169 71.5454 558.915 79.1322C592.965 89.5712 594.24 90.2926 620.948 98.2966C653.081 122.658 746.885 95.9405 799.433 81.105C850.3 66.7881 852.804 64.4207 887.407 72.932C936.841 85.0957 957.932 97.3158 1011.19 116.334C1050.46 130.598 1091.4 139.785 1133 143.671" stroke="#FF9696" stroke-width="0.743289" stroke-miterlimit="10"/>
<path d="M15 295.427C69.927 309.772 127.829 307.963 181.752 290.217C235.287 272.266 265.574 241.651 298.433 219.178C384.906 160.024 414.572 110.104 460.369 102.188C499.849 95.3777 532.696 84.5752 563.017 89.2999C602.113 95.389 605.576 92.9985 636.337 99.4484C670.053 121.132 758.398 97.4525 807.793 84.4286C855.53 71.8558 858.034 70.3561 894.367 81.5419C943.999 96.7872 964.021 107.714 1013.3 125.654C1052.1 140.084 1092.73 149.026 1134 152.221" stroke="#FF9696" stroke-width="0.743289" stroke-miterlimit="10"/>
<path d="M15 306.092C68.1111 320.618 124.308 319.144 176.59 301.851C229.63 283.927 258.145 252.884 292.826 229.475C375.102 173.938 404.407 128.94 450.335 120.345C495.114 111.965 531.327 105.09 566.56 99.8537C610.065 93.3851 616.309 96.0653 651.091 100.985C686.414 120.108 769.209 99.4014 815.509 88.1152C860.074 77.2588 862.576 76.5576 900.604 90.524C950.286 108.776 969.3 118.604 1014.53 135.476C1052.82 150.104 1093.1 158.824 1134 161.34" stroke="#FF9696" stroke-width="0.743289" stroke-miterlimit="10"/>
<path d="M15 314.758C56.9624 326.904 113.622 330.997 171.601 311.522C224.226 293.839 250.95 262.41 287.479 238.22C365.554 186.526 394.555 146.537 440.62 137.571C490.844 127.805 530.789 118.254 570.599 109.593C618.275 99.2065 628.645 91.9553 666.403 101.699C705.525 111.792 780.647 100.571 823.838 91.0532C865.271 81.9638 867.795 82.0314 907.526 98.7329C957.457 119.787 975.333 128.595 1016.65 144.27C1042.34 154.014 1081.09 166.757 1135 169.283" stroke="#FF9696" stroke-width="0.743289" stroke-miterlimit="10"/>
<path d="M15 323.496C57.9463 336.26 112.311 339.484 166.608 321.249C218.786 303.722 243.743 272.004 282.146 247.096C355.967 199.199 384.552 164.111 430.937 154.965C486.62 143.977 530.378 131.697 574.655 119.574C626.63 105.339 639.604 94.5077 681.739 102.721C721.901 110.586 792.114 101.957 832.22 94.2943C870.545 86.9688 873.16 87.6429 914.505 107.215C964.688 130.955 981.393 138.854 1018.77 153.28C1044.09 163.055 1082.27 175.751 1136 177.436" stroke="#FF9696" stroke-width="0.743289" stroke-miterlimit="10"/>
<path d="M15 334.137C58.9642 347.666 111 349.988 161.615 332.874C213.346 315.377 236.512 283.134 276.812 257.34C346.343 212.831 374.548 182.347 421.24 173.068C482.441 160.904 530.024 145.718 578.711 130.014C635.076 111.84 650.576 97.6015 697.076 104.084C738.335 109.834 803.582 103.734 840.591 97.8157C875.74 92.1788 878.524 93.4752 921.474 116.068C971.976 142.618 987.443 149.743 1020.89 162.99C1045.85 172.877 1083.43 185.661 1137 186.45" stroke="#FF9696" stroke-width="0.743289" stroke-miterlimit="10"/>
<path d="M15 343.865C59.9433 358.015 109.784 359.49 156.747 343.584C208.077 326.192 229.448 293.547 271.706 267.037C336.96 226.084 364.041 194.869 411.907 191.053C479.768 185.638 530.161 159.758 583.274 140.532C644.127 118.513 664.517 89.8755 713.037 105.635C753.569 118.84 815.72 105.635 849.718 101.56C881.741 97.6765 884.697 99.5114 929.268 125.053C980.17 154.243 994.342 160.659 1023.91 172.614C1048.52 182.576 1085.56 195.353 1139 195.274" stroke="#FF9696" stroke-width="0.743289" stroke-miterlimit="10"/>
<path d="M15 353.561C60.928 368.397 108.47 368.959 151.757 354.326C202.628 337.014 222.161 303.876 266.363 276.659C327.299 239.142 354.01 213.433 402.195 208.841C475.544 201.828 529.879 173.575 587.34 150.793C652.677 124.904 674.648 94.3883 728.397 106.894C771.03 116.822 827.227 107.322 858.09 105.003C886.967 102.83 890.183 105.194 936.235 133.774C987.546 165.606 1000.37 171.38 1026.03 182.029C1050.25 192.092 1086.73 204.856 1140 203.911" stroke="#FF9696" stroke-width="0.743289" stroke-miterlimit="10"/>
<path d="M15 366.23C61.9021 381.785 107.145 381.481 146.757 367.922C197.18 350.652 214.842 316.901 261.022 288.959C317.516 254.768 343.969 234.554 392.496 229.173C471.359 220.431 529.625 189.861 591.401 163.465C661.281 133.606 685.07 101.784 743.754 110.447C788.377 117.035 838.687 111.237 866.483 110.729C892.191 110.256 895.701 113.143 943.223 144.852C994.967 179.382 1006.42 184.593 1028.15 193.922C1051.99 204.142 1087.96 216.889 1141 215.073" stroke="#FF9696" stroke-width="0.743289" stroke-miterlimit="10"/>
<path d="M15 376.913C62.8451 393.17 105.751 391.973 141.643 379.6C191.575 362.383 207.316 327.995 255.466 299.444C307.506 268.578 333.61 253.936 382.459 247.794C466.715 237.204 528.937 204.465 594.948 174.48C669.371 140.69 695.149 108.063 758.454 112.387C804.912 115.559 849.419 113.516 874.103 114.859C896.61 116.067 900.467 119.454 949.372 154.305C1001.57 191.482 1011.48 196.223 1029.37 204.126C1052.79 214.524 1088.11 227.213 1141 224.515" stroke="#FF9696" stroke-width="0.743289" stroke-miterlimit="10"/>
<path d="M15 388.667C63.8318 405.56 104.408 403.421 136.651 392.327C186.103 375.119 199.918 340.218 250.137 311.241C297.751 283.762 323.543 274.752 372.78 267.882C462.46 255.37 528.749 220.694 598.986 187.212C677.929 149.608 706.337 121.397 773.788 116.261C821.853 112.612 860.862 117.725 882.481 120.913C901.844 123.773 906.051 127.67 956.349 165.533C1009.06 205.243 1017.45 209.455 1031.48 215.93C1054.46 226.55 1089.29 239.063 1142 235.504" stroke="#FF9696" stroke-width="0.743289" stroke-miterlimit="10"/>
<path d="M15 401.335C64.803 418.945 103.091 415.921 131.658 405.994C180.649 388.836 192.435 353.041 244.786 323.643C287.958 299.4 313.423 296.005 363.057 288.39C458.141 273.804 528.526 237.141 603.073 200.049C686.63 158.456 717.712 127.851 789.157 119.954C838.78 114.494 872.354 121.68 890.861 126.79C907.09 131.303 911.68 135.702 963.321 176.776C1016.6 219.148 1023.39 222.949 1033.6 227.969C1056.07 239.002 1090.46 251.219 1143 246.786" stroke="#FF9696" stroke-width="0.743289" stroke-miterlimit="10"/>
<path d="M15 413.009C65.7542 431.323 101.846 427.426 126.659 418.658C175.158 401.553 184.88 364.686 239.447 335.051C278.178 314.013 303.307 316.296 353.362 307.935C453.799 291.157 528.34 252.573 607.133 211.899C695.31 166.322 729.157 133.275 804.51 122.643C855.885 115.401 883.879 124.586 899.252 131.682C912.369 137.738 917.298 142.743 970.308 187.043C1024.16 232.09 1029.3 235.513 1035.72 239.015C1057.46 250.867 1091.62 262.403 1144 257.093" stroke="#FF9696" stroke-width="0.743289" stroke-miterlimit="10"/>
</g>
</g>
</g>
</g>
<defs>
<filter id="filter0_d_189_860" x="0" y="0" width="1150" height="206" filterUnits="userSpaceOnUse" color-interpolation-filters="sRGB">
<feFlood flood-opacity="0" result="BackgroundImageFix"/>
<feColorMatrix in="SourceAlpha" type="matrix" values="0 0 0 0 0 0 0 0 0 0 0 0 0 0 0 0 0 0 127 0" result="hardAlpha"/>
<feMorphology radius="5" operator="erode" in="SourceAlpha" result="effect1_dropShadow_189_860"/>
<feOffset/>
<feGaussianBlur stdDeviation="15"/>
<feComposite in2="hardAlpha" operator="out"/>
<feColorMatrix type="matrix" values="0 0 0 0 0.752941 0 0 0 0 0.858824 0 0 0 0 0.964706 0 0 0 0.3 0"/>
<feBlend mode="normal" in2="BackgroundImageFix" result="effect1_dropShadow_189_860"/>
<feBlend mode="normal" in="SourceGraphic" in2="effect1_dropShadow_189_860" result="shape"/>
</filter>
<clipPath id="clip0_189_860">
<rect x="25" y="25" width="1100" height="156" rx="16" fill="white"/>
</clipPath>
<clipPath id="clip1_189_860">
<rect width="1100" height="156" fill="white" transform="translate(25 25)"/>
</clipPath>
</defs>
</svg>
