<svg width="56" height="56" viewBox="0 0 56 56" fill="none" xmlns="http://www.w3.org/2000/svg">
    <mask id="8akao66h8a" fill="#fff">
        <path fill-rule="evenodd" clip-rule="evenodd" d="M12.688 28.328h-5.47c-1.64 0-1.64-2.625 0-2.625h5.47c1.64 0 1.64 2.625 0 2.625zm25.156 26.36H14.547a3.921 3.921 0 0 1-3.938-3.938V34.562l-2.734-1.968h-3.5C1.969 32.594 0 30.625 0 28.328v-7.11a4.388 4.388 0 0 1 4.375-4.374h6.234V5.25a3.921 3.921 0 0 1 3.938-3.938h23.297A3.921 3.921 0 0 1 41.78 5.25v9.188c.657.109 1.422.546 1.75 1.203l7.219 12.468c.766 1.422.11 3.391-1.422 3.391l-7.547.219V50.75a3.921 3.921 0 0 1-3.937 3.938zm-24.61-18.266v7.328h25.922v-4.922L35 34.344c-3.61 1.968-7.875-1.313-6.781-5.36.328-1.203 1.093-2.297 2.187-2.843l4.375-2.516 4.375-7.219V12.25H13.234v4.594h2.297a4.388 4.388 0 0 1 4.375 4.375v7.11c0 2.296-1.86 4.265-4.265 4.265l.765 3.281c.328 1.203-.984 2.078-1.968 1.422l-1.204-.875zm0 9.953v4.375c0 .656.547 1.313 1.313 1.313h23.297c.765 0 1.312-.657 1.312-1.313v-4.375H13.234zM39.156 35v-3.063l-1.86 1.094L39.157 35zm2.407-17.5-4.704 7.766c-.218.437-.984.765-1.53 1.093l2.077 3.61c1.64-.985 1.094-.766 3.063-.875l7.765-.11L41.562 17.5zm-2.407-7.875V5.25c0-.656-.547-1.313-1.312-1.313H14.547c-.766 0-1.313.657-1.313 1.313v4.375h25.922zm-5.14 40.906h-1.641c-1.75 0-1.75-2.625 0-2.625h1.64c1.75 0 1.75 2.625 0 2.625zm-14 0h-1.641c-1.75 0-1.75-2.625 0-2.625h1.64c1.75 0 1.75 2.625 0 2.625zm8.422-42.437h-4.485c-1.75 0-1.75-2.625 0-2.625h4.485c1.75 0 1.75 2.625 0 2.625zm21.875 13.344c-1.313 0-1.86-1.86-.657-2.516l1.969-1.094c1.422-.875 2.734 1.422 1.313 2.297-.766.438-2.079 1.313-2.626 1.313zm-2.407-3.172c-.875 0-1.422-.766-1.312-1.532l.437-3.062c.328-1.64 2.953-1.203 2.625.437l-.547 3.063c-.109.547-.656 1.094-1.203 1.094zm6.782 7.875c-.438 0-2.735-.875-3.282-1.094a1.294 1.294 0 0 1-.765-1.75c.218-.656.984-.985 1.64-.766l2.844 1.094c1.422.547.984 2.516-.438 2.516zM33.03 27.67c-.984.548-1.968.876-2.297 1.97-.437 1.859 1.532 3.28 3.063 2.406l1.312-.766-2.078-3.61zM4.375 19.47c-.984 0-1.75.765-1.75 1.75v7.11c0 .874.766 1.64 1.75 1.64h3.938c.328 0 .546.11.765.218l3.938 2.844c-.22-.984-.657-1.86-.11-2.515.547-.766 1.531-.547 2.625-.547.985 0 1.75-.766 1.75-1.64v-7.11c0-.985-.765-1.75-1.75-1.75H4.375zm8.313 4.265h-5.47c-1.64 0-1.64-2.625 0-2.625h5.47c1.64 0 1.64 2.625 0 2.625z"/>
    </mask>
    <path fill-rule="evenodd" clip-rule="evenodd" d="M12.688 28.328h-5.47c-1.64 0-1.64-2.625 0-2.625h5.47c1.64 0 1.64 2.625 0 2.625zm25.156 26.36H14.547a3.921 3.921 0 0 1-3.938-3.938V34.562l-2.734-1.968h-3.5C1.969 32.594 0 30.625 0 28.328v-7.11a4.388 4.388 0 0 1 4.375-4.374h6.234V5.25a3.921 3.921 0 0 1 3.938-3.938h23.297A3.921 3.921 0 0 1 41.78 5.25v9.188c.657.109 1.422.546 1.75 1.203l7.219 12.468c.766 1.422.11 3.391-1.422 3.391l-7.547.219V50.75a3.921 3.921 0 0 1-3.937 3.938zm-24.61-18.266v7.328h25.922v-4.922L35 34.344c-3.61 1.968-7.875-1.313-6.781-5.36.328-1.203 1.093-2.297 2.187-2.843l4.375-2.516 4.375-7.219V12.25H13.234v4.594h2.297a4.388 4.388 0 0 1 4.375 4.375v7.11c0 2.296-1.86 4.265-4.265 4.265l.765 3.281c.328 1.203-.984 2.078-1.968 1.422l-1.204-.875zm0 9.953v4.375c0 .656.547 1.313 1.313 1.313h23.297c.765 0 1.312-.657 1.312-1.313v-4.375H13.234zM39.156 35v-3.063l-1.86 1.094L39.157 35zm2.407-17.5-4.704 7.766c-.218.437-.984.765-1.53 1.093l2.077 3.61c1.64-.985 1.094-.766 3.063-.875l7.765-.11L41.562 17.5zm-2.407-7.875V5.25c0-.656-.547-1.313-1.312-1.313H14.547c-.766 0-1.313.657-1.313 1.313v4.375h25.922zm-5.14 40.906h-1.641c-1.75 0-1.75-2.625 0-2.625h1.64c1.75 0 1.75 2.625 0 2.625zm-14 0h-1.641c-1.75 0-1.75-2.625 0-2.625h1.64c1.75 0 1.75 2.625 0 2.625zm8.422-42.437h-4.485c-1.75 0-1.75-2.625 0-2.625h4.485c1.75 0 1.75 2.625 0 2.625zm21.875 13.344c-1.313 0-1.86-1.86-.657-2.516l1.969-1.094c1.422-.875 2.734 1.422 1.313 2.297-.766.438-2.079 1.313-2.626 1.313zm-2.407-3.172c-.875 0-1.422-.766-1.312-1.532l.437-3.062c.328-1.64 2.953-1.203 2.625.437l-.547 3.063c-.109.547-.656 1.094-1.203 1.094zm6.782 7.875c-.438 0-2.735-.875-3.282-1.094a1.294 1.294 0 0 1-.765-1.75c.218-.656.984-.985 1.64-.766l2.844 1.094c1.422.547.984 2.516-.438 2.516zM33.03 27.67c-.984.548-1.968.876-2.297 1.97-.437 1.859 1.532 3.28 3.063 2.406l1.312-.766-2.078-3.61zM4.375 19.47c-.984 0-1.75.765-1.75 1.75v7.11c0 .874.766 1.64 1.75 1.64h3.938c.328 0 .546.11.765.218l3.938 2.844c-.22-.984-.657-1.86-.11-2.515.547-.766 1.531-.547 2.625-.547.985 0 1.75-.766 1.75-1.64v-7.11c0-.985-.765-1.75-1.75-1.75H4.375zm8.313 4.265h-5.47c-1.64 0-1.64-2.625 0-2.625h5.47c1.64 0 1.64 2.625 0 2.625z" fill="#004498" stroke="#F6FAFF" stroke-width=".6" mask="url(#8akao66h8a)"/>
    <path opacity=".3" fill-rule="evenodd" clip-rule="evenodd" d="M15.531 16.844a4.388 4.388 0 0 1 4.375 4.375v7.11c0 2.296-1.86 4.265-4.265 4.265l.765 3.281c.328 1.203-.984 2.078-1.968 1.422l-1.204-.875v7.328h25.922v-4.922L35 34.344c-3.61 1.968-7.875-1.313-6.781-5.36.328-1.203 1.093-2.297 2.187-2.843l4.375-2.516 4.375-7.219V12.25H13.234v4.594h2.297z" fill="red"/>
    <path opacity=".3" fill-rule="evenodd" clip-rule="evenodd" d="m35.11 31.281-2.079-3.61c-.984.548-1.968.876-2.297 1.97-.437 1.859 1.532 3.28 3.063 2.406l1.312-.766zM17.28 28.328v-7.11c0-.984-.765-1.75-1.75-1.75H4.375c-.984 0-1.75.766-1.75 1.75v7.11c0 .875.766 1.64 1.75 1.64h3.938c.328 0 .546.11.765.22l3.938 2.843c-.22-.984-.657-1.86-.11-2.515.547-.766 1.531-.547 2.625-.547.985 0 1.75-.766 1.75-1.64zm-4.593-2.625c1.64 0 1.64 2.625 0 2.625h-5.47c-1.64 0-1.64-2.625 0-2.625h5.47zm0-1.969h-5.47c-1.64 0-1.64-2.625 0-2.625h5.47c1.64 0 1.64 2.625 0 2.625z" fill="red"/>
    <path opacity=".3" fill-rule="evenodd" clip-rule="evenodd" d="m39.156 31.938-1.86 1.093L39.157 35v-3.063z" fill="#004498"/>
</svg>
