<svg width="32" height="32" viewBox="0 0 32 32" fill="none" xmlns="http://www.w3.org/2000/svg">
    <path d="M23.923 13.703c-.184.223-.261.515-.216.799l.227 1.352a1 1 0 0 1-.636 1.098l-1.284.479c-.27.102-.483.315-.585.585l-.125.331v.002l-.354.951a.993.993 0 0 1-1.098.633l-1.352-.225a.991.991 0 0 0-.797.214l-1.06.87a.992.992 0 0 1-.632.23h-.002a.996.996 0 0 1-.633-.23l-1.06-.87a.993.993 0 0 0-.796-.214l-1.352.225a.993.993 0 0 1-1.098-.633l-.354-.95-.125-.334a.998.998 0 0 0-.587-.585l-1.282-.479a1 1 0 0 1-.636-1.098l.227-1.352a1.007 1.007 0 0 0-.215-.799l-.872-1.06a.998.998 0 0 1 0-1.265l.872-1.06c.183-.222.26-.515.215-.799l-.227-1.352a1 1 0 0 1 .636-1.098l1.284-.479c.27-.102.483-.315.585-.585l.479-1.284a.993.993 0 0 1 1.098-.633l1.352.225a.991.991 0 0 0 .796-.214l1.06-.87a.996.996 0 0 1 1.268 0l1.06.87c.222.184.512.261.796.214l1.353-.225a.993.993 0 0 1 1.098.635l.48 1.282c.1.27.314.486.586.586l1.282.478a.998.998 0 0 1 .636 1.098l-.227 1.353c-.046.286.032.576.215.798l.872 1.06a.998.998 0 0 1 0 1.266l-.872 1.06h0z" stroke="#004498" stroke-width="1.5" stroke-miterlimit="10" stroke-linecap="round"/>
    <path d="M16.002 21.02v.002H16M16 21.022v-.002" stroke="#004498" stroke-width=".781" stroke-miterlimit="10" stroke-linecap="round"/>
    <path d="m16.292 21.022-3.754 7.155-1.944-3.006L7 25.73l3.594-7.597.405.215.354.951a.993.993 0 0 0 1.098.633l1.352-.225a.991.991 0 0 1 .796.214l1.06.871a.997.997 0 0 0 .633.229zm9.305 4.709-3.594-.56-1.944 3.006-3.765-7.155c.225 0 .45-.077.633-.23l1.06-.87a.992.992 0 0 1 .796-.214l1.352.225a.994.994 0 0 0 1.098-.633l.354-.95h.002l4.008 7.38z" stroke="#004498" stroke-width="1.5" stroke-miterlimit="10" stroke-linecap="round"/>
    <path opacity=".5" d="m14 12.191 1.36 1.361 3.183-3.182" stroke="red" stroke-linecap="round" stroke-linejoin="round"/>
    <path opacity=".5" d="M19.403 15.479a4.904 4.904 0 1 0-6.935-6.936 4.904 4.904 0 0 0 6.935 6.936z" stroke="red" stroke-linecap="round" stroke-linejoin="round"/>
</svg>
