<svg width="56" height="56" viewBox="0 0 56 56" fill="none" xmlns="http://www.w3.org/2000/svg">
    <g clip-path="url(#rerxo7iw4a)" fill-rule="evenodd" clip-rule="evenodd">
        <path opacity=".3" d="M28 12.25c-8.698 0-15.75 7.052-15.75 15.75S19.302 43.75 28 43.75v-31.5z" fill="red"/>
        <path d="M29.75 26.25H35a1.75 1.75 0 0 1 0 3.5h-7A1.75 1.75 0 0 1 26.25 28V17.5a1.75 1.75 0 0 1 3.5 0v8.75z" fill="#004498"/>
        <path d="M34.22 40.544A13.93 13.93 0 0 1 28 42c-7.726 0-14-6.274-14-14s6.274-14 14-14 14 6.274 14 14c0 3.584-1.35 6.855-3.569 9.333a1.75 1.75 0 0 0 2.608 2.335A17.433 17.433 0 0 0 45.5 28c0-9.659-7.841-17.5-17.5-17.5-9.659 0-17.5 7.841-17.5 17.5 0 9.659 7.841 17.5 17.5 17.5 2.794 0 5.436-.656 7.78-1.823a1.75 1.75 0 0 0-1.56-3.133z" fill="#004498"/>
        <path d="M36.75 42.11a1.75 1.75 0 0 0-2.53-1.566A13.933 13.933 0 0 1 28 42c-2.234 0-4.346-.524-6.22-1.456a1.748 1.748 0 0 0-2.53 1.566v5.14c0 2.9 2.35 5.25 5.25 5.25h7c2.9 0 5.25-2.35 5.25-5.25v-5.14zm-14 2.587v2.553c0 .967.783 1.75 1.75 1.75h7a1.75 1.75 0 0 0 1.75-1.75v-2.553A17.465 17.465 0 0 1 28 45.5c-1.829 0-3.593-.282-5.25-.803zm11.47-29.241a1.748 1.748 0 0 0 2.53-1.566V8.75c0-2.9-2.35-5.25-5.25-5.25h-7a5.25 5.25 0 0 0-5.25 5.25v5.14a1.75 1.75 0 0 0 2.53 1.566A13.933 13.933 0 0 1 28 14c2.234 0 4.346.524 6.22 1.456zm-.97-4.153V8.75A1.75 1.75 0 0 0 31.5 7h-7a1.75 1.75 0 0 0-1.75 1.75v2.553A17.464 17.464 0 0 1 28 10.5c1.829 0 3.593.282 5.25.803z" fill="#004498"/>
    </g>
    <defs>
        <clipPath id="rerxo7iw4a">
            <path fill="#fff" d="M0 0h56v56H0z"/>
        </clipPath>
    </defs>
</svg>
