<svg width="56" height="56" viewBox="0 0 56 56" fill="none" xmlns="http://www.w3.org/2000/svg">
<path opacity="0.3" d="M22.5 28.5L19 36H16.5L12.5 28.5C12.5 26.2041 14.8093 24 17.4721 24C20.1404 24 22.5 26.2041 22.5 28.5Z" fill="#FF0000"/>
<path opacity="0.3" d="M43.5 28.5L40 36H37.5L33.5 28.5C33.5 26.2041 35.8093 24 38.4721 24C41.1404 24 43.5 26.2041 43.5 28.5Z" fill="#FF0000"/>
<path d="M10 27.9199H8.66667C8.48986 27.9199 8.32029 27.9902 8.19526 28.1152C8.07024 28.2402 8 28.4098 8 28.5866C8 28.7634 8.07024 28.933 8.19526 29.058C8.32029 29.183 8.48986 29.2533 8.66667 29.2533H10C10.1768 29.2533 10.3464 29.183 10.4714 29.058C10.5964 28.933 10.6667 28.7634 10.6667 28.5866C10.6667 28.4098 10.5964 28.2402 10.4714 28.1152C10.3464 27.9902 10.1768 27.9199 10 27.9199Z" fill="#B30000"/>
<path d="M13.1778 31.8931C13.2944 32.0754 13.4353 32.2795 13.5903 32.5038C14.158 33.3244 14.9356 34.4481 15.2953 35.7444C15.3861 36.0751 15.5808 36.368 15.8507 36.5796C16.1206 36.7913 16.4515 36.9106 16.7944 36.9198H18.5405C18.8833 36.9105 19.2141 36.7913 19.4841 36.5796C19.754 36.368 19.9487 36.0751 20.0395 35.7444C20.3992 34.4481 21.1768 33.3241 21.7446 32.5035C21.8998 32.2795 22.0405 32.0754 22.1573 31.8928C22.3403 31.6063 22.4952 31.3401 22.6309 31.0783C23.1039 30.2382 23.3466 29.288 23.3344 28.3239C23.3222 27.3598 23.0556 26.416 22.5616 25.5881C22.0675 24.7601 21.3636 24.0773 20.5209 23.6088C19.6782 23.1402 18.7268 22.9026 17.7628 22.9198H17.572C16.608 22.9027 15.6565 23.1404 14.8139 23.609C13.9712 24.0777 13.2673 24.7605 12.7732 25.5885C12.2792 26.4165 12.0126 27.3603 12.0004 28.3244C11.9883 29.2886 12.2309 30.2388 12.7039 31.079C12.838 31.3368 12.9926 31.6028 13.1778 31.8931ZM17.572 24.2532H17.7628C18.8854 24.2534 19.962 24.699 20.7565 25.4921C21.551 26.2852 21.9985 27.361 22.0007 28.4836C21.9791 29.1789 21.7893 29.8586 21.4474 30.4644C21.3305 30.69 21.1951 30.9224 21.0339 31.175C20.9249 31.3453 20.7931 31.5354 20.6482 31.745C20.0265 32.6438 19.1746 33.8746 18.755 35.3876C18.7402 35.4369 18.7126 35.4813 18.6748 35.5163C18.6371 35.5513 18.5907 35.5755 18.5405 35.5865H18.3341V32.5865H18.6674C18.8442 32.5865 19.0138 32.5163 19.1388 32.3912C19.2638 32.2662 19.3341 32.0966 19.3341 31.9198C19.3341 31.743 19.2638 31.5735 19.1388 31.4484C19.0138 31.3234 18.8442 31.2532 18.6674 31.2532H16.6674C16.4906 31.2532 16.321 31.3234 16.196 31.4484C16.071 31.5735 16.0007 31.743 16.0007 31.9198C16.0007 32.0966 16.071 32.2662 16.196 32.3912C16.321 32.5163 16.4906 32.5865 16.6674 32.5865H17.0007V35.5865H16.7944C16.7442 35.5755 16.6979 35.5512 16.6603 35.5163C16.6226 35.4814 16.595 35.4371 16.5802 35.3879C16.1602 33.8749 15.3087 32.6438 14.6866 31.745C14.5418 31.5357 14.4099 31.3453 14.3015 31.1757C14.1384 30.9198 14.003 30.6871 13.8878 30.4651C13.5459 29.859 13.3559 29.1791 13.3341 28.4836C13.3363 27.361 13.7838 26.2852 14.5783 25.4921C15.3728 24.699 16.4494 24.2534 17.572 24.2532Z" fill="#B30000"/>
<path d="M18.3333 20.9199V19.5866C18.3333 19.4098 18.2631 19.2402 18.1381 19.1152C18.013 18.9902 17.8435 18.9199 17.6667 18.9199C17.4899 18.9199 17.3203 18.9902 17.1953 19.1152C17.0702 19.2402 17 19.4098 17 19.5866V20.9199C17 21.0967 17.0702 21.2663 17.1953 21.3913C17.3203 21.5163 17.4899 21.5866 17.6667 21.5866C17.8435 21.5866 18.013 21.5163 18.1381 21.3913C18.2631 21.2663 18.3333 21.0967 18.3333 20.9199Z" fill="#B30000"/>
<path d="M24.5016 22.6937C24.6261 22.5686 24.6958 22.3992 24.6956 22.2227C24.6954 22.0462 24.6252 21.877 24.5004 21.7522C24.3756 21.6275 24.2064 21.5572 24.0299 21.557C23.8534 21.5568 23.6841 21.6265 23.5589 21.751L22.6162 22.6937C22.5543 22.7556 22.5052 22.8291 22.4716 22.91C22.4381 22.9908 22.4208 23.0775 22.4208 23.1651C22.4208 23.2526 22.438 23.3394 22.4715 23.4202C22.505 23.5011 22.5542 23.5746 22.6161 23.6366C22.678 23.6985 22.7515 23.7476 22.8324 23.7811C22.9133 23.8146 23 23.8318 23.0875 23.8318C23.1751 23.8318 23.2618 23.8145 23.3427 23.781C23.4235 23.7475 23.497 23.6983 23.5589 23.6364L24.5016 22.6937ZM11.7738 23.6364C11.8989 23.761 12.0683 23.8309 12.2449 23.8307C12.4214 23.8306 12.5907 23.7604 12.7156 23.6355C12.8404 23.5106 12.9107 23.3414 12.9108 23.1648C12.911 22.9882 12.8411 22.8188 12.7165 22.6937L11.7738 21.751C11.6487 21.6264 11.4793 21.5565 11.3027 21.5566C11.1261 21.5568 10.9568 21.627 10.832 21.7519C10.7071 21.8767 10.6369 22.046 10.6367 22.2226C10.6366 22.3992 10.7064 22.5686 10.8311 22.6937L11.7738 23.6364Z" fill="#B30000"/>
<path d="M25.3307 29.2533H26.6641C26.8409 29.2533 27.0104 29.183 27.1355 29.058C27.2605 28.933 27.3307 28.7634 27.3307 28.5866C27.3307 28.4098 27.2605 28.2402 27.1355 28.1152C27.0104 27.9902 26.8409 27.9199 26.6641 27.9199H25.3307C25.1539 27.9199 24.9843 27.9902 24.8593 28.1152C24.7343 28.2402 24.6641 28.4098 24.6641 28.5866C24.6641 28.7634 24.7343 28.933 24.8593 29.058C24.9843 29.183 25.1539 29.2533 25.3307 29.2533Z" fill="#B30000"/>
<path d="M33.8419 31.8931C33.9584 32.0754 34.0994 32.2795 34.2543 32.5038C34.822 33.3244 35.5997 34.4481 35.9594 35.7444C36.0502 36.0751 36.2449 36.368 36.5148 36.5796C36.7847 36.7913 37.1155 36.9106 37.4584 36.9198H39.2045C39.5474 36.9105 39.8782 36.7913 40.1481 36.5796C40.418 36.368 40.6128 36.0751 40.7035 35.7444C41.0632 34.4481 41.8409 33.3241 42.4086 32.5035C42.5639 32.2795 42.7045 32.0754 42.8214 31.8928C43.0043 31.6063 43.1593 31.3401 43.295 31.0784C43.768 30.2382 44.0106 29.288 43.9985 28.3239C43.9863 27.3598 43.7197 26.416 43.2256 25.5881C42.7316 24.7601 42.0276 24.0773 41.185 23.6088C40.3423 23.1402 39.3909 22.9026 38.4268 22.9198H38.2361C37.2721 22.9027 36.3206 23.1404 35.4779 23.609C34.6353 24.0777 33.9313 24.7605 33.4373 25.5885C32.9433 26.4165 32.6767 27.3603 32.6645 28.3244C32.6523 29.2886 32.895 30.2388 33.3679 31.079C33.5021 31.3368 33.6567 31.6028 33.8419 31.8931ZM38.2361 24.2532H38.4269C39.5495 24.2534 40.6261 24.699 41.4206 25.4921C42.2151 26.2852 42.6626 27.361 42.6648 28.4836C42.6432 29.1789 42.4533 29.8586 42.1114 30.4644C41.9946 30.69 41.8591 30.9224 41.698 31.175C41.589 31.3453 41.4571 31.5354 41.3123 31.745C40.6905 32.6438 39.8386 33.8746 39.419 35.3876C39.4043 35.4369 39.3766 35.4813 39.3389 35.5163C39.3012 35.5513 39.2548 35.5755 39.2045 35.5865H38.9981V32.5865H39.3315C39.5083 32.5865 39.6779 32.5163 39.8029 32.3912C39.9279 32.2662 39.9981 32.0966 39.9981 31.9198C39.9981 31.743 39.9279 31.5735 39.8029 31.4484C39.6779 31.3234 39.5083 31.2532 39.3315 31.2532H37.3315C37.1547 31.2532 36.9851 31.3234 36.8601 31.4484C36.735 31.5735 36.6648 31.743 36.6648 31.9198C36.6648 32.0966 36.735 32.2662 36.8601 32.3912C36.9851 32.5163 37.1547 32.5865 37.3315 32.5865H37.6648V35.5865H37.4584C37.4083 35.5755 37.362 35.5513 37.3243 35.5163C37.2867 35.4814 37.259 35.4371 37.2442 35.3879C36.8243 33.8749 35.9728 32.6438 35.3507 31.745C35.2058 31.5357 35.074 31.3453 34.9656 31.1757C34.8025 30.9198 34.6671 30.6871 34.5519 30.4651C34.2099 29.859 34.02 29.1791 33.9981 28.4836C34.0004 27.361 34.4478 26.2852 35.2423 25.4921C36.0368 24.699 37.1135 24.2534 38.2361 24.2532Z" fill="#B30000"/>
<path d="M37.6641 19.5866V20.9199C37.6641 21.0967 37.7343 21.2663 37.8593 21.3913C37.9843 21.5163 38.1539 21.5866 38.3307 21.5866C38.5075 21.5866 38.6771 21.5163 38.8021 21.3913C38.9272 21.2663 38.9974 21.0967 38.9974 20.9199V19.5866C38.9974 19.4098 38.9272 19.2402 38.8021 19.1152C38.6771 18.9902 38.5075 18.9199 38.3307 18.9199C38.1539 18.9199 37.9843 18.9902 37.8593 19.1152C37.7343 19.2402 37.6641 19.4098 37.6641 19.5866Z" fill="#B30000"/>
<path d="M45.1696 22.6937C45.2941 22.5686 45.3638 22.3992 45.3636 22.2227C45.3633 22.0462 45.2931 21.877 45.1683 21.7522C45.0435 21.6275 44.8744 21.5572 44.6979 21.557C44.5214 21.5568 44.352 21.6265 44.2269 21.751L43.2842 22.6937C43.2223 22.7556 43.1731 22.8291 43.1396 22.91C43.1061 22.9908 43.0888 23.0775 43.0888 23.1651C43.0888 23.2526 43.106 23.3394 43.1395 23.4202C43.173 23.5011 43.2221 23.5746 43.284 23.6366C43.346 23.6985 43.4195 23.7476 43.5003 23.7811C43.5812 23.8146 43.6679 23.8318 43.7555 23.8318C43.8431 23.8318 43.9298 23.8145 44.0106 23.781C44.0915 23.7475 44.165 23.6983 44.2269 23.6364L45.1696 22.6937ZM32.4417 23.6364C32.5669 23.7609 32.7362 23.8306 32.9127 23.8304C33.0892 23.8301 33.2584 23.7599 33.3832 23.6351C33.508 23.5103 33.5782 23.3412 33.5784 23.1647C33.5787 22.9882 33.5089 22.8188 33.3844 22.6937L32.4417 21.751C32.3166 21.6264 32.1472 21.5565 31.9706 21.5566C31.7941 21.5568 31.6248 21.627 31.4999 21.7519C31.3751 21.8767 31.3049 22.046 31.3047 22.2226C31.3045 22.3992 31.3744 22.5686 31.499 22.6937L32.4417 23.6364Z" fill="#B30000"/>
<path d="M29.3333 29.2529H30.6666C30.8434 29.2529 31.013 29.1827 31.138 29.0577C31.263 28.9326 31.3333 28.7631 31.3333 28.5863C31.3333 28.4095 31.263 28.2399 31.138 28.1149C31.013 27.9898 30.8434 27.9196 30.6666 27.9196H29.3333C29.1564 27.9196 28.9869 27.9898 28.8619 28.1149C28.7368 28.2399 28.6666 28.4095 28.6666 28.5863C28.6666 28.7631 28.7368 28.9326 28.8619 29.0577C28.9869 29.1827 29.1564 29.2529 29.3333 29.2529ZM45.9999 29.2529H47.3333C47.5101 29.2529 47.6796 29.1827 47.8047 29.0577C47.9297 28.9326 47.9999 28.7631 47.9999 28.5863C47.9999 28.4095 47.9297 28.2399 47.8047 28.1149C47.6796 27.9898 47.5101 27.9196 47.3333 27.9196H45.9999C45.8231 27.9196 45.6535 27.9898 45.5285 28.1149C45.4035 28.2399 45.3333 28.4095 45.3333 28.5863C45.3333 28.7631 45.4035 28.9326 45.5285 29.0577C45.6535 29.1827 45.8231 29.2529 45.9999 29.2529ZM36.0101 16.0548C35.8599 16.0909 35.7269 16.1782 35.6339 16.3016C35.5409 16.4251 35.4938 16.577 35.5004 16.7313C35.5071 16.8857 35.5673 17.033 35.6705 17.1479C35.7738 17.2628 35.9139 17.3383 36.0667 17.3613L37.3753 17.5599C37.4708 17.5891 37.5714 17.5976 37.6704 17.5847C37.7694 17.5719 37.8645 17.538 37.9494 17.4854C37.9541 17.4823 37.9595 17.4814 37.9641 17.4782C37.9713 17.4732 37.9766 17.4668 37.9835 17.4616C38.1273 17.3611 38.2254 17.2076 38.2561 17.0348L38.4898 15.7015C38.5192 15.5359 38.4849 15.3653 38.3936 15.2241C38.3023 15.0828 38.1609 14.9814 37.9979 14.9402C37.8348 14.899 37.6622 14.921 37.5148 15.002C37.3673 15.0829 37.256 15.2166 37.2032 15.3763C36.0463 14.0793 34.6284 13.0415 33.0423 12.3309C31.4562 11.6203 29.7379 11.2529 27.9999 11.2529C26.2619 11.2529 24.5436 11.6203 22.9575 12.3309C21.3714 13.0415 19.9535 14.0794 18.7966 15.3764C18.7438 15.2167 18.6325 15.0829 18.4851 15.002C18.3377 14.9211 18.165 14.899 18.002 14.9402C17.8389 14.9814 17.6976 15.0828 17.6063 15.2241C17.515 15.3653 17.4806 15.5359 17.51 15.7015L17.7437 17.0348C17.7745 17.2076 17.8725 17.3611 18.0163 17.4616C18.0232 17.4668 18.0286 17.4732 18.0357 17.4782C18.0427 17.483 18.0504 17.4857 18.0575 17.4903C18.0657 17.4952 18.0741 17.4996 18.0826 17.5042C18.1658 17.5531 18.2587 17.5831 18.3548 17.5924C18.4509 17.6016 18.5478 17.5898 18.6388 17.5578L19.9332 17.3613C20.086 17.3383 20.226 17.2628 20.3293 17.1479C20.4326 17.033 20.4928 16.8857 20.4994 16.7314C20.5061 16.577 20.4589 16.4251 20.3659 16.3017C20.2729 16.1783 20.1399 16.091 19.9896 16.0549C21.0169 14.96 22.2576 14.0873 23.6354 13.4907C25.0131 12.8941 26.4985 12.5863 27.9998 12.5863C29.5012 12.5863 30.9866 12.894 32.3643 13.4906C33.7421 14.0872 34.9829 14.9599 36.0101 16.0548Z" fill="#B30000"/>
<path d="M28.6849 10.2533C28.8827 10.2533 29.076 10.1946 29.2405 10.0847C29.4049 9.97484 29.5331 9.81866 29.6088 9.63594C29.6845 9.45321 29.7043 9.25215 29.6657 9.05816C29.6271 8.86418 29.5319 8.686 29.392 8.54615C29.2522 8.4063 29.074 8.31106 28.88 8.27247C28.686 8.23388 28.4849 8.25369 28.3022 8.32938C28.1195 8.40506 27.9633 8.53324 27.8534 8.69768C27.7435 8.86213 27.6849 9.05547 27.6849 9.25326C27.6852 9.51838 27.7907 9.77256 27.9781 9.96003C28.1656 10.1475 28.4198 10.253 28.6849 10.2533ZM28.6849 8.75326C28.7838 8.75326 28.8805 8.78258 28.9627 8.83752C29.0449 8.89246 29.109 8.97055 29.1468 9.06191C29.1847 9.15328 29.1946 9.25381 29.1753 9.3508C29.156 9.44779 29.1084 9.53688 29.0385 9.60681C28.9685 9.67673 28.8794 9.72436 28.7824 9.74365C28.6855 9.76294 28.5849 9.75304 28.4936 9.71519C28.4022 9.67735 28.3241 9.61326 28.2692 9.53104C28.2142 9.44882 28.1849 9.35215 28.1849 9.25326C28.185 9.12069 28.2377 8.99359 28.3315 8.89985C28.4252 8.80611 28.5523 8.75339 28.6849 8.75326ZM41.6849 1.91992C41.553 1.91992 41.4242 1.95902 41.3145 2.03228C41.2049 2.10553 41.1194 2.20965 41.069 2.33147C41.0185 2.45328 41.0053 2.58733 41.031 2.71665C41.0568 2.84597 41.1203 2.96476 41.2135 3.05799C41.3067 3.15123 41.4255 3.21472 41.5548 3.24045C41.6842 3.26617 41.8182 3.25297 41.94 3.20251C42.0618 3.15205 42.166 3.0666 42.2392 2.95697C42.3125 2.84734 42.3516 2.71844 42.3516 2.58659C42.3514 2.40984 42.2811 2.24039 42.1561 2.11541C42.0311 1.99043 41.8616 1.92012 41.6849 1.91992ZM41.6849 2.91992C41.619 2.91992 41.5545 2.90037 41.4997 2.86375C41.4449 2.82712 41.4022 2.77506 41.3769 2.71415C41.3517 2.65324 41.3451 2.58622 41.358 2.52156C41.3708 2.4569 41.4026 2.3975 41.4492 2.35089C41.4958 2.30427 41.5552 2.27252 41.6199 2.25966C41.6845 2.2468 41.7515 2.2534 41.8125 2.27863C41.8734 2.30386 41.9254 2.34658 41.9621 2.4014C41.9987 2.45621 42.0182 2.52066 42.0182 2.58659C42.0181 2.67497 41.983 2.7597 41.9205 2.82219C41.858 2.88469 41.7733 2.91983 41.6849 2.91992ZM20.3516 3.25326C20.2197 3.25326 20.0908 3.29235 19.9812 3.36561C19.8716 3.43886 19.7861 3.54298 19.7356 3.6648C19.6852 3.78662 19.672 3.92066 19.6977 4.04998C19.7234 4.1793 19.7869 4.29809 19.8802 4.39133C19.9734 4.48456 20.0922 4.54806 20.2215 4.57378C20.3508 4.5995 20.4849 4.5863 20.6067 4.53584C20.7285 4.48538 20.8326 4.39993 20.9059 4.2903C20.9791 4.18067 21.0182 4.05178 21.0182 3.91992C21.018 3.74317 20.9477 3.57372 20.8227 3.44874C20.6978 3.32376 20.5283 3.25346 20.3516 3.25326ZM20.3516 4.25326C20.2856 4.25326 20.2212 4.23371 20.1664 4.19708C20.1116 4.16045 20.0688 4.10839 20.0436 4.04748C20.0184 3.98657 20.0118 3.91955 20.0246 3.85489C20.0375 3.79023 20.0692 3.73084 20.1159 3.68422C20.1625 3.6376 20.2219 3.60586 20.2865 3.59299C20.3512 3.58013 20.4182 3.58673 20.4791 3.61196C20.54 3.63719 20.5921 3.67992 20.6287 3.73473C20.6653 3.78955 20.6849 3.85399 20.6849 3.91992C20.6848 4.0083 20.6497 4.09303 20.5872 4.15553C20.5247 4.21802 20.4399 4.25317 20.3516 4.25326ZM43.999 9.58659C43.8671 9.58659 43.7382 9.62569 43.6286 9.69894C43.519 9.7722 43.4335 9.87632 43.3831 9.99813C43.3326 10.12 43.3194 10.254 43.3451 10.3833C43.3708 10.5126 43.4343 10.6314 43.5276 10.7247C43.6208 10.8179 43.7396 10.8814 43.8689 10.9071C43.9982 10.9328 44.1323 10.9196 44.2541 10.8692C44.3759 10.8187 44.48 10.7333 44.5533 10.6236C44.6265 10.514 44.6656 10.3851 44.6656 10.2533C44.6654 10.0765 44.5951 9.90705 44.4702 9.78207C44.3452 9.65709 44.1757 9.58679 43.999 9.58659ZM43.999 10.5866C43.933 10.5866 43.8686 10.567 43.8138 10.5304C43.759 10.4938 43.7162 10.4417 43.691 10.3808C43.6658 10.3199 43.6592 10.2529 43.672 10.1882C43.6849 10.1236 43.7167 10.0642 43.7633 10.0176C43.8099 9.97094 43.8693 9.93919 43.9339 9.92633C43.9986 9.91347 44.0656 9.92007 44.1265 9.9453C44.1874 9.97052 44.2395 10.0132 44.2761 10.0681C44.3128 10.1229 44.3323 10.1873 44.3323 10.2533C44.3322 10.3416 44.2971 10.4264 44.2346 10.4889C44.1721 10.5514 44.0873 10.5865 43.999 10.5866ZM5.6849 19.2533C5.6849 19.1214 5.6458 18.9925 5.57254 18.8829C5.49929 18.7732 5.39517 18.6878 5.27335 18.6373C5.15153 18.5869 5.01749 18.5737 4.88817 18.5994C4.75885 18.6251 4.64006 18.6886 4.54682 18.7819C4.45359 18.8751 4.3901 18.9939 4.36437 19.1232C4.33865 19.2525 4.35185 19.3866 4.40231 19.5084C4.45277 19.6302 4.53822 19.7343 4.64785 19.8076C4.75748 19.8808 4.88638 19.9199 5.01823 19.9199C5.19498 19.9197 5.36443 19.8494 5.48941 19.7244C5.61439 19.5995 5.68469 19.43 5.6849 19.2533ZM4.6849 19.2533C4.6849 19.1873 4.70445 19.1229 4.74107 19.0681C4.7777 19.0132 4.82976 18.9705 4.89067 18.9453C4.95158 18.9201 5.0186 18.9135 5.08326 18.9263C5.14792 18.9392 5.20731 18.9709 5.25393 19.0176C5.30055 19.0642 5.3323 19.1236 5.34516 19.1882C5.35802 19.2529 5.35142 19.3199 5.32619 19.3808C5.30096 19.4417 5.25824 19.4938 5.20342 19.5304C5.1486 19.567 5.08416 19.5866 5.01823 19.5866C4.92985 19.5865 4.84512 19.5514 4.78262 19.4889C4.72013 19.4264 4.68498 19.3416 4.6849 19.2533Z" fill="#B30000"/>
<path d="M15.2128 9.25707L15.7084 8.60507L15.3954 8.42773L15.0774 9.15773H15.0668L14.7434 8.43307L14.4251 8.6154L14.9154 9.25173V9.2624L14.1484 9.16307V9.51773L14.9204 9.41873V9.42907L14.4251 10.0654L14.7221 10.2531L15.0614 9.51773H15.0718L15.3848 10.2477L15.7134 10.0601L15.2128 9.4344V9.42373L16.0001 9.51773V9.16307L15.2128 9.2674V9.25707Z" fill="#B30000"/>
<path d="M2.94433 5.2754L2.659 5.64173L2.83033 5.75006L3.02567 5.3264H3.03133L3.21167 5.74706L3.401 5.63873L3.11267 5.2784V5.2724L3.566 5.3264V5.12206L3.11267 5.18206V5.1764L3.398 4.80073L3.218 4.69873L3.03467 5.11906H3.02867L2.84233 4.70173L2.659 4.80673L2.94167 5.1734V5.1794L2.5 5.12206V5.3264L2.94433 5.2694V5.2754Z" fill="#B30000"/>
<path d="M53.0192 16.1579V15.8099L52.2469 15.9122V15.9022L52.7329 15.2625L52.4259 15.0889L52.1139 15.8049H52.1036L51.7865 15.0939L51.4742 15.2729L51.9552 15.8972V15.9072L51.2029 15.8099V16.1579L51.9602 16.0609V16.0709L51.4742 16.6949L51.7659 16.8792L52.0986 16.1579H52.1086L52.4155 16.8742L52.7379 16.6899L52.2469 16.0759V16.0659L53.0192 16.1579Z" fill="#B30000"/>
<path d="M52.8339 2.11491L53.2533 1.56357L52.9886 1.41357L52.7193 2.03124H52.7103L52.4369 1.41791L52.1673 1.57224L52.5823 2.11057V2.11957L51.9336 2.03557V2.33557L52.5866 2.25191V2.26057L52.1673 2.79891L52.4189 2.95791L52.7059 2.33557H52.7146L52.9796 2.95357L53.2576 2.79457L52.8339 2.26491V2.25624L53.4999 2.33557V2.03557L52.8339 2.12391V2.11491Z" fill="#B30000"/>
<path d="M0.666667 49.9198C1.03486 49.9198 1.33333 49.6213 1.33333 49.2531C1.33333 48.8849 1.03486 48.5864 0.666667 48.5864C0.298477 48.5864 0 48.8849 0 49.2531C0 49.6213 0.298477 49.9198 0.666667 49.9198Z" fill="#B30000"/>
<path d="M3.66667 48.5864H2.66667C2.48986 48.5864 2.32029 48.6567 2.19526 48.7817C2.07024 48.9067 2 49.0763 2 49.2531C2 49.4299 2.07024 49.5995 2.19526 49.7245C2.32029 49.8495 2.48986 49.9198 2.66667 49.9198H3.66667C3.84348 49.9198 4.01305 49.8495 4.13807 49.7245C4.2631 49.5995 4.33333 49.4299 4.33333 49.2531C4.33333 49.0763 4.2631 48.9067 4.13807 48.7817C4.01305 48.6567 3.84348 48.5864 3.66667 48.5864ZM53.3333 48.5864H52.3333C52.1565 48.5864 51.987 48.6567 51.8619 48.7817C51.7369 48.9067 51.6667 49.0763 51.6667 49.2531C51.6667 49.4299 51.7369 49.5995 51.8619 49.7245C51.987 49.8495 52.1565 49.9198 52.3333 49.9198H53.3333C53.5101 49.9198 53.6797 49.8495 53.8047 49.7245C53.9298 49.5995 54 49.4299 54 49.2531C54 49.0763 53.9298 48.9067 53.8047 48.7817C53.6797 48.6567 53.5101 48.5864 53.3333 48.5864Z" fill="#B30000"/>
<path d="M55.3307 49.9198C55.6989 49.9198 55.9974 49.6213 55.9974 49.2531C55.9974 48.8849 55.6989 48.5864 55.3307 48.5864C54.9625 48.5864 54.6641 48.8849 54.6641 49.2531C54.6641 49.6213 54.9625 49.9198 55.3307 49.9198Z" fill="#B30000"/>
<path d="M39.3846 51.2529H36.6154C36.4478 51.2664 36.2914 51.3424 36.1774 51.466C36.0633 51.5895 36 51.7515 36 51.9196C36 52.0877 36.0633 52.2497 36.1774 52.3732C36.2914 52.4968 36.4478 52.5728 36.6154 52.5863H39.3846C39.5522 52.5728 39.7086 52.4968 39.8227 52.3732C39.9367 52.2497 40 52.0877 40 51.9196C40 51.7515 39.9367 51.5895 39.8227 51.466C39.7086 51.3424 39.5522 51.2664 39.3846 51.2529ZM19.3846 51.2529H16.6154C16.4478 51.2664 16.2914 51.3424 16.1774 51.466C16.0633 51.5895 16 51.7515 16 51.9196C16 52.0877 16.0633 52.2497 16.1774 52.3732C16.2914 52.4968 16.4478 52.5728 16.6154 52.5863H19.3846C19.5522 52.5728 19.7086 52.4968 19.8227 52.3732C19.9367 52.2497 20 52.0877 20 51.9196C20 51.7515 19.9367 51.5895 19.8227 51.466C19.7086 51.3424 19.5522 51.2664 19.3846 51.2529ZM34.6667 51.2529H21.3333C21.1565 51.2529 20.987 51.3232 20.8619 51.4482C20.7369 51.5732 20.6667 51.7428 20.6667 51.9196C20.6667 52.0964 20.7369 52.266 20.8619 52.391C20.987 52.516 21.1565 52.5863 21.3333 52.5863H26.6467V53.2529H24C23.8232 53.2529 23.6536 53.3232 23.5286 53.4482C23.4036 53.5732 23.3333 53.7428 23.3333 53.9196C23.3333 54.0964 23.4036 54.266 23.5286 54.391C23.6536 54.516 23.8232 54.5863 24 54.5863H32.3333C32.5102 54.5863 32.6797 54.516 32.8047 54.391C32.9298 54.266 33 54.0964 33 53.9196C33 53.7428 32.9298 53.5732 32.8047 53.4482C32.6797 53.3232 32.5102 53.2529 32.3333 53.2529H29.3533V52.5863H34.6667C34.8435 52.5863 35.0131 52.516 35.1381 52.391C35.2631 52.266 35.3333 52.0964 35.3333 51.9196C35.3333 51.7428 35.2631 51.5732 35.1381 51.4482C35.0131 51.3232 34.8435 51.2529 34.6667 51.2529Z" fill="#B30000"/>
<path d="M27.9848 40.8489C28.6498 40.1704 29.4366 39.6221 30.3047 39.2332L30.3058 39.2327L35.0772 37.1266L35.0774 37.1266C35.2255 37.0613 35.3889 37.0388 35.5492 37.0616C35.7094 37.0844 35.8601 37.1516 35.9841 37.2556L35.9842 37.2557L38.3167 39.213L40.6552 37.2553C40.779 37.1515 40.9293 37.0844 41.0892 37.0616C41.2491 37.0388 41.4121 37.0612 41.56 37.1261L27.9848 40.8489ZM27.9848 40.8489C27.3241 40.1782 26.5484 39.6307 25.6939 39.2328L25.6939 39.2327L25.6899 39.2309L20.8934 37.1262L27.9848 40.8489ZM49.5335 42.7546C49.5371 41.7255 48.7877 40.876 48.0546 40.2859C47.3116 39.6878 46.5287 39.3107 46.3603 39.2326L46.3603 39.2326L46.3565 39.2309L41.5601 37.1262L49.3335 48.3863H49.5335M49.5335 42.7546L49.3335 42.7539H49.5335V42.7546ZM49.5335 42.7546V48.3863M49.5335 48.3863V48.5863H50.2406M49.5335 48.3863H50.2284M50.2284 48.3863C50.2238 48.3868 50.2192 48.3874 50.2146 48.388L50.2406 48.5863M50.2284 48.3863H50.2406V48.5863M50.2284 48.3863C50.347 48.3727 50.4672 48.3836 50.5815 48.4184C50.7002 48.4545 50.8099 48.5155 50.9032 48.5974C50.9964 48.6793 51.0711 48.7801 51.1223 48.8931C51.1735 49.0062 51.2 49.1289 51.2 49.253C51.2 49.3771 51.1735 49.4997 51.1223 49.6128C51.0711 49.7258 50.9964 49.8267 50.9032 49.9085C50.8099 49.9904 50.7002 50.0514 50.5815 50.0875C50.4672 50.1223 50.347 50.1332 50.2284 50.1196H5.77184C5.65324 50.1332 5.53305 50.1223 5.41874 50.0875C5.30002 50.0514 5.19036 49.9904 5.09709 49.9085C5.00382 49.8267 4.9291 49.7258 4.87791 49.6128C4.82672 49.4997 4.80024 49.3771 4.80024 49.253C4.80024 49.1289 4.82672 49.0062 4.87791 48.8931C4.9291 48.7801 5.00382 48.6793 5.09709 48.5974C5.19035 48.5155 5.30001 48.4545 5.41874 48.4184C5.53305 48.3836 5.65324 48.3727 5.77184 48.3863H6.46711V42.7535C6.4483 41.7044 7.19965 40.8531 7.93709 40.2671C8.68451 39.6731 9.47426 39.3064 9.63824 39.2331L9.63909 39.2327L14.4106 37.1266L14.4107 37.1266C14.5588 37.0613 14.7223 37.0388 14.8825 37.0616C15.0427 37.0844 15.1934 37.1516 15.3174 37.2556L15.3175 37.2557L17.65 39.213L19.9885 37.2553C19.9885 37.2553 19.9886 37.2552 19.9886 37.2552C20.1124 37.1515 20.2627 37.0844 20.4226 37.0616C20.5824 37.0388 20.7455 37.0612 20.8933 37.1261L50.2406 48.5863M47.8001 42.7517V48.3863H28.8671V42.7393H28.8672L28.8671 42.7356C28.8644 42.5937 28.9299 42.4238 29.071 42.2309C29.2102 42.0404 29.4094 41.8464 29.6389 41.6613C30.0979 41.2911 30.6514 40.9777 31.0089 40.8172C31.0091 40.8171 31.0093 40.817 31.0094 40.8169L35.2834 38.9306L37.7593 41.0078C37.9152 41.1386 38.1123 41.2104 38.3159 41.2105C38.5195 41.2105 38.7166 41.1389 38.8727 41.0082C38.8727 41.0082 38.8727 41.0082 38.8727 41.0082L41.356 38.9293L45.6424 40.8102C45.6431 40.8105 45.6438 40.8108 45.6445 40.8112C46.0032 40.9788 46.5565 41.3003 47.017 41.675C47.2477 41.8628 47.4485 42.0586 47.5899 42.2497C47.7334 42.4437 47.8006 42.6127 47.8001 42.7509V42.7517ZM8.20045 42.7393H8.20049L8.20042 42.7355C8.19776 42.5936 8.26327 42.4238 8.40431 42.2309C8.54356 42.0404 8.74271 41.8464 8.97229 41.6613C9.43125 41.2911 9.98475 40.9777 10.3423 40.8172C10.3424 40.8171 10.3426 40.817 10.3428 40.8169L14.6167 38.9305L17.0926 41.0077C17.2486 41.1386 17.4456 41.2104 17.6492 41.2105C17.8528 41.2105 18.0499 41.1389 18.206 41.0082C18.206 41.0082 18.206 41.0082 18.206 41.0082L20.6893 38.9293L24.9779 40.8112C25.3366 40.9788 25.8899 41.3003 26.3503 41.675C26.581 41.8627 26.7818 42.0586 26.9232 42.2497C27.0667 42.4437 27.134 42.6127 27.1335 42.7509V42.7517V48.3863H8.20045V42.7393Z" fill="#B30000" stroke="#B30000" stroke-width="0.4"/>
</svg>
