<svg width="56" height="56" viewBox="0 0 56 56" fill="none" xmlns="http://www.w3.org/2000/svg">
    <path opacity=".3" d="M22.5 28.5 19 36h-2.5l-4-7.5c0-2.296 2.31-4.5 4.972-4.5 2.668 0 5.028 2.204 5.028 4.5zM43.5 28.5 40 36h-2.5l-4-7.5c0-2.296 2.31-4.5 4.972-4.5 2.668 0 5.028 2.204 5.028 4.5z" fill="red"/>
    <path d="M10 27.92H8.667a.667.667 0 0 0 0 1.333H10a.667.667 0 0 0 0-1.333zM13.178 31.893c.116.182.257.386.412.61.568.821 1.346 1.945 1.705 3.241a1.6 1.6 0 0 0 1.5 1.176h1.745a1.6 1.6 0 0 0 1.5-1.176c.36-1.296 1.137-2.42 1.705-3.24.155-.224.296-.429.412-.611.183-.287.338-.553.474-.815a5.473 5.473 0 0 0-4.868-8.158h-.191a5.475 5.475 0 0 0-4.868 8.159c.134.258.289.524.474.814zm4.394-7.64h.19a4.239 4.239 0 0 1 4.239 4.23 4.302 4.302 0 0 1-.554 1.981 9.107 9.107 0 0 1-.413.711c-.11.17-.24.36-.386.57-.622.899-1.473 2.13-1.893 3.643a.288.288 0 0 1-.214.199h-.207v-3h.333a.666.666 0 1 0 0-1.334h-2a.667.667 0 1 0 0 1.334h.334v3h-.207a.288.288 0 0 1-.214-.2c-.42-1.512-1.271-2.743-1.893-3.642-.145-.21-.277-.4-.385-.57a9.242 9.242 0 0 1-.414-.71 4.308 4.308 0 0 1-.554-1.981 4.239 4.239 0 0 1 4.238-4.23zM18.333 20.92v-1.333a.667.667 0 1 0-1.333 0v1.333a.666.666 0 1 0 1.333 0zM24.502 22.694a.666.666 0 0 0-.943-.943l-.943.943a.668.668 0 0 0 .216 1.087.665.665 0 0 0 .727-.144l.943-.943zm-12.728.943a.666.666 0 0 0 .943-.943l-.943-.943a.666.666 0 0 0-.943.943l.943.943zM25.333 29.253h1.333a.667.667 0 0 0 0-1.333h-1.333a.667.667 0 0 0 0 1.333zM33.844 31.893c.116.182.257.386.412.61.568.821 1.346 1.945 1.705 3.241a1.599 1.599 0 0 0 1.5 1.176h1.745a1.599 1.599 0 0 0 1.5-1.176c.36-1.296 1.137-2.42 1.705-3.24.155-.224.295-.429.412-.611.183-.287.338-.553.474-.815a5.475 5.475 0 0 0-4.868-8.158h-.191a5.475 5.475 0 0 0-4.868 8.159c.134.258.289.524.474.814zm4.394-7.64h.19a4.239 4.239 0 0 1 4.239 4.23 4.302 4.302 0 0 1-.554 1.981 9.136 9.136 0 0 1-.413.711c-.11.17-.24.36-.386.57-.621.899-1.473 2.13-1.893 3.643a.289.289 0 0 1-.215.199H39v-3h.333a.666.666 0 1 0 0-1.334h-2a.667.667 0 1 0 0 1.334h.334v3h-.207a.287.287 0 0 1-.214-.2c-.42-1.512-1.271-2.743-1.893-3.642-.145-.21-.277-.4-.386-.57a9.275 9.275 0 0 1-.413-.71A4.308 4.308 0 0 1 34 28.484a4.239 4.239 0 0 1 4.238-4.23zM37.666 19.587v1.333a.667.667 0 0 0 1.333 0v-1.333a.667.667 0 1 0-1.333 0zM45.168 22.694a.666.666 0 0 0-.943-.943l-.943.943a.668.668 0 0 0 .216 1.087.665.665 0 0 0 .727-.144l.943-.943zm-12.728.943a.666.666 0 0 0 .943-.943l-.943-.943a.666.666 0 0 0-.943.943l.943.943zM29.334 29.253h1.333a.667.667 0 0 0 0-1.333h-1.334a.667.667 0 0 0 0 1.333zm16.666 0h1.334a.667.667 0 0 0 0-1.333H46a.667.667 0 0 0 0 1.333zm-9.99-13.198a.666.666 0 0 0 .057 1.307l1.309.198a.702.702 0 0 0 .574-.074c.004-.003.01-.004.014-.008.008-.005.013-.011.02-.016a.662.662 0 0 0 .272-.427l.234-1.333a.665.665 0 0 0-1.287-.325 12.333 12.333 0 0 0-18.406 0 .665.665 0 0 0-1.287.325l.234 1.333c.03.173.129.326.273.427.006.005.012.012.019.016.007.005.015.008.022.012.008.006.016.01.025.015a.663.663 0 0 0 .556.053l1.294-.196a.667.667 0 0 0 .057-1.307 10.984 10.984 0 0 1 16.02 0zM.667 49.92a.667.667 0 1 0 0-1.334.667.667 0 0 0 0 1.334zM3.667 48.586h-1a.667.667 0 0 0 0 1.334h1a.667.667 0 0 0 0-1.334zm49.666 0h-1a.667.667 0 0 0 0 1.334h1a.667.667 0 0 0 0-1.334zM55.333 49.92a.667.667 0 1 0 0-1.333.667.667 0 0 0 0 1.333zM39.385 51.253h-2.77a.669.669 0 0 0 0 1.334h2.77a.67.67 0 0 0 0-1.334zm-20 0h-2.77a.669.669 0 0 0 0 1.334h2.77a.67.67 0 0 0 0-1.334zm15.282 0H21.333a.667.667 0 0 0 0 1.334h5.314v.666H24a.667.667 0 1 0 0 1.334h8.333a.666.666 0 1 0 0-1.334h-2.98v-.666h5.314a.666.666 0 1 0 0-1.334z" fill="#004498"/>
    <path d="M27.985 40.85a7.6 7.6 0 0 1 2.32-1.617l4.772-2.106a.868.868 0 0 1 .907.129l2.332 1.957 2.339-1.958a.866.866 0 0 1 .905-.129L27.984 40.85zm0 0a7.892 7.892 0 0 0-2.291-1.617l-.004-.002-4.797-2.105a.866.866 0 0 0-.905.13l-2.338 1.957-2.333-1.957a.868.868 0 0 0-.435-.194l-.028.198.028-.198a.867.867 0 0 0-.471.065l-4.772 2.106h-.001c-.164.074-.954.44-1.701 1.034-.738.586-1.489 1.438-1.47 2.487v5.633h-.695a.872.872 0 0 0-.894.506l.182.083-.182-.083a.872.872 0 0 0 .894 1.227h44.456a.872.872 0 0 0 .675-1.522l-.132.15.132-.15a.873.873 0 0 0-.675-.212h-.695M27.984 40.85l21.55 7.538m0-5.632c.002-1.03-.747-1.879-1.48-2.469a8.835 8.835 0 0 0-1.694-1.053l-.004-.002-4.796-2.105 7.773 5.628h.2zm0 0v5.631m0-5.631v5.631M47.8 42.752v5.635H28.867v-5.651c-.003-.142.063-.312.204-.505.139-.19.338-.384.568-.57a6.865 6.865 0 0 1 1.37-.844l4.274-1.886 2.476 2.077a.867.867 0 0 0 1.114 0l2.483-2.078 4.286 1.88.002.001c.359.168.912.49 1.373.864.23.188.431.384.573.575.143.194.21.363.21.501zm-39.6-.013v-.003c-.002-.142.063-.312.204-.505.14-.19.338-.384.568-.57a6.863 6.863 0 0 1 1.37-.844l4.274-1.886 2.476 2.077a.867.867 0 0 0 1.114 0l2.483-2.078 4.289 1.881c.358.168.912.49 1.372.864.23.188.432.384.573.575.144.194.21.363.21.501v5.636H8.2v-5.648z" fill="#004498" stroke="#004498" stroke-width=".4"/>
</svg>
