<svg width="32" height="32" viewBox="0 0 32 32" fill="none" xmlns="http://www.w3.org/2000/svg">
<path d="M21.7734 18.5759C22.8878 19.2472 23.1054 19.1972 23.1054 19.8772C23.1054 20.4984 21.6523 22.5103 20.0078 22.5116C17.6003 22.5103 14.9703 21.029 12.9053 19.0203C10.8966 16.9553 9.41531 14.3253 9.41406 11.9178C9.41406 10.2722 11.4272 8.82031 12.0484 8.82031C12.7284 8.82031 12.6784 9.03781 13.3497 10.1522C13.7234 10.7722 14.6103 11.9378 14.4422 12.3728C14.2016 12.9922 12.7441 13.7203 12.7441 14.1641C12.7453 15.6434 16.2821 19.1803 17.7616 19.1816C18.204 19.1803 18.9321 17.7221 19.5528 17.4834C19.9878 17.3153 21.1534 18.2022 21.7734 18.5759Z" fill="white"/>
<path opacity="0.4" d="M24.4325 7.41252C29.1919 12.1725 29.2906 19.79 24.6531 24.4275C20.6138 28.4669 14.3132 28.9125 9.60938 25.8143L3.9375 28.22L6.10813 22.3518C2.92563 17.6368 3.34438 11.2649 7.4175 7.19177C12.055 2.55439 19.6725 2.65314 24.4325 7.41252ZM23.1106 19.8763C23.1106 19.1963 22.8931 19.2463 21.7787 18.575C21.1587 18.2013 19.9931 17.3144 19.5581 17.4826C18.9374 17.7213 18.2093 19.1794 17.7669 19.1807C16.2874 19.1794 12.7507 15.6426 12.7494 14.1632C12.7494 13.7195 14.2069 12.9913 14.4475 12.372C14.6156 11.937 13.7288 10.7713 13.3551 10.1513C12.6838 9.03696 12.7338 8.81946 12.0538 8.81946C11.4326 8.81946 9.41944 10.2713 9.41944 11.917C9.42075 14.3245 10.902 16.9545 12.9107 19.0195C14.9757 21.0282 17.6057 22.5095 20.0131 22.5107C21.6575 22.5094 23.1106 20.4975 23.1106 19.8763Z" fill="#FF0000"/>
<path d="M20.0083 23.1365C20.0081 23.1365 20.0078 23.1365 20.0075 23.1365C17.6123 23.1352 14.8648 21.7982 12.4695 19.4682C12.4654 19.4642 12.4613 19.4602 12.4573 19.4561C10.1273 17.0608 8.79031 14.3133 8.78906 11.9181C8.78906 11.0361 9.24081 10.1083 10.0611 9.30531C10.6255 8.75281 11.4589 8.19531 12.0484 8.19531C12.9562 8.19531 13.1978 8.62431 13.5634 9.27363C13.6528 9.43225 13.7539 9.61206 13.8851 9.82969C13.9582 9.95094 14.0585 10.1039 14.1648 10.2659C14.8344 11.2867 15.2561 12.0006 15.0252 12.5981C14.8446 13.0629 14.3664 13.4446 13.9041 13.8138C13.733 13.9504 13.4878 14.1461 13.3791 14.2644C13.463 14.7312 14.0744 15.7191 15.1405 16.7851C16.2054 17.85 17.1922 18.4613 17.6601 18.5463C17.778 18.4376 17.9724 18.1939 18.1081 18.0239C18.4787 17.5597 18.8619 17.0796 19.3284 16.9002C19.4356 16.8588 19.5538 16.8375 19.6789 16.8375C20.2109 16.8375 20.8354 17.2202 21.6596 17.7608C21.8216 17.8671 21.9746 17.9674 22.096 18.0407C22.3134 18.1717 22.4933 18.2729 22.6519 18.3623C23.3013 18.728 23.7303 18.9695 23.7303 19.8772C23.7303 20.4666 23.1725 21.2999 22.6197 21.8643C21.8167 22.6839 20.8893 23.1359 20.0083 23.1365ZM13.3473 18.5783C15.4781 20.6487 17.9674 21.8853 20.0076 21.8866C21.2421 21.8854 22.4159 20.2846 22.4803 19.8661C22.4799 19.7806 22.4749 19.7358 22.4712 19.7144C22.4076 19.6591 22.2124 19.5492 22.0386 19.4514C21.8807 19.3624 21.6842 19.2518 21.4509 19.1113C21.3089 19.0257 21.1462 18.919 20.9739 18.8059C20.6509 18.5941 20.0014 18.168 19.7249 18.0967C19.5536 18.2165 19.254 18.5919 19.085 18.8037C18.6561 19.341 18.2858 19.805 17.7634 19.8066C16.4915 19.8054 14.7577 18.1702 14.2565 17.6691C13.7553 17.1679 12.1201 15.4341 12.119 14.1646C12.119 13.6393 12.5848 13.2674 13.1241 12.8369C13.335 12.6686 13.7084 12.3704 13.8286 12.2001C13.7569 11.9232 13.3313 11.2743 13.1195 10.9514C13.0066 10.7793 12.8999 10.6166 12.8144 10.4748C12.6737 10.2413 12.5631 10.0448 12.4741 9.88694C12.3763 9.71319 12.2664 9.518 12.2111 9.45431C12.1897 9.45075 12.1449 9.44569 12.0594 9.44531C11.6406 9.50962 10.039 10.6832 10.039 11.9178C10.0401 13.9578 11.2768 16.4473 13.3473 18.5783Z" fill="#B30000"/>
<path d="M3.93764 28.845C3.77995 28.845 3.62464 28.7853 3.50608 28.6721C3.32564 28.5 3.26483 28.237 3.35133 28.0031L5.41245 22.431C3.90276 20.0682 3.19607 17.2583 3.41895 14.4812C3.65389 11.5542 4.91695 8.80847 6.97551 6.74991C9.29545 4.42997 12.4017 3.15234 15.7221 3.15234C19.1615 3.15234 22.4118 4.50834 24.8744 6.97053C29.8698 11.9665 29.9687 19.9959 25.0951 24.8695C22.7754 27.1891 19.6697 28.4666 16.3503 28.4667C16.3499 28.4667 16.3497 28.4667 16.3493 28.4667C13.9428 28.4665 11.5993 27.7939 9.54995 26.5185L4.18151 28.7954C4.10283 28.8287 4.01989 28.845 3.93764 28.845ZM9.60932 25.1893C9.72983 25.1893 9.84958 25.2242 9.95314 25.2923C11.8641 26.551 14.0759 27.2164 16.3494 27.2166C16.3496 27.2166 16.3501 27.2166 16.3503 27.2166C19.336 27.2166 22.1275 26.0692 24.2111 23.9855C28.5975 19.5993 28.4985 12.3629 23.9905 7.85441C21.7641 5.62828 18.8277 4.40234 15.7221 4.40234C12.7356 4.40234 9.94326 5.54997 7.85945 7.63378C4.07776 11.4155 3.55907 17.4583 6.62614 22.0022C6.73876 22.1691 6.76414 22.3799 6.69426 22.5687L5.0257 27.0795L9.36526 25.239C9.4437 25.2058 9.5267 25.1893 9.60932 25.1893Z" fill="#B30000"/>
</svg>
