<svg width="420" height="420" viewBox="0 0 420 420" fill="none" xmlns="http://www.w3.org/2000/svg">
    <path d="m58.688 310.436 8.93 6.149s5.157-7.501 13.036-2.276a8.782 8.782 0 0 1 3.822 9.425 9.71 9.71 0 0 1-5.61 6.795c-3.226 1.453-8.107 1.437-13.399-3.763l-13.843 20.16 8.828 6.073 8.106-11.76s14.583 5.317 23.974-8.324c8.98-13.054-.638-24.142-5.653-27.586-3.83-2.696-17.48-10.752-28.19 5.107zM57.744 357.188l-8.954-6.161-5.757 8.366 8.955 6.162 5.756-8.367z" fill="#FAB0B3"/>
    <path d="M389.578 390.859c0 .126-79.658.218-177.887.218-98.23 0-177.904-.092-177.904-.218s79.632-.218 177.904-.218c98.271 0 177.887.1 177.887.218z" fill="#263238"/>
    <path d="m350.833 390.248-119.28-.067a25.993 25.993 0 0 1-25.973-25.99l.059-299.04a26.037 26.037 0 0 1 26.04-25.981l119.28.075a25.988 25.988 0 0 1 25.973 25.99l-.059 299.04a25.963 25.963 0 0 1-7.631 18.389 25.964 25.964 0 0 1-18.409 7.584z" fill="#6B93C3"/>
    <path d="M350.794 49.788h-23.125a5.755 5.755 0 0 0-5.62 5.88v4.2a5.752 5.752 0 0 1-5.62 5.88h-45.082a5.754 5.754 0 0 1-5.612-5.88v-4.2a5.756 5.756 0 0 0-5.619-5.88h-28.375a18.195 18.195 0 0 0-18.212 18.127l-.058 291.917a18.201 18.201 0 0 0 18.194 18.169l119.053.067a18.198 18.198 0 0 0 16.823-11.229 18.215 18.215 0 0 0 1.388-6.965l.051-291.917a18.194 18.194 0 0 0-18.186-18.17z" fill="#fff"/>
    <path opacity=".2" d="M369.092 111.141V67.654a18.191 18.191 0 0 0-18.177-17.866H327.79a5.75 5.75 0 0 0-5.234 3.669 5.74 5.74 0 0 0-.386 2.21v4.2a5.752 5.752 0 0 1-5.62 5.88h-45.082a5.754 5.754 0 0 1-5.612-5.88v-4.2a5.756 5.756 0 0 0-5.619-5.88h-28.375a18.195 18.195 0 0 0-18.212 18.128v43.361h155.442v-.135z" fill="#7FA8FA"/>
    <path d="M282.423 87.04v1.892h3.31v1.878h-3.31v2.95h-2.12v-8.599h5.88v1.878l-3.76.001zM290.97 92.125h-3.171l-.589 1.67h-2.163l3.309-8.597h2.089l3.32 8.598h-2.206l-.589-1.671zm-.62-1.793-.964-2.752-.964 2.752h1.928zM301.601 94.678a2.517 2.517 0 0 1-2.099 1.08c-1.221 0-2.024-.478-3.278-1.976-1.97-.381-3.341-2.125-3.341-4.397 0-2.58 1.767-4.471 4.166-4.471 2.399 0 4.166 1.891 4.166 4.47 0 1.953-1.017 3.513-2.549 4.152.3.368.557.491.879.491.406 0 .803-.209 1.135-.602l.921 1.253zm-4.552-2.837c1.135 0 2.024-.97 2.024-2.456s-.889-2.457-2.024-2.457-2.025.97-2.025 2.457c0 1.486.89 2.456 2.025 2.456z" fill="#263238"/>
    <path d="M296.602 85.209a.03.03 0 0 1-.011-.002.036.036 0 0 1-.009-.005.028.028 0 0 1-.01-.02.03.03 0 0 1 .007-.02.029.029 0 0 1 .019-.009c.23-.031.463-.04.695-.024a.03.03 0 0 1 .019.01.029.029 0 0 1 .007.02.028.028 0 0 1-.01.018.029.029 0 0 1-.02.007 3.39 3.39 0 0 0-.683.024h-.004zM293.971 86.8a.028.028 0 0 1-.017-.005.03.03 0 0 1-.01-.018.025.025 0 0 1 .005-.02c.526-.695 1.212-1.196 1.986-1.448a.023.023 0 0 1 .01-.002.026.026 0 0 1 .019.01c.003.003.004.006.006.01a.03.03 0 0 1-.002.02.03.03 0 0 1-.016.014c-.762.25-1.44.743-1.959 1.429a.03.03 0 0 1-.022.011zM282.33 85.46h-.416a.027.027 0 0 1-.019-.008.028.028 0 0 1-.008-.02c0-.006.003-.014.008-.019a.027.027 0 0 1 .019-.008h.416c.008 0 .015.003.02.008a.028.028 0 0 1 .008.02.028.028 0 0 1-.008.02.027.027 0 0 1-.02.007zM280.586 86.8a.027.027 0 0 1-.019-.008.028.028 0 0 1-.008-.02v-1.34c0-.006.003-.014.008-.019a.027.027 0 0 1 .019-.008h.97a.028.028 0 0 1 .027.028.028.028 0 0 1-.008.02.027.027 0 0 1-.019.007h-.942v1.31c0 .005 0 .008-.002.012a.02.02 0 0 1-.006.01.019.019 0 0 1-.009.006.025.025 0 0 1-.011.002zM290.262 85.46h-.484a.027.027 0 0 1-.02-.008.028.028 0 0 1-.008-.02c0-.006.003-.013.008-.019a.028.028 0 0 1 .02-.008h.484c.007 0 .014.003.019.008a.025.025 0 0 1 .009.02.028.028 0 0 1-.008.02.03.03 0 0 1-.02.007zM287.954 86.956h-.01a.029.029 0 0 1-.01-.006.094.094 0 0 1-.006-.009.037.037 0 0 1-.002-.01c0-.004 0-.007.002-.01l.559-1.496a.025.025 0 0 1 .01-.013.026.026 0 0 1 .016-.005h.779c.007 0 .014.003.019.008a.028.028 0 0 1 .008.02.028.028 0 0 1-.008.02.027.027 0 0 1-.019.008h-.76l-.552 1.477a.03.03 0 0 1-.011.012.027.027 0 0 1-.015.004z" fill="#263238"/>
    <path d="M245.226 170.126c10.406 0 18.841-8.417 18.841-18.799 0-10.383-8.435-18.8-18.841-18.8s-18.841 8.417-18.841 18.8c0 10.382 8.435 18.799 18.841 18.799z" fill="#FFD0D2"/>
    <path d="m236.426 156.03 4.939-.42 12.046 2.033 1.419 9.064-.201 1.058a18.95 18.95 0 0 1-17.859.412l-.344-12.147z" fill="#455A64"/>
    <path d="M250.828 157.5a6.439 6.439 0 0 1 6.25 2.747 36.105 36.105 0 0 1 2.243 3.553c-1.966 2.134-3.562 3.755-6.284 4.704l-2.209-11.004zM236.425 156.031s-3.259.403-4.519 3.183c-1.26 2.781-1.554 3.646-1.554 3.646 1.68 2.033 3.83 4.435 6.459 5.334 0 0 .597-7.006.672-8.98.093-2.133.177-3.242-1.058-3.183z" fill="#455A64"/>
    <path d="M239.4 138.222a8.92 8.92 0 0 1 6.905-3.427c1.147 0 2.285.205 3.36.605a4.907 4.907 0 0 1 2.822 1.865 8.17 8.17 0 0 1 1.63 3.78 23.32 23.32 0 0 1 .201 4.258 7.82 7.82 0 0 1-1.335 4.007l-3.621.622a22.563 22.563 0 0 1-5.972-.319 7.67 7.67 0 0 1-4.889-3.209c-1.453-2.361-.848-6.031.899-8.182z" fill="#263238"/>
    <path d="M235.907 148.68a2.703 2.703 0 0 1 1.226-2.032 1.947 1.947 0 0 1 2.285.201l.571.672a2.339 2.339 0 0 1 1.344 2.352 2.521 2.521 0 0 1-1.781 2.092 2.84 2.84 0 0 1-2.696-.647 3.18 3.18 0 0 1-.949-2.638z" fill="#263238"/>
    <path d="M236.618 151.151a1.236 1.236 0 0 1-.194-.714 3.315 3.315 0 0 1 .84-1.63 4.88 4.88 0 0 1 1.454-1.159c.42-.227.714-.311.705-.336-.268.02-.529.097-.764.227a4.198 4.198 0 0 0-1.529 1.159 3.952 3.952 0 0 0-.588.84c-.138.26-.218.546-.235.84-.004.202.052.401.159.571.076.168.152.252.152.202z" fill="#455A64"/>
    <path d="M249.326 156.853v-3.36s2.949-.327 3.772-4.107c.387-2.501.539-5.032.453-7.56 0-2.294-1.974-5.418-4.813-5.427l-1.26-.151-4.83 1.915a1.352 1.352 0 0 0-1.277 1.294l-.142 16.136 2.209 3.1a3.263 3.263 0 0 0 3.61 1.169 3.26 3.26 0 0 0 2.27-3.042l.008.033z" fill="#FFBE9D"/>
    <path d="M247.4 148.512a.771.771 0 0 1 .277-.495.841.841 0 0 1 1-.059 1.118 1.118 0 0 1 .42 1.033 1.013 1.013 0 0 1-.317.287 1.003 1.003 0 0 1-.406.133h-.134a.828.828 0 0 1-.605-.235.835.835 0 0 1-.235-.664z" fill="#EB996E"/>
    <path d="M251.799 144.481a.488.488 0 0 1-.495.47.48.48 0 0 1-.488-.47.5.5 0 0 1 .842-.336.479.479 0 0 1 .141.336zM252.602 143.27c-.067.059-.428-.235-.949-.26-.521-.025-.933.218-.983.151-.05-.067.042-.143.218-.26.238-.142.513-.21.79-.194.274.011.536.111.748.286.151.134.201.252.176.277zM249.287 147.252c.275-.064.557-.098.84-.1.134 0 .269 0 .294-.118a.692.692 0 0 0-.067-.403l-.345-1.042a17.781 17.781 0 0 1-.747-2.73c.392.861.715 1.751.966 2.663.117.361.218.714.327 1.05a.835.835 0 0 1 .042.529.392.392 0 0 1-.235.185 1.077 1.077 0 0 1-.227 0 3.13 3.13 0 0 1-.848-.034z" fill="#263238"/>
    <path d="M249.31 153.502a9.717 9.717 0 0 1-5.04-1.68s1.218 2.713 5.04 2.571v-.891z" fill="#EB996E"/>
    <path d="M247.717 147.538c.092 0 .058.572.529 1 .47.428 1.075.403 1.075.479 0 .075-.143.109-.395.101a1.466 1.466 0 0 1-.907-.37 1.258 1.258 0 0 1-.403-.84c-.009-.244.067-.378.101-.37zM252.493 141.288c-.093.126-.496 0-.966 0-.471 0-.84.118-.966 0s0-.185.184-.302c.232-.146.5-.225.773-.227.275-.007.547.066.781.21.177.151.236.26.194.319zM246.018 144.48a.493.493 0 0 0 .47.504.461.461 0 0 0 .348-.11.47.47 0 0 0 .164-.326.498.498 0 0 0-.47-.496.463.463 0 0 0-.512.428zM245.38 143.086c.059.067.437-.202.966-.193.529.008.907.277.966.218.059-.059 0-.143-.201-.269a1.31 1.31 0 0 0-.773-.252 1.272 1.272 0 0 0-.765.227c-.168.126-.226.235-.193.269zM245.078 141.96c.101.126.512 0 .999 0 .488 0 .899.101 1 0 .101-.101 0-.185-.202-.302a1.584 1.584 0 0 0-1.612 0c-.177.117-.236.235-.185.302z" fill="#263238"/>
    <path d="M242.013 145.9c0-.286-.269-.975-.555-1.033-.739-.16-2.091-.168-2.209 1.73-.16 2.596 2.52 2.218 2.52 2.142 0-.076.193-1.865.244-2.839z" fill="#FFBE9D"/>
    <path d="M241.078 147.748s-.042 0-.126.059a.421.421 0 0 1-.336 0 1.125 1.125 0 0 1-.462-1.041c.01-.223.067-.44.168-.639a.535.535 0 0 1 .361-.327.226.226 0 0 1 .26.142.443.443 0 0 1 0 .126s.059 0 .042-.142a.282.282 0 0 0-.092-.168.312.312 0 0 0-.112-.07c-.043-.014-.087-.019-.132-.014a.63.63 0 0 0-.495.369 1.533 1.533 0 0 0-.202.714 1.178 1.178 0 0 0 .588 1.168.521.521 0 0 0 .42-.042c.118-.042.118-.126.118-.135z" fill="#EB996E"/>
    <path d="m241.357 144.875.656.681c2.856-2.722 8.442-9.551 8.131-9.148a8.407 8.407 0 0 0-4.083-.437c-2.125.361-6.148 1.42-6.09 3.915a13.095 13.095 0 0 0 1.386 4.989z" fill="#263238"/>
    <path d="M237.576 144.304v-.151c.05-.141.109-.279.177-.412a3.738 3.738 0 0 1 1.092-1.218 7.208 7.208 0 0 1 2.192-1.058c.84-.277 1.848-.496 2.814-.907a13.15 13.15 0 0 0 5.435-4.268l.26-.361a.595.595 0 0 1 .101-.117l-.076.134c-.058.084-.134.218-.243.378-.313.448-.656.874-1.025 1.277a12.806 12.806 0 0 1-1.814 1.613 12.472 12.472 0 0 1-2.588 1.461c-.926.355-1.871.658-2.83.907a7.231 7.231 0 0 0-2.168 1.017 3.83 3.83 0 0 0-1.1 1.167 3.904 3.904 0 0 0-.227.538z" fill="#455A64"/>
    <path d="M238.333 144.707a1.36 1.36 0 0 1 .101-.563c.194-.497.533-.925.974-1.226a5.875 5.875 0 0 1 2.176-.84 12.49 12.49 0 0 0 2.696-.84 11.336 11.336 0 0 0 2.402-1.478 12.154 12.154 0 0 0 1.68-1.622c.334-.398.64-.819.916-1.26a5.51 5.51 0 0 0 .218-.361.706.706 0 0 1 .093-.126.848.848 0 0 1-.067.135l-.202.378a8.936 8.936 0 0 1-.89 1.293c-.497.62-1.06 1.184-1.68 1.68a11.5 11.5 0 0 1-2.428 1.512c-.875.385-1.791.667-2.73.84a6.157 6.157 0 0 0-2.142.84c-.436.284-.777.69-.983 1.168-.058.152-.103.31-.134.47z" fill="#455A64"/>
    <path d="M236.811 168.177a33.543 33.543 0 0 1 0-4.972 36.829 36.829 0 0 1 0 4.972zM254.637 167.824a5.354 5.354 0 0 1 0-.84 9.705 9.705 0 0 0-.076-2.1 10.136 10.136 0 0 0-.604-2.024 4.732 4.732 0 0 1-.303-.84c.165.245.303.507.412.781a8.06 8.06 0 0 1 .663 2.041 7.61 7.61 0 0 1 0 2.142c.005.283-.026.565-.092.84z" fill="#263238"/>
    <path d="M345.302 175.2h-64.218a5.782 5.782 0 0 1-4.078-1.692 5.783 5.783 0 0 1-1.692-4.079v-26.964l-7.082-6.283h77.07a5.76 5.76 0 0 1 5.372 3.559c.293.704.442 1.458.441 2.22v27.468a5.773 5.773 0 0 1-3.593 5.342 5.765 5.765 0 0 1-2.22.429z" fill="#FAB0B3"/>
    <path d="M340.902 179.567a54.47 54.47 0 0 1-6.855.219 54.517 54.517 0 0 1-6.846-.219 54.516 54.516 0 0 1 6.846-.218 54.66 54.66 0 0 1 6.855.218z" fill="#E0E0E0"/>
    <path d="M343.738 180.105a.207.207 0 0 1-.152-.067l-1.327-1.386a.212.212 0 0 1 .067-.341.202.202 0 0 1 .227.047l1.176 1.226 2.579-2.62a.202.202 0 0 1 .294 0 .209.209 0 0 1 0 .294l-2.73 2.78a.248.248 0 0 1-.134.067zM345.624 180.063h-.244a.21.21 0 0 1-.21-.21.236.236 0 0 1 .218-.21h.151l2.663-2.713a.205.205 0 0 1 .152-.065.211.211 0 0 1 .151.358l-2.73 2.772a.2.2 0 0 1-.151.068z" fill="#7FA8FA"/>
    <path d="M340.902 285.129a54.47 54.47 0 0 1-6.855.219 54.328 54.328 0 0 1-6.846-.219 54.516 54.516 0 0 1 6.846-.218 54.66 54.66 0 0 1 6.855.218z" fill="#E0E0E0"/>
    <path d="M343.733 285.667a.208.208 0 0 1-.096-.013.203.203 0 0 1-.081-.054l-1.327-1.386a.221.221 0 0 1-.056-.069.2.2 0 0 1-.022-.087.206.206 0 0 1 .141-.207c.029-.01.059-.013.089-.01a.212.212 0 0 1 .151.087l1.176 1.227 2.578-2.621a.208.208 0 0 1 .147-.064c.028 0 .055.006.08.017a.189.189 0 0 1 .067.047c.039.039.06.092.06.147a.207.207 0 0 1-.06.147l-2.696 2.772a.246.246 0 0 1-.151.067zM345.624 285.601h-.244a.218.218 0 0 1-.21-.218.203.203 0 0 1 .218-.202h.151l2.663-2.713a.217.217 0 0 1 .152-.064.211.211 0 0 1 .151.358l-2.73 2.772a.2.2 0 0 1-.068.051.198.198 0 0 1-.083.016z" fill="#7FA8FA"/>
    <path d="M344.481 143.901c0 .118-14.019.218-31.315.218-17.295 0-31.307-.1-31.307-.218s14.012-.218 31.307-.218c17.296 0 31.315.092 31.315.218zM344.481 148.495c0 .126-14.019.219-31.315.219-17.295 0-31.307-.093-31.307-.219s14.012-.218 31.307-.218c17.296 0 31.315.101 31.315.218zM344.481 153.099c0 .118-14.019.219-31.315.219-17.295 0-31.307-.101-31.307-.219 0-.117 14.012-.218 31.307-.218 17.296 0 31.315.101 31.315.218z" fill="#fff"/>
    <path d="M245.226 287.365c10.406 0 18.841-8.417 18.841-18.8 0-10.382-8.435-18.799-18.841-18.799s-18.841 8.417-18.841 18.799c0 10.383 8.435 18.8 18.841 18.8z" fill="#FFD0D2"/>
    <path d="m236.426 273.269 4.939-.42 12.046 2.033 1.419 9.039-.201 1.05a18.926 18.926 0 0 1-17.859.411l-.344-12.138" fill="#455A64"/>
    <path d="M250.828 274.731a6.462 6.462 0 0 1 3.518.479 6.46 6.46 0 0 1 2.732 2.268 35.634 35.634 0 0 1 2.243 3.562c-1.966 2.133-3.562 3.754-6.284 4.695l-2.209-11.004zM236.425 273.27s-3.259.394-4.519 3.175c-1.26 2.78-1.554 3.654-1.554 3.654 1.68 2.024 3.83 4.427 6.459 5.325 0 0 .597-6.997.672-8.979.093-2.167.177-3.243-1.058-3.175z" fill="#455A64"/>
    <path d="M239.4 255.461a8.901 8.901 0 0 1 3.061-2.502 8.906 8.906 0 0 1 3.844-.926 9.47 9.47 0 0 1 3.36.597 4.986 4.986 0 0 1 2.822 1.865 8.22 8.22 0 0 1 1.63 3.78c.197 1.413.264 2.841.201 4.267a7.75 7.75 0 0 1-1.335 3.998l-3.621.63a22.905 22.905 0 0 1-5.972-.319 7.67 7.67 0 0 1-4.889-3.209c-1.453-2.402-.848-6.039.899-8.181z" fill="#263238"/>
    <path d="M235.906 265.953a2.695 2.695 0 0 1 1.227-2.032 1.936 1.936 0 0 1 2.285.193l.571.68a2.33 2.33 0 0 1 1.344 2.352 2.566 2.566 0 0 1-1.781 2.092 2.844 2.844 0 0 1-2.696-.655 3.157 3.157 0 0 1-.95-2.63z" fill="#263238"/>
    <path d="M236.618 268.388a1.29 1.29 0 0 1-.194-.723 3.287 3.287 0 0 1 .84-1.621 4.743 4.743 0 0 1 1.454-1.159c.42-.227.714-.311.705-.344a2.028 2.028 0 0 0-.764.226 4.386 4.386 0 0 0-1.529 1.16c-.233.27-.431.569-.588.89-.139.26-.219.546-.235.84-.003.202.052.4.159.571.076.126.152.168.152.16z" fill="#455A64"/>
    <path d="M249.342 274.395v-3.36s2.948-.328 3.771-4.099c.387-2.501.539-5.032.454-7.56 0-2.293-1.974-5.418-4.813-5.427l-1.26-.142-4.83 1.915a1.347 1.347 0 0 0-1.277 1.293l-.143 16.128 2.209 3.1a3.26 3.26 0 0 0 5.88-1.873l.009.025z" fill="#FFBE9D"/>
    <path d="M247.401 265.751a.771.771 0 0 1 .277-.496.844.844 0 0 1 1-.059 1.124 1.124 0 0 1 .42 1.034 1.022 1.022 0 0 1-.723.411h-.134a.922.922 0 0 1-.605-.243.77.77 0 0 1-.192-.297.773.773 0 0 1-.043-.35z" fill="#EB996E"/>
    <path d="M251.799 262.08a.493.493 0 0 1-.818.308.5.5 0 0 1-.165-.308.495.495 0 0 1 .504-.471.476.476 0 0 1 .443.289.469.469 0 0 1 .036.182zM252.602 260.829c-.067.059-.428-.235-.949-.26-.521-.026-.933.209-.983.142-.05-.067.042-.142.218-.252.235-.149.513-.217.79-.193.274.011.536.111.748.286.151.134.201.252.176.277zM249.287 264.811c.275-.065.557-.102.84-.109.134 0 .269 0 .294-.118a.702.702 0 0 0-.067-.403c-.109-.327-.227-.672-.345-1.041a18.214 18.214 0 0 1-.747-2.722c.393.857.716 1.745.966 2.654.117.37.218.714.327 1.05a.838.838 0 0 1 .042.53.335.335 0 0 1-.235.184.72.72 0 0 1-.227 0 3.13 3.13 0 0 1-.848-.025z" fill="#263238"/>
    <path d="M249.31 271.052a9.745 9.745 0 0 1-5.04-1.638s1.218 2.713 5.04 2.57v-.932z" fill="#EB996E"/>
    <path d="M247.717 265.088c.092 0 .058.571.529 1.008.47.437 1.075.403 1.075.479 0 .075-.143.101-.395.101a1.428 1.428 0 0 1-.907-.379 1.224 1.224 0 0 1-.403-.84c-.009-.235.067-.369.101-.369zM252.493 258.847c-.093.126-.496 0-.966 0-.471 0-.84.117-.966 0-.126-.118 0-.185.184-.303.23-.149.499-.228.773-.226a1.34 1.34 0 0 1 .781.21c.177.134.236.26.194.319zM246.018 262.013a.49.49 0 0 0 .47.496.463.463 0 0 0 .512-.429.492.492 0 0 0-.47-.504.468.468 0 0 0-.512.437zM245.38 260.636c.059.067.437-.202.966-.185.529.017.907.277.966.21.059-.067 0-.143-.201-.269a1.331 1.331 0 0 0-1.538-.017c-.168.118-.226.236-.193.261zM245.078 259.511c.101.117.512 0 .999 0 .488 0 .899.092 1 0 .101-.093 0-.177-.202-.294a1.594 1.594 0 0 0-1.612 0c-.177.109-.236.235-.185.294z" fill="#263238"/>
    <path d="M242.013 263.129c0-.285-.269-.966-.555-1.025-.739-.159-2.091-.176-2.209 1.722-.16 2.596 2.52 2.226 2.52 2.151 0-.076.193-1.865.244-2.848z" fill="#FFBE9D"/>
    <path d="M241.077 264.987s-.042 0-.126.059a.474.474 0 0 1-.336 0 1.116 1.116 0 0 1-.462-1.033c.009-.223.067-.441.168-.639a.548.548 0 0 1 .362-.327.231.231 0 0 1 .26.134.43.43 0 0 1 0 .134s.059-.042.042-.151a.315.315 0 0 0-.092-.168.343.343 0 0 0-.114-.062.318.318 0 0 0-.13-.013.61.61 0 0 0-.496.369 1.52 1.52 0 0 0-.201.714 1.164 1.164 0 0 0 .588 1.159.476.476 0 0 0 .42 0c.117-.117.117-.176.117-.176z" fill="#EB996E"/>
    <path d="m241.357 262.081.656.688c2.856-2.73 8.442-9.559 8.131-9.147a8.3 8.3 0 0 0-4.083-.445c-2.125.361-6.148 1.419-6.09 3.922.126 1.737.597 3.43 1.386 4.982z" fill="#263238"/>
    <path d="M237.576 261.535v-.151c.051-.138.11-.273.177-.404a3.83 3.83 0 0 1 1.092-1.226c.68-.47 1.435-.82 2.234-1.033.84-.286 1.848-.504 2.814-.916.91-.377 1.772-.859 2.57-1.436a13.24 13.24 0 0 0 1.815-1.579c.47-.504.84-.941 1.05-1.244.101-.151.193-.268.26-.361.067-.092.093-.126.101-.117l-.076.134-.243.37c-.309.45-.652.877-1.025 1.276a12.814 12.814 0 0 1-1.814 1.622 12.527 12.527 0 0 1-2.596 1.411c-.974.411-1.966.63-2.831.907a7.214 7.214 0 0 0-2.167 1.008c-.446.31-.821.71-1.1 1.176-.099.182-.186.37-.261.563z" fill="#455A64"/>
    <path d="M238.333 261.946a1.398 1.398 0 0 1 .101-.571c.192-.496.532-.921.974-1.218a5.892 5.892 0 0 1 2.176-.84c.926-.181 1.83-.462 2.696-.84.859-.39 1.666-.887 2.402-1.478a11.603 11.603 0 0 0 2.571-2.881c.092-.152.168-.269.218-.37a.804.804 0 0 1 .093-.118.776.776 0 0 1-.068.135l-.201.378a8.864 8.864 0 0 1-.891 1.293 10.677 10.677 0 0 1-1.68 1.68 11.11 11.11 0 0 1-2.427 1.504 12.91 12.91 0 0 1-2.73.84 5.82 5.82 0 0 0-2.142.84 2.514 2.514 0 0 0-.983 1.168 2.607 2.607 0 0 0-.109.478z" fill="#455A64"/>
    <path d="M236.811 285.407a33.435 33.435 0 0 1 0-4.964 36.71 36.71 0 0 1 0 4.964zM254.637 285.063a5.411 5.411 0 0 1 0-.882 9.788 9.788 0 0 0-.076-2.109 10.215 10.215 0 0 0-.604-2.016 4.98 4.98 0 0 1-.303-.84c.165.245.303.507.412.781.312.648.535 1.334.663 2.042a7.61 7.61 0 0 1 0 2.142c.008.296-.023.593-.092.882z" fill="#263238"/>
    <path d="M345.302 279.619h-64.218a5.777 5.777 0 0 1-5.77-5.779v-14.146l-7.082-6.283h77.07a5.78 5.78 0 0 1 5.771 5.771v14.658a5.777 5.777 0 0 1-5.771 5.779z" fill="#FAB0B3"/>
    <path d="M344.481 261.131c0 .126-14.019.218-31.315.218-17.295 0-31.307-.092-31.307-.218s14.012-.218 31.307-.218c17.296 0 31.315.1 31.315.218zM344.481 265.735c0 .117-14.019.218-31.315.218-17.295 0-31.307-.101-31.307-.218 0-.118 14.012-.219 31.307-.219 17.296 0 31.315.101 31.315.219zM344.481 270.337c0 .118-14.019.218-31.315.218-17.295 0-31.307-.1-31.307-.218s14.012-.218 31.307-.218c17.296 0 31.315.092 31.315.218zM344.481 157.703c0 .117-14.019.218-31.315.218-17.295 0-31.307-.101-31.307-.218 0-.118 14.012-.219 31.307-.219 17.296 0 31.315.093 31.315.219zM344.481 162.297c0 .126-14.019.218-31.315.218-17.295 0-31.307-.092-31.307-.218s14.012-.218 31.307-.218c17.296 0 31.315.1 31.315.218zM344.481 167.824c0 .126-14.019.218-31.315.218-17.295 0-31.307-.092-31.307-.218s14.012-.219 31.307-.219c17.296 0 31.315.101 31.315.219z" fill="#fff"/>
    <path d="M323.252 97.264c0 .118-14.28.219-31.979.219-17.699 0-31.97-.101-31.97-.219 0-.117 14.28-.226 31.97-.226 17.691 0 31.979.1 31.979.226zM355.536 87.89a1.486 1.486 0 1 0 0-2.973 1.486 1.486 0 0 0 0 2.973zM357 90.721a1.497 1.497 0 0 1-1.785 1.475 1.49 1.49 0 0 1-1.177-1.177 1.5 1.5 0 0 1 .642-1.536 1.492 1.492 0 0 1 1.882.19c.279.278.436.655.438 1.048zM357 95.08a1.497 1.497 0 0 1-1.785 1.475 1.49 1.49 0 0 1-1.177-1.177 1.5 1.5 0 0 1 .642-1.537c.247-.163.537-.25.833-.248A1.487 1.487 0 0 1 357 95.08zM234.626 91.443a.396.396 0 0 1-.252-.084l-3.94-2.89a.428.428 0 0 1-.129-.534.415.415 0 0 1 .129-.146l3.94-2.84a.417.417 0 0 1 .588.102c.063.09.089.2.072.308a.424.424 0 0 1-.165.271l-3.477 2.52 3.477 2.52a.426.426 0 0 1 .093.588.418.418 0 0 1-.336.185z" fill="#263238"/>
    <path d="M337.433 232.679c10.406 0 18.841-8.416 18.841-18.799 0-10.382-8.435-18.799-18.841-18.799s-18.841 8.417-18.841 18.799c0 10.383 8.435 18.799 18.841 18.799z" fill="#E5EEFE"/>
    <path d="M342.589 224.995h-9.912a1.281 1.281 0 0 1-1.277-1.277 1.286 1.286 0 0 1 1.277-1.285h9.912a1.285 1.285 0 0 1 1.277 1.285 1.281 1.281 0 0 1-1.277 1.277zM338.2 201.659h-.874v4.402h.874v-4.402z" fill="#263238"/>
    <path d="M324.917 219.258a2.554 2.554 0 1 0-.002-5.108 2.554 2.554 0 0 0 .002 5.108zM350.743 219.089a2.554 2.554 0 1 0 0-5.108 2.554 2.554 0 0 0 0 5.108z" fill="#7FA8FA"/>
    <path d="M338.144 205.136s10.399-.126 12.046 8.887c1.646 9.013-7.149 9.173-9.677 9.341-1.143.076-3.595.084-5.763.05-4.796-.084-8.181-1.008-9.332-5.46a8.356 8.356 0 0 1-.26-1.596c-.303-4.872 2.99-11.457 12.986-11.222z" fill="#7FA8FA"/>
    <path d="m330.597 218.854 15.12.236a2.877 2.877 0 0 0 2.915-2.823 2.872 2.872 0 0 0-2.831-2.906l-15.12-.235a2.862 2.862 0 0 0-2.712 3.923 2.861 2.861 0 0 0 2.628 1.805z" fill="#263238"/>
    <path d="M342.574 215.957a.913.913 0 0 0 1.075.731.927.927 0 0 0 .814-1.097.92.92 0 0 0-.427-.612.925.925 0 0 0-.74-.097.918.918 0 0 0-.721.717.918.918 0 0 0-.001.358zM332.016 215.787a.922.922 0 0 0 1.097.814.917.917 0 0 0 .739-.786.921.921 0 0 0-1.093-1.027.923.923 0 0 0-.743.999z" fill="#fff"/>
    <path d="M339.197 201.6a1.432 1.432 0 0 1-.881 1.333 1.43 1.43 0 0 1-1.568-.306 1.433 1.433 0 0 1 .214-2.212 1.434 1.434 0 0 1 2.235 1.185z" fill="#7FA8FA"/>
    <path d="M339.926 215.536s.059.067.093.219c.026.214.006.432-.059.638a1.914 1.914 0 0 1-.504.84 1.777 1.777 0 0 1-1.084.512 1.805 1.805 0 0 1-1.159-.302 2.053 2.053 0 0 1-.647-.714 1.55 1.55 0 0 1-.168-.622c0-.151 0-.235.051-.235.05 0 .084.319.361.714.162.219.364.404.596.546.281.167.607.243.933.219.313-.041.606-.175.84-.387.212-.175.381-.397.495-.647.219-.436.185-.781.252-.781z" fill="#fff"/>
    <path d="M350.172 213.73c.031.071.057.144.076.218.032.089.06.178.084.269 0 .101.058.219.084.361.064.314.109.631.134.95.029.391.029.784 0 1.176-.035.39-.1.778-.193 1.159a6.61 6.61 0 0 1-.303.907 3.554 3.554 0 0 1-.142.344 2.162 2.162 0 0 1-.126.244l-.118.21a.749.749 0 0 1 .092-.218l.11-.261c.042-.101.092-.21.134-.336.113-.295.206-.599.277-.907.09-.379.154-.763.193-1.151a9.089 9.089 0 0 0 0-1.167 8.254 8.254 0 0 0-.117-.941 3.436 3.436 0 0 0-.076-.387c0-.109-.042-.193-.059-.268a.787.787 0 0 1-.05-.202zM325.535 213.781a1.123 1.123 0 0 0-.084.227c0 .067-.051.159-.084.26a2.812 2.812 0 0 0-.084.361c-.065.313-.107.63-.126.949-.03.392-.03.785 0 1.176.033.391.098.779.193 1.16.078.312.179.618.302.915.042.126.101.235.143.336.042.101.093.185.126.252l.118.202a.981.981 0 0 0-.093-.219c0-.067-.067-.151-.109-.252-.042-.1-.092-.21-.134-.336a6.938 6.938 0 0 1-.277-.915 8.643 8.643 0 0 1-.194-1.151 9.337 9.337 0 0 1 0-1.159c.021-.319.061-.636.118-.949.018-.12.043-.237.076-.353 0-.109.042-.202.058-.269.017-.067.051-.235.051-.235z" fill="#263238"/>
    <path d="M327.775 230.027s3.092-3.016 9.551-3.016c6.46 0 9.769 3.016 9.769 3.016a18.696 18.696 0 0 1-19.32 0z" fill="#7FA8FA"/>
    <path d="M234.361 233.049h64.209a5.76 5.76 0 0 0 5.771-5.77v-18.632l7.081-6.283h-77.061a5.773 5.773 0 0 0-5.332 3.563c-.29.7-.439 1.45-.439 2.208v19.144a5.752 5.752 0 0 0 1.688 4.083 5.76 5.76 0 0 0 4.083 1.687z" fill="#CADCFF"/>
    <path d="M295.678 211.47c0 .126-13.221.219-29.534.219s-29.535-.093-29.535-.219 13.222-.218 29.535-.218c16.313 0 29.534.101 29.534.218zM295.678 216.46c0 .126-13.221.219-29.534.219s-29.535-.093-29.535-.219 13.222-.218 29.535-.218c16.313 0 29.534.101 29.534.218zM295.678 221.449c0 .118-13.221.219-29.534.219s-29.535-.101-29.535-.219c0-.117 13.222-.218 29.535-.218 16.313 0 29.534.101 29.534.218zM295.678 226.44c0 .117-13.221.218-29.534.218s-29.535-.101-29.535-.218c0-.118 13.222-.219 29.535-.219 16.313 0 29.534.093 29.534.219z" fill="#fff"/>
    <path d="M337.433 337.076c10.406 0 18.841-8.416 18.841-18.799 0-10.382-8.435-18.799-18.841-18.799s-18.841 8.417-18.841 18.799c0 10.383 8.435 18.799 18.841 18.799z" fill="#E5EEFE"/>
    <path d="M342.589 329.39h-9.912a1.268 1.268 0 0 1-.906-.377 1.286 1.286 0 0 1 .003-1.811c.24-.239.565-.374.903-.374h9.912a1.278 1.278 0 0 1 1.182 1.768 1.28 1.28 0 0 1-1.182.794zM338.2 306.055h-.874v4.402h.874v-4.402z" fill="#263238"/>
    <path d="M324.917 323.653a2.554 2.554 0 1 0-.002-5.108 2.554 2.554 0 0 0 .002 5.108zM350.743 323.477a2.555 2.555 0 1 0-.001-5.11 2.555 2.555 0 0 0 .001 5.11z" fill="#7FA8FA"/>
    <path d="M338.144 309.532s10.399-.126 12.046 8.879c1.646 9.005-7.149 9.181-9.677 9.349-1.143.076-3.595.084-5.763.051-4.796-.084-8.181-1.017-9.332-5.46a8.382 8.382 0 0 1-.26-1.596c-.303-4.872 2.99-11.466 12.986-11.223z" fill="#7FA8FA"/>
    <path d="m330.597 323.249 15.12.235a2.872 2.872 0 0 0 2.915-2.822 2.872 2.872 0 0 0-2.831-2.906l-15.12-.244a2.873 2.873 0 0 0-2.915 2.822 2.87 2.87 0 0 0 2.831 2.915z" fill="#263238"/>
    <path d="M342.573 320.352a.929.929 0 0 0 .706.746.934.934 0 0 0 .698-.119.925.925 0 0 0 .419-.938.912.912 0 0 0-.715-.808.924.924 0 0 0-1.091 1.161l-.017-.042zM332.019 320.184a.924.924 0 1 0 1.815-.354.924.924 0 0 0-1.815.354z" fill="#fff"/>
    <path d="M339.197 305.963a1.435 1.435 0 0 1-2.452 1.015 1.43 1.43 0 0 1-.311-1.565 1.431 1.431 0 0 1 1.327-.887 1.436 1.436 0 0 1 1.436 1.437z" fill="#7FA8FA"/>
    <path d="M339.926 319.923s.059.076.093.227a1.52 1.52 0 0 1-.059.639 1.964 1.964 0 0 1-.504.84c-.291.29-.674.471-1.084.512a1.811 1.811 0 0 1-1.159-.302 2.053 2.053 0 0 1-.647-.714 1.588 1.588 0 0 1-.168-.622c0-.151 0-.235.051-.235.05 0 .084.319.361.705.159.224.362.412.596.555.283.161.607.237.933.218.313-.04.606-.175.84-.386.208-.179.377-.4.495-.647.219-.454.185-.781.252-.79z" fill="#fff"/>
    <path d="M350.172 318.117s0 .084.076.227c.034.087.062.177.084.268 0 .101.058.219.084.353.063.314.107.631.134.949.029.392.029.785 0 1.176a7.469 7.469 0 0 1-.193 1.16 6.41 6.41 0 0 1-.303.915 3.315 3.315 0 0 1-.142.336 1.911 1.911 0 0 1-.126.252l-.118.202c.022-.076.053-.15.092-.219 0-.067.068-.151.11-.252.042-.1.092-.21.134-.336.114-.298.207-.604.277-.915.09-.376.155-.758.193-1.143a9.089 9.089 0 0 0 0-1.167 7.827 7.827 0 0 0-.117-.941 2.93 2.93 0 0 0-.076-.361c0-.109-.042-.193-.059-.269a.822.822 0 0 1-.05-.235zM325.535 318.175a1.17 1.17 0 0 0-.084.227c0 .067-.051.16-.084.26a2.79 2.79 0 0 0-.084.362c-.065.313-.107.63-.126.949-.03.391-.03.784 0 1.176.034.391.099.778.193 1.159.078.312.179.618.302.916.042.126.101.235.143.336.042.1.093.184.126.252l.118.201a.858.858 0 0 0-.093-.218c0-.067-.067-.151-.109-.252-.042-.101-.092-.21-.134-.344a6.84 6.84 0 0 1-.277-.908 8.616 8.616 0 0 1-.194-1.151 8.424 8.424 0 0 1 .118-2.108c.018-.119.043-.237.076-.353 0-.109.042-.201.058-.269.017-.067.051-.235.051-.235z" fill="#263238"/>
    <path d="M327.775 334.421s3.092-3.015 9.551-3.015c6.46 0 9.769 3.015 9.769 3.015a18.697 18.697 0 0 1-19.32 0z" fill="#7FA8FA"/>
    <path d="M234.361 337.446h64.209a5.76 5.76 0 0 0 5.771-5.771v-18.631l7.081-6.283h-77.061a5.773 5.773 0 0 0-5.332 3.562c-.29.7-.439 1.451-.439 2.209v19.143a5.76 5.76 0 0 0 5.771 5.771zM234.361 366.585h64.209a5.765 5.765 0 0 0 5.334-3.568c.29-.701.438-1.452.437-2.211v-6.174l7.081-6.283h-77.061a5.773 5.773 0 0 0-5.332 3.562 5.776 5.776 0 0 0-.439 2.209v6.72a5.77 5.77 0 0 0 5.771 5.745z" fill="#CADCFF"/>
    <path d="M295.678 315.84c0 .126-13.221.219-29.534.219s-29.535-.093-29.535-.219 13.222-.218 29.535-.218c16.313 0 29.534.126 29.534.218zM295.678 320.881c0 .118-13.221.218-29.534.218s-29.535-.1-29.535-.218 13.222-.218 29.535-.218c16.313 0 29.534.075 29.534.218zM295.678 325.846c0 .117-13.221.218-29.534.218s-29.535-.101-29.535-.218c0-.118 13.222-.219 29.535-.219 16.313 0 29.534.093 29.534.219zM295.678 330.835c0 .117-13.221.218-29.534.218s-29.535-.101-29.535-.218c0-.118 13.222-.219 29.535-.219 16.313 0 29.534.093 29.534.219zM295.881 357.732c0 .117-13.087.218-29.223.218-16.137 0-29.232-.101-29.232-.218 0-.118 13.087-.219 29.232-.219s29.223.093 29.223.219z" fill="#fff"/>
    <path d="m101.724 127.428-3.108-9.702a33.752 33.752 0 1 0-8.081 8.988l11.189.714z" fill="#FAFAFA"/>
    <path d="M101.722 127.428h-.706l-2.133-.109-8.4-.462a.097.097 0 0 1-.069-.03.094.094 0 0 1-.024-.071.119.119 0 0 1 0-.051l.135.135a33.654 33.654 0 0 1-20.42 7.131 37.72 37.72 0 0 1-5.587-.445 33.668 33.668 0 0 1-21.587-12.877 34.197 34.197 0 0 1-6.057-13.129 33.305 33.305 0 0 1 .134-15.355c.16-.639.328-1.286.496-1.924.168-.638.445-1.26.664-1.89.212-.637.46-1.263.739-1.873.286-.605.58-1.21.84-1.823.289-.613.62-1.205.991-1.773l1.067-1.747 1.226-1.68.622-.84c.21-.268.453-.512.68-.772a33.6 33.6 0 0 1 13.415-9.358 34.61 34.61 0 0 1 15.465-2.125 33.726 33.726 0 0 1 13.952 4.603 33.834 33.834 0 0 1 15.38 20.244 37.55 37.55 0 0 1 1.042 5.544c.134 1.75.165 3.505.092 5.258a33.529 33.529 0 0 1-4.99 15.759v-.076c.992 3.159 1.748 5.595 2.269 7.258.252.84.436 1.419.571 1.848l.185.621s-.084-.226-.227-.646l-.613-1.857c-.538-1.68-1.336-4.049-2.36-7.165a.11.11 0 0 1 0-.076 33.51 33.51 0 0 0 4.863-15.682 43.734 43.734 0 0 0-.118-5.209 36.761 36.761 0 0 0-1.05-5.493 33.595 33.595 0 0 0-29.03-24.503 34.189 34.189 0 0 0-15.271 2.092 33.264 33.264 0 0 0-13.214 9.24c-.218.26-.462.495-.672.764l-.613.84-1.21 1.621-1.04 1.73c-.37.566-.702 1.155-.992 1.765a86.224 86.224 0 0 0-.84 1.797c-.274.603-.515 1.22-.722 1.848-.219.622-.48 1.235-.664 1.865-.185.63-.328 1.269-.487 1.899a33.055 33.055 0 0 0-.151 15.12 33.47 33.47 0 0 0 27.375 25.779c1.832.288 3.682.442 5.536.462 1.73-.007 3.457-.15 5.166-.428a33.7 33.7 0 0 0 15.15-6.565.092.092 0 0 1 .037-.008.095.095 0 0 1 .067.029.101.101 0 0 1 0 .118l-.067-.151 8.3.571 2.149.151.706.101z" fill="#263238"/>
    <path d="M50.29 92.296v4.4h7.702v4.371H50.29v6.865h-4.934V87.923h13.682v4.37l-8.748.003zM70.18 104.126h-7.377l-1.371 3.887h-5.034l7.7-20.004h4.86l7.725 20.005H71.55l-1.37-3.888zm-1.443-4.172-2.242-6.402-2.243 6.402h4.486zM94.914 110.068a5.856 5.856 0 0 1-4.884 2.514c-2.84 0-4.71-1.114-7.626-4.6-4.585-.887-7.775-4.945-7.775-10.231 0-6.003 4.113-10.404 9.694-10.404 5.58 0 9.694 4.401 9.694 10.404 0 4.543-2.368 8.173-5.93 9.659.697.857 1.295 1.142 2.043 1.142.946 0 1.869-.485 2.641-1.399l2.143 2.915zm-10.591-6.603c2.641 0 4.71-2.257 4.71-5.714 0-3.458-2.069-5.716-4.71-5.716s-4.71 2.257-4.71 5.716c0 3.458 2.069 5.714 4.71 5.714z" fill="#FAB0B3"/>
    <path d="M83.282 88.033a.064.064 0 0 1-.047-.015.065.065 0 0 1-.006-.091.064.064 0 0 1 .044-.022 8.072 8.072 0 0 1 1.617-.057.066.066 0 0 1 .06.068.068.068 0 0 1-.07.06 7.892 7.892 0 0 0-1.59.056l-.008.001zM77.16 91.737a.065.065 0 0 1-.064-.055.064.064 0 0 1 .013-.048c1.223-1.616 2.82-2.781 4.62-3.369a.062.062 0 0 1 .05.004.064.064 0 0 1 .031.037.065.065 0 0 1-.04.081c-1.775.58-3.35 1.73-4.559 3.324a.066.066 0 0 1-.051.026zM50.075 88.62h-.968a.064.064 0 0 1 0-.13h.968a.064.064 0 0 1 .064.065.064.064 0 0 1-.064.064zM46.014 91.736a.064.064 0 0 1-.065-.064v-3.117a.065.065 0 0 1 .065-.064h2.255a.066.066 0 0 1 .065.064.064.064 0 0 1-.065.064h-2.191v3.049a.065.065 0 0 1-.065.068zM68.523 88.62h-1.127a.064.064 0 0 1-.045-.11.066.066 0 0 1 .045-.02h1.127a.066.066 0 0 1 .065.065.064.064 0 0 1-.064.064zM63.158 92.099a.05.05 0 0 1-.023 0 .064.064 0 0 1-.036-.033.063.063 0 0 1 0-.05l1.3-3.478a.066.066 0 0 1 .06-.042h1.813a.064.064 0 0 1 0 .129h-1.768l-1.285 3.437a.063.063 0 0 1-.06.037z" fill="#FAB0B3"/>
    <path d="m89.14 251.161-35.381-3.663-14.986-34.011-11.642 3.032s8.602 35.944 18.228 41.513c9.626 5.569 42.512 6.569 42.512 6.569l1.269-13.44z" fill="#7FA8FA"/>
    <path d="M107.949 268.459c5.757-6.477 5.173-16.395-1.304-22.152-6.478-5.757-16.396-5.173-22.153 1.304-5.757 6.478-5.173 16.396 1.305 22.153 6.477 5.757 16.395 5.173 22.152-1.305z" fill="#263238"/>
    <path d="M96.222 273.74a15.714 15.714 0 0 1-13.86-23.125 15.717 15.717 0 1 1 24.973 18.522 15.615 15.615 0 0 1-11.113 4.603zm0-31.382a15.67 15.67 0 0 0-15.386 12.6 15.676 15.676 0 0 0 19.904 18.079 15.675 15.675 0 0 0 6.562-26.076 15.569 15.569 0 0 0-11.08-4.603zM50.59 260.718c6.32-1.517 10.213-7.87 8.696-14.19-1.517-6.32-7.87-10.213-14.19-8.696-6.32 1.517-10.214 7.87-8.696 14.19 1.517 6.32 7.87 10.214 14.19 8.696zM38.904 216.236a9.618 9.618 0 1 0-13.602-13.602 9.618 9.618 0 0 0 13.602 13.602z" fill="#263238"/>
    <path d="m47.092 204.23-7.92 6.688-2.856-3.382 7.92-6.688a2.058 2.058 0 0 1 2.9.245l.195.231a2.053 2.053 0 0 1 .262 2.276 2.06 2.06 0 0 1-.501.63zM37.035 191.983v10.08a.294.294 0 0 1-.294.294h-3.83a.294.294 0 0 1-.294-.294v-10.08a2.057 2.057 0 0 1 2.058-2.058h.302a2.058 2.058 0 0 1 2.058 2.058zM29.902 192.021l2.2 9.837a.294.294 0 0 1-.223.351l-3.737.836a.293.293 0 0 1-.351-.223l-2.2-9.837a2.057 2.057 0 0 1 1.558-2.457l.295-.066a2.06 2.06 0 0 1 2.458 1.559zM22.228 194.485l5.04 8.73a.294.294 0 0 1-.107.402l-3.318 1.915a.295.295 0 0 1-.401-.108l-5.04-8.729a2.06 2.06 0 0 1 .753-2.812l.262-.151a2.058 2.058 0 0 1 2.811.753z" fill="#263238"/>
    <path d="m242.908 339.268 10.59-4.504-30.558-71.85-10.59 4.504 30.558 71.85z" fill="#7FA8FA"/>
    <path d="M224.459 269.781c5.601-6.613 4.782-16.514-1.83-22.116-6.612-5.601-16.514-4.782-22.115 1.83-5.602 6.612-4.783 16.514 1.83 22.115 6.612 5.602 16.513 4.783 22.115-1.829z" fill="#263238"/>
    <path d="M212.518 275.386a15.733 15.733 0 0 1-12.656-6.381 15.72 15.72 0 0 1-2.38-13.973 15.709 15.709 0 1 1 15.036 20.354zm0-31.4a15.676 15.676 0 1 0 2.645 31.127 15.676 15.676 0 0 0 12.349-10.832 15.684 15.684 0 0 0-10.357-19.589 15.786 15.786 0 0 0-4.688-.706h.051zM244.258 306.553c1.74-6.262-1.926-12.75-8.188-14.49-6.262-1.74-12.749 1.926-14.489 8.188-1.741 6.262 1.925 12.75 8.187 14.49 6.263 1.74 12.75-1.926 14.49-8.188zM250.663 349.65a9.618 9.618 0 0 0 9.618-9.618 9.618 9.618 0 0 0-9.618-9.618 9.618 9.618 0 0 0-9.618 9.618 9.618 9.618 0 0 0 9.618 9.618z" fill="#263238"/>
    <path d="m238.083 349.718 5.385-8.837 3.781 2.304-5.386 8.837a2.06 2.06 0 0 1-2.829.686l-.258-.157a2.054 2.054 0 0 1-.935-1.272 2.08 2.08 0 0 1-.035-.805c.042-.267.136-.524.277-.756zM251.495 358.147l-3.192-9.561a.298.298 0 0 1 .016-.225.29.29 0 0 1 .17-.147l3.633-1.213a.293.293 0 0 1 .372.185l3.192 9.562a2.071 2.071 0 0 1-.13 1.57 2.06 2.06 0 0 1-1.202 1.018l-.287.095a2.059 2.059 0 0 1-2.572-1.284zM258.256 355.854l-5.202-8.633a.305.305 0 0 1-.039-.108.279.279 0 0 1 .006-.115.29.29 0 0 1 .133-.181l3.281-1.977a.298.298 0 0 1 .223-.033.303.303 0 0 1 .181.133l5.202 8.634a2.06 2.06 0 0 1-.701 2.825l-.259.156a2.057 2.057 0 0 1-2.825-.701zM264.749 351.095l-7.545-6.685a.29.29 0 0 1-.025-.415l2.534-2.861a.294.294 0 0 1 .415-.025l7.545 6.685a2.056 2.056 0 0 1 .176 2.905l-.201.226a2.058 2.058 0 0 1-2.899.17z" fill="#263238"/>
    <path d="M91.56 241.702s1.135 110.158 62.95 112.308c61.816 2.151 64.411-111.518 64.411-112.308 0 0-7.299-16.422-63.68-15.783-56.38.638-63.68 15.783-63.68 15.783z" fill="#7FA8FA"/>
    <path d="M126.267 222.315h52.248a6.174 6.174 0 0 0 6.174-6.174v-.899a6.174 6.174 0 0 0-6.174-6.174h-52.248a6.174 6.174 0 0 0-6.174 6.174v.899a6.175 6.175 0 0 0 6.174 6.174zM150.14 124.362h4.51v-22.806h-4.51v22.806z" fill="#263238"/>
    <path d="M221.368 192.257c7.122-1.693 11.524-8.839 9.831-15.961-1.693-7.122-8.839-11.524-15.961-9.831-7.122 1.693-11.524 8.839-9.831 15.961 1.693 7.122 8.839 11.524 15.961 9.831zM87.432 191.396c7.14-1.619 11.614-8.72 9.994-15.859-1.619-7.139-8.72-11.614-15.859-9.995-7.139 1.62-11.614 8.72-9.994 15.859 1.62 7.14 8.72 11.614 15.859 9.995z" fill="#7FA8FA"/>
    <path d="M149.774 119.415s-53.895-.647-62.412 46.065c-8.518 46.713 37.044 47.553 50.156 48.435 5.939.403 18.656.445 29.879.243 24.847-.428 42.403-5.233 48.375-28.282a43.137 43.137 0 0 0 1.336-8.258c1.571-25.3-15.506-59.446-67.334-58.203z" fill="#7FA8FA"/>
    <path d="m188.865 190.512-78.296 1.218a14.867 14.867 0 0 1-13.897-8.949 14.861 14.861 0 0 1-1.223-5.675 14.87 14.87 0 0 1 14.633-15.12l78.296-1.218a14.848 14.848 0 0 1 15.12 14.624 14.853 14.853 0 0 1-4.179 10.596 14.86 14.86 0 0 1-10.454 4.524z" fill="#263238"/>
    <path d="M126.837 175.485a4.77 4.77 0 1 1-8.655-3.561 4.768 4.768 0 0 1 6.615-1.333 4.769 4.769 0 0 1 2.04 4.894zM181.515 174.612a4.775 4.775 0 0 1-3.736 3.763 4.78 4.78 0 0 1-2.759-.262 4.778 4.778 0 0 1-2.959-4.4 4.77 4.77 0 1 1 9.454.899z" fill="#fff"/>
    <path d="M173.643 285.45a21.316 21.316 0 0 1-14.553 18.678 21.311 21.311 0 1 1-5.153-41.484 21.316 21.316 0 0 1 19.706 22.806z" fill="#263238"/>
    <path d="M167.871 285.029a15.526 15.526 0 0 1-10.609 13.612 15.533 15.533 0 0 1-12.543-28.255 15.53 15.53 0 0 1 8.797-1.98 15.514 15.514 0 0 1 10.623 5.336 15.526 15.526 0 0 1 3.732 11.287z" fill="#fff"/>
    <path d="M160.388 287.851a15.452 15.452 0 0 1-.142-2.562 264.902 264.902 0 0 1-.076-6.72l.168.311-7.988-4.662h.445l-8.064 4.528c-.219.369.294-.496.243-.403v2.394c0 .789 0 1.579-.042 2.352 0 1.545-.058 3.04-.084 4.485l-.218-.386 7.896 4.821h-.353c2.461-1.327 4.494-2.385 5.88-3.108a16.492 16.492 0 0 1 2.327-1.092c-.626.511-1.302.958-2.016 1.336a247.42 247.42 0 0 1-5.88 3.478l-.176.1-.177-.1-7.997-4.662-.218-.126v-.269c0-1.445.017-2.94.05-4.486v-4.704c-.05.093.462-.764.244-.403l8.089-4.486.235-.126.219.135 7.887 4.821.177.11v.201a354.802 354.802 0 0 1-.269 6.829c.021.802-.032 1.603-.16 2.394zM157.659 106.351a7.434 7.434 0 1 0-10.514-10.513 7.434 7.434 0 0 0 10.514 10.513z" fill="#7FA8FA"/>
    <path d="M140.522 173.284c.353.042.177 1.68 1.218 3.923a9.913 9.913 0 0 0 2.52 3.36 8.214 8.214 0 0 0 4.477 1.991 8.323 8.323 0 0 0 4.772-1.143 9.94 9.94 0 0 0 3.091-2.814c1.428-1.991 1.554-3.662 1.907-3.637.142 0 .285.42.285 1.21a7.426 7.426 0 0 1-.84 3.225 9.9 9.9 0 0 1-3.36 3.721 9.046 9.046 0 0 1-11.676-1.066 9.862 9.862 0 0 1-2.621-4.268 7.302 7.302 0 0 1-.268-3.36c.142-.781.361-1.167.495-1.142z" fill="#fff"/>
    <path d="M212.282 195.048c-.084 0 .882-1.512 1.815-4.158a45.05 45.05 0 0 0 2.184-10.701c.336-3.63.42-7.279.252-10.92a92.29 92.29 0 0 0-.193-3.36 5.857 5.857 0 0 1-.042-1.227c.107.396.178.801.21 1.21.117.781.235 1.915.336 3.36.263 3.67.221 7.357-.126 11.021a41.675 41.675 0 0 1-2.327 10.768 21.342 21.342 0 0 1-1.428 3.033 6.97 6.97 0 0 1-.681.974zM87.46 163.918c-.048.408-.135.81-.26 1.201-.11.378-.227.84-.337 1.395-.109.554-.277 1.159-.377 1.856a40.835 40.835 0 0 0-.589 4.897 43.066 43.066 0 0 0 .084 6.031c.188 2.003.514 3.99.975 5.948a40.746 40.746 0 0 0 1.445 4.72c.227.664.487 1.244.697 1.764.21.521.412.958.58 1.311.191.362.349.742.47 1.134a6.728 6.728 0 0 1-.622-1.059c-.237-.42-.453-.851-.647-1.293-.235-.504-.52-1.084-.764-1.747a35.98 35.98 0 0 1-1.545-4.73 40.685 40.685 0 0 1-1.025-6.014 40.095 40.095 0 0 1-.05-6.09c.117-1.657.347-3.305.688-4.931.126-.697.302-1.31.445-1.856a22.39 22.39 0 0 1 .403-1.386c.112-.395.255-.78.429-1.151zM91.275 241.61l.32.092.94.319 3.579 1.26 2.587.924c.95.32 1.999.622 3.116.966 2.243.664 4.772 1.529 7.644 2.201l4.478 1.151c1.562.395 3.208.689 4.905 1.058 3.36.773 7.048 1.302 10.92 1.924a195.062 195.062 0 0 0 25.267 1.806c8.453-.05 16.894-.653 25.268-1.806 3.847-.622 7.509-1.142 10.92-1.924 1.68-.361 3.36-.655 4.905-1.05l4.486-1.15c2.864-.672 5.393-1.538 7.635-2.201 1.118-.345 2.168-.647 3.117-.966l2.587-.924 3.578-1.26.941-.319c.106-.042.216-.073.328-.093l-.311.135-.924.361-3.553 1.335-2.646.992c-.941.327-1.991.638-3.108.999-2.243.689-4.763 1.571-7.636 2.268l-4.485 1.176c-1.554.403-3.209.706-4.906 1.084-3.36.789-7.056 1.327-10.92 1.965a189.918 189.918 0 0 1-25.326 1.84 190.981 190.981 0 0 1-25.318-1.848c-3.855-.63-7.56-1.176-10.92-1.966-1.68-.378-3.36-.68-4.905-1.083l-4.486-1.176c-2.873-.697-5.393-1.579-7.635-2.268-1.118-.361-2.16-.672-3.108-1l-2.58-.966-3.552-1.335-.924-.362a1.65 1.65 0 0 1-.278-.159z" fill="#263238"/>
    <path d="M91.557 241.702s7.3-15.12 63.68-15.784c56.381-.664 63.68 15.784 63.68 15.784s-56.901 28.047-127.36 0z" fill="#000" opacity=".3"/>
    <path d="M142.94 122.909a1.037 1.037 0 0 1-.193 0l-.563.058c-.504.051-1.243.068-2.192.177-2.678.26-5.336.7-7.955 1.319a57.051 57.051 0 0 0-33.6 22.327 58.975 58.975 0 0 0-8.77 17.892c-.293.907-.453 1.629-.596 2.108l-.16.555a.824.824 0 0 1-.067.184.563.563 0 0 1 0-.193c0-.151.068-.336.118-.563.117-.487.243-1.218.512-2.142a53.293 53.293 0 0 1 2.688-7.635 57.419 57.419 0 0 1 15.96-21.21 57.425 57.425 0 0 1 23.848-11.626 52.988 52.988 0 0 1 8.005-1.184c.958-.084 1.68-.076 2.201-.101h.571c.134.017.193.025.193.034zM90.216 187.573a6.491 6.491 0 0 1-.773-1.68 23.97 23.97 0 0 1-1.37-8.753 5.88 5.88 0 0 1 .22-1.831c.134 0-.051 2.805.486 6.199.538 3.393 1.563 6.014 1.437 6.065zM76.079 183.229s-.194-.134-.454-.453a7.736 7.736 0 0 1-.95-1.47 9.56 9.56 0 0 1 1.437-10.836 7.434 7.434 0 0 1 1.302-1.176c.165-.139.352-.247.555-.319.05.067-.706.579-1.622 1.68a9.91 9.91 0 0 0-1.394 10.5c.588 1.335 1.184 2.024 1.126 2.074zM152.878 95.912a11.194 11.194 0 0 0-1.974-.042 5.148 5.148 0 0 0-4.402 6.854c.227.615.508 1.208.84 1.772 0 0-.168-.1-.403-.369a4.54 4.54 0 0 1-.756-1.302 5.278 5.278 0 0 1 2.262-6.573 5.28 5.28 0 0 1 2.408-.693 4.585 4.585 0 0 1 1.495.143c.378.058.53.184.53.21zM226.092 173.041c-.092.1-1.394-1.151-3.36-2.092-1.965-.941-3.755-1.218-3.738-1.352a7.73 7.73 0 0 1 3.923.957 7.599 7.599 0 0 1 3.175 2.487zM110.878 320.1a1.026 1.026 0 0 1-.101-.16l-.277-.496c-.252-.478-.588-1.117-1.025-1.932-.219-.42-.454-.89-.723-1.394l-.789-1.68a71.534 71.534 0 0 1-1.84-4.2c-.319-.781-.655-1.604-1.008-2.453-.353-.848-.655-1.772-.999-2.705-.723-1.856-1.336-3.897-2.05-6.014a189.143 189.143 0 0 1-3.746-14.07c-1.134-5.04-1.958-9.904-2.63-14.33a165.99 165.99 0 0 1-1.377-11.811c-.16-1.68-.26-3.209-.345-4.553-.084-1.344-.16-2.52-.184-3.444-.026-.924-.05-1.638-.076-2.175v-.563a.686.686 0 0 1 0-.193c.01.064.01.129 0 .193l.05.563c0 .529.093 1.26.152 2.167.058.907.142 2.1.26 3.436.118 1.335.227 2.864.412 4.544.302 3.36.84 7.358 1.47 11.76s1.545 9.24 2.654 14.28c1.109 5.04 2.411 9.778 3.696 14.053.714 2.117 1.31 4.15 2.016 6.006.336.941.655 1.84.974 2.705l.975 2.47c.605 1.57 1.226 2.965 1.781 4.2l.756 1.68c.243.512.478.982.688 1.411l.941 1.965.235.513a.656.656 0 0 1 .11.227zM78.01 251.614c-2.049.078-4.1.005-6.14-.218a43.609 43.609 0 0 1-6.106-.647 41.977 41.977 0 0 1 6.14.219c2.048.071 4.09.287 6.107.646zM46.41 233.68a45.47 45.47 0 0 1-3.2-5.434 45.44 45.44 0 0 1-2.806-5.645 45.816 45.816 0 0 1 3.192 5.443 44.374 44.374 0 0 1 2.814 5.636zM140.698 346.585a4.863 4.863 0 0 1-.983-.118 21.838 21.838 0 0 1-2.629-.638 28.47 28.47 0 0 1-3.746-1.436 32.047 32.047 0 0 1-4.251-2.47 31.087 31.087 0 0 1-3.763-3.167 27.508 27.508 0 0 1-2.621-3.041 19.77 19.77 0 0 1-1.486-2.259 4.348 4.348 0 0 1-.446-.882c.068-.042.773 1.176 2.176 2.957a30.755 30.755 0 0 0 10.567 8.5 32.757 32.757 0 0 0 3.663 1.504c2.15.722 3.536.966 3.519 1.05zM153.585 307.727a4.138 4.138 0 0 1-.588.058c-.558.048-1.119.065-1.68.051a22.527 22.527 0 0 1-6.157-1 26.994 26.994 0 0 1-4.015-1.613 26.064 26.064 0 0 1-4.2-2.696 22.576 22.576 0 0 1-8.719-20.076c.137-1.654.432-3.291.882-4.889a25.357 25.357 0 0 1 1.554-4.032 22.37 22.37 0 0 1 3.477-5.183c.375-.425.773-.829 1.193-1.209.139-.139.288-.268.445-.387 0 0-.554.597-1.512 1.68a23.606 23.606 0 0 0-3.36 5.208 24.327 24.327 0 0 0-2.318 8.812 22.417 22.417 0 0 0 8.568 19.732 25.646 25.646 0 0 0 8.022 4.368 23.546 23.546 0 0 0 6.073 1.117c1.52.059 2.335.008 2.335.059zM51.885 241.576c0 .067-.646-.243-1.68-.487a9.372 9.372 0 0 0-7.946 1.907c-.84.697-1.243 1.251-1.302 1.209.23-.555.587-1.05 1.042-1.444a8.688 8.688 0 0 1 8.223-1.966 4.032 4.032 0 0 1 1.663.781zM175.928 158.055c0 .118-10.316.218-23.033.218-12.718 0-23.041-.1-23.041-.218s10.315-.218 23.041-.218 23.033.084 23.033.218zM136.617 210.58a1.568 1.568 0 0 1-.386.059l-1.126.101c-.487.042-1.083.075-1.78.092-.698.017-1.487.05-2.361 0-1.755 0-3.839-.126-6.149-.37a67.857 67.857 0 0 1-7.434-1.285 67.385 67.385 0 0 1-7.224-2.167 59.588 59.588 0 0 1-5.661-2.411c-.84-.369-1.487-.756-2.1-1.083-.613-.328-1.134-.622-1.554-.84l-.966-.588a1.801 1.801 0 0 1-.32-.227s.135 0 .362.151l1.008.512c.428.236.957.513 1.579.84.622.328 1.327.664 2.125 1.017 1.579.739 3.503 1.529 5.67 2.31a66.258 66.258 0 0 0 14.566 3.427c2.285.269 4.359.42 6.098.462.84.05 1.68 0 2.361 0H136.223c.13-.022.264-.022.394 0zM203.674 248.431a.71.71 0 0 1-.202.092l-.605.227-2.335.84a59.472 59.472 0 0 1-3.729 1.226c-1.47.429-3.125.983-4.998 1.453l-2.924.773c-1.016.261-2.091.479-3.192.739-2.2.53-4.586.95-7.089 1.428a149.115 149.115 0 0 1-33.037 2.025c-2.52-.16-4.965-.286-7.216-.546-1.126-.118-2.218-.202-3.259-.345l-2.999-.411c-1.915-.227-3.629-.571-5.132-.84a80.126 80.126 0 0 1-3.856-.765l-2.419-.537-.63-.151a.738.738 0 0 1-.21-.068c.075-.006.151-.006.227 0l.63.11 2.436.462a82.23 82.23 0 0 0 3.864.68c1.512.227 3.217.554 5.132.764l2.99.378c1.042.135 2.134.21 3.26.32 2.242.243 4.662.352 7.198.504 5.082.21 10.668.218 16.532-.126 5.863-.345 11.398-1.076 16.413-1.899 2.52-.462 4.889-.84 7.09-1.377 1.1-.252 2.175-.462 3.192-.714l2.923-.748c1.873-.445 3.528-.966 4.998-1.386 1.47-.42 2.73-.84 3.746-1.151l2.361-.756.621-.185.219-.016z" fill="#fff"/>
</svg>
