<svg width="32" height="32" viewBox="0 0 32 32" fill="none" xmlns="http://www.w3.org/2000/svg">
    <path d="M21.775 18.576c1.115.672 1.332.622 1.332 1.302 0 .62-1.453 2.633-3.097 2.634-2.408-.001-5.038-1.483-7.103-3.491-2.008-2.065-3.49-4.695-3.491-7.103 0-1.645 2.013-3.097 2.634-3.097.68 0 .63.217 1.302 1.332.373.62 1.26 1.785 1.092 2.22-.24.62-1.698 1.348-1.698 1.792.001 1.479 3.538 5.016 5.018 5.017.442-.001 1.17-1.46 1.79-1.698.436-.168 1.601.719 2.221 1.092z" fill="#fff"/>
    <path opacity=".4" d="M24.43 7.413c4.76 4.76 4.859 12.378.221 17.015-4.04 4.04-10.34 4.485-15.044 1.387l-5.671 2.406 2.17-5.868c-3.182-4.715-2.764-11.087 1.31-15.16 4.637-4.638 12.255-4.539 17.014.22zM23.11 19.878c0-.68-.218-.63-1.332-1.301-.62-.374-1.786-1.26-2.22-1.092-.621.238-1.35 1.696-1.792 1.698-1.48-.002-5.016-3.538-5.018-5.018 0-.444 1.458-1.172 1.698-1.791.169-.435-.718-1.6-1.092-2.22-.671-1.115-.621-1.333-1.301-1.333-.621 0-2.635 1.452-2.635 3.098.002 2.407 1.483 5.037 3.492 7.102 2.065 2.01 4.695 3.49 7.102 3.492 1.645-.002 3.098-2.014 3.098-2.635z" fill="red"/>
    <path d="M20.01 23.137c-2.396-.001-5.143-1.338-7.539-3.668a.465.465 0 0 1-.012-.012c-2.33-2.396-3.667-5.143-3.668-7.538 0-.882.452-1.81 1.272-2.613.564-.553 1.398-1.11 1.987-1.11.908 0 1.15.429 1.515 1.078.09.159.19.339.322.556.073.121.173.274.28.436.67 1.021 1.091 1.735.86 2.333-.18.464-.659.846-1.121 1.215-.171.137-.416.333-.525.45.084.468.695 1.456 1.761 2.522 1.065 1.064 2.052 1.676 2.52 1.76.118-.108.312-.352.448-.522.37-.464.754-.944 1.22-1.123a.968.968 0 0 1 .35-.063c.533 0 1.157.383 1.982.923.162.107.315.207.436.28.217.131.397.232.556.322.65.366 1.078.607 1.078 1.515 0 .59-.558 1.422-1.11 1.987-.803.82-1.73 1.271-2.612 1.272zm-6.66-4.558c2.13 2.07 4.62 3.307 6.66 3.308 1.234-.001 2.408-1.602 2.472-2.02a1 1 0 0 0-.009-.152c-.063-.055-.259-.165-.432-.263-.158-.09-.355-.2-.588-.34a15.513 15.513 0 0 1-.477-.306c-.323-.211-.973-.637-1.25-.709-.17.12-.47.495-.639.707-.429.538-.8 1.002-1.322 1.003-1.271-.001-3.005-1.636-3.507-2.137-.5-.502-2.136-2.235-2.137-3.505 0-.525.466-.897 1.005-1.328.211-.168.584-.466.705-.636-.072-.277-.498-.926-.71-1.25-.113-.171-.22-.334-.305-.476-.14-.233-.251-.43-.34-.588a3.977 3.977 0 0 0-.263-.432.995.995 0 0 0-.152-.01c-.418.065-2.02 1.239-2.02 2.473.001 2.04 1.238 4.53 3.308 6.66z" fill="#004498"/>
    <path d="M3.936 28.846a.625.625 0 0 1-.587-.841l2.061-5.572a12.904 12.904 0 0 1-1.993-7.95A12.331 12.331 0 0 1 6.974 6.75c2.32-2.32 5.426-3.597 8.746-3.597 3.44 0 6.69 1.356 9.152 3.818 4.996 4.996 5.095 13.025.221 17.899-2.32 2.32-5.425 3.597-8.745 3.597a12.84 12.84 0 0 1-6.8-1.948L4.18 28.797a.625.625 0 0 1-.244.05zm5.671-3.655c.12 0 .24.035.344.103a11.602 11.602 0 0 0 6.396 1.924h.001c2.986 0 5.778-1.147 7.861-3.231 4.387-4.386 4.288-11.623-.22-16.131-2.227-2.226-5.163-3.452-8.269-3.452-2.986 0-5.779 1.147-7.863 3.231-3.781 3.782-4.3 9.825-1.233 14.369a.625.625 0 0 1 .068.566l-1.668 4.511 4.34-1.84a.626.626 0 0 1 .243-.05z" fill="#004498"/>
</svg>
