<svg width="30" height="30" viewBox="0 0 30 30" fill="none" xmlns="http://www.w3.org/2000/svg">
<path d="M7.12321 13.973C7.04034 13.4389 6.99735 12.8918 6.99735 12.3346C6.99735 6.4436 11.8044 1.66797 17.7342 1.66797C23.664 1.66797 28.471 6.4436 28.471 12.3346C28.471 13.6654 28.2257 14.9392 27.7776 16.114C27.6845 16.358 27.638 16.4799 27.6169 16.5752C27.5959 16.6695 27.5879 16.7359 27.5856 16.8326C27.5833 16.9301 27.5965 17.0375 27.623 17.2524L28.1597 21.6127C28.2178 22.0847 28.2469 22.3207 28.1684 22.4923C28.0996 22.6426 27.9774 22.762 27.8255 22.8273C27.6522 22.9018 27.4169 22.8674 26.9464 22.7984L22.6993 22.1759C22.4776 22.1433 22.3667 22.1271 22.2657 22.1277C22.1658 22.1282 22.0967 22.1356 21.9989 22.1562C21.9001 22.1769 21.7739 22.2242 21.5214 22.3188C20.3436 22.7599 19.0673 23.0013 17.7342 23.0013C17.1766 23.0013 16.6289 22.9591 16.0943 22.8777M9.17283 28.3346C13.126 28.3346 16.3307 25.0514 16.3307 21.0013C16.3307 16.9512 13.126 13.668 9.17283 13.668C5.21964 13.668 2.01494 16.9512 2.01494 21.0013C2.01494 21.8154 2.14443 22.5986 2.38346 23.3303C2.4845 23.6396 2.53502 23.7942 2.55161 23.8999C2.56891 24.0102 2.57195 24.0721 2.5655 24.1836C2.55933 24.2904 2.53261 24.411 2.47919 24.6524L1.66406 28.3346L5.65713 27.7893C5.87508 27.7595 5.98406 27.7446 6.07922 27.7453C6.17942 27.746 6.2326 27.7514 6.33087 27.771C6.4242 27.7896 6.56294 27.8386 6.84042 27.9365C7.57152 28.1945 8.35621 28.3346 9.17283 28.3346Z" stroke="#B30000" stroke-width="2" stroke-linecap="round" stroke-linejoin="round"/>
</svg>
