<svg width="244" height="173" viewBox="0 0 244 173" fill="none" xmlns="http://www.w3.org/2000/svg">
<path d="M96.4215 31.2771H96.2317V11.7333C96.2317 10.1924 95.919 8.66654 95.3114 7.24293C94.7038 5.81933 93.8133 4.52582 92.6906 3.43627C91.568 2.34672 90.2352 1.48248 88.7685 0.892878C87.3017 0.30328 85.7296 -0.000120953 84.142 3.61712e-08H13.858C10.652 0.000244359 7.57745 1.23653 5.31058 3.43692C3.04371 5.63731 1.77021 8.62158 1.77021 11.7333V31.2771H1.58038C1.37289 31.2767 1.16738 31.3161 0.975591 31.3929C0.783806 31.4698 0.609519 31.5826 0.462718 31.7249C0.315916 31.8672 0.199482 32.0362 0.120081 32.2223C0.0406807 32.4083 -0.000124891 32.6078 2.87131e-07 32.8091V46.3278C-0.000124494 46.5291 0.0406197 46.7283 0.119902 46.9143C0.199183 47.1002 0.315448 47.2692 0.462049 47.4114C0.608649 47.5537 0.782707 47.6666 0.974273 47.7435C1.16584 47.8205 1.37116 47.86 1.57848 47.8599H1.76832V51.0843H1.57848C1.37116 51.0842 1.16584 51.1238 0.974273 51.2007C0.782707 51.2777 0.608649 51.3905 0.462049 51.5328C0.315448 51.6751 0.199183 51.844 0.119902 52.03C0.0406197 52.2159 -0.000124494 52.4152 2.87131e-07 52.6164V66.1351C-0.000124494 66.3363 0.0406197 66.5356 0.119902 66.7215C0.199183 66.9075 0.315448 67.0764 0.462049 67.2187C0.608649 67.361 0.782707 67.4739 0.974273 67.5508C1.16584 67.6278 1.37116 67.6673 1.57848 67.6672H1.76832V160.454C1.76832 161.995 2.08103 163.52 2.6886 164.944C3.29618 166.368 4.18671 167.661 5.30935 168.751C6.43199 169.84 7.76475 170.704 9.23153 171.294C10.6983 171.884 12.2704 172.187 13.858 172.187H84.142C87.3481 172.187 90.423 170.951 92.69 168.75C94.9571 166.55 96.2307 163.565 96.2307 160.454V56.1513H96.4206C96.628 56.1516 96.8334 56.1121 97.0251 56.0352C97.2167 55.9583 97.3909 55.8455 97.5376 55.7032C97.6843 55.5609 97.8007 55.3919 97.88 55.2059C97.9593 55.0199 98.0001 54.8206 98 54.6192V32.8091C98.0001 32.6079 97.9594 32.4086 97.8801 32.2227C97.8008 32.0368 97.6845 31.8678 97.5379 31.7255C97.3913 31.5832 97.2173 31.4704 97.0257 31.3934C96.8342 31.3165 96.6288 31.2769 96.4215 31.2771Z" fill="#560000"/>
<path d="M83.0083 168.524C88.2539 168.524 92.5063 164.325 92.5063 159.145V11.4681C92.5063 7.15804 88.9538 3.66406 84.5715 3.66406H12.9739C8.59161 3.66406 5.03906 7.15805 5.03906 11.4681V159.145C5.03906 164.325 9.29147 168.524 14.5371 168.524H83.0083Z" fill="#EAECEE"/>
<rect width="88.301" height="25.1724" transform="translate(4.41406 13.2461)" fill="white"/>
<circle cx="17.0002" cy="25.8323" r="8.17114" fill="#4883F8"/>
<rect x="27.7246" y="20.4702" width="45.2543" height="3.57487" rx="1.78744" fill="#2B64AA"/>
<rect opacity="0.7" x="27.7246" y="27.1094" width="34.2166" height="1.53209" rx="0.766044" fill="#6B93C3"/>
<rect opacity="0.7" x="27.7246" y="29.6628" width="34.2166" height="1.53209" rx="0.766044" fill="#6B93C3"/>
<path d="M83.7637 22.6144C83.8584 22.8434 84.0401 23.0255 84.269 23.1205L85.0716 23.453C85.3007 23.5479 85.4827 23.7299 85.5775 23.9589C85.6724 24.188 85.6724 24.4453 85.5775 24.6744L85.2453 25.4765C85.1504 25.7056 85.1503 25.9633 85.2456 26.1923L85.5773 26.9941C85.6243 27.1076 85.6485 27.2292 85.6485 27.352C85.6486 27.4748 85.6244 27.5964 85.5774 27.7099C85.5304 27.8234 85.4615 27.9265 85.3746 28.0133C85.2878 28.1001 85.1847 28.169 85.0712 28.2159L84.2692 28.5482C84.0401 28.6429 83.8581 28.8247 83.763 29.0536L83.4306 29.8562C83.3357 30.0853 83.1537 30.2673 82.9247 30.3621C82.6956 30.457 82.4383 30.457 82.2092 30.3621L81.4072 30.0299C81.1781 29.9353 80.9208 29.9355 80.6919 30.0304L79.8893 30.3624C79.6604 30.4571 79.4033 30.457 79.1744 30.3622C78.9455 30.2674 78.7636 30.0856 78.6687 29.8568L78.3361 29.0539C78.2414 28.8249 78.0597 28.6428 77.8308 28.5478L77.0282 28.2153C76.7992 28.1205 76.6173 27.9386 76.5224 27.7097C76.4275 27.4808 76.4273 27.2235 76.522 26.9945L76.8542 26.1924C76.9489 25.9634 76.9487 25.7061 76.8537 25.4771L76.522 24.6739C76.4749 24.5605 76.4507 24.4389 76.4507 24.3161C76.4507 24.1932 76.4748 24.0716 76.5218 23.9582C76.5688 23.8447 76.6377 23.7416 76.7246 23.6548C76.8114 23.5679 76.9146 23.4991 77.028 23.4521L77.8301 23.1199C78.0589 23.0253 78.2408 22.8437 78.336 22.6151L78.6684 21.8124C78.7633 21.5834 78.9453 21.4014 79.1743 21.3065C79.4034 21.2116 79.6607 21.2116 79.8898 21.3065L80.6918 21.6387C80.9209 21.7334 81.1781 21.7332 81.4071 21.6382L82.21 21.307C82.439 21.2122 82.6963 21.2122 82.9253 21.3071C83.1544 21.4019 83.3363 21.5839 83.4312 21.8129L83.7638 22.6158L83.7637 22.6144Z" fill="#6FCD6D"/>
<path d="M79.6733 25.8304L80.5931 26.7502L82.6627 24.6807" stroke="white" stroke-width="1.10376" stroke-linecap="round" stroke-linejoin="round"/>
<path d="M11.0617 8.01347C11.3473 8.01347 11.593 8.07233 11.7991 8.19007C12.0051 8.3078 12.164 8.47999 12.2759 8.70663C12.3877 8.93033 12.4437 9.20995 12.4437 9.54549C12.4437 9.90164 12.376 10.2033 12.2406 10.4506C12.1081 10.6978 11.9242 10.8862 11.6887 11.0157C11.4532 11.1452 11.1795 11.21 10.8675 11.21C10.7056 11.21 10.5496 11.1923 10.3995 11.157C10.2494 11.1217 10.1199 11.0687 10.011 10.998L10.2759 10.4726C10.3612 10.5315 10.4525 10.5727 10.5496 10.5963C10.6467 10.6169 10.7483 10.6272 10.8542 10.6272C11.1191 10.6272 11.3296 10.5462 11.4856 10.3843C11.6445 10.2225 11.724 9.98258 11.724 9.6647C11.724 9.61172 11.7225 9.55285 11.7196 9.48809C11.7166 9.42334 11.7093 9.35859 11.6975 9.29383L11.8918 9.47926C11.8417 9.59405 11.7711 9.69119 11.6799 9.77066C11.5886 9.84718 11.4827 9.90605 11.362 9.94726C11.2413 9.98552 11.1059 10.0047 10.9558 10.0047C10.7586 10.0047 10.579 9.96492 10.4172 9.88545C10.2582 9.80598 10.1302 9.69413 10.033 9.5499C9.93885 9.40568 9.89176 9.23644 9.89176 9.04217C9.89176 8.83025 9.94327 8.64776 10.0463 8.49471C10.1522 8.34165 10.2935 8.22392 10.4701 8.1415C10.6497 8.05615 10.8469 8.01347 11.0617 8.01347ZM11.1059 8.54769C11.0029 8.54769 10.9131 8.56682 10.8366 8.60508C10.7601 8.6404 10.6997 8.69338 10.6556 8.76403C10.6114 8.83172 10.5893 8.91267 10.5893 9.00685C10.5893 9.14813 10.6364 9.26145 10.7306 9.34681C10.8278 9.42923 10.9558 9.47043 11.1147 9.47043C11.2177 9.47043 11.309 9.4513 11.3885 9.41304C11.4709 9.37183 11.5342 9.31591 11.5783 9.24527C11.6225 9.17463 11.6445 9.09515 11.6445 9.00685C11.6445 8.91855 11.6225 8.84055 11.5783 8.77286C11.5371 8.70221 11.4768 8.64776 11.3973 8.6095C11.3178 8.56829 11.2207 8.54769 11.1059 8.54769ZM13.193 9.6073C13.0752 9.6073 12.9737 9.56756 12.8883 9.48809C12.8059 9.40568 12.7647 9.30119 12.7647 9.17463C12.7647 9.04806 12.8059 8.94651 12.8883 8.86999C12.9737 8.79052 13.0752 8.75078 13.193 8.75078C13.3137 8.75078 13.4152 8.79052 13.4976 8.86999C13.58 8.94651 13.6212 9.04806 13.6212 9.17463C13.6212 9.30119 13.58 9.40568 13.4976 9.48809C13.4152 9.56756 13.3137 9.6073 13.193 9.6073ZM13.193 11.1923C13.0752 11.1923 12.9737 11.1526 12.8883 11.0731C12.8059 10.9907 12.7647 10.8862 12.7647 10.7596C12.7647 10.6331 12.8059 10.5315 12.8883 10.455C12.9737 10.3755 13.0752 10.3358 13.193 10.3358C13.3137 10.3358 13.4152 10.3755 13.4976 10.455C13.58 10.5315 13.6212 10.6331 13.6212 10.7596C13.6212 10.8862 13.58 10.9907 13.4976 11.0731C13.4152 11.1526 13.3137 11.1923 13.193 11.1923ZM13.907 10.508V10.0267L15.3639 8.06645H16.1145L14.6884 10.0267L14.3396 9.92518H16.7723V10.508H13.907ZM15.5714 11.157V10.508L15.5935 9.92518V9.34681H16.269V11.157H15.5714ZM17.351 11.157V8.33135L17.66 8.6404H16.7329V8.06645H18.0662V11.157H17.351Z" fill="#22252A"/>
<path opacity="0.35" d="M136.666 6.91855C136.666 5.92065 137.475 5.11169 138.473 5.11169H149.959C150.957 5.11169 151.766 5.92065 151.766 6.91855V11.3875C151.766 12.3854 150.957 13.1943 149.959 13.1943H138.473C137.475 13.1943 136.666 12.3854 136.666 11.3875V6.91855Z" stroke="white" stroke-width="0.688713"/>
<path opacity="0.4" d="M152.564 7.83765V10.469C153.095 10.2462 153.441 9.72774 153.441 9.15335C153.441 8.57896 153.095 8.06051 152.564 7.83765Z" fill="white"/>
<path d="M137.638 7.51789C137.638 6.72583 138.28 6.08374 139.072 6.08374H149.361C150.153 6.08374 150.795 6.72583 150.795 7.51789V10.7895C150.795 11.5816 150.153 12.2237 149.361 12.2237H139.072C138.28 12.2237 137.638 11.5816 137.638 10.7895V7.51789Z" fill="white"/>
<path fill-rule="evenodd" clip-rule="evenodd" d="M127.546 7.33467C129.073 7.33474 130.542 7.96454 131.649 9.0939C131.732 9.18109 131.865 9.17999 131.947 9.09144L132.744 8.22846C132.785 8.18355 132.809 8.12271 132.808 8.0594C132.808 7.9961 132.784 7.93555 132.742 7.89116C129.837 4.90314 125.254 4.90314 122.349 7.89116C122.307 7.93552 122.283 7.99605 122.283 8.05935C122.282 8.12266 122.305 8.18351 122.347 8.22846L123.144 9.09144C123.226 9.18013 123.359 9.18123 123.443 9.0939C124.55 7.96447 126.018 7.33466 127.546 7.33467ZM127.544 9.93317C128.403 9.93312 129.231 10.2608 129.868 10.8526C129.954 10.9365 130.089 10.9347 130.173 10.8484L130.988 10.0037C131.031 9.95934 131.054 9.89923 131.054 9.83676C131.053 9.7743 131.028 9.71469 130.984 9.67129C129.046 7.82018 126.044 7.82018 124.106 9.67129C124.062 9.71469 124.037 9.77433 124.037 9.83681C124.036 9.8993 124.06 9.9594 124.103 10.0037L124.917 10.8484C125.001 10.9347 125.137 10.9365 125.223 10.8526C125.859 10.2612 126.686 9.93354 127.544 9.93317ZM129.299 11.7234C129.3 11.7908 129.275 11.8559 129.228 11.9031L127.713 13.475C127.669 13.5212 127.608 13.5472 127.545 13.5472C127.482 13.5472 127.421 13.5212 127.377 13.475L125.862 11.9031C125.815 11.8558 125.789 11.7908 125.791 11.7233C125.792 11.6559 125.82 11.592 125.869 11.5468C126.836 10.7054 128.253 10.7054 129.221 11.5468C129.269 11.592 129.298 11.6559 129.299 11.7234Z" fill="white"/>
<path d="M114.586 7.61979C114.586 7.25647 114.87 6.96194 115.22 6.96194H115.853C116.203 6.96194 116.487 7.25647 116.487 7.61979V12.8826C116.487 13.2459 116.203 13.5404 115.853 13.5404H115.22C114.87 13.5404 114.586 13.2459 114.586 12.8826V7.61979Z" fill="white"/>
<path d="M117.754 6.30409C117.754 5.94077 118.037 5.64624 118.387 5.64624H119.021C119.371 5.64624 119.654 5.94077 119.654 6.30409V12.8826C119.654 13.2459 119.371 13.5404 119.021 13.5404H118.387C118.037 13.5404 117.754 13.2459 117.754 12.8826V6.30409Z" fill="white"/>
<path d="M111.419 9.92227C111.419 9.55895 111.703 9.26442 112.052 9.26442H112.686C113.036 9.26442 113.319 9.55895 113.319 9.92227V12.8826C113.319 13.2459 113.036 13.5404 112.686 13.5404H112.052C111.703 13.5404 111.419 13.2459 111.419 12.8826V9.92227Z" fill="white"/>
<path d="M108.251 11.5669C108.251 11.2036 108.535 10.909 108.885 10.909H109.518C109.868 10.909 110.152 11.2036 110.152 11.5669V12.8826C110.152 13.2459 109.868 13.5404 109.518 13.5404H108.885C108.535 13.5404 108.251 13.2459 108.251 12.8826V11.5669Z" fill="white"/>
<path d="M170.858 40.4804C171.123 40.5587 171.401 40.4076 171.479 40.1428L172.756 35.8276C172.834 35.5628 172.683 35.2846 172.418 35.2063C172.153 35.128 171.875 35.2791 171.797 35.5439L170.662 39.3797L166.827 38.2452C166.562 38.1668 166.284 38.318 166.205 38.5828C166.127 38.8476 166.278 39.1258 166.543 39.2041L170.858 40.4804ZM88.2357 25.4419C88.7915 25.1449 89.3677 24.8468 89.9633 24.5488L89.5158 23.6545C88.9124 23.9564 88.3282 24.2586 87.7643 24.56L88.2357 25.4419ZM93.4865 22.8924C94.6393 22.3829 95.8436 21.8808 97.0933 21.3923L96.7292 20.461C95.4661 20.9547 94.2483 21.4624 93.0822 21.9777L93.4865 22.8924ZM100.76 20.0469C101.969 19.6317 103.21 19.2328 104.478 18.8549L104.193 17.8965C102.911 18.2785 101.656 18.6816 100.435 19.1011L100.76 20.0469ZM108.242 17.8192C109.492 17.5037 110.763 17.2111 112.05 16.9454L111.848 15.9661C110.546 16.2348 109.261 16.5307 107.997 16.8497L108.242 17.8192ZM115.886 16.2449C117.164 16.0422 118.454 15.8685 119.753 15.7274L119.645 14.7332C118.329 14.8762 117.023 15.0521 115.73 15.2573L115.886 16.2449ZM123.64 15.4074C124.934 15.3355 126.233 15.2989 127.534 15.3009L127.535 14.3009C126.215 14.2989 124.897 14.3361 123.584 14.4089L123.64 15.4074ZM131.426 15.4253C132.72 15.5073 134.012 15.6309 135.299 15.7994L135.429 14.8079C134.119 14.6363 132.805 14.5107 131.489 14.4273L131.426 15.4253ZM139.133 16.4416C140.4 16.7019 141.659 17.01 142.906 17.3692L143.183 16.4083C141.91 16.0416 140.626 15.7274 139.335 15.4621L139.133 16.4416ZM146.591 18.5967C147.794 19.0539 148.982 19.5639 150.153 20.13L150.588 19.2297C149.39 18.6507 148.175 18.1292 146.947 17.662L146.591 18.5967ZM153.564 21.9719C154.662 22.63 155.741 23.3437 156.798 24.1159L157.388 23.3084C156.306 22.5182 155.202 21.7877 154.078 21.1142L153.564 21.9719ZM159.827 26.5453C160.781 27.3835 161.714 28.2763 162.622 29.2264L163.345 28.5352C162.416 27.5643 161.463 26.6514 160.487 25.794L159.827 26.5453ZM165.183 32.1381C165.98 33.123 166.755 34.1593 167.506 35.2489L168.329 34.6817C167.564 33.5712 166.774 32.5142 165.96 31.5089L165.183 32.1381ZM169.592 38.5273C169.921 39.0859 170.244 39.6566 170.561 40.2397L171.439 39.7622C171.117 39.1693 170.789 38.5888 170.454 38.0203L169.592 38.5273Z" fill="#6FCD6D"/>
<g filter="url(#filter0_d_279_918)">
<circle cx="200.5" cy="62.5" r="35.5" fill="white"/>
<circle cx="200.5" cy="62.5" r="35" stroke="#6FCD6D"/>
</g>
<path d="M210.089 51.1226C210.424 51.9319 211.066 52.5751 211.875 52.911L214.711 54.0857C215.52 54.421 216.163 55.064 216.499 55.8733C216.834 56.6827 216.834 57.5921 216.499 58.4014L215.325 61.2354C214.989 62.0451 214.989 62.9554 215.326 63.7648L216.498 66.5979C216.664 66.9988 216.749 67.4285 216.749 67.8624C216.75 68.2964 216.664 68.7261 216.498 69.127C216.332 69.5279 216.089 69.8922 215.782 70.199C215.475 70.5058 215.11 70.7491 214.709 70.915L211.876 72.0889C211.066 72.4235 210.423 73.0658 210.087 73.8746L208.913 76.7107C208.577 77.52 207.934 78.163 207.125 78.4983C206.316 78.8335 205.406 78.8335 204.597 78.4983L201.763 77.3244C200.954 76.99 200.045 76.9907 199.236 77.3263L196.4 78.4994C195.591 78.8338 194.683 78.8335 193.874 78.4986C193.065 78.1636 192.423 77.5213 192.087 76.7128L190.912 73.876C190.577 73.0667 189.935 72.4234 189.126 72.0875L186.29 70.9128C185.481 70.5777 184.839 69.9351 184.503 69.1262C184.168 68.3173 184.167 67.4084 184.502 66.5991L185.676 63.7651C186.01 62.9558 186.01 62.0467 185.674 61.2378L184.502 58.3998C184.336 57.9989 184.25 57.5692 184.25 57.1353C184.25 56.7013 184.335 56.2716 184.501 55.8707C184.667 55.4698 184.911 55.1055 185.218 54.7987C185.525 54.4919 185.889 54.2486 186.29 54.0827L189.124 52.9088C189.932 52.5745 190.575 51.933 190.911 51.1251L192.086 48.2891C192.421 47.4797 193.064 46.8367 193.874 46.5014C194.683 46.1662 195.592 46.1662 196.402 46.5014L199.235 47.6753C200.045 48.0097 200.954 48.009 201.763 47.6734L204.6 46.5033C205.409 46.1682 206.318 46.1683 207.127 46.5034C207.937 46.8386 208.579 47.4815 208.915 48.2906L210.09 51.1275L210.089 51.1226Z" fill="#6FCD6D"/>
<path d="M195.625 62.5L198.875 65.75L206.188 58.4375" stroke="white" stroke-width="1.10376" stroke-linecap="round" stroke-linejoin="round"/>
<defs>
<filter id="filter0_d_279_918" x="157" y="23" width="87" height="87" filterUnits="userSpaceOnUse" color-interpolation-filters="sRGB">
<feFlood flood-opacity="0" result="BackgroundImageFix"/>
<feColorMatrix in="SourceAlpha" type="matrix" values="0 0 0 0 0 0 0 0 0 0 0 0 0 0 0 0 0 0 127 0" result="hardAlpha"/>
<feOffset dy="4"/>
<feGaussianBlur stdDeviation="4"/>
<feComposite in2="hardAlpha" operator="out"/>
<feColorMatrix type="matrix" values="0 0 0 0 0 0 0 0 0 0 0 0 0 0 0 0 0 0 0.15 0"/>
<feBlend mode="normal" in2="BackgroundImageFix" result="effect1_dropShadow_279_918"/>
<feBlend mode="normal" in="SourceGraphic" in2="effect1_dropShadow_279_918" result="shape"/>
</filter>
</defs>
</svg>
