<svg width="472" height="158" viewBox="0 0 472 158" fill="none" xmlns="http://www.w3.org/2000/svg">
<rect y="54" width="165" height="56" rx="8" fill="#004498"/>
<circle cx="28" cy="82" r="16" fill="#DBE4F0"/>
<rect x="49" y="71.5" width="97" height="7" rx="3.5" fill="#7FA8FA"/>
<rect x="49" y="84.5" width="78" height="3" rx="1.5" fill="#7FA8FA"/>
<rect x="49" y="89.5" width="78" height="3" rx="1.5" fill="#7FA8FA"/>
<rect x="307" width="165" height="56" rx="8" fill="#F7F7F7"/>
<circle cx="335" cy="28" r="16" fill="#FFE6E6"/>
<rect x="356" y="17.5" width="97" height="7" rx="3.5" fill="#D0D4DA"/>
<rect x="356" y="30.5" width="78" height="3" rx="1.5" fill="#D0D4DA"/>
<rect x="356" y="35.5" width="78" height="3" rx="1.5" fill="#D0D4DA"/>
<rect x="307" y="102" width="165" height="56" rx="8" fill="#F7F7F7"/>
<circle cx="335" cy="130" r="16" fill="#FFE6E6"/>
<rect x="356" y="119.5" width="97" height="7" rx="3.5" fill="#D0D4DA"/>
<rect x="356" y="132.5" width="78" height="3" rx="1.5" fill="#D0D4DA"/>
<rect x="356" y="137.5" width="78" height="3" rx="1.5" fill="#D0D4DA"/>
<path d="M165 77.5C162.5 77.5 160.5 79.5 160.5 82C160.5 84.5 162.5 86.5 165 86.5C167.5 86.5 169.5 84.5 169.5 82C169.5 79.5 167.5 77.5 165 77.5Z" fill="white"/>
<path d="M307.354 33.3536C307.549 33.1583 307.549 32.8417 307.354 32.6464L304.172 29.4645C303.976 29.2692 303.66 29.2692 303.464 29.4645C303.269 29.6597 303.269 29.9763 303.464 30.1716L306.293 33L303.464 35.8284C303.269 36.0237 303.269 36.3403 303.464 36.5355C303.66 36.7308 303.976 36.7308 304.172 36.5355L307.354 33.3536ZM161 82C161 79.7761 162.776 78 165 78V77C162.224 77 160 79.2239 160 82H161ZM165 78C167.224 78 169 79.7761 169 82H170C170 79.2239 167.776 77 165 77V78ZM169 82C169 84.2239 167.224 86 165 86V87C167.776 87 170 84.7761 170 82H169ZM165 86C162.776 86 161 84.2239 161 82H160C160 84.7761 162.224 87 165 87V86ZM169.5 82.5H216V81.5H169.5V82.5ZM236.5 62V53H235.5V62H236.5ZM256 33.5H307V32.5H256V33.5ZM236.5 53C236.5 42.2304 245.23 33.5 256 33.5V32.5C244.678 32.5 235.5 41.6782 235.5 53H236.5ZM216 82.5C227.322 82.5 236.5 73.3218 236.5 62H235.5C235.5 72.7696 226.77 81.5 216 81.5V82.5Z" fill="#4883F8"/>
<path d="M165 77.5C162.5 77.5 160.5 79.5 160.5 82C160.5 84.5 162.5 86.5 165 86.5C167.5 86.5 169.5 84.5 169.5 82C169.5 79.5 167.5 77.5 165 77.5Z" fill="white"/>
<path d="M307.354 135.354C307.549 135.158 307.549 134.842 307.354 134.646L304.172 131.464C303.976 131.269 303.66 131.269 303.464 131.464C303.269 131.66 303.269 131.976 303.464 132.172L306.293 135L303.464 137.828C303.269 138.024 303.269 138.34 303.464 138.536C303.66 138.731 303.976 138.731 304.172 138.536L307.354 135.354ZM161 82C161 79.7761 162.776 78 165 78V77C162.224 77 160 79.2239 160 82H161ZM165 78C167.224 78 169 79.7761 169 82H170C170 79.2239 167.776 77 165 77V78ZM169 82C169 84.2239 167.224 86 165 86V87C167.776 87 170 84.7761 170 82H169ZM165 86C162.776 86 161 84.2239 161 82H160C160 84.7761 162.224 87 165 87V86ZM169.5 82.5H216V81.5H169.5V82.5ZM235.5 102V115H236.5V102H235.5ZM256 135.5H307V134.5H256V135.5ZM235.5 115C235.5 126.322 244.678 135.5 256 135.5V134.5C245.23 134.5 236.5 125.77 236.5 115H235.5ZM216 82.5C226.77 82.5 235.5 91.2304 235.5 102H236.5C236.5 90.6782 227.322 81.5 216 81.5V82.5Z" fill="#4883F8"/>
</svg>
