<svg width="480" height="178" viewBox="0 0 480 178" fill="none" xmlns="http://www.w3.org/2000/svg">
<rect width="191" height="178" rx="10" fill="#F7F7F7"/>
<circle cx="41" cy="37" r="16" fill="#FFE6E6"/>
<rect x="62" y="26.5" width="97" height="7" rx="3.5" fill="#D0D4DA"/>
<rect x="62" y="39.5" width="78" height="3" rx="1.5" fill="#D0D4DA"/>
<rect x="62" y="44.5" width="78" height="3" rx="1.5" fill="#D0D4DA"/>
<circle cx="41" cy="89" r="16" fill="#FFE6E6"/>
<rect x="62" y="78.5" width="97" height="7" rx="3.5" fill="#D0D4DA"/>
<rect x="62" y="91.5" width="78" height="3" rx="1.5" fill="#D0D4DA"/>
<rect x="62" y="96.5" width="78" height="3" rx="1.5" fill="#D0D4DA"/>
<circle cx="41" cy="141" r="16" fill="#FFE6E6"/>
<rect x="62" y="130.5" width="97" height="7" rx="3.5" fill="#D0D4DA"/>
<rect x="62" y="143.5" width="78" height="3" rx="1.5" fill="#D0D4DA"/>
<rect x="62" y="148.5" width="78" height="3" rx="1.5" fill="#D0D4DA"/>
<rect x="205" width="275" height="178" rx="10" fill="#F8F9FC"/>
<rect x="213" y="139" width="259" height="32" rx="6" fill="#DBE4F0"/>
<path d="M228.276 159L225.444 150.6H226.356L229.008 158.508H228.552L231.288 150.6H232.104L234.804 158.508H234.372L237.048 150.6H237.9L235.068 159H234.132L231.552 151.5H231.792L229.2 159H228.276ZM239.102 159V152.7H239.918V154.416L239.834 154.116C240.01 153.636 240.306 153.272 240.722 153.024C241.138 152.768 241.654 152.64 242.27 152.64V153.468C242.238 153.468 242.206 153.468 242.174 153.468C242.142 153.46 242.11 153.456 242.078 153.456C241.414 153.456 240.894 153.66 240.518 154.068C240.142 154.468 239.954 155.04 239.954 155.784V159H239.102ZM243.825 159V152.7H244.677V159H243.825ZM244.257 151.308C244.081 151.308 243.933 151.248 243.813 151.128C243.693 151.008 243.633 150.864 243.633 150.696C243.633 150.528 243.693 150.388 243.813 150.276C243.933 150.156 244.081 150.096 244.257 150.096C244.433 150.096 244.581 150.152 244.701 150.264C244.821 150.376 244.881 150.516 244.881 150.684C244.881 150.86 244.821 151.008 244.701 151.128C244.589 151.248 244.441 151.308 244.257 151.308ZM249.039 159.06C248.447 159.06 247.991 158.9 247.671 158.58C247.351 158.26 247.191 157.808 247.191 157.224V151.308H248.043V157.176C248.043 157.544 248.135 157.828 248.319 158.028C248.511 158.228 248.783 158.328 249.135 158.328C249.511 158.328 249.823 158.22 250.071 158.004L250.371 158.616C250.203 158.768 249.999 158.88 249.759 158.952C249.527 159.024 249.287 159.06 249.039 159.06ZM246.063 153.408V152.7H249.963V153.408H246.063ZM254.376 159.06C253.72 159.06 253.144 158.924 252.648 158.652C252.152 158.372 251.764 157.992 251.484 157.512C251.204 157.024 251.064 156.468 251.064 155.844C251.064 155.22 251.196 154.668 251.46 154.188C251.732 153.708 252.1 153.332 252.564 153.06C253.036 152.78 253.564 152.64 254.148 152.64C254.74 152.64 255.264 152.776 255.72 153.048C256.184 153.312 256.548 153.688 256.812 154.176C257.076 154.656 257.208 155.212 257.208 155.844C257.208 155.884 257.204 155.928 257.196 155.976C257.196 156.016 257.196 156.06 257.196 156.108H251.712V155.472H256.74L256.404 155.724C256.404 155.268 256.304 154.864 256.104 154.512C255.912 154.152 255.648 153.872 255.312 153.672C254.976 153.472 254.588 153.372 254.148 153.372C253.716 153.372 253.328 153.472 252.984 153.672C252.64 153.872 252.372 154.152 252.18 154.512C251.988 154.872 251.892 155.284 251.892 155.748V155.88C251.892 156.36 251.996 156.784 252.204 157.152C252.42 157.512 252.716 157.796 253.092 158.004C253.476 158.204 253.912 158.304 254.4 158.304C254.784 158.304 255.14 158.236 255.468 158.1C255.804 157.964 256.092 157.756 256.332 157.476L256.812 158.028C256.532 158.364 256.18 158.62 255.756 158.796C255.34 158.972 254.88 159.06 254.376 159.06ZM269.955 152.64C270.467 152.64 270.911 152.74 271.287 152.94C271.671 153.132 271.967 153.428 272.175 153.828C272.391 154.228 272.499 154.732 272.499 155.34V159H271.647V155.424C271.647 154.76 271.487 154.26 271.167 153.924C270.855 153.58 270.411 153.408 269.835 153.408C269.403 153.408 269.027 153.5 268.707 153.684C268.395 153.86 268.151 154.12 267.975 154.464C267.807 154.8 267.723 155.208 267.723 155.688V159H266.871V155.424C266.871 154.76 266.711 154.26 266.391 153.924C266.071 153.58 265.623 153.408 265.047 153.408C264.623 153.408 264.251 153.5 263.931 153.684C263.611 153.86 263.363 154.12 263.187 154.464C263.019 154.8 262.935 155.208 262.935 155.688V159H262.083V152.7H262.899V154.404L262.767 154.104C262.959 153.648 263.267 153.292 263.691 153.036C264.123 152.772 264.631 152.64 265.215 152.64C265.831 152.64 266.355 152.796 266.787 153.108C267.219 153.412 267.499 153.872 267.627 154.488L267.291 154.356C267.475 153.844 267.799 153.432 268.263 153.12C268.735 152.8 269.299 152.64 269.955 152.64ZM277.485 159.06C276.829 159.06 276.253 158.924 275.757 158.652C275.261 158.372 274.873 157.992 274.593 157.512C274.313 157.024 274.173 156.468 274.173 155.844C274.173 155.22 274.305 154.668 274.569 154.188C274.841 153.708 275.209 153.332 275.673 153.06C276.145 152.78 276.673 152.64 277.257 152.64C277.849 152.64 278.373 152.776 278.829 153.048C279.293 153.312 279.657 153.688 279.921 154.176C280.185 154.656 280.317 155.212 280.317 155.844C280.317 155.884 280.313 155.928 280.305 155.976C280.305 156.016 280.305 156.06 280.305 156.108H274.821V155.472H279.849L279.513 155.724C279.513 155.268 279.413 154.864 279.213 154.512C279.021 154.152 278.757 153.872 278.421 153.672C278.085 153.472 277.697 153.372 277.257 153.372C276.825 153.372 276.437 153.472 276.093 153.672C275.749 153.872 275.481 154.152 275.289 154.512C275.097 154.872 275.001 155.284 275.001 155.748V155.88C275.001 156.36 275.105 156.784 275.313 157.152C275.529 157.512 275.825 157.796 276.201 158.004C276.585 158.204 277.021 158.304 277.509 158.304C277.893 158.304 278.249 158.236 278.577 158.1C278.913 157.964 279.201 157.756 279.441 157.476L279.921 158.028C279.641 158.364 279.289 158.62 278.865 158.796C278.449 158.972 277.989 159.06 277.485 159.06ZM283.743 159.06C283.223 159.06 282.731 158.988 282.267 158.844C281.803 158.692 281.439 158.504 281.175 158.28L281.559 157.608C281.815 157.8 282.143 157.968 282.543 158.112C282.943 158.248 283.363 158.316 283.803 158.316C284.403 158.316 284.835 158.224 285.099 158.04C285.363 157.848 285.495 157.596 285.495 157.284C285.495 157.052 285.419 156.872 285.267 156.744C285.123 156.608 284.931 156.508 284.691 156.444C284.451 156.372 284.183 156.312 283.887 156.264C283.591 156.216 283.295 156.16 282.999 156.096C282.711 156.032 282.447 155.94 282.207 155.82C281.967 155.692 281.771 155.52 281.619 155.304C281.475 155.088 281.403 154.8 281.403 154.44C281.403 154.096 281.499 153.788 281.691 153.516C281.883 153.244 282.163 153.032 282.531 152.88C282.907 152.72 283.363 152.64 283.899 152.64C284.307 152.64 284.715 152.696 285.123 152.808C285.531 152.912 285.867 153.052 286.131 153.228L285.759 153.912C285.479 153.72 285.179 153.584 284.859 153.504C284.539 153.416 284.219 153.372 283.899 153.372C283.331 153.372 282.911 153.472 282.639 153.672C282.375 153.864 282.243 154.112 282.243 154.416C282.243 154.656 282.315 154.844 282.459 154.98C282.611 155.116 282.807 155.224 283.047 155.304C283.295 155.376 283.563 155.436 283.851 155.484C284.147 155.532 284.439 155.592 284.727 155.664C285.023 155.728 285.291 155.82 285.531 155.94C285.779 156.052 285.975 156.216 286.119 156.432C286.271 156.64 286.347 156.916 286.347 157.26C286.347 157.628 286.243 157.948 286.035 158.22C285.835 158.484 285.539 158.692 285.147 158.844C284.763 158.988 284.295 159.06 283.743 159.06ZM289.603 159.06C289.083 159.06 288.591 158.988 288.127 158.844C287.663 158.692 287.299 158.504 287.035 158.28L287.419 157.608C287.675 157.8 288.003 157.968 288.403 158.112C288.803 158.248 289.223 158.316 289.663 158.316C290.263 158.316 290.695 158.224 290.959 158.04C291.223 157.848 291.355 157.596 291.355 157.284C291.355 157.052 291.279 156.872 291.127 156.744C290.983 156.608 290.791 156.508 290.551 156.444C290.311 156.372 290.043 156.312 289.747 156.264C289.451 156.216 289.155 156.16 288.859 156.096C288.571 156.032 288.307 155.94 288.067 155.82C287.827 155.692 287.631 155.52 287.479 155.304C287.335 155.088 287.263 154.8 287.263 154.44C287.263 154.096 287.359 153.788 287.551 153.516C287.743 153.244 288.023 153.032 288.391 152.88C288.767 152.72 289.223 152.64 289.759 152.64C290.167 152.64 290.575 152.696 290.983 152.808C291.391 152.912 291.727 153.052 291.991 153.228L291.619 153.912C291.339 153.72 291.039 153.584 290.719 153.504C290.399 153.416 290.079 153.372 289.759 153.372C289.191 153.372 288.771 153.472 288.499 153.672C288.235 153.864 288.103 154.112 288.103 154.416C288.103 154.656 288.175 154.844 288.319 154.98C288.471 155.116 288.667 155.224 288.907 155.304C289.155 155.376 289.423 155.436 289.711 155.484C290.007 155.532 290.299 155.592 290.587 155.664C290.883 155.728 291.151 155.82 291.391 155.94C291.639 156.052 291.835 156.216 291.979 156.432C292.131 156.64 292.207 156.916 292.207 157.26C292.207 157.628 292.103 157.948 291.895 158.22C291.695 158.484 291.399 158.692 291.007 158.844C290.623 158.988 290.155 159.06 289.603 159.06ZM297.718 159V157.608L297.682 157.38V155.052C297.682 154.516 297.53 154.104 297.226 153.816C296.93 153.528 296.486 153.384 295.894 153.384C295.486 153.384 295.098 153.452 294.73 153.588C294.362 153.724 294.05 153.904 293.794 154.128L293.41 153.492C293.73 153.22 294.114 153.012 294.562 152.868C295.01 152.716 295.482 152.64 295.978 152.64C296.794 152.64 297.422 152.844 297.862 153.252C298.31 153.652 298.534 154.264 298.534 155.088V159H297.718ZM295.546 159.06C295.074 159.06 294.662 158.984 294.31 158.832C293.966 158.672 293.702 158.456 293.518 158.184C293.334 157.904 293.242 157.584 293.242 157.224C293.242 156.896 293.318 156.6 293.47 156.336C293.63 156.064 293.886 155.848 294.238 155.688C294.598 155.52 295.078 155.436 295.678 155.436H297.85V156.072H295.702C295.094 156.072 294.67 156.18 294.43 156.396C294.198 156.612 294.082 156.88 294.082 157.2C294.082 157.56 294.222 157.848 294.502 158.064C294.782 158.28 295.174 158.388 295.678 158.388C296.158 158.388 296.57 158.28 296.914 158.064C297.266 157.84 297.522 157.52 297.682 157.104L297.874 157.692C297.714 158.108 297.434 158.44 297.034 158.688C296.642 158.936 296.146 159.06 295.546 159.06ZM303.536 161.388C302.96 161.388 302.408 161.304 301.88 161.136C301.352 160.968 300.924 160.728 300.596 160.416L301.028 159.768C301.324 160.032 301.688 160.24 302.12 160.392C302.56 160.552 303.024 160.632 303.512 160.632C304.312 160.632 304.9 160.444 305.276 160.068C305.652 159.7 305.84 159.124 305.84 158.34V156.768L305.96 155.688L305.876 154.608V152.7H306.692V158.232C306.692 159.32 306.424 160.116 305.888 160.62C305.36 161.132 304.576 161.388 303.536 161.388ZM303.38 158.76C302.78 158.76 302.24 158.632 301.76 158.376C301.28 158.112 300.9 157.748 300.62 157.284C300.348 156.82 300.212 156.288 300.212 155.688C300.212 155.088 300.348 154.56 300.62 154.104C300.9 153.64 301.28 153.28 301.76 153.024C302.24 152.768 302.78 152.64 303.38 152.64C303.94 152.64 304.444 152.756 304.892 152.988C305.34 153.22 305.696 153.564 305.96 154.02C306.224 154.476 306.356 155.032 306.356 155.688C306.356 156.344 306.224 156.9 305.96 157.356C305.696 157.812 305.34 158.16 304.892 158.4C304.444 158.64 303.94 158.76 303.38 158.76ZM303.464 158.004C303.928 158.004 304.34 157.908 304.7 157.716C305.06 157.516 305.344 157.244 305.552 156.9C305.76 156.548 305.864 156.144 305.864 155.688C305.864 155.232 305.76 154.832 305.552 154.488C305.344 154.144 305.06 153.876 304.7 153.684C304.34 153.484 303.928 153.384 303.464 153.384C303.008 153.384 302.596 153.484 302.228 153.684C301.868 153.876 301.584 154.144 301.376 154.488C301.176 154.832 301.076 155.232 301.076 155.688C301.076 156.144 301.176 156.548 301.376 156.9C301.584 157.244 301.868 157.516 302.228 157.716C302.596 157.908 303.008 158.004 303.464 158.004ZM311.739 159.06C311.083 159.06 310.507 158.924 310.011 158.652C309.515 158.372 309.127 157.992 308.847 157.512C308.567 157.024 308.427 156.468 308.427 155.844C308.427 155.22 308.559 154.668 308.823 154.188C309.095 153.708 309.463 153.332 309.927 153.06C310.399 152.78 310.927 152.64 311.511 152.64C312.103 152.64 312.627 152.776 313.083 153.048C313.547 153.312 313.911 153.688 314.175 154.176C314.439 154.656 314.571 155.212 314.571 155.844C314.571 155.884 314.567 155.928 314.559 155.976C314.559 156.016 314.559 156.06 314.559 156.108H309.075V155.472H314.103L313.767 155.724C313.767 155.268 313.667 154.864 313.467 154.512C313.275 154.152 313.011 153.872 312.675 153.672C312.339 153.472 311.951 153.372 311.511 153.372C311.079 153.372 310.691 153.472 310.347 153.672C310.003 153.872 309.735 154.152 309.543 154.512C309.351 154.872 309.255 155.284 309.255 155.748V155.88C309.255 156.36 309.359 156.784 309.567 157.152C309.783 157.512 310.079 157.796 310.455 158.004C310.839 158.204 311.275 158.304 311.763 158.304C312.147 158.304 312.503 158.236 312.831 158.1C313.167 157.964 313.455 157.756 313.695 157.476L314.175 158.028C313.895 158.364 313.543 158.62 313.119 158.796C312.703 158.972 312.243 159.06 311.739 159.06Z" fill="#4A5057"/>
<path d="M446.844 153.954C446.348 153.761 446.1 153.664 446.028 153.525C445.965 153.405 445.965 153.261 446.027 153.141C446.1 153.002 446.348 152.905 446.843 152.711L460.917 147.219C461.364 147.045 461.588 146.957 461.731 147.005C461.855 147.047 461.953 147.144 461.994 147.268C462.042 147.411 461.955 147.635 461.78 148.083L456.288 162.156C456.095 162.652 455.998 162.9 455.859 162.972C455.738 163.035 455.595 163.035 455.474 162.972C455.335 162.899 455.239 162.651 455.046 162.155L452.856 156.524C452.816 156.423 452.797 156.372 452.767 156.33C452.74 156.292 452.707 156.26 452.669 156.233C452.627 156.203 452.577 156.183 452.476 156.144L446.844 153.954Z" stroke="#004498" stroke-width="1.5" stroke-linecap="round" stroke-linejoin="round"/>
<rect x="217.523" y="23.2344" width="119.202" height="3.17871" rx="1.58935" fill="#6B93C3"/>
<rect x="217.523" y="29.5916" width="88.2091" height="3.17871" rx="1.58935" fill="#6B93C3"/>
<rect x="217.523" y="35.949" width="59.6008" height="3.17871" rx="1.58935" fill="#6B93C3"/>
<rect x="217.523" y="42.3064" width="97.7452" height="3.17871" rx="1.58935" fill="#6B93C3"/>
<rect x="339" y="64" width="130" height="3.17871" rx="1.58935" fill="#6B93C3"/>
<rect x="339" y="70.3572" width="88.2091" height="3.17871" rx="1.58935" fill="#6B93C3"/>
<rect x="218" y="96" width="130" height="3.17871" rx="1.58935" fill="#6B93C3"/>
<rect x="218" y="102.357" width="88.2091" height="3.17871" rx="1.58935" fill="#6B93C3"/>
</svg>
