<svg width="32" height="32" viewBox="0 0 32 32" fill="none" xmlns="http://www.w3.org/2000/svg">
<path d="M11.9993 16.0013L14.666 18.668L20.666 12.668M23.8676 6.66598C24.1421 7.33001 24.6692 7.85783 25.3328 8.1334L27.6597 9.09727C28.3237 9.37234 28.8513 9.89996 29.1264 10.564C29.4015 11.2281 29.4015 11.9743 29.1264 12.6384L28.1632 14.9637C27.8881 15.6281 27.8877 16.375 28.1641 17.0391L29.1256 19.3637C29.2619 19.6926 29.3322 20.0452 29.3322 20.4012C29.3323 20.7573 29.2622 21.1099 29.1259 21.4388C28.9897 21.7678 28.7899 22.0667 28.5381 22.3184C28.2863 22.5701 27.9874 22.7698 27.6584 22.9059L25.3332 23.8691C24.6691 24.1437 24.1413 24.6707 23.8658 25.3343L22.9019 27.6613C22.6269 28.3254 22.0993 28.853 21.4352 29.1281C20.7712 29.4032 20.025 29.4032 19.361 29.1281L17.0357 28.1649C16.3716 27.8905 15.6258 27.8911 14.9621 28.1665L12.6352 29.129C11.9715 29.4034 11.226 29.4032 10.5625 29.1283C9.89898 28.8535 9.37169 28.3265 9.09643 27.6631L8.13231 25.3354C7.85775 24.6714 7.33074 24.1436 6.66715 23.868L4.34023 22.9041C3.67646 22.6292 3.14902 22.1019 2.87386 21.4382C2.59869 20.7745 2.59832 20.0287 2.87282 19.3647L3.83597 17.0394C4.11035 16.3753 4.10979 15.6294 3.83441 14.9657L2.87265 12.637C2.73629 12.3081 2.66607 11.9555 2.66602 11.5995C2.66596 11.2434 2.73606 10.8908 2.87231 10.5619C3.00857 10.2329 3.2083 9.93404 3.46011 9.68231C3.71191 9.43057 4.01085 9.23093 4.33984 9.09477L6.66508 8.13159C7.32851 7.85726 7.856 7.3309 8.13175 6.66804L9.09559 4.34105C9.37065 3.67696 9.89825 3.14935 10.5623 2.87427C11.2264 2.5992 11.9725 2.5992 12.6366 2.87427L14.9618 3.83746C15.6259 4.11185 16.3718 4.11129 17.0354 3.8359L19.3633 2.87577C20.0273 2.60085 20.7733 2.6009 21.4372 2.87592C22.1011 3.15094 22.6286 3.67841 22.9038 4.34232L23.8679 6.67001L23.8676 6.66598Z" stroke="#B30000" stroke-width="2" stroke-linecap="round" stroke-linejoin="round"/>
</svg>
